<?xml version="1.0" encoding="UTF-8" standalone="no"?>
<!DOCTYPE svg PUBLIC "-//W3C//DTD SVG 1.1//EN"
 "http://www.w3.org/Graphics/SVG/1.1/DTD/svg11.dtd">
<!-- Generated by graphviz version 2.40.1 (20161225.0304)
 -->
<!-- Title: largeRelationshipsDiagram Pages: 1 -->
<svg width="747pt" height="790pt"
 viewBox="0.00 0.00 747.00 790.20" xmlns="http://www.w3.org/2000/svg" xmlns:xlink="http://www.w3.org/1999/xlink">
<g id="graph0" class="graph" transform="scale(1 1) rotate(0) translate(4 786.2)">
<title>largeRelationshipsDiagram</title>
<polygon fill="#ffffff" stroke="transparent" points="-4,4 -4,-786.2 743,-786.2 743,4 -4,4"/>
<text text-anchor="middle" x="72.4936" y="-7.3" font-family="Helvetica,sans-Serif" font-size="11.00" fill="#000000">Generated by SchemaSpy</text>
<!-- locais -->
<g id="node1" class="node">
<title>locais</title>
<g id="a_node1"><a xlink:href="../../tables/locais.html" xlink:title="locais" target="_top">
<polygon fill="#ffffff" stroke="transparent" points="455,-648.2 455,-756.2 540,-756.2 540,-648.2 455,-648.2"/>
<polygon fill="#f5f5f5" stroke="transparent" points="455.5,-733.2 455.5,-756.2 540.5,-756.2 540.5,-733.2 455.5,-733.2"/>
<polygon fill="none" stroke="#000000" points="455.5,-733.2 455.5,-756.2 540.5,-756.2 540.5,-733.2 455.5,-733.2"/>
<text text-anchor="start" x="460.5" y="-741.8" font-family="Helvetica,sans-Serif" font-weight="bold" font-size="11.00" fill="#000000">locais</text>
<text text-anchor="start" x="505.5437" y="-741.3" font-family="Helvetica,sans-Serif" font-size="11.00" fill="#000000">[table]</text>
<polygon fill="none" stroke="#000000" points="455.5,-711.2 455.5,-733.2 540.5,-733.2 540.5,-711.2 455.5,-711.2"/>
<image xlink:href="../../images/primaryKeys.png" width="11px" height="12px" preserveAspectRatio="xMinYMin meet" x="460.5" y="-728.2"/>
<text text-anchor="start" x="475.5" y="-718.3" font-family="Helvetica,sans-Serif" font-size="11.00" fill="#000000">id</text>
<polygon fill="none" stroke="#000000" points="455.5,-689.2 455.5,-711.2 540.5,-711.2 540.5,-689.2 455.5,-689.2"/>
<text text-anchor="start" x="475.5" y="-696.3" font-family="Helvetica,sans-Serif" font-size="11.00" fill="#000000">localizacao</text>
<polygon fill="#ffffff" stroke="transparent" points="455.5,-667.2 455.5,-689.2 540.5,-689.2 540.5,-667.2 455.5,-667.2"/>
<polygon fill="none" stroke="#000000" points="455.5,-667.2 455.5,-689.2 540.5,-689.2 540.5,-667.2 455.5,-667.2"/>
<text text-anchor="start" x="475.5" y="-674.3" font-family="Helvetica,sans-Serif" font-size="11.00" fill="#000000">nome</text>
<polygon fill="#ffffff" stroke="transparent" points="455.5,-648.2 455.5,-667.2 487.5,-667.2 487.5,-648.2 455.5,-648.2"/>
<polygon fill="none" stroke="#000000" points="455.5,-648.2 455.5,-667.2 487.5,-667.2 487.5,-648.2 455.5,-648.2"/>
<text text-anchor="start" x="458.5" y="-654.3" font-family="Helvetica,sans-Serif" font-size="11.00" fill="#000000"> &#160;</text>
<polygon fill="#ffffff" stroke="transparent" points="487.5,-648.2 487.5,-667.2 509.5,-667.2 509.5,-648.2 487.5,-648.2"/>
<polygon fill="none" stroke="#000000" points="487.5,-648.2 487.5,-667.2 509.5,-667.2 509.5,-648.2 487.5,-648.2"/>
<text text-anchor="start" x="500.3862" y="-654.3" font-family="Helvetica,sans-Serif" font-size="11.00" fill="#000000"> &#160;</text>
<polygon fill="#ffffff" stroke="transparent" points="509.5,-648.2 509.5,-667.2 540.5,-667.2 540.5,-648.2 509.5,-648.2"/>
<polygon fill="none" stroke="#000000" points="509.5,-648.2 509.5,-667.2 540.5,-667.2 540.5,-648.2 509.5,-648.2"/>
<text text-anchor="start" x="521.9053" y="-654.3" font-family="Helvetica,sans-Serif" font-size="11.00" fill="#000000">1 &gt;</text>
</a>
</g>
</g>
<!-- mensagens -->
<g id="node2" class="node">
<title>mensagens</title>
<g id="a_node2"><a xlink:href="../../tables/mensagens.html" xlink:title="mensagens" target="_top">
<polygon fill="#ffffff" stroke="transparent" points="617,-192.2 617,-366.2 722,-366.2 722,-192.2 617,-192.2"/>
<polygon fill="#f5f5f5" stroke="transparent" points="617.5,-343.2 617.5,-366.2 722.5,-366.2 722.5,-343.2 617.5,-343.2"/>
<polygon fill="none" stroke="#000000" points="617.5,-343.2 617.5,-366.2 722.5,-366.2 722.5,-343.2 617.5,-343.2"/>
<text text-anchor="start" x="622.5" y="-351.8" font-family="Helvetica,sans-Serif" font-weight="bold" font-size="11.00" fill="#000000">mensagens</text>
<text text-anchor="start" x="688.0219" y="-351.3" font-family="Helvetica,sans-Serif" font-size="11.00" fill="#000000">[table]</text>
<polygon fill="none" stroke="#000000" points="617.5,-321.2 617.5,-343.2 722.5,-343.2 722.5,-321.2 617.5,-321.2"/>
<image xlink:href="../../images/primaryKeys.png" width="11px" height="12px" preserveAspectRatio="xMinYMin meet" x="622.5" y="-338.2"/>
<text text-anchor="start" x="645.5" y="-328.3" font-family="Helvetica,sans-Serif" font-size="11.00" fill="#000000">id</text>
<polygon fill="none" stroke="#000000" points="617.5,-299.2 617.5,-321.2 722.5,-321.2 722.5,-299.2 617.5,-299.2"/>
<image xlink:href="../../images/foreignKeys.png" width="11px" height="12px" preserveAspectRatio="xMinYMin meet" x="622.5" y="-316.2"/>
<text text-anchor="start" x="645.5" y="-306.3" font-family="Helvetica,sans-Serif" font-size="11.00" fill="#000000">id_encontro</text>
<polygon fill="none" stroke="#000000" points="617.5,-277.2 617.5,-299.2 722.5,-299.2 722.5,-277.2 617.5,-277.2"/>
<image xlink:href="../../images/foreignKeys.png" width="11px" height="12px" preserveAspectRatio="xMinYMin meet" x="622.5" y="-294.2"/>
<text text-anchor="start" x="645.5" y="-284.3" font-family="Helvetica,sans-Serif" font-size="11.00" fill="#000000">id_user</text>
<polygon fill="none" stroke="#000000" points="617.5,-255.2 617.5,-277.2 722.5,-277.2 722.5,-255.2 617.5,-255.2"/>
<text text-anchor="start" x="645.5" y="-262.3" font-family="Helvetica,sans-Serif" font-size="11.00" fill="#000000">data</text>
<polygon fill="none" stroke="#000000" points="617.5,-233.2 617.5,-255.2 722.5,-255.2 722.5,-233.2 617.5,-233.2"/>
<text text-anchor="start" x="645.5" y="-240.3" font-family="Helvetica,sans-Serif" font-size="11.00" fill="#000000">pdf_base64</text>
<polygon fill="none" stroke="#000000" points="617.5,-211.2 617.5,-233.2 722.5,-233.2 722.5,-211.2 617.5,-211.2"/>
<text text-anchor="start" x="645.5" y="-218.3" font-family="Helvetica,sans-Serif" font-size="11.00" fill="#000000">texto</text>
<polygon fill="#ffffff" stroke="transparent" points="617.5,-192.2 617.5,-211.2 668.5,-211.2 668.5,-192.2 617.5,-192.2"/>
<polygon fill="none" stroke="#000000" points="617.5,-192.2 617.5,-211.2 668.5,-211.2 668.5,-192.2 617.5,-192.2"/>
<text text-anchor="start" x="620.5" y="-198.3" font-family="Helvetica,sans-Serif" font-size="11.00" fill="#000000">&lt; 2</text>
<polygon fill="#ffffff" stroke="transparent" points="668.5,-192.2 668.5,-211.2 695.5,-211.2 695.5,-192.2 668.5,-192.2"/>
<polygon fill="none" stroke="#000000" points="668.5,-192.2 668.5,-211.2 695.5,-211.2 695.5,-192.2 668.5,-192.2"/>
<text text-anchor="start" x="686.3862" y="-198.3" font-family="Helvetica,sans-Serif" font-size="11.00" fill="#000000"> &#160;</text>
<polygon fill="#ffffff" stroke="transparent" points="695.5,-192.2 695.5,-211.2 722.5,-211.2 722.5,-192.2 695.5,-192.2"/>
<polygon fill="none" stroke="#000000" points="695.5,-192.2 695.5,-211.2 722.5,-211.2 722.5,-192.2 695.5,-192.2"/>
<text text-anchor="start" x="713.3862" y="-198.3" font-family="Helvetica,sans-Serif" font-size="11.00" fill="#000000"> &#160;</text>
</a>
</g>
</g>
<!-- usuarios -->
<g id="node7" class="node">
<title>usuarios</title>
<g id="a_node7"><a xlink:href="../../tables/usuarios.html" xlink:title="usuarios" target="_top">
<polygon fill="#ffffff" stroke="transparent" points="144,-38.2 144,-322.2 233,-322.2 233,-38.2 144,-38.2"/>
<polygon fill="#f5f5f5" stroke="transparent" points="144.5,-299.2 144.5,-322.2 233.5,-322.2 233.5,-299.2 144.5,-299.2"/>
<polygon fill="none" stroke="#000000" points="144.5,-299.2 144.5,-322.2 233.5,-322.2 233.5,-299.2 144.5,-299.2"/>
<text text-anchor="start" x="149.5" y="-307.8" font-family="Helvetica,sans-Serif" font-weight="bold" font-size="11.00" fill="#000000">usuarios</text>
<text text-anchor="start" x="199.0219" y="-307.3" font-family="Helvetica,sans-Serif" font-size="11.00" fill="#000000">[table]</text>
<polygon fill="none" stroke="#000000" points="144.5,-277.2 144.5,-299.2 233.5,-299.2 233.5,-277.2 144.5,-277.2"/>
<image xlink:href="../../images/primaryKeys.png" width="11px" height="12px" preserveAspectRatio="xMinYMin meet" x="149.5" y="-294.2"/>
<text text-anchor="start" x="169.5" y="-284.3" font-family="Helvetica,sans-Serif" font-size="11.00" fill="#000000">id</text>
<polygon fill="none" stroke="#000000" points="144.5,-255.2 144.5,-277.2 233.5,-277.2 233.5,-255.2 144.5,-255.2"/>
<image xlink:href="../../images/foreignKeys.png" width="11px" height="12px" preserveAspectRatio="xMinYMin meet" x="149.5" y="-272.2"/>
<text text-anchor="start" x="169.5" y="-262.3" font-family="Helvetica,sans-Serif" font-size="11.00" fill="#000000">id_curso</text>
<polygon fill="none" stroke="#000000" points="144.5,-233.2 144.5,-255.2 233.5,-255.2 233.5,-233.2 144.5,-233.2"/>
<text text-anchor="start" x="169.5" y="-240.3" font-family="Helvetica,sans-Serif" font-size="11.00" fill="#000000">data_nasc</text>
<polygon fill="none" stroke="#000000" points="144.5,-211.2 144.5,-233.2 233.5,-233.2 233.5,-211.2 144.5,-211.2"/>
<text text-anchor="start" x="169.5" y="-218.3" font-family="Helvetica,sans-Serif" font-size="11.00" fill="#000000">dtype</text>
<polygon fill="#ffffff" stroke="transparent" points="144.5,-189.2 144.5,-211.2 233.5,-211.2 233.5,-189.2 144.5,-189.2"/>
<polygon fill="none" stroke="#000000" points="144.5,-189.2 144.5,-211.2 233.5,-211.2 233.5,-189.2 144.5,-189.2"/>
<text text-anchor="start" x="169.5" y="-196.3" font-family="Helvetica,sans-Serif" font-size="11.00" fill="#000000">nome</text>
<polygon fill="#ffffff" stroke="transparent" points="144.5,-167.2 144.5,-189.2 233.5,-189.2 233.5,-167.2 144.5,-167.2"/>
<polygon fill="none" stroke="#000000" points="144.5,-167.2 144.5,-189.2 233.5,-189.2 233.5,-167.2 144.5,-167.2"/>
<text text-anchor="start" x="169.5" y="-174.3" font-family="Helvetica,sans-Serif" font-size="11.00" fill="#000000">email</text>
<polygon fill="#ffffff" stroke="transparent" points="144.5,-145.2 144.5,-167.2 233.5,-167.2 233.5,-145.2 144.5,-145.2"/>
<polygon fill="none" stroke="#000000" points="144.5,-145.2 144.5,-167.2 233.5,-167.2 233.5,-145.2 144.5,-145.2"/>
<text text-anchor="start" x="169.5" y="-152.3" font-family="Helvetica,sans-Serif" font-size="11.00" fill="#000000">matricula</text>
<polygon fill="none" stroke="#000000" points="144.5,-123.2 144.5,-145.2 233.5,-145.2 233.5,-123.2 144.5,-123.2"/>
<text text-anchor="start" x="169.5" y="-130.3" font-family="Helvetica,sans-Serif" font-size="11.00" fill="#000000">password</text>
<polygon fill="none" stroke="#000000" points="144.5,-101.2 144.5,-123.2 233.5,-123.2 233.5,-101.2 144.5,-101.2"/>
<text text-anchor="start" x="169.5" y="-108.3" font-family="Helvetica,sans-Serif" font-size="11.00" fill="#000000">role</text>
<polygon fill="#ffffff" stroke="transparent" points="144.5,-79.2 144.5,-101.2 233.5,-101.2 233.5,-79.2 144.5,-79.2"/>
<polygon fill="none" stroke="#000000" points="144.5,-79.2 144.5,-101.2 233.5,-101.2 233.5,-79.2 144.5,-79.2"/>
<text text-anchor="start" x="169.5" y="-86.3" font-family="Helvetica,sans-Serif" font-size="11.00" fill="#000000">siape</text>
<polygon fill="none" stroke="#000000" points="144.5,-57.2 144.5,-79.2 233.5,-79.2 233.5,-57.2 144.5,-57.2"/>
<text text-anchor="start" x="169.5" y="-64.3" font-family="Helvetica,sans-Serif" font-size="11.00" fill="#000000">situacao</text>
<polygon fill="#ffffff" stroke="transparent" points="144.5,-38.2 144.5,-57.2 182.5,-57.2 182.5,-38.2 144.5,-38.2"/>
<polygon fill="none" stroke="#000000" points="144.5,-38.2 144.5,-57.2 182.5,-57.2 182.5,-38.2 144.5,-38.2"/>
<text text-anchor="start" x="147.5" y="-44.3" font-family="Helvetica,sans-Serif" font-size="11.00" fill="#000000">&lt; 1</text>
<polygon fill="#ffffff" stroke="transparent" points="182.5,-38.2 182.5,-57.2 203.5,-57.2 203.5,-38.2 182.5,-38.2"/>
<polygon fill="none" stroke="#000000" points="182.5,-38.2 182.5,-57.2 203.5,-57.2 203.5,-38.2 182.5,-38.2"/>
<text text-anchor="start" x="194.3862" y="-44.3" font-family="Helvetica,sans-Serif" font-size="11.00" fill="#000000"> &#160;</text>
<polygon fill="#ffffff" stroke="transparent" points="203.5,-38.2 203.5,-57.2 233.5,-57.2 233.5,-38.2 203.5,-38.2"/>
<polygon fill="none" stroke="#000000" points="203.5,-38.2 203.5,-57.2 233.5,-57.2 233.5,-38.2 203.5,-38.2"/>
<text text-anchor="start" x="214.9053" y="-44.3" font-family="Helvetica,sans-Serif" font-size="11.00" fill="#000000">6 &gt;</text>
</a>
</g>
</g>
<!-- mensagens&#45;&gt;usuarios -->
<g id="edge8" class="edge">
<title>mensagens:w&#45;&gt;usuarios:e</title>
<path fill="none" stroke="#000000" d="M603.1008,-285.899C565.8646,-271.4563 611.2469,-192.8067 567,-158.2 464.1365,-77.7479 377.5473,-56.63 274,-136.2 218.5646,-178.7989 303.4125,-288.2 233.5,-288.2"/>
<polygon fill="#000000" stroke="#000000" points="609.6002,-286.9376 616.9319,-291.7549 613.5501,-287.5688 617.5,-288.2 617.5,-288.2 617.5,-288.2 613.5501,-287.5688 618.0681,-284.6451 609.6002,-286.9376 609.6002,-286.9376"/>
<ellipse fill="none" stroke="#000000" cx="606.4403" cy="-286.4326" rx="3.2" ry="3.2"/>
</g>
<!-- encontros -->
<g id="node8" class="node">
<title>encontros</title>
<g id="a_node8"><a xlink:href="../../tables/encontros.html" xlink:title="encontros" target="_top">
<polygon fill="#ffffff" stroke="transparent" points="449,-475.2 449,-627.2 546,-627.2 546,-475.2 449,-475.2"/>
<polygon fill="#f5f5f5" stroke="transparent" points="449.5,-604.2 449.5,-627.2 546.5,-627.2 546.5,-604.2 449.5,-604.2"/>
<polygon fill="none" stroke="#000000" points="449.5,-604.2 449.5,-627.2 546.5,-627.2 546.5,-604.2 449.5,-604.2"/>
<text text-anchor="start" x="454.5" y="-612.8" font-family="Helvetica,sans-Serif" font-weight="bold" font-size="11.00" fill="#000000">encontros</text>
<text text-anchor="start" x="512.0219" y="-612.3" font-family="Helvetica,sans-Serif" font-size="11.00" fill="#000000">[table]</text>
<polygon fill="none" stroke="#000000" points="449.5,-582.2 449.5,-604.2 546.5,-604.2 546.5,-582.2 449.5,-582.2"/>
<image xlink:href="../../images/primaryKeys.png" width="11px" height="12px" preserveAspectRatio="xMinYMin meet" x="454.5" y="-599.2"/>
<text text-anchor="start" x="478.5" y="-589.3" font-family="Helvetica,sans-Serif" font-size="11.00" fill="#000000">id</text>
<polygon fill="none" stroke="#000000" points="449.5,-560.2 449.5,-582.2 546.5,-582.2 546.5,-560.2 449.5,-560.2"/>
<image xlink:href="../../images/foreignKeys.png" width="11px" height="12px" preserveAspectRatio="xMinYMin meet" x="454.5" y="-577.2"/>
<text text-anchor="start" x="478.5" y="-567.3" font-family="Helvetica,sans-Serif" font-size="11.00" fill="#000000">id_grupo</text>
<polygon fill="none" stroke="#000000" points="449.5,-538.2 449.5,-560.2 546.5,-560.2 546.5,-538.2 449.5,-538.2"/>
<image xlink:href="../../images/foreignKeys.png" width="11px" height="12px" preserveAspectRatio="xMinYMin meet" x="454.5" y="-555.2"/>
<text text-anchor="start" x="478.5" y="-545.3" font-family="Helvetica,sans-Serif" font-size="11.00" fill="#000000">id_turma</text>
<polygon fill="none" stroke="#000000" points="449.5,-516.2 449.5,-538.2 546.5,-538.2 546.5,-516.2 449.5,-516.2"/>
<text text-anchor="start" x="478.5" y="-523.3" font-family="Helvetica,sans-Serif" font-size="11.00" fill="#000000">tema</text>
<polygon fill="none" stroke="#000000" points="449.5,-494.2 449.5,-516.2 546.5,-516.2 546.5,-494.2 449.5,-494.2"/>
<text text-anchor="start" x="478.5" y="-501.3" font-family="Helvetica,sans-Serif" font-size="11.00" fill="#000000">descricao</text>
<polygon fill="#ffffff" stroke="transparent" points="449.5,-475.2 449.5,-494.2 491.5,-494.2 491.5,-475.2 449.5,-475.2"/>
<polygon fill="none" stroke="#000000" points="449.5,-475.2 449.5,-494.2 491.5,-494.2 491.5,-475.2 449.5,-475.2"/>
<text text-anchor="start" x="452.5" y="-481.3" font-family="Helvetica,sans-Serif" font-size="11.00" fill="#000000">&lt; 2</text>
<polygon fill="#ffffff" stroke="transparent" points="491.5,-475.2 491.5,-494.2 514.5,-494.2 514.5,-475.2 491.5,-475.2"/>
<polygon fill="none" stroke="#000000" points="491.5,-475.2 491.5,-494.2 514.5,-494.2 514.5,-475.2 491.5,-475.2"/>
<text text-anchor="start" x="505.3862" y="-481.3" font-family="Helvetica,sans-Serif" font-size="11.00" fill="#000000"> &#160;</text>
<polygon fill="#ffffff" stroke="transparent" points="514.5,-475.2 514.5,-494.2 546.5,-494.2 546.5,-475.2 514.5,-475.2"/>
<polygon fill="none" stroke="#000000" points="514.5,-475.2 514.5,-494.2 546.5,-494.2 546.5,-475.2 514.5,-475.2"/>
<text text-anchor="start" x="527.9053" y="-481.3" font-family="Helvetica,sans-Serif" font-size="11.00" fill="#000000">2 &gt;</text>
</a>
</g>
</g>
<!-- mensagens&#45;&gt;encontros -->
<g id="edge7" class="edge">
<title>mensagens:w&#45;&gt;encontros:e</title>
<path fill="none" stroke="#000000" d="M603.1049,-311.5892C502.7399,-332.9388 670.857,-593.2 546.5,-593.2"/>
<polygon fill="#000000" stroke="#000000" points="609.537,-310.9685 617.8458,-313.7834 613.5185,-310.5843 617.5,-310.2 617.5,-310.2 617.5,-310.2 613.5185,-310.5843 617.1542,-306.6166 609.537,-310.9685 609.537,-310.9685"/>
<ellipse fill="none" stroke="#000000" cx="606.3518" cy="-311.2759" rx="3.2" ry="3.2"/>
</g>
<!-- usuario_turma -->
<g id="node3" class="node">
<title>usuario_turma</title>
<g id="a_node3"><a xlink:href="../../tables/usuario_turma.html" xlink:title="usuario_turma" target="_top">
<polygon fill="#ffffff" stroke="transparent" points="436.5,-169.2 436.5,-255.2 558.5,-255.2 558.5,-169.2 436.5,-169.2"/>
<polygon fill="#f5f5f5" stroke="transparent" points="436.5,-232.2 436.5,-255.2 558.5,-255.2 558.5,-232.2 436.5,-232.2"/>
<polygon fill="none" stroke="#000000" points="436.5,-232.2 436.5,-255.2 558.5,-255.2 558.5,-232.2 436.5,-232.2"/>
<text text-anchor="start" x="441.5" y="-240.8" font-family="Helvetica,sans-Serif" font-weight="bold" font-size="11.00" fill="#000000">usuario_turma</text>
<text text-anchor="start" x="524.0219" y="-240.3" font-family="Helvetica,sans-Serif" font-size="11.00" fill="#000000">[table]</text>
<polygon fill="none" stroke="#000000" points="436.5,-210.2 436.5,-232.2 558.5,-232.2 558.5,-210.2 436.5,-210.2"/>
<image xlink:href="../../images/foreignKeys.png" width="11px" height="12px" preserveAspectRatio="xMinYMin meet" x="441.5" y="-227.2"/>
<text text-anchor="start" x="465.5" y="-217.3" font-family="Helvetica,sans-Serif" font-size="11.00" fill="#000000">id_turma</text>
<polygon fill="none" stroke="#000000" points="436.5,-188.2 436.5,-210.2 558.5,-210.2 558.5,-188.2 436.5,-188.2"/>
<image xlink:href="../../images/foreignKeys.png" width="11px" height="12px" preserveAspectRatio="xMinYMin meet" x="441.5" y="-205.2"/>
<text text-anchor="start" x="465.5" y="-195.3" font-family="Helvetica,sans-Serif" font-size="11.00" fill="#000000">id_usuario</text>
<polygon fill="#ffffff" stroke="transparent" points="436.5,-169.2 436.5,-188.2 495.5,-188.2 495.5,-169.2 436.5,-169.2"/>
<polygon fill="none" stroke="#000000" points="436.5,-169.2 436.5,-188.2 495.5,-188.2 495.5,-169.2 436.5,-169.2"/>
<text text-anchor="start" x="439.5" y="-175.3" font-family="Helvetica,sans-Serif" font-size="11.00" fill="#000000">&lt; 2</text>
<polygon fill="#ffffff" stroke="transparent" points="495.5,-169.2 495.5,-188.2 526.5,-188.2 526.5,-169.2 495.5,-169.2"/>
<polygon fill="none" stroke="#000000" points="495.5,-169.2 495.5,-188.2 526.5,-188.2 526.5,-169.2 495.5,-169.2"/>
<text text-anchor="start" x="517.3862" y="-175.3" font-family="Helvetica,sans-Serif" font-size="11.00" fill="#000000"> &#160;</text>
<polygon fill="#ffffff" stroke="transparent" points="526.5,-169.2 526.5,-188.2 558.5,-188.2 558.5,-169.2 526.5,-169.2"/>
<polygon fill="none" stroke="#000000" points="526.5,-169.2 526.5,-188.2 558.5,-188.2 558.5,-169.2 526.5,-169.2"/>
<text text-anchor="start" x="549.3862" y="-175.3" font-family="Helvetica,sans-Serif" font-size="11.00" fill="#000000"> &#160;</text>
</a>
</g>
</g>
<!-- turmas -->
<g id="node4" class="node">
<title>turmas</title>
<g id="a_node4"><a xlink:href="../../tables/turmas.html" xlink:title="turmas" target="_top">
<polygon fill="#ffffff" stroke="transparent" points="295,-387.2 295,-583.2 374,-583.2 374,-387.2 295,-387.2"/>
<polygon fill="#f5f5f5" stroke="transparent" points="295.5,-560.2 295.5,-583.2 374.5,-583.2 374.5,-560.2 295.5,-560.2"/>
<polygon fill="none" stroke="#000000" points="295.5,-560.2 295.5,-583.2 374.5,-583.2 374.5,-560.2 295.5,-560.2"/>
<text text-anchor="start" x="300.5" y="-568.8" font-family="Helvetica,sans-Serif" font-weight="bold" font-size="11.00" fill="#000000">turmas</text>
<text text-anchor="start" x="340.0219" y="-568.3" font-family="Helvetica,sans-Serif" font-size="11.00" fill="#000000">[table]</text>
<polygon fill="none" stroke="#000000" points="295.5,-538.2 295.5,-560.2 374.5,-560.2 374.5,-538.2 295.5,-538.2"/>
<image xlink:href="../../images/primaryKeys.png" width="11px" height="12px" preserveAspectRatio="xMinYMin meet" x="300.5" y="-555.2"/>
<text text-anchor="start" x="316.5" y="-545.3" font-family="Helvetica,sans-Serif" font-size="11.00" fill="#000000">id</text>
<polygon fill="none" stroke="#000000" points="295.5,-516.2 295.5,-538.2 374.5,-538.2 374.5,-516.2 295.5,-516.2"/>
<image xlink:href="../../images/foreignKeys.png" width="11px" height="12px" preserveAspectRatio="xMinYMin meet" x="300.5" y="-533.2"/>
<text text-anchor="start" x="316.5" y="-523.3" font-family="Helvetica,sans-Serif" font-size="11.00" fill="#000000">id_curso</text>
<polygon fill="none" stroke="#000000" points="295.5,-494.2 295.5,-516.2 374.5,-516.2 374.5,-494.2 295.5,-494.2"/>
<image xlink:href="../../images/foreignKeys.png" width="11px" height="12px" preserveAspectRatio="xMinYMin meet" x="300.5" y="-511.2"/>
<text text-anchor="start" x="316.5" y="-501.3" font-family="Helvetica,sans-Serif" font-size="11.00" fill="#000000">id_user</text>
<polygon fill="none" stroke="#000000" points="295.5,-472.2 295.5,-494.2 374.5,-494.2 374.5,-472.2 295.5,-472.2"/>
<text text-anchor="start" x="316.5" y="-479.3" font-family="Helvetica,sans-Serif" font-size="11.00" fill="#000000">turno</text>
<polygon fill="none" stroke="#000000" points="295.5,-450.2 295.5,-472.2 374.5,-472.2 374.5,-450.2 295.5,-450.2"/>
<text text-anchor="start" x="316.5" y="-457.3" font-family="Helvetica,sans-Serif" font-size="11.00" fill="#000000">disciplina</text>
<polygon fill="#ffffff" stroke="transparent" points="295.5,-428.2 295.5,-450.2 374.5,-450.2 374.5,-428.2 295.5,-428.2"/>
<polygon fill="none" stroke="#000000" points="295.5,-428.2 295.5,-450.2 374.5,-450.2 374.5,-428.2 295.5,-428.2"/>
<text text-anchor="start" x="316.5" y="-435.3" font-family="Helvetica,sans-Serif" font-size="11.00" fill="#000000">nome</text>
<polygon fill="none" stroke="#000000" points="295.5,-406.2 295.5,-428.2 374.5,-428.2 374.5,-406.2 295.5,-406.2"/>
<text text-anchor="start" x="316.5" y="-413.3" font-family="Helvetica,sans-Serif" font-size="11.00" fill="#000000">descricao</text>
<polygon fill="#ffffff" stroke="transparent" points="295.5,-387.2 295.5,-406.2 328.5,-406.2 328.5,-387.2 295.5,-387.2"/>
<polygon fill="none" stroke="#000000" points="295.5,-387.2 295.5,-406.2 328.5,-406.2 328.5,-387.2 295.5,-387.2"/>
<text text-anchor="start" x="298.5" y="-393.3" font-family="Helvetica,sans-Serif" font-size="11.00" fill="#000000">&lt; 2</text>
<polygon fill="#ffffff" stroke="transparent" points="328.5,-387.2 328.5,-406.2 346.5,-406.2 346.5,-387.2 328.5,-387.2"/>
<polygon fill="none" stroke="#000000" points="328.5,-387.2 328.5,-406.2 346.5,-406.2 346.5,-387.2 328.5,-387.2"/>
<text text-anchor="start" x="337.3862" y="-393.3" font-family="Helvetica,sans-Serif" font-size="11.00" fill="#000000"> &#160;</text>
<polygon fill="#ffffff" stroke="transparent" points="346.5,-387.2 346.5,-406.2 374.5,-406.2 374.5,-387.2 346.5,-387.2"/>
<polygon fill="none" stroke="#000000" points="346.5,-387.2 346.5,-406.2 374.5,-406.2 374.5,-387.2 346.5,-387.2"/>
<text text-anchor="start" x="355.9053" y="-393.3" font-family="Helvetica,sans-Serif" font-size="11.00" fill="#000000">2 &gt;</text>
</a>
</g>
</g>
<!-- usuario_turma&#45;&gt;turmas -->
<g id="edge14" class="edge">
<title>usuario_turma:w&#45;&gt;turmas:e</title>
<path fill="none" stroke="#000000" d="M422.8121,-226.0912C373.9636,-266.8933 443.319,-549.2 374.5,-549.2"/>
<polygon fill="#000000" stroke="#000000" points="428.9665,-223.892 437.7114,-224.5901 432.7333,-222.546 436.5,-221.2 436.5,-221.2 436.5,-221.2 432.7333,-222.546 435.2886,-217.8099 428.9665,-223.892 428.9665,-223.892"/>
<ellipse fill="none" stroke="#000000" cx="425.9531" cy="-224.9688" rx="3.2" ry="3.2"/>
</g>
<!-- usuario_turma&#45;&gt;usuarios -->
<g id="edge15" class="edge">
<title>usuario_turma:w&#45;&gt;usuarios:e</title>
<path fill="none" stroke="#000000" d="M422.7564,-194.4637C412.7466,-185.3609 413.1754,-165.6641 395,-158.2 345.2537,-137.7708 317.3143,-126.3265 274,-158.2 225.258,-194.0676 294.0167,-288.2 233.5,-288.2"/>
<polygon fill="#000000" stroke="#000000" points="428.9365,-196.5935 435.3271,-202.6036 432.7183,-197.8967 436.5,-199.2 436.5,-199.2 436.5,-199.2 432.7183,-197.8967 437.6729,-195.7964 428.9365,-196.5935 428.9365,-196.5935"/>
<ellipse fill="none" stroke="#000000" cx="425.9111" cy="-195.5508" rx="3.2" ry="3.2"/>
</g>
<!-- turmas&#45;&gt;usuarios -->
<g id="edge11" class="edge">
<title>turmas:w&#45;&gt;usuarios:e</title>
<path fill="none" stroke="#000000" d="M281.1093,-503.324C209.6419,-482.1146 328.3184,-288.2 233.5,-288.2"/>
<polygon fill="#000000" stroke="#000000" points="287.5671,-504.1658 295.0346,-508.7698 291.5336,-504.6829 295.5,-505.2 295.5,-505.2 295.5,-505.2 291.5336,-504.6829 295.9654,-501.6302 287.5671,-504.1658 287.5671,-504.1658"/>
<ellipse fill="none" stroke="#000000" cx="284.394" cy="-503.7521" rx="3.2" ry="3.2"/>
</g>
<!-- cursos -->
<g id="node10" class="node">
<title>cursos</title>
<g id="a_node10"><a xlink:href="../../tables/cursos.html" xlink:title="cursos" target="_top">
<polygon fill="#ffffff" stroke="transparent" points="8,-409.2 8,-561.2 95,-561.2 95,-409.2 8,-409.2"/>
<polygon fill="#f5f5f5" stroke="transparent" points="8.5,-538.2 8.5,-561.2 95.5,-561.2 95.5,-538.2 8.5,-538.2"/>
<polygon fill="none" stroke="#000000" points="8.5,-538.2 8.5,-561.2 95.5,-561.2 95.5,-538.2 8.5,-538.2"/>
<text text-anchor="start" x="13.5" y="-546.8" font-family="Helvetica,sans-Serif" font-weight="bold" font-size="11.00" fill="#000000">cursos</text>
<text text-anchor="start" x="60.5437" y="-546.3" font-family="Helvetica,sans-Serif" font-size="11.00" fill="#000000">[table]</text>
<polygon fill="none" stroke="#000000" points="8.5,-516.2 8.5,-538.2 95.5,-538.2 95.5,-516.2 8.5,-516.2"/>
<image xlink:href="../../images/primaryKeys.png" width="11px" height="12px" preserveAspectRatio="xMinYMin meet" x="13.5" y="-533.2"/>
<text text-anchor="start" x="28.5" y="-523.3" font-family="Helvetica,sans-Serif" font-size="11.00" fill="#000000">id</text>
<polygon fill="none" stroke="#000000" points="8.5,-494.2 8.5,-516.2 95.5,-516.2 95.5,-494.2 8.5,-494.2"/>
<text text-anchor="start" x="28.5" y="-501.3" font-family="Helvetica,sans-Serif" font-size="11.00" fill="#000000">status</text>
<polygon fill="none" stroke="#000000" points="8.5,-472.2 8.5,-494.2 95.5,-494.2 95.5,-472.2 8.5,-472.2"/>
<text text-anchor="start" x="28.5" y="-479.3" font-family="Helvetica,sans-Serif" font-size="11.00" fill="#000000">descricao</text>
<polygon fill="none" stroke="#000000" points="8.5,-450.2 8.5,-472.2 95.5,-472.2 95.5,-450.2 8.5,-450.2"/>
<text text-anchor="start" x="28.5" y="-457.3" font-family="Helvetica,sans-Serif" font-size="11.00" fill="#000000">observacao</text>
<polygon fill="none" stroke="#000000" points="8.5,-428.2 8.5,-450.2 95.5,-450.2 95.5,-428.2 8.5,-428.2"/>
<text text-anchor="start" x="28.5" y="-435.3" font-family="Helvetica,sans-Serif" font-size="11.00" fill="#000000">turno</text>
<polygon fill="#ffffff" stroke="transparent" points="8.5,-409.2 8.5,-428.2 41.5,-428.2 41.5,-409.2 8.5,-409.2"/>
<polygon fill="none" stroke="#000000" points="8.5,-409.2 8.5,-428.2 41.5,-428.2 41.5,-409.2 8.5,-409.2"/>
<text text-anchor="start" x="11.5" y="-415.3" font-family="Helvetica,sans-Serif" font-size="11.00" fill="#000000"> &#160;</text>
<polygon fill="#ffffff" stroke="transparent" points="41.5,-409.2 41.5,-428.2 63.5,-428.2 63.5,-409.2 41.5,-409.2"/>
<polygon fill="none" stroke="#000000" points="41.5,-409.2 41.5,-428.2 63.5,-428.2 63.5,-409.2 41.5,-409.2"/>
<text text-anchor="start" x="54.3862" y="-415.3" font-family="Helvetica,sans-Serif" font-size="11.00" fill="#000000"> &#160;</text>
<polygon fill="#ffffff" stroke="transparent" points="63.5,-409.2 63.5,-428.2 95.5,-428.2 95.5,-409.2 63.5,-409.2"/>
<polygon fill="none" stroke="#000000" points="63.5,-409.2 63.5,-428.2 95.5,-428.2 95.5,-409.2 63.5,-409.2"/>
<text text-anchor="start" x="76.9053" y="-415.3" font-family="Helvetica,sans-Serif" font-size="11.00" fill="#000000">3 &gt;</text>
</a>
</g>
</g>
<!-- turmas&#45;&gt;cursos -->
<g id="edge10" class="edge">
<title>turmas:w&#45;&gt;cursos:e</title>
<path fill="none" stroke="#000000" d="M281.0132,-527.2C203.8799,-527.2 179.3542,-527.2 95.5,-527.2"/>
<polygon fill="#000000" stroke="#000000" points="287.5,-527.2001 295.5,-530.8 291.5,-527.2 295.5,-527.2 295.5,-527.2 295.5,-527.2 291.5,-527.2 295.5,-523.6 287.5,-527.2001 287.5,-527.2001"/>
<ellipse fill="none" stroke="#000000" cx="284.3" cy="-527.2001" rx="3.2" ry="3.2"/>
</g>
<!-- agendamentos -->
<g id="node5" class="node">
<title>agendamentos</title>
<g id="a_node5"><a xlink:href="../../tables/agendamentos.html" xlink:title="agendamentos" target="_top">
<polygon fill="#ffffff" stroke="transparent" points="608,-561.2 608,-713.2 731,-713.2 731,-561.2 608,-561.2"/>
<polygon fill="#f5f5f5" stroke="transparent" points="608.5,-690.2 608.5,-713.2 731.5,-713.2 731.5,-690.2 608.5,-690.2"/>
<polygon fill="none" stroke="#000000" points="608.5,-690.2 608.5,-713.2 731.5,-713.2 731.5,-690.2 608.5,-690.2"/>
<text text-anchor="start" x="613.5" y="-698.8" font-family="Helvetica,sans-Serif" font-weight="bold" font-size="11.00" fill="#000000">agendamentos</text>
<text text-anchor="start" x="697.0219" y="-698.3" font-family="Helvetica,sans-Serif" font-size="11.00" fill="#000000">[table]</text>
<polygon fill="none" stroke="#000000" points="608.5,-668.2 608.5,-690.2 731.5,-690.2 731.5,-668.2 608.5,-668.2"/>
<image xlink:href="../../images/foreignKeys.png" width="11px" height="12px" preserveAspectRatio="xMinYMin meet" x="613.5" y="-685.2"/>
<text text-anchor="start" x="637.5" y="-675.3" font-family="Helvetica,sans-Serif" font-size="11.00" fill="#000000">encontro_id</text>
<polygon fill="none" stroke="#000000" points="608.5,-646.2 608.5,-668.2 731.5,-668.2 731.5,-646.2 608.5,-646.2"/>
<image xlink:href="../../images/primaryKeys.png" width="11px" height="12px" preserveAspectRatio="xMinYMin meet" x="613.5" y="-663.2"/>
<text text-anchor="start" x="637.5" y="-653.3" font-family="Helvetica,sans-Serif" font-size="11.00" fill="#000000">id</text>
<polygon fill="none" stroke="#000000" points="608.5,-624.2 608.5,-646.2 731.5,-646.2 731.5,-624.2 608.5,-624.2"/>
<image xlink:href="../../images/foreignKeys.png" width="11px" height="12px" preserveAspectRatio="xMinYMin meet" x="613.5" y="-641.2"/>
<text text-anchor="start" x="637.5" y="-631.3" font-family="Helvetica,sans-Serif" font-size="11.00" fill="#000000">local_id</text>
<polygon fill="none" stroke="#000000" points="608.5,-602.2 608.5,-624.2 731.5,-624.2 731.5,-602.2 608.5,-602.2"/>
<text text-anchor="start" x="637.5" y="-609.3" font-family="Helvetica,sans-Serif" font-size="11.00" fill="#000000">end_time</text>
<polygon fill="none" stroke="#000000" points="608.5,-580.2 608.5,-602.2 731.5,-602.2 731.5,-580.2 608.5,-580.2"/>
<text text-anchor="start" x="637.5" y="-587.3" font-family="Helvetica,sans-Serif" font-size="11.00" fill="#000000">start_time</text>
<polygon fill="#ffffff" stroke="transparent" points="608.5,-561.2 608.5,-580.2 668.5,-580.2 668.5,-561.2 608.5,-561.2"/>
<polygon fill="none" stroke="#000000" points="608.5,-561.2 608.5,-580.2 668.5,-580.2 668.5,-561.2 608.5,-561.2"/>
<text text-anchor="start" x="611.5" y="-567.3" font-family="Helvetica,sans-Serif" font-size="11.00" fill="#000000">&lt; 2</text>
<polygon fill="#ffffff" stroke="transparent" points="668.5,-561.2 668.5,-580.2 699.5,-580.2 699.5,-561.2 668.5,-561.2"/>
<polygon fill="none" stroke="#000000" points="668.5,-561.2 668.5,-580.2 699.5,-580.2 699.5,-561.2 668.5,-561.2"/>
<text text-anchor="start" x="690.3862" y="-567.3" font-family="Helvetica,sans-Serif" font-size="11.00" fill="#000000"> &#160;</text>
<polygon fill="#ffffff" stroke="transparent" points="699.5,-561.2 699.5,-580.2 731.5,-580.2 731.5,-561.2 699.5,-561.2"/>
<polygon fill="none" stroke="#000000" points="699.5,-561.2 699.5,-580.2 731.5,-580.2 731.5,-561.2 699.5,-561.2"/>
<text text-anchor="start" x="722.3862" y="-567.3" font-family="Helvetica,sans-Serif" font-size="11.00" fill="#000000"> &#160;</text>
</a>
</g>
</g>
<!-- agendamentos&#45;&gt;locais -->
<g id="edge2" class="edge">
<title>agendamentos:w&#45;&gt;locais:e</title>
<path fill="none" stroke="#000000" d="M594.2557,-638.5043C565.4026,-654.3959 583.8253,-722.2 540.5,-722.2"/>
<polygon fill="#000000" stroke="#000000" points="600.7069,-637.0078 609.3135,-638.7069 604.6035,-636.1039 608.5,-635.2 608.5,-635.2 608.5,-635.2 604.6035,-636.1039 607.6865,-631.6931 600.7069,-637.0078 600.7069,-637.0078"/>
<ellipse fill="none" stroke="#000000" cx="597.5897" cy="-637.7309" rx="3.2" ry="3.2"/>
</g>
<!-- agendamentos&#45;&gt;encontros -->
<g id="edge1" class="edge">
<title>agendamentos:w&#45;&gt;encontros:e</title>
<path fill="none" stroke="#000000" d="M594.2401,-675.5047C568.2003,-659.0438 587.7296,-593.2 546.5,-593.2"/>
<polygon fill="#000000" stroke="#000000" points="600.7558,-677.1931 607.5969,-682.6849 604.6279,-678.1966 608.5,-679.2 608.5,-679.2 608.5,-679.2 604.6279,-678.1966 609.4031,-675.7151 600.7558,-677.1931 600.7558,-677.1931"/>
<ellipse fill="none" stroke="#000000" cx="597.6581" cy="-676.3904" rx="3.2" ry="3.2"/>
</g>
<!-- grupos -->
<g id="node6" class="node">
<title>grupos</title>
<g id="a_node6"><a xlink:href="../../tables/grupos.html" xlink:title="grupos" target="_top">
<polygon fill="#ffffff" stroke="transparent" points="282,-604.2 282,-778.2 387,-778.2 387,-604.2 282,-604.2"/>
<polygon fill="#f5f5f5" stroke="transparent" points="282.5,-755.2 282.5,-778.2 387.5,-778.2 387.5,-755.2 282.5,-755.2"/>
<polygon fill="none" stroke="#000000" points="282.5,-755.2 282.5,-778.2 387.5,-778.2 387.5,-755.2 282.5,-755.2"/>
<text text-anchor="start" x="287.5" y="-763.8" font-family="Helvetica,sans-Serif" font-weight="bold" font-size="11.00" fill="#000000">grupos</text>
<text text-anchor="start" x="352.5437" y="-763.3" font-family="Helvetica,sans-Serif" font-size="11.00" fill="#000000">[table]</text>
<polygon fill="none" stroke="#000000" points="282.5,-733.2 282.5,-755.2 387.5,-755.2 387.5,-733.2 282.5,-733.2"/>
<image xlink:href="../../images/primaryKeys.png" width="11px" height="12px" preserveAspectRatio="xMinYMin meet" x="287.5" y="-750.2"/>
<text text-anchor="start" x="302.5" y="-740.3" font-family="Helvetica,sans-Serif" font-size="11.00" fill="#000000">id</text>
<polygon fill="none" stroke="#000000" points="282.5,-711.2 282.5,-733.2 387.5,-733.2 387.5,-711.2 282.5,-711.2"/>
<image xlink:href="../../images/foreignKeys.png" width="11px" height="12px" preserveAspectRatio="xMinYMin meet" x="287.5" y="-728.2"/>
<text text-anchor="start" x="302.5" y="-718.3" font-family="Helvetica,sans-Serif" font-size="11.00" fill="#000000">id_curso</text>
<polygon fill="none" stroke="#000000" points="282.5,-689.2 282.5,-711.2 387.5,-711.2 387.5,-689.2 282.5,-689.2"/>
<image xlink:href="../../images/foreignKeys.png" width="11px" height="12px" preserveAspectRatio="xMinYMin meet" x="287.5" y="-706.2"/>
<text text-anchor="start" x="302.5" y="-696.3" font-family="Helvetica,sans-Serif" font-size="11.00" fill="#000000">id_user</text>
<polygon fill="none" stroke="#000000" points="282.5,-667.2 282.5,-689.2 387.5,-689.2 387.5,-667.2 282.5,-667.2"/>
<text text-anchor="start" x="302.5" y="-674.3" font-family="Helvetica,sans-Serif" font-size="11.00" fill="#000000">areade_estudo</text>
<polygon fill="#ffffff" stroke="transparent" points="282.5,-645.2 282.5,-667.2 387.5,-667.2 387.5,-645.2 282.5,-645.2"/>
<polygon fill="none" stroke="#000000" points="282.5,-645.2 282.5,-667.2 387.5,-667.2 387.5,-645.2 282.5,-645.2"/>
<text text-anchor="start" x="302.5" y="-652.3" font-family="Helvetica,sans-Serif" font-size="11.00" fill="#000000">nome</text>
<polygon fill="none" stroke="#000000" points="282.5,-623.2 282.5,-645.2 387.5,-645.2 387.5,-623.2 282.5,-623.2"/>
<text text-anchor="start" x="302.5" y="-630.3" font-family="Helvetica,sans-Serif" font-size="11.00" fill="#000000">descricao</text>
<polygon fill="#ffffff" stroke="transparent" points="282.5,-604.2 282.5,-623.2 328.5,-623.2 328.5,-604.2 282.5,-604.2"/>
<polygon fill="none" stroke="#000000" points="282.5,-604.2 282.5,-623.2 328.5,-623.2 328.5,-604.2 282.5,-604.2"/>
<text text-anchor="start" x="285.5" y="-610.3" font-family="Helvetica,sans-Serif" font-size="11.00" fill="#000000">&lt; 2</text>
<polygon fill="#ffffff" stroke="transparent" points="328.5,-604.2 328.5,-623.2 353.5,-623.2 353.5,-604.2 328.5,-604.2"/>
<polygon fill="none" stroke="#000000" points="328.5,-604.2 328.5,-623.2 353.5,-623.2 353.5,-604.2 328.5,-604.2"/>
<text text-anchor="start" x="344.3862" y="-610.3" font-family="Helvetica,sans-Serif" font-size="11.00" fill="#000000"> &#160;</text>
<polygon fill="#ffffff" stroke="transparent" points="353.5,-604.2 353.5,-623.2 387.5,-623.2 387.5,-604.2 353.5,-604.2"/>
<polygon fill="none" stroke="#000000" points="353.5,-604.2 353.5,-623.2 387.5,-623.2 387.5,-604.2 353.5,-604.2"/>
<text text-anchor="start" x="368.9053" y="-610.3" font-family="Helvetica,sans-Serif" font-size="11.00" fill="#000000">2 &gt;</text>
</a>
</g>
</g>
<!-- grupos&#45;&gt;usuarios -->
<g id="edge6" class="edge">
<title>grupos:w&#45;&gt;usuarios:e</title>
<path fill="none" stroke="#000000" d="M268.5455,-696.1223C205.3852,-653.3332 320.2984,-288.2 233.5,-288.2"/>
<polygon fill="#000000" stroke="#000000" points="274.8211,-697.9561 281.4902,-703.6555 278.6606,-699.078 282.5,-700.2 282.5,-700.2 282.5,-700.2 278.6606,-699.078 283.5098,-696.7445 274.8211,-697.9561 274.8211,-697.9561"/>
<ellipse fill="none" stroke="#000000" cx="271.7496" cy="-697.0585" rx="3.2" ry="3.2"/>
</g>
<!-- grupos&#45;&gt;cursos -->
<g id="edge5" class="edge">
<title>grupos:w&#45;&gt;cursos:e</title>
<path fill="none" stroke="#000000" d="M267.9533,-721.1508C166.6708,-705.8022 210.4178,-527.2 95.5,-527.2"/>
<polygon fill="#000000" stroke="#000000" points="274.5207,-721.6245 282.241,-725.7907 278.5104,-721.9122 282.5,-722.2 282.5,-722.2 282.5,-722.2 278.5104,-721.9122 282.759,-718.6093 274.5207,-721.6245 274.5207,-721.6245"/>
<ellipse fill="none" stroke="#000000" cx="271.329" cy="-721.3942" rx="3.2" ry="3.2"/>
</g>
<!-- usuarios&#45;&gt;cursos -->
<g id="edge16" class="edge">
<title>usuarios:w&#45;&gt;cursos:e</title>
<path fill="none" stroke="#000000" d="M130.1174,-267.799C43.0016,-289.6091 208.1093,-527.2 95.5,-527.2"/>
<polygon fill="#000000" stroke="#000000" points="136.549,-267.084 144.8978,-269.778 140.5245,-266.642 144.5,-266.2 144.5,-266.2 144.5,-266.2 140.5245,-266.642 144.1022,-262.622 136.549,-267.084 136.549,-267.084"/>
<ellipse fill="none" stroke="#000000" cx="133.3686" cy="-267.4377" rx="3.2" ry="3.2"/>
</g>
<!-- encontros&#45;&gt;turmas -->
<g id="edge4" class="edge">
<title>encontros:w&#45;&gt;turmas:e</title>
<path fill="none" stroke="#000000" d="M434.8917,-549.2C412.7594,-549.2 402.3646,-549.2 374.5,-549.2"/>
<polygon fill="#000000" stroke="#000000" points="441.5,-549.2001 449.5,-552.8 445.5,-549.2 449.5,-549.2 449.5,-549.2 449.5,-549.2 445.5,-549.2 449.5,-545.6 441.5,-549.2001 441.5,-549.2001"/>
<ellipse fill="none" stroke="#000000" cx="438.3" cy="-549.2001" rx="3.2" ry="3.2"/>
</g>
<!-- encontros&#45;&gt;grupos -->
<g id="edge3" class="edge">
<title>encontros:w&#45;&gt;grupos:e</title>
<path fill="none" stroke="#000000" d="M435.1987,-573.5148C380.8243,-594.0439 463.5941,-744.2 387.5,-744.2"/>
<polygon fill="#000000" stroke="#000000" points="441.6028,-572.4783 450.0752,-574.7538 445.5514,-571.8391 449.5,-571.2 449.5,-571.2 449.5,-571.2 445.5514,-571.8391 448.9248,-567.6462 441.6028,-572.4783 441.6028,-572.4783"/>
<ellipse fill="none" stroke="#000000" cx="438.4439" cy="-572.9896" rx="3.2" ry="3.2"/>
</g>
<!-- token -->
<g id="node9" class="node">
<title>token</title>
<g id="a_node9"><a xlink:href="../../tables/token.html" xlink:title="token" target="_top">
<polygon fill="#ffffff" stroke="transparent" points="292.5,-192.2 292.5,-366.2 376.5,-366.2 376.5,-192.2 292.5,-192.2"/>
<polygon fill="#f5f5f5" stroke="transparent" points="292.5,-343.2 292.5,-366.2 376.5,-366.2 376.5,-343.2 292.5,-343.2"/>
<polygon fill="none" stroke="#000000" points="292.5,-343.2 292.5,-366.2 376.5,-366.2 376.5,-343.2 292.5,-343.2"/>
<text text-anchor="start" x="297.5" y="-351.8" font-family="Helvetica,sans-Serif" font-weight="bold" font-size="11.00" fill="#000000">token</text>
<text text-anchor="start" x="341.5437" y="-351.3" font-family="Helvetica,sans-Serif" font-size="11.00" fill="#000000">[table]</text>
<polygon fill="none" stroke="#000000" points="292.5,-321.2 292.5,-343.2 376.5,-343.2 376.5,-321.2 292.5,-321.2"/>
<text text-anchor="start" x="312.5" y="-328.3" font-family="Helvetica,sans-Serif" font-size="11.00" fill="#000000">expired</text>
<polygon fill="none" stroke="#000000" points="292.5,-299.2 292.5,-321.2 376.5,-321.2 376.5,-299.2 292.5,-299.2"/>
<image xlink:href="../../images/primaryKeys.png" width="11px" height="12px" preserveAspectRatio="xMinYMin meet" x="297.5" y="-316.2"/>
<text text-anchor="start" x="312.5" y="-306.3" font-family="Helvetica,sans-Serif" font-size="11.00" fill="#000000">id</text>
<polygon fill="none" stroke="#000000" points="292.5,-277.2 292.5,-299.2 376.5,-299.2 376.5,-277.2 292.5,-277.2"/>
<image xlink:href="../../images/foreignKeys.png" width="11px" height="12px" preserveAspectRatio="xMinYMin meet" x="297.5" y="-294.2"/>
<text text-anchor="start" x="312.5" y="-284.3" font-family="Helvetica,sans-Serif" font-size="11.00" fill="#000000">id_usuario</text>
<polygon fill="none" stroke="#000000" points="292.5,-255.2 292.5,-277.2 376.5,-277.2 376.5,-255.2 292.5,-255.2"/>
<text text-anchor="start" x="312.5" y="-262.3" font-family="Helvetica,sans-Serif" font-size="11.00" fill="#000000">revoked</text>
<polygon fill="#ffffff" stroke="transparent" points="292.5,-233.2 292.5,-255.2 376.5,-255.2 376.5,-233.2 292.5,-233.2"/>
<polygon fill="none" stroke="#000000" points="292.5,-233.2 292.5,-255.2 376.5,-255.2 376.5,-233.2 292.5,-233.2"/>
<text text-anchor="start" x="312.5" y="-240.3" font-family="Helvetica,sans-Serif" font-size="11.00" fill="#000000">token</text>
<polygon fill="none" stroke="#000000" points="292.5,-211.2 292.5,-233.2 376.5,-233.2 376.5,-211.2 292.5,-211.2"/>
<text text-anchor="start" x="312.5" y="-218.3" font-family="Helvetica,sans-Serif" font-size="11.00" fill="#000000">token_type</text>
<polygon fill="#ffffff" stroke="transparent" points="292.5,-192.2 292.5,-211.2 332.5,-211.2 332.5,-192.2 292.5,-192.2"/>
<polygon fill="none" stroke="#000000" points="292.5,-192.2 292.5,-211.2 332.5,-211.2 332.5,-192.2 292.5,-192.2"/>
<text text-anchor="start" x="295.5" y="-198.3" font-family="Helvetica,sans-Serif" font-size="11.00" fill="#000000">&lt; 1</text>
<polygon fill="#ffffff" stroke="transparent" points="332.5,-192.2 332.5,-211.2 354.5,-211.2 354.5,-192.2 332.5,-192.2"/>
<polygon fill="none" stroke="#000000" points="332.5,-192.2 332.5,-211.2 354.5,-211.2 354.5,-192.2 332.5,-192.2"/>
<text text-anchor="start" x="345.3862" y="-198.3" font-family="Helvetica,sans-Serif" font-size="11.00" fill="#000000"> &#160;</text>
<polygon fill="#ffffff" stroke="transparent" points="354.5,-192.2 354.5,-211.2 376.5,-211.2 376.5,-192.2 354.5,-192.2"/>
<polygon fill="none" stroke="#000000" points="354.5,-192.2 354.5,-211.2 376.5,-211.2 376.5,-192.2 354.5,-192.2"/>
<text text-anchor="start" x="367.3862" y="-198.3" font-family="Helvetica,sans-Serif" font-size="11.00" fill="#000000"> &#160;</text>
</a>
</g>
</g>
<!-- token&#45;&gt;usuarios -->
<g id="edge9" class="edge">
<title>token:w&#45;&gt;usuarios:e</title>
<path fill="none" stroke="#000000" d="M277.7032,-288.2C262.4686,-288.2 253.9861,-288.2 233.5,-288.2"/>
<polygon fill="#000000" stroke="#000000" points="284.5,-288.2001 292.5,-291.8 288.5,-288.2 292.5,-288.2 292.5,-288.2 292.5,-288.2 288.5,-288.2 292.5,-284.6 284.5,-288.2001 284.5,-288.2001"/>
<ellipse fill="none" stroke="#000000" cx="281.3" cy="-288.2001" rx="3.2" ry="3.2"/>
</g>
<!-- usuario_grupo -->
<g id="node11" class="node">
<title>usuario_grupo</title>
<g id="a_node11"><a xlink:href="../../tables/usuario_grupo.html" xlink:title="usuario_grupo" target="_top">
<polygon fill="#ffffff" stroke="transparent" points="436,-337.2 436,-423.2 559,-423.2 559,-337.2 436,-337.2"/>
<polygon fill="#f5f5f5" stroke="transparent" points="436.5,-400.2 436.5,-423.2 559.5,-423.2 559.5,-400.2 436.5,-400.2"/>
<polygon fill="none" stroke="#000000" points="436.5,-400.2 436.5,-423.2 559.5,-423.2 559.5,-400.2 436.5,-400.2"/>
<text text-anchor="start" x="441.5" y="-408.8" font-family="Helvetica,sans-Serif" font-weight="bold" font-size="11.00" fill="#000000">usuario_grupo</text>
<text text-anchor="start" x="525.0219" y="-408.3" font-family="Helvetica,sans-Serif" font-size="11.00" fill="#000000">[table]</text>
<polygon fill="none" stroke="#000000" points="436.5,-378.2 436.5,-400.2 559.5,-400.2 559.5,-378.2 436.5,-378.2"/>
<image xlink:href="../../images/foreignKeys.png" width="11px" height="12px" preserveAspectRatio="xMinYMin meet" x="441.5" y="-395.2"/>
<text text-anchor="start" x="465.5" y="-385.3" font-family="Helvetica,sans-Serif" font-size="11.00" fill="#000000">id_grupo</text>
<polygon fill="none" stroke="#000000" points="436.5,-356.2 436.5,-378.2 559.5,-378.2 559.5,-356.2 436.5,-356.2"/>
<image xlink:href="../../images/foreignKeys.png" width="11px" height="12px" preserveAspectRatio="xMinYMin meet" x="441.5" y="-373.2"/>
<text text-anchor="start" x="465.5" y="-363.3" font-family="Helvetica,sans-Serif" font-size="11.00" fill="#000000">id_usuario</text>
<polygon fill="#ffffff" stroke="transparent" points="436.5,-337.2 436.5,-356.2 496.5,-356.2 496.5,-337.2 436.5,-337.2"/>
<polygon fill="none" stroke="#000000" points="436.5,-337.2 436.5,-356.2 496.5,-356.2 496.5,-337.2 436.5,-337.2"/>
<text text-anchor="start" x="439.5" y="-343.3" font-family="Helvetica,sans-Serif" font-size="11.00" fill="#000000">&lt; 2</text>
<polygon fill="#ffffff" stroke="transparent" points="496.5,-337.2 496.5,-356.2 527.5,-356.2 527.5,-337.2 496.5,-337.2"/>
<polygon fill="none" stroke="#000000" points="496.5,-337.2 496.5,-356.2 527.5,-356.2 527.5,-337.2 496.5,-337.2"/>
<text text-anchor="start" x="518.3862" y="-343.3" font-family="Helvetica,sans-Serif" font-size="11.00" fill="#000000"> &#160;</text>
<polygon fill="#ffffff" stroke="transparent" points="527.5,-337.2 527.5,-356.2 559.5,-356.2 559.5,-337.2 527.5,-337.2"/>
<polygon fill="none" stroke="#000000" points="527.5,-337.2 527.5,-356.2 559.5,-356.2 559.5,-337.2 527.5,-337.2"/>
<text text-anchor="start" x="550.3862" y="-343.3" font-family="Helvetica,sans-Serif" font-size="11.00" fill="#000000"> &#160;</text>
</a>
</g>
</g>
<!-- usuario_grupo&#45;&gt;grupos -->
<g id="edge12" class="edge">
<title>usuario_grupo:w&#45;&gt;grupos:e</title>
<path fill="none" stroke="#000000" d="M422.7093,-393.9499C371.0522,-436.0762 461.6929,-744.2 387.5,-744.2"/>
<polygon fill="#000000" stroke="#000000" points="428.9361,-391.8053 437.6724,-392.6038 432.718,-390.5026 436.5,-389.2 436.5,-389.2 436.5,-389.2 432.718,-390.5026 435.3276,-385.7962 428.9361,-391.8053 428.9361,-391.8053"/>
<ellipse fill="none" stroke="#000000" cx="425.9105" cy="-392.8474" rx="3.2" ry="3.2"/>
</g>
<!-- usuario_grupo&#45;&gt;usuarios -->
<g id="edge13" class="edge">
<title>usuario_grupo:w&#45;&gt;usuarios:e</title>
<path fill="none" stroke="#000000" d="M422.0845,-365.5025C365.5425,-349.8851 456.7027,-230.6529 395,-181.2 374.0184,-164.3838 296.1241,-165.9182 274,-181.2 232.1622,-210.0987 284.3481,-288.2 233.5,-288.2"/>
<polygon fill="#000000" stroke="#000000" points="428.5549,-366.2644 436.079,-370.7753 432.5274,-366.7322 436.5,-367.2 436.5,-367.2 436.5,-367.2 432.5274,-366.7322 436.921,-363.6247 428.5549,-366.2644 428.5549,-366.2644"/>
<ellipse fill="none" stroke="#000000" cx="425.3769" cy="-365.8901" rx="3.2" ry="3.2"/>
</g>
</g>
</svg>
