<?xml version="1.0" encoding="UTF-8" standalone="no"?>
<!DOCTYPE svg PUBLIC "-//W3C//DTD SVG 1.1//EN"
 "http://www.w3.org/Graphics/SVG/1.1/DTD/svg11.dtd">
<!-- Generated by graphviz version 2.40.1 (20161225.0304)
 -->
<!-- Title: compactRelationshipsDiagram Pages: 1 -->
<svg width="747pt" height="622pt"
 viewBox="0.00 0.00 747.00 622.12" xmlns="http://www.w3.org/2000/svg" xmlns:xlink="http://www.w3.org/1999/xlink">
<g id="graph0" class="graph" transform="scale(1 1) rotate(0) translate(4 618.1222)">
<title>compactRelationshipsDiagram</title>
<polygon fill="#ffffff" stroke="transparent" points="-4,4 -4,-618.1222 743,-618.1222 743,4 -4,4"/>
<text text-anchor="middle" x="72.4936" y="-7.3" font-family="Helvetica,sans-Serif" font-size="11.00" fill="#000000">Generated by SchemaSpy</text>
<!-- locais -->
<g id="node1" class="node">
<title>locais</title>
<g id="a_node1"><a xlink:href="../../tables/locais.html" xlink:title="locais" target="_top">
<polygon fill="#ffffff" stroke="transparent" points="455,-505.1222 455,-610.1222 540,-610.1222 540,-505.1222 455,-505.1222"/>
<polygon fill="#f5f5f5" stroke="transparent" points="455.5,-586.6222 455.5,-609.6222 540.5,-609.6222 540.5,-586.6222 455.5,-586.6222"/>
<polygon fill="none" stroke="#000000" points="455.5,-586.6222 455.5,-609.6222 540.5,-609.6222 540.5,-586.6222 455.5,-586.6222"/>
<text text-anchor="start" x="460.5" y="-595.2222" font-family="Helvetica,sans-Serif" font-weight="bold" font-size="11.00" fill="#000000">locais</text>
<text text-anchor="start" x="505.5437" y="-594.7222" font-family="Helvetica,sans-Serif" font-size="11.00" fill="#000000">[table]</text>
<polygon fill="none" stroke="#000000" points="455.5,-564.6222 455.5,-586.6222 540.5,-586.6222 540.5,-564.6222 455.5,-564.6222"/>
<image xlink:href="../../images/primaryKeys.png" width="11px" height="12px" preserveAspectRatio="xMinYMin meet" x="460.5" y="-581.622"/>
<text text-anchor="start" x="475.5" y="-571.7222" font-family="Helvetica,sans-Serif" font-size="11.00" fill="#000000">id</text>
<polygon fill="#ffffff" stroke="transparent" points="455.5,-542.6222 455.5,-564.6222 540.5,-564.6222 540.5,-542.6222 455.5,-542.6222"/>
<polygon fill="none" stroke="#000000" points="455.5,-542.6222 455.5,-564.6222 540.5,-564.6222 540.5,-542.6222 455.5,-542.6222"/>
<text text-anchor="start" x="475.5" y="-549.7222" font-family="Helvetica,sans-Serif" font-size="11.00" fill="#000000">nome</text>
<polygon fill="none" stroke="#000000" points="455.5,-523.6222 455.5,-542.6222 540.5,-542.6222 540.5,-523.6222 455.5,-523.6222"/>
<text text-anchor="start" x="458.5" y="-529.7222" font-family="Helvetica,sans-Serif" font-size="11.00" fill="#000000">...</text>
<polygon fill="#ffffff" stroke="transparent" points="455.5,-504.6222 455.5,-523.6222 487.5,-523.6222 487.5,-504.6222 455.5,-504.6222"/>
<polygon fill="none" stroke="#000000" points="455.5,-504.6222 455.5,-523.6222 487.5,-523.6222 487.5,-504.6222 455.5,-504.6222"/>
<text text-anchor="start" x="458.5" y="-510.7222" font-family="Helvetica,sans-Serif" font-size="11.00" fill="#000000"> &#160;</text>
<polygon fill="#ffffff" stroke="transparent" points="487.5,-504.6222 487.5,-523.6222 509.5,-523.6222 509.5,-504.6222 487.5,-504.6222"/>
<polygon fill="none" stroke="#000000" points="487.5,-504.6222 487.5,-523.6222 509.5,-523.6222 509.5,-504.6222 487.5,-504.6222"/>
<text text-anchor="start" x="500.3862" y="-510.7222" font-family="Helvetica,sans-Serif" font-size="11.00" fill="#000000"> &#160;</text>
<polygon fill="#ffffff" stroke="transparent" points="509.5,-504.6222 509.5,-523.6222 540.5,-523.6222 540.5,-504.6222 509.5,-504.6222"/>
<polygon fill="none" stroke="#000000" points="509.5,-504.6222 509.5,-523.6222 540.5,-523.6222 540.5,-504.6222 509.5,-504.6222"/>
<text text-anchor="start" x="521.9053" y="-510.7222" font-family="Helvetica,sans-Serif" font-size="11.00" fill="#000000">1 &gt;</text>
</a>
</g>
</g>
<!-- mensagens -->
<g id="node2" class="node">
<title>mensagens</title>
<g id="a_node2"><a xlink:href="../../tables/mensagens.html" xlink:title="mensagens" target="_top">
<polygon fill="#ffffff" stroke="transparent" points="617,-155.1222 617,-282.1222 722,-282.1222 722,-155.1222 617,-155.1222"/>
<polygon fill="#f5f5f5" stroke="transparent" points="617.5,-258.6222 617.5,-281.6222 722.5,-281.6222 722.5,-258.6222 617.5,-258.6222"/>
<polygon fill="none" stroke="#000000" points="617.5,-258.6222 617.5,-281.6222 722.5,-281.6222 722.5,-258.6222 617.5,-258.6222"/>
<text text-anchor="start" x="622.5" y="-267.2222" font-family="Helvetica,sans-Serif" font-weight="bold" font-size="11.00" fill="#000000">mensagens</text>
<text text-anchor="start" x="688.0219" y="-266.7222" font-family="Helvetica,sans-Serif" font-size="11.00" fill="#000000">[table]</text>
<polygon fill="none" stroke="#000000" points="617.5,-236.6222 617.5,-258.6222 722.5,-258.6222 722.5,-236.6222 617.5,-236.6222"/>
<image xlink:href="../../images/primaryKeys.png" width="11px" height="12px" preserveAspectRatio="xMinYMin meet" x="622.5" y="-253.622"/>
<text text-anchor="start" x="645.5" y="-243.7222" font-family="Helvetica,sans-Serif" font-size="11.00" fill="#000000">id</text>
<polygon fill="none" stroke="#000000" points="617.5,-214.6222 617.5,-236.6222 722.5,-236.6222 722.5,-214.6222 617.5,-214.6222"/>
<image xlink:href="../../images/foreignKeys.png" width="11px" height="12px" preserveAspectRatio="xMinYMin meet" x="622.5" y="-231.622"/>
<text text-anchor="start" x="645.5" y="-221.7222" font-family="Helvetica,sans-Serif" font-size="11.00" fill="#000000">id_encontro</text>
<polygon fill="none" stroke="#000000" points="617.5,-192.6222 617.5,-214.6222 722.5,-214.6222 722.5,-192.6222 617.5,-192.6222"/>
<image xlink:href="../../images/foreignKeys.png" width="11px" height="12px" preserveAspectRatio="xMinYMin meet" x="622.5" y="-209.622"/>
<text text-anchor="start" x="645.5" y="-199.7222" font-family="Helvetica,sans-Serif" font-size="11.00" fill="#000000">id_user</text>
<polygon fill="none" stroke="#000000" points="617.5,-173.6222 617.5,-192.6222 722.5,-192.6222 722.5,-173.6222 617.5,-173.6222"/>
<text text-anchor="start" x="620.5" y="-179.7222" font-family="Helvetica,sans-Serif" font-size="11.00" fill="#000000">...</text>
<polygon fill="#ffffff" stroke="transparent" points="617.5,-154.6222 617.5,-173.6222 668.5,-173.6222 668.5,-154.6222 617.5,-154.6222"/>
<polygon fill="none" stroke="#000000" points="617.5,-154.6222 617.5,-173.6222 668.5,-173.6222 668.5,-154.6222 617.5,-154.6222"/>
<text text-anchor="start" x="620.5" y="-160.7222" font-family="Helvetica,sans-Serif" font-size="11.00" fill="#000000">&lt; 2</text>
<polygon fill="#ffffff" stroke="transparent" points="668.5,-154.6222 668.5,-173.6222 695.5,-173.6222 695.5,-154.6222 668.5,-154.6222"/>
<polygon fill="none" stroke="#000000" points="668.5,-154.6222 668.5,-173.6222 695.5,-173.6222 695.5,-154.6222 668.5,-154.6222"/>
<text text-anchor="start" x="686.3862" y="-160.7222" font-family="Helvetica,sans-Serif" font-size="11.00" fill="#000000"> &#160;</text>
<polygon fill="#ffffff" stroke="transparent" points="695.5,-154.6222 695.5,-173.6222 722.5,-173.6222 722.5,-154.6222 695.5,-154.6222"/>
<polygon fill="none" stroke="#000000" points="695.5,-154.6222 695.5,-173.6222 722.5,-173.6222 722.5,-154.6222 695.5,-154.6222"/>
<text text-anchor="start" x="713.3862" y="-160.7222" font-family="Helvetica,sans-Serif" font-size="11.00" fill="#000000"> &#160;</text>
</a>
</g>
</g>
<!-- usuarios -->
<g id="node7" class="node">
<title>usuarios</title>
<g id="a_node7"><a xlink:href="../../tables/usuarios.html" xlink:title="usuarios" target="_top">
<polygon fill="#ffffff" stroke="transparent" points="144,-55.1222 144,-248.1222 233,-248.1222 233,-55.1222 144,-55.1222"/>
<polygon fill="#f5f5f5" stroke="transparent" points="144.5,-224.6222 144.5,-247.6222 233.5,-247.6222 233.5,-224.6222 144.5,-224.6222"/>
<polygon fill="none" stroke="#000000" points="144.5,-224.6222 144.5,-247.6222 233.5,-247.6222 233.5,-224.6222 144.5,-224.6222"/>
<text text-anchor="start" x="149.5" y="-233.2222" font-family="Helvetica,sans-Serif" font-weight="bold" font-size="11.00" fill="#000000">usuarios</text>
<text text-anchor="start" x="199.0219" y="-232.7222" font-family="Helvetica,sans-Serif" font-size="11.00" fill="#000000">[table]</text>
<polygon fill="none" stroke="#000000" points="144.5,-202.6222 144.5,-224.6222 233.5,-224.6222 233.5,-202.6222 144.5,-202.6222"/>
<image xlink:href="../../images/primaryKeys.png" width="11px" height="12px" preserveAspectRatio="xMinYMin meet" x="149.5" y="-219.622"/>
<text text-anchor="start" x="169.5" y="-209.7222" font-family="Helvetica,sans-Serif" font-size="11.00" fill="#000000">id</text>
<polygon fill="none" stroke="#000000" points="144.5,-180.6222 144.5,-202.6222 233.5,-202.6222 233.5,-180.6222 144.5,-180.6222"/>
<image xlink:href="../../images/foreignKeys.png" width="11px" height="12px" preserveAspectRatio="xMinYMin meet" x="149.5" y="-197.622"/>
<text text-anchor="start" x="169.5" y="-187.7222" font-family="Helvetica,sans-Serif" font-size="11.00" fill="#000000">id_curso</text>
<polygon fill="#ffffff" stroke="transparent" points="144.5,-158.6222 144.5,-180.6222 233.5,-180.6222 233.5,-158.6222 144.5,-158.6222"/>
<polygon fill="none" stroke="#000000" points="144.5,-158.6222 144.5,-180.6222 233.5,-180.6222 233.5,-158.6222 144.5,-158.6222"/>
<text text-anchor="start" x="169.5" y="-165.7222" font-family="Helvetica,sans-Serif" font-size="11.00" fill="#000000">nome</text>
<polygon fill="#ffffff" stroke="transparent" points="144.5,-136.6222 144.5,-158.6222 233.5,-158.6222 233.5,-136.6222 144.5,-136.6222"/>
<polygon fill="none" stroke="#000000" points="144.5,-136.6222 144.5,-158.6222 233.5,-158.6222 233.5,-136.6222 144.5,-136.6222"/>
<text text-anchor="start" x="169.5" y="-143.7222" font-family="Helvetica,sans-Serif" font-size="11.00" fill="#000000">email</text>
<polygon fill="#ffffff" stroke="transparent" points="144.5,-114.6222 144.5,-136.6222 233.5,-136.6222 233.5,-114.6222 144.5,-114.6222"/>
<polygon fill="none" stroke="#000000" points="144.5,-114.6222 144.5,-136.6222 233.5,-136.6222 233.5,-114.6222 144.5,-114.6222"/>
<text text-anchor="start" x="169.5" y="-121.7222" font-family="Helvetica,sans-Serif" font-size="11.00" fill="#000000">matricula</text>
<polygon fill="#ffffff" stroke="transparent" points="144.5,-92.6222 144.5,-114.6222 233.5,-114.6222 233.5,-92.6222 144.5,-92.6222"/>
<polygon fill="none" stroke="#000000" points="144.5,-92.6222 144.5,-114.6222 233.5,-114.6222 233.5,-92.6222 144.5,-92.6222"/>
<text text-anchor="start" x="169.5" y="-99.7222" font-family="Helvetica,sans-Serif" font-size="11.00" fill="#000000">siape</text>
<polygon fill="none" stroke="#000000" points="144.5,-73.6222 144.5,-92.6222 233.5,-92.6222 233.5,-73.6222 144.5,-73.6222"/>
<text text-anchor="start" x="147.5" y="-79.7222" font-family="Helvetica,sans-Serif" font-size="11.00" fill="#000000">...</text>
<polygon fill="#ffffff" stroke="transparent" points="144.5,-54.6222 144.5,-73.6222 182.5,-73.6222 182.5,-54.6222 144.5,-54.6222"/>
<polygon fill="none" stroke="#000000" points="144.5,-54.6222 144.5,-73.6222 182.5,-73.6222 182.5,-54.6222 144.5,-54.6222"/>
<text text-anchor="start" x="147.5" y="-60.7222" font-family="Helvetica,sans-Serif" font-size="11.00" fill="#000000">&lt; 1</text>
<polygon fill="#ffffff" stroke="transparent" points="182.5,-54.6222 182.5,-73.6222 203.5,-73.6222 203.5,-54.6222 182.5,-54.6222"/>
<polygon fill="none" stroke="#000000" points="182.5,-54.6222 182.5,-73.6222 203.5,-73.6222 203.5,-54.6222 182.5,-54.6222"/>
<text text-anchor="start" x="194.3862" y="-60.7222" font-family="Helvetica,sans-Serif" font-size="11.00" fill="#000000"> &#160;</text>
<polygon fill="#ffffff" stroke="transparent" points="203.5,-54.6222 203.5,-73.6222 233.5,-73.6222 233.5,-54.6222 203.5,-54.6222"/>
<polygon fill="none" stroke="#000000" points="203.5,-54.6222 203.5,-73.6222 233.5,-73.6222 233.5,-54.6222 203.5,-54.6222"/>
<text text-anchor="start" x="214.9053" y="-60.7222" font-family="Helvetica,sans-Serif" font-size="11.00" fill="#000000">6 &gt;</text>
</a>
</g>
</g>
<!-- mensagens&#45;&gt;usuarios -->
<g id="edge8" class="edge">
<title>mensagens:w&#45;&gt;usuarios:e</title>
<path fill="none" stroke="#000000" d="M603.0655,-200.8556C572.6296,-186.3126 607.6165,-118.3677 567,-91.6222 458.2341,-20.001 379.3257,-12.0316 274,-88.6222 226.7687,-122.9678 291.8988,-213.6222 233.5,-213.6222"/>
<polygon fill="#000000" stroke="#000000" points="609.643,-202.1162 616.8223,-207.1578 613.5715,-202.8692 617.5,-203.6222 617.5,-203.6222 617.5,-203.6222 613.5715,-202.8692 618.1777,-200.0865 609.643,-202.1162 609.643,-202.1162"/>
<ellipse fill="none" stroke="#000000" cx="606.5002" cy="-201.5139" rx="3.2" ry="3.2"/>
</g>
<!-- encontros -->
<g id="node8" class="node">
<title>encontros</title>
<g id="a_node8"><a xlink:href="../../tables/encontros.html" xlink:title="encontros" target="_top">
<polygon fill="#ffffff" stroke="transparent" points="449,-357.1222 449,-484.1222 546,-484.1222 546,-357.1222 449,-357.1222"/>
<polygon fill="#f5f5f5" stroke="transparent" points="449.5,-460.6222 449.5,-483.6222 546.5,-483.6222 546.5,-460.6222 449.5,-460.6222"/>
<polygon fill="none" stroke="#000000" points="449.5,-460.6222 449.5,-483.6222 546.5,-483.6222 546.5,-460.6222 449.5,-460.6222"/>
<text text-anchor="start" x="454.5" y="-469.2222" font-family="Helvetica,sans-Serif" font-weight="bold" font-size="11.00" fill="#000000">encontros</text>
<text text-anchor="start" x="512.0219" y="-468.7222" font-family="Helvetica,sans-Serif" font-size="11.00" fill="#000000">[table]</text>
<polygon fill="none" stroke="#000000" points="449.5,-438.6222 449.5,-460.6222 546.5,-460.6222 546.5,-438.6222 449.5,-438.6222"/>
<image xlink:href="../../images/primaryKeys.png" width="11px" height="12px" preserveAspectRatio="xMinYMin meet" x="454.5" y="-455.622"/>
<text text-anchor="start" x="478.5" y="-445.7222" font-family="Helvetica,sans-Serif" font-size="11.00" fill="#000000">id</text>
<polygon fill="none" stroke="#000000" points="449.5,-416.6222 449.5,-438.6222 546.5,-438.6222 546.5,-416.6222 449.5,-416.6222"/>
<image xlink:href="../../images/foreignKeys.png" width="11px" height="12px" preserveAspectRatio="xMinYMin meet" x="454.5" y="-433.622"/>
<text text-anchor="start" x="478.5" y="-423.7222" font-family="Helvetica,sans-Serif" font-size="11.00" fill="#000000">id_grupo</text>
<polygon fill="none" stroke="#000000" points="449.5,-394.6222 449.5,-416.6222 546.5,-416.6222 546.5,-394.6222 449.5,-394.6222"/>
<image xlink:href="../../images/foreignKeys.png" width="11px" height="12px" preserveAspectRatio="xMinYMin meet" x="454.5" y="-411.622"/>
<text text-anchor="start" x="478.5" y="-401.7222" font-family="Helvetica,sans-Serif" font-size="11.00" fill="#000000">id_turma</text>
<polygon fill="none" stroke="#000000" points="449.5,-375.6222 449.5,-394.6222 546.5,-394.6222 546.5,-375.6222 449.5,-375.6222"/>
<text text-anchor="start" x="452.5" y="-381.7222" font-family="Helvetica,sans-Serif" font-size="11.00" fill="#000000">...</text>
<polygon fill="#ffffff" stroke="transparent" points="449.5,-356.6222 449.5,-375.6222 491.5,-375.6222 491.5,-356.6222 449.5,-356.6222"/>
<polygon fill="none" stroke="#000000" points="449.5,-356.6222 449.5,-375.6222 491.5,-375.6222 491.5,-356.6222 449.5,-356.6222"/>
<text text-anchor="start" x="452.5" y="-362.7222" font-family="Helvetica,sans-Serif" font-size="11.00" fill="#000000">&lt; 2</text>
<polygon fill="#ffffff" stroke="transparent" points="491.5,-356.6222 491.5,-375.6222 514.5,-375.6222 514.5,-356.6222 491.5,-356.6222"/>
<polygon fill="none" stroke="#000000" points="491.5,-356.6222 491.5,-375.6222 514.5,-375.6222 514.5,-356.6222 491.5,-356.6222"/>
<text text-anchor="start" x="505.3862" y="-362.7222" font-family="Helvetica,sans-Serif" font-size="11.00" fill="#000000"> &#160;</text>
<polygon fill="#ffffff" stroke="transparent" points="514.5,-356.6222 514.5,-375.6222 546.5,-375.6222 546.5,-356.6222 514.5,-356.6222"/>
<polygon fill="none" stroke="#000000" points="514.5,-356.6222 514.5,-375.6222 546.5,-375.6222 546.5,-356.6222 514.5,-356.6222"/>
<text text-anchor="start" x="527.9053" y="-362.7222" font-family="Helvetica,sans-Serif" font-size="11.00" fill="#000000">2 &gt;</text>
</a>
</g>
</g>
<!-- mensagens&#45;&gt;encontros -->
<g id="edge7" class="edge">
<title>mensagens:w&#45;&gt;encontros:e</title>
<path fill="none" stroke="#000000" d="M602.9282,-227.4253C526.9306,-248.6243 645.4295,-449.6222 546.5,-449.6222"/>
<polygon fill="#000000" stroke="#000000" points="609.5605,-226.6046 617.9421,-229.1949 613.5303,-226.1134 617.5,-225.6222 617.5,-225.6222 617.5,-225.6222 613.5303,-226.1134 617.0579,-222.0494 609.5605,-226.6046 609.5605,-226.6046"/>
<ellipse fill="none" stroke="#000000" cx="606.3848" cy="-226.9976" rx="3.2" ry="3.2"/>
</g>
<!-- usuario_turma -->
<g id="node3" class="node">
<title>usuario_turma</title>
<g id="a_node3"><a xlink:href="../../tables/usuario_turma.html" xlink:title="usuario_turma" target="_top">
<polygon fill="#ffffff" stroke="transparent" points="436.5,-102.6222 436.5,-188.6222 558.5,-188.6222 558.5,-102.6222 436.5,-102.6222"/>
<polygon fill="#f5f5f5" stroke="transparent" points="436.5,-165.6222 436.5,-188.6222 558.5,-188.6222 558.5,-165.6222 436.5,-165.6222"/>
<polygon fill="none" stroke="#000000" points="436.5,-165.6222 436.5,-188.6222 558.5,-188.6222 558.5,-165.6222 436.5,-165.6222"/>
<text text-anchor="start" x="441.5" y="-174.2222" font-family="Helvetica,sans-Serif" font-weight="bold" font-size="11.00" fill="#000000">usuario_turma</text>
<text text-anchor="start" x="524.0219" y="-173.7222" font-family="Helvetica,sans-Serif" font-size="11.00" fill="#000000">[table]</text>
<polygon fill="none" stroke="#000000" points="436.5,-143.6222 436.5,-165.6222 558.5,-165.6222 558.5,-143.6222 436.5,-143.6222"/>
<image xlink:href="../../images/foreignKeys.png" width="11px" height="12px" preserveAspectRatio="xMinYMin meet" x="441.5" y="-160.622"/>
<text text-anchor="start" x="465.5" y="-150.7222" font-family="Helvetica,sans-Serif" font-size="11.00" fill="#000000">id_turma</text>
<polygon fill="none" stroke="#000000" points="436.5,-121.6222 436.5,-143.6222 558.5,-143.6222 558.5,-121.6222 436.5,-121.6222"/>
<image xlink:href="../../images/foreignKeys.png" width="11px" height="12px" preserveAspectRatio="xMinYMin meet" x="441.5" y="-138.622"/>
<text text-anchor="start" x="465.5" y="-128.7222" font-family="Helvetica,sans-Serif" font-size="11.00" fill="#000000">id_usuario</text>
<polygon fill="#ffffff" stroke="transparent" points="436.5,-102.6222 436.5,-121.6222 495.5,-121.6222 495.5,-102.6222 436.5,-102.6222"/>
<polygon fill="none" stroke="#000000" points="436.5,-102.6222 436.5,-121.6222 495.5,-121.6222 495.5,-102.6222 436.5,-102.6222"/>
<text text-anchor="start" x="439.5" y="-108.7222" font-family="Helvetica,sans-Serif" font-size="11.00" fill="#000000">&lt; 2</text>
<polygon fill="#ffffff" stroke="transparent" points="495.5,-102.6222 495.5,-121.6222 526.5,-121.6222 526.5,-102.6222 495.5,-102.6222"/>
<polygon fill="none" stroke="#000000" points="495.5,-102.6222 495.5,-121.6222 526.5,-121.6222 526.5,-102.6222 495.5,-102.6222"/>
<text text-anchor="start" x="517.3862" y="-108.7222" font-family="Helvetica,sans-Serif" font-size="11.00" fill="#000000"> &#160;</text>
<polygon fill="#ffffff" stroke="transparent" points="526.5,-102.6222 526.5,-121.6222 558.5,-121.6222 558.5,-102.6222 526.5,-102.6222"/>
<polygon fill="none" stroke="#000000" points="526.5,-102.6222 526.5,-121.6222 558.5,-121.6222 558.5,-102.6222 526.5,-102.6222"/>
<text text-anchor="start" x="549.3862" y="-108.7222" font-family="Helvetica,sans-Serif" font-size="11.00" fill="#000000"> &#160;</text>
</a>
</g>
</g>
<!-- turmas -->
<g id="node4" class="node">
<title>turmas</title>
<g id="a_node4"><a xlink:href="../../tables/turmas.html" xlink:title="turmas" target="_top">
<polygon fill="#ffffff" stroke="transparent" points="295,-291.1222 295,-440.1222 374,-440.1222 374,-291.1222 295,-291.1222"/>
<polygon fill="#f5f5f5" stroke="transparent" points="295.5,-416.6222 295.5,-439.6222 374.5,-439.6222 374.5,-416.6222 295.5,-416.6222"/>
<polygon fill="none" stroke="#000000" points="295.5,-416.6222 295.5,-439.6222 374.5,-439.6222 374.5,-416.6222 295.5,-416.6222"/>
<text text-anchor="start" x="300.5" y="-425.2222" font-family="Helvetica,sans-Serif" font-weight="bold" font-size="11.00" fill="#000000">turmas</text>
<text text-anchor="start" x="340.0219" y="-424.7222" font-family="Helvetica,sans-Serif" font-size="11.00" fill="#000000">[table]</text>
<polygon fill="none" stroke="#000000" points="295.5,-394.6222 295.5,-416.6222 374.5,-416.6222 374.5,-394.6222 295.5,-394.6222"/>
<image xlink:href="../../images/primaryKeys.png" width="11px" height="12px" preserveAspectRatio="xMinYMin meet" x="300.5" y="-411.622"/>
<text text-anchor="start" x="316.5" y="-401.7222" font-family="Helvetica,sans-Serif" font-size="11.00" fill="#000000">id</text>
<polygon fill="none" stroke="#000000" points="295.5,-372.6222 295.5,-394.6222 374.5,-394.6222 374.5,-372.6222 295.5,-372.6222"/>
<image xlink:href="../../images/foreignKeys.png" width="11px" height="12px" preserveAspectRatio="xMinYMin meet" x="300.5" y="-389.622"/>
<text text-anchor="start" x="316.5" y="-379.7222" font-family="Helvetica,sans-Serif" font-size="11.00" fill="#000000">id_curso</text>
<polygon fill="none" stroke="#000000" points="295.5,-350.6222 295.5,-372.6222 374.5,-372.6222 374.5,-350.6222 295.5,-350.6222"/>
<image xlink:href="../../images/foreignKeys.png" width="11px" height="12px" preserveAspectRatio="xMinYMin meet" x="300.5" y="-367.622"/>
<text text-anchor="start" x="316.5" y="-357.7222" font-family="Helvetica,sans-Serif" font-size="11.00" fill="#000000">id_user</text>
<polygon fill="#ffffff" stroke="transparent" points="295.5,-328.6222 295.5,-350.6222 374.5,-350.6222 374.5,-328.6222 295.5,-328.6222"/>
<polygon fill="none" stroke="#000000" points="295.5,-328.6222 295.5,-350.6222 374.5,-350.6222 374.5,-328.6222 295.5,-328.6222"/>
<text text-anchor="start" x="316.5" y="-335.7222" font-family="Helvetica,sans-Serif" font-size="11.00" fill="#000000">nome</text>
<polygon fill="none" stroke="#000000" points="295.5,-309.6222 295.5,-328.6222 374.5,-328.6222 374.5,-309.6222 295.5,-309.6222"/>
<text text-anchor="start" x="298.5" y="-315.7222" font-family="Helvetica,sans-Serif" font-size="11.00" fill="#000000">...</text>
<polygon fill="#ffffff" stroke="transparent" points="295.5,-290.6222 295.5,-309.6222 328.5,-309.6222 328.5,-290.6222 295.5,-290.6222"/>
<polygon fill="none" stroke="#000000" points="295.5,-290.6222 295.5,-309.6222 328.5,-309.6222 328.5,-290.6222 295.5,-290.6222"/>
<text text-anchor="start" x="298.5" y="-296.7222" font-family="Helvetica,sans-Serif" font-size="11.00" fill="#000000">&lt; 2</text>
<polygon fill="#ffffff" stroke="transparent" points="328.5,-290.6222 328.5,-309.6222 346.5,-309.6222 346.5,-290.6222 328.5,-290.6222"/>
<polygon fill="none" stroke="#000000" points="328.5,-290.6222 328.5,-309.6222 346.5,-309.6222 346.5,-290.6222 328.5,-290.6222"/>
<text text-anchor="start" x="337.3862" y="-296.7222" font-family="Helvetica,sans-Serif" font-size="11.00" fill="#000000"> &#160;</text>
<polygon fill="#ffffff" stroke="transparent" points="346.5,-290.6222 346.5,-309.6222 374.5,-309.6222 374.5,-290.6222 346.5,-290.6222"/>
<polygon fill="none" stroke="#000000" points="346.5,-290.6222 346.5,-309.6222 374.5,-309.6222 374.5,-290.6222 346.5,-290.6222"/>
<text text-anchor="start" x="355.9053" y="-296.7222" font-family="Helvetica,sans-Serif" font-size="11.00" fill="#000000">2 &gt;</text>
</a>
</g>
</g>
<!-- usuario_turma&#45;&gt;turmas -->
<g id="edge14" class="edge">
<title>usuario_turma:w&#45;&gt;turmas:e</title>
<path fill="none" stroke="#000000" d="M423.0691,-160.8267C387.9961,-199.4786 426.5679,-405.6222 374.5,-405.6222"/>
<polygon fill="#000000" stroke="#000000" points="429.2375,-157.9772 438.0098,-157.8903 432.8687,-156.2997 436.5,-154.6222 436.5,-154.6222 436.5,-154.6222 432.8687,-156.2997 434.9902,-151.3541 429.2375,-157.9772 429.2375,-157.9772"/>
<ellipse fill="none" stroke="#000000" cx="426.3325" cy="-159.3192" rx="3.2" ry="3.2"/>
</g>
<!-- usuario_turma&#45;&gt;usuarios -->
<g id="edge15" class="edge">
<title>usuario_turma:w&#45;&gt;usuarios:e</title>
<path fill="none" stroke="#000000" d="M422.4304,-128.7495C413.6644,-123.0222 409.6302,-112.548 395,-108.6222 343.0597,-94.6847 318.3442,-78.1978 274,-108.6222 232.7562,-136.9193 283.5178,-213.6222 233.5,-213.6222"/>
<polygon fill="#000000" stroke="#000000" points="428.7869,-130.4991 435.5446,-136.0931 432.6434,-131.5606 436.5,-132.6222 436.5,-132.6222 436.5,-132.6222 432.6434,-131.5606 437.4554,-129.1513 428.7869,-130.4991 428.7869,-130.4991"/>
<ellipse fill="none" stroke="#000000" cx="425.7016" cy="-129.6499" rx="3.2" ry="3.2"/>
</g>
<!-- turmas&#45;&gt;usuarios -->
<g id="edge11" class="edge">
<title>turmas:w&#45;&gt;usuarios:e</title>
<path fill="none" stroke="#000000" d="M281.1344,-358.927C236.1231,-338.8681 299.1055,-213.6222 233.5,-213.6222"/>
<polygon fill="#000000" stroke="#000000" points="287.6372,-360.147 294.8362,-365.1605 291.5686,-360.8846 295.5,-361.6222 295.5,-361.6222 295.5,-361.6222 291.5686,-360.8846 296.1638,-358.0839 287.6372,-360.147 287.6372,-360.147"/>
<ellipse fill="none" stroke="#000000" cx="284.4921" cy="-359.5569" rx="3.2" ry="3.2"/>
</g>
<!-- cursos -->
<g id="node10" class="node">
<title>cursos</title>
<g id="a_node10"><a xlink:href="../../tables/cursos.html" xlink:title="cursos" target="_top">
<polygon fill="#ffffff" stroke="transparent" points="8,-335.1222 8,-418.1222 95,-418.1222 95,-335.1222 8,-335.1222"/>
<polygon fill="#f5f5f5" stroke="transparent" points="8.5,-394.6222 8.5,-417.6222 95.5,-417.6222 95.5,-394.6222 8.5,-394.6222"/>
<polygon fill="none" stroke="#000000" points="8.5,-394.6222 8.5,-417.6222 95.5,-417.6222 95.5,-394.6222 8.5,-394.6222"/>
<text text-anchor="start" x="13.5" y="-403.2222" font-family="Helvetica,sans-Serif" font-weight="bold" font-size="11.00" fill="#000000">cursos</text>
<text text-anchor="start" x="60.5437" y="-402.7222" font-family="Helvetica,sans-Serif" font-size="11.00" fill="#000000">[table]</text>
<polygon fill="none" stroke="#000000" points="8.5,-372.6222 8.5,-394.6222 95.5,-394.6222 95.5,-372.6222 8.5,-372.6222"/>
<image xlink:href="../../images/primaryKeys.png" width="11px" height="12px" preserveAspectRatio="xMinYMin meet" x="13.5" y="-389.622"/>
<text text-anchor="start" x="28.5" y="-379.7222" font-family="Helvetica,sans-Serif" font-size="11.00" fill="#000000">id</text>
<polygon fill="none" stroke="#000000" points="8.5,-353.6222 8.5,-372.6222 95.5,-372.6222 95.5,-353.6222 8.5,-353.6222"/>
<text text-anchor="start" x="11.5" y="-359.7222" font-family="Helvetica,sans-Serif" font-size="11.00" fill="#000000">...</text>
<polygon fill="#ffffff" stroke="transparent" points="8.5,-334.6222 8.5,-353.6222 41.5,-353.6222 41.5,-334.6222 8.5,-334.6222"/>
<polygon fill="none" stroke="#000000" points="8.5,-334.6222 8.5,-353.6222 41.5,-353.6222 41.5,-334.6222 8.5,-334.6222"/>
<text text-anchor="start" x="11.5" y="-340.7222" font-family="Helvetica,sans-Serif" font-size="11.00" fill="#000000"> &#160;</text>
<polygon fill="#ffffff" stroke="transparent" points="41.5,-334.6222 41.5,-353.6222 63.5,-353.6222 63.5,-334.6222 41.5,-334.6222"/>
<polygon fill="none" stroke="#000000" points="41.5,-334.6222 41.5,-353.6222 63.5,-353.6222 63.5,-334.6222 41.5,-334.6222"/>
<text text-anchor="start" x="54.3862" y="-340.7222" font-family="Helvetica,sans-Serif" font-size="11.00" fill="#000000"> &#160;</text>
<polygon fill="#ffffff" stroke="transparent" points="63.5,-334.6222 63.5,-353.6222 95.5,-353.6222 95.5,-334.6222 63.5,-334.6222"/>
<polygon fill="none" stroke="#000000" points="63.5,-334.6222 63.5,-353.6222 95.5,-353.6222 95.5,-334.6222 63.5,-334.6222"/>
<text text-anchor="start" x="76.9053" y="-340.7222" font-family="Helvetica,sans-Serif" font-size="11.00" fill="#000000">3 &gt;</text>
</a>
</g>
</g>
<!-- turmas&#45;&gt;cursos -->
<g id="edge10" class="edge">
<title>turmas:w&#45;&gt;cursos:e</title>
<path fill="none" stroke="#000000" d="M281.0132,-383.6222C203.8799,-383.6222 179.3542,-383.6222 95.5,-383.6222"/>
<polygon fill="#000000" stroke="#000000" points="287.5,-383.6222 295.5,-387.2222 291.5,-383.6222 295.5,-383.6222 295.5,-383.6222 295.5,-383.6222 291.5,-383.6222 295.5,-380.0222 287.5,-383.6222 287.5,-383.6222"/>
<ellipse fill="none" stroke="#000000" cx="284.3" cy="-383.6223" rx="3.2" ry="3.2"/>
</g>
<!-- agendamentos -->
<g id="node5" class="node">
<title>agendamentos</title>
<g id="a_node5"><a xlink:href="../../tables/agendamentos.html" xlink:title="agendamentos" target="_top">
<polygon fill="#ffffff" stroke="transparent" points="608,-442.1222 608,-569.1222 731,-569.1222 731,-442.1222 608,-442.1222"/>
<polygon fill="#f5f5f5" stroke="transparent" points="608.5,-545.6222 608.5,-568.6222 731.5,-568.6222 731.5,-545.6222 608.5,-545.6222"/>
<polygon fill="none" stroke="#000000" points="608.5,-545.6222 608.5,-568.6222 731.5,-568.6222 731.5,-545.6222 608.5,-545.6222"/>
<text text-anchor="start" x="613.5" y="-554.2222" font-family="Helvetica,sans-Serif" font-weight="bold" font-size="11.00" fill="#000000">agendamentos</text>
<text text-anchor="start" x="697.0219" y="-553.7222" font-family="Helvetica,sans-Serif" font-size="11.00" fill="#000000">[table]</text>
<polygon fill="none" stroke="#000000" points="608.5,-523.6222 608.5,-545.6222 731.5,-545.6222 731.5,-523.6222 608.5,-523.6222"/>
<image xlink:href="../../images/foreignKeys.png" width="11px" height="12px" preserveAspectRatio="xMinYMin meet" x="613.5" y="-540.622"/>
<text text-anchor="start" x="637.5" y="-530.7222" font-family="Helvetica,sans-Serif" font-size="11.00" fill="#000000">encontro_id</text>
<polygon fill="none" stroke="#000000" points="608.5,-501.6222 608.5,-523.6222 731.5,-523.6222 731.5,-501.6222 608.5,-501.6222"/>
<image xlink:href="../../images/primaryKeys.png" width="11px" height="12px" preserveAspectRatio="xMinYMin meet" x="613.5" y="-518.622"/>
<text text-anchor="start" x="637.5" y="-508.7222" font-family="Helvetica,sans-Serif" font-size="11.00" fill="#000000">id</text>
<polygon fill="none" stroke="#000000" points="608.5,-479.6222 608.5,-501.6222 731.5,-501.6222 731.5,-479.6222 608.5,-479.6222"/>
<image xlink:href="../../images/foreignKeys.png" width="11px" height="12px" preserveAspectRatio="xMinYMin meet" x="613.5" y="-496.622"/>
<text text-anchor="start" x="637.5" y="-486.7222" font-family="Helvetica,sans-Serif" font-size="11.00" fill="#000000">local_id</text>
<polygon fill="none" stroke="#000000" points="608.5,-460.6222 608.5,-479.6222 731.5,-479.6222 731.5,-460.6222 608.5,-460.6222"/>
<text text-anchor="start" x="611.5" y="-466.7222" font-family="Helvetica,sans-Serif" font-size="11.00" fill="#000000">...</text>
<polygon fill="#ffffff" stroke="transparent" points="608.5,-441.6222 608.5,-460.6222 668.5,-460.6222 668.5,-441.6222 608.5,-441.6222"/>
<polygon fill="none" stroke="#000000" points="608.5,-441.6222 608.5,-460.6222 668.5,-460.6222 668.5,-441.6222 608.5,-441.6222"/>
<text text-anchor="start" x="611.5" y="-447.7222" font-family="Helvetica,sans-Serif" font-size="11.00" fill="#000000">&lt; 2</text>
<polygon fill="#ffffff" stroke="transparent" points="668.5,-441.6222 668.5,-460.6222 699.5,-460.6222 699.5,-441.6222 668.5,-441.6222"/>
<polygon fill="none" stroke="#000000" points="668.5,-441.6222 668.5,-460.6222 699.5,-460.6222 699.5,-441.6222 668.5,-441.6222"/>
<text text-anchor="start" x="690.3862" y="-447.7222" font-family="Helvetica,sans-Serif" font-size="11.00" fill="#000000"> &#160;</text>
<polygon fill="#ffffff" stroke="transparent" points="699.5,-441.6222 699.5,-460.6222 731.5,-460.6222 731.5,-441.6222 699.5,-441.6222"/>
<polygon fill="none" stroke="#000000" points="699.5,-441.6222 699.5,-460.6222 731.5,-460.6222 731.5,-441.6222 699.5,-441.6222"/>
<text text-anchor="start" x="722.3862" y="-447.7222" font-family="Helvetica,sans-Serif" font-size="11.00" fill="#000000"> &#160;</text>
</a>
</g>
</g>
<!-- agendamentos&#45;&gt;locais -->
<g id="edge2" class="edge">
<title>agendamentos:w&#45;&gt;locais:e</title>
<path fill="none" stroke="#000000" d="M594.4214,-493.8505C565.8017,-509.3768 583.2097,-575.6222 540.5,-575.6222"/>
<polygon fill="#000000" stroke="#000000" points="600.7024,-492.4103 609.3046,-494.1311 604.6012,-491.5162 608.5,-490.6222 608.5,-490.6222 608.5,-490.6222 604.6012,-491.5162 607.6954,-487.1133 600.7024,-492.4103 600.7024,-492.4103"/>
<ellipse fill="none" stroke="#000000" cx="597.5833" cy="-493.1255" rx="3.2" ry="3.2"/>
</g>
<!-- agendamentos&#45;&gt;encontros -->
<g id="edge1" class="edge">
<title>agendamentos:w&#45;&gt;encontros:e</title>
<path fill="none" stroke="#000000" d="M594.3287,-530.9698C568.397,-514.7003 587.4147,-449.6222 546.5,-449.6222"/>
<polygon fill="#000000" stroke="#000000" points="600.7531,-532.6256 607.6015,-538.1083 604.6266,-533.6239 608.5,-534.6222 608.5,-534.6222 608.5,-534.6222 604.6266,-533.6239 609.3985,-531.1361 600.7531,-532.6256 600.7531,-532.6256"/>
<ellipse fill="none" stroke="#000000" cx="597.6544" cy="-531.8269" rx="3.2" ry="3.2"/>
</g>
<!-- grupos -->
<g id="node6" class="node">
<title>grupos</title>
<g id="a_node6"><a xlink:href="../../tables/grupos.html" xlink:title="grupos" target="_top">
<polygon fill="#ffffff" stroke="transparent" points="282,-461.1222 282,-610.1222 387,-610.1222 387,-461.1222 282,-461.1222"/>
<polygon fill="#f5f5f5" stroke="transparent" points="282.5,-586.6222 282.5,-609.6222 387.5,-609.6222 387.5,-586.6222 282.5,-586.6222"/>
<polygon fill="none" stroke="#000000" points="282.5,-586.6222 282.5,-609.6222 387.5,-609.6222 387.5,-586.6222 282.5,-586.6222"/>
<text text-anchor="start" x="287.5" y="-595.2222" font-family="Helvetica,sans-Serif" font-weight="bold" font-size="11.00" fill="#000000">grupos</text>
<text text-anchor="start" x="352.5437" y="-594.7222" font-family="Helvetica,sans-Serif" font-size="11.00" fill="#000000">[table]</text>
<polygon fill="none" stroke="#000000" points="282.5,-564.6222 282.5,-586.6222 387.5,-586.6222 387.5,-564.6222 282.5,-564.6222"/>
<image xlink:href="../../images/primaryKeys.png" width="11px" height="12px" preserveAspectRatio="xMinYMin meet" x="287.5" y="-581.622"/>
<text text-anchor="start" x="302.5" y="-571.7222" font-family="Helvetica,sans-Serif" font-size="11.00" fill="#000000">id</text>
<polygon fill="none" stroke="#000000" points="282.5,-542.6222 282.5,-564.6222 387.5,-564.6222 387.5,-542.6222 282.5,-542.6222"/>
<image xlink:href="../../images/foreignKeys.png" width="11px" height="12px" preserveAspectRatio="xMinYMin meet" x="287.5" y="-559.622"/>
<text text-anchor="start" x="302.5" y="-549.7222" font-family="Helvetica,sans-Serif" font-size="11.00" fill="#000000">id_curso</text>
<polygon fill="none" stroke="#000000" points="282.5,-520.6222 282.5,-542.6222 387.5,-542.6222 387.5,-520.6222 282.5,-520.6222"/>
<image xlink:href="../../images/foreignKeys.png" width="11px" height="12px" preserveAspectRatio="xMinYMin meet" x="287.5" y="-537.622"/>
<text text-anchor="start" x="302.5" y="-527.7222" font-family="Helvetica,sans-Serif" font-size="11.00" fill="#000000">id_user</text>
<polygon fill="#ffffff" stroke="transparent" points="282.5,-498.6222 282.5,-520.6222 387.5,-520.6222 387.5,-498.6222 282.5,-498.6222"/>
<polygon fill="none" stroke="#000000" points="282.5,-498.6222 282.5,-520.6222 387.5,-520.6222 387.5,-498.6222 282.5,-498.6222"/>
<text text-anchor="start" x="302.5" y="-505.7222" font-family="Helvetica,sans-Serif" font-size="11.00" fill="#000000">nome</text>
<polygon fill="none" stroke="#000000" points="282.5,-479.6222 282.5,-498.6222 387.5,-498.6222 387.5,-479.6222 282.5,-479.6222"/>
<text text-anchor="start" x="285.5" y="-485.7222" font-family="Helvetica,sans-Serif" font-size="11.00" fill="#000000">...</text>
<polygon fill="#ffffff" stroke="transparent" points="282.5,-460.6222 282.5,-479.6222 328.5,-479.6222 328.5,-460.6222 282.5,-460.6222"/>
<polygon fill="none" stroke="#000000" points="282.5,-460.6222 282.5,-479.6222 328.5,-479.6222 328.5,-460.6222 282.5,-460.6222"/>
<text text-anchor="start" x="285.5" y="-466.7222" font-family="Helvetica,sans-Serif" font-size="11.00" fill="#000000">&lt; 2</text>
<polygon fill="#ffffff" stroke="transparent" points="328.5,-460.6222 328.5,-479.6222 353.5,-479.6222 353.5,-460.6222 328.5,-460.6222"/>
<polygon fill="none" stroke="#000000" points="328.5,-460.6222 328.5,-479.6222 353.5,-479.6222 353.5,-460.6222 328.5,-460.6222"/>
<text text-anchor="start" x="344.3862" y="-466.7222" font-family="Helvetica,sans-Serif" font-size="11.00" fill="#000000"> &#160;</text>
<polygon fill="#ffffff" stroke="transparent" points="353.5,-460.6222 353.5,-479.6222 387.5,-479.6222 387.5,-460.6222 353.5,-460.6222"/>
<polygon fill="none" stroke="#000000" points="353.5,-460.6222 353.5,-479.6222 387.5,-479.6222 387.5,-460.6222 353.5,-460.6222"/>
<text text-anchor="start" x="368.9053" y="-466.7222" font-family="Helvetica,sans-Serif" font-size="11.00" fill="#000000">2 &gt;</text>
</a>
</g>
</g>
<!-- grupos&#45;&gt;usuarios -->
<g id="edge6" class="edge">
<title>grupos:w&#45;&gt;usuarios:e</title>
<path fill="none" stroke="#000000" d="M268.8955,-526.368C224.3596,-485.022 299.5543,-213.6222 233.5,-213.6222"/>
<polygon fill="#000000" stroke="#000000" points="275.0372,-528.74 281.203,-534.9804 278.7686,-530.1811 282.5,-531.6222 282.5,-531.6222 282.5,-531.6222 278.7686,-530.1811 283.797,-528.2639 275.0372,-528.74 275.0372,-528.74"/>
<ellipse fill="none" stroke="#000000" cx="272.0521" cy="-527.5871" rx="3.2" ry="3.2"/>
</g>
<!-- grupos&#45;&gt;cursos -->
<g id="edge5" class="edge">
<title>grupos:w&#45;&gt;cursos:e</title>
<path fill="none" stroke="#000000" d="M268.3258,-550.378C214.2119,-526.8755 147.0538,-383.6222 95.5,-383.6222"/>
<polygon fill="#000000" stroke="#000000" points="274.7017,-551.8373 281.6968,-557.1314 278.6008,-552.7297 282.5,-553.6222 282.5,-553.6222 282.5,-553.6222 278.6008,-552.7297 283.3032,-550.1129 274.7017,-551.8373 274.7017,-551.8373"/>
<ellipse fill="none" stroke="#000000" cx="271.5823" cy="-551.1233" rx="3.2" ry="3.2"/>
</g>
<!-- usuarios&#45;&gt;cursos -->
<g id="edge16" class="edge">
<title>usuarios:w&#45;&gt;cursos:e</title>
<path fill="none" stroke="#000000" d="M130.0379,-193.9122C71.9263,-215.5746 177.8921,-383.6222 95.5,-383.6222"/>
<polygon fill="#000000" stroke="#000000" points="136.5984,-192.8734 145.063,-195.1779 140.5492,-192.2478 144.5,-191.6222 144.5,-191.6222 144.5,-191.6222 140.5492,-192.2478 143.937,-188.0665 136.5984,-192.8734 136.5984,-192.8734"/>
<ellipse fill="none" stroke="#000000" cx="133.4378" cy="-193.3739" rx="3.2" ry="3.2"/>
</g>
<!-- encontros&#45;&gt;turmas -->
<g id="edge4" class="edge">
<title>encontros:w&#45;&gt;turmas:e</title>
<path fill="none" stroke="#000000" d="M434.8917,-405.6222C412.7594,-405.6222 402.3646,-405.6222 374.5,-405.6222"/>
<polygon fill="#000000" stroke="#000000" points="441.5,-405.6222 449.5,-409.2222 445.5,-405.6222 449.5,-405.6222 449.5,-405.6222 449.5,-405.6222 445.5,-405.6222 449.5,-402.0222 441.5,-405.6222 441.5,-405.6222"/>
<ellipse fill="none" stroke="#000000" cx="438.3" cy="-405.6223" rx="3.2" ry="3.2"/>
</g>
<!-- encontros&#45;&gt;grupos -->
<g id="edge3" class="edge">
<title>encontros:w&#45;&gt;grupos:e</title>
<path fill="none" stroke="#000000" d="M435.1344,-430.3173C390.1231,-450.3763 453.1055,-575.6222 387.5,-575.6222"/>
<polygon fill="#000000" stroke="#000000" points="441.6372,-429.0974 450.1638,-431.1605 445.5686,-428.3598 449.5,-427.6222 449.5,-427.6222 449.5,-427.6222 445.5686,-428.3598 448.8362,-424.0839 441.6372,-429.0974 441.6372,-429.0974"/>
<ellipse fill="none" stroke="#000000" cx="438.4921" cy="-429.6875" rx="3.2" ry="3.2"/>
</g>
<!-- token -->
<g id="node9" class="node">
<title>token</title>
<g id="a_node9"><a xlink:href="../../tables/token.html" xlink:title="token" target="_top">
<polygon fill="#ffffff" stroke="transparent" points="292.5,-143.1222 292.5,-270.1222 376.5,-270.1222 376.5,-143.1222 292.5,-143.1222"/>
<polygon fill="#f5f5f5" stroke="transparent" points="292.5,-246.6222 292.5,-269.6222 376.5,-269.6222 376.5,-246.6222 292.5,-246.6222"/>
<polygon fill="none" stroke="#000000" points="292.5,-246.6222 292.5,-269.6222 376.5,-269.6222 376.5,-246.6222 292.5,-246.6222"/>
<text text-anchor="start" x="297.5" y="-255.2222" font-family="Helvetica,sans-Serif" font-weight="bold" font-size="11.00" fill="#000000">token</text>
<text text-anchor="start" x="341.5437" y="-254.7222" font-family="Helvetica,sans-Serif" font-size="11.00" fill="#000000">[table]</text>
<polygon fill="none" stroke="#000000" points="292.5,-224.6222 292.5,-246.6222 376.5,-246.6222 376.5,-224.6222 292.5,-224.6222"/>
<image xlink:href="../../images/primaryKeys.png" width="11px" height="12px" preserveAspectRatio="xMinYMin meet" x="297.5" y="-241.622"/>
<text text-anchor="start" x="312.5" y="-231.7222" font-family="Helvetica,sans-Serif" font-size="11.00" fill="#000000">id</text>
<polygon fill="none" stroke="#000000" points="292.5,-202.6222 292.5,-224.6222 376.5,-224.6222 376.5,-202.6222 292.5,-202.6222"/>
<image xlink:href="../../images/foreignKeys.png" width="11px" height="12px" preserveAspectRatio="xMinYMin meet" x="297.5" y="-219.622"/>
<text text-anchor="start" x="312.5" y="-209.7222" font-family="Helvetica,sans-Serif" font-size="11.00" fill="#000000">id_usuario</text>
<polygon fill="#ffffff" stroke="transparent" points="292.5,-180.6222 292.5,-202.6222 376.5,-202.6222 376.5,-180.6222 292.5,-180.6222"/>
<polygon fill="none" stroke="#000000" points="292.5,-180.6222 292.5,-202.6222 376.5,-202.6222 376.5,-180.6222 292.5,-180.6222"/>
<text text-anchor="start" x="312.5" y="-187.7222" font-family="Helvetica,sans-Serif" font-size="11.00" fill="#000000">token</text>
<polygon fill="none" stroke="#000000" points="292.5,-161.6222 292.5,-180.6222 376.5,-180.6222 376.5,-161.6222 292.5,-161.6222"/>
<text text-anchor="start" x="295.5" y="-167.7222" font-family="Helvetica,sans-Serif" font-size="11.00" fill="#000000">...</text>
<polygon fill="#ffffff" stroke="transparent" points="292.5,-142.6222 292.5,-161.6222 332.5,-161.6222 332.5,-142.6222 292.5,-142.6222"/>
<polygon fill="none" stroke="#000000" points="292.5,-142.6222 292.5,-161.6222 332.5,-161.6222 332.5,-142.6222 292.5,-142.6222"/>
<text text-anchor="start" x="295.5" y="-148.7222" font-family="Helvetica,sans-Serif" font-size="11.00" fill="#000000">&lt; 1</text>
<polygon fill="#ffffff" stroke="transparent" points="332.5,-142.6222 332.5,-161.6222 354.5,-161.6222 354.5,-142.6222 332.5,-142.6222"/>
<polygon fill="none" stroke="#000000" points="332.5,-142.6222 332.5,-161.6222 354.5,-161.6222 354.5,-142.6222 332.5,-142.6222"/>
<text text-anchor="start" x="345.3862" y="-148.7222" font-family="Helvetica,sans-Serif" font-size="11.00" fill="#000000"> &#160;</text>
<polygon fill="#ffffff" stroke="transparent" points="354.5,-142.6222 354.5,-161.6222 376.5,-161.6222 376.5,-142.6222 354.5,-142.6222"/>
<polygon fill="none" stroke="#000000" points="354.5,-142.6222 354.5,-161.6222 376.5,-161.6222 376.5,-142.6222 354.5,-142.6222"/>
<text text-anchor="start" x="367.3862" y="-148.7222" font-family="Helvetica,sans-Serif" font-size="11.00" fill="#000000"> &#160;</text>
</a>
</g>
</g>
<!-- token&#45;&gt;usuarios -->
<g id="edge9" class="edge">
<title>token:w&#45;&gt;usuarios:e</title>
<path fill="none" stroke="#000000" d="M277.7032,-213.6222C262.4686,-213.6222 253.9861,-213.6222 233.5,-213.6222"/>
<polygon fill="#000000" stroke="#000000" points="284.5,-213.6222 292.5,-217.2222 288.5,-213.6222 292.5,-213.6222 292.5,-213.6222 292.5,-213.6222 288.5,-213.6222 292.5,-210.0222 284.5,-213.6222 284.5,-213.6222"/>
<ellipse fill="none" stroke="#000000" cx="281.3" cy="-213.6223" rx="3.2" ry="3.2"/>
</g>
<!-- usuario_grupo -->
<g id="node11" class="node">
<title>usuario_grupo</title>
<g id="a_node11"><a xlink:href="../../tables/usuario_grupo.html" xlink:title="usuario_grupo" target="_top">
<polygon fill="#ffffff" stroke="transparent" points="436,-236.6222 436,-322.6222 559,-322.6222 559,-236.6222 436,-236.6222"/>
<polygon fill="#f5f5f5" stroke="transparent" points="436.5,-299.6222 436.5,-322.6222 559.5,-322.6222 559.5,-299.6222 436.5,-299.6222"/>
<polygon fill="none" stroke="#000000" points="436.5,-299.6222 436.5,-322.6222 559.5,-322.6222 559.5,-299.6222 436.5,-299.6222"/>
<text text-anchor="start" x="441.5" y="-308.2222" font-family="Helvetica,sans-Serif" font-weight="bold" font-size="11.00" fill="#000000">usuario_grupo</text>
<text text-anchor="start" x="525.0219" y="-307.7222" font-family="Helvetica,sans-Serif" font-size="11.00" fill="#000000">[table]</text>
<polygon fill="none" stroke="#000000" points="436.5,-277.6222 436.5,-299.6222 559.5,-299.6222 559.5,-277.6222 436.5,-277.6222"/>
<image xlink:href="../../images/foreignKeys.png" width="11px" height="12px" preserveAspectRatio="xMinYMin meet" x="441.5" y="-294.622"/>
<text text-anchor="start" x="465.5" y="-284.7222" font-family="Helvetica,sans-Serif" font-size="11.00" fill="#000000">id_grupo</text>
<polygon fill="none" stroke="#000000" points="436.5,-255.6222 436.5,-277.6222 559.5,-277.6222 559.5,-255.6222 436.5,-255.6222"/>
<image xlink:href="../../images/foreignKeys.png" width="11px" height="12px" preserveAspectRatio="xMinYMin meet" x="441.5" y="-272.622"/>
<text text-anchor="start" x="465.5" y="-262.7222" font-family="Helvetica,sans-Serif" font-size="11.00" fill="#000000">id_usuario</text>
<polygon fill="#ffffff" stroke="transparent" points="436.5,-236.6222 436.5,-255.6222 496.5,-255.6222 496.5,-236.6222 436.5,-236.6222"/>
<polygon fill="none" stroke="#000000" points="436.5,-236.6222 436.5,-255.6222 496.5,-255.6222 496.5,-236.6222 436.5,-236.6222"/>
<text text-anchor="start" x="439.5" y="-242.7222" font-family="Helvetica,sans-Serif" font-size="11.00" fill="#000000">&lt; 2</text>
<polygon fill="#ffffff" stroke="transparent" points="496.5,-236.6222 496.5,-255.6222 527.5,-255.6222 527.5,-236.6222 496.5,-236.6222"/>
<polygon fill="none" stroke="#000000" points="496.5,-236.6222 496.5,-255.6222 527.5,-255.6222 527.5,-236.6222 496.5,-236.6222"/>
<text text-anchor="start" x="518.3862" y="-242.7222" font-family="Helvetica,sans-Serif" font-size="11.00" fill="#000000"> &#160;</text>
<polygon fill="#ffffff" stroke="transparent" points="527.5,-236.6222 527.5,-255.6222 559.5,-255.6222 559.5,-236.6222 527.5,-236.6222"/>
<polygon fill="none" stroke="#000000" points="527.5,-236.6222 527.5,-255.6222 559.5,-255.6222 559.5,-236.6222 527.5,-236.6222"/>
<text text-anchor="start" x="550.3862" y="-242.7222" font-family="Helvetica,sans-Serif" font-size="11.00" fill="#000000"> &#160;</text>
</a>
</g>
</g>
<!-- usuario_grupo&#45;&gt;grupos -->
<g id="edge12" class="edge">
<title>usuario_grupo:w&#45;&gt;grupos:e</title>
<path fill="none" stroke="#000000" d="M423.0969,-294.3551C384.2808,-334.8049 446.7668,-575.6222 387.5,-575.6222"/>
<polygon fill="#000000" stroke="#000000" points="429.1446,-291.7684 437.9158,-291.9321 432.8223,-290.1953 436.5,-288.6222 436.5,-288.6222 436.5,-288.6222 432.8223,-290.1953 435.0842,-285.3123 429.1446,-291.7684 429.1446,-291.7684"/>
<ellipse fill="none" stroke="#000000" cx="426.2024" cy="-293.0268" rx="3.2" ry="3.2"/>
</g>
<!-- usuario_grupo&#45;&gt;usuarios -->
<g id="edge13" class="edge">
<title>usuario_grupo:w&#45;&gt;usuarios:e</title>
<path fill="none" stroke="#000000" d="M422.2721,-264.1938C386.4066,-248.961 440.4799,-166.148 395,-132.6222 351.7124,-100.7124 319.7461,-104.3495 274,-132.6222 239.762,-153.7825 273.7492,-213.6222 233.5,-213.6222"/>
<polygon fill="#000000" stroke="#000000" points="428.614,-265.2762 435.8943,-270.1709 432.557,-265.9492 436.5,-266.6222 436.5,-266.6222 436.5,-266.6222 432.557,-265.9492 437.1057,-263.0735 428.614,-265.2762 428.614,-265.2762"/>
<ellipse fill="none" stroke="#000000" cx="425.4597" cy="-264.7378" rx="3.2" ry="3.2"/>
</g>
</g>
</svg>
