<?xml version="1.0" encoding="UTF-8" standalone="no"?>
<!DOCTYPE svg PUBLIC "-//W3C//DTD SVG 1.1//EN"
 "http://www.w3.org/Graphics/SVG/1.1/DTD/svg11.dtd">
<!-- Generated by graphviz version 2.40.1 (20161225.0304)
 -->
<!-- Title: largeRelationshipsDiagram Pages: 1 -->
<svg width="785pt" height="812pt"
 viewBox="0.00 0.00 785.00 812.20" xmlns="http://www.w3.org/2000/svg" xmlns:xlink="http://www.w3.org/1999/xlink">
<g id="graph0" class="graph" transform="scale(1 1) rotate(0) translate(4 808.2)">
<title>largeRelationshipsDiagram</title>
<polygon fill="#ffffff" stroke="transparent" points="-4,4 -4,-808.2 781,-808.2 781,4 -4,4"/>
<text text-anchor="middle" x="72.4936" y="-7.3" font-family="Helvetica,sans-Serif" font-size="11.00" fill="#000000">Generated by SchemaSpy</text>
<!-- locais -->
<g id="node1" class="node">
<title>locais</title>
<g id="a_node1"><a xlink:href="../../tables/locais.html" xlink:title="locais" target="_top">
<polygon fill="#ffffff" stroke="transparent" points="493,-670.2 493,-778.2 578,-778.2 578,-670.2 493,-670.2"/>
<polygon fill="#f5f5f5" stroke="transparent" points="493.5,-755.2 493.5,-778.2 578.5,-778.2 578.5,-755.2 493.5,-755.2"/>
<polygon fill="none" stroke="#000000" points="493.5,-755.2 493.5,-778.2 578.5,-778.2 578.5,-755.2 493.5,-755.2"/>
<text text-anchor="start" x="498.5" y="-763.8" font-family="Helvetica,sans-Serif" font-weight="bold" font-size="11.00" fill="#000000">locais</text>
<text text-anchor="start" x="543.5437" y="-763.3" font-family="Helvetica,sans-Serif" font-size="11.00" fill="#000000">[table]</text>
<polygon fill="none" stroke="#000000" points="493.5,-733.2 493.5,-755.2 578.5,-755.2 578.5,-733.2 493.5,-733.2"/>
<image xlink:href="../../images/primaryKeys.png" width="11px" height="12px" preserveAspectRatio="xMinYMin meet" x="498.5" y="-750.2"/>
<text text-anchor="start" x="513.5" y="-740.3" font-family="Helvetica,sans-Serif" font-size="11.00" fill="#000000">id</text>
<polygon fill="none" stroke="#000000" points="493.5,-711.2 493.5,-733.2 578.5,-733.2 578.5,-711.2 493.5,-711.2"/>
<text text-anchor="start" x="513.5" y="-718.3" font-family="Helvetica,sans-Serif" font-size="11.00" fill="#000000">localizacao</text>
<polygon fill="#ffffff" stroke="transparent" points="493.5,-689.2 493.5,-711.2 578.5,-711.2 578.5,-689.2 493.5,-689.2"/>
<polygon fill="none" stroke="#000000" points="493.5,-689.2 493.5,-711.2 578.5,-711.2 578.5,-689.2 493.5,-689.2"/>
<text text-anchor="start" x="513.5" y="-696.3" font-family="Helvetica,sans-Serif" font-size="11.00" fill="#000000">nome</text>
<polygon fill="#ffffff" stroke="transparent" points="493.5,-670.2 493.5,-689.2 525.5,-689.2 525.5,-670.2 493.5,-670.2"/>
<polygon fill="none" stroke="#000000" points="493.5,-670.2 493.5,-689.2 525.5,-689.2 525.5,-670.2 493.5,-670.2"/>
<text text-anchor="start" x="496.5" y="-676.3" font-family="Helvetica,sans-Serif" font-size="11.00" fill="#000000"> &#160;</text>
<polygon fill="#ffffff" stroke="transparent" points="525.5,-670.2 525.5,-689.2 547.5,-689.2 547.5,-670.2 525.5,-670.2"/>
<polygon fill="none" stroke="#000000" points="525.5,-670.2 525.5,-689.2 547.5,-689.2 547.5,-670.2 525.5,-670.2"/>
<text text-anchor="start" x="538.3862" y="-676.3" font-family="Helvetica,sans-Serif" font-size="11.00" fill="#000000"> &#160;</text>
<polygon fill="#ffffff" stroke="transparent" points="547.5,-670.2 547.5,-689.2 578.5,-689.2 578.5,-670.2 547.5,-670.2"/>
<polygon fill="none" stroke="#000000" points="547.5,-670.2 547.5,-689.2 578.5,-689.2 578.5,-670.2 547.5,-670.2"/>
<text text-anchor="start" x="559.9053" y="-676.3" font-family="Helvetica,sans-Serif" font-size="11.00" fill="#000000">1 &gt;</text>
</a>
</g>
</g>
<!-- mensagens -->
<g id="node2" class="node">
<title>mensagens</title>
<g id="a_node2"><a xlink:href="../../tables/mensagens.html" xlink:title="mensagens" target="_top">
<polygon fill="#ffffff" stroke="transparent" points="655,-214.2 655,-388.2 760,-388.2 760,-214.2 655,-214.2"/>
<polygon fill="#f5f5f5" stroke="transparent" points="655.5,-365.2 655.5,-388.2 760.5,-388.2 760.5,-365.2 655.5,-365.2"/>
<polygon fill="none" stroke="#000000" points="655.5,-365.2 655.5,-388.2 760.5,-388.2 760.5,-365.2 655.5,-365.2"/>
<text text-anchor="start" x="660.5" y="-373.8" font-family="Helvetica,sans-Serif" font-weight="bold" font-size="11.00" fill="#000000">mensagens</text>
<text text-anchor="start" x="726.0219" y="-373.3" font-family="Helvetica,sans-Serif" font-size="11.00" fill="#000000">[table]</text>
<polygon fill="none" stroke="#000000" points="655.5,-343.2 655.5,-365.2 760.5,-365.2 760.5,-343.2 655.5,-343.2"/>
<image xlink:href="../../images/primaryKeys.png" width="11px" height="12px" preserveAspectRatio="xMinYMin meet" x="660.5" y="-360.2"/>
<text text-anchor="start" x="683.5" y="-350.3" font-family="Helvetica,sans-Serif" font-size="11.00" fill="#000000">id</text>
<polygon fill="none" stroke="#000000" points="655.5,-321.2 655.5,-343.2 760.5,-343.2 760.5,-321.2 655.5,-321.2"/>
<image xlink:href="../../images/foreignKeys.png" width="11px" height="12px" preserveAspectRatio="xMinYMin meet" x="660.5" y="-338.2"/>
<text text-anchor="start" x="683.5" y="-328.3" font-family="Helvetica,sans-Serif" font-size="11.00" fill="#000000">id_encontro</text>
<polygon fill="none" stroke="#000000" points="655.5,-299.2 655.5,-321.2 760.5,-321.2 760.5,-299.2 655.5,-299.2"/>
<image xlink:href="../../images/foreignKeys.png" width="11px" height="12px" preserveAspectRatio="xMinYMin meet" x="660.5" y="-316.2"/>
<text text-anchor="start" x="683.5" y="-306.3" font-family="Helvetica,sans-Serif" font-size="11.00" fill="#000000">id_user</text>
<polygon fill="none" stroke="#000000" points="655.5,-277.2 655.5,-299.2 760.5,-299.2 760.5,-277.2 655.5,-277.2"/>
<text text-anchor="start" x="683.5" y="-284.3" font-family="Helvetica,sans-Serif" font-size="11.00" fill="#000000">data</text>
<polygon fill="none" stroke="#000000" points="655.5,-255.2 655.5,-277.2 760.5,-277.2 760.5,-255.2 655.5,-255.2"/>
<text text-anchor="start" x="683.5" y="-262.3" font-family="Helvetica,sans-Serif" font-size="11.00" fill="#000000">pdf_base64</text>
<polygon fill="none" stroke="#000000" points="655.5,-233.2 655.5,-255.2 760.5,-255.2 760.5,-233.2 655.5,-233.2"/>
<text text-anchor="start" x="683.5" y="-240.3" font-family="Helvetica,sans-Serif" font-size="11.00" fill="#000000">texto</text>
<polygon fill="#ffffff" stroke="transparent" points="655.5,-214.2 655.5,-233.2 706.5,-233.2 706.5,-214.2 655.5,-214.2"/>
<polygon fill="none" stroke="#000000" points="655.5,-214.2 655.5,-233.2 706.5,-233.2 706.5,-214.2 655.5,-214.2"/>
<text text-anchor="start" x="658.5" y="-220.3" font-family="Helvetica,sans-Serif" font-size="11.00" fill="#000000">&lt; 2</text>
<polygon fill="#ffffff" stroke="transparent" points="706.5,-214.2 706.5,-233.2 733.5,-233.2 733.5,-214.2 706.5,-214.2"/>
<polygon fill="none" stroke="#000000" points="706.5,-214.2 706.5,-233.2 733.5,-233.2 733.5,-214.2 706.5,-214.2"/>
<text text-anchor="start" x="724.3862" y="-220.3" font-family="Helvetica,sans-Serif" font-size="11.00" fill="#000000"> &#160;</text>
<polygon fill="#ffffff" stroke="transparent" points="733.5,-214.2 733.5,-233.2 760.5,-233.2 760.5,-214.2 733.5,-214.2"/>
<polygon fill="none" stroke="#000000" points="733.5,-214.2 733.5,-233.2 760.5,-233.2 760.5,-214.2 733.5,-214.2"/>
<text text-anchor="start" x="751.3862" y="-220.3" font-family="Helvetica,sans-Serif" font-size="11.00" fill="#000000"> &#160;</text>
</a>
</g>
</g>
<!-- usuarios -->
<g id="node7" class="node">
<title>usuarios</title>
<g id="a_node7"><a xlink:href="../../tables/usuarios.html" xlink:title="usuarios" target="_top">
<polygon fill="#ffffff" stroke="transparent" points="144,-38.2 144,-344.2 271,-344.2 271,-38.2 144,-38.2"/>
<polygon fill="#f5f5f5" stroke="transparent" points="144.5,-321.2 144.5,-344.2 271.5,-344.2 271.5,-321.2 144.5,-321.2"/>
<polygon fill="none" stroke="#000000" points="144.5,-321.2 144.5,-344.2 271.5,-344.2 271.5,-321.2 144.5,-321.2"/>
<text text-anchor="start" x="149.5" y="-329.8" font-family="Helvetica,sans-Serif" font-weight="bold" font-size="11.00" fill="#000000">usuarios</text>
<text text-anchor="start" x="236.5437" y="-329.3" font-family="Helvetica,sans-Serif" font-size="11.00" fill="#000000">[table]</text>
<polygon fill="none" stroke="#000000" points="144.5,-299.2 144.5,-321.2 271.5,-321.2 271.5,-299.2 144.5,-299.2"/>
<image xlink:href="../../images/primaryKeys.png" width="11px" height="12px" preserveAspectRatio="xMinYMin meet" x="149.5" y="-316.2"/>
<text text-anchor="start" x="164.5" y="-306.3" font-family="Helvetica,sans-Serif" font-size="11.00" fill="#000000">id</text>
<polygon fill="none" stroke="#000000" points="144.5,-277.2 144.5,-299.2 271.5,-299.2 271.5,-277.2 144.5,-277.2"/>
<image xlink:href="../../images/foreignKeys.png" width="11px" height="12px" preserveAspectRatio="xMinYMin meet" x="149.5" y="-294.2"/>
<text text-anchor="start" x="164.5" y="-284.3" font-family="Helvetica,sans-Serif" font-size="11.00" fill="#000000">id_curso</text>
<polygon fill="none" stroke="#000000" points="144.5,-255.2 144.5,-277.2 271.5,-277.2 271.5,-255.2 144.5,-255.2"/>
<text text-anchor="start" x="164.5" y="-262.3" font-family="Helvetica,sans-Serif" font-size="11.00" fill="#000000">data_nasc</text>
<polygon fill="none" stroke="#000000" points="144.5,-233.2 144.5,-255.2 271.5,-255.2 271.5,-233.2 144.5,-233.2"/>
<text text-anchor="start" x="164.5" y="-240.3" font-family="Helvetica,sans-Serif" font-size="11.00" fill="#000000">dtype</text>
<polygon fill="#ffffff" stroke="transparent" points="144.5,-211.2 144.5,-233.2 271.5,-233.2 271.5,-211.2 144.5,-211.2"/>
<polygon fill="none" stroke="#000000" points="144.5,-211.2 144.5,-233.2 271.5,-233.2 271.5,-211.2 144.5,-211.2"/>
<text text-anchor="start" x="164.5" y="-218.3" font-family="Helvetica,sans-Serif" font-size="11.00" fill="#000000">nome</text>
<polygon fill="#ffffff" stroke="transparent" points="144.5,-189.2 144.5,-211.2 271.5,-211.2 271.5,-189.2 144.5,-189.2"/>
<polygon fill="none" stroke="#000000" points="144.5,-189.2 144.5,-211.2 271.5,-211.2 271.5,-189.2 144.5,-189.2"/>
<text text-anchor="start" x="164.5" y="-196.3" font-family="Helvetica,sans-Serif" font-size="11.00" fill="#000000">email</text>
<polygon fill="#ffffff" stroke="transparent" points="144.5,-167.2 144.5,-189.2 271.5,-189.2 271.5,-167.2 144.5,-167.2"/>
<polygon fill="none" stroke="#000000" points="144.5,-167.2 144.5,-189.2 271.5,-189.2 271.5,-167.2 144.5,-167.2"/>
<text text-anchor="start" x="164.5" y="-174.3" font-family="Helvetica,sans-Serif" font-size="11.00" fill="#000000">matricula</text>
<polygon fill="none" stroke="#000000" points="144.5,-145.2 144.5,-167.2 271.5,-167.2 271.5,-145.2 144.5,-145.2"/>
<text text-anchor="start" x="164.5" y="-152.3" font-family="Helvetica,sans-Serif" font-size="11.00" fill="#000000">password</text>
<polygon fill="none" stroke="#000000" points="144.5,-123.2 144.5,-145.2 271.5,-145.2 271.5,-123.2 144.5,-123.2"/>
<text text-anchor="start" x="164.5" y="-130.3" font-family="Helvetica,sans-Serif" font-size="11.00" fill="#000000">role</text>
<polygon fill="#ffffff" stroke="transparent" points="144.5,-101.2 144.5,-123.2 271.5,-123.2 271.5,-101.2 144.5,-101.2"/>
<polygon fill="none" stroke="#000000" points="144.5,-101.2 144.5,-123.2 271.5,-123.2 271.5,-101.2 144.5,-101.2"/>
<text text-anchor="start" x="164.5" y="-108.3" font-family="Helvetica,sans-Serif" font-size="11.00" fill="#000000">siape</text>
<polygon fill="none" stroke="#000000" points="144.5,-79.2 144.5,-101.2 271.5,-101.2 271.5,-79.2 144.5,-79.2"/>
<text text-anchor="start" x="164.5" y="-86.3" font-family="Helvetica,sans-Serif" font-size="11.00" fill="#000000">situacao</text>
<polygon fill="none" stroke="#000000" points="144.5,-57.2 144.5,-79.2 271.5,-79.2 271.5,-57.2 144.5,-57.2"/>
<text text-anchor="start" x="164.5" y="-64.3" font-family="Helvetica,sans-Serif" font-size="11.00" fill="#000000">foto_perfil_base64</text>
<polygon fill="#ffffff" stroke="transparent" points="144.5,-38.2 144.5,-57.2 201.5,-57.2 201.5,-38.2 144.5,-38.2"/>
<polygon fill="none" stroke="#000000" points="144.5,-38.2 144.5,-57.2 201.5,-57.2 201.5,-38.2 144.5,-38.2"/>
<text text-anchor="start" x="147.5" y="-44.3" font-family="Helvetica,sans-Serif" font-size="11.00" fill="#000000">&lt; 1</text>
<polygon fill="#ffffff" stroke="transparent" points="201.5,-38.2 201.5,-57.2 231.5,-57.2 231.5,-38.2 201.5,-38.2"/>
<polygon fill="none" stroke="#000000" points="201.5,-38.2 201.5,-57.2 231.5,-57.2 231.5,-38.2 201.5,-38.2"/>
<text text-anchor="start" x="222.3862" y="-44.3" font-family="Helvetica,sans-Serif" font-size="11.00" fill="#000000"> &#160;</text>
<polygon fill="#ffffff" stroke="transparent" points="231.5,-38.2 231.5,-57.2 271.5,-57.2 271.5,-38.2 231.5,-38.2"/>
<polygon fill="none" stroke="#000000" points="231.5,-38.2 231.5,-57.2 271.5,-57.2 271.5,-38.2 231.5,-38.2"/>
<text text-anchor="start" x="252.9053" y="-44.3" font-family="Helvetica,sans-Serif" font-size="11.00" fill="#000000">6 &gt;</text>
</a>
</g>
</g>
<!-- mensagens&#45;&gt;usuarios -->
<g id="edge8" class="edge">
<title>mensagens:w&#45;&gt;usuarios:e</title>
<path fill="none" stroke="#000000" d="M641.1846,-307.9227C604.1207,-293.6279 648.7995,-215.7687 605,-181.2 502.4373,-100.2525 415.5377,-77.5034 312,-157.2 256.2588,-200.106 341.842,-310.2 271.5,-310.2"/>
<polygon fill="#000000" stroke="#000000" points="647.5993,-308.9431 654.9344,-313.7553 651.5497,-309.5716 655.5,-310.2 655.5,-310.2 655.5,-310.2 651.5497,-309.5716 656.0656,-306.6447 647.5993,-308.9431 647.5993,-308.9431"/>
<ellipse fill="none" stroke="#000000" cx="644.4391" cy="-308.4404" rx="3.2" ry="3.2"/>
</g>
<!-- encontros -->
<g id="node8" class="node">
<title>encontros</title>
<g id="a_node8"><a xlink:href="../../tables/encontros.html" xlink:title="encontros" target="_top">
<polygon fill="#ffffff" stroke="transparent" points="487,-497.2 487,-649.2 584,-649.2 584,-497.2 487,-497.2"/>
<polygon fill="#f5f5f5" stroke="transparent" points="487.5,-626.2 487.5,-649.2 584.5,-649.2 584.5,-626.2 487.5,-626.2"/>
<polygon fill="none" stroke="#000000" points="487.5,-626.2 487.5,-649.2 584.5,-649.2 584.5,-626.2 487.5,-626.2"/>
<text text-anchor="start" x="492.5" y="-634.8" font-family="Helvetica,sans-Serif" font-weight="bold" font-size="11.00" fill="#000000">encontros</text>
<text text-anchor="start" x="550.0219" y="-634.3" font-family="Helvetica,sans-Serif" font-size="11.00" fill="#000000">[table]</text>
<polygon fill="none" stroke="#000000" points="487.5,-604.2 487.5,-626.2 584.5,-626.2 584.5,-604.2 487.5,-604.2"/>
<image xlink:href="../../images/primaryKeys.png" width="11px" height="12px" preserveAspectRatio="xMinYMin meet" x="492.5" y="-621.2"/>
<text text-anchor="start" x="516.5" y="-611.3" font-family="Helvetica,sans-Serif" font-size="11.00" fill="#000000">id</text>
<polygon fill="none" stroke="#000000" points="487.5,-582.2 487.5,-604.2 584.5,-604.2 584.5,-582.2 487.5,-582.2"/>
<image xlink:href="../../images/foreignKeys.png" width="11px" height="12px" preserveAspectRatio="xMinYMin meet" x="492.5" y="-599.2"/>
<text text-anchor="start" x="516.5" y="-589.3" font-family="Helvetica,sans-Serif" font-size="11.00" fill="#000000">id_grupo</text>
<polygon fill="none" stroke="#000000" points="487.5,-560.2 487.5,-582.2 584.5,-582.2 584.5,-560.2 487.5,-560.2"/>
<image xlink:href="../../images/foreignKeys.png" width="11px" height="12px" preserveAspectRatio="xMinYMin meet" x="492.5" y="-577.2"/>
<text text-anchor="start" x="516.5" y="-567.3" font-family="Helvetica,sans-Serif" font-size="11.00" fill="#000000">id_turma</text>
<polygon fill="none" stroke="#000000" points="487.5,-538.2 487.5,-560.2 584.5,-560.2 584.5,-538.2 487.5,-538.2"/>
<text text-anchor="start" x="516.5" y="-545.3" font-family="Helvetica,sans-Serif" font-size="11.00" fill="#000000">tema</text>
<polygon fill="none" stroke="#000000" points="487.5,-516.2 487.5,-538.2 584.5,-538.2 584.5,-516.2 487.5,-516.2"/>
<text text-anchor="start" x="516.5" y="-523.3" font-family="Helvetica,sans-Serif" font-size="11.00" fill="#000000">descricao</text>
<polygon fill="#ffffff" stroke="transparent" points="487.5,-497.2 487.5,-516.2 529.5,-516.2 529.5,-497.2 487.5,-497.2"/>
<polygon fill="none" stroke="#000000" points="487.5,-497.2 487.5,-516.2 529.5,-516.2 529.5,-497.2 487.5,-497.2"/>
<text text-anchor="start" x="490.5" y="-503.3" font-family="Helvetica,sans-Serif" font-size="11.00" fill="#000000">&lt; 2</text>
<polygon fill="#ffffff" stroke="transparent" points="529.5,-497.2 529.5,-516.2 552.5,-516.2 552.5,-497.2 529.5,-497.2"/>
<polygon fill="none" stroke="#000000" points="529.5,-497.2 529.5,-516.2 552.5,-516.2 552.5,-497.2 529.5,-497.2"/>
<text text-anchor="start" x="543.3862" y="-503.3" font-family="Helvetica,sans-Serif" font-size="11.00" fill="#000000"> &#160;</text>
<polygon fill="#ffffff" stroke="transparent" points="552.5,-497.2 552.5,-516.2 584.5,-516.2 584.5,-497.2 552.5,-497.2"/>
<polygon fill="none" stroke="#000000" points="552.5,-497.2 552.5,-516.2 584.5,-516.2 584.5,-497.2 552.5,-497.2"/>
<text text-anchor="start" x="565.9053" y="-503.3" font-family="Helvetica,sans-Serif" font-size="11.00" fill="#000000">2 &gt;</text>
</a>
</g>
</g>
<!-- mensagens&#45;&gt;encontros -->
<g id="edge7" class="edge">
<title>mensagens:w&#45;&gt;encontros:e</title>
<path fill="none" stroke="#000000" d="M641.1049,-333.5892C540.7399,-354.9388 708.857,-615.2 584.5,-615.2"/>
<polygon fill="#000000" stroke="#000000" points="647.537,-332.9685 655.8458,-335.7834 651.5185,-332.5843 655.5,-332.2 655.5,-332.2 655.5,-332.2 651.5185,-332.5843 655.1542,-328.6166 647.537,-332.9685 647.537,-332.9685"/>
<ellipse fill="none" stroke="#000000" cx="644.3518" cy="-333.2759" rx="3.2" ry="3.2"/>
</g>
<!-- usuario_turma -->
<g id="node3" class="node">
<title>usuario_turma</title>
<g id="a_node3"><a xlink:href="../../tables/usuario_turma.html" xlink:title="usuario_turma" target="_top">
<polygon fill="#ffffff" stroke="transparent" points="474.5,-191.2 474.5,-277.2 596.5,-277.2 596.5,-191.2 474.5,-191.2"/>
<polygon fill="#f5f5f5" stroke="transparent" points="474.5,-254.2 474.5,-277.2 596.5,-277.2 596.5,-254.2 474.5,-254.2"/>
<polygon fill="none" stroke="#000000" points="474.5,-254.2 474.5,-277.2 596.5,-277.2 596.5,-254.2 474.5,-254.2"/>
<text text-anchor="start" x="479.5" y="-262.8" font-family="Helvetica,sans-Serif" font-weight="bold" font-size="11.00" fill="#000000">usuario_turma</text>
<text text-anchor="start" x="562.0219" y="-262.3" font-family="Helvetica,sans-Serif" font-size="11.00" fill="#000000">[table]</text>
<polygon fill="none" stroke="#000000" points="474.5,-232.2 474.5,-254.2 596.5,-254.2 596.5,-232.2 474.5,-232.2"/>
<image xlink:href="../../images/foreignKeys.png" width="11px" height="12px" preserveAspectRatio="xMinYMin meet" x="479.5" y="-249.2"/>
<text text-anchor="start" x="503.5" y="-239.3" font-family="Helvetica,sans-Serif" font-size="11.00" fill="#000000">id_turma</text>
<polygon fill="none" stroke="#000000" points="474.5,-210.2 474.5,-232.2 596.5,-232.2 596.5,-210.2 474.5,-210.2"/>
<image xlink:href="../../images/foreignKeys.png" width="11px" height="12px" preserveAspectRatio="xMinYMin meet" x="479.5" y="-227.2"/>
<text text-anchor="start" x="503.5" y="-217.3" font-family="Helvetica,sans-Serif" font-size="11.00" fill="#000000">id_usuario</text>
<polygon fill="#ffffff" stroke="transparent" points="474.5,-191.2 474.5,-210.2 533.5,-210.2 533.5,-191.2 474.5,-191.2"/>
<polygon fill="none" stroke="#000000" points="474.5,-191.2 474.5,-210.2 533.5,-210.2 533.5,-191.2 474.5,-191.2"/>
<text text-anchor="start" x="477.5" y="-197.3" font-family="Helvetica,sans-Serif" font-size="11.00" fill="#000000">&lt; 2</text>
<polygon fill="#ffffff" stroke="transparent" points="533.5,-191.2 533.5,-210.2 564.5,-210.2 564.5,-191.2 533.5,-191.2"/>
<polygon fill="none" stroke="#000000" points="533.5,-191.2 533.5,-210.2 564.5,-210.2 564.5,-191.2 533.5,-191.2"/>
<text text-anchor="start" x="555.3862" y="-197.3" font-family="Helvetica,sans-Serif" font-size="11.00" fill="#000000"> &#160;</text>
<polygon fill="#ffffff" stroke="transparent" points="564.5,-191.2 564.5,-210.2 596.5,-210.2 596.5,-191.2 564.5,-191.2"/>
<polygon fill="none" stroke="#000000" points="564.5,-191.2 564.5,-210.2 596.5,-210.2 596.5,-191.2 564.5,-191.2"/>
<text text-anchor="start" x="587.3862" y="-197.3" font-family="Helvetica,sans-Serif" font-size="11.00" fill="#000000"> &#160;</text>
</a>
</g>
</g>
<!-- turmas -->
<g id="node4" class="node">
<title>turmas</title>
<g id="a_node4"><a xlink:href="../../tables/turmas.html" xlink:title="turmas" target="_top">
<polygon fill="#ffffff" stroke="transparent" points="333,-409.2 333,-605.2 412,-605.2 412,-409.2 333,-409.2"/>
<polygon fill="#f5f5f5" stroke="transparent" points="333.5,-582.2 333.5,-605.2 412.5,-605.2 412.5,-582.2 333.5,-582.2"/>
<polygon fill="none" stroke="#000000" points="333.5,-582.2 333.5,-605.2 412.5,-605.2 412.5,-582.2 333.5,-582.2"/>
<text text-anchor="start" x="338.5" y="-590.8" font-family="Helvetica,sans-Serif" font-weight="bold" font-size="11.00" fill="#000000">turmas</text>
<text text-anchor="start" x="378.0219" y="-590.3" font-family="Helvetica,sans-Serif" font-size="11.00" fill="#000000">[table]</text>
<polygon fill="none" stroke="#000000" points="333.5,-560.2 333.5,-582.2 412.5,-582.2 412.5,-560.2 333.5,-560.2"/>
<image xlink:href="../../images/primaryKeys.png" width="11px" height="12px" preserveAspectRatio="xMinYMin meet" x="338.5" y="-577.2"/>
<text text-anchor="start" x="354.5" y="-567.3" font-family="Helvetica,sans-Serif" font-size="11.00" fill="#000000">id</text>
<polygon fill="none" stroke="#000000" points="333.5,-538.2 333.5,-560.2 412.5,-560.2 412.5,-538.2 333.5,-538.2"/>
<image xlink:href="../../images/foreignKeys.png" width="11px" height="12px" preserveAspectRatio="xMinYMin meet" x="338.5" y="-555.2"/>
<text text-anchor="start" x="354.5" y="-545.3" font-family="Helvetica,sans-Serif" font-size="11.00" fill="#000000">id_curso</text>
<polygon fill="none" stroke="#000000" points="333.5,-516.2 333.5,-538.2 412.5,-538.2 412.5,-516.2 333.5,-516.2"/>
<image xlink:href="../../images/foreignKeys.png" width="11px" height="12px" preserveAspectRatio="xMinYMin meet" x="338.5" y="-533.2"/>
<text text-anchor="start" x="354.5" y="-523.3" font-family="Helvetica,sans-Serif" font-size="11.00" fill="#000000">id_user</text>
<polygon fill="none" stroke="#000000" points="333.5,-494.2 333.5,-516.2 412.5,-516.2 412.5,-494.2 333.5,-494.2"/>
<text text-anchor="start" x="354.5" y="-501.3" font-family="Helvetica,sans-Serif" font-size="11.00" fill="#000000">turno</text>
<polygon fill="none" stroke="#000000" points="333.5,-472.2 333.5,-494.2 412.5,-494.2 412.5,-472.2 333.5,-472.2"/>
<text text-anchor="start" x="354.5" y="-479.3" font-family="Helvetica,sans-Serif" font-size="11.00" fill="#000000">disciplina</text>
<polygon fill="#ffffff" stroke="transparent" points="333.5,-450.2 333.5,-472.2 412.5,-472.2 412.5,-450.2 333.5,-450.2"/>
<polygon fill="none" stroke="#000000" points="333.5,-450.2 333.5,-472.2 412.5,-472.2 412.5,-450.2 333.5,-450.2"/>
<text text-anchor="start" x="354.5" y="-457.3" font-family="Helvetica,sans-Serif" font-size="11.00" fill="#000000">nome</text>
<polygon fill="none" stroke="#000000" points="333.5,-428.2 333.5,-450.2 412.5,-450.2 412.5,-428.2 333.5,-428.2"/>
<text text-anchor="start" x="354.5" y="-435.3" font-family="Helvetica,sans-Serif" font-size="11.00" fill="#000000">descricao</text>
<polygon fill="#ffffff" stroke="transparent" points="333.5,-409.2 333.5,-428.2 366.5,-428.2 366.5,-409.2 333.5,-409.2"/>
<polygon fill="none" stroke="#000000" points="333.5,-409.2 333.5,-428.2 366.5,-428.2 366.5,-409.2 333.5,-409.2"/>
<text text-anchor="start" x="336.5" y="-415.3" font-family="Helvetica,sans-Serif" font-size="11.00" fill="#000000">&lt; 2</text>
<polygon fill="#ffffff" stroke="transparent" points="366.5,-409.2 366.5,-428.2 384.5,-428.2 384.5,-409.2 366.5,-409.2"/>
<polygon fill="none" stroke="#000000" points="366.5,-409.2 366.5,-428.2 384.5,-428.2 384.5,-409.2 366.5,-409.2"/>
<text text-anchor="start" x="375.3862" y="-415.3" font-family="Helvetica,sans-Serif" font-size="11.00" fill="#000000"> &#160;</text>
<polygon fill="#ffffff" stroke="transparent" points="384.5,-409.2 384.5,-428.2 412.5,-428.2 412.5,-409.2 384.5,-409.2"/>
<polygon fill="none" stroke="#000000" points="384.5,-409.2 384.5,-428.2 412.5,-428.2 412.5,-409.2 384.5,-409.2"/>
<text text-anchor="start" x="393.9053" y="-415.3" font-family="Helvetica,sans-Serif" font-size="11.00" fill="#000000">2 &gt;</text>
</a>
</g>
</g>
<!-- usuario_turma&#45;&gt;turmas -->
<g id="edge14" class="edge">
<title>usuario_turma:w&#45;&gt;turmas:e</title>
<path fill="none" stroke="#000000" d="M460.8121,-248.0912C411.9636,-288.8933 481.319,-571.2 412.5,-571.2"/>
<polygon fill="#000000" stroke="#000000" points="466.9665,-245.892 475.7114,-246.5901 470.7333,-244.546 474.5,-243.2 474.5,-243.2 474.5,-243.2 470.7333,-244.546 473.2886,-239.8099 466.9665,-245.892 466.9665,-245.892"/>
<ellipse fill="none" stroke="#000000" cx="463.9531" cy="-246.9688" rx="3.2" ry="3.2"/>
</g>
<!-- usuario_turma&#45;&gt;usuarios -->
<g id="edge15" class="edge">
<title>usuario_turma:w&#45;&gt;usuarios:e</title>
<path fill="none" stroke="#000000" d="M460.7564,-216.4637C450.7466,-207.3609 451.1754,-187.6641 433,-180.2 383.2537,-159.7708 355.3143,-148.3265 312,-180.2 263.258,-216.0676 332.0167,-310.2 271.5,-310.2"/>
<polygon fill="#000000" stroke="#000000" points="466.9365,-218.5935 473.3271,-224.6036 470.7183,-219.8967 474.5,-221.2 474.5,-221.2 474.5,-221.2 470.7183,-219.8967 475.6729,-217.7964 466.9365,-218.5935 466.9365,-218.5935"/>
<ellipse fill="none" stroke="#000000" cx="463.9111" cy="-217.5508" rx="3.2" ry="3.2"/>
</g>
<!-- turmas&#45;&gt;usuarios -->
<g id="edge11" class="edge">
<title>turmas:w&#45;&gt;usuarios:e</title>
<path fill="none" stroke="#000000" d="M319.1093,-525.324C247.6419,-504.1146 366.3184,-310.2 271.5,-310.2"/>
<polygon fill="#000000" stroke="#000000" points="325.5671,-526.1658 333.0346,-530.7698 329.5336,-526.6829 333.5,-527.2 333.5,-527.2 333.5,-527.2 329.5336,-526.6829 333.9654,-523.6302 325.5671,-526.1658 325.5671,-526.1658"/>
<ellipse fill="none" stroke="#000000" cx="322.394" cy="-525.7521" rx="3.2" ry="3.2"/>
</g>
<!-- cursos -->
<g id="node10" class="node">
<title>cursos</title>
<g id="a_node10"><a xlink:href="../../tables/cursos.html" xlink:title="cursos" target="_top">
<polygon fill="#ffffff" stroke="transparent" points="8,-431.2 8,-583.2 95,-583.2 95,-431.2 8,-431.2"/>
<polygon fill="#f5f5f5" stroke="transparent" points="8.5,-560.2 8.5,-583.2 95.5,-583.2 95.5,-560.2 8.5,-560.2"/>
<polygon fill="none" stroke="#000000" points="8.5,-560.2 8.5,-583.2 95.5,-583.2 95.5,-560.2 8.5,-560.2"/>
<text text-anchor="start" x="13.5" y="-568.8" font-family="Helvetica,sans-Serif" font-weight="bold" font-size="11.00" fill="#000000">cursos</text>
<text text-anchor="start" x="60.5437" y="-568.3" font-family="Helvetica,sans-Serif" font-size="11.00" fill="#000000">[table]</text>
<polygon fill="none" stroke="#000000" points="8.5,-538.2 8.5,-560.2 95.5,-560.2 95.5,-538.2 8.5,-538.2"/>
<image xlink:href="../../images/primaryKeys.png" width="11px" height="12px" preserveAspectRatio="xMinYMin meet" x="13.5" y="-555.2"/>
<text text-anchor="start" x="28.5" y="-545.3" font-family="Helvetica,sans-Serif" font-size="11.00" fill="#000000">id</text>
<polygon fill="none" stroke="#000000" points="8.5,-516.2 8.5,-538.2 95.5,-538.2 95.5,-516.2 8.5,-516.2"/>
<text text-anchor="start" x="28.5" y="-523.3" font-family="Helvetica,sans-Serif" font-size="11.00" fill="#000000">status</text>
<polygon fill="none" stroke="#000000" points="8.5,-494.2 8.5,-516.2 95.5,-516.2 95.5,-494.2 8.5,-494.2"/>
<text text-anchor="start" x="28.5" y="-501.3" font-family="Helvetica,sans-Serif" font-size="11.00" fill="#000000">descricao</text>
<polygon fill="none" stroke="#000000" points="8.5,-472.2 8.5,-494.2 95.5,-494.2 95.5,-472.2 8.5,-472.2"/>
<text text-anchor="start" x="28.5" y="-479.3" font-family="Helvetica,sans-Serif" font-size="11.00" fill="#000000">observacao</text>
<polygon fill="none" stroke="#000000" points="8.5,-450.2 8.5,-472.2 95.5,-472.2 95.5,-450.2 8.5,-450.2"/>
<text text-anchor="start" x="28.5" y="-457.3" font-family="Helvetica,sans-Serif" font-size="11.00" fill="#000000">turno</text>
<polygon fill="#ffffff" stroke="transparent" points="8.5,-431.2 8.5,-450.2 41.5,-450.2 41.5,-431.2 8.5,-431.2"/>
<polygon fill="none" stroke="#000000" points="8.5,-431.2 8.5,-450.2 41.5,-450.2 41.5,-431.2 8.5,-431.2"/>
<text text-anchor="start" x="11.5" y="-437.3" font-family="Helvetica,sans-Serif" font-size="11.00" fill="#000000"> &#160;</text>
<polygon fill="#ffffff" stroke="transparent" points="41.5,-431.2 41.5,-450.2 63.5,-450.2 63.5,-431.2 41.5,-431.2"/>
<polygon fill="none" stroke="#000000" points="41.5,-431.2 41.5,-450.2 63.5,-450.2 63.5,-431.2 41.5,-431.2"/>
<text text-anchor="start" x="54.3862" y="-437.3" font-family="Helvetica,sans-Serif" font-size="11.00" fill="#000000"> &#160;</text>
<polygon fill="#ffffff" stroke="transparent" points="63.5,-431.2 63.5,-450.2 95.5,-450.2 95.5,-431.2 63.5,-431.2"/>
<polygon fill="none" stroke="#000000" points="63.5,-431.2 63.5,-450.2 95.5,-450.2 95.5,-431.2 63.5,-431.2"/>
<text text-anchor="start" x="76.9053" y="-437.3" font-family="Helvetica,sans-Serif" font-size="11.00" fill="#000000">3 &gt;</text>
</a>
</g>
</g>
<!-- turmas&#45;&gt;cursos -->
<g id="edge10" class="edge">
<title>turmas:w&#45;&gt;cursos:e</title>
<path fill="none" stroke="#000000" d="M318.8427,-549.2C225.0098,-549.2 196.2161,-549.2 95.5,-549.2"/>
<polygon fill="#000000" stroke="#000000" points="325.5,-549.2001 333.5,-552.8 329.5,-549.2 333.5,-549.2 333.5,-549.2 333.5,-549.2 329.5,-549.2 333.5,-545.6 325.5,-549.2001 325.5,-549.2001"/>
<ellipse fill="none" stroke="#000000" cx="322.3" cy="-549.2001" rx="3.2" ry="3.2"/>
</g>
<!-- agendamentos -->
<g id="node5" class="node">
<title>agendamentos</title>
<g id="a_node5"><a xlink:href="../../tables/agendamentos.html" xlink:title="agendamentos" target="_top">
<polygon fill="#ffffff" stroke="transparent" points="646,-583.2 646,-735.2 769,-735.2 769,-583.2 646,-583.2"/>
<polygon fill="#f5f5f5" stroke="transparent" points="646.5,-712.2 646.5,-735.2 769.5,-735.2 769.5,-712.2 646.5,-712.2"/>
<polygon fill="none" stroke="#000000" points="646.5,-712.2 646.5,-735.2 769.5,-735.2 769.5,-712.2 646.5,-712.2"/>
<text text-anchor="start" x="651.5" y="-720.8" font-family="Helvetica,sans-Serif" font-weight="bold" font-size="11.00" fill="#000000">agendamentos</text>
<text text-anchor="start" x="735.0219" y="-720.3" font-family="Helvetica,sans-Serif" font-size="11.00" fill="#000000">[table]</text>
<polygon fill="none" stroke="#000000" points="646.5,-690.2 646.5,-712.2 769.5,-712.2 769.5,-690.2 646.5,-690.2"/>
<image xlink:href="../../images/foreignKeys.png" width="11px" height="12px" preserveAspectRatio="xMinYMin meet" x="651.5" y="-707.2"/>
<text text-anchor="start" x="675.5" y="-697.3" font-family="Helvetica,sans-Serif" font-size="11.00" fill="#000000">encontro_id</text>
<polygon fill="none" stroke="#000000" points="646.5,-668.2 646.5,-690.2 769.5,-690.2 769.5,-668.2 646.5,-668.2"/>
<image xlink:href="../../images/primaryKeys.png" width="11px" height="12px" preserveAspectRatio="xMinYMin meet" x="651.5" y="-685.2"/>
<text text-anchor="start" x="675.5" y="-675.3" font-family="Helvetica,sans-Serif" font-size="11.00" fill="#000000">id</text>
<polygon fill="none" stroke="#000000" points="646.5,-646.2 646.5,-668.2 769.5,-668.2 769.5,-646.2 646.5,-646.2"/>
<image xlink:href="../../images/foreignKeys.png" width="11px" height="12px" preserveAspectRatio="xMinYMin meet" x="651.5" y="-663.2"/>
<text text-anchor="start" x="675.5" y="-653.3" font-family="Helvetica,sans-Serif" font-size="11.00" fill="#000000">local_id</text>
<polygon fill="none" stroke="#000000" points="646.5,-624.2 646.5,-646.2 769.5,-646.2 769.5,-624.2 646.5,-624.2"/>
<text text-anchor="start" x="675.5" y="-631.3" font-family="Helvetica,sans-Serif" font-size="11.00" fill="#000000">end_time</text>
<polygon fill="none" stroke="#000000" points="646.5,-602.2 646.5,-624.2 769.5,-624.2 769.5,-602.2 646.5,-602.2"/>
<text text-anchor="start" x="675.5" y="-609.3" font-family="Helvetica,sans-Serif" font-size="11.00" fill="#000000">start_time</text>
<polygon fill="#ffffff" stroke="transparent" points="646.5,-583.2 646.5,-602.2 706.5,-602.2 706.5,-583.2 646.5,-583.2"/>
<polygon fill="none" stroke="#000000" points="646.5,-583.2 646.5,-602.2 706.5,-602.2 706.5,-583.2 646.5,-583.2"/>
<text text-anchor="start" x="649.5" y="-589.3" font-family="Helvetica,sans-Serif" font-size="11.00" fill="#000000">&lt; 2</text>
<polygon fill="#ffffff" stroke="transparent" points="706.5,-583.2 706.5,-602.2 737.5,-602.2 737.5,-583.2 706.5,-583.2"/>
<polygon fill="none" stroke="#000000" points="706.5,-583.2 706.5,-602.2 737.5,-602.2 737.5,-583.2 706.5,-583.2"/>
<text text-anchor="start" x="728.3862" y="-589.3" font-family="Helvetica,sans-Serif" font-size="11.00" fill="#000000"> &#160;</text>
<polygon fill="#ffffff" stroke="transparent" points="737.5,-583.2 737.5,-602.2 769.5,-602.2 769.5,-583.2 737.5,-583.2"/>
<polygon fill="none" stroke="#000000" points="737.5,-583.2 737.5,-602.2 769.5,-602.2 769.5,-583.2 737.5,-583.2"/>
<text text-anchor="start" x="760.3862" y="-589.3" font-family="Helvetica,sans-Serif" font-size="11.00" fill="#000000"> &#160;</text>
</a>
</g>
</g>
<!-- agendamentos&#45;&gt;locais -->
<g id="edge2" class="edge">
<title>agendamentos:w&#45;&gt;locais:e</title>
<path fill="none" stroke="#000000" d="M632.2557,-660.5043C603.4026,-676.3959 621.8253,-744.2 578.5,-744.2"/>
<polygon fill="#000000" stroke="#000000" points="638.7069,-659.0078 647.3135,-660.7069 642.6035,-658.1039 646.5,-657.2 646.5,-657.2 646.5,-657.2 642.6035,-658.1039 645.6865,-653.6931 638.7069,-659.0078 638.7069,-659.0078"/>
<ellipse fill="none" stroke="#000000" cx="635.5897" cy="-659.7309" rx="3.2" ry="3.2"/>
</g>
<!-- agendamentos&#45;&gt;encontros -->
<g id="edge1" class="edge">
<title>agendamentos:w&#45;&gt;encontros:e</title>
<path fill="none" stroke="#000000" d="M632.2401,-697.5047C606.2003,-681.0438 625.7296,-615.2 584.5,-615.2"/>
<polygon fill="#000000" stroke="#000000" points="638.7558,-699.1931 645.5969,-704.6849 642.6279,-700.1966 646.5,-701.2 646.5,-701.2 646.5,-701.2 642.6279,-700.1966 647.4031,-697.7151 638.7558,-699.1931 638.7558,-699.1931"/>
<ellipse fill="none" stroke="#000000" cx="635.6581" cy="-698.3904" rx="3.2" ry="3.2"/>
</g>
<!-- grupos -->
<g id="node6" class="node">
<title>grupos</title>
<g id="a_node6"><a xlink:href="../../tables/grupos.html" xlink:title="grupos" target="_top">
<polygon fill="#ffffff" stroke="transparent" points="320,-626.2 320,-800.2 425,-800.2 425,-626.2 320,-626.2"/>
<polygon fill="#f5f5f5" stroke="transparent" points="320.5,-777.2 320.5,-800.2 425.5,-800.2 425.5,-777.2 320.5,-777.2"/>
<polygon fill="none" stroke="#000000" points="320.5,-777.2 320.5,-800.2 425.5,-800.2 425.5,-777.2 320.5,-777.2"/>
<text text-anchor="start" x="325.5" y="-785.8" font-family="Helvetica,sans-Serif" font-weight="bold" font-size="11.00" fill="#000000">grupos</text>
<text text-anchor="start" x="390.5437" y="-785.3" font-family="Helvetica,sans-Serif" font-size="11.00" fill="#000000">[table]</text>
<polygon fill="none" stroke="#000000" points="320.5,-755.2 320.5,-777.2 425.5,-777.2 425.5,-755.2 320.5,-755.2"/>
<image xlink:href="../../images/primaryKeys.png" width="11px" height="12px" preserveAspectRatio="xMinYMin meet" x="325.5" y="-772.2"/>
<text text-anchor="start" x="340.5" y="-762.3" font-family="Helvetica,sans-Serif" font-size="11.00" fill="#000000">id</text>
<polygon fill="none" stroke="#000000" points="320.5,-733.2 320.5,-755.2 425.5,-755.2 425.5,-733.2 320.5,-733.2"/>
<image xlink:href="../../images/foreignKeys.png" width="11px" height="12px" preserveAspectRatio="xMinYMin meet" x="325.5" y="-750.2"/>
<text text-anchor="start" x="340.5" y="-740.3" font-family="Helvetica,sans-Serif" font-size="11.00" fill="#000000">id_curso</text>
<polygon fill="none" stroke="#000000" points="320.5,-711.2 320.5,-733.2 425.5,-733.2 425.5,-711.2 320.5,-711.2"/>
<image xlink:href="../../images/foreignKeys.png" width="11px" height="12px" preserveAspectRatio="xMinYMin meet" x="325.5" y="-728.2"/>
<text text-anchor="start" x="340.5" y="-718.3" font-family="Helvetica,sans-Serif" font-size="11.00" fill="#000000">id_user</text>
<polygon fill="none" stroke="#000000" points="320.5,-689.2 320.5,-711.2 425.5,-711.2 425.5,-689.2 320.5,-689.2"/>
<text text-anchor="start" x="340.5" y="-696.3" font-family="Helvetica,sans-Serif" font-size="11.00" fill="#000000">areade_estudo</text>
<polygon fill="#ffffff" stroke="transparent" points="320.5,-667.2 320.5,-689.2 425.5,-689.2 425.5,-667.2 320.5,-667.2"/>
<polygon fill="none" stroke="#000000" points="320.5,-667.2 320.5,-689.2 425.5,-689.2 425.5,-667.2 320.5,-667.2"/>
<text text-anchor="start" x="340.5" y="-674.3" font-family="Helvetica,sans-Serif" font-size="11.00" fill="#000000">nome</text>
<polygon fill="none" stroke="#000000" points="320.5,-645.2 320.5,-667.2 425.5,-667.2 425.5,-645.2 320.5,-645.2"/>
<text text-anchor="start" x="340.5" y="-652.3" font-family="Helvetica,sans-Serif" font-size="11.00" fill="#000000">descricao</text>
<polygon fill="#ffffff" stroke="transparent" points="320.5,-626.2 320.5,-645.2 366.5,-645.2 366.5,-626.2 320.5,-626.2"/>
<polygon fill="none" stroke="#000000" points="320.5,-626.2 320.5,-645.2 366.5,-645.2 366.5,-626.2 320.5,-626.2"/>
<text text-anchor="start" x="323.5" y="-632.3" font-family="Helvetica,sans-Serif" font-size="11.00" fill="#000000">&lt; 2</text>
<polygon fill="#ffffff" stroke="transparent" points="366.5,-626.2 366.5,-645.2 391.5,-645.2 391.5,-626.2 366.5,-626.2"/>
<polygon fill="none" stroke="#000000" points="366.5,-626.2 366.5,-645.2 391.5,-645.2 391.5,-626.2 366.5,-626.2"/>
<text text-anchor="start" x="382.3862" y="-632.3" font-family="Helvetica,sans-Serif" font-size="11.00" fill="#000000"> &#160;</text>
<polygon fill="#ffffff" stroke="transparent" points="391.5,-626.2 391.5,-645.2 425.5,-645.2 425.5,-626.2 391.5,-626.2"/>
<polygon fill="none" stroke="#000000" points="391.5,-626.2 391.5,-645.2 425.5,-645.2 425.5,-626.2 391.5,-626.2"/>
<text text-anchor="start" x="406.9053" y="-632.3" font-family="Helvetica,sans-Serif" font-size="11.00" fill="#000000">2 &gt;</text>
</a>
</g>
</g>
<!-- grupos&#45;&gt;usuarios -->
<g id="edge6" class="edge">
<title>grupos:w&#45;&gt;usuarios:e</title>
<path fill="none" stroke="#000000" d="M306.5455,-718.1223C243.3852,-675.3332 358.2984,-310.2 271.5,-310.2"/>
<polygon fill="#000000" stroke="#000000" points="312.8211,-719.9561 319.4902,-725.6555 316.6606,-721.078 320.5,-722.2 320.5,-722.2 320.5,-722.2 316.6606,-721.078 321.5098,-718.7445 312.8211,-719.9561 312.8211,-719.9561"/>
<ellipse fill="none" stroke="#000000" cx="309.7496" cy="-719.0585" rx="3.2" ry="3.2"/>
</g>
<!-- grupos&#45;&gt;cursos -->
<g id="edge5" class="edge">
<title>grupos:w&#45;&gt;cursos:e</title>
<path fill="none" stroke="#000000" d="M306.1687,-741.4434C241.4345,-717.7422 157.0126,-549.2 95.5,-549.2"/>
<polygon fill="#000000" stroke="#000000" points="312.644,-742.6889 319.82,-747.7352 316.572,-743.4444 320.5,-744.2 320.5,-744.2 320.5,-744.2 316.572,-743.4444 321.18,-740.6648 312.644,-742.6889 312.644,-742.6889"/>
<ellipse fill="none" stroke="#000000" cx="309.5016" cy="-742.0844" rx="3.2" ry="3.2"/>
</g>
<!-- usuarios&#45;&gt;cursos -->
<g id="edge16" class="edge">
<title>usuarios:w&#45;&gt;cursos:e</title>
<path fill="none" stroke="#000000" d="M130.1174,-289.799C43.0016,-311.6091 208.1093,-549.2 95.5,-549.2"/>
<polygon fill="#000000" stroke="#000000" points="136.549,-289.084 144.8978,-291.778 140.5245,-288.642 144.5,-288.2 144.5,-288.2 144.5,-288.2 140.5245,-288.642 144.1022,-284.622 136.549,-289.084 136.549,-289.084"/>
<ellipse fill="none" stroke="#000000" cx="133.3686" cy="-289.4377" rx="3.2" ry="3.2"/>
</g>
<!-- encontros&#45;&gt;turmas -->
<g id="edge4" class="edge">
<title>encontros:w&#45;&gt;turmas:e</title>
<path fill="none" stroke="#000000" d="M472.8917,-571.2C450.7594,-571.2 440.3646,-571.2 412.5,-571.2"/>
<polygon fill="#000000" stroke="#000000" points="479.5,-571.2001 487.5,-574.8 483.5,-571.2 487.5,-571.2 487.5,-571.2 487.5,-571.2 483.5,-571.2 487.5,-567.6 479.5,-571.2001 479.5,-571.2001"/>
<ellipse fill="none" stroke="#000000" cx="476.3" cy="-571.2001" rx="3.2" ry="3.2"/>
</g>
<!-- encontros&#45;&gt;grupos -->
<g id="edge3" class="edge">
<title>encontros:w&#45;&gt;grupos:e</title>
<path fill="none" stroke="#000000" d="M473.1987,-595.5148C418.8243,-616.0439 501.5941,-766.2 425.5,-766.2"/>
<polygon fill="#000000" stroke="#000000" points="479.6028,-594.4783 488.0752,-596.7538 483.5514,-593.8391 487.5,-593.2 487.5,-593.2 487.5,-593.2 483.5514,-593.8391 486.9248,-589.6462 479.6028,-594.4783 479.6028,-594.4783"/>
<ellipse fill="none" stroke="#000000" cx="476.4439" cy="-594.9896" rx="3.2" ry="3.2"/>
</g>
<!-- token -->
<g id="node9" class="node">
<title>token</title>
<g id="a_node9"><a xlink:href="../../tables/token.html" xlink:title="token" target="_top">
<polygon fill="#ffffff" stroke="transparent" points="330.5,-214.2 330.5,-388.2 414.5,-388.2 414.5,-214.2 330.5,-214.2"/>
<polygon fill="#f5f5f5" stroke="transparent" points="330.5,-365.2 330.5,-388.2 414.5,-388.2 414.5,-365.2 330.5,-365.2"/>
<polygon fill="none" stroke="#000000" points="330.5,-365.2 330.5,-388.2 414.5,-388.2 414.5,-365.2 330.5,-365.2"/>
<text text-anchor="start" x="335.5" y="-373.8" font-family="Helvetica,sans-Serif" font-weight="bold" font-size="11.00" fill="#000000">token</text>
<text text-anchor="start" x="379.5437" y="-373.3" font-family="Helvetica,sans-Serif" font-size="11.00" fill="#000000">[table]</text>
<polygon fill="none" stroke="#000000" points="330.5,-343.2 330.5,-365.2 414.5,-365.2 414.5,-343.2 330.5,-343.2"/>
<text text-anchor="start" x="350.5" y="-350.3" font-family="Helvetica,sans-Serif" font-size="11.00" fill="#000000">expired</text>
<polygon fill="none" stroke="#000000" points="330.5,-321.2 330.5,-343.2 414.5,-343.2 414.5,-321.2 330.5,-321.2"/>
<image xlink:href="../../images/primaryKeys.png" width="11px" height="12px" preserveAspectRatio="xMinYMin meet" x="335.5" y="-338.2"/>
<text text-anchor="start" x="350.5" y="-328.3" font-family="Helvetica,sans-Serif" font-size="11.00" fill="#000000">id</text>
<polygon fill="none" stroke="#000000" points="330.5,-299.2 330.5,-321.2 414.5,-321.2 414.5,-299.2 330.5,-299.2"/>
<image xlink:href="../../images/foreignKeys.png" width="11px" height="12px" preserveAspectRatio="xMinYMin meet" x="335.5" y="-316.2"/>
<text text-anchor="start" x="350.5" y="-306.3" font-family="Helvetica,sans-Serif" font-size="11.00" fill="#000000">id_usuario</text>
<polygon fill="none" stroke="#000000" points="330.5,-277.2 330.5,-299.2 414.5,-299.2 414.5,-277.2 330.5,-277.2"/>
<text text-anchor="start" x="350.5" y="-284.3" font-family="Helvetica,sans-Serif" font-size="11.00" fill="#000000">revoked</text>
<polygon fill="#ffffff" stroke="transparent" points="330.5,-255.2 330.5,-277.2 414.5,-277.2 414.5,-255.2 330.5,-255.2"/>
<polygon fill="none" stroke="#000000" points="330.5,-255.2 330.5,-277.2 414.5,-277.2 414.5,-255.2 330.5,-255.2"/>
<text text-anchor="start" x="350.5" y="-262.3" font-family="Helvetica,sans-Serif" font-size="11.00" fill="#000000">token</text>
<polygon fill="none" stroke="#000000" points="330.5,-233.2 330.5,-255.2 414.5,-255.2 414.5,-233.2 330.5,-233.2"/>
<text text-anchor="start" x="350.5" y="-240.3" font-family="Helvetica,sans-Serif" font-size="11.00" fill="#000000">token_type</text>
<polygon fill="#ffffff" stroke="transparent" points="330.5,-214.2 330.5,-233.2 370.5,-233.2 370.5,-214.2 330.5,-214.2"/>
<polygon fill="none" stroke="#000000" points="330.5,-214.2 330.5,-233.2 370.5,-233.2 370.5,-214.2 330.5,-214.2"/>
<text text-anchor="start" x="333.5" y="-220.3" font-family="Helvetica,sans-Serif" font-size="11.00" fill="#000000">&lt; 1</text>
<polygon fill="#ffffff" stroke="transparent" points="370.5,-214.2 370.5,-233.2 392.5,-233.2 392.5,-214.2 370.5,-214.2"/>
<polygon fill="none" stroke="#000000" points="370.5,-214.2 370.5,-233.2 392.5,-233.2 392.5,-214.2 370.5,-214.2"/>
<text text-anchor="start" x="383.3862" y="-220.3" font-family="Helvetica,sans-Serif" font-size="11.00" fill="#000000"> &#160;</text>
<polygon fill="#ffffff" stroke="transparent" points="392.5,-214.2 392.5,-233.2 414.5,-233.2 414.5,-214.2 392.5,-214.2"/>
<polygon fill="none" stroke="#000000" points="392.5,-214.2 392.5,-233.2 414.5,-233.2 414.5,-214.2 392.5,-214.2"/>
<text text-anchor="start" x="405.3862" y="-220.3" font-family="Helvetica,sans-Serif" font-size="11.00" fill="#000000"> &#160;</text>
</a>
</g>
</g>
<!-- token&#45;&gt;usuarios -->
<g id="edge9" class="edge">
<title>token:w&#45;&gt;usuarios:e</title>
<path fill="none" stroke="#000000" d="M315.7032,-310.2C300.4686,-310.2 291.9861,-310.2 271.5,-310.2"/>
<polygon fill="#000000" stroke="#000000" points="322.5,-310.2001 330.5,-313.8 326.5,-310.2 330.5,-310.2 330.5,-310.2 330.5,-310.2 326.5,-310.2 330.5,-306.6 322.5,-310.2001 322.5,-310.2001"/>
<ellipse fill="none" stroke="#000000" cx="319.3" cy="-310.2001" rx="3.2" ry="3.2"/>
</g>
<!-- usuario_grupo -->
<g id="node11" class="node">
<title>usuario_grupo</title>
<g id="a_node11"><a xlink:href="../../tables/usuario_grupo.html" xlink:title="usuario_grupo" target="_top">
<polygon fill="#ffffff" stroke="transparent" points="474,-359.2 474,-445.2 597,-445.2 597,-359.2 474,-359.2"/>
<polygon fill="#f5f5f5" stroke="transparent" points="474.5,-422.2 474.5,-445.2 597.5,-445.2 597.5,-422.2 474.5,-422.2"/>
<polygon fill="none" stroke="#000000" points="474.5,-422.2 474.5,-445.2 597.5,-445.2 597.5,-422.2 474.5,-422.2"/>
<text text-anchor="start" x="479.5" y="-430.8" font-family="Helvetica,sans-Serif" font-weight="bold" font-size="11.00" fill="#000000">usuario_grupo</text>
<text text-anchor="start" x="563.0219" y="-430.3" font-family="Helvetica,sans-Serif" font-size="11.00" fill="#000000">[table]</text>
<polygon fill="none" stroke="#000000" points="474.5,-400.2 474.5,-422.2 597.5,-422.2 597.5,-400.2 474.5,-400.2"/>
<image xlink:href="../../images/foreignKeys.png" width="11px" height="12px" preserveAspectRatio="xMinYMin meet" x="479.5" y="-417.2"/>
<text text-anchor="start" x="503.5" y="-407.3" font-family="Helvetica,sans-Serif" font-size="11.00" fill="#000000">id_grupo</text>
<polygon fill="none" stroke="#000000" points="474.5,-378.2 474.5,-400.2 597.5,-400.2 597.5,-378.2 474.5,-378.2"/>
<image xlink:href="../../images/foreignKeys.png" width="11px" height="12px" preserveAspectRatio="xMinYMin meet" x="479.5" y="-395.2"/>
<text text-anchor="start" x="503.5" y="-385.3" font-family="Helvetica,sans-Serif" font-size="11.00" fill="#000000">id_usuario</text>
<polygon fill="#ffffff" stroke="transparent" points="474.5,-359.2 474.5,-378.2 534.5,-378.2 534.5,-359.2 474.5,-359.2"/>
<polygon fill="none" stroke="#000000" points="474.5,-359.2 474.5,-378.2 534.5,-378.2 534.5,-359.2 474.5,-359.2"/>
<text text-anchor="start" x="477.5" y="-365.3" font-family="Helvetica,sans-Serif" font-size="11.00" fill="#000000">&lt; 2</text>
<polygon fill="#ffffff" stroke="transparent" points="534.5,-359.2 534.5,-378.2 565.5,-378.2 565.5,-359.2 534.5,-359.2"/>
<polygon fill="none" stroke="#000000" points="534.5,-359.2 534.5,-378.2 565.5,-378.2 565.5,-359.2 534.5,-359.2"/>
<text text-anchor="start" x="556.3862" y="-365.3" font-family="Helvetica,sans-Serif" font-size="11.00" fill="#000000"> &#160;</text>
<polygon fill="#ffffff" stroke="transparent" points="565.5,-359.2 565.5,-378.2 597.5,-378.2 597.5,-359.2 565.5,-359.2"/>
<polygon fill="none" stroke="#000000" points="565.5,-359.2 565.5,-378.2 597.5,-378.2 597.5,-359.2 565.5,-359.2"/>
<text text-anchor="start" x="588.3862" y="-365.3" font-family="Helvetica,sans-Serif" font-size="11.00" fill="#000000"> &#160;</text>
</a>
</g>
</g>
<!-- usuario_grupo&#45;&gt;grupos -->
<g id="edge12" class="edge">
<title>usuario_grupo:w&#45;&gt;grupos:e</title>
<path fill="none" stroke="#000000" d="M460.7093,-415.9499C409.0522,-458.0762 499.6929,-766.2 425.5,-766.2"/>
<polygon fill="#000000" stroke="#000000" points="466.9361,-413.8053 475.6724,-414.6038 470.718,-412.5026 474.5,-411.2 474.5,-411.2 474.5,-411.2 470.718,-412.5026 473.3276,-407.7962 466.9361,-413.8053 466.9361,-413.8053"/>
<ellipse fill="none" stroke="#000000" cx="463.9105" cy="-414.8474" rx="3.2" ry="3.2"/>
</g>
<!-- usuario_grupo&#45;&gt;usuarios -->
<g id="edge13" class="edge">
<title>usuario_grupo:w&#45;&gt;usuarios:e</title>
<path fill="none" stroke="#000000" d="M460.156,-387.5113C403.8823,-371.9751 494.415,-253.3644 433,-204.2 391.0174,-170.5918 356.2959,-173.7054 312,-204.2 270.4594,-232.7978 321.9327,-310.2 271.5,-310.2"/>
<polygon fill="#000000" stroke="#000000" points="466.5549,-388.2646 474.0791,-392.7753 470.5274,-388.7323 474.5,-389.2 474.5,-389.2 474.5,-389.2 470.5274,-388.7323 474.9209,-385.6247 466.5549,-388.2646 466.5549,-388.2646"/>
<ellipse fill="none" stroke="#000000" cx="463.3768" cy="-387.8904" rx="3.2" ry="3.2"/>
</g>
</g>
</svg>
