<?xml version="1.0" encoding="UTF-8" standalone="no"?>
<!DOCTYPE svg PUBLIC "-//W3C//DTD SVG 1.1//EN"
 "http://www.w3.org/Graphics/SVG/1.1/DTD/svg11.dtd">
<!-- Generated by graphviz version 2.40.1 (20161225.0304)
 -->
<!-- Title: compactRelationshipsDiagram Pages: 1 -->
<svg width="785pt" height="622pt"
 viewBox="0.00 0.00 785.00 622.12" xmlns="http://www.w3.org/2000/svg" xmlns:xlink="http://www.w3.org/1999/xlink">
<g id="graph0" class="graph" transform="scale(1 1) rotate(0) translate(4 618.1222)">
<title>compactRelationshipsDiagram</title>
<polygon fill="#ffffff" stroke="transparent" points="-4,4 -4,-618.1222 781,-618.1222 781,4 -4,4"/>
<text text-anchor="middle" x="72.4936" y="-7.3" font-family="Helvetica,sans-Serif" font-size="11.00" fill="#000000">Generated by SchemaSpy</text>
<!-- locais -->
<g id="node1" class="node">
<title>locais</title>
<g id="a_node1"><a xlink:href="../../tables/locais.html" xlink:title="locais" target="_top">
<polygon fill="#ffffff" stroke="transparent" points="493,-505.1222 493,-610.1222 578,-610.1222 578,-505.1222 493,-505.1222"/>
<polygon fill="#f5f5f5" stroke="transparent" points="493.5,-586.6222 493.5,-609.6222 578.5,-609.6222 578.5,-586.6222 493.5,-586.6222"/>
<polygon fill="none" stroke="#000000" points="493.5,-586.6222 493.5,-609.6222 578.5,-609.6222 578.5,-586.6222 493.5,-586.6222"/>
<text text-anchor="start" x="498.5" y="-595.2222" font-family="Helvetica,sans-Serif" font-weight="bold" font-size="11.00" fill="#000000">locais</text>
<text text-anchor="start" x="543.5437" y="-594.7222" font-family="Helvetica,sans-Serif" font-size="11.00" fill="#000000">[table]</text>
<polygon fill="none" stroke="#000000" points="493.5,-564.6222 493.5,-586.6222 578.5,-586.6222 578.5,-564.6222 493.5,-564.6222"/>
<image xlink:href="../../images/primaryKeys.png" width="11px" height="12px" preserveAspectRatio="xMinYMin meet" x="498.5" y="-581.622"/>
<text text-anchor="start" x="513.5" y="-571.7222" font-family="Helvetica,sans-Serif" font-size="11.00" fill="#000000">id</text>
<polygon fill="#ffffff" stroke="transparent" points="493.5,-542.6222 493.5,-564.6222 578.5,-564.6222 578.5,-542.6222 493.5,-542.6222"/>
<polygon fill="none" stroke="#000000" points="493.5,-542.6222 493.5,-564.6222 578.5,-564.6222 578.5,-542.6222 493.5,-542.6222"/>
<text text-anchor="start" x="513.5" y="-549.7222" font-family="Helvetica,sans-Serif" font-size="11.00" fill="#000000">nome</text>
<polygon fill="none" stroke="#000000" points="493.5,-523.6222 493.5,-542.6222 578.5,-542.6222 578.5,-523.6222 493.5,-523.6222"/>
<text text-anchor="start" x="496.5" y="-529.7222" font-family="Helvetica,sans-Serif" font-size="11.00" fill="#000000">...</text>
<polygon fill="#ffffff" stroke="transparent" points="493.5,-504.6222 493.5,-523.6222 525.5,-523.6222 525.5,-504.6222 493.5,-504.6222"/>
<polygon fill="none" stroke="#000000" points="493.5,-504.6222 493.5,-523.6222 525.5,-523.6222 525.5,-504.6222 493.5,-504.6222"/>
<text text-anchor="start" x="496.5" y="-510.7222" font-family="Helvetica,sans-Serif" font-size="11.00" fill="#000000"> &#160;</text>
<polygon fill="#ffffff" stroke="transparent" points="525.5,-504.6222 525.5,-523.6222 547.5,-523.6222 547.5,-504.6222 525.5,-504.6222"/>
<polygon fill="none" stroke="#000000" points="525.5,-504.6222 525.5,-523.6222 547.5,-523.6222 547.5,-504.6222 525.5,-504.6222"/>
<text text-anchor="start" x="538.3862" y="-510.7222" font-family="Helvetica,sans-Serif" font-size="11.00" fill="#000000"> &#160;</text>
<polygon fill="#ffffff" stroke="transparent" points="547.5,-504.6222 547.5,-523.6222 578.5,-523.6222 578.5,-504.6222 547.5,-504.6222"/>
<polygon fill="none" stroke="#000000" points="547.5,-504.6222 547.5,-523.6222 578.5,-523.6222 578.5,-504.6222 547.5,-504.6222"/>
<text text-anchor="start" x="559.9053" y="-510.7222" font-family="Helvetica,sans-Serif" font-size="11.00" fill="#000000">1 &gt;</text>
</a>
</g>
</g>
<!-- mensagens -->
<g id="node2" class="node">
<title>mensagens</title>
<g id="a_node2"><a xlink:href="../../tables/mensagens.html" xlink:title="mensagens" target="_top">
<polygon fill="#ffffff" stroke="transparent" points="655,-155.1222 655,-282.1222 760,-282.1222 760,-155.1222 655,-155.1222"/>
<polygon fill="#f5f5f5" stroke="transparent" points="655.5,-258.6222 655.5,-281.6222 760.5,-281.6222 760.5,-258.6222 655.5,-258.6222"/>
<polygon fill="none" stroke="#000000" points="655.5,-258.6222 655.5,-281.6222 760.5,-281.6222 760.5,-258.6222 655.5,-258.6222"/>
<text text-anchor="start" x="660.5" y="-267.2222" font-family="Helvetica,sans-Serif" font-weight="bold" font-size="11.00" fill="#000000">mensagens</text>
<text text-anchor="start" x="726.0219" y="-266.7222" font-family="Helvetica,sans-Serif" font-size="11.00" fill="#000000">[table]</text>
<polygon fill="none" stroke="#000000" points="655.5,-236.6222 655.5,-258.6222 760.5,-258.6222 760.5,-236.6222 655.5,-236.6222"/>
<image xlink:href="../../images/primaryKeys.png" width="11px" height="12px" preserveAspectRatio="xMinYMin meet" x="660.5" y="-253.622"/>
<text text-anchor="start" x="683.5" y="-243.7222" font-family="Helvetica,sans-Serif" font-size="11.00" fill="#000000">id</text>
<polygon fill="none" stroke="#000000" points="655.5,-214.6222 655.5,-236.6222 760.5,-236.6222 760.5,-214.6222 655.5,-214.6222"/>
<image xlink:href="../../images/foreignKeys.png" width="11px" height="12px" preserveAspectRatio="xMinYMin meet" x="660.5" y="-231.622"/>
<text text-anchor="start" x="683.5" y="-221.7222" font-family="Helvetica,sans-Serif" font-size="11.00" fill="#000000">id_encontro</text>
<polygon fill="none" stroke="#000000" points="655.5,-192.6222 655.5,-214.6222 760.5,-214.6222 760.5,-192.6222 655.5,-192.6222"/>
<image xlink:href="../../images/foreignKeys.png" width="11px" height="12px" preserveAspectRatio="xMinYMin meet" x="660.5" y="-209.622"/>
<text text-anchor="start" x="683.5" y="-199.7222" font-family="Helvetica,sans-Serif" font-size="11.00" fill="#000000">id_user</text>
<polygon fill="none" stroke="#000000" points="655.5,-173.6222 655.5,-192.6222 760.5,-192.6222 760.5,-173.6222 655.5,-173.6222"/>
<text text-anchor="start" x="658.5" y="-179.7222" font-family="Helvetica,sans-Serif" font-size="11.00" fill="#000000">...</text>
<polygon fill="#ffffff" stroke="transparent" points="655.5,-154.6222 655.5,-173.6222 706.5,-173.6222 706.5,-154.6222 655.5,-154.6222"/>
<polygon fill="none" stroke="#000000" points="655.5,-154.6222 655.5,-173.6222 706.5,-173.6222 706.5,-154.6222 655.5,-154.6222"/>
<text text-anchor="start" x="658.5" y="-160.7222" font-family="Helvetica,sans-Serif" font-size="11.00" fill="#000000">&lt; 2</text>
<polygon fill="#ffffff" stroke="transparent" points="706.5,-154.6222 706.5,-173.6222 733.5,-173.6222 733.5,-154.6222 706.5,-154.6222"/>
<polygon fill="none" stroke="#000000" points="706.5,-154.6222 706.5,-173.6222 733.5,-173.6222 733.5,-154.6222 706.5,-154.6222"/>
<text text-anchor="start" x="724.3862" y="-160.7222" font-family="Helvetica,sans-Serif" font-size="11.00" fill="#000000"> &#160;</text>
<polygon fill="#ffffff" stroke="transparent" points="733.5,-154.6222 733.5,-173.6222 760.5,-173.6222 760.5,-154.6222 733.5,-154.6222"/>
<polygon fill="none" stroke="#000000" points="733.5,-154.6222 733.5,-173.6222 760.5,-173.6222 760.5,-154.6222 733.5,-154.6222"/>
<text text-anchor="start" x="751.3862" y="-160.7222" font-family="Helvetica,sans-Serif" font-size="11.00" fill="#000000"> &#160;</text>
</a>
</g>
</g>
<!-- usuarios -->
<g id="node7" class="node">
<title>usuarios</title>
<g id="a_node7"><a xlink:href="../../tables/usuarios.html" xlink:title="usuarios" target="_top">
<polygon fill="#ffffff" stroke="transparent" points="144,-55.1222 144,-248.1222 271,-248.1222 271,-55.1222 144,-55.1222"/>
<polygon fill="#f5f5f5" stroke="transparent" points="144.5,-224.6222 144.5,-247.6222 271.5,-247.6222 271.5,-224.6222 144.5,-224.6222"/>
<polygon fill="none" stroke="#000000" points="144.5,-224.6222 144.5,-247.6222 271.5,-247.6222 271.5,-224.6222 144.5,-224.6222"/>
<text text-anchor="start" x="149.5" y="-233.2222" font-family="Helvetica,sans-Serif" font-weight="bold" font-size="11.00" fill="#000000">usuarios</text>
<text text-anchor="start" x="236.5437" y="-232.7222" font-family="Helvetica,sans-Serif" font-size="11.00" fill="#000000">[table]</text>
<polygon fill="none" stroke="#000000" points="144.5,-202.6222 144.5,-224.6222 271.5,-224.6222 271.5,-202.6222 144.5,-202.6222"/>
<image xlink:href="../../images/primaryKeys.png" width="11px" height="12px" preserveAspectRatio="xMinYMin meet" x="149.5" y="-219.622"/>
<text text-anchor="start" x="164.5" y="-209.7222" font-family="Helvetica,sans-Serif" font-size="11.00" fill="#000000">id</text>
<polygon fill="none" stroke="#000000" points="144.5,-180.6222 144.5,-202.6222 271.5,-202.6222 271.5,-180.6222 144.5,-180.6222"/>
<image xlink:href="../../images/foreignKeys.png" width="11px" height="12px" preserveAspectRatio="xMinYMin meet" x="149.5" y="-197.622"/>
<text text-anchor="start" x="164.5" y="-187.7222" font-family="Helvetica,sans-Serif" font-size="11.00" fill="#000000">id_curso</text>
<polygon fill="#ffffff" stroke="transparent" points="144.5,-158.6222 144.5,-180.6222 271.5,-180.6222 271.5,-158.6222 144.5,-158.6222"/>
<polygon fill="none" stroke="#000000" points="144.5,-158.6222 144.5,-180.6222 271.5,-180.6222 271.5,-158.6222 144.5,-158.6222"/>
<text text-anchor="start" x="164.5" y="-165.7222" font-family="Helvetica,sans-Serif" font-size="11.00" fill="#000000">nome</text>
<polygon fill="#ffffff" stroke="transparent" points="144.5,-136.6222 144.5,-158.6222 271.5,-158.6222 271.5,-136.6222 144.5,-136.6222"/>
<polygon fill="none" stroke="#000000" points="144.5,-136.6222 144.5,-158.6222 271.5,-158.6222 271.5,-136.6222 144.5,-136.6222"/>
<text text-anchor="start" x="164.5" y="-143.7222" font-family="Helvetica,sans-Serif" font-size="11.00" fill="#000000">email</text>
<polygon fill="#ffffff" stroke="transparent" points="144.5,-114.6222 144.5,-136.6222 271.5,-136.6222 271.5,-114.6222 144.5,-114.6222"/>
<polygon fill="none" stroke="#000000" points="144.5,-114.6222 144.5,-136.6222 271.5,-136.6222 271.5,-114.6222 144.5,-114.6222"/>
<text text-anchor="start" x="164.5" y="-121.7222" font-family="Helvetica,sans-Serif" font-size="11.00" fill="#000000">matricula</text>
<polygon fill="#ffffff" stroke="transparent" points="144.5,-92.6222 144.5,-114.6222 271.5,-114.6222 271.5,-92.6222 144.5,-92.6222"/>
<polygon fill="none" stroke="#000000" points="144.5,-92.6222 144.5,-114.6222 271.5,-114.6222 271.5,-92.6222 144.5,-92.6222"/>
<text text-anchor="start" x="164.5" y="-99.7222" font-family="Helvetica,sans-Serif" font-size="11.00" fill="#000000">siape</text>
<polygon fill="none" stroke="#000000" points="144.5,-73.6222 144.5,-92.6222 271.5,-92.6222 271.5,-73.6222 144.5,-73.6222"/>
<text text-anchor="start" x="147.5" y="-79.7222" font-family="Helvetica,sans-Serif" font-size="11.00" fill="#000000">...</text>
<polygon fill="#ffffff" stroke="transparent" points="144.5,-54.6222 144.5,-73.6222 201.5,-73.6222 201.5,-54.6222 144.5,-54.6222"/>
<polygon fill="none" stroke="#000000" points="144.5,-54.6222 144.5,-73.6222 201.5,-73.6222 201.5,-54.6222 144.5,-54.6222"/>
<text text-anchor="start" x="147.5" y="-60.7222" font-family="Helvetica,sans-Serif" font-size="11.00" fill="#000000">&lt; 1</text>
<polygon fill="#ffffff" stroke="transparent" points="201.5,-54.6222 201.5,-73.6222 231.5,-73.6222 231.5,-54.6222 201.5,-54.6222"/>
<polygon fill="none" stroke="#000000" points="201.5,-54.6222 201.5,-73.6222 231.5,-73.6222 231.5,-54.6222 201.5,-54.6222"/>
<text text-anchor="start" x="222.3862" y="-60.7222" font-family="Helvetica,sans-Serif" font-size="11.00" fill="#000000"> &#160;</text>
<polygon fill="#ffffff" stroke="transparent" points="231.5,-54.6222 231.5,-73.6222 271.5,-73.6222 271.5,-54.6222 231.5,-54.6222"/>
<polygon fill="none" stroke="#000000" points="231.5,-54.6222 231.5,-73.6222 271.5,-73.6222 271.5,-54.6222 231.5,-54.6222"/>
<text text-anchor="start" x="252.9053" y="-60.7222" font-family="Helvetica,sans-Serif" font-size="11.00" fill="#000000">6 &gt;</text>
</a>
</g>
</g>
<!-- mensagens&#45;&gt;usuarios -->
<g id="edge8" class="edge">
<title>mensagens:w&#45;&gt;usuarios:e</title>
<path fill="none" stroke="#000000" d="M641.0655,-200.8556C610.6296,-186.3126 645.6165,-118.3677 605,-91.6222 496.2341,-20.001 417.3257,-12.0316 312,-88.6222 264.7687,-122.9678 329.8988,-213.6222 271.5,-213.6222"/>
<polygon fill="#000000" stroke="#000000" points="647.643,-202.1162 654.8223,-207.1578 651.5715,-202.8692 655.5,-203.6222 655.5,-203.6222 655.5,-203.6222 651.5715,-202.8692 656.1777,-200.0865 647.643,-202.1162 647.643,-202.1162"/>
<ellipse fill="none" stroke="#000000" cx="644.5002" cy="-201.5139" rx="3.2" ry="3.2"/>
</g>
<!-- encontros -->
<g id="node8" class="node">
<title>encontros</title>
<g id="a_node8"><a xlink:href="../../tables/encontros.html" xlink:title="encontros" target="_top">
<polygon fill="#ffffff" stroke="transparent" points="487,-357.1222 487,-484.1222 584,-484.1222 584,-357.1222 487,-357.1222"/>
<polygon fill="#f5f5f5" stroke="transparent" points="487.5,-460.6222 487.5,-483.6222 584.5,-483.6222 584.5,-460.6222 487.5,-460.6222"/>
<polygon fill="none" stroke="#000000" points="487.5,-460.6222 487.5,-483.6222 584.5,-483.6222 584.5,-460.6222 487.5,-460.6222"/>
<text text-anchor="start" x="492.5" y="-469.2222" font-family="Helvetica,sans-Serif" font-weight="bold" font-size="11.00" fill="#000000">encontros</text>
<text text-anchor="start" x="550.0219" y="-468.7222" font-family="Helvetica,sans-Serif" font-size="11.00" fill="#000000">[table]</text>
<polygon fill="none" stroke="#000000" points="487.5,-438.6222 487.5,-460.6222 584.5,-460.6222 584.5,-438.6222 487.5,-438.6222"/>
<image xlink:href="../../images/primaryKeys.png" width="11px" height="12px" preserveAspectRatio="xMinYMin meet" x="492.5" y="-455.622"/>
<text text-anchor="start" x="516.5" y="-445.7222" font-family="Helvetica,sans-Serif" font-size="11.00" fill="#000000">id</text>
<polygon fill="none" stroke="#000000" points="487.5,-416.6222 487.5,-438.6222 584.5,-438.6222 584.5,-416.6222 487.5,-416.6222"/>
<image xlink:href="../../images/foreignKeys.png" width="11px" height="12px" preserveAspectRatio="xMinYMin meet" x="492.5" y="-433.622"/>
<text text-anchor="start" x="516.5" y="-423.7222" font-family="Helvetica,sans-Serif" font-size="11.00" fill="#000000">id_grupo</text>
<polygon fill="none" stroke="#000000" points="487.5,-394.6222 487.5,-416.6222 584.5,-416.6222 584.5,-394.6222 487.5,-394.6222"/>
<image xlink:href="../../images/foreignKeys.png" width="11px" height="12px" preserveAspectRatio="xMinYMin meet" x="492.5" y="-411.622"/>
<text text-anchor="start" x="516.5" y="-401.7222" font-family="Helvetica,sans-Serif" font-size="11.00" fill="#000000">id_turma</text>
<polygon fill="none" stroke="#000000" points="487.5,-375.6222 487.5,-394.6222 584.5,-394.6222 584.5,-375.6222 487.5,-375.6222"/>
<text text-anchor="start" x="490.5" y="-381.7222" font-family="Helvetica,sans-Serif" font-size="11.00" fill="#000000">...</text>
<polygon fill="#ffffff" stroke="transparent" points="487.5,-356.6222 487.5,-375.6222 529.5,-375.6222 529.5,-356.6222 487.5,-356.6222"/>
<polygon fill="none" stroke="#000000" points="487.5,-356.6222 487.5,-375.6222 529.5,-375.6222 529.5,-356.6222 487.5,-356.6222"/>
<text text-anchor="start" x="490.5" y="-362.7222" font-family="Helvetica,sans-Serif" font-size="11.00" fill="#000000">&lt; 2</text>
<polygon fill="#ffffff" stroke="transparent" points="529.5,-356.6222 529.5,-375.6222 552.5,-375.6222 552.5,-356.6222 529.5,-356.6222"/>
<polygon fill="none" stroke="#000000" points="529.5,-356.6222 529.5,-375.6222 552.5,-375.6222 552.5,-356.6222 529.5,-356.6222"/>
<text text-anchor="start" x="543.3862" y="-362.7222" font-family="Helvetica,sans-Serif" font-size="11.00" fill="#000000"> &#160;</text>
<polygon fill="#ffffff" stroke="transparent" points="552.5,-356.6222 552.5,-375.6222 584.5,-375.6222 584.5,-356.6222 552.5,-356.6222"/>
<polygon fill="none" stroke="#000000" points="552.5,-356.6222 552.5,-375.6222 584.5,-375.6222 584.5,-356.6222 552.5,-356.6222"/>
<text text-anchor="start" x="565.9053" y="-362.7222" font-family="Helvetica,sans-Serif" font-size="11.00" fill="#000000">2 &gt;</text>
</a>
</g>
</g>
<!-- mensagens&#45;&gt;encontros -->
<g id="edge7" class="edge">
<title>mensagens:w&#45;&gt;encontros:e</title>
<path fill="none" stroke="#000000" d="M640.9282,-227.4253C564.9306,-248.6243 683.4295,-449.6222 584.5,-449.6222"/>
<polygon fill="#000000" stroke="#000000" points="647.5605,-226.6046 655.9421,-229.1949 651.5303,-226.1134 655.5,-225.6222 655.5,-225.6222 655.5,-225.6222 651.5303,-226.1134 655.0579,-222.0494 647.5605,-226.6046 647.5605,-226.6046"/>
<ellipse fill="none" stroke="#000000" cx="644.3848" cy="-226.9976" rx="3.2" ry="3.2"/>
</g>
<!-- usuario_turma -->
<g id="node3" class="node">
<title>usuario_turma</title>
<g id="a_node3"><a xlink:href="../../tables/usuario_turma.html" xlink:title="usuario_turma" target="_top">
<polygon fill="#ffffff" stroke="transparent" points="474.5,-102.6222 474.5,-188.6222 596.5,-188.6222 596.5,-102.6222 474.5,-102.6222"/>
<polygon fill="#f5f5f5" stroke="transparent" points="474.5,-165.6222 474.5,-188.6222 596.5,-188.6222 596.5,-165.6222 474.5,-165.6222"/>
<polygon fill="none" stroke="#000000" points="474.5,-165.6222 474.5,-188.6222 596.5,-188.6222 596.5,-165.6222 474.5,-165.6222"/>
<text text-anchor="start" x="479.5" y="-174.2222" font-family="Helvetica,sans-Serif" font-weight="bold" font-size="11.00" fill="#000000">usuario_turma</text>
<text text-anchor="start" x="562.0219" y="-173.7222" font-family="Helvetica,sans-Serif" font-size="11.00" fill="#000000">[table]</text>
<polygon fill="none" stroke="#000000" points="474.5,-143.6222 474.5,-165.6222 596.5,-165.6222 596.5,-143.6222 474.5,-143.6222"/>
<image xlink:href="../../images/foreignKeys.png" width="11px" height="12px" preserveAspectRatio="xMinYMin meet" x="479.5" y="-160.622"/>
<text text-anchor="start" x="503.5" y="-150.7222" font-family="Helvetica,sans-Serif" font-size="11.00" fill="#000000">id_turma</text>
<polygon fill="none" stroke="#000000" points="474.5,-121.6222 474.5,-143.6222 596.5,-143.6222 596.5,-121.6222 474.5,-121.6222"/>
<image xlink:href="../../images/foreignKeys.png" width="11px" height="12px" preserveAspectRatio="xMinYMin meet" x="479.5" y="-138.622"/>
<text text-anchor="start" x="503.5" y="-128.7222" font-family="Helvetica,sans-Serif" font-size="11.00" fill="#000000">id_usuario</text>
<polygon fill="#ffffff" stroke="transparent" points="474.5,-102.6222 474.5,-121.6222 533.5,-121.6222 533.5,-102.6222 474.5,-102.6222"/>
<polygon fill="none" stroke="#000000" points="474.5,-102.6222 474.5,-121.6222 533.5,-121.6222 533.5,-102.6222 474.5,-102.6222"/>
<text text-anchor="start" x="477.5" y="-108.7222" font-family="Helvetica,sans-Serif" font-size="11.00" fill="#000000">&lt; 2</text>
<polygon fill="#ffffff" stroke="transparent" points="533.5,-102.6222 533.5,-121.6222 564.5,-121.6222 564.5,-102.6222 533.5,-102.6222"/>
<polygon fill="none" stroke="#000000" points="533.5,-102.6222 533.5,-121.6222 564.5,-121.6222 564.5,-102.6222 533.5,-102.6222"/>
<text text-anchor="start" x="555.3862" y="-108.7222" font-family="Helvetica,sans-Serif" font-size="11.00" fill="#000000"> &#160;</text>
<polygon fill="#ffffff" stroke="transparent" points="564.5,-102.6222 564.5,-121.6222 596.5,-121.6222 596.5,-102.6222 564.5,-102.6222"/>
<polygon fill="none" stroke="#000000" points="564.5,-102.6222 564.5,-121.6222 596.5,-121.6222 596.5,-102.6222 564.5,-102.6222"/>
<text text-anchor="start" x="587.3862" y="-108.7222" font-family="Helvetica,sans-Serif" font-size="11.00" fill="#000000"> &#160;</text>
</a>
</g>
</g>
<!-- turmas -->
<g id="node4" class="node">
<title>turmas</title>
<g id="a_node4"><a xlink:href="../../tables/turmas.html" xlink:title="turmas" target="_top">
<polygon fill="#ffffff" stroke="transparent" points="333,-291.1222 333,-440.1222 412,-440.1222 412,-291.1222 333,-291.1222"/>
<polygon fill="#f5f5f5" stroke="transparent" points="333.5,-416.6222 333.5,-439.6222 412.5,-439.6222 412.5,-416.6222 333.5,-416.6222"/>
<polygon fill="none" stroke="#000000" points="333.5,-416.6222 333.5,-439.6222 412.5,-439.6222 412.5,-416.6222 333.5,-416.6222"/>
<text text-anchor="start" x="338.5" y="-425.2222" font-family="Helvetica,sans-Serif" font-weight="bold" font-size="11.00" fill="#000000">turmas</text>
<text text-anchor="start" x="378.0219" y="-424.7222" font-family="Helvetica,sans-Serif" font-size="11.00" fill="#000000">[table]</text>
<polygon fill="none" stroke="#000000" points="333.5,-394.6222 333.5,-416.6222 412.5,-416.6222 412.5,-394.6222 333.5,-394.6222"/>
<image xlink:href="../../images/primaryKeys.png" width="11px" height="12px" preserveAspectRatio="xMinYMin meet" x="338.5" y="-411.622"/>
<text text-anchor="start" x="354.5" y="-401.7222" font-family="Helvetica,sans-Serif" font-size="11.00" fill="#000000">id</text>
<polygon fill="none" stroke="#000000" points="333.5,-372.6222 333.5,-394.6222 412.5,-394.6222 412.5,-372.6222 333.5,-372.6222"/>
<image xlink:href="../../images/foreignKeys.png" width="11px" height="12px" preserveAspectRatio="xMinYMin meet" x="338.5" y="-389.622"/>
<text text-anchor="start" x="354.5" y="-379.7222" font-family="Helvetica,sans-Serif" font-size="11.00" fill="#000000">id_curso</text>
<polygon fill="none" stroke="#000000" points="333.5,-350.6222 333.5,-372.6222 412.5,-372.6222 412.5,-350.6222 333.5,-350.6222"/>
<image xlink:href="../../images/foreignKeys.png" width="11px" height="12px" preserveAspectRatio="xMinYMin meet" x="338.5" y="-367.622"/>
<text text-anchor="start" x="354.5" y="-357.7222" font-family="Helvetica,sans-Serif" font-size="11.00" fill="#000000">id_user</text>
<polygon fill="#ffffff" stroke="transparent" points="333.5,-328.6222 333.5,-350.6222 412.5,-350.6222 412.5,-328.6222 333.5,-328.6222"/>
<polygon fill="none" stroke="#000000" points="333.5,-328.6222 333.5,-350.6222 412.5,-350.6222 412.5,-328.6222 333.5,-328.6222"/>
<text text-anchor="start" x="354.5" y="-335.7222" font-family="Helvetica,sans-Serif" font-size="11.00" fill="#000000">nome</text>
<polygon fill="none" stroke="#000000" points="333.5,-309.6222 333.5,-328.6222 412.5,-328.6222 412.5,-309.6222 333.5,-309.6222"/>
<text text-anchor="start" x="336.5" y="-315.7222" font-family="Helvetica,sans-Serif" font-size="11.00" fill="#000000">...</text>
<polygon fill="#ffffff" stroke="transparent" points="333.5,-290.6222 333.5,-309.6222 366.5,-309.6222 366.5,-290.6222 333.5,-290.6222"/>
<polygon fill="none" stroke="#000000" points="333.5,-290.6222 333.5,-309.6222 366.5,-309.6222 366.5,-290.6222 333.5,-290.6222"/>
<text text-anchor="start" x="336.5" y="-296.7222" font-family="Helvetica,sans-Serif" font-size="11.00" fill="#000000">&lt; 2</text>
<polygon fill="#ffffff" stroke="transparent" points="366.5,-290.6222 366.5,-309.6222 384.5,-309.6222 384.5,-290.6222 366.5,-290.6222"/>
<polygon fill="none" stroke="#000000" points="366.5,-290.6222 366.5,-309.6222 384.5,-309.6222 384.5,-290.6222 366.5,-290.6222"/>
<text text-anchor="start" x="375.3862" y="-296.7222" font-family="Helvetica,sans-Serif" font-size="11.00" fill="#000000"> &#160;</text>
<polygon fill="#ffffff" stroke="transparent" points="384.5,-290.6222 384.5,-309.6222 412.5,-309.6222 412.5,-290.6222 384.5,-290.6222"/>
<polygon fill="none" stroke="#000000" points="384.5,-290.6222 384.5,-309.6222 412.5,-309.6222 412.5,-290.6222 384.5,-290.6222"/>
<text text-anchor="start" x="393.9053" y="-296.7222" font-family="Helvetica,sans-Serif" font-size="11.00" fill="#000000">2 &gt;</text>
</a>
</g>
</g>
<!-- usuario_turma&#45;&gt;turmas -->
<g id="edge14" class="edge">
<title>usuario_turma:w&#45;&gt;turmas:e</title>
<path fill="none" stroke="#000000" d="M461.0691,-160.8267C425.9961,-199.4786 464.5679,-405.6222 412.5,-405.6222"/>
<polygon fill="#000000" stroke="#000000" points="467.2375,-157.9772 476.0098,-157.8903 470.8687,-156.2997 474.5,-154.6222 474.5,-154.6222 474.5,-154.6222 470.8687,-156.2997 472.9902,-151.3541 467.2375,-157.9772 467.2375,-157.9772"/>
<ellipse fill="none" stroke="#000000" cx="464.3325" cy="-159.3192" rx="3.2" ry="3.2"/>
</g>
<!-- usuario_turma&#45;&gt;usuarios -->
<g id="edge15" class="edge">
<title>usuario_turma:w&#45;&gt;usuarios:e</title>
<path fill="none" stroke="#000000" d="M460.4304,-128.7495C451.6644,-123.0222 447.6302,-112.548 433,-108.6222 381.0597,-94.6847 356.3442,-78.1978 312,-108.6222 270.7562,-136.9193 321.5178,-213.6222 271.5,-213.6222"/>
<polygon fill="#000000" stroke="#000000" points="466.7869,-130.4991 473.5446,-136.0931 470.6434,-131.5606 474.5,-132.6222 474.5,-132.6222 474.5,-132.6222 470.6434,-131.5606 475.4554,-129.1513 466.7869,-130.4991 466.7869,-130.4991"/>
<ellipse fill="none" stroke="#000000" cx="463.7016" cy="-129.6499" rx="3.2" ry="3.2"/>
</g>
<!-- turmas&#45;&gt;usuarios -->
<g id="edge11" class="edge">
<title>turmas:w&#45;&gt;usuarios:e</title>
<path fill="none" stroke="#000000" d="M319.1344,-358.927C274.1231,-338.8681 337.1055,-213.6222 271.5,-213.6222"/>
<polygon fill="#000000" stroke="#000000" points="325.6372,-360.147 332.8362,-365.1605 329.5686,-360.8846 333.5,-361.6222 333.5,-361.6222 333.5,-361.6222 329.5686,-360.8846 334.1638,-358.0839 325.6372,-360.147 325.6372,-360.147"/>
<ellipse fill="none" stroke="#000000" cx="322.4921" cy="-359.5569" rx="3.2" ry="3.2"/>
</g>
<!-- cursos -->
<g id="node10" class="node">
<title>cursos</title>
<g id="a_node10"><a xlink:href="../../tables/cursos.html" xlink:title="cursos" target="_top">
<polygon fill="#ffffff" stroke="transparent" points="8,-335.1222 8,-418.1222 95,-418.1222 95,-335.1222 8,-335.1222"/>
<polygon fill="#f5f5f5" stroke="transparent" points="8.5,-394.6222 8.5,-417.6222 95.5,-417.6222 95.5,-394.6222 8.5,-394.6222"/>
<polygon fill="none" stroke="#000000" points="8.5,-394.6222 8.5,-417.6222 95.5,-417.6222 95.5,-394.6222 8.5,-394.6222"/>
<text text-anchor="start" x="13.5" y="-403.2222" font-family="Helvetica,sans-Serif" font-weight="bold" font-size="11.00" fill="#000000">cursos</text>
<text text-anchor="start" x="60.5437" y="-402.7222" font-family="Helvetica,sans-Serif" font-size="11.00" fill="#000000">[table]</text>
<polygon fill="none" stroke="#000000" points="8.5,-372.6222 8.5,-394.6222 95.5,-394.6222 95.5,-372.6222 8.5,-372.6222"/>
<image xlink:href="../../images/primaryKeys.png" width="11px" height="12px" preserveAspectRatio="xMinYMin meet" x="13.5" y="-389.622"/>
<text text-anchor="start" x="28.5" y="-379.7222" font-family="Helvetica,sans-Serif" font-size="11.00" fill="#000000">id</text>
<polygon fill="none" stroke="#000000" points="8.5,-353.6222 8.5,-372.6222 95.5,-372.6222 95.5,-353.6222 8.5,-353.6222"/>
<text text-anchor="start" x="11.5" y="-359.7222" font-family="Helvetica,sans-Serif" font-size="11.00" fill="#000000">...</text>
<polygon fill="#ffffff" stroke="transparent" points="8.5,-334.6222 8.5,-353.6222 41.5,-353.6222 41.5,-334.6222 8.5,-334.6222"/>
<polygon fill="none" stroke="#000000" points="8.5,-334.6222 8.5,-353.6222 41.5,-353.6222 41.5,-334.6222 8.5,-334.6222"/>
<text text-anchor="start" x="11.5" y="-340.7222" font-family="Helvetica,sans-Serif" font-size="11.00" fill="#000000"> &#160;</text>
<polygon fill="#ffffff" stroke="transparent" points="41.5,-334.6222 41.5,-353.6222 63.5,-353.6222 63.5,-334.6222 41.5,-334.6222"/>
<polygon fill="none" stroke="#000000" points="41.5,-334.6222 41.5,-353.6222 63.5,-353.6222 63.5,-334.6222 41.5,-334.6222"/>
<text text-anchor="start" x="54.3862" y="-340.7222" font-family="Helvetica,sans-Serif" font-size="11.00" fill="#000000"> &#160;</text>
<polygon fill="#ffffff" stroke="transparent" points="63.5,-334.6222 63.5,-353.6222 95.5,-353.6222 95.5,-334.6222 63.5,-334.6222"/>
<polygon fill="none" stroke="#000000" points="63.5,-334.6222 63.5,-353.6222 95.5,-353.6222 95.5,-334.6222 63.5,-334.6222"/>
<text text-anchor="start" x="76.9053" y="-340.7222" font-family="Helvetica,sans-Serif" font-size="11.00" fill="#000000">3 &gt;</text>
</a>
</g>
</g>
<!-- turmas&#45;&gt;cursos -->
<g id="edge10" class="edge">
<title>turmas:w&#45;&gt;cursos:e</title>
<path fill="none" stroke="#000000" d="M318.8427,-383.6222C225.0098,-383.6222 196.2161,-383.6222 95.5,-383.6222"/>
<polygon fill="#000000" stroke="#000000" points="325.5,-383.6222 333.5,-387.2222 329.5,-383.6222 333.5,-383.6222 333.5,-383.6222 333.5,-383.6222 329.5,-383.6222 333.5,-380.0222 325.5,-383.6222 325.5,-383.6222"/>
<ellipse fill="none" stroke="#000000" cx="322.3" cy="-383.6223" rx="3.2" ry="3.2"/>
</g>
<!-- agendamentos -->
<g id="node5" class="node">
<title>agendamentos</title>
<g id="a_node5"><a xlink:href="../../tables/agendamentos.html" xlink:title="agendamentos" target="_top">
<polygon fill="#ffffff" stroke="transparent" points="646,-442.1222 646,-569.1222 769,-569.1222 769,-442.1222 646,-442.1222"/>
<polygon fill="#f5f5f5" stroke="transparent" points="646.5,-545.6222 646.5,-568.6222 769.5,-568.6222 769.5,-545.6222 646.5,-545.6222"/>
<polygon fill="none" stroke="#000000" points="646.5,-545.6222 646.5,-568.6222 769.5,-568.6222 769.5,-545.6222 646.5,-545.6222"/>
<text text-anchor="start" x="651.5" y="-554.2222" font-family="Helvetica,sans-Serif" font-weight="bold" font-size="11.00" fill="#000000">agendamentos</text>
<text text-anchor="start" x="735.0219" y="-553.7222" font-family="Helvetica,sans-Serif" font-size="11.00" fill="#000000">[table]</text>
<polygon fill="none" stroke="#000000" points="646.5,-523.6222 646.5,-545.6222 769.5,-545.6222 769.5,-523.6222 646.5,-523.6222"/>
<image xlink:href="../../images/foreignKeys.png" width="11px" height="12px" preserveAspectRatio="xMinYMin meet" x="651.5" y="-540.622"/>
<text text-anchor="start" x="675.5" y="-530.7222" font-family="Helvetica,sans-Serif" font-size="11.00" fill="#000000">encontro_id</text>
<polygon fill="none" stroke="#000000" points="646.5,-501.6222 646.5,-523.6222 769.5,-523.6222 769.5,-501.6222 646.5,-501.6222"/>
<image xlink:href="../../images/primaryKeys.png" width="11px" height="12px" preserveAspectRatio="xMinYMin meet" x="651.5" y="-518.622"/>
<text text-anchor="start" x="675.5" y="-508.7222" font-family="Helvetica,sans-Serif" font-size="11.00" fill="#000000">id</text>
<polygon fill="none" stroke="#000000" points="646.5,-479.6222 646.5,-501.6222 769.5,-501.6222 769.5,-479.6222 646.5,-479.6222"/>
<image xlink:href="../../images/foreignKeys.png" width="11px" height="12px" preserveAspectRatio="xMinYMin meet" x="651.5" y="-496.622"/>
<text text-anchor="start" x="675.5" y="-486.7222" font-family="Helvetica,sans-Serif" font-size="11.00" fill="#000000">local_id</text>
<polygon fill="none" stroke="#000000" points="646.5,-460.6222 646.5,-479.6222 769.5,-479.6222 769.5,-460.6222 646.5,-460.6222"/>
<text text-anchor="start" x="649.5" y="-466.7222" font-family="Helvetica,sans-Serif" font-size="11.00" fill="#000000">...</text>
<polygon fill="#ffffff" stroke="transparent" points="646.5,-441.6222 646.5,-460.6222 706.5,-460.6222 706.5,-441.6222 646.5,-441.6222"/>
<polygon fill="none" stroke="#000000" points="646.5,-441.6222 646.5,-460.6222 706.5,-460.6222 706.5,-441.6222 646.5,-441.6222"/>
<text text-anchor="start" x="649.5" y="-447.7222" font-family="Helvetica,sans-Serif" font-size="11.00" fill="#000000">&lt; 2</text>
<polygon fill="#ffffff" stroke="transparent" points="706.5,-441.6222 706.5,-460.6222 737.5,-460.6222 737.5,-441.6222 706.5,-441.6222"/>
<polygon fill="none" stroke="#000000" points="706.5,-441.6222 706.5,-460.6222 737.5,-460.6222 737.5,-441.6222 706.5,-441.6222"/>
<text text-anchor="start" x="728.3862" y="-447.7222" font-family="Helvetica,sans-Serif" font-size="11.00" fill="#000000"> &#160;</text>
<polygon fill="#ffffff" stroke="transparent" points="737.5,-441.6222 737.5,-460.6222 769.5,-460.6222 769.5,-441.6222 737.5,-441.6222"/>
<polygon fill="none" stroke="#000000" points="737.5,-441.6222 737.5,-460.6222 769.5,-460.6222 769.5,-441.6222 737.5,-441.6222"/>
<text text-anchor="start" x="760.3862" y="-447.7222" font-family="Helvetica,sans-Serif" font-size="11.00" fill="#000000"> &#160;</text>
</a>
</g>
</g>
<!-- agendamentos&#45;&gt;locais -->
<g id="edge2" class="edge">
<title>agendamentos:w&#45;&gt;locais:e</title>
<path fill="none" stroke="#000000" d="M632.4214,-493.8505C603.8017,-509.3768 621.2097,-575.6222 578.5,-575.6222"/>
<polygon fill="#000000" stroke="#000000" points="638.7024,-492.4103 647.3046,-494.1311 642.6012,-491.5162 646.5,-490.6222 646.5,-490.6222 646.5,-490.6222 642.6012,-491.5162 645.6954,-487.1133 638.7024,-492.4103 638.7024,-492.4103"/>
<ellipse fill="none" stroke="#000000" cx="635.5833" cy="-493.1255" rx="3.2" ry="3.2"/>
</g>
<!-- agendamentos&#45;&gt;encontros -->
<g id="edge1" class="edge">
<title>agendamentos:w&#45;&gt;encontros:e</title>
<path fill="none" stroke="#000000" d="M632.3287,-530.9698C606.397,-514.7003 625.4147,-449.6222 584.5,-449.6222"/>
<polygon fill="#000000" stroke="#000000" points="638.7531,-532.6256 645.6015,-538.1083 642.6266,-533.6239 646.5,-534.6222 646.5,-534.6222 646.5,-534.6222 642.6266,-533.6239 647.3985,-531.1361 638.7531,-532.6256 638.7531,-532.6256"/>
<ellipse fill="none" stroke="#000000" cx="635.6544" cy="-531.8269" rx="3.2" ry="3.2"/>
</g>
<!-- grupos -->
<g id="node6" class="node">
<title>grupos</title>
<g id="a_node6"><a xlink:href="../../tables/grupos.html" xlink:title="grupos" target="_top">
<polygon fill="#ffffff" stroke="transparent" points="320,-461.1222 320,-610.1222 425,-610.1222 425,-461.1222 320,-461.1222"/>
<polygon fill="#f5f5f5" stroke="transparent" points="320.5,-586.6222 320.5,-609.6222 425.5,-609.6222 425.5,-586.6222 320.5,-586.6222"/>
<polygon fill="none" stroke="#000000" points="320.5,-586.6222 320.5,-609.6222 425.5,-609.6222 425.5,-586.6222 320.5,-586.6222"/>
<text text-anchor="start" x="325.5" y="-595.2222" font-family="Helvetica,sans-Serif" font-weight="bold" font-size="11.00" fill="#000000">grupos</text>
<text text-anchor="start" x="390.5437" y="-594.7222" font-family="Helvetica,sans-Serif" font-size="11.00" fill="#000000">[table]</text>
<polygon fill="none" stroke="#000000" points="320.5,-564.6222 320.5,-586.6222 425.5,-586.6222 425.5,-564.6222 320.5,-564.6222"/>
<image xlink:href="../../images/primaryKeys.png" width="11px" height="12px" preserveAspectRatio="xMinYMin meet" x="325.5" y="-581.622"/>
<text text-anchor="start" x="340.5" y="-571.7222" font-family="Helvetica,sans-Serif" font-size="11.00" fill="#000000">id</text>
<polygon fill="none" stroke="#000000" points="320.5,-542.6222 320.5,-564.6222 425.5,-564.6222 425.5,-542.6222 320.5,-542.6222"/>
<image xlink:href="../../images/foreignKeys.png" width="11px" height="12px" preserveAspectRatio="xMinYMin meet" x="325.5" y="-559.622"/>
<text text-anchor="start" x="340.5" y="-549.7222" font-family="Helvetica,sans-Serif" font-size="11.00" fill="#000000">id_curso</text>
<polygon fill="none" stroke="#000000" points="320.5,-520.6222 320.5,-542.6222 425.5,-542.6222 425.5,-520.6222 320.5,-520.6222"/>
<image xlink:href="../../images/foreignKeys.png" width="11px" height="12px" preserveAspectRatio="xMinYMin meet" x="325.5" y="-537.622"/>
<text text-anchor="start" x="340.5" y="-527.7222" font-family="Helvetica,sans-Serif" font-size="11.00" fill="#000000">id_user</text>
<polygon fill="#ffffff" stroke="transparent" points="320.5,-498.6222 320.5,-520.6222 425.5,-520.6222 425.5,-498.6222 320.5,-498.6222"/>
<polygon fill="none" stroke="#000000" points="320.5,-498.6222 320.5,-520.6222 425.5,-520.6222 425.5,-498.6222 320.5,-498.6222"/>
<text text-anchor="start" x="340.5" y="-505.7222" font-family="Helvetica,sans-Serif" font-size="11.00" fill="#000000">nome</text>
<polygon fill="none" stroke="#000000" points="320.5,-479.6222 320.5,-498.6222 425.5,-498.6222 425.5,-479.6222 320.5,-479.6222"/>
<text text-anchor="start" x="323.5" y="-485.7222" font-family="Helvetica,sans-Serif" font-size="11.00" fill="#000000">...</text>
<polygon fill="#ffffff" stroke="transparent" points="320.5,-460.6222 320.5,-479.6222 366.5,-479.6222 366.5,-460.6222 320.5,-460.6222"/>
<polygon fill="none" stroke="#000000" points="320.5,-460.6222 320.5,-479.6222 366.5,-479.6222 366.5,-460.6222 320.5,-460.6222"/>
<text text-anchor="start" x="323.5" y="-466.7222" font-family="Helvetica,sans-Serif" font-size="11.00" fill="#000000">&lt; 2</text>
<polygon fill="#ffffff" stroke="transparent" points="366.5,-460.6222 366.5,-479.6222 391.5,-479.6222 391.5,-460.6222 366.5,-460.6222"/>
<polygon fill="none" stroke="#000000" points="366.5,-460.6222 366.5,-479.6222 391.5,-479.6222 391.5,-460.6222 366.5,-460.6222"/>
<text text-anchor="start" x="382.3862" y="-466.7222" font-family="Helvetica,sans-Serif" font-size="11.00" fill="#000000"> &#160;</text>
<polygon fill="#ffffff" stroke="transparent" points="391.5,-460.6222 391.5,-479.6222 425.5,-479.6222 425.5,-460.6222 391.5,-460.6222"/>
<polygon fill="none" stroke="#000000" points="391.5,-460.6222 391.5,-479.6222 425.5,-479.6222 425.5,-460.6222 391.5,-460.6222"/>
<text text-anchor="start" x="406.9053" y="-466.7222" font-family="Helvetica,sans-Serif" font-size="11.00" fill="#000000">2 &gt;</text>
</a>
</g>
</g>
<!-- grupos&#45;&gt;usuarios -->
<g id="edge6" class="edge">
<title>grupos:w&#45;&gt;usuarios:e</title>
<path fill="none" stroke="#000000" d="M306.8955,-526.368C262.3596,-485.022 337.5543,-213.6222 271.5,-213.6222"/>
<polygon fill="#000000" stroke="#000000" points="313.0372,-528.74 319.203,-534.9804 316.7686,-530.1811 320.5,-531.6222 320.5,-531.6222 320.5,-531.6222 316.7686,-530.1811 321.797,-528.2639 313.0372,-528.74 313.0372,-528.74"/>
<ellipse fill="none" stroke="#000000" cx="310.0521" cy="-527.5871" rx="3.2" ry="3.2"/>
</g>
<!-- grupos&#45;&gt;cursos -->
<g id="edge5" class="edge">
<title>grupos:w&#45;&gt;cursos:e</title>
<path fill="none" stroke="#000000" d="M305.9656,-550.9519C243.2426,-529.3242 153.516,-383.6222 95.5,-383.6222"/>
<polygon fill="#000000" stroke="#000000" points="312.6317,-552.1766 319.8495,-557.1629 316.5658,-552.8994 320.5,-553.6222 320.5,-553.6222 320.5,-553.6222 316.5658,-552.8994 321.1505,-550.0814 312.6317,-552.1766 312.6317,-552.1766"/>
<ellipse fill="none" stroke="#000000" cx="309.4844" cy="-551.5983" rx="3.2" ry="3.2"/>
</g>
<!-- usuarios&#45;&gt;cursos -->
<g id="edge16" class="edge">
<title>usuarios:w&#45;&gt;cursos:e</title>
<path fill="none" stroke="#000000" d="M130.0379,-193.9122C71.9263,-215.5746 177.8921,-383.6222 95.5,-383.6222"/>
<polygon fill="#000000" stroke="#000000" points="136.5984,-192.8734 145.063,-195.1779 140.5492,-192.2478 144.5,-191.6222 144.5,-191.6222 144.5,-191.6222 140.5492,-192.2478 143.937,-188.0665 136.5984,-192.8734 136.5984,-192.8734"/>
<ellipse fill="none" stroke="#000000" cx="133.4378" cy="-193.3739" rx="3.2" ry="3.2"/>
</g>
<!-- encontros&#45;&gt;turmas -->
<g id="edge4" class="edge">
<title>encontros:w&#45;&gt;turmas:e</title>
<path fill="none" stroke="#000000" d="M472.8917,-405.6222C450.7594,-405.6222 440.3646,-405.6222 412.5,-405.6222"/>
<polygon fill="#000000" stroke="#000000" points="479.5,-405.6222 487.5,-409.2222 483.5,-405.6222 487.5,-405.6222 487.5,-405.6222 487.5,-405.6222 483.5,-405.6222 487.5,-402.0222 479.5,-405.6222 479.5,-405.6222"/>
<ellipse fill="none" stroke="#000000" cx="476.3" cy="-405.6223" rx="3.2" ry="3.2"/>
</g>
<!-- encontros&#45;&gt;grupos -->
<g id="edge3" class="edge">
<title>encontros:w&#45;&gt;grupos:e</title>
<path fill="none" stroke="#000000" d="M473.1344,-430.3173C428.1231,-450.3763 491.1055,-575.6222 425.5,-575.6222"/>
<polygon fill="#000000" stroke="#000000" points="479.6372,-429.0974 488.1638,-431.1605 483.5686,-428.3598 487.5,-427.6222 487.5,-427.6222 487.5,-427.6222 483.5686,-428.3598 486.8362,-424.0839 479.6372,-429.0974 479.6372,-429.0974"/>
<ellipse fill="none" stroke="#000000" cx="476.4921" cy="-429.6875" rx="3.2" ry="3.2"/>
</g>
<!-- token -->
<g id="node9" class="node">
<title>token</title>
<g id="a_node9"><a xlink:href="../../tables/token.html" xlink:title="token" target="_top">
<polygon fill="#ffffff" stroke="transparent" points="330.5,-143.1222 330.5,-270.1222 414.5,-270.1222 414.5,-143.1222 330.5,-143.1222"/>
<polygon fill="#f5f5f5" stroke="transparent" points="330.5,-246.6222 330.5,-269.6222 414.5,-269.6222 414.5,-246.6222 330.5,-246.6222"/>
<polygon fill="none" stroke="#000000" points="330.5,-246.6222 330.5,-269.6222 414.5,-269.6222 414.5,-246.6222 330.5,-246.6222"/>
<text text-anchor="start" x="335.5" y="-255.2222" font-family="Helvetica,sans-Serif" font-weight="bold" font-size="11.00" fill="#000000">token</text>
<text text-anchor="start" x="379.5437" y="-254.7222" font-family="Helvetica,sans-Serif" font-size="11.00" fill="#000000">[table]</text>
<polygon fill="none" stroke="#000000" points="330.5,-224.6222 330.5,-246.6222 414.5,-246.6222 414.5,-224.6222 330.5,-224.6222"/>
<image xlink:href="../../images/primaryKeys.png" width="11px" height="12px" preserveAspectRatio="xMinYMin meet" x="335.5" y="-241.622"/>
<text text-anchor="start" x="350.5" y="-231.7222" font-family="Helvetica,sans-Serif" font-size="11.00" fill="#000000">id</text>
<polygon fill="none" stroke="#000000" points="330.5,-202.6222 330.5,-224.6222 414.5,-224.6222 414.5,-202.6222 330.5,-202.6222"/>
<image xlink:href="../../images/foreignKeys.png" width="11px" height="12px" preserveAspectRatio="xMinYMin meet" x="335.5" y="-219.622"/>
<text text-anchor="start" x="350.5" y="-209.7222" font-family="Helvetica,sans-Serif" font-size="11.00" fill="#000000">id_usuario</text>
<polygon fill="#ffffff" stroke="transparent" points="330.5,-180.6222 330.5,-202.6222 414.5,-202.6222 414.5,-180.6222 330.5,-180.6222"/>
<polygon fill="none" stroke="#000000" points="330.5,-180.6222 330.5,-202.6222 414.5,-202.6222 414.5,-180.6222 330.5,-180.6222"/>
<text text-anchor="start" x="350.5" y="-187.7222" font-family="Helvetica,sans-Serif" font-size="11.00" fill="#000000">token</text>
<polygon fill="none" stroke="#000000" points="330.5,-161.6222 330.5,-180.6222 414.5,-180.6222 414.5,-161.6222 330.5,-161.6222"/>
<text text-anchor="start" x="333.5" y="-167.7222" font-family="Helvetica,sans-Serif" font-size="11.00" fill="#000000">...</text>
<polygon fill="#ffffff" stroke="transparent" points="330.5,-142.6222 330.5,-161.6222 370.5,-161.6222 370.5,-142.6222 330.5,-142.6222"/>
<polygon fill="none" stroke="#000000" points="330.5,-142.6222 330.5,-161.6222 370.5,-161.6222 370.5,-142.6222 330.5,-142.6222"/>
<text text-anchor="start" x="333.5" y="-148.7222" font-family="Helvetica,sans-Serif" font-size="11.00" fill="#000000">&lt; 1</text>
<polygon fill="#ffffff" stroke="transparent" points="370.5,-142.6222 370.5,-161.6222 392.5,-161.6222 392.5,-142.6222 370.5,-142.6222"/>
<polygon fill="none" stroke="#000000" points="370.5,-142.6222 370.5,-161.6222 392.5,-161.6222 392.5,-142.6222 370.5,-142.6222"/>
<text text-anchor="start" x="383.3862" y="-148.7222" font-family="Helvetica,sans-Serif" font-size="11.00" fill="#000000"> &#160;</text>
<polygon fill="#ffffff" stroke="transparent" points="392.5,-142.6222 392.5,-161.6222 414.5,-161.6222 414.5,-142.6222 392.5,-142.6222"/>
<polygon fill="none" stroke="#000000" points="392.5,-142.6222 392.5,-161.6222 414.5,-161.6222 414.5,-142.6222 392.5,-142.6222"/>
<text text-anchor="start" x="405.3862" y="-148.7222" font-family="Helvetica,sans-Serif" font-size="11.00" fill="#000000"> &#160;</text>
</a>
</g>
</g>
<!-- token&#45;&gt;usuarios -->
<g id="edge9" class="edge">
<title>token:w&#45;&gt;usuarios:e</title>
<path fill="none" stroke="#000000" d="M315.7032,-213.6222C300.4686,-213.6222 291.9861,-213.6222 271.5,-213.6222"/>
<polygon fill="#000000" stroke="#000000" points="322.5,-213.6222 330.5,-217.2222 326.5,-213.6222 330.5,-213.6222 330.5,-213.6222 330.5,-213.6222 326.5,-213.6222 330.5,-210.0222 322.5,-213.6222 322.5,-213.6222"/>
<ellipse fill="none" stroke="#000000" cx="319.3" cy="-213.6223" rx="3.2" ry="3.2"/>
</g>
<!-- usuario_grupo -->
<g id="node11" class="node">
<title>usuario_grupo</title>
<g id="a_node11"><a xlink:href="../../tables/usuario_grupo.html" xlink:title="usuario_grupo" target="_top">
<polygon fill="#ffffff" stroke="transparent" points="474,-236.6222 474,-322.6222 597,-322.6222 597,-236.6222 474,-236.6222"/>
<polygon fill="#f5f5f5" stroke="transparent" points="474.5,-299.6222 474.5,-322.6222 597.5,-322.6222 597.5,-299.6222 474.5,-299.6222"/>
<polygon fill="none" stroke="#000000" points="474.5,-299.6222 474.5,-322.6222 597.5,-322.6222 597.5,-299.6222 474.5,-299.6222"/>
<text text-anchor="start" x="479.5" y="-308.2222" font-family="Helvetica,sans-Serif" font-weight="bold" font-size="11.00" fill="#000000">usuario_grupo</text>
<text text-anchor="start" x="563.0219" y="-307.7222" font-family="Helvetica,sans-Serif" font-size="11.00" fill="#000000">[table]</text>
<polygon fill="none" stroke="#000000" points="474.5,-277.6222 474.5,-299.6222 597.5,-299.6222 597.5,-277.6222 474.5,-277.6222"/>
<image xlink:href="../../images/foreignKeys.png" width="11px" height="12px" preserveAspectRatio="xMinYMin meet" x="479.5" y="-294.622"/>
<text text-anchor="start" x="503.5" y="-284.7222" font-family="Helvetica,sans-Serif" font-size="11.00" fill="#000000">id_grupo</text>
<polygon fill="none" stroke="#000000" points="474.5,-255.6222 474.5,-277.6222 597.5,-277.6222 597.5,-255.6222 474.5,-255.6222"/>
<image xlink:href="../../images/foreignKeys.png" width="11px" height="12px" preserveAspectRatio="xMinYMin meet" x="479.5" y="-272.622"/>
<text text-anchor="start" x="503.5" y="-262.7222" font-family="Helvetica,sans-Serif" font-size="11.00" fill="#000000">id_usuario</text>
<polygon fill="#ffffff" stroke="transparent" points="474.5,-236.6222 474.5,-255.6222 534.5,-255.6222 534.5,-236.6222 474.5,-236.6222"/>
<polygon fill="none" stroke="#000000" points="474.5,-236.6222 474.5,-255.6222 534.5,-255.6222 534.5,-236.6222 474.5,-236.6222"/>
<text text-anchor="start" x="477.5" y="-242.7222" font-family="Helvetica,sans-Serif" font-size="11.00" fill="#000000">&lt; 2</text>
<polygon fill="#ffffff" stroke="transparent" points="534.5,-236.6222 534.5,-255.6222 565.5,-255.6222 565.5,-236.6222 534.5,-236.6222"/>
<polygon fill="none" stroke="#000000" points="534.5,-236.6222 534.5,-255.6222 565.5,-255.6222 565.5,-236.6222 534.5,-236.6222"/>
<text text-anchor="start" x="556.3862" y="-242.7222" font-family="Helvetica,sans-Serif" font-size="11.00" fill="#000000"> &#160;</text>
<polygon fill="#ffffff" stroke="transparent" points="565.5,-236.6222 565.5,-255.6222 597.5,-255.6222 597.5,-236.6222 565.5,-236.6222"/>
<polygon fill="none" stroke="#000000" points="565.5,-236.6222 565.5,-255.6222 597.5,-255.6222 597.5,-236.6222 565.5,-236.6222"/>
<text text-anchor="start" x="588.3862" y="-242.7222" font-family="Helvetica,sans-Serif" font-size="11.00" fill="#000000"> &#160;</text>
</a>
</g>
</g>
<!-- usuario_grupo&#45;&gt;grupos -->
<g id="edge12" class="edge">
<title>usuario_grupo:w&#45;&gt;grupos:e</title>
<path fill="none" stroke="#000000" d="M461.0969,-294.3551C422.2808,-334.8049 484.7668,-575.6222 425.5,-575.6222"/>
<polygon fill="#000000" stroke="#000000" points="467.1446,-291.7684 475.9158,-291.9321 470.8223,-290.1953 474.5,-288.6222 474.5,-288.6222 474.5,-288.6222 470.8223,-290.1953 473.0842,-285.3123 467.1446,-291.7684 467.1446,-291.7684"/>
<ellipse fill="none" stroke="#000000" cx="464.2024" cy="-293.0268" rx="3.2" ry="3.2"/>
</g>
<!-- usuario_grupo&#45;&gt;usuarios -->
<g id="edge13" class="edge">
<title>usuario_grupo:w&#45;&gt;usuarios:e</title>
<path fill="none" stroke="#000000" d="M460.2721,-264.1938C424.4066,-248.961 478.4799,-166.148 433,-132.6222 389.7124,-100.7124 357.7461,-104.3495 312,-132.6222 277.762,-153.7825 311.7492,-213.6222 271.5,-213.6222"/>
<polygon fill="#000000" stroke="#000000" points="466.614,-265.2762 473.8943,-270.1709 470.557,-265.9492 474.5,-266.6222 474.5,-266.6222 474.5,-266.6222 470.557,-265.9492 475.1057,-263.0735 466.614,-265.2762 466.614,-265.2762"/>
<ellipse fill="none" stroke="#000000" cx="463.4597" cy="-264.7378" rx="3.2" ry="3.2"/>
</g>
</g>
</svg>
