<?xml version="1.0" encoding="UTF-8" standalone="no"?>
<!DOCTYPE svg PUBLIC "-//W3C//DTD SVG 1.1//EN"
 "http://www.w3.org/Graphics/SVG/1.1/DTD/svg11.dtd">
<!-- Generated by graphviz version 2.40.1 (20161225.0304)
 -->
<!-- Title: twoDegreesRelationshipsDiagram Pages: 1 -->
<svg width="491pt" height="310pt"
 viewBox="0.00 0.00 491.00 310.20" xmlns="http://www.w3.org/2000/svg" xmlns:xlink="http://www.w3.org/1999/xlink">
<g id="graph0" class="graph" transform="scale(1 1) rotate(0) translate(4 306.2)">
<title>twoDegreesRelationshipsDiagram</title>
<polygon fill="#ffffff" stroke="transparent" points="-4,4 -4,-306.2 487,-306.2 487,4 -4,4"/>
<text text-anchor="middle" x="72.4936" y="-7.3" font-family="Helvetica,sans-Serif" font-size="11.00" fill="#000000">Generated by SchemaSpy</text>
<!-- agendamentos -->
<g id="node1" class="node">
<title>agendamentos</title>
<g id="a_node1"><a xlink:href="../../tables/agendamentos.html" xlink:title="agendamentos" target="_top">
<polygon fill="#ffffff" stroke="transparent" points="282,-42.7 282,-198.7 475,-198.7 475,-42.7 282,-42.7"/>
<polygon fill="#f5f5f5" stroke="transparent" points="284.5,-173.7 284.5,-196.7 473.5,-196.7 473.5,-173.7 284.5,-173.7"/>
<polygon fill="none" stroke="#000000" points="284.5,-173.7 284.5,-196.7 473.5,-196.7 473.5,-173.7 284.5,-173.7"/>
<text text-anchor="start" x="289.5" y="-182.3" font-family="Helvetica,sans-Serif" font-weight="bold" font-size="11.00" fill="#000000">agendamentos</text>
<text text-anchor="start" x="438.5437" y="-181.8" font-family="Helvetica,sans-Serif" font-size="11.00" fill="#000000">[table]</text>
<polygon fill="none" stroke="#000000" points="284.5,-151.7 284.5,-173.7 389.5,-173.7 389.5,-151.7 284.5,-151.7"/>
<image xlink:href="../../images/foreignKeys.png" width="11px" height="12px" preserveAspectRatio="xMinYMin meet" x="289.5" y="-168.7"/>
<text text-anchor="start" x="304.5" y="-158.8" font-family="Helvetica,sans-Serif" font-size="11.00" fill="#000000">encontro_id</text>
<polygon fill="none" stroke="#000000" points="389.5,-151.7 389.5,-173.7 473.5,-173.7 473.5,-151.7 389.5,-151.7"/>
<text text-anchor="start" x="392.5" y="-159.4" font-family="Helvetica,sans-Serif" font-size="11.00" fill="#000000">int4[10]</text>
<polygon fill="none" stroke="#000000" points="284.5,-129.7 284.5,-151.7 389.5,-151.7 389.5,-129.7 284.5,-129.7"/>
<image xlink:href="../../images/primaryKeys.png" width="11px" height="12px" preserveAspectRatio="xMinYMin meet" x="289.5" y="-146.7"/>
<text text-anchor="start" x="304.5" y="-136.8" font-family="Helvetica,sans-Serif" font-size="11.00" fill="#000000">id</text>
<polygon fill="none" stroke="#000000" points="389.5,-129.7 389.5,-151.7 473.5,-151.7 473.5,-129.7 389.5,-129.7"/>
<text text-anchor="start" x="392.5" y="-137.4" font-family="Helvetica,sans-Serif" font-size="11.00" fill="#000000">serial[10]</text>
<polygon fill="none" stroke="#000000" points="284.5,-107.7 284.5,-129.7 389.5,-129.7 389.5,-107.7 284.5,-107.7"/>
<image xlink:href="../../images/foreignKeys.png" width="11px" height="12px" preserveAspectRatio="xMinYMin meet" x="289.5" y="-124.7"/>
<text text-anchor="start" x="304.5" y="-114.8" font-family="Helvetica,sans-Serif" font-size="11.00" fill="#000000">local_id</text>
<polygon fill="none" stroke="#000000" points="389.5,-107.7 389.5,-129.7 473.5,-129.7 473.5,-107.7 389.5,-107.7"/>
<text text-anchor="start" x="392.5" y="-115.4" font-family="Helvetica,sans-Serif" font-size="11.00" fill="#000000">int4[10]</text>
<polygon fill="none" stroke="#000000" points="284.5,-85.7 284.5,-107.7 389.5,-107.7 389.5,-85.7 284.5,-85.7"/>
<text text-anchor="start" x="304.5" y="-92.8" font-family="Helvetica,sans-Serif" font-size="11.00" fill="#000000">end_time</text>
<polygon fill="none" stroke="#000000" points="389.5,-85.7 389.5,-107.7 473.5,-107.7 473.5,-85.7 389.5,-85.7"/>
<text text-anchor="start" x="392.3807" y="-93.4" font-family="Helvetica,sans-Serif" font-size="11.00" fill="#000000">timestamp[29,6]</text>
<polygon fill="none" stroke="#000000" points="284.5,-63.7 284.5,-85.7 389.5,-85.7 389.5,-63.7 284.5,-63.7"/>
<text text-anchor="start" x="304.5" y="-70.8" font-family="Helvetica,sans-Serif" font-size="11.00" fill="#000000">start_time</text>
<polygon fill="none" stroke="#000000" points="389.5,-63.7 389.5,-85.7 473.5,-85.7 473.5,-63.7 389.5,-63.7"/>
<text text-anchor="start" x="392.3807" y="-71.4" font-family="Helvetica,sans-Serif" font-size="11.00" fill="#000000">timestamp[29,6]</text>
<polygon fill="#ffffff" stroke="transparent" points="284.5,-44.7 284.5,-63.7 341.5,-63.7 341.5,-44.7 284.5,-44.7"/>
<polygon fill="none" stroke="#000000" points="284.5,-44.7 284.5,-63.7 341.5,-63.7 341.5,-44.7 284.5,-44.7"/>
<text text-anchor="start" x="287.5" y="-50.8" font-family="Helvetica,sans-Serif" font-size="11.00" fill="#000000">&lt; 2</text>
<polygon fill="#ffffff" stroke="transparent" points="341.5,-44.7 341.5,-63.7 389.5,-63.7 389.5,-44.7 341.5,-44.7"/>
<polygon fill="none" stroke="#000000" points="341.5,-44.7 341.5,-63.7 389.5,-63.7 389.5,-44.7 341.5,-44.7"/>
<text text-anchor="start" x="380.3862" y="-50.8" font-family="Helvetica,sans-Serif" font-size="11.00" fill="#000000"> &#160;</text>
<polygon fill="#ffffff" stroke="transparent" points="389.5,-44.7 389.5,-63.7 473.5,-63.7 473.5,-44.7 389.5,-44.7"/>
<polygon fill="none" stroke="#000000" points="389.5,-44.7 389.5,-63.7 473.5,-63.7 473.5,-44.7 389.5,-44.7"/>
<text text-anchor="start" x="454.9053" y="-50.8" font-family="Helvetica,sans-Serif" font-size="11.00" fill="#000000">0 &gt;</text>
<polygon fill="none" stroke="#000000" stroke-width="2" points="283,-43.7 283,-197.7 474,-197.7 474,-43.7 283,-43.7"/>
</a>
</g>
</g>
<!-- encontros -->
<g id="node2" class="node">
<title>encontros</title>
<g id="a_node2"><a xlink:href="../../tables/encontros.html" xlink:title="encontros" target="_top">
<polygon fill="#ffffff" stroke="transparent" points="136,-164.2 136,-291.2 233,-291.2 233,-164.2 136,-164.2"/>
<polygon fill="#f5f5f5" stroke="transparent" points="136.5,-267.7 136.5,-290.7 233.5,-290.7 233.5,-267.7 136.5,-267.7"/>
<polygon fill="none" stroke="#000000" points="136.5,-267.7 136.5,-290.7 233.5,-290.7 233.5,-267.7 136.5,-267.7"/>
<text text-anchor="start" x="141.5" y="-276.3" font-family="Helvetica,sans-Serif" font-weight="bold" font-size="11.00" fill="#000000">encontros</text>
<text text-anchor="start" x="199.0219" y="-275.8" font-family="Helvetica,sans-Serif" font-size="11.00" fill="#000000">[table]</text>
<polygon fill="none" stroke="#000000" points="136.5,-245.7 136.5,-267.7 233.5,-267.7 233.5,-245.7 136.5,-245.7"/>
<image xlink:href="../../images/primaryKeys.png" width="11px" height="12px" preserveAspectRatio="xMinYMin meet" x="141.5" y="-262.7"/>
<text text-anchor="start" x="165.5" y="-252.8" font-family="Helvetica,sans-Serif" font-size="11.00" fill="#000000">id</text>
<polygon fill="none" stroke="#000000" points="136.5,-223.7 136.5,-245.7 233.5,-245.7 233.5,-223.7 136.5,-223.7"/>
<image xlink:href="../../images/foreignKeys.png" width="11px" height="12px" preserveAspectRatio="xMinYMin meet" x="141.5" y="-240.7"/>
<text text-anchor="start" x="165.5" y="-230.8" font-family="Helvetica,sans-Serif" font-size="11.00" fill="#000000">id_grupo</text>
<polygon fill="none" stroke="#000000" points="136.5,-201.7 136.5,-223.7 233.5,-223.7 233.5,-201.7 136.5,-201.7"/>
<image xlink:href="../../images/foreignKeys.png" width="11px" height="12px" preserveAspectRatio="xMinYMin meet" x="141.5" y="-218.7"/>
<text text-anchor="start" x="165.5" y="-208.8" font-family="Helvetica,sans-Serif" font-size="11.00" fill="#000000">id_turma</text>
<polygon fill="none" stroke="#000000" points="136.5,-182.7 136.5,-201.7 233.5,-201.7 233.5,-182.7 136.5,-182.7"/>
<text text-anchor="start" x="139.5" y="-188.8" font-family="Helvetica,sans-Serif" font-size="11.00" fill="#000000">...</text>
<polygon fill="#ffffff" stroke="transparent" points="136.5,-163.7 136.5,-182.7 178.5,-182.7 178.5,-163.7 136.5,-163.7"/>
<polygon fill="none" stroke="#000000" points="136.5,-163.7 136.5,-182.7 178.5,-182.7 178.5,-163.7 136.5,-163.7"/>
<text text-anchor="start" x="139.5" y="-169.8" font-family="Helvetica,sans-Serif" font-size="11.00" fill="#000000">&lt; 2</text>
<polygon fill="#ffffff" stroke="transparent" points="178.5,-163.7 178.5,-182.7 201.5,-182.7 201.5,-163.7 178.5,-163.7"/>
<polygon fill="none" stroke="#000000" points="178.5,-163.7 178.5,-182.7 201.5,-182.7 201.5,-163.7 178.5,-163.7"/>
<text text-anchor="start" x="192.3862" y="-169.8" font-family="Helvetica,sans-Serif" font-size="11.00" fill="#000000"> &#160;</text>
<polygon fill="#ffffff" stroke="transparent" points="201.5,-163.7 201.5,-182.7 233.5,-182.7 233.5,-163.7 201.5,-163.7"/>
<polygon fill="none" stroke="#000000" points="201.5,-163.7 201.5,-182.7 233.5,-182.7 233.5,-163.7 201.5,-163.7"/>
<text text-anchor="start" x="214.9053" y="-169.8" font-family="Helvetica,sans-Serif" font-size="11.00" fill="#000000">2 &gt;</text>
</a>
</g>
</g>
<!-- agendamentos&#45;&gt;encontros -->
<g id="edge1" class="edge">
<title>agendamentos:w&#45;&gt;encontros:e</title>
<path fill="none" stroke="#000000" d="M270.6116,-166.7391C246.5536,-184.7313 275.0893,-256.7 233.5,-256.7"/>
<polygon fill="#000000" stroke="#000000" points="276.8183,-164.9341 285.5053,-166.1568 280.6591,-163.817 284.5,-162.7 284.5,-162.7 284.5,-162.7 280.6591,-163.817 283.4947,-159.2432 276.8183,-164.9341 276.8183,-164.9341"/>
<ellipse fill="none" stroke="#000000" cx="273.7456" cy="-165.8277" rx="3.2" ry="3.2"/>
</g>
<!-- locais -->
<g id="node3" class="node">
<title>locais</title>
<g id="a_node3"><a xlink:href="../../tables/locais.html" xlink:title="locais" target="_top">
<polygon fill="#ffffff" stroke="transparent" points="142,-38.2 142,-143.2 227,-143.2 227,-38.2 142,-38.2"/>
<polygon fill="#f5f5f5" stroke="transparent" points="142.5,-119.7 142.5,-142.7 227.5,-142.7 227.5,-119.7 142.5,-119.7"/>
<polygon fill="none" stroke="#000000" points="142.5,-119.7 142.5,-142.7 227.5,-142.7 227.5,-119.7 142.5,-119.7"/>
<text text-anchor="start" x="147.5" y="-128.3" font-family="Helvetica,sans-Serif" font-weight="bold" font-size="11.00" fill="#000000">locais</text>
<text text-anchor="start" x="192.5437" y="-127.8" font-family="Helvetica,sans-Serif" font-size="11.00" fill="#000000">[table]</text>
<polygon fill="none" stroke="#000000" points="142.5,-97.7 142.5,-119.7 227.5,-119.7 227.5,-97.7 142.5,-97.7"/>
<image xlink:href="../../images/primaryKeys.png" width="11px" height="12px" preserveAspectRatio="xMinYMin meet" x="147.5" y="-114.7"/>
<text text-anchor="start" x="162.5" y="-104.8" font-family="Helvetica,sans-Serif" font-size="11.00" fill="#000000">id</text>
<polygon fill="#ffffff" stroke="transparent" points="142.5,-75.7 142.5,-97.7 227.5,-97.7 227.5,-75.7 142.5,-75.7"/>
<polygon fill="none" stroke="#000000" points="142.5,-75.7 142.5,-97.7 227.5,-97.7 227.5,-75.7 142.5,-75.7"/>
<text text-anchor="start" x="162.5" y="-82.8" font-family="Helvetica,sans-Serif" font-size="11.00" fill="#000000">nome</text>
<polygon fill="none" stroke="#000000" points="142.5,-56.7 142.5,-75.7 227.5,-75.7 227.5,-56.7 142.5,-56.7"/>
<text text-anchor="start" x="145.5" y="-62.8" font-family="Helvetica,sans-Serif" font-size="11.00" fill="#000000">...</text>
<polygon fill="#ffffff" stroke="transparent" points="142.5,-37.7 142.5,-56.7 174.5,-56.7 174.5,-37.7 142.5,-37.7"/>
<polygon fill="none" stroke="#000000" points="142.5,-37.7 142.5,-56.7 174.5,-56.7 174.5,-37.7 142.5,-37.7"/>
<text text-anchor="start" x="145.5" y="-43.8" font-family="Helvetica,sans-Serif" font-size="11.00" fill="#000000"> &#160;</text>
<polygon fill="#ffffff" stroke="transparent" points="174.5,-37.7 174.5,-56.7 196.5,-56.7 196.5,-37.7 174.5,-37.7"/>
<polygon fill="none" stroke="#000000" points="174.5,-37.7 174.5,-56.7 196.5,-56.7 196.5,-37.7 174.5,-37.7"/>
<text text-anchor="start" x="187.3862" y="-43.8" font-family="Helvetica,sans-Serif" font-size="11.00" fill="#000000"> &#160;</text>
<polygon fill="#ffffff" stroke="transparent" points="196.5,-37.7 196.5,-56.7 227.5,-56.7 227.5,-37.7 196.5,-37.7"/>
<polygon fill="none" stroke="#000000" points="196.5,-37.7 196.5,-56.7 227.5,-56.7 227.5,-37.7 196.5,-37.7"/>
<text text-anchor="start" x="208.9053" y="-43.8" font-family="Helvetica,sans-Serif" font-size="11.00" fill="#000000">1 &gt;</text>
</a>
</g>
</g>
<!-- agendamentos&#45;&gt;locais -->
<g id="edge2" class="edge">
<title>agendamentos:w&#45;&gt;locais:e</title>
<path fill="none" stroke="#000000" d="M270.0932,-117.4738C255.3827,-114.8035 247.5939,-108.7 227.5,-108.7"/>
<polygon fill="#000000" stroke="#000000" points="276.5288,-118.0215 284.1947,-122.287 280.5144,-118.3608 284.5,-118.7 284.5,-118.7 284.5,-118.7 280.5144,-118.3608 284.8053,-115.113 276.5288,-118.0215 276.5288,-118.0215"/>
<ellipse fill="none" stroke="#000000" cx="273.3403" cy="-117.7501" rx="3.2" ry="3.2"/>
</g>
<!-- grupos -->
<g id="node4" class="node">
<title>grupos</title>
<g id="a_node4"><a xlink:href="../../tables/grupos.html" xlink:title="grupos" target="_top">
<polygon fill="#ffffff" stroke="transparent" points="8,-237.2 8,-298.2 87,-298.2 87,-237.2 8,-237.2"/>
<polygon fill="#f5f5f5" stroke="transparent" points="8.5,-274.7 8.5,-297.7 87.5,-297.7 87.5,-274.7 8.5,-274.7"/>
<polygon fill="none" stroke="#000000" points="8.5,-274.7 8.5,-297.7 87.5,-297.7 87.5,-274.7 8.5,-274.7"/>
<text text-anchor="start" x="13.5" y="-283.3" font-family="Helvetica,sans-Serif" font-weight="bold" font-size="11.00" fill="#000000">grupos</text>
<text text-anchor="start" x="53.0219" y="-282.8" font-family="Helvetica,sans-Serif" font-size="11.00" fill="#000000">[table]</text>
<polygon fill="none" stroke="#000000" points="8.5,-255.7 8.5,-274.7 87.5,-274.7 87.5,-255.7 8.5,-255.7"/>
<text text-anchor="start" x="11.5" y="-261.8" font-family="Helvetica,sans-Serif" font-size="11.00" fill="#000000">...</text>
<polygon fill="#ffffff" stroke="transparent" points="8.5,-236.7 8.5,-255.7 41.5,-255.7 41.5,-236.7 8.5,-236.7"/>
<polygon fill="none" stroke="#000000" points="8.5,-236.7 8.5,-255.7 41.5,-255.7 41.5,-236.7 8.5,-236.7"/>
<text text-anchor="start" x="11.5" y="-242.8" font-family="Helvetica,sans-Serif" font-size="11.00" fill="#000000">&lt; 2</text>
<polygon fill="#ffffff" stroke="transparent" points="41.5,-236.7 41.5,-255.7 59.5,-255.7 59.5,-236.7 41.5,-236.7"/>
<polygon fill="none" stroke="#000000" points="41.5,-236.7 41.5,-255.7 59.5,-255.7 59.5,-236.7 41.5,-236.7"/>
<text text-anchor="start" x="50.3862" y="-242.8" font-family="Helvetica,sans-Serif" font-size="11.00" fill="#000000"> &#160;</text>
<polygon fill="#ffffff" stroke="transparent" points="59.5,-236.7 59.5,-255.7 87.5,-255.7 87.5,-236.7 59.5,-236.7"/>
<polygon fill="none" stroke="#000000" points="59.5,-236.7 59.5,-255.7 87.5,-255.7 87.5,-236.7 59.5,-236.7"/>
<text text-anchor="start" x="68.9053" y="-242.8" font-family="Helvetica,sans-Serif" font-size="11.00" fill="#000000">2 &gt;</text>
</a>
</g>
</g>
<!-- encontros&#45;&gt;grupos -->
<g id="edge3" class="edge">
<title>encontros:w&#45;&gt;grupos:e</title>
<path fill="none" stroke="#000000" d="M122.384,-238.8714C110.4189,-247.1146 107.0504,-264.7 87.5,-264.7"/>
<polygon fill="#000000" stroke="#000000" points="128.828,-236.9672 137.5202,-238.1524 132.664,-235.8336 136.5,-234.7 136.5,-234.7 136.5,-234.7 132.664,-235.8336 135.4798,-231.2476 128.828,-236.9672 128.828,-236.9672"/>
<ellipse fill="none" stroke="#000000" cx="125.7591" cy="-237.874" rx="3.2" ry="3.2"/>
</g>
<!-- turmas -->
<g id="node5" class="node">
<title>turmas</title>
<g id="a_node5"><a xlink:href="../../tables/turmas.html" xlink:title="turmas" target="_top">
<polygon fill="#ffffff" stroke="transparent" points="8,-155.2 8,-216.2 87,-216.2 87,-155.2 8,-155.2"/>
<polygon fill="#f5f5f5" stroke="transparent" points="8.5,-192.7 8.5,-215.7 87.5,-215.7 87.5,-192.7 8.5,-192.7"/>
<polygon fill="none" stroke="#000000" points="8.5,-192.7 8.5,-215.7 87.5,-215.7 87.5,-192.7 8.5,-192.7"/>
<text text-anchor="start" x="13.5" y="-201.3" font-family="Helvetica,sans-Serif" font-weight="bold" font-size="11.00" fill="#000000">turmas</text>
<text text-anchor="start" x="53.0219" y="-200.8" font-family="Helvetica,sans-Serif" font-size="11.00" fill="#000000">[table]</text>
<polygon fill="none" stroke="#000000" points="8.5,-173.7 8.5,-192.7 87.5,-192.7 87.5,-173.7 8.5,-173.7"/>
<text text-anchor="start" x="11.5" y="-179.8" font-family="Helvetica,sans-Serif" font-size="11.00" fill="#000000">...</text>
<polygon fill="#ffffff" stroke="transparent" points="8.5,-154.7 8.5,-173.7 41.5,-173.7 41.5,-154.7 8.5,-154.7"/>
<polygon fill="none" stroke="#000000" points="8.5,-154.7 8.5,-173.7 41.5,-173.7 41.5,-154.7 8.5,-154.7"/>
<text text-anchor="start" x="11.5" y="-160.8" font-family="Helvetica,sans-Serif" font-size="11.00" fill="#000000">&lt; 2</text>
<polygon fill="#ffffff" stroke="transparent" points="41.5,-154.7 41.5,-173.7 59.5,-173.7 59.5,-154.7 41.5,-154.7"/>
<polygon fill="none" stroke="#000000" points="41.5,-154.7 41.5,-173.7 59.5,-173.7 59.5,-154.7 41.5,-154.7"/>
<text text-anchor="start" x="50.3862" y="-160.8" font-family="Helvetica,sans-Serif" font-size="11.00" fill="#000000"> &#160;</text>
<polygon fill="#ffffff" stroke="transparent" points="59.5,-154.7 59.5,-173.7 87.5,-173.7 87.5,-154.7 59.5,-154.7"/>
<polygon fill="none" stroke="#000000" points="59.5,-154.7 59.5,-173.7 87.5,-173.7 87.5,-154.7 59.5,-154.7"/>
<text text-anchor="start" x="68.9053" y="-160.8" font-family="Helvetica,sans-Serif" font-size="11.00" fill="#000000">2 &gt;</text>
</a>
</g>
</g>
<!-- encontros&#45;&gt;turmas -->
<g id="edge4" class="edge">
<title>encontros:w&#45;&gt;turmas:e</title>
<path fill="none" stroke="#000000" d="M122.384,-208.5286C110.4189,-200.2854 107.0504,-182.7 87.5,-182.7"/>
<polygon fill="#000000" stroke="#000000" points="128.828,-210.4328 135.4798,-216.1524 132.664,-211.5664 136.5,-212.7 136.5,-212.7 136.5,-212.7 132.664,-211.5664 137.5202,-209.2476 128.828,-210.4328 128.828,-210.4328"/>
<ellipse fill="none" stroke="#000000" cx="125.7591" cy="-209.526" rx="3.2" ry="3.2"/>
</g>
<!-- mensagens -->
<g id="node6" class="node">
<title>mensagens</title>
<g id="a_node6"><a xlink:href="../../tables/mensagens.html" xlink:title="mensagens" target="_top">
<polygon fill="#ffffff" stroke="transparent" points="326,-229.2 326,-290.2 431,-290.2 431,-229.2 326,-229.2"/>
<polygon fill="#f5f5f5" stroke="transparent" points="326.5,-266.7 326.5,-289.7 431.5,-289.7 431.5,-266.7 326.5,-266.7"/>
<polygon fill="none" stroke="#000000" points="326.5,-266.7 326.5,-289.7 431.5,-289.7 431.5,-266.7 326.5,-266.7"/>
<text text-anchor="start" x="331.5" y="-275.3" font-family="Helvetica,sans-Serif" font-weight="bold" font-size="11.00" fill="#000000">mensagens</text>
<text text-anchor="start" x="397.0219" y="-274.8" font-family="Helvetica,sans-Serif" font-size="11.00" fill="#000000">[table]</text>
<polygon fill="none" stroke="#000000" points="326.5,-247.7 326.5,-266.7 431.5,-266.7 431.5,-247.7 326.5,-247.7"/>
<text text-anchor="start" x="329.5" y="-253.8" font-family="Helvetica,sans-Serif" font-size="11.00" fill="#000000">...</text>
<polygon fill="#ffffff" stroke="transparent" points="326.5,-228.7 326.5,-247.7 377.5,-247.7 377.5,-228.7 326.5,-228.7"/>
<polygon fill="none" stroke="#000000" points="326.5,-228.7 326.5,-247.7 377.5,-247.7 377.5,-228.7 326.5,-228.7"/>
<text text-anchor="start" x="329.5" y="-234.8" font-family="Helvetica,sans-Serif" font-size="11.00" fill="#000000">&lt; 2</text>
<polygon fill="#ffffff" stroke="transparent" points="377.5,-228.7 377.5,-247.7 404.5,-247.7 404.5,-228.7 377.5,-228.7"/>
<polygon fill="none" stroke="#000000" points="377.5,-228.7 377.5,-247.7 404.5,-247.7 404.5,-228.7 377.5,-228.7"/>
<text text-anchor="start" x="395.3862" y="-234.8" font-family="Helvetica,sans-Serif" font-size="11.00" fill="#000000"> &#160;</text>
<polygon fill="#ffffff" stroke="transparent" points="404.5,-228.7 404.5,-247.7 431.5,-247.7 431.5,-228.7 404.5,-228.7"/>
<polygon fill="none" stroke="#000000" points="404.5,-228.7 404.5,-247.7 431.5,-247.7 431.5,-228.7 404.5,-228.7"/>
<text text-anchor="start" x="422.3862" y="-234.8" font-family="Helvetica,sans-Serif" font-size="11.00" fill="#000000"> &#160;</text>
</a>
</g>
</g>
<!-- mensagens&#45;&gt;encontros -->
<g id="edge5" class="edge">
<title>mensagens:w&#45;&gt;encontros:e</title>
<path fill="none" stroke="#000000" d="M311.9282,-256.7C281.9875,-256.7 269.5052,-256.7 233.5,-256.7"/>
<polygon fill="#000000" stroke="#000000" points="318.5,-256.7001 326.5,-260.3 322.5,-256.7 326.5,-256.7 326.5,-256.7 326.5,-256.7 322.5,-256.7 326.5,-253.1 318.5,-256.7001 318.5,-256.7001"/>
<ellipse fill="none" stroke="#000000" cx="315.3" cy="-256.7001" rx="3.2" ry="3.2"/>
</g>
</g>
</svg>
