<?xml version="1.0" encoding="UTF-8" standalone="no"?>
<!DOCTYPE svg PUBLIC "-//W3C//DTD SVG 1.1//EN"
 "http://www.w3.org/Graphics/SVG/1.1/DTD/svg11.dtd">
<!-- Generated by graphviz version 2.40.1 (20161225.0304)
 -->
<!-- Title: oneDegreeRelationshipsDiagram Pages: 1 -->
<svg width="363pt" height="303pt"
 viewBox="0.00 0.00 363.00 303.20" xmlns="http://www.w3.org/2000/svg" xmlns:xlink="http://www.w3.org/1999/xlink">
<g id="graph0" class="graph" transform="scale(1 1) rotate(0) translate(4 299.2)">
<title>oneDegreeRelationshipsDiagram</title>
<polygon fill="#ffffff" stroke="transparent" points="-4,4 -4,-299.2 359,-299.2 359,4 -4,4"/>
<text text-anchor="middle" x="72.4936" y="-7.3" font-family="Helvetica,sans-Serif" font-size="11.00" fill="#000000">Generated by SchemaSpy</text>
<!-- agendamentos -->
<g id="node1" class="node">
<title>agendamentos</title>
<g id="a_node1"><a xlink:href="../../tables/agendamentos.html" xlink:title="agendamentos" target="_top">
<polygon fill="#ffffff" stroke="transparent" points="154,-84.7 154,-240.7 347,-240.7 347,-84.7 154,-84.7"/>
<polygon fill="#f5f5f5" stroke="transparent" points="156.5,-215.7 156.5,-238.7 345.5,-238.7 345.5,-215.7 156.5,-215.7"/>
<polygon fill="none" stroke="#000000" points="156.5,-215.7 156.5,-238.7 345.5,-238.7 345.5,-215.7 156.5,-215.7"/>
<text text-anchor="start" x="161.5" y="-224.3" font-family="Helvetica,sans-Serif" font-weight="bold" font-size="11.00" fill="#000000">agendamentos</text>
<text text-anchor="start" x="310.5437" y="-223.8" font-family="Helvetica,sans-Serif" font-size="11.00" fill="#000000">[table]</text>
<polygon fill="none" stroke="#000000" points="156.5,-193.7 156.5,-215.7 261.5,-215.7 261.5,-193.7 156.5,-193.7"/>
<image xlink:href="../../images/foreignKeys.png" width="11px" height="12px" preserveAspectRatio="xMinYMin meet" x="161.5" y="-210.7"/>
<text text-anchor="start" x="176.5" y="-200.8" font-family="Helvetica,sans-Serif" font-size="11.00" fill="#000000">encontro_id</text>
<polygon fill="none" stroke="#000000" points="261.5,-193.7 261.5,-215.7 345.5,-215.7 345.5,-193.7 261.5,-193.7"/>
<text text-anchor="start" x="264.5" y="-201.4" font-family="Helvetica,sans-Serif" font-size="11.00" fill="#000000">int4[10]</text>
<polygon fill="none" stroke="#000000" points="156.5,-171.7 156.5,-193.7 261.5,-193.7 261.5,-171.7 156.5,-171.7"/>
<image xlink:href="../../images/primaryKeys.png" width="11px" height="12px" preserveAspectRatio="xMinYMin meet" x="161.5" y="-188.7"/>
<text text-anchor="start" x="176.5" y="-178.8" font-family="Helvetica,sans-Serif" font-size="11.00" fill="#000000">id</text>
<polygon fill="none" stroke="#000000" points="261.5,-171.7 261.5,-193.7 345.5,-193.7 345.5,-171.7 261.5,-171.7"/>
<text text-anchor="start" x="264.5" y="-179.4" font-family="Helvetica,sans-Serif" font-size="11.00" fill="#000000">serial[10]</text>
<polygon fill="none" stroke="#000000" points="156.5,-149.7 156.5,-171.7 261.5,-171.7 261.5,-149.7 156.5,-149.7"/>
<image xlink:href="../../images/foreignKeys.png" width="11px" height="12px" preserveAspectRatio="xMinYMin meet" x="161.5" y="-166.7"/>
<text text-anchor="start" x="176.5" y="-156.8" font-family="Helvetica,sans-Serif" font-size="11.00" fill="#000000">local_id</text>
<polygon fill="none" stroke="#000000" points="261.5,-149.7 261.5,-171.7 345.5,-171.7 345.5,-149.7 261.5,-149.7"/>
<text text-anchor="start" x="264.5" y="-157.4" font-family="Helvetica,sans-Serif" font-size="11.00" fill="#000000">int4[10]</text>
<polygon fill="none" stroke="#000000" points="156.5,-127.7 156.5,-149.7 261.5,-149.7 261.5,-127.7 156.5,-127.7"/>
<text text-anchor="start" x="176.5" y="-134.8" font-family="Helvetica,sans-Serif" font-size="11.00" fill="#000000">end_time</text>
<polygon fill="none" stroke="#000000" points="261.5,-127.7 261.5,-149.7 345.5,-149.7 345.5,-127.7 261.5,-127.7"/>
<text text-anchor="start" x="264.3807" y="-135.4" font-family="Helvetica,sans-Serif" font-size="11.00" fill="#000000">timestamp[29,6]</text>
<polygon fill="none" stroke="#000000" points="156.5,-105.7 156.5,-127.7 261.5,-127.7 261.5,-105.7 156.5,-105.7"/>
<text text-anchor="start" x="176.5" y="-112.8" font-family="Helvetica,sans-Serif" font-size="11.00" fill="#000000">start_time</text>
<polygon fill="none" stroke="#000000" points="261.5,-105.7 261.5,-127.7 345.5,-127.7 345.5,-105.7 261.5,-105.7"/>
<text text-anchor="start" x="264.3807" y="-113.4" font-family="Helvetica,sans-Serif" font-size="11.00" fill="#000000">timestamp[29,6]</text>
<polygon fill="#ffffff" stroke="transparent" points="156.5,-86.7 156.5,-105.7 213.5,-105.7 213.5,-86.7 156.5,-86.7"/>
<polygon fill="none" stroke="#000000" points="156.5,-86.7 156.5,-105.7 213.5,-105.7 213.5,-86.7 156.5,-86.7"/>
<text text-anchor="start" x="159.5" y="-92.8" font-family="Helvetica,sans-Serif" font-size="11.00" fill="#000000">&lt; 2</text>
<polygon fill="#ffffff" stroke="transparent" points="213.5,-86.7 213.5,-105.7 261.5,-105.7 261.5,-86.7 213.5,-86.7"/>
<polygon fill="none" stroke="#000000" points="213.5,-86.7 213.5,-105.7 261.5,-105.7 261.5,-86.7 213.5,-86.7"/>
<text text-anchor="start" x="252.3862" y="-92.8" font-family="Helvetica,sans-Serif" font-size="11.00" fill="#000000"> &#160;</text>
<polygon fill="#ffffff" stroke="transparent" points="261.5,-86.7 261.5,-105.7 345.5,-105.7 345.5,-86.7 261.5,-86.7"/>
<polygon fill="none" stroke="#000000" points="261.5,-86.7 261.5,-105.7 345.5,-105.7 345.5,-86.7 261.5,-86.7"/>
<text text-anchor="start" x="326.9053" y="-92.8" font-family="Helvetica,sans-Serif" font-size="11.00" fill="#000000">0 &gt;</text>
<polygon fill="none" stroke="#000000" stroke-width="2" points="155,-85.7 155,-239.7 346,-239.7 346,-85.7 155,-85.7"/>
</a>
</g>
</g>
<!-- encontros -->
<g id="node2" class="node">
<title>encontros</title>
<g id="a_node2"><a xlink:href="../../tables/encontros.html" xlink:title="encontros" target="_top">
<polygon fill="#ffffff" stroke="transparent" points="8,-164.2 8,-291.2 105,-291.2 105,-164.2 8,-164.2"/>
<polygon fill="#f5f5f5" stroke="transparent" points="8.5,-267.7 8.5,-290.7 105.5,-290.7 105.5,-267.7 8.5,-267.7"/>
<polygon fill="none" stroke="#000000" points="8.5,-267.7 8.5,-290.7 105.5,-290.7 105.5,-267.7 8.5,-267.7"/>
<text text-anchor="start" x="13.5" y="-276.3" font-family="Helvetica,sans-Serif" font-weight="bold" font-size="11.00" fill="#000000">encontros</text>
<text text-anchor="start" x="71.0219" y="-275.8" font-family="Helvetica,sans-Serif" font-size="11.00" fill="#000000">[table]</text>
<polygon fill="none" stroke="#000000" points="8.5,-245.7 8.5,-267.7 105.5,-267.7 105.5,-245.7 8.5,-245.7"/>
<image xlink:href="../../images/primaryKeys.png" width="11px" height="12px" preserveAspectRatio="xMinYMin meet" x="13.5" y="-262.7"/>
<text text-anchor="start" x="37.5" y="-252.8" font-family="Helvetica,sans-Serif" font-size="11.00" fill="#000000">id</text>
<polygon fill="none" stroke="#000000" points="8.5,-223.7 8.5,-245.7 105.5,-245.7 105.5,-223.7 8.5,-223.7"/>
<image xlink:href="../../images/foreignKeys.png" width="11px" height="12px" preserveAspectRatio="xMinYMin meet" x="13.5" y="-240.7"/>
<text text-anchor="start" x="37.5" y="-230.8" font-family="Helvetica,sans-Serif" font-size="11.00" fill="#000000">id_grupo</text>
<polygon fill="none" stroke="#000000" points="8.5,-201.7 8.5,-223.7 105.5,-223.7 105.5,-201.7 8.5,-201.7"/>
<image xlink:href="../../images/foreignKeys.png" width="11px" height="12px" preserveAspectRatio="xMinYMin meet" x="13.5" y="-218.7"/>
<text text-anchor="start" x="37.5" y="-208.8" font-family="Helvetica,sans-Serif" font-size="11.00" fill="#000000">id_turma</text>
<polygon fill="none" stroke="#000000" points="8.5,-182.7 8.5,-201.7 105.5,-201.7 105.5,-182.7 8.5,-182.7"/>
<text text-anchor="start" x="11.5" y="-188.8" font-family="Helvetica,sans-Serif" font-size="11.00" fill="#000000">...</text>
<polygon fill="#ffffff" stroke="transparent" points="8.5,-163.7 8.5,-182.7 50.5,-182.7 50.5,-163.7 8.5,-163.7"/>
<polygon fill="none" stroke="#000000" points="8.5,-163.7 8.5,-182.7 50.5,-182.7 50.5,-163.7 8.5,-163.7"/>
<text text-anchor="start" x="11.5" y="-169.8" font-family="Helvetica,sans-Serif" font-size="11.00" fill="#000000">&lt; 2</text>
<polygon fill="#ffffff" stroke="transparent" points="50.5,-163.7 50.5,-182.7 73.5,-182.7 73.5,-163.7 50.5,-163.7"/>
<polygon fill="none" stroke="#000000" points="50.5,-163.7 50.5,-182.7 73.5,-182.7 73.5,-163.7 50.5,-163.7"/>
<text text-anchor="start" x="64.3862" y="-169.8" font-family="Helvetica,sans-Serif" font-size="11.00" fill="#000000"> &#160;</text>
<polygon fill="#ffffff" stroke="transparent" points="73.5,-163.7 73.5,-182.7 105.5,-182.7 105.5,-163.7 73.5,-163.7"/>
<polygon fill="none" stroke="#000000" points="73.5,-163.7 73.5,-182.7 105.5,-182.7 105.5,-163.7 73.5,-163.7"/>
<text text-anchor="start" x="86.9053" y="-169.8" font-family="Helvetica,sans-Serif" font-size="11.00" fill="#000000">2 &gt;</text>
</a>
</g>
</g>
<!-- agendamentos&#45;&gt;encontros -->
<g id="edge1" class="edge">
<title>agendamentos:w&#45;&gt;encontros:e</title>
<path fill="none" stroke="#000000" d="M142.5468,-209.4988C127.661,-222.3719 131.8017,-256.7 105.5,-256.7"/>
<polygon fill="#000000" stroke="#000000" points="148.9349,-207.3018 157.6708,-208.1043 152.7175,-206.0009 156.5,-204.7 156.5,-204.7 156.5,-204.7 152.7175,-206.0009 155.3292,-201.2957 148.9349,-207.3018 148.9349,-207.3018"/>
<ellipse fill="none" stroke="#000000" cx="145.9089" cy="-208.3426" rx="3.2" ry="3.2"/>
</g>
<!-- locais -->
<g id="node3" class="node">
<title>locais</title>
<g id="a_node3"><a xlink:href="../../tables/locais.html" xlink:title="locais" target="_top">
<polygon fill="#ffffff" stroke="transparent" points="14,-38.2 14,-143.2 99,-143.2 99,-38.2 14,-38.2"/>
<polygon fill="#f5f5f5" stroke="transparent" points="14.5,-119.7 14.5,-142.7 99.5,-142.7 99.5,-119.7 14.5,-119.7"/>
<polygon fill="none" stroke="#000000" points="14.5,-119.7 14.5,-142.7 99.5,-142.7 99.5,-119.7 14.5,-119.7"/>
<text text-anchor="start" x="19.5" y="-128.3" font-family="Helvetica,sans-Serif" font-weight="bold" font-size="11.00" fill="#000000">locais</text>
<text text-anchor="start" x="64.5437" y="-127.8" font-family="Helvetica,sans-Serif" font-size="11.00" fill="#000000">[table]</text>
<polygon fill="none" stroke="#000000" points="14.5,-97.7 14.5,-119.7 99.5,-119.7 99.5,-97.7 14.5,-97.7"/>
<image xlink:href="../../images/primaryKeys.png" width="11px" height="12px" preserveAspectRatio="xMinYMin meet" x="19.5" y="-114.7"/>
<text text-anchor="start" x="34.5" y="-104.8" font-family="Helvetica,sans-Serif" font-size="11.00" fill="#000000">id</text>
<polygon fill="#ffffff" stroke="transparent" points="14.5,-75.7 14.5,-97.7 99.5,-97.7 99.5,-75.7 14.5,-75.7"/>
<polygon fill="none" stroke="#000000" points="14.5,-75.7 14.5,-97.7 99.5,-97.7 99.5,-75.7 14.5,-75.7"/>
<text text-anchor="start" x="34.5" y="-82.8" font-family="Helvetica,sans-Serif" font-size="11.00" fill="#000000">nome</text>
<polygon fill="none" stroke="#000000" points="14.5,-56.7 14.5,-75.7 99.5,-75.7 99.5,-56.7 14.5,-56.7"/>
<text text-anchor="start" x="17.5" y="-62.8" font-family="Helvetica,sans-Serif" font-size="11.00" fill="#000000">...</text>
<polygon fill="#ffffff" stroke="transparent" points="14.5,-37.7 14.5,-56.7 46.5,-56.7 46.5,-37.7 14.5,-37.7"/>
<polygon fill="none" stroke="#000000" points="14.5,-37.7 14.5,-56.7 46.5,-56.7 46.5,-37.7 14.5,-37.7"/>
<text text-anchor="start" x="17.5" y="-43.8" font-family="Helvetica,sans-Serif" font-size="11.00" fill="#000000"> &#160;</text>
<polygon fill="#ffffff" stroke="transparent" points="46.5,-37.7 46.5,-56.7 68.5,-56.7 68.5,-37.7 46.5,-37.7"/>
<polygon fill="none" stroke="#000000" points="46.5,-37.7 46.5,-56.7 68.5,-56.7 68.5,-37.7 46.5,-37.7"/>
<text text-anchor="start" x="59.3862" y="-43.8" font-family="Helvetica,sans-Serif" font-size="11.00" fill="#000000"> &#160;</text>
<polygon fill="#ffffff" stroke="transparent" points="68.5,-37.7 68.5,-56.7 99.5,-56.7 99.5,-37.7 68.5,-37.7"/>
<polygon fill="none" stroke="#000000" points="68.5,-37.7 68.5,-56.7 99.5,-56.7 99.5,-37.7 68.5,-37.7"/>
<text text-anchor="start" x="80.9053" y="-43.8" font-family="Helvetica,sans-Serif" font-size="11.00" fill="#000000">1 &gt;</text>
</a>
</g>
</g>
<!-- agendamentos&#45;&gt;locais -->
<g id="edge2" class="edge">
<title>agendamentos:w&#45;&gt;locais:e</title>
<path fill="none" stroke="#000000" d="M142.4182,-156.6196C124.835,-144.3611 127.8976,-108.7 99.5,-108.7"/>
<polygon fill="#000000" stroke="#000000" points="148.8161,-158.4735 155.4981,-164.1578 152.658,-159.5867 156.5,-160.7 156.5,-160.7 156.5,-160.7 152.658,-159.5867 157.5019,-157.2422 148.8161,-158.4735 148.8161,-158.4735"/>
<ellipse fill="none" stroke="#000000" cx="145.7425" cy="-157.5829" rx="3.2" ry="3.2"/>
</g>
</g>
</svg>
