<?xml version="1.0" encoding="UTF-8" standalone="no"?>
<!DOCTYPE svg PUBLIC "-//W3C//DTD SVG 1.1//EN"
 "http://www.w3.org/Graphics/SVG/1.1/DTD/svg11.dtd">
<!-- Generated by graphviz version 2.40.1 (20161225.0304)
 -->
<!-- Title: twoDegreesRelationshipsDiagram Pages: 1 -->
<svg width="606pt" height="371pt"
 viewBox="0.00 0.00 606.00 371.20" xmlns="http://www.w3.org/2000/svg" xmlns:xlink="http://www.w3.org/1999/xlink">
<g id="graph0" class="graph" transform="scale(1 1) rotate(0) translate(4 367.2)">
<title>twoDegreesRelationshipsDiagram</title>
<polygon fill="#ffffff" stroke="transparent" points="-4,4 -4,-367.2 602,-367.2 602,4 -4,4"/>
<text text-anchor="middle" x="72.4936" y="-7.3" font-family="Helvetica,sans-Serif" font-size="11.00" fill="#000000">Generated by SchemaSpy</text>
<!-- encontro -->
<g id="node1" class="node">
<title>encontro</title>
<g id="a_node1"><a xlink:href="../../tables/encontro.html" xlink:title="encontro" target="_top">
<polygon fill="#ffffff" stroke="transparent" points="483.5,-134.2 483.5,-195.2 573.5,-195.2 573.5,-134.2 483.5,-134.2"/>
<polygon fill="#f5f5f5" stroke="transparent" points="483.5,-171.7 483.5,-194.7 573.5,-194.7 573.5,-171.7 483.5,-171.7"/>
<polygon fill="none" stroke="#000000" points="483.5,-171.7 483.5,-194.7 573.5,-194.7 573.5,-171.7 483.5,-171.7"/>
<text text-anchor="start" x="488.5" y="-180.3" font-family="Helvetica,sans-Serif" font-weight="bold" font-size="11.00" fill="#000000">encontro</text>
<text text-anchor="start" x="539.0219" y="-179.8" font-family="Helvetica,sans-Serif" font-size="11.00" fill="#000000">[table]</text>
<polygon fill="none" stroke="#000000" points="483.5,-152.7 483.5,-171.7 573.5,-171.7 573.5,-152.7 483.5,-152.7"/>
<text text-anchor="start" x="486.5" y="-158.8" font-family="Helvetica,sans-Serif" font-size="11.00" fill="#000000">...</text>
<polygon fill="#ffffff" stroke="transparent" points="483.5,-133.7 483.5,-152.7 522.5,-152.7 522.5,-133.7 483.5,-133.7"/>
<polygon fill="none" stroke="#000000" points="483.5,-133.7 483.5,-152.7 522.5,-152.7 522.5,-133.7 483.5,-133.7"/>
<text text-anchor="start" x="486.5" y="-139.8" font-family="Helvetica,sans-Serif" font-size="11.00" fill="#000000">&lt; 4</text>
<polygon fill="#ffffff" stroke="transparent" points="522.5,-133.7 522.5,-152.7 543.5,-152.7 543.5,-133.7 522.5,-133.7"/>
<polygon fill="none" stroke="#000000" points="522.5,-133.7 522.5,-152.7 543.5,-152.7 543.5,-133.7 522.5,-133.7"/>
<text text-anchor="start" x="534.3862" y="-139.8" font-family="Helvetica,sans-Serif" font-size="11.00" fill="#000000"> &#160;</text>
<polygon fill="#ffffff" stroke="transparent" points="543.5,-133.7 543.5,-152.7 573.5,-152.7 573.5,-133.7 543.5,-133.7"/>
<polygon fill="none" stroke="#000000" points="543.5,-133.7 543.5,-152.7 573.5,-152.7 573.5,-133.7 543.5,-133.7"/>
<text text-anchor="start" x="554.9053" y="-139.8" font-family="Helvetica,sans-Serif" font-size="11.00" fill="#000000">2 &gt;</text>
</a>
</g>
</g>
<!-- grupo -->
<g id="node2" class="node">
<title>grupo</title>
<g id="a_node2"><a xlink:href="../../tables/grupo.html" xlink:title="grupo" target="_top">
<polygon fill="#ffffff" stroke="transparent" points="346,-268.2 346,-329.2 418,-329.2 418,-268.2 346,-268.2"/>
<polygon fill="#f5f5f5" stroke="transparent" points="346,-305.7 346,-328.7 418,-328.7 418,-305.7 346,-305.7"/>
<polygon fill="none" stroke="#000000" points="346,-305.7 346,-328.7 418,-328.7 418,-305.7 346,-305.7"/>
<text text-anchor="start" x="351" y="-314.3" font-family="Helvetica,sans-Serif" font-weight="bold" font-size="11.00" fill="#000000">grupo</text>
<text text-anchor="start" x="383.5219" y="-313.8" font-family="Helvetica,sans-Serif" font-size="11.00" fill="#000000">[table]</text>
<polygon fill="none" stroke="#000000" points="346,-286.7 346,-305.7 418,-305.7 418,-286.7 346,-286.7"/>
<text text-anchor="start" x="349" y="-292.8" font-family="Helvetica,sans-Serif" font-size="11.00" fill="#000000">...</text>
<polygon fill="#ffffff" stroke="transparent" points="346,-267.7 346,-286.7 376,-286.7 376,-267.7 346,-267.7"/>
<polygon fill="none" stroke="#000000" points="346,-267.7 346,-286.7 376,-286.7 376,-267.7 346,-267.7"/>
<text text-anchor="start" x="349" y="-273.8" font-family="Helvetica,sans-Serif" font-size="11.00" fill="#000000">&lt; 2</text>
<polygon fill="#ffffff" stroke="transparent" points="376,-267.7 376,-286.7 392,-286.7 392,-267.7 376,-267.7"/>
<polygon fill="none" stroke="#000000" points="376,-267.7 376,-286.7 392,-286.7 392,-267.7 376,-267.7"/>
<text text-anchor="start" x="382.8862" y="-273.8" font-family="Helvetica,sans-Serif" font-size="11.00" fill="#000000"> &#160;</text>
<polygon fill="#ffffff" stroke="transparent" points="392,-267.7 392,-286.7 418,-286.7 418,-267.7 392,-267.7"/>
<polygon fill="none" stroke="#000000" points="392,-267.7 392,-286.7 418,-286.7 418,-267.7 392,-267.7"/>
<text text-anchor="start" x="399.4053" y="-273.8" font-family="Helvetica,sans-Serif" font-size="11.00" fill="#000000">2 &gt;</text>
</a>
</g>
</g>
<!-- encontro&#45;&gt;grupo -->
<g id="edge1" class="edge">
<title>encontro:w&#45;&gt;grupo:e</title>
<path fill="none" stroke="#000000" d="M469.2318,-163.7967C438.3896,-174.45 453.7358,-223.4132 426,-257.7 424.2927,-259.8106 422.4783,-261.9154 420.5962,-263.9938"/>
<polygon fill="#000000" stroke="#000000" points="475.585,-162.8632 484.0234,-165.2617 479.5425,-162.2816 483.5,-161.7 483.5,-161.7 483.5,-161.7 479.5425,-162.2816 482.9766,-158.1383 475.585,-162.8632 475.585,-162.8632"/>
<ellipse fill="none" stroke="#000000" cx="472.419" cy="-163.3284" rx="3.2" ry="3.2"/>
</g>
<!-- turma -->
<g id="node3" class="node">
<title>turma</title>
<g id="a_node3"><a xlink:href="../../tables/turma.html" xlink:title="turma" target="_top">
<polygon fill="#ffffff" stroke="transparent" points="346,-76.2 346,-137.2 418,-137.2 418,-76.2 346,-76.2"/>
<polygon fill="#f5f5f5" stroke="transparent" points="346,-113.7 346,-136.7 418,-136.7 418,-113.7 346,-113.7"/>
<polygon fill="none" stroke="#000000" points="346,-113.7 346,-136.7 418,-136.7 418,-113.7 346,-113.7"/>
<text text-anchor="start" x="351" y="-122.3" font-family="Helvetica,sans-Serif" font-weight="bold" font-size="11.00" fill="#000000">turma</text>
<text text-anchor="start" x="383.5219" y="-121.8" font-family="Helvetica,sans-Serif" font-size="11.00" fill="#000000">[table]</text>
<polygon fill="none" stroke="#000000" points="346,-94.7 346,-113.7 418,-113.7 418,-94.7 346,-94.7"/>
<text text-anchor="start" x="349" y="-100.8" font-family="Helvetica,sans-Serif" font-size="11.00" fill="#000000">...</text>
<polygon fill="#ffffff" stroke="transparent" points="346,-75.7 346,-94.7 376,-94.7 376,-75.7 346,-75.7"/>
<polygon fill="none" stroke="#000000" points="346,-75.7 346,-94.7 376,-94.7 376,-75.7 346,-75.7"/>
<text text-anchor="start" x="349" y="-81.8" font-family="Helvetica,sans-Serif" font-size="11.00" fill="#000000">&lt; 2</text>
<polygon fill="#ffffff" stroke="transparent" points="376,-75.7 376,-94.7 392,-94.7 392,-75.7 376,-75.7"/>
<polygon fill="none" stroke="#000000" points="376,-75.7 376,-94.7 392,-94.7 392,-75.7 376,-75.7"/>
<text text-anchor="start" x="382.8862" y="-81.8" font-family="Helvetica,sans-Serif" font-size="11.00" fill="#000000"> &#160;</text>
<polygon fill="#ffffff" stroke="transparent" points="392,-75.7 392,-94.7 418,-94.7 418,-75.7 392,-75.7"/>
<polygon fill="none" stroke="#000000" points="392,-75.7 392,-94.7 418,-94.7 418,-75.7 392,-75.7"/>
<text text-anchor="start" x="399.4053" y="-81.8" font-family="Helvetica,sans-Serif" font-size="11.00" fill="#000000">2 &gt;</text>
</a>
</g>
</g>
<!-- encontro&#45;&gt;turma -->
<g id="edge2" class="edge">
<title>encontro:w&#45;&gt;turma:e</title>
<path fill="none" stroke="#000000" d="M469.1301,-160.3387C452.904,-157.344 437.2645,-149.7668 423.8236,-141.22"/>
<polygon fill="#000000" stroke="#000000" points="475.5357,-160.9455 483.1605,-165.284 479.5178,-161.3227 483.5,-161.7 483.5,-161.7 483.5,-161.7 479.5178,-161.3227 483.8395,-158.116 475.5357,-160.9455 475.5357,-160.9455"/>
<ellipse fill="none" stroke="#000000" cx="472.3499" cy="-160.6437" rx="3.2" ry="3.2"/>
</g>
<!-- usuario -->
<g id="node4" class="node">
<title>usuario</title>
<g id="a_node4"><a xlink:href="../../tables/usuario.html" xlink:title="usuario" target="_top">
<polygon fill="#ffffff" stroke="transparent" points="215,-151.2 215,-212.2 297,-212.2 297,-151.2 215,-151.2"/>
<polygon fill="#f5f5f5" stroke="transparent" points="215,-188.7 215,-211.7 297,-211.7 297,-188.7 215,-188.7"/>
<polygon fill="none" stroke="#000000" points="215,-188.7 215,-211.7 297,-211.7 297,-188.7 215,-188.7"/>
<text text-anchor="start" x="220" y="-197.3" font-family="Helvetica,sans-Serif" font-weight="bold" font-size="11.00" fill="#000000">usuario</text>
<text text-anchor="start" x="262.5219" y="-196.8" font-family="Helvetica,sans-Serif" font-size="11.00" fill="#000000">[table]</text>
<polygon fill="none" stroke="#000000" points="215,-169.7 215,-188.7 297,-188.7 297,-169.7 215,-169.7"/>
<text text-anchor="start" x="218" y="-175.8" font-family="Helvetica,sans-Serif" font-size="11.00" fill="#000000">...</text>
<polygon fill="#ffffff" stroke="transparent" points="215,-150.7 215,-169.7 250,-169.7 250,-150.7 215,-150.7"/>
<polygon fill="none" stroke="#000000" points="215,-150.7 215,-169.7 250,-169.7 250,-150.7 215,-150.7"/>
<text text-anchor="start" x="218" y="-156.8" font-family="Helvetica,sans-Serif" font-size="11.00" fill="#000000">&lt; 1</text>
<polygon fill="#ffffff" stroke="transparent" points="250,-150.7 250,-169.7 269,-169.7 269,-150.7 250,-150.7"/>
<polygon fill="none" stroke="#000000" points="250,-150.7 250,-169.7 269,-169.7 269,-150.7 250,-150.7"/>
<text text-anchor="start" x="259.8862" y="-156.8" font-family="Helvetica,sans-Serif" font-size="11.00" fill="#000000"> &#160;</text>
<polygon fill="#ffffff" stroke="transparent" points="269,-150.7 269,-169.7 297,-169.7 297,-150.7 269,-150.7"/>
<polygon fill="none" stroke="#000000" points="269,-150.7 269,-169.7 297,-169.7 297,-150.7 269,-150.7"/>
<text text-anchor="start" x="278.4053" y="-156.8" font-family="Helvetica,sans-Serif" font-size="11.00" fill="#000000">6 &gt;</text>
</a>
</g>
</g>
<!-- encontro&#45;&gt;usuario -->
<g id="edge3" class="edge">
<title>encontro:w&#45;&gt;usuario:e</title>
<path fill="none" stroke="#000000" d="M468.9004,-161.8308C410.951,-162.8433 347.5593,-169.5319 305.1504,-174.8731"/>
<polygon fill="#000000" stroke="#000000" points="475.5003,-161.7717 483.5323,-165.2999 479.5002,-161.7359 483.5,-161.7 483.5,-161.7 483.5,-161.7 479.5002,-161.7359 483.4677,-158.1001 475.5003,-161.7717 475.5003,-161.7717"/>
<ellipse fill="none" stroke="#000000" cx="472.3004" cy="-161.8004" rx="3.2" ry="3.2"/>
</g>
<!-- grupo&#45;&gt;usuario -->
<g id="edge5" class="edge">
<title>grupo:w&#45;&gt;usuario:e</title>
<path fill="none" stroke="#000000" d="M333.6399,-253.7942C320.3425,-241.4466 306.124,-228.2437 293.5362,-216.5551"/>
<polygon fill="#000000" stroke="#000000" points="338.6746,-258.4693 342.0874,-266.551 341.6058,-261.1911 344.537,-263.9129 344.537,-263.9129 344.537,-263.9129 341.6058,-261.1911 346.9866,-261.2749 338.6746,-258.4693 338.6746,-258.4693"/>
<ellipse fill="none" stroke="#000000" cx="336.3297" cy="-256.2918" rx="3.2" ry="3.2"/>
</g>
<!-- curso -->
<g id="node5" class="node">
<title>curso</title>
<g id="a_node5"><a xlink:href="../../tables/curso.html" xlink:title="curso" target="_top">
<polygon fill="#ffffff" stroke="transparent" points="8,-61.7 8,-217.7 166,-217.7 166,-61.7 8,-61.7"/>
<polygon fill="#f5f5f5" stroke="transparent" points="10,-192.7 10,-215.7 164,-215.7 164,-192.7 10,-192.7"/>
<polygon fill="none" stroke="#000000" points="10,-192.7 10,-215.7 164,-215.7 164,-192.7 10,-192.7"/>
<text text-anchor="start" x="15" y="-201.3" font-family="Helvetica,sans-Serif" font-weight="bold" font-size="11.00" fill="#000000">curso</text>
<text text-anchor="start" x="129.0437" y="-200.8" font-family="Helvetica,sans-Serif" font-size="11.00" fill="#000000">[table]</text>
<polygon fill="none" stroke="#000000" points="10,-170.7 10,-192.7 97,-192.7 97,-170.7 10,-170.7"/>
<image xlink:href="../../images/primaryKeys.png" width="11px" height="12px" preserveAspectRatio="xMinYMin meet" x="15" y="-187.7"/>
<text text-anchor="start" x="30" y="-177.8" font-family="Helvetica,sans-Serif" font-size="11.00" fill="#000000">id</text>
<polygon fill="none" stroke="#000000" points="97,-170.7 97,-192.7 164,-192.7 164,-170.7 97,-170.7"/>
<text text-anchor="start" x="100" y="-178.4" font-family="Helvetica,sans-Serif" font-size="11.00" fill="#000000">serial[10]</text>
<polygon fill="none" stroke="#000000" points="10,-148.7 10,-170.7 97,-170.7 97,-148.7 10,-148.7"/>
<text text-anchor="start" x="30" y="-155.8" font-family="Helvetica,sans-Serif" font-size="11.00" fill="#000000">descricao</text>
<polygon fill="none" stroke="#000000" points="97,-148.7 97,-170.7 164,-170.7 164,-148.7 97,-148.7"/>
<text text-anchor="start" x="99.9365" y="-156.4" font-family="Helvetica,sans-Serif" font-size="11.00" fill="#000000">varchar[100]</text>
<polygon fill="none" stroke="#000000" points="10,-126.7 10,-148.7 97,-148.7 97,-126.7 10,-126.7"/>
<text text-anchor="start" x="30" y="-133.8" font-family="Helvetica,sans-Serif" font-size="11.00" fill="#000000">observacao</text>
<polygon fill="none" stroke="#000000" points="97,-126.7 97,-148.7 164,-148.7 164,-126.7 97,-126.7"/>
<text text-anchor="start" x="99.9365" y="-134.4" font-family="Helvetica,sans-Serif" font-size="11.00" fill="#000000">varchar[255]</text>
<polygon fill="none" stroke="#000000" points="10,-104.7 10,-126.7 97,-126.7 97,-104.7 10,-104.7"/>
<text text-anchor="start" x="30" y="-111.8" font-family="Helvetica,sans-Serif" font-size="11.00" fill="#000000">status</text>
<polygon fill="none" stroke="#000000" points="97,-104.7 97,-126.7 164,-126.7 164,-104.7 97,-104.7"/>
<text text-anchor="start" x="100" y="-112.4" font-family="Helvetica,sans-Serif" font-size="11.00" fill="#000000">bool[1]</text>
<polygon fill="none" stroke="#000000" points="10,-82.7 10,-104.7 97,-104.7 97,-82.7 10,-82.7"/>
<text text-anchor="start" x="30" y="-89.8" font-family="Helvetica,sans-Serif" font-size="11.00" fill="#000000">turno</text>
<polygon fill="none" stroke="#000000" points="97,-82.7 97,-104.7 164,-104.7 164,-82.7 97,-82.7"/>
<text text-anchor="start" x="99.9365" y="-90.4" font-family="Helvetica,sans-Serif" font-size="11.00" fill="#000000">varchar[255]</text>
<polygon fill="#ffffff" stroke="transparent" points="10,-63.7 10,-82.7 58,-82.7 58,-63.7 10,-63.7"/>
<polygon fill="none" stroke="#000000" points="10,-63.7 10,-82.7 58,-82.7 58,-63.7 10,-63.7"/>
<text text-anchor="start" x="13" y="-69.8" font-family="Helvetica,sans-Serif" font-size="11.00" fill="#000000">&lt; 0</text>
<polygon fill="#ffffff" stroke="transparent" points="58,-63.7 58,-82.7 97,-82.7 97,-63.7 58,-63.7"/>
<polygon fill="none" stroke="#000000" points="58,-63.7 58,-82.7 97,-82.7 97,-63.7 58,-63.7"/>
<text text-anchor="start" x="87.8862" y="-69.8" font-family="Helvetica,sans-Serif" font-size="11.00" fill="#000000"> &#160;</text>
<polygon fill="#ffffff" stroke="transparent" points="97,-63.7 97,-82.7 164,-82.7 164,-63.7 97,-63.7"/>
<polygon fill="none" stroke="#000000" points="97,-63.7 97,-82.7 164,-82.7 164,-63.7 97,-63.7"/>
<text text-anchor="start" x="145.4053" y="-69.8" font-family="Helvetica,sans-Serif" font-size="11.00" fill="#000000">3 &gt;</text>
<polygon fill="none" stroke="#000000" stroke-width="2" points="9,-62.7 9,-216.7 165,-216.7 165,-62.7 9,-62.7"/>
</a>
</g>
</g>
<!-- grupo&#45;&gt;curso -->
<g id="edge4" class="edge">
<title>grupo:w&#45;&gt;curso:e</title>
<path fill="none" stroke="#000000" d="M323.7599,-279.31C288.4101,-266.1403 243.2699,-246.7569 207,-222.7 184.9944,-208.1042 190.4061,-181.7 164,-181.7"/>
<polygon fill="#000000" stroke="#000000" points="330.2452,-281.665 336.536,-287.7794 334.005,-283.0303 337.7647,-284.3956 337.7647,-284.3956 337.7647,-284.3956 334.005,-283.0303 338.9935,-281.0118 330.2452,-281.665 330.2452,-281.665"/>
<ellipse fill="none" stroke="#000000" cx="327.2373" cy="-280.5728" rx="3.2" ry="3.2"/>
</g>
<!-- turma&#45;&gt;usuario -->
<g id="edge8" class="edge">
<title>turma:w&#45;&gt;usuario:e</title>
<path fill="none" stroke="#000000" d="M325.3478,-140.4215C318.7023,-144.3772 311.9616,-148.3895 305.4256,-152.28"/>
<polygon fill="#000000" stroke="#000000" points="331.057,-137.0233 339.7727,-136.0248 334.4941,-134.9773 337.9313,-132.9314 337.9313,-132.9314 337.9313,-132.9314 334.4941,-134.9773 336.09,-129.8379 331.057,-137.0233 331.057,-137.0233"/>
<ellipse fill="none" stroke="#000000" cx="328.3072" cy="-138.66" rx="3.2" ry="3.2"/>
</g>
<!-- turma&#45;&gt;curso -->
<g id="edge7" class="edge">
<title>turma:w&#45;&gt;curso:e</title>
<path fill="none" stroke="#000000" d="M323.1899,-109.8113C287.8754,-113.6518 242.972,-122.1212 207,-140.7 183.5383,-152.8175 190.4061,-181.7 164,-181.7"/>
<polygon fill="#000000" stroke="#000000" points="329.7196,-109.1903 338.0245,-112.0166 333.7016,-108.8115 337.6836,-108.4328 337.6836,-108.4328 337.6836,-108.4328 333.7016,-108.8115 337.3427,-104.849 329.7196,-109.1903 329.7196,-109.1903"/>
<ellipse fill="none" stroke="#000000" cx="326.5339" cy="-109.4933" rx="3.2" ry="3.2"/>
</g>
<!-- usuario&#45;&gt;curso -->
<g id="edge9" class="edge">
<title>usuario:w&#45;&gt;curso:e</title>
<path fill="none" stroke="#000000" d="M192.2024,-181.7C182.7467,-181.7 173.1191,-181.7 164,-181.7"/>
<polygon fill="#000000" stroke="#000000" points="198.822,-181.7001 206.822,-185.3 202.822,-181.7 206.822,-181.7 206.822,-181.7 206.822,-181.7 202.822,-181.7 206.822,-178.1 198.822,-181.7001 198.822,-181.7001"/>
<ellipse fill="none" stroke="#000000" cx="195.622" cy="-181.7001" rx="3.2" ry="3.2"/>
</g>
<!-- token -->
<g id="node6" class="node">
<title>token</title>
<g id="a_node6"><a xlink:href="../../tables/token.html" xlink:title="token" target="_top">
<polygon fill="#ffffff" stroke="transparent" points="346.5,-186.2 346.5,-247.2 417.5,-247.2 417.5,-186.2 346.5,-186.2"/>
<polygon fill="#f5f5f5" stroke="transparent" points="347,-223.7 347,-246.7 418,-246.7 418,-223.7 347,-223.7"/>
<polygon fill="none" stroke="#000000" points="347,-223.7 347,-246.7 418,-246.7 418,-223.7 347,-223.7"/>
<text text-anchor="start" x="352" y="-232.3" font-family="Helvetica,sans-Serif" font-weight="bold" font-size="11.00" fill="#000000">token</text>
<text text-anchor="start" x="383.5219" y="-231.8" font-family="Helvetica,sans-Serif" font-size="11.00" fill="#000000">[table]</text>
<polygon fill="none" stroke="#000000" points="347,-204.7 347,-223.7 418,-223.7 418,-204.7 347,-204.7"/>
<text text-anchor="start" x="350" y="-210.8" font-family="Helvetica,sans-Serif" font-size="11.00" fill="#000000">...</text>
<polygon fill="#ffffff" stroke="transparent" points="347,-185.7 347,-204.7 381,-204.7 381,-185.7 347,-185.7"/>
<polygon fill="none" stroke="#000000" points="347,-185.7 347,-204.7 381,-204.7 381,-185.7 347,-185.7"/>
<text text-anchor="start" x="350" y="-191.8" font-family="Helvetica,sans-Serif" font-size="11.00" fill="#000000">&lt; 1</text>
<polygon fill="#ffffff" stroke="transparent" points="381,-185.7 381,-204.7 399,-204.7 399,-185.7 381,-185.7"/>
<polygon fill="none" stroke="#000000" points="381,-185.7 381,-204.7 399,-204.7 399,-185.7 381,-185.7"/>
<text text-anchor="start" x="389.8862" y="-191.8" font-family="Helvetica,sans-Serif" font-size="11.00" fill="#000000"> &#160;</text>
<polygon fill="#ffffff" stroke="transparent" points="399,-185.7 399,-204.7 418,-204.7 418,-185.7 399,-185.7"/>
<polygon fill="none" stroke="#000000" points="399,-185.7 399,-204.7 418,-204.7 418,-185.7 399,-185.7"/>
<text text-anchor="start" x="408.8862" y="-191.8" font-family="Helvetica,sans-Serif" font-size="11.00" fill="#000000"> &#160;</text>
</a>
</g>
</g>
<!-- token&#45;&gt;usuario -->
<g id="edge6" class="edge">
<title>token:w&#45;&gt;usuario:e</title>
<path fill="none" stroke="#000000" d="M332.5437,-212.5962C323.3137,-211.2477 314.1151,-208.7734 305.4621,-205.7899"/>
<polygon fill="#000000" stroke="#000000" points="339.0232,-213.0909 346.7259,-217.2896 343.0116,-213.3954 347,-213.7 347,-213.7 347,-213.7 343.0116,-213.3954 347.2741,-210.1104 339.0232,-213.0909 339.0232,-213.0909"/>
<ellipse fill="none" stroke="#000000" cx="335.8325" cy="-212.8472" rx="3.2" ry="3.2"/>
</g>
<!-- usuario_grupo -->
<g id="node7" class="node">
<title>usuario_grupo</title>
<g id="a_node7"><a xlink:href="../../tables/usuario_grupo.html" xlink:title="usuario_grupo" target="_top">
<polygon fill="#ffffff" stroke="transparent" points="467,-298.2 467,-359.2 590,-359.2 590,-298.2 467,-298.2"/>
<polygon fill="#f5f5f5" stroke="transparent" points="467.5,-335.7 467.5,-358.7 590.5,-358.7 590.5,-335.7 467.5,-335.7"/>
<polygon fill="none" stroke="#000000" points="467.5,-335.7 467.5,-358.7 590.5,-358.7 590.5,-335.7 467.5,-335.7"/>
<text text-anchor="start" x="472.5" y="-344.3" font-family="Helvetica,sans-Serif" font-weight="bold" font-size="11.00" fill="#000000">usuario_grupo</text>
<text text-anchor="start" x="556.0219" y="-343.8" font-family="Helvetica,sans-Serif" font-size="11.00" fill="#000000">[table]</text>
<polygon fill="none" stroke="#000000" points="467.5,-316.7 467.5,-335.7 590.5,-335.7 590.5,-316.7 467.5,-316.7"/>
<text text-anchor="start" x="470.5" y="-322.8" font-family="Helvetica,sans-Serif" font-size="11.00" fill="#000000">...</text>
<polygon fill="#ffffff" stroke="transparent" points="467.5,-297.7 467.5,-316.7 527.5,-316.7 527.5,-297.7 467.5,-297.7"/>
<polygon fill="none" stroke="#000000" points="467.5,-297.7 467.5,-316.7 527.5,-316.7 527.5,-297.7 467.5,-297.7"/>
<text text-anchor="start" x="470.5" y="-303.8" font-family="Helvetica,sans-Serif" font-size="11.00" fill="#000000">&lt; 2</text>
<polygon fill="#ffffff" stroke="transparent" points="527.5,-297.7 527.5,-316.7 558.5,-316.7 558.5,-297.7 527.5,-297.7"/>
<polygon fill="none" stroke="#000000" points="527.5,-297.7 527.5,-316.7 558.5,-316.7 558.5,-297.7 527.5,-297.7"/>
<text text-anchor="start" x="549.3862" y="-303.8" font-family="Helvetica,sans-Serif" font-size="11.00" fill="#000000"> &#160;</text>
<polygon fill="#ffffff" stroke="transparent" points="558.5,-297.7 558.5,-316.7 590.5,-316.7 590.5,-297.7 558.5,-297.7"/>
<polygon fill="none" stroke="#000000" points="558.5,-297.7 558.5,-316.7 590.5,-316.7 590.5,-297.7 558.5,-297.7"/>
<text text-anchor="start" x="581.3862" y="-303.8" font-family="Helvetica,sans-Serif" font-size="11.00" fill="#000000"> &#160;</text>
</a>
</g>
</g>
<!-- usuario_grupo&#45;&gt;grupo -->
<g id="edge10" class="edge">
<title>usuario_grupo:w&#45;&gt;grupo:e</title>
<path fill="none" stroke="#000000" d="M452.8892,-324.6123C443.8617,-323.3335 434.8549,-321.0374 426.4386,-318.3221"/>
<polygon fill="#000000" stroke="#000000" points="459.5221,-325.1061 467.2327,-329.2901 463.511,-325.403 467.5,-325.7 467.5,-325.7 467.5,-325.7 463.511,-325.403 467.7673,-322.1099 459.5221,-325.1061 459.5221,-325.1061"/>
<ellipse fill="none" stroke="#000000" cx="456.3309" cy="-324.8685" rx="3.2" ry="3.2"/>
</g>
<!-- usuario_grupo&#45;&gt;usuario -->
<g id="edge11" class="edge">
<title>usuario_grupo:w&#45;&gt;usuario:e</title>
<path fill="none" stroke="#000000" d="M453.1181,-328.3121C444.6684,-331.7281 439.206,-337.5325 426,-339.7 387.4053,-346.0346 371.4239,-360.0106 338,-339.7 294.0259,-312.9785 272.5659,-254.1805 262.9354,-216.334"/>
<polygon fill="#000000" stroke="#000000" points="459.6288,-327.1296 468.1433,-329.2421 463.5644,-326.4148 467.5,-325.7 467.5,-325.7 467.5,-325.7 463.5644,-326.4148 466.8567,-322.1579 459.6288,-327.1296 459.6288,-327.1296"/>
<ellipse fill="none" stroke="#000000" cx="456.4803" cy="-327.7015" rx="3.2" ry="3.2"/>
</g>
<!-- usuario_turma -->
<g id="node8" class="node">
<title>usuario_turma</title>
<g id="a_node8"><a xlink:href="../../tables/usuario_turma.html" xlink:title="usuario_turma" target="_top">
<polygon fill="#ffffff" stroke="transparent" points="467.5,-38.2 467.5,-99.2 589.5,-99.2 589.5,-38.2 467.5,-38.2"/>
<polygon fill="#f5f5f5" stroke="transparent" points="467.5,-75.7 467.5,-98.7 589.5,-98.7 589.5,-75.7 467.5,-75.7"/>
<polygon fill="none" stroke="#000000" points="467.5,-75.7 467.5,-98.7 589.5,-98.7 589.5,-75.7 467.5,-75.7"/>
<text text-anchor="start" x="472.5" y="-84.3" font-family="Helvetica,sans-Serif" font-weight="bold" font-size="11.00" fill="#000000">usuario_turma</text>
<text text-anchor="start" x="555.0219" y="-83.8" font-family="Helvetica,sans-Serif" font-size="11.00" fill="#000000">[table]</text>
<polygon fill="none" stroke="#000000" points="467.5,-56.7 467.5,-75.7 589.5,-75.7 589.5,-56.7 467.5,-56.7"/>
<text text-anchor="start" x="470.5" y="-62.8" font-family="Helvetica,sans-Serif" font-size="11.00" fill="#000000">...</text>
<polygon fill="#ffffff" stroke="transparent" points="467.5,-37.7 467.5,-56.7 526.5,-56.7 526.5,-37.7 467.5,-37.7"/>
<polygon fill="none" stroke="#000000" points="467.5,-37.7 467.5,-56.7 526.5,-56.7 526.5,-37.7 467.5,-37.7"/>
<text text-anchor="start" x="470.5" y="-43.8" font-family="Helvetica,sans-Serif" font-size="11.00" fill="#000000">&lt; 2</text>
<polygon fill="#ffffff" stroke="transparent" points="526.5,-37.7 526.5,-56.7 557.5,-56.7 557.5,-37.7 526.5,-37.7"/>
<polygon fill="none" stroke="#000000" points="526.5,-37.7 526.5,-56.7 557.5,-56.7 557.5,-37.7 526.5,-37.7"/>
<text text-anchor="start" x="548.3862" y="-43.8" font-family="Helvetica,sans-Serif" font-size="11.00" fill="#000000"> &#160;</text>
<polygon fill="#ffffff" stroke="transparent" points="557.5,-37.7 557.5,-56.7 589.5,-56.7 589.5,-37.7 557.5,-37.7"/>
<polygon fill="none" stroke="#000000" points="557.5,-37.7 557.5,-56.7 589.5,-56.7 589.5,-37.7 557.5,-37.7"/>
<text text-anchor="start" x="580.3862" y="-43.8" font-family="Helvetica,sans-Serif" font-size="11.00" fill="#000000"> &#160;</text>
</a>
</g>
</g>
<!-- usuario_turma&#45;&gt;turma -->
<g id="edge12" class="edge">
<title>usuario_turma:w&#45;&gt;turma:e</title>
<path fill="none" stroke="#000000" d="M452.9202,-67.214C443.6986,-69.0605 434.6681,-72.4394 426.3064,-76.4723"/>
<polygon fill="#000000" stroke="#000000" points="459.5428,-66.5263 467.8718,-69.2807 463.5214,-66.1132 467.5,-65.7 467.5,-65.7 467.5,-65.7 463.5214,-66.1132 467.1282,-62.1193 459.5428,-66.5263 459.5428,-66.5263"/>
<ellipse fill="none" stroke="#000000" cx="456.3599" cy="-66.8569" rx="3.2" ry="3.2"/>
</g>
<!-- usuario_turma&#45;&gt;usuario -->
<g id="edge13" class="edge">
<title>usuario_turma:w&#45;&gt;usuario:e</title>
<path fill="none" stroke="#000000" d="M452.8277,-65.1168C405.9567,-61.3723 384.5197,-41.6155 338,-65.7 305.2574,-82.6517 282.7921,-119.3647 269.7669,-146.9773"/>
<polygon fill="#000000" stroke="#000000" points="459.5063,-65.3822 467.357,-69.2972 463.5032,-65.5411 467.5,-65.7 467.5,-65.7 467.5,-65.7 463.5032,-65.5411 467.643,-62.1028 459.5063,-65.3822 459.5063,-65.3822"/>
<ellipse fill="none" stroke="#000000" cx="456.3088" cy="-65.2551" rx="3.2" ry="3.2"/>
</g>
</g>
</svg>
