<?xml version="1.0" encoding="UTF-8" standalone="no"?>
<!DOCTYPE svg PUBLIC "-//W3C//DTD SVG 1.1//EN"
 "http://www.w3.org/Graphics/SVG/1.1/DTD/svg11.dtd">
<!-- Generated by graphviz version 2.40.1 (20161225.0304)
 -->
<!-- Title: oneDegreeRelationshipsDiagram Pages: 1 -->
<svg width="474pt" height="386pt"
 viewBox="0.00 0.00 474.00 386.20" xmlns="http://www.w3.org/2000/svg" xmlns:xlink="http://www.w3.org/1999/xlink">
<g id="graph0" class="graph" transform="scale(1 1) rotate(0) translate(4 382.2)">
<title>oneDegreeRelationshipsDiagram</title>
<polygon fill="#ffffff" stroke="transparent" points="-4,4 -4,-382.2 470,-382.2 470,4 -4,4"/>
<text text-anchor="middle" x="72.4936" y="-7.3" font-family="Helvetica,sans-Serif" font-size="11.00" fill="#000000">Generated by SchemaSpy</text>
<!-- grupos -->
<g id="node1" class="node">
<title>grupos</title>
<g id="a_node1"><a xlink:href="../../tables/grupos.html" xlink:title="grupos" target="_top">
<polygon fill="#ffffff" stroke="transparent" points="353,-225.2 353,-374.2 458,-374.2 458,-225.2 353,-225.2"/>
<polygon fill="#f5f5f5" stroke="transparent" points="353.5,-350.7 353.5,-373.7 458.5,-373.7 458.5,-350.7 353.5,-350.7"/>
<polygon fill="none" stroke="#000000" points="353.5,-350.7 353.5,-373.7 458.5,-373.7 458.5,-350.7 353.5,-350.7"/>
<text text-anchor="start" x="358.5" y="-359.3" font-family="Helvetica,sans-Serif" font-weight="bold" font-size="11.00" fill="#000000">grupos</text>
<text text-anchor="start" x="423.5437" y="-358.8" font-family="Helvetica,sans-Serif" font-size="11.00" fill="#000000">[table]</text>
<polygon fill="none" stroke="#000000" points="353.5,-328.7 353.5,-350.7 458.5,-350.7 458.5,-328.7 353.5,-328.7"/>
<image xlink:href="../../images/primaryKeys.png" width="11px" height="12px" preserveAspectRatio="xMinYMin meet" x="358.5" y="-345.7"/>
<text text-anchor="start" x="373.5" y="-335.8" font-family="Helvetica,sans-Serif" font-size="11.00" fill="#000000">id</text>
<polygon fill="none" stroke="#000000" points="353.5,-306.7 353.5,-328.7 458.5,-328.7 458.5,-306.7 353.5,-306.7"/>
<image xlink:href="../../images/foreignKeys.png" width="11px" height="12px" preserveAspectRatio="xMinYMin meet" x="358.5" y="-323.7"/>
<text text-anchor="start" x="373.5" y="-313.8" font-family="Helvetica,sans-Serif" font-size="11.00" fill="#000000">id_curso</text>
<polygon fill="none" stroke="#000000" points="353.5,-284.7 353.5,-306.7 458.5,-306.7 458.5,-284.7 353.5,-284.7"/>
<image xlink:href="../../images/foreignKeys.png" width="11px" height="12px" preserveAspectRatio="xMinYMin meet" x="358.5" y="-301.7"/>
<text text-anchor="start" x="373.5" y="-291.8" font-family="Helvetica,sans-Serif" font-size="11.00" fill="#000000">id_user</text>
<polygon fill="#ffffff" stroke="transparent" points="353.5,-262.7 353.5,-284.7 458.5,-284.7 458.5,-262.7 353.5,-262.7"/>
<polygon fill="none" stroke="#000000" points="353.5,-262.7 353.5,-284.7 458.5,-284.7 458.5,-262.7 353.5,-262.7"/>
<text text-anchor="start" x="373.5" y="-269.8" font-family="Helvetica,sans-Serif" font-size="11.00" fill="#000000">nome</text>
<polygon fill="none" stroke="#000000" points="353.5,-243.7 353.5,-262.7 458.5,-262.7 458.5,-243.7 353.5,-243.7"/>
<text text-anchor="start" x="356.5" y="-249.8" font-family="Helvetica,sans-Serif" font-size="11.00" fill="#000000">...</text>
<polygon fill="#ffffff" stroke="transparent" points="353.5,-224.7 353.5,-243.7 399.5,-243.7 399.5,-224.7 353.5,-224.7"/>
<polygon fill="none" stroke="#000000" points="353.5,-224.7 353.5,-243.7 399.5,-243.7 399.5,-224.7 353.5,-224.7"/>
<text text-anchor="start" x="356.5" y="-230.8" font-family="Helvetica,sans-Serif" font-size="11.00" fill="#000000">&lt; 2</text>
<polygon fill="#ffffff" stroke="transparent" points="399.5,-224.7 399.5,-243.7 424.5,-243.7 424.5,-224.7 399.5,-224.7"/>
<polygon fill="none" stroke="#000000" points="399.5,-224.7 399.5,-243.7 424.5,-243.7 424.5,-224.7 399.5,-224.7"/>
<text text-anchor="start" x="415.3862" y="-230.8" font-family="Helvetica,sans-Serif" font-size="11.00" fill="#000000"> &#160;</text>
<polygon fill="#ffffff" stroke="transparent" points="424.5,-224.7 424.5,-243.7 458.5,-243.7 458.5,-224.7 424.5,-224.7"/>
<polygon fill="none" stroke="#000000" points="424.5,-224.7 424.5,-243.7 458.5,-243.7 458.5,-224.7 424.5,-224.7"/>
<text text-anchor="start" x="439.9053" y="-230.8" font-family="Helvetica,sans-Serif" font-size="11.00" fill="#000000">2 &gt;</text>
</a>
</g>
</g>
<!-- cursos -->
<g id="node2" class="node">
<title>cursos</title>
<g id="a_node2"><a xlink:href="../../tables/cursos.html" xlink:title="cursos" target="_top">
<polygon fill="#ffffff" stroke="transparent" points="8,-135.7 8,-291.7 166,-291.7 166,-135.7 8,-135.7"/>
<polygon fill="#f5f5f5" stroke="transparent" points="10,-266.7 10,-289.7 164,-289.7 164,-266.7 10,-266.7"/>
<polygon fill="none" stroke="#000000" points="10,-266.7 10,-289.7 164,-289.7 164,-266.7 10,-266.7"/>
<text text-anchor="start" x="15" y="-275.3" font-family="Helvetica,sans-Serif" font-weight="bold" font-size="11.00" fill="#000000">cursos</text>
<text text-anchor="start" x="129.0437" y="-274.8" font-family="Helvetica,sans-Serif" font-size="11.00" fill="#000000">[table]</text>
<polygon fill="none" stroke="#000000" points="10,-244.7 10,-266.7 97,-266.7 97,-244.7 10,-244.7"/>
<image xlink:href="../../images/primaryKeys.png" width="11px" height="12px" preserveAspectRatio="xMinYMin meet" x="15" y="-261.7"/>
<text text-anchor="start" x="30" y="-251.8" font-family="Helvetica,sans-Serif" font-size="11.00" fill="#000000">id</text>
<polygon fill="none" stroke="#000000" points="97,-244.7 97,-266.7 164,-266.7 164,-244.7 97,-244.7"/>
<text text-anchor="start" x="100" y="-252.4" font-family="Helvetica,sans-Serif" font-size="11.00" fill="#000000">serial[10]</text>
<polygon fill="none" stroke="#000000" points="10,-222.7 10,-244.7 97,-244.7 97,-222.7 10,-222.7"/>
<text text-anchor="start" x="30" y="-229.8" font-family="Helvetica,sans-Serif" font-size="11.00" fill="#000000">status</text>
<polygon fill="none" stroke="#000000" points="97,-222.7 97,-244.7 164,-244.7 164,-222.7 97,-222.7"/>
<text text-anchor="start" x="100" y="-230.4" font-family="Helvetica,sans-Serif" font-size="11.00" fill="#000000">bool[1]</text>
<polygon fill="none" stroke="#000000" points="10,-200.7 10,-222.7 97,-222.7 97,-200.7 10,-200.7"/>
<text text-anchor="start" x="30" y="-207.8" font-family="Helvetica,sans-Serif" font-size="11.00" fill="#000000">descricao</text>
<polygon fill="none" stroke="#000000" points="97,-200.7 97,-222.7 164,-222.7 164,-200.7 97,-200.7"/>
<text text-anchor="start" x="99.9365" y="-208.4" font-family="Helvetica,sans-Serif" font-size="11.00" fill="#000000">varchar[100]</text>
<polygon fill="none" stroke="#000000" points="10,-178.7 10,-200.7 97,-200.7 97,-178.7 10,-178.7"/>
<text text-anchor="start" x="30" y="-185.8" font-family="Helvetica,sans-Serif" font-size="11.00" fill="#000000">observacao</text>
<polygon fill="none" stroke="#000000" points="97,-178.7 97,-200.7 164,-200.7 164,-178.7 97,-178.7"/>
<text text-anchor="start" x="99.9365" y="-186.4" font-family="Helvetica,sans-Serif" font-size="11.00" fill="#000000">varchar[255]</text>
<polygon fill="none" stroke="#000000" points="10,-156.7 10,-178.7 97,-178.7 97,-156.7 10,-156.7"/>
<text text-anchor="start" x="30" y="-163.8" font-family="Helvetica,sans-Serif" font-size="11.00" fill="#000000">turno</text>
<polygon fill="none" stroke="#000000" points="97,-156.7 97,-178.7 164,-178.7 164,-156.7 97,-156.7"/>
<text text-anchor="start" x="99.9365" y="-164.4" font-family="Helvetica,sans-Serif" font-size="11.00" fill="#000000">varchar[255]</text>
<polygon fill="#ffffff" stroke="transparent" points="10,-137.7 10,-156.7 58,-156.7 58,-137.7 10,-137.7"/>
<polygon fill="none" stroke="#000000" points="10,-137.7 10,-156.7 58,-156.7 58,-137.7 10,-137.7"/>
<text text-anchor="start" x="13" y="-143.8" font-family="Helvetica,sans-Serif" font-size="11.00" fill="#000000">&lt; 0</text>
<polygon fill="#ffffff" stroke="transparent" points="58,-137.7 58,-156.7 97,-156.7 97,-137.7 58,-137.7"/>
<polygon fill="none" stroke="#000000" points="58,-137.7 58,-156.7 97,-156.7 97,-137.7 58,-137.7"/>
<text text-anchor="start" x="87.8862" y="-143.8" font-family="Helvetica,sans-Serif" font-size="11.00" fill="#000000"> &#160;</text>
<polygon fill="#ffffff" stroke="transparent" points="97,-137.7 97,-156.7 164,-156.7 164,-137.7 97,-137.7"/>
<polygon fill="none" stroke="#000000" points="97,-137.7 97,-156.7 164,-156.7 164,-137.7 97,-137.7"/>
<text text-anchor="start" x="145.4053" y="-143.8" font-family="Helvetica,sans-Serif" font-size="11.00" fill="#000000">3 &gt;</text>
<polygon fill="none" stroke="#000000" stroke-width="2" points="9,-136.7 9,-290.7 165,-290.7 165,-136.7 9,-136.7"/>
</a>
</g>
</g>
<!-- grupos&#45;&gt;cursos -->
<g id="edge1" class="edge">
<title>grupos:w&#45;&gt;cursos:e</title>
<path fill="none" stroke="#000000" d="M339.0864,-318.6775C330.6642,-319.9054 324.6044,-321.9434 312,-322.7 265.4172,-325.4961 247.9515,-345.0776 207,-322.7 175.9504,-305.7332 199.3829,-255.7 164,-255.7"/>
<polygon fill="#000000" stroke="#000000" points="345.5183,-318.2413 353.7436,-321.2917 349.5092,-317.9707 353.5,-317.7 353.5,-317.7 353.5,-317.7 349.5092,-317.9707 353.2564,-314.1083 345.5183,-318.2413 345.5183,-318.2413"/>
<ellipse fill="none" stroke="#000000" cx="342.3257" cy="-318.4579" rx="3.2" ry="3.2"/>
</g>
<!-- usuarios -->
<g id="node3" class="node">
<title>usuarios</title>
<g id="a_node3"><a xlink:href="../../tables/usuarios.html" xlink:title="usuarios" target="_top">
<polygon fill="#ffffff" stroke="transparent" points="215,-119.2 215,-312.2 304,-312.2 304,-119.2 215,-119.2"/>
<polygon fill="#f5f5f5" stroke="transparent" points="215.5,-288.7 215.5,-311.7 304.5,-311.7 304.5,-288.7 215.5,-288.7"/>
<polygon fill="none" stroke="#000000" points="215.5,-288.7 215.5,-311.7 304.5,-311.7 304.5,-288.7 215.5,-288.7"/>
<text text-anchor="start" x="220.5" y="-297.3" font-family="Helvetica,sans-Serif" font-weight="bold" font-size="11.00" fill="#000000">usuarios</text>
<text text-anchor="start" x="270.0219" y="-296.8" font-family="Helvetica,sans-Serif" font-size="11.00" fill="#000000">[table]</text>
<polygon fill="none" stroke="#000000" points="215.5,-266.7 215.5,-288.7 304.5,-288.7 304.5,-266.7 215.5,-266.7"/>
<image xlink:href="../../images/primaryKeys.png" width="11px" height="12px" preserveAspectRatio="xMinYMin meet" x="220.5" y="-283.7"/>
<text text-anchor="start" x="240.5" y="-273.8" font-family="Helvetica,sans-Serif" font-size="11.00" fill="#000000">id</text>
<polygon fill="none" stroke="#000000" points="215.5,-244.7 215.5,-266.7 304.5,-266.7 304.5,-244.7 215.5,-244.7"/>
<image xlink:href="../../images/foreignKeys.png" width="11px" height="12px" preserveAspectRatio="xMinYMin meet" x="220.5" y="-261.7"/>
<text text-anchor="start" x="240.5" y="-251.8" font-family="Helvetica,sans-Serif" font-size="11.00" fill="#000000">id_curso</text>
<polygon fill="#ffffff" stroke="transparent" points="215.5,-222.7 215.5,-244.7 304.5,-244.7 304.5,-222.7 215.5,-222.7"/>
<polygon fill="none" stroke="#000000" points="215.5,-222.7 215.5,-244.7 304.5,-244.7 304.5,-222.7 215.5,-222.7"/>
<text text-anchor="start" x="240.5" y="-229.8" font-family="Helvetica,sans-Serif" font-size="11.00" fill="#000000">nome</text>
<polygon fill="#ffffff" stroke="transparent" points="215.5,-200.7 215.5,-222.7 304.5,-222.7 304.5,-200.7 215.5,-200.7"/>
<polygon fill="none" stroke="#000000" points="215.5,-200.7 215.5,-222.7 304.5,-222.7 304.5,-200.7 215.5,-200.7"/>
<text text-anchor="start" x="240.5" y="-207.8" font-family="Helvetica,sans-Serif" font-size="11.00" fill="#000000">email</text>
<polygon fill="#ffffff" stroke="transparent" points="215.5,-178.7 215.5,-200.7 304.5,-200.7 304.5,-178.7 215.5,-178.7"/>
<polygon fill="none" stroke="#000000" points="215.5,-178.7 215.5,-200.7 304.5,-200.7 304.5,-178.7 215.5,-178.7"/>
<text text-anchor="start" x="240.5" y="-185.8" font-family="Helvetica,sans-Serif" font-size="11.00" fill="#000000">matricula</text>
<polygon fill="#ffffff" stroke="transparent" points="215.5,-156.7 215.5,-178.7 304.5,-178.7 304.5,-156.7 215.5,-156.7"/>
<polygon fill="none" stroke="#000000" points="215.5,-156.7 215.5,-178.7 304.5,-178.7 304.5,-156.7 215.5,-156.7"/>
<text text-anchor="start" x="240.5" y="-163.8" font-family="Helvetica,sans-Serif" font-size="11.00" fill="#000000">siape</text>
<polygon fill="none" stroke="#000000" points="215.5,-137.7 215.5,-156.7 304.5,-156.7 304.5,-137.7 215.5,-137.7"/>
<text text-anchor="start" x="218.5" y="-143.8" font-family="Helvetica,sans-Serif" font-size="11.00" fill="#000000">...</text>
<polygon fill="#ffffff" stroke="transparent" points="215.5,-118.7 215.5,-137.7 253.5,-137.7 253.5,-118.7 215.5,-118.7"/>
<polygon fill="none" stroke="#000000" points="215.5,-118.7 215.5,-137.7 253.5,-137.7 253.5,-118.7 215.5,-118.7"/>
<text text-anchor="start" x="218.5" y="-124.8" font-family="Helvetica,sans-Serif" font-size="11.00" fill="#000000">&lt; 1</text>
<polygon fill="#ffffff" stroke="transparent" points="253.5,-118.7 253.5,-137.7 274.5,-137.7 274.5,-118.7 253.5,-118.7"/>
<polygon fill="none" stroke="#000000" points="253.5,-118.7 253.5,-137.7 274.5,-137.7 274.5,-118.7 253.5,-118.7"/>
<text text-anchor="start" x="265.3862" y="-124.8" font-family="Helvetica,sans-Serif" font-size="11.00" fill="#000000"> &#160;</text>
<polygon fill="#ffffff" stroke="transparent" points="274.5,-118.7 274.5,-137.7 304.5,-137.7 304.5,-118.7 274.5,-118.7"/>
<polygon fill="none" stroke="#000000" points="274.5,-118.7 274.5,-137.7 304.5,-137.7 304.5,-118.7 274.5,-118.7"/>
<text text-anchor="start" x="285.9053" y="-124.8" font-family="Helvetica,sans-Serif" font-size="11.00" fill="#000000">6 &gt;</text>
</a>
</g>
</g>
<!-- grupos&#45;&gt;usuarios -->
<g id="edge2" class="edge">
<title>grupos:w&#45;&gt;usuarios:e</title>
<path fill="none" stroke="#000000" d="M339.3186,-292.8875C327.7124,-287.825 321.9005,-277.7 304.5,-277.7"/>
<polygon fill="#000000" stroke="#000000" points="345.6528,-294.1437 352.7997,-299.2312 349.5764,-294.9218 353.5,-295.7 353.5,-295.7 353.5,-295.7 349.5764,-294.9218 354.2003,-292.1688 345.6528,-294.1437 345.6528,-294.1437"/>
<ellipse fill="none" stroke="#000000" cx="342.514" cy="-293.5212" rx="3.2" ry="3.2"/>
</g>
<!-- usuarios&#45;&gt;cursos -->
<g id="edge5" class="edge">
<title>usuarios:w&#45;&gt;cursos:e</title>
<path fill="none" stroke="#000000" d="M201.0156,-255.7C188.6771,-255.7 181.1667,-255.7 164,-255.7"/>
<polygon fill="#000000" stroke="#000000" points="207.5,-255.7001 215.5,-259.3 211.5,-255.7 215.5,-255.7 215.5,-255.7 215.5,-255.7 211.5,-255.7 215.5,-252.1 207.5,-255.7001 207.5,-255.7001"/>
<ellipse fill="none" stroke="#000000" cx="204.3" cy="-255.7001" rx="3.2" ry="3.2"/>
</g>
<!-- turmas -->
<g id="node4" class="node">
<title>turmas</title>
<g id="a_node4"><a xlink:href="../../tables/turmas.html" xlink:title="turmas" target="_top">
<polygon fill="#ffffff" stroke="transparent" points="366,-38.2 366,-187.2 445,-187.2 445,-38.2 366,-38.2"/>
<polygon fill="#f5f5f5" stroke="transparent" points="366.5,-163.7 366.5,-186.7 445.5,-186.7 445.5,-163.7 366.5,-163.7"/>
<polygon fill="none" stroke="#000000" points="366.5,-163.7 366.5,-186.7 445.5,-186.7 445.5,-163.7 366.5,-163.7"/>
<text text-anchor="start" x="371.5" y="-172.3" font-family="Helvetica,sans-Serif" font-weight="bold" font-size="11.00" fill="#000000">turmas</text>
<text text-anchor="start" x="411.0219" y="-171.8" font-family="Helvetica,sans-Serif" font-size="11.00" fill="#000000">[table]</text>
<polygon fill="none" stroke="#000000" points="366.5,-141.7 366.5,-163.7 445.5,-163.7 445.5,-141.7 366.5,-141.7"/>
<image xlink:href="../../images/primaryKeys.png" width="11px" height="12px" preserveAspectRatio="xMinYMin meet" x="371.5" y="-158.7"/>
<text text-anchor="start" x="387.5" y="-148.8" font-family="Helvetica,sans-Serif" font-size="11.00" fill="#000000">id</text>
<polygon fill="none" stroke="#000000" points="366.5,-119.7 366.5,-141.7 445.5,-141.7 445.5,-119.7 366.5,-119.7"/>
<image xlink:href="../../images/foreignKeys.png" width="11px" height="12px" preserveAspectRatio="xMinYMin meet" x="371.5" y="-136.7"/>
<text text-anchor="start" x="387.5" y="-126.8" font-family="Helvetica,sans-Serif" font-size="11.00" fill="#000000">id_curso</text>
<polygon fill="none" stroke="#000000" points="366.5,-97.7 366.5,-119.7 445.5,-119.7 445.5,-97.7 366.5,-97.7"/>
<image xlink:href="../../images/foreignKeys.png" width="11px" height="12px" preserveAspectRatio="xMinYMin meet" x="371.5" y="-114.7"/>
<text text-anchor="start" x="387.5" y="-104.8" font-family="Helvetica,sans-Serif" font-size="11.00" fill="#000000">id_user</text>
<polygon fill="#ffffff" stroke="transparent" points="366.5,-75.7 366.5,-97.7 445.5,-97.7 445.5,-75.7 366.5,-75.7"/>
<polygon fill="none" stroke="#000000" points="366.5,-75.7 366.5,-97.7 445.5,-97.7 445.5,-75.7 366.5,-75.7"/>
<text text-anchor="start" x="387.5" y="-82.8" font-family="Helvetica,sans-Serif" font-size="11.00" fill="#000000">nome</text>
<polygon fill="none" stroke="#000000" points="366.5,-56.7 366.5,-75.7 445.5,-75.7 445.5,-56.7 366.5,-56.7"/>
<text text-anchor="start" x="369.5" y="-62.8" font-family="Helvetica,sans-Serif" font-size="11.00" fill="#000000">...</text>
<polygon fill="#ffffff" stroke="transparent" points="366.5,-37.7 366.5,-56.7 399.5,-56.7 399.5,-37.7 366.5,-37.7"/>
<polygon fill="none" stroke="#000000" points="366.5,-37.7 366.5,-56.7 399.5,-56.7 399.5,-37.7 366.5,-37.7"/>
<text text-anchor="start" x="369.5" y="-43.8" font-family="Helvetica,sans-Serif" font-size="11.00" fill="#000000">&lt; 2</text>
<polygon fill="#ffffff" stroke="transparent" points="399.5,-37.7 399.5,-56.7 417.5,-56.7 417.5,-37.7 399.5,-37.7"/>
<polygon fill="none" stroke="#000000" points="399.5,-37.7 399.5,-56.7 417.5,-56.7 417.5,-37.7 399.5,-37.7"/>
<text text-anchor="start" x="408.3862" y="-43.8" font-family="Helvetica,sans-Serif" font-size="11.00" fill="#000000"> &#160;</text>
<polygon fill="#ffffff" stroke="transparent" points="417.5,-37.7 417.5,-56.7 445.5,-56.7 445.5,-37.7 417.5,-37.7"/>
<polygon fill="none" stroke="#000000" points="417.5,-37.7 417.5,-56.7 445.5,-56.7 445.5,-37.7 417.5,-37.7"/>
<text text-anchor="start" x="426.9053" y="-43.8" font-family="Helvetica,sans-Serif" font-size="11.00" fill="#000000">2 &gt;</text>
</a>
</g>
</g>
<!-- turmas&#45;&gt;cursos -->
<g id="edge3" class="edge">
<title>turmas:w&#45;&gt;cursos:e</title>
<path fill="none" stroke="#000000" d="M352.2303,-128.5609C338.0854,-123.83 332.0329,-112.5908 312,-108.7 266.1894,-99.8026 244.3443,-80.7146 207,-108.7 152.5271,-149.5213 232.0711,-255.7 164,-255.7"/>
<polygon fill="#000000" stroke="#000000" points="358.5884,-129.514 365.9663,-134.2602 362.5442,-130.107 366.5,-130.7 366.5,-130.7 366.5,-130.7 362.5442,-130.107 367.0337,-127.1398 358.5884,-129.514 358.5884,-129.514"/>
<ellipse fill="none" stroke="#000000" cx="355.4238" cy="-129.0396" rx="3.2" ry="3.2"/>
</g>
<!-- turmas&#45;&gt;usuarios -->
<g id="edge4" class="edge">
<title>turmas:w&#45;&gt;usuarios:e</title>
<path fill="none" stroke="#000000" d="M352.1402,-111.089C299.3967,-131.6301 378.8807,-277.7 304.5,-277.7"/>
<polygon fill="#000000" stroke="#000000" points="358.6085,-110.013 367.0908,-112.2512 362.5542,-109.3565 366.5,-108.7 366.5,-108.7 366.5,-108.7 362.5542,-109.3565 365.9092,-105.1488 358.6085,-110.013 358.6085,-110.013"/>
<ellipse fill="none" stroke="#000000" cx="355.4519" cy="-110.5381" rx="3.2" ry="3.2"/>
</g>
</g>
</svg>
