<?xml version="1.0" encoding="UTF-8" standalone="no"?>
<!DOCTYPE svg PUBLIC "-//W3C//DTD SVG 1.1//EN"
 "http://www.w3.org/Graphics/SVG/1.1/DTD/svg11.dtd">
<!-- Generated by graphviz version 2.40.1 (20161225.0304)
 -->
<!-- Title: twoDegreesRelationshipsDiagram Pages: 1 -->
<svg width="774pt" height="357pt"
 viewBox="0.00 0.00 774.00 357.20" xmlns="http://www.w3.org/2000/svg" xmlns:xlink="http://www.w3.org/1999/xlink">
<g id="graph0" class="graph" transform="scale(1 1) rotate(0) translate(4 353.2)">
<title>twoDegreesRelationshipsDiagram</title>
<polygon fill="#ffffff" stroke="transparent" points="-4,4 -4,-353.2 770,-353.2 770,4 -4,4"/>
<text text-anchor="middle" x="72.4936" y="-7.3" font-family="Helvetica,sans-Serif" font-size="11.00" fill="#000000">Generated by SchemaSpy</text>
<!-- encontros -->
<g id="node1" class="node">
<title>encontros</title>
<g id="a_node1"><a xlink:href="../../tables/encontros.html" xlink:title="encontros" target="_top">
<polygon fill="#ffffff" stroke="transparent" points="494,-174.2 494,-235.2 591,-235.2 591,-174.2 494,-174.2"/>
<polygon fill="#f5f5f5" stroke="transparent" points="494.5,-211.7 494.5,-234.7 591.5,-234.7 591.5,-211.7 494.5,-211.7"/>
<polygon fill="none" stroke="#000000" points="494.5,-211.7 494.5,-234.7 591.5,-234.7 591.5,-211.7 494.5,-211.7"/>
<text text-anchor="start" x="499.5" y="-220.3" font-family="Helvetica,sans-Serif" font-weight="bold" font-size="11.00" fill="#000000">encontros</text>
<text text-anchor="start" x="557.0219" y="-219.8" font-family="Helvetica,sans-Serif" font-size="11.00" fill="#000000">[table]</text>
<polygon fill="none" stroke="#000000" points="494.5,-192.7 494.5,-211.7 591.5,-211.7 591.5,-192.7 494.5,-192.7"/>
<text text-anchor="start" x="497.5" y="-198.8" font-family="Helvetica,sans-Serif" font-size="11.00" fill="#000000">...</text>
<polygon fill="#ffffff" stroke="transparent" points="494.5,-173.7 494.5,-192.7 536.5,-192.7 536.5,-173.7 494.5,-173.7"/>
<polygon fill="none" stroke="#000000" points="494.5,-173.7 494.5,-192.7 536.5,-192.7 536.5,-173.7 494.5,-173.7"/>
<text text-anchor="start" x="497.5" y="-179.8" font-family="Helvetica,sans-Serif" font-size="11.00" fill="#000000">&lt; 2</text>
<polygon fill="#ffffff" stroke="transparent" points="536.5,-173.7 536.5,-192.7 559.5,-192.7 559.5,-173.7 536.5,-173.7"/>
<polygon fill="none" stroke="#000000" points="536.5,-173.7 536.5,-192.7 559.5,-192.7 559.5,-173.7 536.5,-173.7"/>
<text text-anchor="start" x="550.3862" y="-179.8" font-family="Helvetica,sans-Serif" font-size="11.00" fill="#000000"> &#160;</text>
<polygon fill="#ffffff" stroke="transparent" points="559.5,-173.7 559.5,-192.7 591.5,-192.7 591.5,-173.7 559.5,-173.7"/>
<polygon fill="none" stroke="#000000" points="559.5,-173.7 559.5,-192.7 591.5,-192.7 591.5,-173.7 559.5,-173.7"/>
<text text-anchor="start" x="572.9053" y="-179.8" font-family="Helvetica,sans-Serif" font-size="11.00" fill="#000000">2 &gt;</text>
</a>
</g>
</g>
<!-- grupos -->
<g id="node2" class="node">
<title>grupos</title>
<g id="a_node2"><a xlink:href="../../tables/grupos.html" xlink:title="grupos" target="_top">
<polygon fill="#ffffff" stroke="transparent" points="353,-64.2 353,-125.2 432,-125.2 432,-64.2 353,-64.2"/>
<polygon fill="#f5f5f5" stroke="transparent" points="353.5,-101.7 353.5,-124.7 432.5,-124.7 432.5,-101.7 353.5,-101.7"/>
<polygon fill="none" stroke="#000000" points="353.5,-101.7 353.5,-124.7 432.5,-124.7 432.5,-101.7 353.5,-101.7"/>
<text text-anchor="start" x="358.5" y="-110.3" font-family="Helvetica,sans-Serif" font-weight="bold" font-size="11.00" fill="#000000">grupos</text>
<text text-anchor="start" x="398.0219" y="-109.8" font-family="Helvetica,sans-Serif" font-size="11.00" fill="#000000">[table]</text>
<polygon fill="none" stroke="#000000" points="353.5,-82.7 353.5,-101.7 432.5,-101.7 432.5,-82.7 353.5,-82.7"/>
<text text-anchor="start" x="356.5" y="-88.8" font-family="Helvetica,sans-Serif" font-size="11.00" fill="#000000">...</text>
<polygon fill="#ffffff" stroke="transparent" points="353.5,-63.7 353.5,-82.7 386.5,-82.7 386.5,-63.7 353.5,-63.7"/>
<polygon fill="none" stroke="#000000" points="353.5,-63.7 353.5,-82.7 386.5,-82.7 386.5,-63.7 353.5,-63.7"/>
<text text-anchor="start" x="356.5" y="-69.8" font-family="Helvetica,sans-Serif" font-size="11.00" fill="#000000">&lt; 2</text>
<polygon fill="#ffffff" stroke="transparent" points="386.5,-63.7 386.5,-82.7 404.5,-82.7 404.5,-63.7 386.5,-63.7"/>
<polygon fill="none" stroke="#000000" points="386.5,-63.7 386.5,-82.7 404.5,-82.7 404.5,-63.7 386.5,-63.7"/>
<text text-anchor="start" x="395.3862" y="-69.8" font-family="Helvetica,sans-Serif" font-size="11.00" fill="#000000"> &#160;</text>
<polygon fill="#ffffff" stroke="transparent" points="404.5,-63.7 404.5,-82.7 432.5,-82.7 432.5,-63.7 404.5,-63.7"/>
<polygon fill="none" stroke="#000000" points="404.5,-63.7 404.5,-82.7 432.5,-82.7 432.5,-63.7 404.5,-63.7"/>
<text text-anchor="start" x="413.9053" y="-69.8" font-family="Helvetica,sans-Serif" font-size="11.00" fill="#000000">2 &gt;</text>
</a>
</g>
</g>
<!-- encontros&#45;&gt;grupos -->
<g id="edge1" class="edge">
<title>encontros:w&#45;&gt;grupos:e</title>
<path fill="none" stroke="#000000" d="M480.5932,-197.0486C460.7038,-185.4402 435.2065,-154.3368 416.7657,-129.4398"/>
<polygon fill="#000000" stroke="#000000" points="486.9131,-199.1624 493.3581,-205.1141 490.7066,-200.4312 494.5,-201.7 494.5,-201.7 494.5,-201.7 490.7066,-200.4312 495.6419,-198.2859 486.9131,-199.1624 486.9131,-199.1624"/>
<ellipse fill="none" stroke="#000000" cx="483.8784" cy="-198.1473" rx="3.2" ry="3.2"/>
</g>
<!-- turmas -->
<g id="node3" class="node">
<title>turmas</title>
<g id="a_node3"><a xlink:href="../../tables/turmas.html" xlink:title="turmas" target="_top">
<polygon fill="#ffffff" stroke="transparent" points="353,-284.2 353,-345.2 432,-345.2 432,-284.2 353,-284.2"/>
<polygon fill="#f5f5f5" stroke="transparent" points="353.5,-321.7 353.5,-344.7 432.5,-344.7 432.5,-321.7 353.5,-321.7"/>
<polygon fill="none" stroke="#000000" points="353.5,-321.7 353.5,-344.7 432.5,-344.7 432.5,-321.7 353.5,-321.7"/>
<text text-anchor="start" x="358.5" y="-330.3" font-family="Helvetica,sans-Serif" font-weight="bold" font-size="11.00" fill="#000000">turmas</text>
<text text-anchor="start" x="398.0219" y="-329.8" font-family="Helvetica,sans-Serif" font-size="11.00" fill="#000000">[table]</text>
<polygon fill="none" stroke="#000000" points="353.5,-302.7 353.5,-321.7 432.5,-321.7 432.5,-302.7 353.5,-302.7"/>
<text text-anchor="start" x="356.5" y="-308.8" font-family="Helvetica,sans-Serif" font-size="11.00" fill="#000000">...</text>
<polygon fill="#ffffff" stroke="transparent" points="353.5,-283.7 353.5,-302.7 386.5,-302.7 386.5,-283.7 353.5,-283.7"/>
<polygon fill="none" stroke="#000000" points="353.5,-283.7 353.5,-302.7 386.5,-302.7 386.5,-283.7 353.5,-283.7"/>
<text text-anchor="start" x="356.5" y="-289.8" font-family="Helvetica,sans-Serif" font-size="11.00" fill="#000000">&lt; 2</text>
<polygon fill="#ffffff" stroke="transparent" points="386.5,-283.7 386.5,-302.7 404.5,-302.7 404.5,-283.7 386.5,-283.7"/>
<polygon fill="none" stroke="#000000" points="386.5,-283.7 386.5,-302.7 404.5,-302.7 404.5,-283.7 386.5,-283.7"/>
<text text-anchor="start" x="395.3862" y="-289.8" font-family="Helvetica,sans-Serif" font-size="11.00" fill="#000000"> &#160;</text>
<polygon fill="#ffffff" stroke="transparent" points="404.5,-283.7 404.5,-302.7 432.5,-302.7 432.5,-283.7 404.5,-283.7"/>
<polygon fill="none" stroke="#000000" points="404.5,-283.7 404.5,-302.7 432.5,-302.7 432.5,-283.7 404.5,-283.7"/>
<text text-anchor="start" x="413.9053" y="-289.8" font-family="Helvetica,sans-Serif" font-size="11.00" fill="#000000">2 &gt;</text>
</a>
</g>
</g>
<!-- encontros&#45;&gt;turmas -->
<g id="edge2" class="edge">
<title>encontros:w&#45;&gt;turmas:e</title>
<path fill="none" stroke="#000000" d="M480.5766,-206.4519C459.8252,-218.9177 433.4539,-253.4415 414.9989,-280.1823"/>
<polygon fill="#000000" stroke="#000000" points="486.9288,-204.284 495.6628,-205.107 490.7144,-202.992 494.5,-201.7 494.5,-201.7 494.5,-201.7 490.7144,-202.992 493.3372,-198.293 486.9288,-204.284 486.9288,-204.284"/>
<ellipse fill="none" stroke="#000000" cx="483.9003" cy="-205.3176" rx="3.2" ry="3.2"/>
</g>
<!-- cursos -->
<g id="node4" class="node">
<title>cursos</title>
<g id="a_node4"><a xlink:href="../../tables/cursos.html" xlink:title="cursos" target="_top">
<polygon fill="#ffffff" stroke="transparent" points="8,-68.7 8,-224.7 166,-224.7 166,-68.7 8,-68.7"/>
<polygon fill="#f5f5f5" stroke="transparent" points="10,-199.7 10,-222.7 164,-222.7 164,-199.7 10,-199.7"/>
<polygon fill="none" stroke="#000000" points="10,-199.7 10,-222.7 164,-222.7 164,-199.7 10,-199.7"/>
<text text-anchor="start" x="15" y="-208.3" font-family="Helvetica,sans-Serif" font-weight="bold" font-size="11.00" fill="#000000">cursos</text>
<text text-anchor="start" x="129.0437" y="-207.8" font-family="Helvetica,sans-Serif" font-size="11.00" fill="#000000">[table]</text>
<polygon fill="none" stroke="#000000" points="10,-177.7 10,-199.7 97,-199.7 97,-177.7 10,-177.7"/>
<image xlink:href="../../images/primaryKeys.png" width="11px" height="12px" preserveAspectRatio="xMinYMin meet" x="15" y="-194.7"/>
<text text-anchor="start" x="30" y="-184.8" font-family="Helvetica,sans-Serif" font-size="11.00" fill="#000000">id</text>
<polygon fill="none" stroke="#000000" points="97,-177.7 97,-199.7 164,-199.7 164,-177.7 97,-177.7"/>
<text text-anchor="start" x="100" y="-185.4" font-family="Helvetica,sans-Serif" font-size="11.00" fill="#000000">serial[10]</text>
<polygon fill="none" stroke="#000000" points="10,-155.7 10,-177.7 97,-177.7 97,-155.7 10,-155.7"/>
<text text-anchor="start" x="30" y="-162.8" font-family="Helvetica,sans-Serif" font-size="11.00" fill="#000000">status</text>
<polygon fill="none" stroke="#000000" points="97,-155.7 97,-177.7 164,-177.7 164,-155.7 97,-155.7"/>
<text text-anchor="start" x="100" y="-163.4" font-family="Helvetica,sans-Serif" font-size="11.00" fill="#000000">bool[1]</text>
<polygon fill="none" stroke="#000000" points="10,-133.7 10,-155.7 97,-155.7 97,-133.7 10,-133.7"/>
<text text-anchor="start" x="30" y="-140.8" font-family="Helvetica,sans-Serif" font-size="11.00" fill="#000000">descricao</text>
<polygon fill="none" stroke="#000000" points="97,-133.7 97,-155.7 164,-155.7 164,-133.7 97,-133.7"/>
<text text-anchor="start" x="99.9365" y="-141.4" font-family="Helvetica,sans-Serif" font-size="11.00" fill="#000000">varchar[100]</text>
<polygon fill="none" stroke="#000000" points="10,-111.7 10,-133.7 97,-133.7 97,-111.7 10,-111.7"/>
<text text-anchor="start" x="30" y="-118.8" font-family="Helvetica,sans-Serif" font-size="11.00" fill="#000000">observacao</text>
<polygon fill="none" stroke="#000000" points="97,-111.7 97,-133.7 164,-133.7 164,-111.7 97,-111.7"/>
<text text-anchor="start" x="99.9365" y="-119.4" font-family="Helvetica,sans-Serif" font-size="11.00" fill="#000000">varchar[255]</text>
<polygon fill="none" stroke="#000000" points="10,-89.7 10,-111.7 97,-111.7 97,-89.7 10,-89.7"/>
<text text-anchor="start" x="30" y="-96.8" font-family="Helvetica,sans-Serif" font-size="11.00" fill="#000000">turno</text>
<polygon fill="none" stroke="#000000" points="97,-89.7 97,-111.7 164,-111.7 164,-89.7 97,-89.7"/>
<text text-anchor="start" x="99.9365" y="-97.4" font-family="Helvetica,sans-Serif" font-size="11.00" fill="#000000">varchar[255]</text>
<polygon fill="#ffffff" stroke="transparent" points="10,-70.7 10,-89.7 58,-89.7 58,-70.7 10,-70.7"/>
<polygon fill="none" stroke="#000000" points="10,-70.7 10,-89.7 58,-89.7 58,-70.7 10,-70.7"/>
<text text-anchor="start" x="13" y="-76.8" font-family="Helvetica,sans-Serif" font-size="11.00" fill="#000000">&lt; 0</text>
<polygon fill="#ffffff" stroke="transparent" points="58,-70.7 58,-89.7 97,-89.7 97,-70.7 58,-70.7"/>
<polygon fill="none" stroke="#000000" points="58,-70.7 58,-89.7 97,-89.7 97,-70.7 58,-70.7"/>
<text text-anchor="start" x="87.8862" y="-76.8" font-family="Helvetica,sans-Serif" font-size="11.00" fill="#000000"> &#160;</text>
<polygon fill="#ffffff" stroke="transparent" points="97,-70.7 97,-89.7 164,-89.7 164,-70.7 97,-70.7"/>
<polygon fill="none" stroke="#000000" points="97,-70.7 97,-89.7 164,-89.7 164,-70.7 97,-70.7"/>
<text text-anchor="start" x="145.4053" y="-76.8" font-family="Helvetica,sans-Serif" font-size="11.00" fill="#000000">3 &gt;</text>
<polygon fill="none" stroke="#000000" stroke-width="2" points="9,-69.7 9,-223.7 165,-223.7 165,-69.7 9,-69.7"/>
</a>
</g>
</g>
<!-- grupos&#45;&gt;cursos -->
<g id="edge3" class="edge">
<title>grupos:w&#45;&gt;cursos:e</title>
<path fill="none" stroke="#000000" d="M330.3295,-104.6589C292.831,-112.5133 245.1065,-125.8844 207,-147.7 184.0835,-160.8195 190.4061,-188.7 164,-188.7"/>
<polygon fill="#000000" stroke="#000000" points="336.8282,-103.371 345.3754,-105.3471 340.7519,-102.5934 344.6756,-101.8158 344.6756,-101.8158 344.6756,-101.8158 340.7519,-102.5934 343.9757,-98.2844 336.8282,-103.371 336.8282,-103.371"/>
<ellipse fill="none" stroke="#000000" cx="333.6892" cy="-103.9931" rx="3.2" ry="3.2"/>
</g>
<!-- usuarios -->
<g id="node5" class="node">
<title>usuarios</title>
<g id="a_node5"><a xlink:href="../../tables/usuarios.html" xlink:title="usuarios" target="_top">
<polygon fill="#ffffff" stroke="transparent" points="215,-158.2 215,-219.2 304,-219.2 304,-158.2 215,-158.2"/>
<polygon fill="#f5f5f5" stroke="transparent" points="215.5,-195.7 215.5,-218.7 304.5,-218.7 304.5,-195.7 215.5,-195.7"/>
<polygon fill="none" stroke="#000000" points="215.5,-195.7 215.5,-218.7 304.5,-218.7 304.5,-195.7 215.5,-195.7"/>
<text text-anchor="start" x="220.5" y="-204.3" font-family="Helvetica,sans-Serif" font-weight="bold" font-size="11.00" fill="#000000">usuarios</text>
<text text-anchor="start" x="270.0219" y="-203.8" font-family="Helvetica,sans-Serif" font-size="11.00" fill="#000000">[table]</text>
<polygon fill="none" stroke="#000000" points="215.5,-176.7 215.5,-195.7 304.5,-195.7 304.5,-176.7 215.5,-176.7"/>
<text text-anchor="start" x="218.5" y="-182.8" font-family="Helvetica,sans-Serif" font-size="11.00" fill="#000000">...</text>
<polygon fill="#ffffff" stroke="transparent" points="215.5,-157.7 215.5,-176.7 253.5,-176.7 253.5,-157.7 215.5,-157.7"/>
<polygon fill="none" stroke="#000000" points="215.5,-157.7 215.5,-176.7 253.5,-176.7 253.5,-157.7 215.5,-157.7"/>
<text text-anchor="start" x="218.5" y="-163.8" font-family="Helvetica,sans-Serif" font-size="11.00" fill="#000000">&lt; 1</text>
<polygon fill="#ffffff" stroke="transparent" points="253.5,-157.7 253.5,-176.7 274.5,-176.7 274.5,-157.7 253.5,-157.7"/>
<polygon fill="none" stroke="#000000" points="253.5,-157.7 253.5,-176.7 274.5,-176.7 274.5,-157.7 253.5,-157.7"/>
<text text-anchor="start" x="265.3862" y="-163.8" font-family="Helvetica,sans-Serif" font-size="11.00" fill="#000000"> &#160;</text>
<polygon fill="#ffffff" stroke="transparent" points="274.5,-157.7 274.5,-176.7 304.5,-176.7 304.5,-157.7 274.5,-157.7"/>
<polygon fill="none" stroke="#000000" points="274.5,-157.7 274.5,-176.7 304.5,-176.7 304.5,-157.7 274.5,-157.7"/>
<text text-anchor="start" x="285.9053" y="-163.8" font-family="Helvetica,sans-Serif" font-size="11.00" fill="#000000">6 &gt;</text>
</a>
</g>
</g>
<!-- grupos&#45;&gt;usuarios -->
<g id="edge4" class="edge">
<title>grupos:w&#45;&gt;usuarios:e</title>
<path fill="none" stroke="#000000" d="M333.0473,-136.7192C324.8749,-142.4952 316.559,-148.3726 308.6007,-153.9973"/>
<polygon fill="#000000" stroke="#000000" points="338.3266,-132.988 346.9374,-131.3105 341.5931,-130.6793 344.8596,-128.3707 344.8596,-128.3707 344.8596,-128.3707 341.5931,-130.6793 342.7818,-125.4308 338.3266,-132.988 338.3266,-132.988"/>
<ellipse fill="none" stroke="#000000" cx="335.7134" cy="-134.8349" rx="3.2" ry="3.2"/>
</g>
<!-- turmas&#45;&gt;cursos -->
<g id="edge8" class="edge">
<title>turmas:w&#45;&gt;cursos:e</title>
<path fill="none" stroke="#000000" d="M331.0664,-292.5472C293.5826,-277.607 245.6138,-255.8702 207,-229.7 185.1411,-214.8853 190.4061,-188.7 164,-188.7"/>
<polygon fill="#000000" stroke="#000000" points="337.4248,-295.0278 343.5692,-301.2892 341.1512,-296.4816 344.8777,-297.9354 344.8777,-297.9354 344.8777,-297.9354 341.1512,-296.4816 346.1861,-294.5816 337.4248,-295.0278 337.4248,-295.0278"/>
<ellipse fill="none" stroke="#000000" cx="334.4436" cy="-293.8647" rx="3.2" ry="3.2"/>
</g>
<!-- turmas&#45;&gt;usuarios -->
<g id="edge9" class="edge">
<title>turmas:w&#45;&gt;usuarios:e</title>
<path fill="none" stroke="#000000" d="M344.9764,-269.6777C328.8868,-254.4349 311.1797,-237.6598 296.0752,-223.3501"/>
<polygon fill="#000000" stroke="#000000" points="349.9975,-274.4344 353.3292,-282.5498 352.9013,-277.1854 355.8051,-279.9364 355.8051,-279.9364 355.8051,-279.9364 352.9013,-277.1854 358.281,-277.323 349.9975,-274.4344 349.9975,-274.4344"/>
<ellipse fill="none" stroke="#000000" cx="347.6744" cy="-272.2336" rx="3.2" ry="3.2"/>
</g>
<!-- usuarios&#45;&gt;cursos -->
<g id="edge14" class="edge">
<title>usuarios:w&#45;&gt;cursos:e</title>
<path fill="none" stroke="#000000" d="M192.2593,-188.7C182.7713,-188.7 173.1396,-188.7 164,-188.7"/>
<polygon fill="#000000" stroke="#000000" points="198.9594,-188.7001 206.9594,-192.3 202.9594,-188.7 206.9594,-188.7 206.9594,-188.7 206.9594,-188.7 202.9594,-188.7 206.9594,-185.1 198.9594,-188.7001 198.9594,-188.7001"/>
<ellipse fill="none" stroke="#000000" cx="195.7594" cy="-188.7001" rx="3.2" ry="3.2"/>
</g>
<!-- mensagens -->
<g id="node6" class="node">
<title>mensagens</title>
<g id="a_node6"><a xlink:href="../../tables/mensagens.html" xlink:title="mensagens" target="_top">
<polygon fill="#ffffff" stroke="transparent" points="653,-148.2 653,-209.2 758,-209.2 758,-148.2 653,-148.2"/>
<polygon fill="#f5f5f5" stroke="transparent" points="653.5,-185.7 653.5,-208.7 758.5,-208.7 758.5,-185.7 653.5,-185.7"/>
<polygon fill="none" stroke="#000000" points="653.5,-185.7 653.5,-208.7 758.5,-208.7 758.5,-185.7 653.5,-185.7"/>
<text text-anchor="start" x="658.5" y="-194.3" font-family="Helvetica,sans-Serif" font-weight="bold" font-size="11.00" fill="#000000">mensagens</text>
<text text-anchor="start" x="724.0219" y="-193.8" font-family="Helvetica,sans-Serif" font-size="11.00" fill="#000000">[table]</text>
<polygon fill="none" stroke="#000000" points="653.5,-166.7 653.5,-185.7 758.5,-185.7 758.5,-166.7 653.5,-166.7"/>
<text text-anchor="start" x="656.5" y="-172.8" font-family="Helvetica,sans-Serif" font-size="11.00" fill="#000000">...</text>
<polygon fill="#ffffff" stroke="transparent" points="653.5,-147.7 653.5,-166.7 704.5,-166.7 704.5,-147.7 653.5,-147.7"/>
<polygon fill="none" stroke="#000000" points="653.5,-147.7 653.5,-166.7 704.5,-166.7 704.5,-147.7 653.5,-147.7"/>
<text text-anchor="start" x="656.5" y="-153.8" font-family="Helvetica,sans-Serif" font-size="11.00" fill="#000000">&lt; 2</text>
<polygon fill="#ffffff" stroke="transparent" points="704.5,-147.7 704.5,-166.7 731.5,-166.7 731.5,-147.7 704.5,-147.7"/>
<polygon fill="none" stroke="#000000" points="704.5,-147.7 704.5,-166.7 731.5,-166.7 731.5,-147.7 704.5,-147.7"/>
<text text-anchor="start" x="722.3862" y="-153.8" font-family="Helvetica,sans-Serif" font-size="11.00" fill="#000000"> &#160;</text>
<polygon fill="#ffffff" stroke="transparent" points="731.5,-147.7 731.5,-166.7 758.5,-166.7 758.5,-147.7 731.5,-147.7"/>
<polygon fill="none" stroke="#000000" points="731.5,-147.7 731.5,-166.7 758.5,-166.7 758.5,-147.7 731.5,-147.7"/>
<text text-anchor="start" x="749.3862" y="-153.8" font-family="Helvetica,sans-Serif" font-size="11.00" fill="#000000"> &#160;</text>
</a>
</g>
</g>
<!-- mensagens&#45;&gt;encontros -->
<g id="edge5" class="edge">
<title>mensagens:w&#45;&gt;encontros:e</title>
<path fill="none" stroke="#000000" d="M639.2431,-178.0994C621.8081,-184.5359 615.7778,-201.7 591.5,-201.7"/>
<polygon fill="#000000" stroke="#000000" points="645.6109,-177.0278 654.0975,-179.2501 649.5555,-176.3639 653.5,-175.7 653.5,-175.7 653.5,-175.7 649.5555,-176.3639 652.9025,-172.1499 645.6109,-177.0278 645.6109,-177.0278"/>
<ellipse fill="none" stroke="#000000" cx="642.4553" cy="-177.5589" rx="3.2" ry="3.2"/>
</g>
<!-- mensagens&#45;&gt;usuarios -->
<g id="edge6" class="edge">
<title>mensagens:w&#45;&gt;usuarios:e</title>
<path fill="none" stroke="#000000" d="M639.1959,-173.4593C630.7087,-170.5292 625.0695,-165.5516 612,-163.7 494.5066,-147.054 462.4683,-146.8784 345,-163.7 334.2836,-165.2346 323.0351,-167.7992 312.3467,-170.7157"/>
<polygon fill="#000000" stroke="#000000" points="645.5964,-174.4619 652.9428,-179.2566 649.5482,-175.0809 653.5,-175.7 653.5,-175.7 653.5,-175.7 649.5482,-175.0809 654.0572,-172.1434 645.5964,-174.4619 645.5964,-174.4619"/>
<ellipse fill="none" stroke="#000000" cx="642.4349" cy="-173.9666" rx="3.2" ry="3.2"/>
</g>
<!-- token -->
<g id="node7" class="node">
<title>token</title>
<g id="a_node7"><a xlink:href="../../tables/token.html" xlink:title="token" target="_top">
<polygon fill="#ffffff" stroke="transparent" points="357,-174.2 357,-235.2 428,-235.2 428,-174.2 357,-174.2"/>
<polygon fill="#f5f5f5" stroke="transparent" points="357.5,-211.7 357.5,-234.7 428.5,-234.7 428.5,-211.7 357.5,-211.7"/>
<polygon fill="none" stroke="#000000" points="357.5,-211.7 357.5,-234.7 428.5,-234.7 428.5,-211.7 357.5,-211.7"/>
<text text-anchor="start" x="362.5" y="-220.3" font-family="Helvetica,sans-Serif" font-weight="bold" font-size="11.00" fill="#000000">token</text>
<text text-anchor="start" x="394.0219" y="-219.8" font-family="Helvetica,sans-Serif" font-size="11.00" fill="#000000">[table]</text>
<polygon fill="none" stroke="#000000" points="357.5,-192.7 357.5,-211.7 428.5,-211.7 428.5,-192.7 357.5,-192.7"/>
<text text-anchor="start" x="360.5" y="-198.8" font-family="Helvetica,sans-Serif" font-size="11.00" fill="#000000">...</text>
<polygon fill="#ffffff" stroke="transparent" points="357.5,-173.7 357.5,-192.7 391.5,-192.7 391.5,-173.7 357.5,-173.7"/>
<polygon fill="none" stroke="#000000" points="357.5,-173.7 357.5,-192.7 391.5,-192.7 391.5,-173.7 357.5,-173.7"/>
<text text-anchor="start" x="360.5" y="-179.8" font-family="Helvetica,sans-Serif" font-size="11.00" fill="#000000">&lt; 1</text>
<polygon fill="#ffffff" stroke="transparent" points="391.5,-173.7 391.5,-192.7 409.5,-192.7 409.5,-173.7 391.5,-173.7"/>
<polygon fill="none" stroke="#000000" points="391.5,-173.7 391.5,-192.7 409.5,-192.7 409.5,-173.7 391.5,-173.7"/>
<text text-anchor="start" x="400.3862" y="-179.8" font-family="Helvetica,sans-Serif" font-size="11.00" fill="#000000"> &#160;</text>
<polygon fill="#ffffff" stroke="transparent" points="409.5,-173.7 409.5,-192.7 428.5,-192.7 428.5,-173.7 409.5,-173.7"/>
<polygon fill="none" stroke="#000000" points="409.5,-173.7 409.5,-192.7 428.5,-192.7 428.5,-173.7 409.5,-173.7"/>
<text text-anchor="start" x="419.3862" y="-179.8" font-family="Helvetica,sans-Serif" font-size="11.00" fill="#000000"> &#160;</text>
</a>
</g>
</g>
<!-- token&#45;&gt;usuarios -->
<g id="edge7" class="edge">
<title>token:w&#45;&gt;usuarios:e</title>
<path fill="none" stroke="#000000" d="M343.0447,-201.2808C332.6845,-200.7107 322.1566,-199.6088 312.2249,-198.2844"/>
<polygon fill="#000000" stroke="#000000" points="349.5034,-201.4681 357.3956,-205.2985 353.5017,-201.584 357.5,-201.7 357.5,-201.7 357.5,-201.7 353.5017,-201.584 357.6044,-198.1015 349.5034,-201.4681 349.5034,-201.4681"/>
<ellipse fill="none" stroke="#000000" cx="346.3047" cy="-201.3753" rx="3.2" ry="3.2"/>
</g>
<!-- usuario_grupo -->
<g id="node8" class="node">
<title>usuario_grupo</title>
<g id="a_node8"><a xlink:href="../../tables/usuario_grupo.html" xlink:title="usuario_grupo" target="_top">
<polygon fill="#ffffff" stroke="transparent" points="481,-38.2 481,-99.2 604,-99.2 604,-38.2 481,-38.2"/>
<polygon fill="#f5f5f5" stroke="transparent" points="481.5,-75.7 481.5,-98.7 604.5,-98.7 604.5,-75.7 481.5,-75.7"/>
<polygon fill="none" stroke="#000000" points="481.5,-75.7 481.5,-98.7 604.5,-98.7 604.5,-75.7 481.5,-75.7"/>
<text text-anchor="start" x="486.5" y="-84.3" font-family="Helvetica,sans-Serif" font-weight="bold" font-size="11.00" fill="#000000">usuario_grupo</text>
<text text-anchor="start" x="570.0219" y="-83.8" font-family="Helvetica,sans-Serif" font-size="11.00" fill="#000000">[table]</text>
<polygon fill="none" stroke="#000000" points="481.5,-56.7 481.5,-75.7 604.5,-75.7 604.5,-56.7 481.5,-56.7"/>
<text text-anchor="start" x="484.5" y="-62.8" font-family="Helvetica,sans-Serif" font-size="11.00" fill="#000000">...</text>
<polygon fill="#ffffff" stroke="transparent" points="481.5,-37.7 481.5,-56.7 541.5,-56.7 541.5,-37.7 481.5,-37.7"/>
<polygon fill="none" stroke="#000000" points="481.5,-37.7 481.5,-56.7 541.5,-56.7 541.5,-37.7 481.5,-37.7"/>
<text text-anchor="start" x="484.5" y="-43.8" font-family="Helvetica,sans-Serif" font-size="11.00" fill="#000000">&lt; 2</text>
<polygon fill="#ffffff" stroke="transparent" points="541.5,-37.7 541.5,-56.7 572.5,-56.7 572.5,-37.7 541.5,-37.7"/>
<polygon fill="none" stroke="#000000" points="541.5,-37.7 541.5,-56.7 572.5,-56.7 572.5,-37.7 541.5,-37.7"/>
<text text-anchor="start" x="563.3862" y="-43.8" font-family="Helvetica,sans-Serif" font-size="11.00" fill="#000000"> &#160;</text>
<polygon fill="#ffffff" stroke="transparent" points="572.5,-37.7 572.5,-56.7 604.5,-56.7 604.5,-37.7 572.5,-37.7"/>
<polygon fill="none" stroke="#000000" points="572.5,-37.7 572.5,-56.7 604.5,-56.7 604.5,-37.7 572.5,-37.7"/>
<text text-anchor="start" x="595.3862" y="-43.8" font-family="Helvetica,sans-Serif" font-size="11.00" fill="#000000"> &#160;</text>
</a>
</g>
</g>
<!-- usuario_grupo&#45;&gt;grupos -->
<g id="edge10" class="edge">
<title>usuario_grupo:w&#45;&gt;grupos:e</title>
<path fill="none" stroke="#000000" d="M467.1076,-66.7471C457.9054,-68.0249 448.7162,-70.3653 440.0905,-73.1682"/>
<polygon fill="#000000" stroke="#000000" points="473.5211,-66.2806 481.7612,-69.2905 477.5105,-65.9903 481.5,-65.7 481.5,-65.7 481.5,-65.7 477.5105,-65.9903 481.2388,-62.1095 473.5211,-66.2806 473.5211,-66.2806"/>
<ellipse fill="none" stroke="#000000" cx="470.3295" cy="-66.5128" rx="3.2" ry="3.2"/>
</g>
<!-- usuario_grupo&#45;&gt;usuarios -->
<g id="edge11" class="edge">
<title>usuario_grupo:w&#45;&gt;usuarios:e</title>
<path fill="none" stroke="#000000" d="M467.1959,-63.4593C458.7087,-60.5292 453.0695,-55.5516 440,-53.7 398.1952,-47.7773 381.9903,-33.3423 345,-53.7 306.4767,-74.9014 282.8809,-121.5997 270.4955,-154.0954"/>
<polygon fill="#000000" stroke="#000000" points="473.5964,-64.4619 480.9428,-69.2566 477.5482,-65.0809 481.5,-65.7 481.5,-65.7 481.5,-65.7 477.5482,-65.0809 482.0572,-62.1434 473.5964,-64.4619 473.5964,-64.4619"/>
<ellipse fill="none" stroke="#000000" cx="470.4349" cy="-63.9666" rx="3.2" ry="3.2"/>
</g>
<!-- usuario_turma -->
<g id="node9" class="node">
<title>usuario_turma</title>
<g id="a_node9"><a xlink:href="../../tables/usuario_turma.html" xlink:title="usuario_turma" target="_top">
<polygon fill="#ffffff" stroke="transparent" points="481.5,-271.2 481.5,-332.2 603.5,-332.2 603.5,-271.2 481.5,-271.2"/>
<polygon fill="#f5f5f5" stroke="transparent" points="481.5,-308.7 481.5,-331.7 603.5,-331.7 603.5,-308.7 481.5,-308.7"/>
<polygon fill="none" stroke="#000000" points="481.5,-308.7 481.5,-331.7 603.5,-331.7 603.5,-308.7 481.5,-308.7"/>
<text text-anchor="start" x="486.5" y="-317.3" font-family="Helvetica,sans-Serif" font-weight="bold" font-size="11.00" fill="#000000">usuario_turma</text>
<text text-anchor="start" x="569.0219" y="-316.8" font-family="Helvetica,sans-Serif" font-size="11.00" fill="#000000">[table]</text>
<polygon fill="none" stroke="#000000" points="481.5,-289.7 481.5,-308.7 603.5,-308.7 603.5,-289.7 481.5,-289.7"/>
<text text-anchor="start" x="484.5" y="-295.8" font-family="Helvetica,sans-Serif" font-size="11.00" fill="#000000">...</text>
<polygon fill="#ffffff" stroke="transparent" points="481.5,-270.7 481.5,-289.7 540.5,-289.7 540.5,-270.7 481.5,-270.7"/>
<polygon fill="none" stroke="#000000" points="481.5,-270.7 481.5,-289.7 540.5,-289.7 540.5,-270.7 481.5,-270.7"/>
<text text-anchor="start" x="484.5" y="-276.8" font-family="Helvetica,sans-Serif" font-size="11.00" fill="#000000">&lt; 2</text>
<polygon fill="#ffffff" stroke="transparent" points="540.5,-270.7 540.5,-289.7 571.5,-289.7 571.5,-270.7 540.5,-270.7"/>
<polygon fill="none" stroke="#000000" points="540.5,-270.7 540.5,-289.7 571.5,-289.7 571.5,-270.7 540.5,-270.7"/>
<text text-anchor="start" x="562.3862" y="-276.8" font-family="Helvetica,sans-Serif" font-size="11.00" fill="#000000"> &#160;</text>
<polygon fill="#ffffff" stroke="transparent" points="571.5,-270.7 571.5,-289.7 603.5,-289.7 603.5,-270.7 571.5,-270.7"/>
<polygon fill="none" stroke="#000000" points="571.5,-270.7 571.5,-289.7 603.5,-289.7 603.5,-270.7 571.5,-270.7"/>
<text text-anchor="start" x="594.3862" y="-276.8" font-family="Helvetica,sans-Serif" font-size="11.00" fill="#000000"> &#160;</text>
</a>
</g>
</g>
<!-- usuario_turma&#45;&gt;turmas -->
<g id="edge12" class="edge">
<title>usuario_turma:w&#45;&gt;turmas:e</title>
<path fill="none" stroke="#000000" d="M466.9943,-299.3168C457.9705,-300.0428 448.8596,-301.3488 440.255,-302.9038"/>
<polygon fill="#000000" stroke="#000000" points="473.5072,-299.0399 481.653,-302.2967 477.5036,-298.87 481.5,-298.7 481.5,-298.7 481.5,-298.7 477.5036,-298.87 481.347,-295.1033 473.5072,-299.0399 473.5072,-299.0399"/>
<ellipse fill="none" stroke="#000000" cx="470.3101" cy="-299.1759" rx="3.2" ry="3.2"/>
</g>
<!-- usuario_turma&#45;&gt;usuarios -->
<g id="edge13" class="edge">
<title>usuario_turma:w&#45;&gt;usuarios:e</title>
<path fill="none" stroke="#000000" d="M467.4745,-295.3585C458.2839,-290.1203 454.1666,-279.9316 440,-273.7 399.7079,-255.9764 384.8756,-264.3419 345,-245.7 331.7479,-239.5046 318.2131,-231.43 305.9364,-223.3156"/>
<polygon fill="#000000" stroke="#000000" points="473.7178,-296.8459 480.6657,-302.202 477.6089,-297.773 481.5,-298.7 481.5,-298.7 481.5,-298.7 477.6089,-297.773 482.3343,-295.198 473.7178,-296.8459 473.7178,-296.8459"/>
<ellipse fill="none" stroke="#000000" cx="470.6049" cy="-296.1043" rx="3.2" ry="3.2"/>
</g>
</g>
</svg>
