<?xml version="1.0" encoding="UTF-8" standalone="no"?>
<!DOCTYPE svg PUBLIC "-//W3C//DTD SVG 1.1//EN"
 "http://www.w3.org/Graphics/SVG/1.1/DTD/svg11.dtd">
<!-- Generated by graphviz version 2.40.1 (20161225.0304)
 -->
<!-- Title: oneDegreeRelationshipsDiagram Pages: 1 -->
<svg width="467pt" height="422pt"
 viewBox="0.00 0.00 467.00 421.70" xmlns="http://www.w3.org/2000/svg" xmlns:xlink="http://www.w3.org/1999/xlink">
<g id="graph0" class="graph" transform="scale(1 1) rotate(0) translate(4 417.7)">
<title>oneDegreeRelationshipsDiagram</title>
<polygon fill="#ffffff" stroke="transparent" points="-4,4 -4,-417.7 463,-417.7 463,4 -4,4"/>
<text text-anchor="middle" x="72.4936" y="-7.3" font-family="Helvetica,sans-Serif" font-size="11.00" fill="#000000">Generated by SchemaSpy</text>
<!-- grupo -->
<g id="node1" class="node">
<title>grupo</title>
<g id="a_node1"><a xlink:href="../../tables/grupo.html" xlink:title="grupo" target="_top">
<polygon fill="#ffffff" stroke="transparent" points="346,-260.7 346,-409.7 451,-409.7 451,-260.7 346,-260.7"/>
<polygon fill="#f5f5f5" stroke="transparent" points="346.5,-386.2 346.5,-409.2 451.5,-409.2 451.5,-386.2 346.5,-386.2"/>
<polygon fill="none" stroke="#000000" points="346.5,-386.2 346.5,-409.2 451.5,-409.2 451.5,-386.2 346.5,-386.2"/>
<text text-anchor="start" x="351.5" y="-394.8" font-family="Helvetica,sans-Serif" font-weight="bold" font-size="11.00" fill="#000000">grupo</text>
<text text-anchor="start" x="416.5437" y="-394.3" font-family="Helvetica,sans-Serif" font-size="11.00" fill="#000000">[table]</text>
<polygon fill="none" stroke="#000000" points="346.5,-364.2 346.5,-386.2 451.5,-386.2 451.5,-364.2 346.5,-364.2"/>
<image xlink:href="../../images/primaryKeys.png" width="11px" height="12px" preserveAspectRatio="xMinYMin meet" x="351.5" y="-381.2"/>
<text text-anchor="start" x="366.5" y="-371.3" font-family="Helvetica,sans-Serif" font-size="11.00" fill="#000000">id</text>
<polygon fill="#ffffff" stroke="transparent" points="346.5,-342.2 346.5,-364.2 451.5,-364.2 451.5,-342.2 346.5,-342.2"/>
<polygon fill="none" stroke="#000000" points="346.5,-342.2 346.5,-364.2 451.5,-364.2 451.5,-342.2 346.5,-342.2"/>
<text text-anchor="start" x="366.5" y="-349.3" font-family="Helvetica,sans-Serif" font-size="11.00" fill="#000000">nome</text>
<polygon fill="none" stroke="#000000" points="346.5,-320.2 346.5,-342.2 451.5,-342.2 451.5,-320.2 346.5,-320.2"/>
<image xlink:href="../../images/foreignKeys.png" width="11px" height="12px" preserveAspectRatio="xMinYMin meet" x="351.5" y="-337.2"/>
<text text-anchor="start" x="366.5" y="-327.3" font-family="Helvetica,sans-Serif" font-size="11.00" fill="#000000">id_user</text>
<polygon fill="none" stroke="#000000" points="346.5,-298.2 346.5,-320.2 451.5,-320.2 451.5,-298.2 346.5,-298.2"/>
<image xlink:href="../../images/foreignKeys.png" width="11px" height="12px" preserveAspectRatio="xMinYMin meet" x="351.5" y="-315.2"/>
<text text-anchor="start" x="366.5" y="-305.3" font-family="Helvetica,sans-Serif" font-size="11.00" fill="#000000">id_curso</text>
<polygon fill="none" stroke="#000000" points="346.5,-279.2 346.5,-298.2 451.5,-298.2 451.5,-279.2 346.5,-279.2"/>
<text text-anchor="start" x="349.5" y="-285.3" font-family="Helvetica,sans-Serif" font-size="11.00" fill="#000000">...</text>
<polygon fill="#ffffff" stroke="transparent" points="346.5,-260.2 346.5,-279.2 392.5,-279.2 392.5,-260.2 346.5,-260.2"/>
<polygon fill="none" stroke="#000000" points="346.5,-260.2 346.5,-279.2 392.5,-279.2 392.5,-260.2 346.5,-260.2"/>
<text text-anchor="start" x="349.5" y="-266.3" font-family="Helvetica,sans-Serif" font-size="11.00" fill="#000000">&lt; 2</text>
<polygon fill="#ffffff" stroke="transparent" points="392.5,-260.2 392.5,-279.2 417.5,-279.2 417.5,-260.2 392.5,-260.2"/>
<polygon fill="none" stroke="#000000" points="392.5,-260.2 392.5,-279.2 417.5,-279.2 417.5,-260.2 392.5,-260.2"/>
<text text-anchor="start" x="408.3862" y="-266.3" font-family="Helvetica,sans-Serif" font-size="11.00" fill="#000000"> &#160;</text>
<polygon fill="#ffffff" stroke="transparent" points="417.5,-260.2 417.5,-279.2 451.5,-279.2 451.5,-260.2 417.5,-260.2"/>
<polygon fill="none" stroke="#000000" points="417.5,-260.2 417.5,-279.2 451.5,-279.2 451.5,-260.2 417.5,-260.2"/>
<text text-anchor="start" x="432.9053" y="-266.3" font-family="Helvetica,sans-Serif" font-size="11.00" fill="#000000">2 &gt;</text>
</a>
</g>
</g>
<!-- curso -->
<g id="node2" class="node">
<title>curso</title>
<g id="a_node2"><a xlink:href="../../tables/curso.html" xlink:title="curso" target="_top">
<polygon fill="#ffffff" stroke="transparent" points="8,-38.2 8,-194.2 166,-194.2 166,-38.2 8,-38.2"/>
<polygon fill="#f5f5f5" stroke="transparent" points="10,-169.2 10,-192.2 164,-192.2 164,-169.2 10,-169.2"/>
<polygon fill="none" stroke="#000000" points="10,-169.2 10,-192.2 164,-192.2 164,-169.2 10,-169.2"/>
<text text-anchor="start" x="15" y="-177.8" font-family="Helvetica,sans-Serif" font-weight="bold" font-size="11.00" fill="#000000">curso</text>
<text text-anchor="start" x="129.0437" y="-177.3" font-family="Helvetica,sans-Serif" font-size="11.00" fill="#000000">[table]</text>
<polygon fill="none" stroke="#000000" points="10,-147.2 10,-169.2 97,-169.2 97,-147.2 10,-147.2"/>
<image xlink:href="../../images/primaryKeys.png" width="11px" height="12px" preserveAspectRatio="xMinYMin meet" x="15" y="-164.2"/>
<text text-anchor="start" x="30" y="-154.3" font-family="Helvetica,sans-Serif" font-size="11.00" fill="#000000">id</text>
<polygon fill="none" stroke="#000000" points="97,-147.2 97,-169.2 164,-169.2 164,-147.2 97,-147.2"/>
<text text-anchor="start" x="100" y="-154.9" font-family="Helvetica,sans-Serif" font-size="11.00" fill="#000000">serial[10]</text>
<polygon fill="none" stroke="#000000" points="10,-125.2 10,-147.2 97,-147.2 97,-125.2 10,-125.2"/>
<text text-anchor="start" x="30" y="-132.3" font-family="Helvetica,sans-Serif" font-size="11.00" fill="#000000">descricao</text>
<polygon fill="none" stroke="#000000" points="97,-125.2 97,-147.2 164,-147.2 164,-125.2 97,-125.2"/>
<text text-anchor="start" x="99.9365" y="-132.9" font-family="Helvetica,sans-Serif" font-size="11.00" fill="#000000">varchar[100]</text>
<polygon fill="none" stroke="#000000" points="10,-103.2 10,-125.2 97,-125.2 97,-103.2 10,-103.2"/>
<text text-anchor="start" x="30" y="-110.3" font-family="Helvetica,sans-Serif" font-size="11.00" fill="#000000">observacao</text>
<polygon fill="none" stroke="#000000" points="97,-103.2 97,-125.2 164,-125.2 164,-103.2 97,-103.2"/>
<text text-anchor="start" x="99.9365" y="-110.9" font-family="Helvetica,sans-Serif" font-size="11.00" fill="#000000">varchar[255]</text>
<polygon fill="none" stroke="#000000" points="10,-81.2 10,-103.2 97,-103.2 97,-81.2 10,-81.2"/>
<text text-anchor="start" x="30" y="-88.3" font-family="Helvetica,sans-Serif" font-size="11.00" fill="#000000">status</text>
<polygon fill="none" stroke="#000000" points="97,-81.2 97,-103.2 164,-103.2 164,-81.2 97,-81.2"/>
<text text-anchor="start" x="100" y="-88.9" font-family="Helvetica,sans-Serif" font-size="11.00" fill="#000000">bool[1]</text>
<polygon fill="none" stroke="#000000" points="10,-59.2 10,-81.2 97,-81.2 97,-59.2 10,-59.2"/>
<text text-anchor="start" x="30" y="-66.3" font-family="Helvetica,sans-Serif" font-size="11.00" fill="#000000">turno</text>
<polygon fill="none" stroke="#000000" points="97,-59.2 97,-81.2 164,-81.2 164,-59.2 97,-59.2"/>
<text text-anchor="start" x="99.9365" y="-66.9" font-family="Helvetica,sans-Serif" font-size="11.00" fill="#000000">varchar[255]</text>
<polygon fill="#ffffff" stroke="transparent" points="10,-40.2 10,-59.2 58,-59.2 58,-40.2 10,-40.2"/>
<polygon fill="none" stroke="#000000" points="10,-40.2 10,-59.2 58,-59.2 58,-40.2 10,-40.2"/>
<text text-anchor="start" x="13" y="-46.3" font-family="Helvetica,sans-Serif" font-size="11.00" fill="#000000">&lt; 0</text>
<polygon fill="#ffffff" stroke="transparent" points="58,-40.2 58,-59.2 97,-59.2 97,-40.2 58,-40.2"/>
<polygon fill="none" stroke="#000000" points="58,-40.2 58,-59.2 97,-59.2 97,-40.2 58,-40.2"/>
<text text-anchor="start" x="87.8862" y="-46.3" font-family="Helvetica,sans-Serif" font-size="11.00" fill="#000000"> &#160;</text>
<polygon fill="#ffffff" stroke="transparent" points="97,-40.2 97,-59.2 164,-59.2 164,-40.2 97,-40.2"/>
<polygon fill="none" stroke="#000000" points="97,-40.2 97,-59.2 164,-59.2 164,-40.2 97,-40.2"/>
<text text-anchor="start" x="145.4053" y="-46.3" font-family="Helvetica,sans-Serif" font-size="11.00" fill="#000000">3 &gt;</text>
<polygon fill="none" stroke="#000000" stroke-width="2" points="9,-39.2 9,-193.2 165,-193.2 165,-39.2 9,-39.2"/>
</a>
</g>
</g>
<!-- grupo&#45;&gt;curso -->
<g id="edge1" class="edge">
<title>grupo:w&#45;&gt;curso:e</title>
<path fill="none" stroke="#000000" d="M331.8903,-309.972C279.7211,-315.4832 252.3238,-347.6619 207,-313.2 150.0914,-269.9296 235.4907,-158.2 164,-158.2"/>
<polygon fill="#000000" stroke="#000000" points="338.5111,-309.6222 346.69,-312.795 342.5056,-309.4111 346.5,-309.2 346.5,-309.2 346.5,-309.2 342.5056,-309.4111 346.31,-305.605 338.5111,-309.6222 338.5111,-309.6222"/>
<ellipse fill="none" stroke="#000000" cx="335.3156" cy="-309.7911" rx="3.2" ry="3.2"/>
</g>
<!-- usuario -->
<g id="node3" class="node">
<title>usuario</title>
<g id="a_node3"><a xlink:href="../../tables/usuario.html" xlink:title="usuario" target="_top">
<polygon fill="#ffffff" stroke="transparent" points="215,-109.7 215,-302.7 297,-302.7 297,-109.7 215,-109.7"/>
<polygon fill="#f5f5f5" stroke="transparent" points="215,-279.2 215,-302.2 297,-302.2 297,-279.2 215,-279.2"/>
<polygon fill="none" stroke="#000000" points="215,-279.2 215,-302.2 297,-302.2 297,-279.2 215,-279.2"/>
<text text-anchor="start" x="220" y="-287.8" font-family="Helvetica,sans-Serif" font-weight="bold" font-size="11.00" fill="#000000">usuario</text>
<text text-anchor="start" x="262.5219" y="-287.3" font-family="Helvetica,sans-Serif" font-size="11.00" fill="#000000">[table]</text>
<polygon fill="none" stroke="#000000" points="215,-257.2 215,-279.2 297,-279.2 297,-257.2 215,-257.2"/>
<image xlink:href="../../images/primaryKeys.png" width="11px" height="12px" preserveAspectRatio="xMinYMin meet" x="220" y="-274.2"/>
<text text-anchor="start" x="237" y="-264.3" font-family="Helvetica,sans-Serif" font-size="11.00" fill="#000000">id</text>
<polygon fill="#ffffff" stroke="transparent" points="215,-235.2 215,-257.2 297,-257.2 297,-235.2 215,-235.2"/>
<polygon fill="none" stroke="#000000" points="215,-235.2 215,-257.2 297,-257.2 297,-235.2 215,-235.2"/>
<text text-anchor="start" x="237" y="-242.3" font-family="Helvetica,sans-Serif" font-size="11.00" fill="#000000">matricula</text>
<polygon fill="#ffffff" stroke="transparent" points="215,-213.2 215,-235.2 297,-235.2 297,-213.2 215,-213.2"/>
<polygon fill="none" stroke="#000000" points="215,-213.2 215,-235.2 297,-235.2 297,-213.2 215,-213.2"/>
<text text-anchor="start" x="237" y="-220.3" font-family="Helvetica,sans-Serif" font-size="11.00" fill="#000000">email</text>
<polygon fill="#ffffff" stroke="transparent" points="215,-191.2 215,-213.2 297,-213.2 297,-191.2 215,-191.2"/>
<polygon fill="none" stroke="#000000" points="215,-191.2 215,-213.2 297,-213.2 297,-191.2 215,-191.2"/>
<text text-anchor="start" x="237" y="-198.3" font-family="Helvetica,sans-Serif" font-size="11.00" fill="#000000">nome</text>
<polygon fill="#ffffff" stroke="transparent" points="215,-169.2 215,-191.2 297,-191.2 297,-169.2 215,-169.2"/>
<polygon fill="none" stroke="#000000" points="215,-169.2 215,-191.2 297,-191.2 297,-169.2 215,-169.2"/>
<text text-anchor="start" x="237" y="-176.3" font-family="Helvetica,sans-Serif" font-size="11.00" fill="#000000">siape</text>
<polygon fill="none" stroke="#000000" points="215,-147.2 215,-169.2 297,-169.2 297,-147.2 215,-147.2"/>
<image xlink:href="../../images/foreignKeys.png" width="11px" height="12px" preserveAspectRatio="xMinYMin meet" x="220" y="-164.2"/>
<text text-anchor="start" x="237" y="-154.3" font-family="Helvetica,sans-Serif" font-size="11.00" fill="#000000">id_curso</text>
<polygon fill="none" stroke="#000000" points="215,-128.2 215,-147.2 297,-147.2 297,-128.2 215,-128.2"/>
<text text-anchor="start" x="218" y="-134.3" font-family="Helvetica,sans-Serif" font-size="11.00" fill="#000000">...</text>
<polygon fill="#ffffff" stroke="transparent" points="215,-109.2 215,-128.2 250,-128.2 250,-109.2 215,-109.2"/>
<polygon fill="none" stroke="#000000" points="215,-109.2 215,-128.2 250,-128.2 250,-109.2 215,-109.2"/>
<text text-anchor="start" x="218" y="-115.3" font-family="Helvetica,sans-Serif" font-size="11.00" fill="#000000">&lt; 1</text>
<polygon fill="#ffffff" stroke="transparent" points="250,-109.2 250,-128.2 269,-128.2 269,-109.2 250,-109.2"/>
<polygon fill="none" stroke="#000000" points="250,-109.2 250,-128.2 269,-128.2 269,-109.2 250,-109.2"/>
<text text-anchor="start" x="259.8862" y="-115.3" font-family="Helvetica,sans-Serif" font-size="11.00" fill="#000000"> &#160;</text>
<polygon fill="#ffffff" stroke="transparent" points="269,-109.2 269,-128.2 297,-128.2 297,-109.2 269,-109.2"/>
<polygon fill="none" stroke="#000000" points="269,-109.2 269,-128.2 297,-128.2 297,-109.2 269,-109.2"/>
<text text-anchor="start" x="278.4053" y="-115.3" font-family="Helvetica,sans-Serif" font-size="11.00" fill="#000000">6 &gt;</text>
</a>
</g>
</g>
<!-- grupo&#45;&gt;usuario -->
<g id="edge2" class="edge">
<title>grupo:w&#45;&gt;usuario:e</title>
<path fill="none" stroke="#000000" d="M332.6375,-326.2565C316.6631,-311.4048 326.4887,-268.2 297,-268.2"/>
<polygon fill="#000000" stroke="#000000" points="338.9648,-328.5128 345.2908,-334.5908 342.7324,-329.8564 346.5,-331.2 346.5,-331.2 346.5,-331.2 342.7324,-329.8564 347.7092,-327.8092 338.9648,-328.5128 338.9648,-328.5128"/>
<ellipse fill="none" stroke="#000000" cx="335.9507" cy="-327.438" rx="3.2" ry="3.2"/>
</g>
<!-- usuario&#45;&gt;curso -->
<g id="edge5" class="edge">
<title>usuario:w&#45;&gt;curso:e</title>
<path fill="none" stroke="#000000" d="M200.276,-158.2C188.2815,-158.2 180.8229,-158.2 164,-158.2"/>
<polygon fill="#000000" stroke="#000000" points="207,-158.2001 215,-161.8 211,-158.2 215,-158.2 215,-158.2 215,-158.2 211,-158.2 215,-154.6 207,-158.2001 207,-158.2001"/>
<ellipse fill="none" stroke="#000000" cx="203.8" cy="-158.2001" rx="3.2" ry="3.2"/>
</g>
<!-- turma -->
<g id="node4" class="node">
<title>turma</title>
<g id="a_node4"><a xlink:href="../../tables/turma.html" xlink:title="turma" target="_top">
<polygon fill="#ffffff" stroke="transparent" points="360,-54.7 360,-203.7 437,-203.7 437,-54.7 360,-54.7"/>
<polygon fill="#f5f5f5" stroke="transparent" points="360.5,-180.2 360.5,-203.2 437.5,-203.2 437.5,-180.2 360.5,-180.2"/>
<polygon fill="none" stroke="#000000" points="360.5,-180.2 360.5,-203.2 437.5,-203.2 437.5,-180.2 360.5,-180.2"/>
<text text-anchor="start" x="365.5" y="-188.8" font-family="Helvetica,sans-Serif" font-weight="bold" font-size="11.00" fill="#000000">turma</text>
<text text-anchor="start" x="402.5437" y="-188.3" font-family="Helvetica,sans-Serif" font-size="11.00" fill="#000000">[table]</text>
<polygon fill="none" stroke="#000000" points="360.5,-158.2 360.5,-180.2 437.5,-180.2 437.5,-158.2 360.5,-158.2"/>
<image xlink:href="../../images/primaryKeys.png" width="11px" height="12px" preserveAspectRatio="xMinYMin meet" x="365.5" y="-175.2"/>
<text text-anchor="start" x="380.5" y="-165.3" font-family="Helvetica,sans-Serif" font-size="11.00" fill="#000000">id</text>
<polygon fill="#ffffff" stroke="transparent" points="360.5,-136.2 360.5,-158.2 437.5,-158.2 437.5,-136.2 360.5,-136.2"/>
<polygon fill="none" stroke="#000000" points="360.5,-136.2 360.5,-158.2 437.5,-158.2 437.5,-136.2 360.5,-136.2"/>
<text text-anchor="start" x="380.5" y="-143.3" font-family="Helvetica,sans-Serif" font-size="11.00" fill="#000000">nome</text>
<polygon fill="none" stroke="#000000" points="360.5,-114.2 360.5,-136.2 437.5,-136.2 437.5,-114.2 360.5,-114.2"/>
<image xlink:href="../../images/foreignKeys.png" width="11px" height="12px" preserveAspectRatio="xMinYMin meet" x="365.5" y="-131.2"/>
<text text-anchor="start" x="380.5" y="-121.3" font-family="Helvetica,sans-Serif" font-size="11.00" fill="#000000">id_user</text>
<polygon fill="none" stroke="#000000" points="360.5,-92.2 360.5,-114.2 437.5,-114.2 437.5,-92.2 360.5,-92.2"/>
<image xlink:href="../../images/foreignKeys.png" width="11px" height="12px" preserveAspectRatio="xMinYMin meet" x="365.5" y="-109.2"/>
<text text-anchor="start" x="380.5" y="-99.3" font-family="Helvetica,sans-Serif" font-size="11.00" fill="#000000">id_curso</text>
<polygon fill="none" stroke="#000000" points="360.5,-73.2 360.5,-92.2 437.5,-92.2 437.5,-73.2 360.5,-73.2"/>
<text text-anchor="start" x="363.5" y="-79.3" font-family="Helvetica,sans-Serif" font-size="11.00" fill="#000000">...</text>
<polygon fill="#ffffff" stroke="transparent" points="360.5,-54.2 360.5,-73.2 392.5,-73.2 392.5,-54.2 360.5,-54.2"/>
<polygon fill="none" stroke="#000000" points="360.5,-54.2 360.5,-73.2 392.5,-73.2 392.5,-54.2 360.5,-54.2"/>
<text text-anchor="start" x="363.5" y="-60.3" font-family="Helvetica,sans-Serif" font-size="11.00" fill="#000000">&lt; 2</text>
<polygon fill="#ffffff" stroke="transparent" points="392.5,-54.2 392.5,-73.2 410.5,-73.2 410.5,-54.2 392.5,-54.2"/>
<polygon fill="none" stroke="#000000" points="392.5,-54.2 392.5,-73.2 410.5,-73.2 410.5,-54.2 392.5,-54.2"/>
<text text-anchor="start" x="401.3862" y="-60.3" font-family="Helvetica,sans-Serif" font-size="11.00" fill="#000000"> &#160;</text>
<polygon fill="#ffffff" stroke="transparent" points="410.5,-54.2 410.5,-73.2 437.5,-73.2 437.5,-54.2 410.5,-54.2"/>
<polygon fill="none" stroke="#000000" points="410.5,-54.2 410.5,-73.2 437.5,-73.2 437.5,-54.2 410.5,-54.2"/>
<text text-anchor="start" x="418.9053" y="-60.3" font-family="Helvetica,sans-Serif" font-size="11.00" fill="#000000">2 &gt;</text>
</a>
</g>
</g>
<!-- turma&#45;&gt;curso -->
<g id="edge3" class="edge">
<title>turma:w&#45;&gt;curso:e</title>
<path fill="none" stroke="#000000" d="M345.9961,-102.6639C288.4286,-98.3768 263.3153,-70.5585 207,-99.2 178.0781,-113.9094 196.4475,-158.2 164,-158.2"/>
<polygon fill="#000000" stroke="#000000" points="352.5055,-102.9044 360.367,-106.7975 356.5027,-103.0522 360.5,-103.2 360.5,-103.2 360.5,-103.2 356.5027,-103.0522 360.633,-99.6025 352.5055,-102.9044 352.5055,-102.9044"/>
<ellipse fill="none" stroke="#000000" cx="349.3076" cy="-102.7862" rx="3.2" ry="3.2"/>
</g>
<!-- turma&#45;&gt;usuario -->
<g id="edge4" class="edge">
<title>turma:w&#45;&gt;usuario:e</title>
<path fill="none" stroke="#000000" d="M346.156,-127.9289C302.3834,-147.6987 360.8355,-268.2 297,-268.2"/>
<polygon fill="#000000" stroke="#000000" points="352.641,-126.6952 361.1728,-128.7366 356.5705,-125.9476 360.5,-125.2 360.5,-125.2 360.5,-125.2 356.5705,-125.9476 359.8272,-121.6634 352.641,-126.6952 352.641,-126.6952"/>
<ellipse fill="none" stroke="#000000" cx="349.4973" cy="-127.2933" rx="3.2" ry="3.2"/>
</g>
</g>
</svg>
