<?xml version="1.0" encoding="UTF-8" standalone="no"?>
<!DOCTYPE svg PUBLIC "-//W3C//DTD SVG 1.1//EN"
 "http://www.w3.org/Graphics/SVG/1.1/DTD/svg11.dtd">
<!-- Generated by graphviz version 2.40.1 (20161225.0304)
 -->
<!-- Title: oneDegreeRelationshipsDiagram Pages: 1 -->
<svg width="658pt" height="463pt"
 viewBox="0.00 0.00 658.00 463.20" xmlns="http://www.w3.org/2000/svg" xmlns:xlink="http://www.w3.org/1999/xlink">
<g id="graph0" class="graph" transform="scale(1 1) rotate(0) translate(4 459.2)">
<title>oneDegreeRelationshipsDiagram</title>
<polygon fill="#ffffff" stroke="transparent" points="-4,4 -4,-459.2 654,-459.2 654,4 -4,4"/>
<text text-anchor="middle" x="72.4936" y="-7.3" font-family="Helvetica,sans-Serif" font-size="11.00" fill="#000000">Generated by SchemaSpy</text>
<!-- agendamentos -->
<g id="node1" class="node">
<title>agendamentos</title>
<g id="a_node1"><a xlink:href="../../tables/agendamentos.html" xlink:title="agendamentos" target="_top">
<polygon fill="#ffffff" stroke="transparent" points="519,-324.2 519,-451.2 642,-451.2 642,-324.2 519,-324.2"/>
<polygon fill="#f5f5f5" stroke="transparent" points="519.5,-427.7 519.5,-450.7 642.5,-450.7 642.5,-427.7 519.5,-427.7"/>
<polygon fill="none" stroke="#000000" points="519.5,-427.7 519.5,-450.7 642.5,-450.7 642.5,-427.7 519.5,-427.7"/>
<text text-anchor="start" x="524.5" y="-436.3" font-family="Helvetica,sans-Serif" font-weight="bold" font-size="11.00" fill="#000000">agendamentos</text>
<text text-anchor="start" x="608.0219" y="-435.8" font-family="Helvetica,sans-Serif" font-size="11.00" fill="#000000">[table]</text>
<polygon fill="none" stroke="#000000" points="519.5,-405.7 519.5,-427.7 642.5,-427.7 642.5,-405.7 519.5,-405.7"/>
<image xlink:href="../../images/primaryKeys.png" width="11px" height="12px" preserveAspectRatio="xMinYMin meet" x="524.5" y="-422.7"/>
<text text-anchor="start" x="548.5" y="-412.8" font-family="Helvetica,sans-Serif" font-size="11.00" fill="#000000">id</text>
<polygon fill="none" stroke="#000000" points="519.5,-383.7 519.5,-405.7 642.5,-405.7 642.5,-383.7 519.5,-383.7"/>
<image xlink:href="../../images/foreignKeys.png" width="11px" height="12px" preserveAspectRatio="xMinYMin meet" x="524.5" y="-400.7"/>
<text text-anchor="start" x="548.5" y="-390.8" font-family="Helvetica,sans-Serif" font-size="11.00" fill="#000000">encontro_id</text>
<polygon fill="none" stroke="#000000" points="519.5,-361.7 519.5,-383.7 642.5,-383.7 642.5,-361.7 519.5,-361.7"/>
<image xlink:href="../../images/foreignKeys.png" width="11px" height="12px" preserveAspectRatio="xMinYMin meet" x="524.5" y="-378.7"/>
<text text-anchor="start" x="548.5" y="-368.8" font-family="Helvetica,sans-Serif" font-size="11.00" fill="#000000">local_id</text>
<polygon fill="none" stroke="#000000" points="519.5,-342.7 519.5,-361.7 642.5,-361.7 642.5,-342.7 519.5,-342.7"/>
<text text-anchor="start" x="522.5" y="-348.8" font-family="Helvetica,sans-Serif" font-size="11.00" fill="#000000">...</text>
<polygon fill="#ffffff" stroke="transparent" points="519.5,-323.7 519.5,-342.7 579.5,-342.7 579.5,-323.7 519.5,-323.7"/>
<polygon fill="none" stroke="#000000" points="519.5,-323.7 519.5,-342.7 579.5,-342.7 579.5,-323.7 519.5,-323.7"/>
<text text-anchor="start" x="522.5" y="-329.8" font-family="Helvetica,sans-Serif" font-size="11.00" fill="#000000">&lt; 2</text>
<polygon fill="#ffffff" stroke="transparent" points="579.5,-323.7 579.5,-342.7 610.5,-342.7 610.5,-323.7 579.5,-323.7"/>
<polygon fill="none" stroke="#000000" points="579.5,-323.7 579.5,-342.7 610.5,-342.7 610.5,-323.7 579.5,-323.7"/>
<text text-anchor="start" x="601.3862" y="-329.8" font-family="Helvetica,sans-Serif" font-size="11.00" fill="#000000"> &#160;</text>
<polygon fill="#ffffff" stroke="transparent" points="610.5,-323.7 610.5,-342.7 642.5,-342.7 642.5,-323.7 610.5,-323.7"/>
<polygon fill="none" stroke="#000000" points="610.5,-323.7 610.5,-342.7 642.5,-342.7 642.5,-323.7 610.5,-323.7"/>
<text text-anchor="start" x="633.3862" y="-329.8" font-family="Helvetica,sans-Serif" font-size="11.00" fill="#000000"> &#160;</text>
</a>
</g>
</g>
<!-- encontro -->
<g id="node2" class="node">
<title>encontro</title>
<g id="a_node2"><a xlink:href="../../tables/encontro.html" xlink:title="encontro" target="_top">
<polygon fill="#ffffff" stroke="transparent" points="293,-164.7 293,-430.7 470,-430.7 470,-164.7 293,-164.7"/>
<polygon fill="#f5f5f5" stroke="transparent" points="295.5,-405.7 295.5,-428.7 468.5,-428.7 468.5,-405.7 295.5,-405.7"/>
<polygon fill="none" stroke="#000000" points="295.5,-405.7 295.5,-428.7 468.5,-428.7 468.5,-405.7 295.5,-405.7"/>
<text text-anchor="start" x="300.5" y="-414.3" font-family="Helvetica,sans-Serif" font-weight="bold" font-size="11.00" fill="#000000">encontro</text>
<text text-anchor="start" x="433.5437" y="-413.8" font-family="Helvetica,sans-Serif" font-size="11.00" fill="#000000">[table]</text>
<polygon fill="none" stroke="#000000" points="295.5,-383.7 295.5,-405.7 384.5,-405.7 384.5,-383.7 295.5,-383.7"/>
<image xlink:href="../../images/primaryKeys.png" width="11px" height="12px" preserveAspectRatio="xMinYMin meet" x="300.5" y="-400.7"/>
<text text-anchor="start" x="315.5" y="-390.8" font-family="Helvetica,sans-Serif" font-size="11.00" fill="#000000">id</text>
<polygon fill="none" stroke="#000000" points="384.5,-383.7 384.5,-405.7 468.5,-405.7 468.5,-383.7 384.5,-383.7"/>
<text text-anchor="start" x="387.5" y="-391.4" font-family="Helvetica,sans-Serif" font-size="11.00" fill="#000000">serial[10]</text>
<polygon fill="none" stroke="#000000" points="295.5,-361.7 295.5,-383.7 384.5,-383.7 384.5,-361.7 295.5,-361.7"/>
<text text-anchor="start" x="315.5" y="-368.8" font-family="Helvetica,sans-Serif" font-size="11.00" fill="#000000">descricao</text>
<polygon fill="none" stroke="#000000" points="384.5,-361.7 384.5,-383.7 468.5,-383.7 468.5,-361.7 384.5,-361.7"/>
<text text-anchor="start" x="387.5" y="-369.4" font-family="Helvetica,sans-Serif" font-size="11.00" fill="#000000">varchar[255]</text>
<polygon fill="none" stroke="#000000" points="295.5,-339.7 295.5,-361.7 384.5,-361.7 384.5,-339.7 295.5,-339.7"/>
<text text-anchor="start" x="315.5" y="-346.8" font-family="Helvetica,sans-Serif" font-size="11.00" fill="#000000">tema</text>
<polygon fill="none" stroke="#000000" points="384.5,-339.7 384.5,-361.7 468.5,-361.7 468.5,-339.7 384.5,-339.7"/>
<text text-anchor="start" x="387.5" y="-347.4" font-family="Helvetica,sans-Serif" font-size="11.00" fill="#000000">varchar[100]</text>
<polygon fill="none" stroke="#000000" points="295.5,-317.7 295.5,-339.7 384.5,-339.7 384.5,-317.7 295.5,-317.7"/>
<text text-anchor="start" x="315.5" y="-324.8" font-family="Helvetica,sans-Serif" font-size="11.00" fill="#000000">data</text>
<polygon fill="none" stroke="#000000" points="384.5,-317.7 384.5,-339.7 468.5,-339.7 468.5,-317.7 384.5,-317.7"/>
<text text-anchor="start" x="387.3807" y="-325.4" font-family="Helvetica,sans-Serif" font-size="11.00" fill="#000000">timestamp[29,6]</text>
<polygon fill="none" stroke="#000000" points="295.5,-295.7 295.5,-317.7 384.5,-317.7 384.5,-295.7 295.5,-295.7"/>
<text text-anchor="start" x="315.5" y="-302.8" font-family="Helvetica,sans-Serif" font-size="11.00" fill="#000000">pdf_base64</text>
<polygon fill="none" stroke="#000000" points="384.5,-295.7 384.5,-317.7 468.5,-317.7 468.5,-295.7 384.5,-295.7"/>
<text text-anchor="start" x="387.5" y="-303.4" font-family="Helvetica,sans-Serif" font-size="11.00" fill="#000000">varchar[255]</text>
<polygon fill="none" stroke="#000000" points="295.5,-273.7 295.5,-295.7 384.5,-295.7 384.5,-273.7 295.5,-273.7"/>
<text text-anchor="start" x="315.5" y="-280.8" font-family="Helvetica,sans-Serif" font-size="11.00" fill="#000000">texto</text>
<polygon fill="none" stroke="#000000" points="384.5,-273.7 384.5,-295.7 468.5,-295.7 468.5,-273.7 384.5,-273.7"/>
<text text-anchor="start" x="387.5" y="-281.4" font-family="Helvetica,sans-Serif" font-size="11.00" fill="#000000">varchar[255]</text>
<polygon fill="none" stroke="#000000" points="295.5,-251.7 295.5,-273.7 384.5,-273.7 384.5,-251.7 295.5,-251.7"/>
<image xlink:href="../../images/foreignKeys.png" width="11px" height="12px" preserveAspectRatio="xMinYMin meet" x="300.5" y="-268.7"/>
<text text-anchor="start" x="315.5" y="-258.8" font-family="Helvetica,sans-Serif" font-size="11.00" fill="#000000">id_grupo</text>
<polygon fill="none" stroke="#000000" points="384.5,-251.7 384.5,-273.7 468.5,-273.7 468.5,-251.7 384.5,-251.7"/>
<text text-anchor="start" x="387.5" y="-259.4" font-family="Helvetica,sans-Serif" font-size="11.00" fill="#000000">int4[10]</text>
<polygon fill="none" stroke="#000000" points="295.5,-229.7 295.5,-251.7 384.5,-251.7 384.5,-229.7 295.5,-229.7"/>
<image xlink:href="../../images/foreignKeys.png" width="11px" height="12px" preserveAspectRatio="xMinYMin meet" x="300.5" y="-246.7"/>
<text text-anchor="start" x="315.5" y="-236.8" font-family="Helvetica,sans-Serif" font-size="11.00" fill="#000000">id_turma</text>
<polygon fill="none" stroke="#000000" points="384.5,-229.7 384.5,-251.7 468.5,-251.7 468.5,-229.7 384.5,-229.7"/>
<text text-anchor="start" x="387.5" y="-237.4" font-family="Helvetica,sans-Serif" font-size="11.00" fill="#000000">int4[10]</text>
<polygon fill="none" stroke="#000000" points="295.5,-207.7 295.5,-229.7 384.5,-229.7 384.5,-207.7 295.5,-207.7"/>
<image xlink:href="../../images/foreignKeys.png" width="11px" height="12px" preserveAspectRatio="xMinYMin meet" x="300.5" y="-224.7"/>
<text text-anchor="start" x="315.5" y="-214.8" font-family="Helvetica,sans-Serif" font-size="11.00" fill="#000000">id_encontro</text>
<polygon fill="none" stroke="#000000" points="384.5,-207.7 384.5,-229.7 468.5,-229.7 468.5,-207.7 384.5,-207.7"/>
<text text-anchor="start" x="387.5" y="-215.4" font-family="Helvetica,sans-Serif" font-size="11.00" fill="#000000">int4[10]</text>
<polygon fill="none" stroke="#000000" points="295.5,-185.7 295.5,-207.7 384.5,-207.7 384.5,-185.7 295.5,-185.7"/>
<image xlink:href="../../images/foreignKeys.png" width="11px" height="12px" preserveAspectRatio="xMinYMin meet" x="300.5" y="-202.7"/>
<text text-anchor="start" x="315.5" y="-192.8" font-family="Helvetica,sans-Serif" font-size="11.00" fill="#000000">id_user</text>
<polygon fill="none" stroke="#000000" points="384.5,-185.7 384.5,-207.7 468.5,-207.7 468.5,-185.7 384.5,-185.7"/>
<text text-anchor="start" x="387.5" y="-193.4" font-family="Helvetica,sans-Serif" font-size="11.00" fill="#000000">int4[10]</text>
<polygon fill="#ffffff" stroke="transparent" points="295.5,-166.7 295.5,-185.7 344.5,-185.7 344.5,-166.7 295.5,-166.7"/>
<polygon fill="none" stroke="#000000" points="295.5,-166.7 295.5,-185.7 344.5,-185.7 344.5,-166.7 295.5,-166.7"/>
<text text-anchor="start" x="298.5" y="-172.8" font-family="Helvetica,sans-Serif" font-size="11.00" fill="#000000">&lt; 4</text>
<polygon fill="#ffffff" stroke="transparent" points="344.5,-166.7 344.5,-185.7 384.5,-185.7 384.5,-166.7 344.5,-166.7"/>
<polygon fill="none" stroke="#000000" points="344.5,-166.7 344.5,-185.7 384.5,-185.7 384.5,-166.7 344.5,-166.7"/>
<text text-anchor="start" x="375.3862" y="-172.8" font-family="Helvetica,sans-Serif" font-size="11.00" fill="#000000"> &#160;</text>
<polygon fill="#ffffff" stroke="transparent" points="384.5,-166.7 384.5,-185.7 468.5,-185.7 468.5,-166.7 384.5,-166.7"/>
<polygon fill="none" stroke="#000000" points="384.5,-166.7 384.5,-185.7 468.5,-185.7 468.5,-166.7 384.5,-166.7"/>
<text text-anchor="start" x="449.9053" y="-172.8" font-family="Helvetica,sans-Serif" font-size="11.00" fill="#000000">2 &gt;</text>
<polygon fill="none" stroke="#000000" stroke-width="2" points="294,-165.7 294,-429.7 469,-429.7 469,-165.7 294,-165.7"/>
</a>
</g>
</g>
<!-- agendamentos&#45;&gt;encontro -->
<g id="edge1" class="edge">
<title>agendamentos:w&#45;&gt;encontro:e</title>
<path fill="none" stroke="#000000" d="M504.776,-394.7C492.7815,-394.7 485.3229,-394.7 468.5,-394.7"/>
<polygon fill="#000000" stroke="#000000" points="511.5,-394.7001 519.5,-398.3 515.5,-394.7 519.5,-394.7 519.5,-394.7 519.5,-394.7 515.5,-394.7 519.5,-391.1 511.5,-394.7001 511.5,-394.7001"/>
<ellipse fill="none" stroke="#000000" cx="508.3" cy="-394.7001" rx="3.2" ry="3.2"/>
</g>
<!-- encontro&#45;&gt;encontro -->
<g id="edge2" class="edge">
<title>encontro:w&#45;&gt;encontro:e</title>
<path fill="none" stroke="#000000" d="M286.6908,-230.2773C248.5909,-291.6841 256.8984,-447.7 382,-447.7 516,-447.7 516,-439.0333 468.5,-394.7"/>
<polygon fill="#000000" stroke="#000000" points="290.6557,-225.0666 298.3649,-220.8799 293.0778,-221.8833 295.5,-218.7 295.5,-218.7 295.5,-218.7 293.0778,-221.8833 292.6351,-216.5201 290.6557,-225.0666 290.6557,-225.0666"/>
<ellipse fill="none" stroke="#000000" cx="288.718" cy="-227.6132" rx="3.2" ry="3.2"/>
</g>
<!-- grupo -->
<g id="node3" class="node">
<title>grupo</title>
<g id="a_node3"><a xlink:href="../../tables/grupo.html" xlink:title="grupo" target="_top">
<polygon fill="#ffffff" stroke="transparent" points="139,-296.2 139,-445.2 244,-445.2 244,-296.2 139,-296.2"/>
<polygon fill="#f5f5f5" stroke="transparent" points="139.5,-421.7 139.5,-444.7 244.5,-444.7 244.5,-421.7 139.5,-421.7"/>
<polygon fill="none" stroke="#000000" points="139.5,-421.7 139.5,-444.7 244.5,-444.7 244.5,-421.7 139.5,-421.7"/>
<text text-anchor="start" x="144.5" y="-430.3" font-family="Helvetica,sans-Serif" font-weight="bold" font-size="11.00" fill="#000000">grupo</text>
<text text-anchor="start" x="209.5437" y="-429.8" font-family="Helvetica,sans-Serif" font-size="11.00" fill="#000000">[table]</text>
<polygon fill="none" stroke="#000000" points="139.5,-399.7 139.5,-421.7 244.5,-421.7 244.5,-399.7 139.5,-399.7"/>
<image xlink:href="../../images/primaryKeys.png" width="11px" height="12px" preserveAspectRatio="xMinYMin meet" x="144.5" y="-416.7"/>
<text text-anchor="start" x="159.5" y="-406.8" font-family="Helvetica,sans-Serif" font-size="11.00" fill="#000000">id</text>
<polygon fill="#ffffff" stroke="transparent" points="139.5,-377.7 139.5,-399.7 244.5,-399.7 244.5,-377.7 139.5,-377.7"/>
<polygon fill="none" stroke="#000000" points="139.5,-377.7 139.5,-399.7 244.5,-399.7 244.5,-377.7 139.5,-377.7"/>
<text text-anchor="start" x="159.5" y="-384.8" font-family="Helvetica,sans-Serif" font-size="11.00" fill="#000000">nome</text>
<polygon fill="none" stroke="#000000" points="139.5,-355.7 139.5,-377.7 244.5,-377.7 244.5,-355.7 139.5,-355.7"/>
<image xlink:href="../../images/foreignKeys.png" width="11px" height="12px" preserveAspectRatio="xMinYMin meet" x="144.5" y="-372.7"/>
<text text-anchor="start" x="159.5" y="-362.8" font-family="Helvetica,sans-Serif" font-size="11.00" fill="#000000">id_user</text>
<polygon fill="none" stroke="#000000" points="139.5,-333.7 139.5,-355.7 244.5,-355.7 244.5,-333.7 139.5,-333.7"/>
<image xlink:href="../../images/foreignKeys.png" width="11px" height="12px" preserveAspectRatio="xMinYMin meet" x="144.5" y="-350.7"/>
<text text-anchor="start" x="159.5" y="-340.8" font-family="Helvetica,sans-Serif" font-size="11.00" fill="#000000">id_curso</text>
<polygon fill="none" stroke="#000000" points="139.5,-314.7 139.5,-333.7 244.5,-333.7 244.5,-314.7 139.5,-314.7"/>
<text text-anchor="start" x="142.5" y="-320.8" font-family="Helvetica,sans-Serif" font-size="11.00" fill="#000000">...</text>
<polygon fill="#ffffff" stroke="transparent" points="139.5,-295.7 139.5,-314.7 185.5,-314.7 185.5,-295.7 139.5,-295.7"/>
<polygon fill="none" stroke="#000000" points="139.5,-295.7 139.5,-314.7 185.5,-314.7 185.5,-295.7 139.5,-295.7"/>
<text text-anchor="start" x="142.5" y="-301.8" font-family="Helvetica,sans-Serif" font-size="11.00" fill="#000000">&lt; 2</text>
<polygon fill="#ffffff" stroke="transparent" points="185.5,-295.7 185.5,-314.7 210.5,-314.7 210.5,-295.7 185.5,-295.7"/>
<polygon fill="none" stroke="#000000" points="185.5,-295.7 185.5,-314.7 210.5,-314.7 210.5,-295.7 185.5,-295.7"/>
<text text-anchor="start" x="201.3862" y="-301.8" font-family="Helvetica,sans-Serif" font-size="11.00" fill="#000000"> &#160;</text>
<polygon fill="#ffffff" stroke="transparent" points="210.5,-295.7 210.5,-314.7 244.5,-314.7 244.5,-295.7 210.5,-295.7"/>
<polygon fill="none" stroke="#000000" points="210.5,-295.7 210.5,-314.7 244.5,-314.7 244.5,-295.7 210.5,-295.7"/>
<text text-anchor="start" x="225.9053" y="-301.8" font-family="Helvetica,sans-Serif" font-size="11.00" fill="#000000">2 &gt;</text>
</a>
</g>
</g>
<!-- encontro&#45;&gt;grupo -->
<g id="edge3" class="edge">
<title>encontro:w&#45;&gt;grupo:e</title>
<path fill="none" stroke="#000000" d="M281.1212,-265.6564C239.6199,-286.5155 308.2306,-410.7 244.5,-410.7"/>
<polygon fill="#000000" stroke="#000000" points="287.6639,-264.3112 296.225,-266.2262 291.582,-263.5056 295.5,-262.7 295.5,-262.7 295.5,-262.7 291.582,-263.5056 294.775,-259.1738 287.6639,-264.3112 287.6639,-264.3112"/>
<ellipse fill="none" stroke="#000000" cx="284.5295" cy="-264.9557" rx="3.2" ry="3.2"/>
</g>
<!-- turma -->
<g id="node4" class="node">
<title>turma</title>
<g id="a_node4"><a xlink:href="../../tables/turma.html" xlink:title="turma" target="_top">
<polygon fill="#ffffff" stroke="transparent" points="153,-126.2 153,-275.2 230,-275.2 230,-126.2 153,-126.2"/>
<polygon fill="#f5f5f5" stroke="transparent" points="153.5,-251.7 153.5,-274.7 230.5,-274.7 230.5,-251.7 153.5,-251.7"/>
<polygon fill="none" stroke="#000000" points="153.5,-251.7 153.5,-274.7 230.5,-274.7 230.5,-251.7 153.5,-251.7"/>
<text text-anchor="start" x="158.5" y="-260.3" font-family="Helvetica,sans-Serif" font-weight="bold" font-size="11.00" fill="#000000">turma</text>
<text text-anchor="start" x="195.5437" y="-259.8" font-family="Helvetica,sans-Serif" font-size="11.00" fill="#000000">[table]</text>
<polygon fill="none" stroke="#000000" points="153.5,-229.7 153.5,-251.7 230.5,-251.7 230.5,-229.7 153.5,-229.7"/>
<image xlink:href="../../images/primaryKeys.png" width="11px" height="12px" preserveAspectRatio="xMinYMin meet" x="158.5" y="-246.7"/>
<text text-anchor="start" x="173.5" y="-236.8" font-family="Helvetica,sans-Serif" font-size="11.00" fill="#000000">id</text>
<polygon fill="#ffffff" stroke="transparent" points="153.5,-207.7 153.5,-229.7 230.5,-229.7 230.5,-207.7 153.5,-207.7"/>
<polygon fill="none" stroke="#000000" points="153.5,-207.7 153.5,-229.7 230.5,-229.7 230.5,-207.7 153.5,-207.7"/>
<text text-anchor="start" x="173.5" y="-214.8" font-family="Helvetica,sans-Serif" font-size="11.00" fill="#000000">nome</text>
<polygon fill="none" stroke="#000000" points="153.5,-185.7 153.5,-207.7 230.5,-207.7 230.5,-185.7 153.5,-185.7"/>
<image xlink:href="../../images/foreignKeys.png" width="11px" height="12px" preserveAspectRatio="xMinYMin meet" x="158.5" y="-202.7"/>
<text text-anchor="start" x="173.5" y="-192.8" font-family="Helvetica,sans-Serif" font-size="11.00" fill="#000000">id_user</text>
<polygon fill="none" stroke="#000000" points="153.5,-163.7 153.5,-185.7 230.5,-185.7 230.5,-163.7 153.5,-163.7"/>
<image xlink:href="../../images/foreignKeys.png" width="11px" height="12px" preserveAspectRatio="xMinYMin meet" x="158.5" y="-180.7"/>
<text text-anchor="start" x="173.5" y="-170.8" font-family="Helvetica,sans-Serif" font-size="11.00" fill="#000000">id_curso</text>
<polygon fill="none" stroke="#000000" points="153.5,-144.7 153.5,-163.7 230.5,-163.7 230.5,-144.7 153.5,-144.7"/>
<text text-anchor="start" x="156.5" y="-150.8" font-family="Helvetica,sans-Serif" font-size="11.00" fill="#000000">...</text>
<polygon fill="#ffffff" stroke="transparent" points="153.5,-125.7 153.5,-144.7 185.5,-144.7 185.5,-125.7 153.5,-125.7"/>
<polygon fill="none" stroke="#000000" points="153.5,-125.7 153.5,-144.7 185.5,-144.7 185.5,-125.7 153.5,-125.7"/>
<text text-anchor="start" x="156.5" y="-131.8" font-family="Helvetica,sans-Serif" font-size="11.00" fill="#000000">&lt; 2</text>
<polygon fill="#ffffff" stroke="transparent" points="185.5,-125.7 185.5,-144.7 203.5,-144.7 203.5,-125.7 185.5,-125.7"/>
<polygon fill="none" stroke="#000000" points="185.5,-125.7 185.5,-144.7 203.5,-144.7 203.5,-125.7 185.5,-125.7"/>
<text text-anchor="start" x="194.3862" y="-131.8" font-family="Helvetica,sans-Serif" font-size="11.00" fill="#000000"> &#160;</text>
<polygon fill="#ffffff" stroke="transparent" points="203.5,-125.7 203.5,-144.7 230.5,-144.7 230.5,-125.7 203.5,-125.7"/>
<polygon fill="none" stroke="#000000" points="203.5,-125.7 203.5,-144.7 230.5,-144.7 230.5,-125.7 203.5,-125.7"/>
<text text-anchor="start" x="211.9053" y="-131.8" font-family="Helvetica,sans-Serif" font-size="11.00" fill="#000000">2 &gt;</text>
</a>
</g>
</g>
<!-- encontro&#45;&gt;turma -->
<g id="edge4" class="edge">
<title>encontro:w&#45;&gt;turma:e</title>
<path fill="none" stroke="#000000" d="M280.9889,-240.7C263.0526,-240.7 253.8594,-240.7 230.5,-240.7"/>
<polygon fill="#000000" stroke="#000000" points="287.5,-240.7001 295.5,-244.3 291.5,-240.7 295.5,-240.7 295.5,-240.7 295.5,-240.7 291.5,-240.7 295.5,-237.1 287.5,-240.7001 287.5,-240.7001"/>
<ellipse fill="none" stroke="#000000" cx="284.3" cy="-240.7001" rx="3.2" ry="3.2"/>
</g>
<!-- usuario -->
<g id="node5" class="node">
<title>usuario</title>
<g id="a_node5"><a xlink:href="../../tables/usuario.html" xlink:title="usuario" target="_top">
<polygon fill="#ffffff" stroke="transparent" points="8,-38.2 8,-231.2 90,-231.2 90,-38.2 8,-38.2"/>
<polygon fill="#f5f5f5" stroke="transparent" points="8,-207.7 8,-230.7 90,-230.7 90,-207.7 8,-207.7"/>
<polygon fill="none" stroke="#000000" points="8,-207.7 8,-230.7 90,-230.7 90,-207.7 8,-207.7"/>
<text text-anchor="start" x="13" y="-216.3" font-family="Helvetica,sans-Serif" font-weight="bold" font-size="11.00" fill="#000000">usuario</text>
<text text-anchor="start" x="55.5219" y="-215.8" font-family="Helvetica,sans-Serif" font-size="11.00" fill="#000000">[table]</text>
<polygon fill="none" stroke="#000000" points="8,-185.7 8,-207.7 90,-207.7 90,-185.7 8,-185.7"/>
<image xlink:href="../../images/primaryKeys.png" width="11px" height="12px" preserveAspectRatio="xMinYMin meet" x="13" y="-202.7"/>
<text text-anchor="start" x="30" y="-192.8" font-family="Helvetica,sans-Serif" font-size="11.00" fill="#000000">id</text>
<polygon fill="#ffffff" stroke="transparent" points="8,-163.7 8,-185.7 90,-185.7 90,-163.7 8,-163.7"/>
<polygon fill="none" stroke="#000000" points="8,-163.7 8,-185.7 90,-185.7 90,-163.7 8,-163.7"/>
<text text-anchor="start" x="30" y="-170.8" font-family="Helvetica,sans-Serif" font-size="11.00" fill="#000000">matricula</text>
<polygon fill="#ffffff" stroke="transparent" points="8,-141.7 8,-163.7 90,-163.7 90,-141.7 8,-141.7"/>
<polygon fill="none" stroke="#000000" points="8,-141.7 8,-163.7 90,-163.7 90,-141.7 8,-141.7"/>
<text text-anchor="start" x="30" y="-148.8" font-family="Helvetica,sans-Serif" font-size="11.00" fill="#000000">email</text>
<polygon fill="#ffffff" stroke="transparent" points="8,-119.7 8,-141.7 90,-141.7 90,-119.7 8,-119.7"/>
<polygon fill="none" stroke="#000000" points="8,-119.7 8,-141.7 90,-141.7 90,-119.7 8,-119.7"/>
<text text-anchor="start" x="30" y="-126.8" font-family="Helvetica,sans-Serif" font-size="11.00" fill="#000000">nome</text>
<polygon fill="#ffffff" stroke="transparent" points="8,-97.7 8,-119.7 90,-119.7 90,-97.7 8,-97.7"/>
<polygon fill="none" stroke="#000000" points="8,-97.7 8,-119.7 90,-119.7 90,-97.7 8,-97.7"/>
<text text-anchor="start" x="30" y="-104.8" font-family="Helvetica,sans-Serif" font-size="11.00" fill="#000000">siape</text>
<polygon fill="none" stroke="#000000" points="8,-75.7 8,-97.7 90,-97.7 90,-75.7 8,-75.7"/>
<image xlink:href="../../images/foreignKeys.png" width="11px" height="12px" preserveAspectRatio="xMinYMin meet" x="13" y="-92.7"/>
<text text-anchor="start" x="30" y="-82.8" font-family="Helvetica,sans-Serif" font-size="11.00" fill="#000000">id_curso</text>
<polygon fill="none" stroke="#000000" points="8,-56.7 8,-75.7 90,-75.7 90,-56.7 8,-56.7"/>
<text text-anchor="start" x="11" y="-62.8" font-family="Helvetica,sans-Serif" font-size="11.00" fill="#000000">...</text>
<polygon fill="#ffffff" stroke="transparent" points="8,-37.7 8,-56.7 43,-56.7 43,-37.7 8,-37.7"/>
<polygon fill="none" stroke="#000000" points="8,-37.7 8,-56.7 43,-56.7 43,-37.7 8,-37.7"/>
<text text-anchor="start" x="11" y="-43.8" font-family="Helvetica,sans-Serif" font-size="11.00" fill="#000000">&lt; 1</text>
<polygon fill="#ffffff" stroke="transparent" points="43,-37.7 43,-56.7 62,-56.7 62,-37.7 43,-37.7"/>
<polygon fill="none" stroke="#000000" points="43,-37.7 43,-56.7 62,-56.7 62,-37.7 43,-37.7"/>
<text text-anchor="start" x="52.8862" y="-43.8" font-family="Helvetica,sans-Serif" font-size="11.00" fill="#000000"> &#160;</text>
<polygon fill="#ffffff" stroke="transparent" points="62,-37.7 62,-56.7 90,-56.7 90,-37.7 62,-37.7"/>
<polygon fill="none" stroke="#000000" points="62,-37.7 62,-56.7 90,-56.7 90,-37.7 62,-37.7"/>
<text text-anchor="start" x="71.4053" y="-43.8" font-family="Helvetica,sans-Serif" font-size="11.00" fill="#000000">6 &gt;</text>
</a>
</g>
</g>
<!-- encontro&#45;&gt;usuario -->
<g id="edge5" class="edge">
<title>encontro:w&#45;&gt;usuario:e</title>
<path fill="none" stroke="#000000" d="M281.4298,-192.8709C262.9523,-179.317 281.7272,-133.4782 252,-115.7 205.8462,-88.098 176.8156,-87.5401 131,-115.7 96.6249,-136.8282 130.3491,-196.7 90,-196.7"/>
<polygon fill="#000000" stroke="#000000" points="287.7807,-194.5992 294.5546,-200.1737 291.6404,-195.6496 295.5,-196.7 295.5,-196.7 295.5,-196.7 291.6404,-195.6496 296.4454,-193.2263 287.7807,-194.5992 287.7807,-194.5992"/>
<ellipse fill="none" stroke="#000000" cx="284.693" cy="-193.7589" rx="3.2" ry="3.2"/>
</g>
<!-- grupo&#45;&gt;usuario -->
<g id="edge6" class="edge">
<title>grupo:w&#45;&gt;usuario:e</title>
<path fill="none" stroke="#000000" d="M125.2218,-364.1649C75.4253,-343.0175 163.0065,-196.7 90,-196.7"/>
<polygon fill="#000000" stroke="#000000" points="131.6232,-365.3014 138.8706,-370.2446 135.5616,-366.0007 139.5,-366.7 139.5,-366.7 139.5,-366.7 135.5616,-366.0007 140.1294,-363.1554 131.6232,-365.3014 131.6232,-365.3014"/>
<ellipse fill="none" stroke="#000000" cx="128.4725" cy="-364.742" rx="3.2" ry="3.2"/>
</g>
<!-- turma&#45;&gt;usuario -->
<g id="edge7" class="edge">
<title>turma:w&#45;&gt;usuario:e</title>
<path fill="none" stroke="#000000" d="M139.0705,-196.7C121.7143,-196.7 112.7101,-196.7 90,-196.7"/>
<polygon fill="#000000" stroke="#000000" points="145.5,-196.7001 153.5,-200.3 149.5,-196.7 153.5,-196.7 153.5,-196.7 153.5,-196.7 149.5,-196.7 153.5,-193.1 145.5,-196.7001 145.5,-196.7001"/>
<ellipse fill="none" stroke="#000000" cx="142.3" cy="-196.7001" rx="3.2" ry="3.2"/>
</g>
</g>
</svg>
