<?xml version="1.0" encoding="UTF-8" standalone="no"?>
<!DOCTYPE svg PUBLIC "-//W3C//DTD SVG 1.1//EN"
 "http://www.w3.org/Graphics/SVG/1.1/DTD/svg11.dtd">
<!-- Generated by graphviz version 2.40.1 (20161225.0304)
 -->
<!-- Title: twoDegreesRelationshipsDiagram Pages: 1 -->
<svg width="765pt" height="533pt"
 viewBox="0.00 0.00 765.00 533.20" xmlns="http://www.w3.org/2000/svg" xmlns:xlink="http://www.w3.org/1999/xlink">
<g id="graph0" class="graph" transform="scale(1 1) rotate(0) translate(4 529.2)">
<title>twoDegreesRelationshipsDiagram</title>
<polygon fill="#ffffff" stroke="transparent" points="-4,4 -4,-529.2 761,-529.2 761,4 -4,4"/>
<text text-anchor="middle" x="72.4936" y="-7.3" font-family="Helvetica,sans-Serif" font-size="11.00" fill="#000000">Generated by SchemaSpy</text>
<!-- agendamentos -->
<g id="node1" class="node">
<title>agendamentos</title>
<g id="a_node1"><a xlink:href="../../tables/agendamentos.html" xlink:title="agendamentos" target="_top">
<polygon fill="#ffffff" stroke="transparent" points="626,-66.2 626,-193.2 749,-193.2 749,-66.2 626,-66.2"/>
<polygon fill="#f5f5f5" stroke="transparent" points="626.5,-169.7 626.5,-192.7 749.5,-192.7 749.5,-169.7 626.5,-169.7"/>
<polygon fill="none" stroke="#000000" points="626.5,-169.7 626.5,-192.7 749.5,-192.7 749.5,-169.7 626.5,-169.7"/>
<text text-anchor="start" x="631.5" y="-178.3" font-family="Helvetica,sans-Serif" font-weight="bold" font-size="11.00" fill="#000000">agendamentos</text>
<text text-anchor="start" x="715.0219" y="-177.8" font-family="Helvetica,sans-Serif" font-size="11.00" fill="#000000">[table]</text>
<polygon fill="none" stroke="#000000" points="626.5,-147.7 626.5,-169.7 749.5,-169.7 749.5,-147.7 626.5,-147.7"/>
<image xlink:href="../../images/foreignKeys.png" width="11px" height="12px" preserveAspectRatio="xMinYMin meet" x="631.5" y="-164.7"/>
<text text-anchor="start" x="655.5" y="-154.8" font-family="Helvetica,sans-Serif" font-size="11.00" fill="#000000">encontro_id</text>
<polygon fill="none" stroke="#000000" points="626.5,-125.7 626.5,-147.7 749.5,-147.7 749.5,-125.7 626.5,-125.7"/>
<image xlink:href="../../images/primaryKeys.png" width="11px" height="12px" preserveAspectRatio="xMinYMin meet" x="631.5" y="-142.7"/>
<text text-anchor="start" x="655.5" y="-132.8" font-family="Helvetica,sans-Serif" font-size="11.00" fill="#000000">id</text>
<polygon fill="none" stroke="#000000" points="626.5,-103.7 626.5,-125.7 749.5,-125.7 749.5,-103.7 626.5,-103.7"/>
<image xlink:href="../../images/foreignKeys.png" width="11px" height="12px" preserveAspectRatio="xMinYMin meet" x="631.5" y="-120.7"/>
<text text-anchor="start" x="655.5" y="-110.8" font-family="Helvetica,sans-Serif" font-size="11.00" fill="#000000">local_id</text>
<polygon fill="none" stroke="#000000" points="626.5,-84.7 626.5,-103.7 749.5,-103.7 749.5,-84.7 626.5,-84.7"/>
<text text-anchor="start" x="629.5" y="-90.8" font-family="Helvetica,sans-Serif" font-size="11.00" fill="#000000">...</text>
<polygon fill="#ffffff" stroke="transparent" points="626.5,-65.7 626.5,-84.7 686.5,-84.7 686.5,-65.7 626.5,-65.7"/>
<polygon fill="none" stroke="#000000" points="626.5,-65.7 626.5,-84.7 686.5,-84.7 686.5,-65.7 626.5,-65.7"/>
<text text-anchor="start" x="629.5" y="-71.8" font-family="Helvetica,sans-Serif" font-size="11.00" fill="#000000">&lt; 2</text>
<polygon fill="#ffffff" stroke="transparent" points="686.5,-65.7 686.5,-84.7 717.5,-84.7 717.5,-65.7 686.5,-65.7"/>
<polygon fill="none" stroke="#000000" points="686.5,-65.7 686.5,-84.7 717.5,-84.7 717.5,-65.7 686.5,-65.7"/>
<text text-anchor="start" x="708.3862" y="-71.8" font-family="Helvetica,sans-Serif" font-size="11.00" fill="#000000"> &#160;</text>
<polygon fill="#ffffff" stroke="transparent" points="717.5,-65.7 717.5,-84.7 749.5,-84.7 749.5,-65.7 717.5,-65.7"/>
<polygon fill="none" stroke="#000000" points="717.5,-65.7 717.5,-84.7 749.5,-84.7 749.5,-65.7 717.5,-65.7"/>
<text text-anchor="start" x="740.3862" y="-71.8" font-family="Helvetica,sans-Serif" font-size="11.00" fill="#000000"> &#160;</text>
</a>
</g>
</g>
<!-- encontros -->
<g id="node2" class="node">
<title>encontros</title>
<g id="a_node2"><a xlink:href="../../tables/encontros.html" xlink:title="encontros" target="_top">
<polygon fill="#ffffff" stroke="transparent" points="427,-312.7 427,-468.7 577,-468.7 577,-312.7 427,-312.7"/>
<polygon fill="#f5f5f5" stroke="transparent" points="429,-443.7 429,-466.7 575,-466.7 575,-443.7 429,-443.7"/>
<polygon fill="none" stroke="#000000" points="429,-443.7 429,-466.7 575,-466.7 575,-443.7 429,-443.7"/>
<text text-anchor="start" x="434" y="-452.3" font-family="Helvetica,sans-Serif" font-weight="bold" font-size="11.00" fill="#000000">encontros</text>
<text text-anchor="start" x="540.0437" y="-451.8" font-family="Helvetica,sans-Serif" font-size="11.00" fill="#000000">[table]</text>
<polygon fill="none" stroke="#000000" points="429,-421.7 429,-443.7 508,-443.7 508,-421.7 429,-421.7"/>
<image xlink:href="../../images/primaryKeys.png" width="11px" height="12px" preserveAspectRatio="xMinYMin meet" x="434" y="-438.7"/>
<text text-anchor="start" x="449" y="-428.8" font-family="Helvetica,sans-Serif" font-size="11.00" fill="#000000">id</text>
<polygon fill="none" stroke="#000000" points="508,-421.7 508,-443.7 575,-443.7 575,-421.7 508,-421.7"/>
<text text-anchor="start" x="511" y="-429.4" font-family="Helvetica,sans-Serif" font-size="11.00" fill="#000000">serial[10]</text>
<polygon fill="none" stroke="#000000" points="429,-399.7 429,-421.7 508,-421.7 508,-399.7 429,-399.7"/>
<image xlink:href="../../images/foreignKeys.png" width="11px" height="12px" preserveAspectRatio="xMinYMin meet" x="434" y="-416.7"/>
<text text-anchor="start" x="449" y="-406.8" font-family="Helvetica,sans-Serif" font-size="11.00" fill="#000000">id_grupo</text>
<polygon fill="none" stroke="#000000" points="508,-399.7 508,-421.7 575,-421.7 575,-399.7 508,-399.7"/>
<text text-anchor="start" x="511" y="-407.4" font-family="Helvetica,sans-Serif" font-size="11.00" fill="#000000">int4[10]</text>
<polygon fill="none" stroke="#000000" points="429,-377.7 429,-399.7 508,-399.7 508,-377.7 429,-377.7"/>
<image xlink:href="../../images/foreignKeys.png" width="11px" height="12px" preserveAspectRatio="xMinYMin meet" x="434" y="-394.7"/>
<text text-anchor="start" x="449" y="-384.8" font-family="Helvetica,sans-Serif" font-size="11.00" fill="#000000">id_turma</text>
<polygon fill="none" stroke="#000000" points="508,-377.7 508,-399.7 575,-399.7 575,-377.7 508,-377.7"/>
<text text-anchor="start" x="511" y="-385.4" font-family="Helvetica,sans-Serif" font-size="11.00" fill="#000000">int4[10]</text>
<polygon fill="none" stroke="#000000" points="429,-355.7 429,-377.7 508,-377.7 508,-355.7 429,-355.7"/>
<text text-anchor="start" x="449" y="-362.8" font-family="Helvetica,sans-Serif" font-size="11.00" fill="#000000">tema</text>
<polygon fill="none" stroke="#000000" points="508,-355.7 508,-377.7 575,-377.7 575,-355.7 508,-355.7"/>
<text text-anchor="start" x="510.9365" y="-363.4" font-family="Helvetica,sans-Serif" font-size="11.00" fill="#000000">varchar[100]</text>
<polygon fill="none" stroke="#000000" points="429,-333.7 429,-355.7 508,-355.7 508,-333.7 429,-333.7"/>
<text text-anchor="start" x="449" y="-340.8" font-family="Helvetica,sans-Serif" font-size="11.00" fill="#000000">descricao</text>
<polygon fill="none" stroke="#000000" points="508,-333.7 508,-355.7 575,-355.7 575,-333.7 508,-333.7"/>
<text text-anchor="start" x="510.9365" y="-341.4" font-family="Helvetica,sans-Serif" font-size="11.00" fill="#000000">varchar[255]</text>
<polygon fill="#ffffff" stroke="transparent" points="429,-314.7 429,-333.7 473,-333.7 473,-314.7 429,-314.7"/>
<polygon fill="none" stroke="#000000" points="429,-314.7 429,-333.7 473,-333.7 473,-314.7 429,-314.7"/>
<text text-anchor="start" x="432" y="-320.8" font-family="Helvetica,sans-Serif" font-size="11.00" fill="#000000">&lt; 2</text>
<polygon fill="#ffffff" stroke="transparent" points="473,-314.7 473,-333.7 508,-333.7 508,-314.7 473,-314.7"/>
<polygon fill="none" stroke="#000000" points="473,-314.7 473,-333.7 508,-333.7 508,-314.7 473,-314.7"/>
<text text-anchor="start" x="498.8862" y="-320.8" font-family="Helvetica,sans-Serif" font-size="11.00" fill="#000000"> &#160;</text>
<polygon fill="#ffffff" stroke="transparent" points="508,-314.7 508,-333.7 575,-333.7 575,-314.7 508,-314.7"/>
<polygon fill="none" stroke="#000000" points="508,-314.7 508,-333.7 575,-333.7 575,-314.7 508,-314.7"/>
<text text-anchor="start" x="556.4053" y="-320.8" font-family="Helvetica,sans-Serif" font-size="11.00" fill="#000000">2 &gt;</text>
<polygon fill="none" stroke="#000000" stroke-width="2" points="428,-313.7 428,-467.7 576,-467.7 576,-313.7 428,-313.7"/>
</a>
</g>
</g>
<!-- agendamentos&#45;&gt;encontros -->
<g id="edge1" class="edge">
<title>agendamentos:w&#45;&gt;encontros:e</title>
<path fill="none" stroke="#000000" d="M613.0956,-164.6777C576.2353,-204.7475 631.5098,-432.7 575,-432.7"/>
<polygon fill="#000000" stroke="#000000" points="619.1936,-161.9583 627.9662,-161.9879 622.8468,-160.3292 626.5,-158.7 626.5,-158.7 626.5,-158.7 622.8468,-160.3292 625.0338,-155.4121 619.1936,-161.9583 619.1936,-161.9583"/>
<ellipse fill="none" stroke="#000000" cx="616.271" cy="-163.2616" rx="3.2" ry="3.2"/>
</g>
<!-- locais -->
<g id="node3" class="node">
<title>locais</title>
<g id="a_node3"><a xlink:href="../../tables/locais.html" xlink:title="locais" target="_top">
<polygon fill="#ffffff" stroke="transparent" points="465.5,-38.2 465.5,-99.2 538.5,-99.2 538.5,-38.2 465.5,-38.2"/>
<polygon fill="#f5f5f5" stroke="transparent" points="466,-75.7 466,-98.7 539,-98.7 539,-75.7 466,-75.7"/>
<polygon fill="none" stroke="#000000" points="466,-75.7 466,-98.7 539,-98.7 539,-75.7 466,-75.7"/>
<text text-anchor="start" x="471" y="-84.3" font-family="Helvetica,sans-Serif" font-weight="bold" font-size="11.00" fill="#000000">locais</text>
<text text-anchor="start" x="504.5219" y="-83.8" font-family="Helvetica,sans-Serif" font-size="11.00" fill="#000000">[table]</text>
<polygon fill="none" stroke="#000000" points="466,-56.7 466,-75.7 539,-75.7 539,-56.7 466,-56.7"/>
<text text-anchor="start" x="469" y="-62.8" font-family="Helvetica,sans-Serif" font-size="11.00" fill="#000000">...</text>
<polygon fill="#ffffff" stroke="transparent" points="466,-37.7 466,-56.7 492,-56.7 492,-37.7 466,-37.7"/>
<polygon fill="none" stroke="#000000" points="466,-37.7 466,-56.7 492,-56.7 492,-37.7 466,-37.7"/>
<text text-anchor="start" x="469" y="-43.8" font-family="Helvetica,sans-Serif" font-size="11.00" fill="#000000"> &#160;</text>
<polygon fill="#ffffff" stroke="transparent" points="492,-37.7 492,-56.7 511,-56.7 511,-37.7 492,-37.7"/>
<polygon fill="none" stroke="#000000" points="492,-37.7 492,-56.7 511,-56.7 511,-37.7 492,-37.7"/>
<text text-anchor="start" x="501.8862" y="-43.8" font-family="Helvetica,sans-Serif" font-size="11.00" fill="#000000"> &#160;</text>
<polygon fill="#ffffff" stroke="transparent" points="511,-37.7 511,-56.7 539,-56.7 539,-37.7 511,-37.7"/>
<polygon fill="none" stroke="#000000" points="511,-37.7 511,-56.7 539,-56.7 539,-37.7 511,-37.7"/>
<text text-anchor="start" x="520.4053" y="-43.8" font-family="Helvetica,sans-Serif" font-size="11.00" fill="#000000">1 &gt;</text>
</a>
</g>
</g>
<!-- agendamentos&#45;&gt;locais -->
<g id="edge2" class="edge">
<title>agendamentos:w&#45;&gt;locais:e</title>
<path fill="none" stroke="#000000" d="M612.1769,-112.7185C581.6487,-103.5513 578.1742,-65.7 539,-65.7"/>
<polygon fill="#000000" stroke="#000000" points="618.5755,-113.6036 626.0066,-118.266 622.5377,-114.1518 626.5,-114.7 626.5,-114.7 626.5,-114.7 622.5377,-114.1518 626.9934,-111.134 618.5755,-113.6036 618.5755,-113.6036"/>
<ellipse fill="none" stroke="#000000" cx="615.4057" cy="-113.1651" rx="3.2" ry="3.2"/>
</g>
<!-- grupos -->
<g id="node4" class="node">
<title>grupos</title>
<g id="a_node4"><a xlink:href="../../tables/grupos.html" xlink:title="grupos" target="_top">
<polygon fill="#ffffff" stroke="transparent" points="273,-372.2 273,-521.2 378,-521.2 378,-372.2 273,-372.2"/>
<polygon fill="#f5f5f5" stroke="transparent" points="273.5,-497.7 273.5,-520.7 378.5,-520.7 378.5,-497.7 273.5,-497.7"/>
<polygon fill="none" stroke="#000000" points="273.5,-497.7 273.5,-520.7 378.5,-520.7 378.5,-497.7 273.5,-497.7"/>
<text text-anchor="start" x="278.5" y="-506.3" font-family="Helvetica,sans-Serif" font-weight="bold" font-size="11.00" fill="#000000">grupos</text>
<text text-anchor="start" x="343.5437" y="-505.8" font-family="Helvetica,sans-Serif" font-size="11.00" fill="#000000">[table]</text>
<polygon fill="none" stroke="#000000" points="273.5,-475.7 273.5,-497.7 378.5,-497.7 378.5,-475.7 273.5,-475.7"/>
<image xlink:href="../../images/primaryKeys.png" width="11px" height="12px" preserveAspectRatio="xMinYMin meet" x="278.5" y="-492.7"/>
<text text-anchor="start" x="293.5" y="-482.8" font-family="Helvetica,sans-Serif" font-size="11.00" fill="#000000">id</text>
<polygon fill="none" stroke="#000000" points="273.5,-453.7 273.5,-475.7 378.5,-475.7 378.5,-453.7 273.5,-453.7"/>
<image xlink:href="../../images/foreignKeys.png" width="11px" height="12px" preserveAspectRatio="xMinYMin meet" x="278.5" y="-470.7"/>
<text text-anchor="start" x="293.5" y="-460.8" font-family="Helvetica,sans-Serif" font-size="11.00" fill="#000000">id_curso</text>
<polygon fill="none" stroke="#000000" points="273.5,-431.7 273.5,-453.7 378.5,-453.7 378.5,-431.7 273.5,-431.7"/>
<image xlink:href="../../images/foreignKeys.png" width="11px" height="12px" preserveAspectRatio="xMinYMin meet" x="278.5" y="-448.7"/>
<text text-anchor="start" x="293.5" y="-438.8" font-family="Helvetica,sans-Serif" font-size="11.00" fill="#000000">id_user</text>
<polygon fill="#ffffff" stroke="transparent" points="273.5,-409.7 273.5,-431.7 378.5,-431.7 378.5,-409.7 273.5,-409.7"/>
<polygon fill="none" stroke="#000000" points="273.5,-409.7 273.5,-431.7 378.5,-431.7 378.5,-409.7 273.5,-409.7"/>
<text text-anchor="start" x="293.5" y="-416.8" font-family="Helvetica,sans-Serif" font-size="11.00" fill="#000000">nome</text>
<polygon fill="none" stroke="#000000" points="273.5,-390.7 273.5,-409.7 378.5,-409.7 378.5,-390.7 273.5,-390.7"/>
<text text-anchor="start" x="276.5" y="-396.8" font-family="Helvetica,sans-Serif" font-size="11.00" fill="#000000">...</text>
<polygon fill="#ffffff" stroke="transparent" points="273.5,-371.7 273.5,-390.7 319.5,-390.7 319.5,-371.7 273.5,-371.7"/>
<polygon fill="none" stroke="#000000" points="273.5,-371.7 273.5,-390.7 319.5,-390.7 319.5,-371.7 273.5,-371.7"/>
<text text-anchor="start" x="276.5" y="-377.8" font-family="Helvetica,sans-Serif" font-size="11.00" fill="#000000">&lt; 2</text>
<polygon fill="#ffffff" stroke="transparent" points="319.5,-371.7 319.5,-390.7 344.5,-390.7 344.5,-371.7 319.5,-371.7"/>
<polygon fill="none" stroke="#000000" points="319.5,-371.7 319.5,-390.7 344.5,-390.7 344.5,-371.7 319.5,-371.7"/>
<text text-anchor="start" x="335.3862" y="-377.8" font-family="Helvetica,sans-Serif" font-size="11.00" fill="#000000"> &#160;</text>
<polygon fill="#ffffff" stroke="transparent" points="344.5,-371.7 344.5,-390.7 378.5,-390.7 378.5,-371.7 344.5,-371.7"/>
<polygon fill="none" stroke="#000000" points="344.5,-371.7 344.5,-390.7 378.5,-390.7 378.5,-371.7 344.5,-371.7"/>
<text text-anchor="start" x="359.9053" y="-377.8" font-family="Helvetica,sans-Serif" font-size="11.00" fill="#000000">2 &gt;</text>
</a>
</g>
</g>
<!-- encontros&#45;&gt;grupos -->
<g id="edge3" class="edge">
<title>encontros:w&#45;&gt;grupos:e</title>
<path fill="none" stroke="#000000" d="M415.179,-415.2265C395.9644,-431.5879 413.0349,-486.7 378.5,-486.7"/>
<polygon fill="#000000" stroke="#000000" points="421.3974,-413.19 430.1205,-414.1212 425.1987,-411.945 429,-410.7 429,-410.7 429,-410.7 425.1987,-411.945 427.8795,-407.2788 421.3974,-413.19 421.3974,-413.19"/>
<ellipse fill="none" stroke="#000000" cx="418.3563" cy="-414.186" rx="3.2" ry="3.2"/>
</g>
<!-- turmas -->
<g id="node5" class="node">
<title>turmas</title>
<g id="a_node5"><a xlink:href="../../tables/turmas.html" xlink:title="turmas" target="_top">
<polygon fill="#ffffff" stroke="transparent" points="286,-202.2 286,-351.2 365,-351.2 365,-202.2 286,-202.2"/>
<polygon fill="#f5f5f5" stroke="transparent" points="286.5,-327.7 286.5,-350.7 365.5,-350.7 365.5,-327.7 286.5,-327.7"/>
<polygon fill="none" stroke="#000000" points="286.5,-327.7 286.5,-350.7 365.5,-350.7 365.5,-327.7 286.5,-327.7"/>
<text text-anchor="start" x="291.5" y="-336.3" font-family="Helvetica,sans-Serif" font-weight="bold" font-size="11.00" fill="#000000">turmas</text>
<text text-anchor="start" x="331.0219" y="-335.8" font-family="Helvetica,sans-Serif" font-size="11.00" fill="#000000">[table]</text>
<polygon fill="none" stroke="#000000" points="286.5,-305.7 286.5,-327.7 365.5,-327.7 365.5,-305.7 286.5,-305.7"/>
<image xlink:href="../../images/primaryKeys.png" width="11px" height="12px" preserveAspectRatio="xMinYMin meet" x="291.5" y="-322.7"/>
<text text-anchor="start" x="307.5" y="-312.8" font-family="Helvetica,sans-Serif" font-size="11.00" fill="#000000">id</text>
<polygon fill="none" stroke="#000000" points="286.5,-283.7 286.5,-305.7 365.5,-305.7 365.5,-283.7 286.5,-283.7"/>
<image xlink:href="../../images/foreignKeys.png" width="11px" height="12px" preserveAspectRatio="xMinYMin meet" x="291.5" y="-300.7"/>
<text text-anchor="start" x="307.5" y="-290.8" font-family="Helvetica,sans-Serif" font-size="11.00" fill="#000000">id_curso</text>
<polygon fill="none" stroke="#000000" points="286.5,-261.7 286.5,-283.7 365.5,-283.7 365.5,-261.7 286.5,-261.7"/>
<image xlink:href="../../images/foreignKeys.png" width="11px" height="12px" preserveAspectRatio="xMinYMin meet" x="291.5" y="-278.7"/>
<text text-anchor="start" x="307.5" y="-268.8" font-family="Helvetica,sans-Serif" font-size="11.00" fill="#000000">id_user</text>
<polygon fill="#ffffff" stroke="transparent" points="286.5,-239.7 286.5,-261.7 365.5,-261.7 365.5,-239.7 286.5,-239.7"/>
<polygon fill="none" stroke="#000000" points="286.5,-239.7 286.5,-261.7 365.5,-261.7 365.5,-239.7 286.5,-239.7"/>
<text text-anchor="start" x="307.5" y="-246.8" font-family="Helvetica,sans-Serif" font-size="11.00" fill="#000000">nome</text>
<polygon fill="none" stroke="#000000" points="286.5,-220.7 286.5,-239.7 365.5,-239.7 365.5,-220.7 286.5,-220.7"/>
<text text-anchor="start" x="289.5" y="-226.8" font-family="Helvetica,sans-Serif" font-size="11.00" fill="#000000">...</text>
<polygon fill="#ffffff" stroke="transparent" points="286.5,-201.7 286.5,-220.7 319.5,-220.7 319.5,-201.7 286.5,-201.7"/>
<polygon fill="none" stroke="#000000" points="286.5,-201.7 286.5,-220.7 319.5,-220.7 319.5,-201.7 286.5,-201.7"/>
<text text-anchor="start" x="289.5" y="-207.8" font-family="Helvetica,sans-Serif" font-size="11.00" fill="#000000">&lt; 2</text>
<polygon fill="#ffffff" stroke="transparent" points="319.5,-201.7 319.5,-220.7 337.5,-220.7 337.5,-201.7 319.5,-201.7"/>
<polygon fill="none" stroke="#000000" points="319.5,-201.7 319.5,-220.7 337.5,-220.7 337.5,-201.7 319.5,-201.7"/>
<text text-anchor="start" x="328.3862" y="-207.8" font-family="Helvetica,sans-Serif" font-size="11.00" fill="#000000"> &#160;</text>
<polygon fill="#ffffff" stroke="transparent" points="337.5,-201.7 337.5,-220.7 365.5,-220.7 365.5,-201.7 337.5,-201.7"/>
<polygon fill="none" stroke="#000000" points="337.5,-201.7 337.5,-220.7 365.5,-220.7 365.5,-201.7 337.5,-201.7"/>
<text text-anchor="start" x="346.9053" y="-207.8" font-family="Helvetica,sans-Serif" font-size="11.00" fill="#000000">2 &gt;</text>
</a>
</g>
</g>
<!-- encontros&#45;&gt;turmas -->
<g id="edge4" class="edge">
<title>encontros:w&#45;&gt;turmas:e</title>
<path fill="none" stroke="#000000" d="M414.7871,-385.0305C391.0975,-370.3583 402.3338,-316.7 365.5,-316.7"/>
<polygon fill="#000000" stroke="#000000" points="421.254,-386.7001 428.1,-392.1857 425.127,-387.7001 429,-388.7 429,-388.7 429,-388.7 425.127,-387.7001 429.9,-385.2143 421.254,-386.7001 421.254,-386.7001"/>
<ellipse fill="none" stroke="#000000" cx="418.1556" cy="-385.9001" rx="3.2" ry="3.2"/>
</g>
<!-- cursos -->
<g id="node6" class="node">
<title>cursos</title>
<g id="a_node6"><a xlink:href="../../tables/cursos.html" xlink:title="cursos" target="_top">
<polygon fill="#ffffff" stroke="transparent" points="8,-267.2 8,-328.2 86,-328.2 86,-267.2 8,-267.2"/>
<polygon fill="#f5f5f5" stroke="transparent" points="8,-304.7 8,-327.7 86,-327.7 86,-304.7 8,-304.7"/>
<polygon fill="none" stroke="#000000" points="8,-304.7 8,-327.7 86,-327.7 86,-304.7 8,-304.7"/>
<text text-anchor="start" x="13" y="-313.3" font-family="Helvetica,sans-Serif" font-weight="bold" font-size="11.00" fill="#000000">cursos</text>
<text text-anchor="start" x="51.5219" y="-312.8" font-family="Helvetica,sans-Serif" font-size="11.00" fill="#000000">[table]</text>
<polygon fill="none" stroke="#000000" points="8,-285.7 8,-304.7 86,-304.7 86,-285.7 8,-285.7"/>
<text text-anchor="start" x="11" y="-291.8" font-family="Helvetica,sans-Serif" font-size="11.00" fill="#000000">...</text>
<polygon fill="#ffffff" stroke="transparent" points="8,-266.7 8,-285.7 36,-285.7 36,-266.7 8,-266.7"/>
<polygon fill="none" stroke="#000000" points="8,-266.7 8,-285.7 36,-285.7 36,-266.7 8,-266.7"/>
<text text-anchor="start" x="11" y="-272.8" font-family="Helvetica,sans-Serif" font-size="11.00" fill="#000000"> &#160;</text>
<polygon fill="#ffffff" stroke="transparent" points="36,-266.7 36,-285.7 56,-285.7 56,-266.7 36,-266.7"/>
<polygon fill="none" stroke="#000000" points="36,-266.7 36,-285.7 56,-285.7 56,-266.7 36,-266.7"/>
<text text-anchor="start" x="46.8862" y="-272.8" font-family="Helvetica,sans-Serif" font-size="11.00" fill="#000000"> &#160;</text>
<polygon fill="#ffffff" stroke="transparent" points="56,-266.7 56,-285.7 86,-285.7 86,-266.7 56,-266.7"/>
<polygon fill="none" stroke="#000000" points="56,-266.7 56,-285.7 86,-285.7 86,-266.7 56,-266.7"/>
<text text-anchor="start" x="67.4053" y="-272.8" font-family="Helvetica,sans-Serif" font-size="11.00" fill="#000000">3 &gt;</text>
</a>
</g>
</g>
<!-- grupos&#45;&gt;cursos -->
<g id="edge5" class="edge">
<title>grupos:w&#45;&gt;cursos:e</title>
<path fill="none" stroke="#000000" d="M258.9299,-463.6585C164.138,-449.4527 193.323,-294.7 86,-294.7"/>
<polygon fill="#000000" stroke="#000000" points="265.5204,-464.1295 273.2433,-468.2908 269.5102,-464.4148 273.5,-464.7 273.5,-464.7 273.5,-464.7 269.5102,-464.4148 273.7567,-461.1092 265.5204,-464.1295 265.5204,-464.1295"/>
<ellipse fill="none" stroke="#000000" cx="262.3285" cy="-463.9013" rx="3.2" ry="3.2"/>
</g>
<!-- usuarios -->
<g id="node7" class="node">
<title>usuarios</title>
<g id="a_node7"><a xlink:href="../../tables/usuarios.html" xlink:title="usuarios" target="_top">
<polygon fill="#ffffff" stroke="transparent" points="135,-180.2 135,-241.2 224,-241.2 224,-180.2 135,-180.2"/>
<polygon fill="#f5f5f5" stroke="transparent" points="135.5,-217.7 135.5,-240.7 224.5,-240.7 224.5,-217.7 135.5,-217.7"/>
<polygon fill="none" stroke="#000000" points="135.5,-217.7 135.5,-240.7 224.5,-240.7 224.5,-217.7 135.5,-217.7"/>
<text text-anchor="start" x="140.5" y="-226.3" font-family="Helvetica,sans-Serif" font-weight="bold" font-size="11.00" fill="#000000">usuarios</text>
<text text-anchor="start" x="190.0219" y="-225.8" font-family="Helvetica,sans-Serif" font-size="11.00" fill="#000000">[table]</text>
<polygon fill="none" stroke="#000000" points="135.5,-198.7 135.5,-217.7 224.5,-217.7 224.5,-198.7 135.5,-198.7"/>
<text text-anchor="start" x="138.5" y="-204.8" font-family="Helvetica,sans-Serif" font-size="11.00" fill="#000000">...</text>
<polygon fill="#ffffff" stroke="transparent" points="135.5,-179.7 135.5,-198.7 173.5,-198.7 173.5,-179.7 135.5,-179.7"/>
<polygon fill="none" stroke="#000000" points="135.5,-179.7 135.5,-198.7 173.5,-198.7 173.5,-179.7 135.5,-179.7"/>
<text text-anchor="start" x="138.5" y="-185.8" font-family="Helvetica,sans-Serif" font-size="11.00" fill="#000000">&lt; 1</text>
<polygon fill="#ffffff" stroke="transparent" points="173.5,-179.7 173.5,-198.7 194.5,-198.7 194.5,-179.7 173.5,-179.7"/>
<polygon fill="none" stroke="#000000" points="173.5,-179.7 173.5,-198.7 194.5,-198.7 194.5,-179.7 173.5,-179.7"/>
<text text-anchor="start" x="185.3862" y="-185.8" font-family="Helvetica,sans-Serif" font-size="11.00" fill="#000000"> &#160;</text>
<polygon fill="#ffffff" stroke="transparent" points="194.5,-179.7 194.5,-198.7 224.5,-198.7 224.5,-179.7 194.5,-179.7"/>
<polygon fill="none" stroke="#000000" points="194.5,-179.7 194.5,-198.7 224.5,-198.7 224.5,-179.7 194.5,-179.7"/>
<text text-anchor="start" x="205.9053" y="-185.8" font-family="Helvetica,sans-Serif" font-size="11.00" fill="#000000">6 &gt;</text>
</a>
</g>
</g>
<!-- grupos&#45;&gt;usuarios -->
<g id="edge6" class="edge">
<title>grupos:w&#45;&gt;usuarios:e</title>
<path fill="none" stroke="#000000" d="M258.8032,-440.8084C183.3925,-418.5684 325.5645,-207.7 224.5,-207.7"/>
<polygon fill="#000000" stroke="#000000" points="265.5655,-441.6787 273.0404,-446.2705 269.5327,-442.1894 273.5,-442.7 273.5,-442.7 273.5,-442.7 269.5327,-442.1894 273.9596,-439.1295 265.5655,-441.6787 265.5655,-441.6787"/>
<ellipse fill="none" stroke="#000000" cx="262.3916" cy="-441.2702" rx="3.2" ry="3.2"/>
</g>
<!-- turmas&#45;&gt;cursos -->
<g id="edge9" class="edge">
<title>turmas:w&#45;&gt;cursos:e</title>
<path fill="none" stroke="#000000" d="M271.977,-294.7C194.6508,-294.7 170.0638,-294.7 86,-294.7"/>
<polygon fill="#000000" stroke="#000000" points="278.5,-294.7001 286.5,-298.3 282.5,-294.7 286.5,-294.7 286.5,-294.7 286.5,-294.7 282.5,-294.7 286.5,-291.1 278.5,-294.7001 278.5,-294.7001"/>
<ellipse fill="none" stroke="#000000" cx="275.3" cy="-294.7001" rx="3.2" ry="3.2"/>
</g>
<!-- turmas&#45;&gt;usuarios -->
<g id="edge10" class="edge">
<title>turmas:w&#45;&gt;usuarios:e</title>
<path fill="none" stroke="#000000" d="M272.461,-269.0191C250.5287,-255.2687 258.6532,-207.7 224.5,-207.7"/>
<polygon fill="#000000" stroke="#000000" points="278.7616,-270.671 285.587,-276.1823 282.6308,-271.6855 286.5,-272.7 286.5,-272.7 286.5,-272.7 282.6308,-271.6855 287.413,-269.2177 278.7616,-270.671 278.7616,-270.671"/>
<ellipse fill="none" stroke="#000000" cx="275.6662" cy="-269.8594" rx="3.2" ry="3.2"/>
</g>
<!-- usuarios&#45;&gt;cursos -->
<g id="edge15" class="edge">
<title>usuarios:w&#45;&gt;cursos:e</title>
<path fill="none" stroke="#000000" d="M121.5324,-212.134C100.2372,-229.8629 124.405,-294.7 86,-294.7"/>
<polygon fill="#000000" stroke="#000000" points="127.875,-210.1206 136.5893,-211.1313 131.6875,-208.9103 135.5,-207.7 135.5,-207.7 135.5,-207.7 131.6875,-208.9103 134.4107,-204.2687 127.875,-210.1206 127.875,-210.1206"/>
<ellipse fill="none" stroke="#000000" cx="124.825" cy="-211.0888" rx="3.2" ry="3.2"/>
</g>
<!-- mensagens -->
<g id="node8" class="node">
<title>mensagens</title>
<g id="a_node8"><a xlink:href="../../tables/mensagens.html" xlink:title="mensagens" target="_top">
<polygon fill="#ffffff" stroke="transparent" points="635,-312.2 635,-439.2 740,-439.2 740,-312.2 635,-312.2"/>
<polygon fill="#f5f5f5" stroke="transparent" points="635.5,-415.7 635.5,-438.7 740.5,-438.7 740.5,-415.7 635.5,-415.7"/>
<polygon fill="none" stroke="#000000" points="635.5,-415.7 635.5,-438.7 740.5,-438.7 740.5,-415.7 635.5,-415.7"/>
<text text-anchor="start" x="640.5" y="-424.3" font-family="Helvetica,sans-Serif" font-weight="bold" font-size="11.00" fill="#000000">mensagens</text>
<text text-anchor="start" x="706.0219" y="-423.8" font-family="Helvetica,sans-Serif" font-size="11.00" fill="#000000">[table]</text>
<polygon fill="none" stroke="#000000" points="635.5,-393.7 635.5,-415.7 740.5,-415.7 740.5,-393.7 635.5,-393.7"/>
<image xlink:href="../../images/primaryKeys.png" width="11px" height="12px" preserveAspectRatio="xMinYMin meet" x="640.5" y="-410.7"/>
<text text-anchor="start" x="663.5" y="-400.8" font-family="Helvetica,sans-Serif" font-size="11.00" fill="#000000">id</text>
<polygon fill="none" stroke="#000000" points="635.5,-371.7 635.5,-393.7 740.5,-393.7 740.5,-371.7 635.5,-371.7"/>
<image xlink:href="../../images/foreignKeys.png" width="11px" height="12px" preserveAspectRatio="xMinYMin meet" x="640.5" y="-388.7"/>
<text text-anchor="start" x="663.5" y="-378.8" font-family="Helvetica,sans-Serif" font-size="11.00" fill="#000000">id_encontro</text>
<polygon fill="none" stroke="#000000" points="635.5,-349.7 635.5,-371.7 740.5,-371.7 740.5,-349.7 635.5,-349.7"/>
<image xlink:href="../../images/foreignKeys.png" width="11px" height="12px" preserveAspectRatio="xMinYMin meet" x="640.5" y="-366.7"/>
<text text-anchor="start" x="663.5" y="-356.8" font-family="Helvetica,sans-Serif" font-size="11.00" fill="#000000">id_user</text>
<polygon fill="none" stroke="#000000" points="635.5,-330.7 635.5,-349.7 740.5,-349.7 740.5,-330.7 635.5,-330.7"/>
<text text-anchor="start" x="638.5" y="-336.8" font-family="Helvetica,sans-Serif" font-size="11.00" fill="#000000">...</text>
<polygon fill="#ffffff" stroke="transparent" points="635.5,-311.7 635.5,-330.7 686.5,-330.7 686.5,-311.7 635.5,-311.7"/>
<polygon fill="none" stroke="#000000" points="635.5,-311.7 635.5,-330.7 686.5,-330.7 686.5,-311.7 635.5,-311.7"/>
<text text-anchor="start" x="638.5" y="-317.8" font-family="Helvetica,sans-Serif" font-size="11.00" fill="#000000">&lt; 2</text>
<polygon fill="#ffffff" stroke="transparent" points="686.5,-311.7 686.5,-330.7 713.5,-330.7 713.5,-311.7 686.5,-311.7"/>
<polygon fill="none" stroke="#000000" points="686.5,-311.7 686.5,-330.7 713.5,-330.7 713.5,-311.7 686.5,-311.7"/>
<text text-anchor="start" x="704.3862" y="-317.8" font-family="Helvetica,sans-Serif" font-size="11.00" fill="#000000"> &#160;</text>
<polygon fill="#ffffff" stroke="transparent" points="713.5,-311.7 713.5,-330.7 740.5,-330.7 740.5,-311.7 713.5,-311.7"/>
<polygon fill="none" stroke="#000000" points="713.5,-311.7 713.5,-330.7 740.5,-330.7 740.5,-311.7 713.5,-311.7"/>
<text text-anchor="start" x="731.3862" y="-317.8" font-family="Helvetica,sans-Serif" font-size="11.00" fill="#000000"> &#160;</text>
</a>
</g>
</g>
<!-- mensagens&#45;&gt;encontros -->
<g id="edge7" class="edge">
<title>mensagens:w&#45;&gt;encontros:e</title>
<path fill="none" stroke="#000000" d="M621.506,-386.2959C602.469,-397.7604 604.1602,-432.7 575,-432.7"/>
<polygon fill="#000000" stroke="#000000" points="627.7517,-384.691 636.396,-386.1867 631.6259,-383.6955 635.5,-382.7 635.5,-382.7 635.5,-382.7 631.6259,-383.6955 634.604,-379.2133 627.7517,-384.691 627.7517,-384.691"/>
<ellipse fill="none" stroke="#000000" cx="624.6524" cy="-385.4875" rx="3.2" ry="3.2"/>
</g>
<!-- mensagens&#45;&gt;usuarios -->
<g id="edge8" class="edge">
<title>mensagens:w&#45;&gt;usuarios:e</title>
<path fill="none" stroke="#000000" d="M620.8383,-359.3101C547.5268,-343.5342 660.0544,-197.6582 585,-137.7 529.3714,-93.2603 326.9504,-118.6061 265,-153.7 238.8973,-168.4867 254.5,-207.7 224.5,-207.7"/>
<polygon fill="#000000" stroke="#000000" points="627.5357,-359.945 635.1602,-364.2839 631.5179,-360.3225 635.5,-360.7 635.5,-360.7 635.5,-360.7 631.5179,-360.3225 635.8398,-357.1161 627.5357,-359.945 627.5357,-359.945"/>
<ellipse fill="none" stroke="#000000" cx="624.35" cy="-359.6429" rx="3.2" ry="3.2"/>
</g>
<!-- usuario_grupo -->
<g id="node9" class="node">
<title>usuario_grupo</title>
<g id="a_node9"><a xlink:href="../../tables/usuario_grupo.html" xlink:title="usuario_grupo" target="_top">
<polygon fill="#ffffff" stroke="transparent" points="440.5,-230.2 440.5,-291.2 563.5,-291.2 563.5,-230.2 440.5,-230.2"/>
<polygon fill="#f5f5f5" stroke="transparent" points="441,-267.7 441,-290.7 564,-290.7 564,-267.7 441,-267.7"/>
<polygon fill="none" stroke="#000000" points="441,-267.7 441,-290.7 564,-290.7 564,-267.7 441,-267.7"/>
<text text-anchor="start" x="446" y="-276.3" font-family="Helvetica,sans-Serif" font-weight="bold" font-size="11.00" fill="#000000">usuario_grupo</text>
<text text-anchor="start" x="529.5219" y="-275.8" font-family="Helvetica,sans-Serif" font-size="11.00" fill="#000000">[table]</text>
<polygon fill="none" stroke="#000000" points="441,-248.7 441,-267.7 564,-267.7 564,-248.7 441,-248.7"/>
<text text-anchor="start" x="444" y="-254.8" font-family="Helvetica,sans-Serif" font-size="11.00" fill="#000000">...</text>
<polygon fill="#ffffff" stroke="transparent" points="441,-229.7 441,-248.7 501,-248.7 501,-229.7 441,-229.7"/>
<polygon fill="none" stroke="#000000" points="441,-229.7 441,-248.7 501,-248.7 501,-229.7 441,-229.7"/>
<text text-anchor="start" x="444" y="-235.8" font-family="Helvetica,sans-Serif" font-size="11.00" fill="#000000">&lt; 2</text>
<polygon fill="#ffffff" stroke="transparent" points="501,-229.7 501,-248.7 532,-248.7 532,-229.7 501,-229.7"/>
<polygon fill="none" stroke="#000000" points="501,-229.7 501,-248.7 532,-248.7 532,-229.7 501,-229.7"/>
<text text-anchor="start" x="522.8862" y="-235.8" font-family="Helvetica,sans-Serif" font-size="11.00" fill="#000000"> &#160;</text>
<polygon fill="#ffffff" stroke="transparent" points="532,-229.7 532,-248.7 564,-248.7 564,-229.7 532,-229.7"/>
<polygon fill="none" stroke="#000000" points="532,-229.7 532,-248.7 564,-248.7 564,-229.7 532,-229.7"/>
<text text-anchor="start" x="554.8862" y="-235.8" font-family="Helvetica,sans-Serif" font-size="11.00" fill="#000000"> &#160;</text>
</a>
</g>
</g>
<!-- usuario_grupo&#45;&gt;grupos -->
<g id="edge11" class="edge">
<title>usuario_grupo:w&#45;&gt;grupos:e</title>
<path fill="none" stroke="#000000" d="M426.3541,-259.5433C350.4555,-281.2155 478.4368,-486.7 378.5,-486.7"/>
<polygon fill="#000000" stroke="#000000" points="433.0626,-258.699 441.4496,-261.2718 437.0313,-258.1995 441,-257.7 441,-257.7 441,-257.7 437.0313,-258.1995 440.5504,-254.1282 433.0626,-258.699 433.0626,-258.699"/>
<ellipse fill="none" stroke="#000000" cx="429.8877" cy="-259.0987" rx="3.2" ry="3.2"/>
</g>
<!-- usuario_grupo&#45;&gt;usuarios -->
<g id="edge12" class="edge">
<title>usuario_grupo:w&#45;&gt;usuarios:e</title>
<path fill="none" stroke="#000000" d="M426.786,-254.3704C407.0893,-242.9567 415.1756,-205.3651 386,-191.7 337.2994,-168.8899 317.829,-181.6428 265,-191.7 245.9877,-195.3194 243.8538,-207.7 224.5,-207.7"/>
<polygon fill="#000000" stroke="#000000" points="433.2108,-255.8754 440.1789,-261.2051 437.1054,-256.7877 441,-257.7 441,-257.7 441,-257.7 437.1054,-256.7877 441.8211,-254.1949 433.2108,-255.8754 433.2108,-255.8754"/>
<ellipse fill="none" stroke="#000000" cx="430.0952" cy="-255.1455" rx="3.2" ry="3.2"/>
</g>
<!-- usuario_turma -->
<g id="node10" class="node">
<title>usuario_turma</title>
<g id="a_node10"><a xlink:href="../../tables/usuario_turma.html" xlink:title="usuario_turma" target="_top">
<polygon fill="#ffffff" stroke="transparent" points="441,-148.2 441,-209.2 563,-209.2 563,-148.2 441,-148.2"/>
<polygon fill="#f5f5f5" stroke="transparent" points="441,-185.7 441,-208.7 563,-208.7 563,-185.7 441,-185.7"/>
<polygon fill="none" stroke="#000000" points="441,-185.7 441,-208.7 563,-208.7 563,-185.7 441,-185.7"/>
<text text-anchor="start" x="446" y="-194.3" font-family="Helvetica,sans-Serif" font-weight="bold" font-size="11.00" fill="#000000">usuario_turma</text>
<text text-anchor="start" x="528.5219" y="-193.8" font-family="Helvetica,sans-Serif" font-size="11.00" fill="#000000">[table]</text>
<polygon fill="none" stroke="#000000" points="441,-166.7 441,-185.7 563,-185.7 563,-166.7 441,-166.7"/>
<text text-anchor="start" x="444" y="-172.8" font-family="Helvetica,sans-Serif" font-size="11.00" fill="#000000">...</text>
<polygon fill="#ffffff" stroke="transparent" points="441,-147.7 441,-166.7 500,-166.7 500,-147.7 441,-147.7"/>
<polygon fill="none" stroke="#000000" points="441,-147.7 441,-166.7 500,-166.7 500,-147.7 441,-147.7"/>
<text text-anchor="start" x="444" y="-153.8" font-family="Helvetica,sans-Serif" font-size="11.00" fill="#000000">&lt; 2</text>
<polygon fill="#ffffff" stroke="transparent" points="500,-147.7 500,-166.7 531,-166.7 531,-147.7 500,-147.7"/>
<polygon fill="none" stroke="#000000" points="500,-147.7 500,-166.7 531,-166.7 531,-147.7 500,-147.7"/>
<text text-anchor="start" x="521.8862" y="-153.8" font-family="Helvetica,sans-Serif" font-size="11.00" fill="#000000"> &#160;</text>
<polygon fill="#ffffff" stroke="transparent" points="531,-147.7 531,-166.7 563,-166.7 563,-147.7 531,-147.7"/>
<polygon fill="none" stroke="#000000" points="531,-147.7 531,-166.7 563,-166.7 563,-147.7 531,-147.7"/>
<text text-anchor="start" x="553.8862" y="-153.8" font-family="Helvetica,sans-Serif" font-size="11.00" fill="#000000"> &#160;</text>
</a>
</g>
</g>
<!-- usuario_turma&#45;&gt;turmas -->
<g id="edge13" class="edge">
<title>usuario_turma:w&#45;&gt;turmas:e</title>
<path fill="none" stroke="#000000" d="M426.7304,-178.1473C379.4914,-196.8707 431.0315,-316.7 365.5,-316.7"/>
<polygon fill="#000000" stroke="#000000" points="433.1151,-177.0524 441.6086,-179.2482 437.0576,-176.3762 441,-175.7 441,-175.7 441,-175.7 437.0576,-176.3762 440.3914,-172.1518 433.1151,-177.0524 433.1151,-177.0524"/>
<ellipse fill="none" stroke="#000000" cx="429.9612" cy="-177.5933" rx="3.2" ry="3.2"/>
</g>
<!-- usuario_turma&#45;&gt;usuarios -->
<g id="edge14" class="edge">
<title>usuario_turma:w&#45;&gt;usuarios:e</title>
<path fill="none" stroke="#000000" d="M426.28,-174.8125C412.6023,-173.0291 404.8629,-169.0647 386,-167.7 332.3624,-163.8195 314.7479,-147.2745 265,-167.7 241.5966,-177.3089 249.7992,-207.7 224.5,-207.7"/>
<polygon fill="#000000" stroke="#000000" points="433.0145,-175.2185 440.7833,-179.2935 437.0073,-175.4593 441,-175.7 441,-175.7 441,-175.7 437.0073,-175.4593 441.2167,-172.1065 433.0145,-175.2185 433.0145,-175.2185"/>
<ellipse fill="none" stroke="#000000" cx="429.8203" cy="-175.0259" rx="3.2" ry="3.2"/>
</g>
</g>
</svg>
