<?xml version="1.0" encoding="UTF-8" standalone="no"?>
<!DOCTYPE svg PUBLIC "-//W3C//DTD SVG 1.1//EN"
 "http://www.w3.org/Graphics/SVG/1.1/DTD/svg11.dtd">
<!-- Generated by graphviz version 2.40.1 (20161225.0304)
 -->
<!-- Title: oneDegreeRelationshipsDiagram Pages: 1 -->
<svg width="500pt" height="402pt"
 viewBox="0.00 0.00 500.00 402.20" xmlns="http://www.w3.org/2000/svg" xmlns:xlink="http://www.w3.org/1999/xlink">
<g id="graph0" class="graph" transform="scale(1 1) rotate(0) translate(4 398.2)">
<title>oneDegreeRelationshipsDiagram</title>
<polygon fill="#ffffff" stroke="transparent" points="-4,4 -4,-398.2 496,-398.2 496,4 -4,4"/>
<text text-anchor="middle" x="72.4936" y="-7.3" font-family="Helvetica,sans-Serif" font-size="11.00" fill="#000000">Generated by SchemaSpy</text>
<!-- agendamentos -->
<g id="node1" class="node">
<title>agendamentos</title>
<g id="a_node1"><a xlink:href="../../tables/agendamentos.html" xlink:title="agendamentos" target="_top">
<polygon fill="#ffffff" stroke="transparent" points="361,-263.2 361,-390.2 484,-390.2 484,-263.2 361,-263.2"/>
<polygon fill="#f5f5f5" stroke="transparent" points="361.5,-366.7 361.5,-389.7 484.5,-389.7 484.5,-366.7 361.5,-366.7"/>
<polygon fill="none" stroke="#000000" points="361.5,-366.7 361.5,-389.7 484.5,-389.7 484.5,-366.7 361.5,-366.7"/>
<text text-anchor="start" x="366.5" y="-375.3" font-family="Helvetica,sans-Serif" font-weight="bold" font-size="11.00" fill="#000000">agendamentos</text>
<text text-anchor="start" x="450.0219" y="-374.8" font-family="Helvetica,sans-Serif" font-size="11.00" fill="#000000">[table]</text>
<polygon fill="none" stroke="#000000" points="361.5,-344.7 361.5,-366.7 484.5,-366.7 484.5,-344.7 361.5,-344.7"/>
<image xlink:href="../../images/foreignKeys.png" width="11px" height="12px" preserveAspectRatio="xMinYMin meet" x="366.5" y="-361.7"/>
<text text-anchor="start" x="390.5" y="-351.8" font-family="Helvetica,sans-Serif" font-size="11.00" fill="#000000">encontro_id</text>
<polygon fill="none" stroke="#000000" points="361.5,-322.7 361.5,-344.7 484.5,-344.7 484.5,-322.7 361.5,-322.7"/>
<image xlink:href="../../images/primaryKeys.png" width="11px" height="12px" preserveAspectRatio="xMinYMin meet" x="366.5" y="-339.7"/>
<text text-anchor="start" x="390.5" y="-329.8" font-family="Helvetica,sans-Serif" font-size="11.00" fill="#000000">id</text>
<polygon fill="none" stroke="#000000" points="361.5,-300.7 361.5,-322.7 484.5,-322.7 484.5,-300.7 361.5,-300.7"/>
<image xlink:href="../../images/foreignKeys.png" width="11px" height="12px" preserveAspectRatio="xMinYMin meet" x="366.5" y="-317.7"/>
<text text-anchor="start" x="390.5" y="-307.8" font-family="Helvetica,sans-Serif" font-size="11.00" fill="#000000">local_id</text>
<polygon fill="none" stroke="#000000" points="361.5,-281.7 361.5,-300.7 484.5,-300.7 484.5,-281.7 361.5,-281.7"/>
<text text-anchor="start" x="364.5" y="-287.8" font-family="Helvetica,sans-Serif" font-size="11.00" fill="#000000">...</text>
<polygon fill="#ffffff" stroke="transparent" points="361.5,-262.7 361.5,-281.7 421.5,-281.7 421.5,-262.7 361.5,-262.7"/>
<polygon fill="none" stroke="#000000" points="361.5,-262.7 361.5,-281.7 421.5,-281.7 421.5,-262.7 361.5,-262.7"/>
<text text-anchor="start" x="364.5" y="-268.8" font-family="Helvetica,sans-Serif" font-size="11.00" fill="#000000">&lt; 2</text>
<polygon fill="#ffffff" stroke="transparent" points="421.5,-262.7 421.5,-281.7 452.5,-281.7 452.5,-262.7 421.5,-262.7"/>
<polygon fill="none" stroke="#000000" points="421.5,-262.7 421.5,-281.7 452.5,-281.7 452.5,-262.7 421.5,-262.7"/>
<text text-anchor="start" x="443.3862" y="-268.8" font-family="Helvetica,sans-Serif" font-size="11.00" fill="#000000"> &#160;</text>
<polygon fill="#ffffff" stroke="transparent" points="452.5,-262.7 452.5,-281.7 484.5,-281.7 484.5,-262.7 452.5,-262.7"/>
<polygon fill="none" stroke="#000000" points="452.5,-262.7 452.5,-281.7 484.5,-281.7 484.5,-262.7 452.5,-262.7"/>
<text text-anchor="start" x="475.3862" y="-268.8" font-family="Helvetica,sans-Serif" font-size="11.00" fill="#000000"> &#160;</text>
</a>
</g>
</g>
<!-- encontros -->
<g id="node2" class="node">
<title>encontros</title>
<g id="a_node2"><a xlink:href="../../tables/encontros.html" xlink:title="encontros" target="_top">
<polygon fill="#ffffff" stroke="transparent" points="162,-150.7 162,-306.7 312,-306.7 312,-150.7 162,-150.7"/>
<polygon fill="#f5f5f5" stroke="transparent" points="164,-281.7 164,-304.7 310,-304.7 310,-281.7 164,-281.7"/>
<polygon fill="none" stroke="#000000" points="164,-281.7 164,-304.7 310,-304.7 310,-281.7 164,-281.7"/>
<text text-anchor="start" x="169" y="-290.3" font-family="Helvetica,sans-Serif" font-weight="bold" font-size="11.00" fill="#000000">encontros</text>
<text text-anchor="start" x="275.0437" y="-289.8" font-family="Helvetica,sans-Serif" font-size="11.00" fill="#000000">[table]</text>
<polygon fill="none" stroke="#000000" points="164,-259.7 164,-281.7 243,-281.7 243,-259.7 164,-259.7"/>
<image xlink:href="../../images/primaryKeys.png" width="11px" height="12px" preserveAspectRatio="xMinYMin meet" x="169" y="-276.7"/>
<text text-anchor="start" x="184" y="-266.8" font-family="Helvetica,sans-Serif" font-size="11.00" fill="#000000">id</text>
<polygon fill="none" stroke="#000000" points="243,-259.7 243,-281.7 310,-281.7 310,-259.7 243,-259.7"/>
<text text-anchor="start" x="246" y="-267.4" font-family="Helvetica,sans-Serif" font-size="11.00" fill="#000000">serial[10]</text>
<polygon fill="none" stroke="#000000" points="164,-237.7 164,-259.7 243,-259.7 243,-237.7 164,-237.7"/>
<image xlink:href="../../images/foreignKeys.png" width="11px" height="12px" preserveAspectRatio="xMinYMin meet" x="169" y="-254.7"/>
<text text-anchor="start" x="184" y="-244.8" font-family="Helvetica,sans-Serif" font-size="11.00" fill="#000000">id_grupo</text>
<polygon fill="none" stroke="#000000" points="243,-237.7 243,-259.7 310,-259.7 310,-237.7 243,-237.7"/>
<text text-anchor="start" x="246" y="-245.4" font-family="Helvetica,sans-Serif" font-size="11.00" fill="#000000">int4[10]</text>
<polygon fill="none" stroke="#000000" points="164,-215.7 164,-237.7 243,-237.7 243,-215.7 164,-215.7"/>
<image xlink:href="../../images/foreignKeys.png" width="11px" height="12px" preserveAspectRatio="xMinYMin meet" x="169" y="-232.7"/>
<text text-anchor="start" x="184" y="-222.8" font-family="Helvetica,sans-Serif" font-size="11.00" fill="#000000">id_turma</text>
<polygon fill="none" stroke="#000000" points="243,-215.7 243,-237.7 310,-237.7 310,-215.7 243,-215.7"/>
<text text-anchor="start" x="246" y="-223.4" font-family="Helvetica,sans-Serif" font-size="11.00" fill="#000000">int4[10]</text>
<polygon fill="none" stroke="#000000" points="164,-193.7 164,-215.7 243,-215.7 243,-193.7 164,-193.7"/>
<text text-anchor="start" x="184" y="-200.8" font-family="Helvetica,sans-Serif" font-size="11.00" fill="#000000">tema</text>
<polygon fill="none" stroke="#000000" points="243,-193.7 243,-215.7 310,-215.7 310,-193.7 243,-193.7"/>
<text text-anchor="start" x="245.9365" y="-201.4" font-family="Helvetica,sans-Serif" font-size="11.00" fill="#000000">varchar[100]</text>
<polygon fill="none" stroke="#000000" points="164,-171.7 164,-193.7 243,-193.7 243,-171.7 164,-171.7"/>
<text text-anchor="start" x="184" y="-178.8" font-family="Helvetica,sans-Serif" font-size="11.00" fill="#000000">descricao</text>
<polygon fill="none" stroke="#000000" points="243,-171.7 243,-193.7 310,-193.7 310,-171.7 243,-171.7"/>
<text text-anchor="start" x="245.9365" y="-179.4" font-family="Helvetica,sans-Serif" font-size="11.00" fill="#000000">varchar[255]</text>
<polygon fill="#ffffff" stroke="transparent" points="164,-152.7 164,-171.7 208,-171.7 208,-152.7 164,-152.7"/>
<polygon fill="none" stroke="#000000" points="164,-152.7 164,-171.7 208,-171.7 208,-152.7 164,-152.7"/>
<text text-anchor="start" x="167" y="-158.8" font-family="Helvetica,sans-Serif" font-size="11.00" fill="#000000">&lt; 2</text>
<polygon fill="#ffffff" stroke="transparent" points="208,-152.7 208,-171.7 243,-171.7 243,-152.7 208,-152.7"/>
<polygon fill="none" stroke="#000000" points="208,-152.7 208,-171.7 243,-171.7 243,-152.7 208,-152.7"/>
<text text-anchor="start" x="233.8862" y="-158.8" font-family="Helvetica,sans-Serif" font-size="11.00" fill="#000000"> &#160;</text>
<polygon fill="#ffffff" stroke="transparent" points="243,-152.7 243,-171.7 310,-171.7 310,-152.7 243,-152.7"/>
<polygon fill="none" stroke="#000000" points="243,-152.7 243,-171.7 310,-171.7 310,-152.7 243,-152.7"/>
<text text-anchor="start" x="291.4053" y="-158.8" font-family="Helvetica,sans-Serif" font-size="11.00" fill="#000000">2 &gt;</text>
<polygon fill="none" stroke="#000000" stroke-width="2" points="163,-151.7 163,-305.7 311,-305.7 311,-151.7 163,-151.7"/>
</a>
</g>
</g>
<!-- agendamentos&#45;&gt;encontros -->
<g id="edge1" class="edge">
<title>agendamentos:w&#45;&gt;encontros:e</title>
<path fill="none" stroke="#000000" d="M347.5119,-351.368C325.8888,-334.0466 348.1318,-270.7 310,-270.7"/>
<polygon fill="#000000" stroke="#000000" points="353.8581,-353.3333 360.435,-359.1389 357.679,-354.5167 361.5,-355.7 361.5,-355.7 361.5,-355.7 357.679,-354.5167 362.565,-352.2611 353.8581,-353.3333 353.8581,-353.3333"/>
<ellipse fill="none" stroke="#000000" cx="350.8013" cy="-352.3866" rx="3.2" ry="3.2"/>
</g>
<!-- grupos -->
<g id="node3" class="node">
<title>grupos</title>
<g id="a_node3"><a xlink:href="../../tables/grupos.html" xlink:title="grupos" target="_top">
<polygon fill="#ffffff" stroke="transparent" points="8,-208.2 8,-357.2 113,-357.2 113,-208.2 8,-208.2"/>
<polygon fill="#f5f5f5" stroke="transparent" points="8.5,-333.7 8.5,-356.7 113.5,-356.7 113.5,-333.7 8.5,-333.7"/>
<polygon fill="none" stroke="#000000" points="8.5,-333.7 8.5,-356.7 113.5,-356.7 113.5,-333.7 8.5,-333.7"/>
<text text-anchor="start" x="13.5" y="-342.3" font-family="Helvetica,sans-Serif" font-weight="bold" font-size="11.00" fill="#000000">grupos</text>
<text text-anchor="start" x="78.5437" y="-341.8" font-family="Helvetica,sans-Serif" font-size="11.00" fill="#000000">[table]</text>
<polygon fill="none" stroke="#000000" points="8.5,-311.7 8.5,-333.7 113.5,-333.7 113.5,-311.7 8.5,-311.7"/>
<image xlink:href="../../images/primaryKeys.png" width="11px" height="12px" preserveAspectRatio="xMinYMin meet" x="13.5" y="-328.7"/>
<text text-anchor="start" x="28.5" y="-318.8" font-family="Helvetica,sans-Serif" font-size="11.00" fill="#000000">id</text>
<polygon fill="none" stroke="#000000" points="8.5,-289.7 8.5,-311.7 113.5,-311.7 113.5,-289.7 8.5,-289.7"/>
<image xlink:href="../../images/foreignKeys.png" width="11px" height="12px" preserveAspectRatio="xMinYMin meet" x="13.5" y="-306.7"/>
<text text-anchor="start" x="28.5" y="-296.8" font-family="Helvetica,sans-Serif" font-size="11.00" fill="#000000">id_curso</text>
<polygon fill="none" stroke="#000000" points="8.5,-267.7 8.5,-289.7 113.5,-289.7 113.5,-267.7 8.5,-267.7"/>
<image xlink:href="../../images/foreignKeys.png" width="11px" height="12px" preserveAspectRatio="xMinYMin meet" x="13.5" y="-284.7"/>
<text text-anchor="start" x="28.5" y="-274.8" font-family="Helvetica,sans-Serif" font-size="11.00" fill="#000000">id_user</text>
<polygon fill="#ffffff" stroke="transparent" points="8.5,-245.7 8.5,-267.7 113.5,-267.7 113.5,-245.7 8.5,-245.7"/>
<polygon fill="none" stroke="#000000" points="8.5,-245.7 8.5,-267.7 113.5,-267.7 113.5,-245.7 8.5,-245.7"/>
<text text-anchor="start" x="28.5" y="-252.8" font-family="Helvetica,sans-Serif" font-size="11.00" fill="#000000">nome</text>
<polygon fill="none" stroke="#000000" points="8.5,-226.7 8.5,-245.7 113.5,-245.7 113.5,-226.7 8.5,-226.7"/>
<text text-anchor="start" x="11.5" y="-232.8" font-family="Helvetica,sans-Serif" font-size="11.00" fill="#000000">...</text>
<polygon fill="#ffffff" stroke="transparent" points="8.5,-207.7 8.5,-226.7 54.5,-226.7 54.5,-207.7 8.5,-207.7"/>
<polygon fill="none" stroke="#000000" points="8.5,-207.7 8.5,-226.7 54.5,-226.7 54.5,-207.7 8.5,-207.7"/>
<text text-anchor="start" x="11.5" y="-213.8" font-family="Helvetica,sans-Serif" font-size="11.00" fill="#000000">&lt; 2</text>
<polygon fill="#ffffff" stroke="transparent" points="54.5,-207.7 54.5,-226.7 79.5,-226.7 79.5,-207.7 54.5,-207.7"/>
<polygon fill="none" stroke="#000000" points="54.5,-207.7 54.5,-226.7 79.5,-226.7 79.5,-207.7 54.5,-207.7"/>
<text text-anchor="start" x="70.3862" y="-213.8" font-family="Helvetica,sans-Serif" font-size="11.00" fill="#000000"> &#160;</text>
<polygon fill="#ffffff" stroke="transparent" points="79.5,-207.7 79.5,-226.7 113.5,-226.7 113.5,-207.7 79.5,-207.7"/>
<polygon fill="none" stroke="#000000" points="79.5,-207.7 79.5,-226.7 113.5,-226.7 113.5,-207.7 79.5,-207.7"/>
<text text-anchor="start" x="94.9053" y="-213.8" font-family="Helvetica,sans-Serif" font-size="11.00" fill="#000000">2 &gt;</text>
</a>
</g>
</g>
<!-- encontros&#45;&gt;grupos -->
<g id="edge2" class="edge">
<title>encontros:w&#45;&gt;grupos:e</title>
<path fill="none" stroke="#000000" d="M150.1154,-253.329C131.4593,-269.5294 147.2515,-322.7 113.5,-322.7"/>
<polygon fill="#000000" stroke="#000000" points="156.4107,-251.2303 165.1386,-252.1152 160.2053,-249.9651 164,-248.7 164,-248.7 164,-248.7 160.2053,-249.9651 162.8614,-245.2848 156.4107,-251.2303 156.4107,-251.2303"/>
<ellipse fill="none" stroke="#000000" cx="153.3749" cy="-252.2424" rx="3.2" ry="3.2"/>
</g>
<!-- turmas -->
<g id="node4" class="node">
<title>turmas</title>
<g id="a_node4"><a xlink:href="../../tables/turmas.html" xlink:title="turmas" target="_top">
<polygon fill="#ffffff" stroke="transparent" points="21,-38.2 21,-187.2 100,-187.2 100,-38.2 21,-38.2"/>
<polygon fill="#f5f5f5" stroke="transparent" points="21.5,-163.7 21.5,-186.7 100.5,-186.7 100.5,-163.7 21.5,-163.7"/>
<polygon fill="none" stroke="#000000" points="21.5,-163.7 21.5,-186.7 100.5,-186.7 100.5,-163.7 21.5,-163.7"/>
<text text-anchor="start" x="26.5" y="-172.3" font-family="Helvetica,sans-Serif" font-weight="bold" font-size="11.00" fill="#000000">turmas</text>
<text text-anchor="start" x="66.0219" y="-171.8" font-family="Helvetica,sans-Serif" font-size="11.00" fill="#000000">[table]</text>
<polygon fill="none" stroke="#000000" points="21.5,-141.7 21.5,-163.7 100.5,-163.7 100.5,-141.7 21.5,-141.7"/>
<image xlink:href="../../images/primaryKeys.png" width="11px" height="12px" preserveAspectRatio="xMinYMin meet" x="26.5" y="-158.7"/>
<text text-anchor="start" x="42.5" y="-148.8" font-family="Helvetica,sans-Serif" font-size="11.00" fill="#000000">id</text>
<polygon fill="none" stroke="#000000" points="21.5,-119.7 21.5,-141.7 100.5,-141.7 100.5,-119.7 21.5,-119.7"/>
<image xlink:href="../../images/foreignKeys.png" width="11px" height="12px" preserveAspectRatio="xMinYMin meet" x="26.5" y="-136.7"/>
<text text-anchor="start" x="42.5" y="-126.8" font-family="Helvetica,sans-Serif" font-size="11.00" fill="#000000">id_curso</text>
<polygon fill="none" stroke="#000000" points="21.5,-97.7 21.5,-119.7 100.5,-119.7 100.5,-97.7 21.5,-97.7"/>
<image xlink:href="../../images/foreignKeys.png" width="11px" height="12px" preserveAspectRatio="xMinYMin meet" x="26.5" y="-114.7"/>
<text text-anchor="start" x="42.5" y="-104.8" font-family="Helvetica,sans-Serif" font-size="11.00" fill="#000000">id_user</text>
<polygon fill="#ffffff" stroke="transparent" points="21.5,-75.7 21.5,-97.7 100.5,-97.7 100.5,-75.7 21.5,-75.7"/>
<polygon fill="none" stroke="#000000" points="21.5,-75.7 21.5,-97.7 100.5,-97.7 100.5,-75.7 21.5,-75.7"/>
<text text-anchor="start" x="42.5" y="-82.8" font-family="Helvetica,sans-Serif" font-size="11.00" fill="#000000">nome</text>
<polygon fill="none" stroke="#000000" points="21.5,-56.7 21.5,-75.7 100.5,-75.7 100.5,-56.7 21.5,-56.7"/>
<text text-anchor="start" x="24.5" y="-62.8" font-family="Helvetica,sans-Serif" font-size="11.00" fill="#000000">...</text>
<polygon fill="#ffffff" stroke="transparent" points="21.5,-37.7 21.5,-56.7 54.5,-56.7 54.5,-37.7 21.5,-37.7"/>
<polygon fill="none" stroke="#000000" points="21.5,-37.7 21.5,-56.7 54.5,-56.7 54.5,-37.7 21.5,-37.7"/>
<text text-anchor="start" x="24.5" y="-43.8" font-family="Helvetica,sans-Serif" font-size="11.00" fill="#000000">&lt; 2</text>
<polygon fill="#ffffff" stroke="transparent" points="54.5,-37.7 54.5,-56.7 72.5,-56.7 72.5,-37.7 54.5,-37.7"/>
<polygon fill="none" stroke="#000000" points="54.5,-37.7 54.5,-56.7 72.5,-56.7 72.5,-37.7 54.5,-37.7"/>
<text text-anchor="start" x="63.3862" y="-43.8" font-family="Helvetica,sans-Serif" font-size="11.00" fill="#000000"> &#160;</text>
<polygon fill="#ffffff" stroke="transparent" points="72.5,-37.7 72.5,-56.7 100.5,-56.7 100.5,-37.7 72.5,-37.7"/>
<polygon fill="none" stroke="#000000" points="72.5,-37.7 72.5,-56.7 100.5,-56.7 100.5,-37.7 72.5,-37.7"/>
<text text-anchor="start" x="81.9053" y="-43.8" font-family="Helvetica,sans-Serif" font-size="11.00" fill="#000000">2 &gt;</text>
</a>
</g>
</g>
<!-- encontros&#45;&gt;turmas -->
<g id="edge3" class="edge">
<title>encontros:w&#45;&gt;turmas:e</title>
<path fill="none" stroke="#000000" d="M149.9407,-223.1308C125.6449,-208.349 138.0821,-152.7 100.5,-152.7"/>
<polygon fill="#000000" stroke="#000000" points="156.246,-224.7315 163.1142,-230.1893 160.123,-225.7157 164,-226.7 164,-226.7 164,-226.7 160.123,-225.7157 164.8858,-223.2107 156.246,-224.7315 156.246,-224.7315"/>
<ellipse fill="none" stroke="#000000" cx="153.1443" cy="-223.9441" rx="3.2" ry="3.2"/>
</g>
<!-- mensagens -->
<g id="node5" class="node">
<title>mensagens</title>
<g id="a_node5"><a xlink:href="../../tables/mensagens.html" xlink:title="mensagens" target="_top">
<polygon fill="#ffffff" stroke="transparent" points="370,-115.2 370,-242.2 475,-242.2 475,-115.2 370,-115.2"/>
<polygon fill="#f5f5f5" stroke="transparent" points="370.5,-218.7 370.5,-241.7 475.5,-241.7 475.5,-218.7 370.5,-218.7"/>
<polygon fill="none" stroke="#000000" points="370.5,-218.7 370.5,-241.7 475.5,-241.7 475.5,-218.7 370.5,-218.7"/>
<text text-anchor="start" x="375.5" y="-227.3" font-family="Helvetica,sans-Serif" font-weight="bold" font-size="11.00" fill="#000000">mensagens</text>
<text text-anchor="start" x="441.0219" y="-226.8" font-family="Helvetica,sans-Serif" font-size="11.00" fill="#000000">[table]</text>
<polygon fill="none" stroke="#000000" points="370.5,-196.7 370.5,-218.7 475.5,-218.7 475.5,-196.7 370.5,-196.7"/>
<image xlink:href="../../images/primaryKeys.png" width="11px" height="12px" preserveAspectRatio="xMinYMin meet" x="375.5" y="-213.7"/>
<text text-anchor="start" x="398.5" y="-203.8" font-family="Helvetica,sans-Serif" font-size="11.00" fill="#000000">id</text>
<polygon fill="none" stroke="#000000" points="370.5,-174.7 370.5,-196.7 475.5,-196.7 475.5,-174.7 370.5,-174.7"/>
<image xlink:href="../../images/foreignKeys.png" width="11px" height="12px" preserveAspectRatio="xMinYMin meet" x="375.5" y="-191.7"/>
<text text-anchor="start" x="398.5" y="-181.8" font-family="Helvetica,sans-Serif" font-size="11.00" fill="#000000">id_encontro</text>
<polygon fill="none" stroke="#000000" points="370.5,-152.7 370.5,-174.7 475.5,-174.7 475.5,-152.7 370.5,-152.7"/>
<image xlink:href="../../images/foreignKeys.png" width="11px" height="12px" preserveAspectRatio="xMinYMin meet" x="375.5" y="-169.7"/>
<text text-anchor="start" x="398.5" y="-159.8" font-family="Helvetica,sans-Serif" font-size="11.00" fill="#000000">id_user</text>
<polygon fill="none" stroke="#000000" points="370.5,-133.7 370.5,-152.7 475.5,-152.7 475.5,-133.7 370.5,-133.7"/>
<text text-anchor="start" x="373.5" y="-139.8" font-family="Helvetica,sans-Serif" font-size="11.00" fill="#000000">...</text>
<polygon fill="#ffffff" stroke="transparent" points="370.5,-114.7 370.5,-133.7 421.5,-133.7 421.5,-114.7 370.5,-114.7"/>
<polygon fill="none" stroke="#000000" points="370.5,-114.7 370.5,-133.7 421.5,-133.7 421.5,-114.7 370.5,-114.7"/>
<text text-anchor="start" x="373.5" y="-120.8" font-family="Helvetica,sans-Serif" font-size="11.00" fill="#000000">&lt; 2</text>
<polygon fill="#ffffff" stroke="transparent" points="421.5,-114.7 421.5,-133.7 448.5,-133.7 448.5,-114.7 421.5,-114.7"/>
<polygon fill="none" stroke="#000000" points="421.5,-114.7 421.5,-133.7 448.5,-133.7 448.5,-114.7 421.5,-114.7"/>
<text text-anchor="start" x="439.3862" y="-120.8" font-family="Helvetica,sans-Serif" font-size="11.00" fill="#000000"> &#160;</text>
<polygon fill="#ffffff" stroke="transparent" points="448.5,-114.7 448.5,-133.7 475.5,-133.7 475.5,-114.7 448.5,-114.7"/>
<polygon fill="none" stroke="#000000" points="448.5,-114.7 448.5,-133.7 475.5,-133.7 475.5,-114.7 448.5,-114.7"/>
<text text-anchor="start" x="466.3862" y="-120.8" font-family="Helvetica,sans-Serif" font-size="11.00" fill="#000000"> &#160;</text>
</a>
</g>
</g>
<!-- mensagens&#45;&gt;encontros -->
<g id="edge4" class="edge">
<title>mensagens:w&#45;&gt;encontros:e</title>
<path fill="none" stroke="#000000" d="M356.489,-189.3523C330.9617,-205.6219 350.5737,-270.7 310,-270.7"/>
<polygon fill="#000000" stroke="#000000" points="362.7587,-187.718 371.4081,-189.1836 366.6293,-186.709 370.5,-185.7 370.5,-185.7 370.5,-185.7 366.6293,-186.709 369.5919,-182.2164 362.7587,-187.718 362.7587,-187.718"/>
<ellipse fill="none" stroke="#000000" cx="359.6622" cy="-188.5252" rx="3.2" ry="3.2"/>
</g>
</g>
</svg>
