<?xml version="1.0" encoding="UTF-8" standalone="no"?>
<!DOCTYPE svg PUBLIC "-//W3C//DTD SVG 1.1//EN"
 "http://www.w3.org/Graphics/SVG/1.1/DTD/svg11.dtd">
<!-- Generated by graphviz version 2.40.1 (20161225.0304)
 -->
<!-- Title: twoDegreesRelationshipsDiagram Pages: 1 -->
<svg width="745pt" height="581pt"
 viewBox="0.00 0.00 745.00 581.20" xmlns="http://www.w3.org/2000/svg" xmlns:xlink="http://www.w3.org/1999/xlink">
<g id="graph0" class="graph" transform="scale(1 1) rotate(0) translate(4 577.2)">
<title>twoDegreesRelationshipsDiagram</title>
<polygon fill="#ffffff" stroke="transparent" points="-4,4 -4,-577.2 741,-577.2 741,4 -4,4"/>
<text text-anchor="middle" x="72.4936" y="-7.3" font-family="Helvetica,sans-Serif" font-size="11.00" fill="#000000">Generated by SchemaSpy</text>
<!-- agendamentos -->
<g id="node1" class="node">
<title>agendamentos</title>
<g id="a_node1"><a xlink:href="../../tables/agendamentos.html" xlink:title="agendamentos" target="_top">
<polygon fill="#ffffff" stroke="transparent" points="606,-189.2 606,-316.2 729,-316.2 729,-189.2 606,-189.2"/>
<polygon fill="#f5f5f5" stroke="transparent" points="606.5,-292.7 606.5,-315.7 729.5,-315.7 729.5,-292.7 606.5,-292.7"/>
<polygon fill="none" stroke="#000000" points="606.5,-292.7 606.5,-315.7 729.5,-315.7 729.5,-292.7 606.5,-292.7"/>
<text text-anchor="start" x="611.5" y="-301.3" font-family="Helvetica,sans-Serif" font-weight="bold" font-size="11.00" fill="#000000">agendamentos</text>
<text text-anchor="start" x="695.0219" y="-300.8" font-family="Helvetica,sans-Serif" font-size="11.00" fill="#000000">[table]</text>
<polygon fill="none" stroke="#000000" points="606.5,-270.7 606.5,-292.7 729.5,-292.7 729.5,-270.7 606.5,-270.7"/>
<image xlink:href="../../images/primaryKeys.png" width="11px" height="12px" preserveAspectRatio="xMinYMin meet" x="611.5" y="-287.7"/>
<text text-anchor="start" x="635.5" y="-277.8" font-family="Helvetica,sans-Serif" font-size="11.00" fill="#000000">id</text>
<polygon fill="none" stroke="#000000" points="606.5,-248.7 606.5,-270.7 729.5,-270.7 729.5,-248.7 606.5,-248.7"/>
<image xlink:href="../../images/foreignKeys.png" width="11px" height="12px" preserveAspectRatio="xMinYMin meet" x="611.5" y="-265.7"/>
<text text-anchor="start" x="635.5" y="-255.8" font-family="Helvetica,sans-Serif" font-size="11.00" fill="#000000">encontro_id</text>
<polygon fill="none" stroke="#000000" points="606.5,-226.7 606.5,-248.7 729.5,-248.7 729.5,-226.7 606.5,-226.7"/>
<image xlink:href="../../images/foreignKeys.png" width="11px" height="12px" preserveAspectRatio="xMinYMin meet" x="611.5" y="-243.7"/>
<text text-anchor="start" x="635.5" y="-233.8" font-family="Helvetica,sans-Serif" font-size="11.00" fill="#000000">local_id</text>
<polygon fill="none" stroke="#000000" points="606.5,-207.7 606.5,-226.7 729.5,-226.7 729.5,-207.7 606.5,-207.7"/>
<text text-anchor="start" x="609.5" y="-213.8" font-family="Helvetica,sans-Serif" font-size="11.00" fill="#000000">...</text>
<polygon fill="#ffffff" stroke="transparent" points="606.5,-188.7 606.5,-207.7 666.5,-207.7 666.5,-188.7 606.5,-188.7"/>
<polygon fill="none" stroke="#000000" points="606.5,-188.7 606.5,-207.7 666.5,-207.7 666.5,-188.7 606.5,-188.7"/>
<text text-anchor="start" x="609.5" y="-194.8" font-family="Helvetica,sans-Serif" font-size="11.00" fill="#000000">&lt; 2</text>
<polygon fill="#ffffff" stroke="transparent" points="666.5,-188.7 666.5,-207.7 697.5,-207.7 697.5,-188.7 666.5,-188.7"/>
<polygon fill="none" stroke="#000000" points="666.5,-188.7 666.5,-207.7 697.5,-207.7 697.5,-188.7 666.5,-188.7"/>
<text text-anchor="start" x="688.3862" y="-194.8" font-family="Helvetica,sans-Serif" font-size="11.00" fill="#000000"> &#160;</text>
<polygon fill="#ffffff" stroke="transparent" points="697.5,-188.7 697.5,-207.7 729.5,-207.7 729.5,-188.7 697.5,-188.7"/>
<polygon fill="none" stroke="#000000" points="697.5,-188.7 697.5,-207.7 729.5,-207.7 729.5,-188.7 697.5,-188.7"/>
<text text-anchor="start" x="720.3862" y="-194.8" font-family="Helvetica,sans-Serif" font-size="11.00" fill="#000000"> &#160;</text>
</a>
</g>
</g>
<!-- encontro -->
<g id="node2" class="node">
<title>encontro</title>
<g id="a_node2"><a xlink:href="../../tables/encontro.html" xlink:title="encontro" target="_top">
<polygon fill="#ffffff" stroke="transparent" points="380,-202.7 380,-468.7 557,-468.7 557,-202.7 380,-202.7"/>
<polygon fill="#f5f5f5" stroke="transparent" points="382.5,-443.7 382.5,-466.7 555.5,-466.7 555.5,-443.7 382.5,-443.7"/>
<polygon fill="none" stroke="#000000" points="382.5,-443.7 382.5,-466.7 555.5,-466.7 555.5,-443.7 382.5,-443.7"/>
<text text-anchor="start" x="387.5" y="-452.3" font-family="Helvetica,sans-Serif" font-weight="bold" font-size="11.00" fill="#000000">encontro</text>
<text text-anchor="start" x="520.5437" y="-451.8" font-family="Helvetica,sans-Serif" font-size="11.00" fill="#000000">[table]</text>
<polygon fill="none" stroke="#000000" points="382.5,-421.7 382.5,-443.7 471.5,-443.7 471.5,-421.7 382.5,-421.7"/>
<image xlink:href="../../images/primaryKeys.png" width="11px" height="12px" preserveAspectRatio="xMinYMin meet" x="387.5" y="-438.7"/>
<text text-anchor="start" x="402.5" y="-428.8" font-family="Helvetica,sans-Serif" font-size="11.00" fill="#000000">id</text>
<polygon fill="none" stroke="#000000" points="471.5,-421.7 471.5,-443.7 555.5,-443.7 555.5,-421.7 471.5,-421.7"/>
<text text-anchor="start" x="474.5" y="-429.4" font-family="Helvetica,sans-Serif" font-size="11.00" fill="#000000">serial[10]</text>
<polygon fill="none" stroke="#000000" points="382.5,-399.7 382.5,-421.7 471.5,-421.7 471.5,-399.7 382.5,-399.7"/>
<text text-anchor="start" x="402.5" y="-406.8" font-family="Helvetica,sans-Serif" font-size="11.00" fill="#000000">descricao</text>
<polygon fill="none" stroke="#000000" points="471.5,-399.7 471.5,-421.7 555.5,-421.7 555.5,-399.7 471.5,-399.7"/>
<text text-anchor="start" x="474.5" y="-407.4" font-family="Helvetica,sans-Serif" font-size="11.00" fill="#000000">varchar[255]</text>
<polygon fill="none" stroke="#000000" points="382.5,-377.7 382.5,-399.7 471.5,-399.7 471.5,-377.7 382.5,-377.7"/>
<text text-anchor="start" x="402.5" y="-384.8" font-family="Helvetica,sans-Serif" font-size="11.00" fill="#000000">tema</text>
<polygon fill="none" stroke="#000000" points="471.5,-377.7 471.5,-399.7 555.5,-399.7 555.5,-377.7 471.5,-377.7"/>
<text text-anchor="start" x="474.5" y="-385.4" font-family="Helvetica,sans-Serif" font-size="11.00" fill="#000000">varchar[100]</text>
<polygon fill="none" stroke="#000000" points="382.5,-355.7 382.5,-377.7 471.5,-377.7 471.5,-355.7 382.5,-355.7"/>
<text text-anchor="start" x="402.5" y="-362.8" font-family="Helvetica,sans-Serif" font-size="11.00" fill="#000000">data</text>
<polygon fill="none" stroke="#000000" points="471.5,-355.7 471.5,-377.7 555.5,-377.7 555.5,-355.7 471.5,-355.7"/>
<text text-anchor="start" x="474.3807" y="-363.4" font-family="Helvetica,sans-Serif" font-size="11.00" fill="#000000">timestamp[29,6]</text>
<polygon fill="none" stroke="#000000" points="382.5,-333.7 382.5,-355.7 471.5,-355.7 471.5,-333.7 382.5,-333.7"/>
<text text-anchor="start" x="402.5" y="-340.8" font-family="Helvetica,sans-Serif" font-size="11.00" fill="#000000">pdf_base64</text>
<polygon fill="none" stroke="#000000" points="471.5,-333.7 471.5,-355.7 555.5,-355.7 555.5,-333.7 471.5,-333.7"/>
<text text-anchor="start" x="474.5" y="-341.4" font-family="Helvetica,sans-Serif" font-size="11.00" fill="#000000">varchar[255]</text>
<polygon fill="none" stroke="#000000" points="382.5,-311.7 382.5,-333.7 471.5,-333.7 471.5,-311.7 382.5,-311.7"/>
<text text-anchor="start" x="402.5" y="-318.8" font-family="Helvetica,sans-Serif" font-size="11.00" fill="#000000">texto</text>
<polygon fill="none" stroke="#000000" points="471.5,-311.7 471.5,-333.7 555.5,-333.7 555.5,-311.7 471.5,-311.7"/>
<text text-anchor="start" x="474.5" y="-319.4" font-family="Helvetica,sans-Serif" font-size="11.00" fill="#000000">varchar[255]</text>
<polygon fill="none" stroke="#000000" points="382.5,-289.7 382.5,-311.7 471.5,-311.7 471.5,-289.7 382.5,-289.7"/>
<image xlink:href="../../images/foreignKeys.png" width="11px" height="12px" preserveAspectRatio="xMinYMin meet" x="387.5" y="-306.7"/>
<text text-anchor="start" x="402.5" y="-296.8" font-family="Helvetica,sans-Serif" font-size="11.00" fill="#000000">id_grupo</text>
<polygon fill="none" stroke="#000000" points="471.5,-289.7 471.5,-311.7 555.5,-311.7 555.5,-289.7 471.5,-289.7"/>
<text text-anchor="start" x="474.5" y="-297.4" font-family="Helvetica,sans-Serif" font-size="11.00" fill="#000000">int4[10]</text>
<polygon fill="none" stroke="#000000" points="382.5,-267.7 382.5,-289.7 471.5,-289.7 471.5,-267.7 382.5,-267.7"/>
<image xlink:href="../../images/foreignKeys.png" width="11px" height="12px" preserveAspectRatio="xMinYMin meet" x="387.5" y="-284.7"/>
<text text-anchor="start" x="402.5" y="-274.8" font-family="Helvetica,sans-Serif" font-size="11.00" fill="#000000">id_turma</text>
<polygon fill="none" stroke="#000000" points="471.5,-267.7 471.5,-289.7 555.5,-289.7 555.5,-267.7 471.5,-267.7"/>
<text text-anchor="start" x="474.5" y="-275.4" font-family="Helvetica,sans-Serif" font-size="11.00" fill="#000000">int4[10]</text>
<polygon fill="none" stroke="#000000" points="382.5,-245.7 382.5,-267.7 471.5,-267.7 471.5,-245.7 382.5,-245.7"/>
<image xlink:href="../../images/foreignKeys.png" width="11px" height="12px" preserveAspectRatio="xMinYMin meet" x="387.5" y="-262.7"/>
<text text-anchor="start" x="402.5" y="-252.8" font-family="Helvetica,sans-Serif" font-size="11.00" fill="#000000">id_encontro</text>
<polygon fill="none" stroke="#000000" points="471.5,-245.7 471.5,-267.7 555.5,-267.7 555.5,-245.7 471.5,-245.7"/>
<text text-anchor="start" x="474.5" y="-253.4" font-family="Helvetica,sans-Serif" font-size="11.00" fill="#000000">int4[10]</text>
<polygon fill="none" stroke="#000000" points="382.5,-223.7 382.5,-245.7 471.5,-245.7 471.5,-223.7 382.5,-223.7"/>
<image xlink:href="../../images/foreignKeys.png" width="11px" height="12px" preserveAspectRatio="xMinYMin meet" x="387.5" y="-240.7"/>
<text text-anchor="start" x="402.5" y="-230.8" font-family="Helvetica,sans-Serif" font-size="11.00" fill="#000000">id_user</text>
<polygon fill="none" stroke="#000000" points="471.5,-223.7 471.5,-245.7 555.5,-245.7 555.5,-223.7 471.5,-223.7"/>
<text text-anchor="start" x="474.5" y="-231.4" font-family="Helvetica,sans-Serif" font-size="11.00" fill="#000000">int4[10]</text>
<polygon fill="#ffffff" stroke="transparent" points="382.5,-204.7 382.5,-223.7 431.5,-223.7 431.5,-204.7 382.5,-204.7"/>
<polygon fill="none" stroke="#000000" points="382.5,-204.7 382.5,-223.7 431.5,-223.7 431.5,-204.7 382.5,-204.7"/>
<text text-anchor="start" x="385.5" y="-210.8" font-family="Helvetica,sans-Serif" font-size="11.00" fill="#000000">&lt; 4</text>
<polygon fill="#ffffff" stroke="transparent" points="431.5,-204.7 431.5,-223.7 471.5,-223.7 471.5,-204.7 431.5,-204.7"/>
<polygon fill="none" stroke="#000000" points="431.5,-204.7 431.5,-223.7 471.5,-223.7 471.5,-204.7 431.5,-204.7"/>
<text text-anchor="start" x="462.3862" y="-210.8" font-family="Helvetica,sans-Serif" font-size="11.00" fill="#000000"> &#160;</text>
<polygon fill="#ffffff" stroke="transparent" points="471.5,-204.7 471.5,-223.7 555.5,-223.7 555.5,-204.7 471.5,-204.7"/>
<polygon fill="none" stroke="#000000" points="471.5,-204.7 471.5,-223.7 555.5,-223.7 555.5,-204.7 471.5,-204.7"/>
<text text-anchor="start" x="536.9053" y="-210.8" font-family="Helvetica,sans-Serif" font-size="11.00" fill="#000000">2 &gt;</text>
<polygon fill="none" stroke="#000000" stroke-width="2" points="381,-203.7 381,-467.7 556,-467.7 556,-203.7 381,-203.7"/>
</a>
</g>
</g>
<!-- agendamentos&#45;&gt;encontro -->
<g id="edge1" class="edge">
<title>agendamentos:w&#45;&gt;encontro:e</title>
<path fill="none" stroke="#000000" d="M592.2697,-262.1456C540.7761,-283.1728 630.0241,-432.7 555.5,-432.7"/>
<polygon fill="#000000" stroke="#000000" points="598.6156,-261.055 607.1098,-263.248 602.5578,-260.3775 606.5,-259.7 606.5,-259.7 606.5,-259.7 602.5578,-260.3775 605.8902,-256.152 598.6156,-261.055 598.6156,-261.055"/>
<ellipse fill="none" stroke="#000000" cx="595.4618" cy="-261.5971" rx="3.2" ry="3.2"/>
</g>
<!-- locais -->
<g id="node3" class="node">
<title>locais</title>
<g id="a_node3"><a xlink:href="../../tables/locais.html" xlink:title="locais" target="_top">
<polygon fill="#ffffff" stroke="transparent" points="432,-38.2 432,-99.2 505,-99.2 505,-38.2 432,-38.2"/>
<polygon fill="#f5f5f5" stroke="transparent" points="432.5,-75.7 432.5,-98.7 505.5,-98.7 505.5,-75.7 432.5,-75.7"/>
<polygon fill="none" stroke="#000000" points="432.5,-75.7 432.5,-98.7 505.5,-98.7 505.5,-75.7 432.5,-75.7"/>
<text text-anchor="start" x="437.5" y="-84.3" font-family="Helvetica,sans-Serif" font-weight="bold" font-size="11.00" fill="#000000">locais</text>
<text text-anchor="start" x="471.0219" y="-83.8" font-family="Helvetica,sans-Serif" font-size="11.00" fill="#000000">[table]</text>
<polygon fill="none" stroke="#000000" points="432.5,-56.7 432.5,-75.7 505.5,-75.7 505.5,-56.7 432.5,-56.7"/>
<text text-anchor="start" x="435.5" y="-62.8" font-family="Helvetica,sans-Serif" font-size="11.00" fill="#000000">...</text>
<polygon fill="#ffffff" stroke="transparent" points="432.5,-37.7 432.5,-56.7 458.5,-56.7 458.5,-37.7 432.5,-37.7"/>
<polygon fill="none" stroke="#000000" points="432.5,-37.7 432.5,-56.7 458.5,-56.7 458.5,-37.7 432.5,-37.7"/>
<text text-anchor="start" x="435.5" y="-43.8" font-family="Helvetica,sans-Serif" font-size="11.00" fill="#000000"> &#160;</text>
<polygon fill="#ffffff" stroke="transparent" points="458.5,-37.7 458.5,-56.7 477.5,-56.7 477.5,-37.7 458.5,-37.7"/>
<polygon fill="none" stroke="#000000" points="458.5,-37.7 458.5,-56.7 477.5,-56.7 477.5,-37.7 458.5,-37.7"/>
<text text-anchor="start" x="468.3862" y="-43.8" font-family="Helvetica,sans-Serif" font-size="11.00" fill="#000000"> &#160;</text>
<polygon fill="#ffffff" stroke="transparent" points="477.5,-37.7 477.5,-56.7 505.5,-56.7 505.5,-37.7 477.5,-37.7"/>
<polygon fill="none" stroke="#000000" points="477.5,-37.7 477.5,-56.7 505.5,-56.7 505.5,-37.7 477.5,-37.7"/>
<text text-anchor="start" x="486.9053" y="-43.8" font-family="Helvetica,sans-Serif" font-size="11.00" fill="#000000">1 &gt;</text>
</a>
</g>
</g>
<!-- agendamentos&#45;&gt;locais -->
<g id="edge2" class="edge">
<title>agendamentos:w&#45;&gt;locais:e</title>
<path fill="none" stroke="#000000" d="M592.026,-235.5295C556.2527,-222.4756 596.5211,-153.501 565,-109.7 545.7887,-83.0044 538.3896,-65.7 505.5,-65.7"/>
<polygon fill="#000000" stroke="#000000" points="598.5885,-236.5135 605.9661,-241.2602 602.5442,-237.1068 606.5,-237.7 606.5,-237.7 606.5,-237.7 602.5442,-237.1068 607.0339,-234.1398 598.5885,-236.5135 598.5885,-236.5135"/>
<ellipse fill="none" stroke="#000000" cx="595.4238" cy="-236.0389" rx="3.2" ry="3.2"/>
</g>
<!-- encontro&#45;&gt;encontro -->
<g id="edge3" class="edge">
<title>encontro:w&#45;&gt;encontro:e</title>
<path fill="none" stroke="#000000" d="M374.3121,-268.664C340.1052,-330.3362 348.3525,-485.7 469,-485.7 598.5,-485.7 598.5,-477.0333 555.5,-432.7"/>
<polygon fill="#000000" stroke="#000000" points="377.9817,-263.3019 385.4709,-258.7332 380.2409,-260.001 382.5,-256.7 382.5,-256.7 382.5,-256.7 380.2409,-260.001 379.5291,-254.6668 377.9817,-263.3019 377.9817,-263.3019"/>
<ellipse fill="none" stroke="#000000" cx="376.1744" cy="-265.9427" rx="3.2" ry="3.2"/>
</g>
<!-- grupo -->
<g id="node4" class="node">
<title>grupo</title>
<g id="a_node4"><a xlink:href="../../tables/grupo.html" xlink:title="grupo" target="_top">
<polygon fill="#ffffff" stroke="transparent" points="259,-364.2 259,-425.2 331,-425.2 331,-364.2 259,-364.2"/>
<polygon fill="#f5f5f5" stroke="transparent" points="259,-401.7 259,-424.7 331,-424.7 331,-401.7 259,-401.7"/>
<polygon fill="none" stroke="#000000" points="259,-401.7 259,-424.7 331,-424.7 331,-401.7 259,-401.7"/>
<text text-anchor="start" x="264" y="-410.3" font-family="Helvetica,sans-Serif" font-weight="bold" font-size="11.00" fill="#000000">grupo</text>
<text text-anchor="start" x="296.5219" y="-409.8" font-family="Helvetica,sans-Serif" font-size="11.00" fill="#000000">[table]</text>
<polygon fill="none" stroke="#000000" points="259,-382.7 259,-401.7 331,-401.7 331,-382.7 259,-382.7"/>
<text text-anchor="start" x="262" y="-388.8" font-family="Helvetica,sans-Serif" font-size="11.00" fill="#000000">...</text>
<polygon fill="#ffffff" stroke="transparent" points="259,-363.7 259,-382.7 289,-382.7 289,-363.7 259,-363.7"/>
<polygon fill="none" stroke="#000000" points="259,-363.7 259,-382.7 289,-382.7 289,-363.7 259,-363.7"/>
<text text-anchor="start" x="262" y="-369.8" font-family="Helvetica,sans-Serif" font-size="11.00" fill="#000000">&lt; 2</text>
<polygon fill="#ffffff" stroke="transparent" points="289,-363.7 289,-382.7 305,-382.7 305,-363.7 289,-363.7"/>
<polygon fill="none" stroke="#000000" points="289,-363.7 289,-382.7 305,-382.7 305,-363.7 289,-363.7"/>
<text text-anchor="start" x="295.8862" y="-369.8" font-family="Helvetica,sans-Serif" font-size="11.00" fill="#000000"> &#160;</text>
<polygon fill="#ffffff" stroke="transparent" points="305,-363.7 305,-382.7 331,-382.7 331,-363.7 305,-363.7"/>
<polygon fill="none" stroke="#000000" points="305,-363.7 305,-382.7 331,-382.7 331,-363.7 305,-363.7"/>
<text text-anchor="start" x="312.4053" y="-369.8" font-family="Helvetica,sans-Serif" font-size="11.00" fill="#000000">2 &gt;</text>
</a>
</g>
</g>
<!-- encontro&#45;&gt;grupo -->
<g id="edge4" class="edge">
<title>encontro:w&#45;&gt;grupo:e</title>
<path fill="none" stroke="#000000" d="M368.1103,-304.1808C354.025,-312.853 355.6232,-335.9978 339,-353.7 336.9987,-355.8312 334.9088,-357.9867 332.7737,-360.1356"/>
<polygon fill="#000000" stroke="#000000" points="374.7243,-302.5809 383.3464,-304.1991 378.6121,-301.6405 382.5,-300.7 382.5,-300.7 382.5,-300.7 378.6121,-301.6405 381.6536,-297.2009 374.7243,-302.5809 374.7243,-302.5809"/>
<ellipse fill="none" stroke="#000000" cx="371.614" cy="-303.3333" rx="3.2" ry="3.2"/>
</g>
<!-- turma -->
<g id="node5" class="node">
<title>turma</title>
<g id="a_node5"><a xlink:href="../../tables/turma.html" xlink:title="turma" target="_top">
<polygon fill="#ffffff" stroke="transparent" points="259,-172.2 259,-233.2 331,-233.2 331,-172.2 259,-172.2"/>
<polygon fill="#f5f5f5" stroke="transparent" points="259,-209.7 259,-232.7 331,-232.7 331,-209.7 259,-209.7"/>
<polygon fill="none" stroke="#000000" points="259,-209.7 259,-232.7 331,-232.7 331,-209.7 259,-209.7"/>
<text text-anchor="start" x="264" y="-218.3" font-family="Helvetica,sans-Serif" font-weight="bold" font-size="11.00" fill="#000000">turma</text>
<text text-anchor="start" x="296.5219" y="-217.8" font-family="Helvetica,sans-Serif" font-size="11.00" fill="#000000">[table]</text>
<polygon fill="none" stroke="#000000" points="259,-190.7 259,-209.7 331,-209.7 331,-190.7 259,-190.7"/>
<text text-anchor="start" x="262" y="-196.8" font-family="Helvetica,sans-Serif" font-size="11.00" fill="#000000">...</text>
<polygon fill="#ffffff" stroke="transparent" points="259,-171.7 259,-190.7 289,-190.7 289,-171.7 259,-171.7"/>
<polygon fill="none" stroke="#000000" points="259,-171.7 259,-190.7 289,-190.7 289,-171.7 259,-171.7"/>
<text text-anchor="start" x="262" y="-177.8" font-family="Helvetica,sans-Serif" font-size="11.00" fill="#000000">&lt; 2</text>
<polygon fill="#ffffff" stroke="transparent" points="289,-171.7 289,-190.7 305,-190.7 305,-171.7 289,-171.7"/>
<polygon fill="none" stroke="#000000" points="289,-171.7 289,-190.7 305,-190.7 305,-171.7 289,-171.7"/>
<text text-anchor="start" x="295.8862" y="-177.8" font-family="Helvetica,sans-Serif" font-size="11.00" fill="#000000"> &#160;</text>
<polygon fill="#ffffff" stroke="transparent" points="305,-171.7 305,-190.7 331,-190.7 331,-171.7 305,-171.7"/>
<polygon fill="none" stroke="#000000" points="305,-171.7 305,-190.7 331,-190.7 331,-171.7 305,-171.7"/>
<text text-anchor="start" x="312.4053" y="-177.8" font-family="Helvetica,sans-Serif" font-size="11.00" fill="#000000">2 &gt;</text>
</a>
</g>
</g>
<!-- encontro&#45;&gt;turma -->
<g id="edge5" class="edge">
<title>encontro:w&#45;&gt;turma:e</title>
<path fill="none" stroke="#000000" d="M369.84,-271.832C359.2106,-263.9823 344.3175,-250.5411 330.6134,-237.5859"/>
<polygon fill="#000000" stroke="#000000" points="375.4681,-274.8852 380.7833,-281.8644 378.9841,-276.7926 382.5,-278.7 382.5,-278.7 382.5,-278.7 378.9841,-276.7926 384.2167,-275.5356 375.4681,-274.8852 375.4681,-274.8852"/>
<ellipse fill="none" stroke="#000000" cx="372.6553" cy="-273.3593" rx="3.2" ry="3.2"/>
</g>
<!-- usuario -->
<g id="node6" class="node">
<title>usuario</title>
<g id="a_node6"><a xlink:href="../../tables/usuario.html" xlink:title="usuario" target="_top">
<polygon fill="#ffffff" stroke="transparent" points="128,-247.2 128,-308.2 210,-308.2 210,-247.2 128,-247.2"/>
<polygon fill="#f5f5f5" stroke="transparent" points="128,-284.7 128,-307.7 210,-307.7 210,-284.7 128,-284.7"/>
<polygon fill="none" stroke="#000000" points="128,-284.7 128,-307.7 210,-307.7 210,-284.7 128,-284.7"/>
<text text-anchor="start" x="133" y="-293.3" font-family="Helvetica,sans-Serif" font-weight="bold" font-size="11.00" fill="#000000">usuario</text>
<text text-anchor="start" x="175.5219" y="-292.8" font-family="Helvetica,sans-Serif" font-size="11.00" fill="#000000">[table]</text>
<polygon fill="none" stroke="#000000" points="128,-265.7 128,-284.7 210,-284.7 210,-265.7 128,-265.7"/>
<text text-anchor="start" x="131" y="-271.8" font-family="Helvetica,sans-Serif" font-size="11.00" fill="#000000">...</text>
<polygon fill="#ffffff" stroke="transparent" points="128,-246.7 128,-265.7 163,-265.7 163,-246.7 128,-246.7"/>
<polygon fill="none" stroke="#000000" points="128,-246.7 128,-265.7 163,-265.7 163,-246.7 128,-246.7"/>
<text text-anchor="start" x="131" y="-252.8" font-family="Helvetica,sans-Serif" font-size="11.00" fill="#000000">&lt; 1</text>
<polygon fill="#ffffff" stroke="transparent" points="163,-246.7 163,-265.7 182,-265.7 182,-246.7 163,-246.7"/>
<polygon fill="none" stroke="#000000" points="163,-246.7 163,-265.7 182,-265.7 182,-246.7 163,-246.7"/>
<text text-anchor="start" x="172.8862" y="-252.8" font-family="Helvetica,sans-Serif" font-size="11.00" fill="#000000"> &#160;</text>
<polygon fill="#ffffff" stroke="transparent" points="182,-246.7 182,-265.7 210,-265.7 210,-246.7 182,-246.7"/>
<polygon fill="none" stroke="#000000" points="182,-246.7 182,-265.7 210,-265.7 210,-246.7 182,-246.7"/>
<text text-anchor="start" x="191.4053" y="-252.8" font-family="Helvetica,sans-Serif" font-size="11.00" fill="#000000">6 &gt;</text>
</a>
</g>
</g>
<!-- encontro&#45;&gt;usuario -->
<g id="edge6" class="edge">
<title>encontro:w&#45;&gt;usuario:e</title>
<path fill="none" stroke="#000000" d="M367.8677,-235.9352C358.6829,-237.6812 352.4518,-240.9633 339,-243.7 298.298,-251.9807 252.0778,-261.2137 218.1163,-267.9661"/>
<polygon fill="#000000" stroke="#000000" points="374.5284,-235.373 382.8028,-238.2872 378.5142,-235.0365 382.5,-234.7 382.5,-234.7 382.5,-234.7 378.5142,-235.0365 382.1972,-231.1128 374.5284,-235.373 374.5284,-235.373"/>
<ellipse fill="none" stroke="#000000" cx="371.3397" cy="-235.6422" rx="3.2" ry="3.2"/>
</g>
<!-- grupo&#45;&gt;usuario -->
<g id="edge8" class="edge">
<title>grupo:w&#45;&gt;usuario:e</title>
<path fill="none" stroke="#000000" d="M246.6399,-349.7942C233.3425,-337.4466 219.124,-324.2437 206.5362,-312.5551"/>
<polygon fill="#000000" stroke="#000000" points="251.6746,-354.4693 255.0874,-362.551 254.6058,-357.1911 257.537,-359.9129 257.537,-359.9129 257.537,-359.9129 254.6058,-357.1911 259.9866,-357.2749 251.6746,-354.4693 251.6746,-354.4693"/>
<ellipse fill="none" stroke="#000000" cx="249.3297" cy="-352.2918" rx="3.2" ry="3.2"/>
</g>
<!-- curso -->
<g id="node7" class="node">
<title>curso</title>
<g id="a_node7"><a xlink:href="../../tables/curso.html" xlink:title="curso" target="_top">
<polygon fill="#ffffff" stroke="transparent" points="8,-250.2 8,-311.2 79,-311.2 79,-250.2 8,-250.2"/>
<polygon fill="#f5f5f5" stroke="transparent" points="8.5,-287.7 8.5,-310.7 79.5,-310.7 79.5,-287.7 8.5,-287.7"/>
<polygon fill="none" stroke="#000000" points="8.5,-287.7 8.5,-310.7 79.5,-310.7 79.5,-287.7 8.5,-287.7"/>
<text text-anchor="start" x="13.5" y="-296.3" font-family="Helvetica,sans-Serif" font-weight="bold" font-size="11.00" fill="#000000">curso</text>
<text text-anchor="start" x="45.0219" y="-295.8" font-family="Helvetica,sans-Serif" font-size="11.00" fill="#000000">[table]</text>
<polygon fill="none" stroke="#000000" points="8.5,-268.7 8.5,-287.7 79.5,-287.7 79.5,-268.7 8.5,-268.7"/>
<text text-anchor="start" x="11.5" y="-274.8" font-family="Helvetica,sans-Serif" font-size="11.00" fill="#000000">...</text>
<polygon fill="#ffffff" stroke="transparent" points="8.5,-249.7 8.5,-268.7 33.5,-268.7 33.5,-249.7 8.5,-249.7"/>
<polygon fill="none" stroke="#000000" points="8.5,-249.7 8.5,-268.7 33.5,-268.7 33.5,-249.7 8.5,-249.7"/>
<text text-anchor="start" x="11.5" y="-255.8" font-family="Helvetica,sans-Serif" font-size="11.00" fill="#000000"> &#160;</text>
<polygon fill="#ffffff" stroke="transparent" points="33.5,-249.7 33.5,-268.7 51.5,-268.7 51.5,-249.7 33.5,-249.7"/>
<polygon fill="none" stroke="#000000" points="33.5,-249.7 33.5,-268.7 51.5,-268.7 51.5,-249.7 33.5,-249.7"/>
<text text-anchor="start" x="42.3862" y="-255.8" font-family="Helvetica,sans-Serif" font-size="11.00" fill="#000000"> &#160;</text>
<polygon fill="#ffffff" stroke="transparent" points="51.5,-249.7 51.5,-268.7 79.5,-268.7 79.5,-249.7 51.5,-249.7"/>
<polygon fill="none" stroke="#000000" points="51.5,-249.7 51.5,-268.7 79.5,-268.7 79.5,-249.7 51.5,-249.7"/>
<text text-anchor="start" x="60.9053" y="-255.8" font-family="Helvetica,sans-Serif" font-size="11.00" fill="#000000">3 &gt;</text>
</a>
</g>
</g>
<!-- grupo&#45;&gt;curso -->
<g id="edge7" class="edge">
<title>grupo:w&#45;&gt;curso:e</title>
<path fill="none" stroke="#000000" d="M237.3291,-375.9978C201.7608,-362.9682 156.1859,-343.4891 120,-318.7 98.8693,-304.2244 105.1135,-277.7 79.5,-277.7"/>
<polygon fill="#000000" stroke="#000000" points="243.3837,-378.1564 249.7101,-384.234 247.1514,-379.4997 250.9191,-380.843 250.9191,-380.843 250.9191,-380.843 247.1514,-379.4997 252.128,-377.4521 243.3837,-378.1564 243.3837,-378.1564"/>
<ellipse fill="none" stroke="#000000" cx="240.3695" cy="-377.0818" rx="3.2" ry="3.2"/>
</g>
<!-- turma&#45;&gt;usuario -->
<g id="edge11" class="edge">
<title>turma:w&#45;&gt;usuario:e</title>
<path fill="none" stroke="#000000" d="M238.3478,-236.4215C231.7023,-240.3772 224.9616,-244.3895 218.4256,-248.28"/>
<polygon fill="#000000" stroke="#000000" points="244.057,-233.0233 252.7727,-232.0248 247.4941,-230.9773 250.9313,-228.9314 250.9313,-228.9314 250.9313,-228.9314 247.4941,-230.9773 249.09,-225.8379 244.057,-233.0233 244.057,-233.0233"/>
<ellipse fill="none" stroke="#000000" cx="241.3072" cy="-234.66" rx="3.2" ry="3.2"/>
</g>
<!-- turma&#45;&gt;curso -->
<g id="edge10" class="edge">
<title>turma:w&#45;&gt;curso:e</title>
<path fill="none" stroke="#000000" d="M236.3422,-205.3895C200.8999,-209.0707 155.8092,-217.5209 120,-236.7 97.4211,-248.7931 105.1135,-277.7 79.5,-277.7"/>
<polygon fill="#000000" stroke="#000000" points="242.9178,-204.8004 251.2072,-207.6721 246.9018,-204.4434 250.8859,-204.0864 250.8859,-204.0864 250.8859,-204.0864 246.9018,-204.4434 250.5646,-200.5008 242.9178,-204.8004 242.9178,-204.8004"/>
<ellipse fill="none" stroke="#000000" cx="239.7306" cy="-205.086" rx="3.2" ry="3.2"/>
</g>
<!-- usuario&#45;&gt;curso -->
<g id="edge12" class="edge">
<title>usuario:w&#45;&gt;curso:e</title>
<path fill="none" stroke="#000000" d="M105.3485,-277.7C96.6624,-277.7 87.8615,-277.7 79.5,-277.7"/>
<polygon fill="#000000" stroke="#000000" points="111.7604,-277.7001 119.7604,-281.3 115.7604,-277.7 119.7604,-277.7 119.7604,-277.7 119.7604,-277.7 115.7604,-277.7 119.7604,-274.1 111.7604,-277.7001 111.7604,-277.7001"/>
<ellipse fill="none" stroke="#000000" cx="108.5604" cy="-277.7001" rx="3.2" ry="3.2"/>
</g>
<!-- token -->
<g id="node8" class="node">
<title>token</title>
<g id="a_node8"><a xlink:href="../../tables/token.html" xlink:title="token" target="_top">
<polygon fill="#ffffff" stroke="transparent" points="259.5,-282.2 259.5,-343.2 330.5,-343.2 330.5,-282.2 259.5,-282.2"/>
<polygon fill="#f5f5f5" stroke="transparent" points="260,-319.7 260,-342.7 331,-342.7 331,-319.7 260,-319.7"/>
<polygon fill="none" stroke="#000000" points="260,-319.7 260,-342.7 331,-342.7 331,-319.7 260,-319.7"/>
<text text-anchor="start" x="265" y="-328.3" font-family="Helvetica,sans-Serif" font-weight="bold" font-size="11.00" fill="#000000">token</text>
<text text-anchor="start" x="296.5219" y="-327.8" font-family="Helvetica,sans-Serif" font-size="11.00" fill="#000000">[table]</text>
<polygon fill="none" stroke="#000000" points="260,-300.7 260,-319.7 331,-319.7 331,-300.7 260,-300.7"/>
<text text-anchor="start" x="263" y="-306.8" font-family="Helvetica,sans-Serif" font-size="11.00" fill="#000000">...</text>
<polygon fill="#ffffff" stroke="transparent" points="260,-281.7 260,-300.7 294,-300.7 294,-281.7 260,-281.7"/>
<polygon fill="none" stroke="#000000" points="260,-281.7 260,-300.7 294,-300.7 294,-281.7 260,-281.7"/>
<text text-anchor="start" x="263" y="-287.8" font-family="Helvetica,sans-Serif" font-size="11.00" fill="#000000">&lt; 1</text>
<polygon fill="#ffffff" stroke="transparent" points="294,-281.7 294,-300.7 312,-300.7 312,-281.7 294,-281.7"/>
<polygon fill="none" stroke="#000000" points="294,-281.7 294,-300.7 312,-300.7 312,-281.7 294,-281.7"/>
<text text-anchor="start" x="302.8862" y="-287.8" font-family="Helvetica,sans-Serif" font-size="11.00" fill="#000000"> &#160;</text>
<polygon fill="#ffffff" stroke="transparent" points="312,-281.7 312,-300.7 331,-300.7 331,-281.7 312,-281.7"/>
<polygon fill="none" stroke="#000000" points="312,-281.7 312,-300.7 331,-300.7 331,-281.7 312,-281.7"/>
<text text-anchor="start" x="321.8862" y="-287.8" font-family="Helvetica,sans-Serif" font-size="11.00" fill="#000000"> &#160;</text>
</a>
</g>
</g>
<!-- token&#45;&gt;usuario -->
<g id="edge9" class="edge">
<title>token:w&#45;&gt;usuario:e</title>
<path fill="none" stroke="#000000" d="M245.5437,-308.5962C236.3137,-307.2477 227.1151,-304.7734 218.4621,-301.7899"/>
<polygon fill="#000000" stroke="#000000" points="252.0232,-309.0909 259.7259,-313.2896 256.0116,-309.3954 260,-309.7 260,-309.7 260,-309.7 256.0116,-309.3954 260.2741,-306.1104 252.0232,-309.0909 252.0232,-309.0909"/>
<ellipse fill="none" stroke="#000000" cx="248.8325" cy="-308.8472" rx="3.2" ry="3.2"/>
</g>
<!-- usuario_grupo -->
<g id="node9" class="node">
<title>usuario_grupo</title>
<g id="a_node9"><a xlink:href="../../tables/usuario_grupo.html" xlink:title="usuario_grupo" target="_top">
<polygon fill="#ffffff" stroke="transparent" points="407,-508.2 407,-569.2 530,-569.2 530,-508.2 407,-508.2"/>
<polygon fill="#f5f5f5" stroke="transparent" points="407.5,-545.7 407.5,-568.7 530.5,-568.7 530.5,-545.7 407.5,-545.7"/>
<polygon fill="none" stroke="#000000" points="407.5,-545.7 407.5,-568.7 530.5,-568.7 530.5,-545.7 407.5,-545.7"/>
<text text-anchor="start" x="412.5" y="-554.3" font-family="Helvetica,sans-Serif" font-weight="bold" font-size="11.00" fill="#000000">usuario_grupo</text>
<text text-anchor="start" x="496.0219" y="-553.8" font-family="Helvetica,sans-Serif" font-size="11.00" fill="#000000">[table]</text>
<polygon fill="none" stroke="#000000" points="407.5,-526.7 407.5,-545.7 530.5,-545.7 530.5,-526.7 407.5,-526.7"/>
<text text-anchor="start" x="410.5" y="-532.8" font-family="Helvetica,sans-Serif" font-size="11.00" fill="#000000">...</text>
<polygon fill="#ffffff" stroke="transparent" points="407.5,-507.7 407.5,-526.7 467.5,-526.7 467.5,-507.7 407.5,-507.7"/>
<polygon fill="none" stroke="#000000" points="407.5,-507.7 407.5,-526.7 467.5,-526.7 467.5,-507.7 407.5,-507.7"/>
<text text-anchor="start" x="410.5" y="-513.8" font-family="Helvetica,sans-Serif" font-size="11.00" fill="#000000">&lt; 2</text>
<polygon fill="#ffffff" stroke="transparent" points="467.5,-507.7 467.5,-526.7 498.5,-526.7 498.5,-507.7 467.5,-507.7"/>
<polygon fill="none" stroke="#000000" points="467.5,-507.7 467.5,-526.7 498.5,-526.7 498.5,-507.7 467.5,-507.7"/>
<text text-anchor="start" x="489.3862" y="-513.8" font-family="Helvetica,sans-Serif" font-size="11.00" fill="#000000"> &#160;</text>
<polygon fill="#ffffff" stroke="transparent" points="498.5,-507.7 498.5,-526.7 530.5,-526.7 530.5,-507.7 498.5,-507.7"/>
<polygon fill="none" stroke="#000000" points="498.5,-507.7 498.5,-526.7 530.5,-526.7 530.5,-507.7 498.5,-507.7"/>
<text text-anchor="start" x="521.3862" y="-513.8" font-family="Helvetica,sans-Serif" font-size="11.00" fill="#000000"> &#160;</text>
</a>
</g>
</g>
<!-- usuario_grupo&#45;&gt;grupo -->
<g id="edge13" class="edge">
<title>usuario_grupo:w&#45;&gt;grupo:e</title>
<path fill="none" stroke="#000000" d="M393.4815,-531.1026C367.4559,-515.6551 334.6678,-464.6209 314.2666,-429.5539"/>
<polygon fill="#000000" stroke="#000000" points="399.8984,-533.207 406.3781,-539.1207 403.6992,-534.4535 407.5,-535.7 407.5,-535.7 407.5,-535.7 403.6992,-534.4535 408.6219,-532.2793 399.8984,-533.207 399.8984,-533.207"/>
<ellipse fill="none" stroke="#000000" cx="396.8577" cy="-532.2097" rx="3.2" ry="3.2"/>
</g>
<!-- usuario_grupo&#45;&gt;usuario -->
<g id="edge14" class="edge">
<title>usuario_grupo:w&#45;&gt;usuario:e</title>
<path fill="none" stroke="#000000" d="M392.9166,-534.9433C280.9862,-523.2747 209.5021,-379.6465 181.9073,-312.2273"/>
<polygon fill="#000000" stroke="#000000" points="399.5107,-535.2854 407.3134,-539.2952 403.5054,-535.4927 407.5,-535.7 407.5,-535.7 407.5,-535.7 403.5054,-535.4927 407.6866,-532.1048 399.5107,-535.2854 399.5107,-535.2854"/>
<ellipse fill="none" stroke="#000000" cx="396.315" cy="-535.1195" rx="3.2" ry="3.2"/>
</g>
<!-- usuario_turma -->
<g id="node10" class="node">
<title>usuario_turma</title>
<g id="a_node10"><a xlink:href="../../tables/usuario_turma.html" xlink:title="usuario_turma" target="_top">
<polygon fill="#ffffff" stroke="transparent" points="407.5,-120.2 407.5,-181.2 529.5,-181.2 529.5,-120.2 407.5,-120.2"/>
<polygon fill="#f5f5f5" stroke="transparent" points="407.5,-157.7 407.5,-180.7 529.5,-180.7 529.5,-157.7 407.5,-157.7"/>
<polygon fill="none" stroke="#000000" points="407.5,-157.7 407.5,-180.7 529.5,-180.7 529.5,-157.7 407.5,-157.7"/>
<text text-anchor="start" x="412.5" y="-166.3" font-family="Helvetica,sans-Serif" font-weight="bold" font-size="11.00" fill="#000000">usuario_turma</text>
<text text-anchor="start" x="495.0219" y="-165.8" font-family="Helvetica,sans-Serif" font-size="11.00" fill="#000000">[table]</text>
<polygon fill="none" stroke="#000000" points="407.5,-138.7 407.5,-157.7 529.5,-157.7 529.5,-138.7 407.5,-138.7"/>
<text text-anchor="start" x="410.5" y="-144.8" font-family="Helvetica,sans-Serif" font-size="11.00" fill="#000000">...</text>
<polygon fill="#ffffff" stroke="transparent" points="407.5,-119.7 407.5,-138.7 466.5,-138.7 466.5,-119.7 407.5,-119.7"/>
<polygon fill="none" stroke="#000000" points="407.5,-119.7 407.5,-138.7 466.5,-138.7 466.5,-119.7 407.5,-119.7"/>
<text text-anchor="start" x="410.5" y="-125.8" font-family="Helvetica,sans-Serif" font-size="11.00" fill="#000000">&lt; 2</text>
<polygon fill="#ffffff" stroke="transparent" points="466.5,-119.7 466.5,-138.7 497.5,-138.7 497.5,-119.7 466.5,-119.7"/>
<polygon fill="none" stroke="#000000" points="466.5,-119.7 466.5,-138.7 497.5,-138.7 497.5,-119.7 466.5,-119.7"/>
<text text-anchor="start" x="488.3862" y="-125.8" font-family="Helvetica,sans-Serif" font-size="11.00" fill="#000000"> &#160;</text>
<polygon fill="#ffffff" stroke="transparent" points="497.5,-119.7 497.5,-138.7 529.5,-138.7 529.5,-119.7 497.5,-119.7"/>
<polygon fill="none" stroke="#000000" points="497.5,-119.7 497.5,-138.7 529.5,-138.7 529.5,-119.7 497.5,-119.7"/>
<text text-anchor="start" x="520.3862" y="-125.8" font-family="Helvetica,sans-Serif" font-size="11.00" fill="#000000"> &#160;</text>
</a>
</g>
</g>
<!-- usuario_turma&#45;&gt;turma -->
<g id="edge15" class="edge">
<title>usuario_turma:w&#45;&gt;turma:e</title>
<path fill="none" stroke="#000000" d="M393.0882,-148.8603C373.8429,-151.8744 355.0586,-160.3737 339.1645,-169.7537"/>
<polygon fill="#000000" stroke="#000000" points="399.5258,-148.342 407.7889,-151.2884 403.5129,-148.021 407.5,-147.7 407.5,-147.7 407.5,-147.7 403.5129,-148.021 407.2111,-144.1116 399.5258,-148.342 399.5258,-148.342"/>
<ellipse fill="none" stroke="#000000" cx="396.3361" cy="-148.5988" rx="3.2" ry="3.2"/>
</g>
<!-- usuario_turma&#45;&gt;usuario -->
<g id="edge16" class="edge">
<title>usuario_turma:w&#45;&gt;usuario:e</title>
<path fill="none" stroke="#000000" d="M393.0154,-147.4024C333.7084,-144.9787 307.1478,-129.3774 251,-161.7 219.2597,-179.9719 196.7509,-216.0785 183.4439,-243.1804"/>
<polygon fill="#000000" stroke="#000000" points="399.5017,-147.5356 407.426,-151.2992 403.5008,-147.6178 407.5,-147.7 407.5,-147.7 407.5,-147.7 403.5008,-147.6178 407.574,-144.1008 399.5017,-147.5356 399.5017,-147.5356"/>
<ellipse fill="none" stroke="#000000" cx="396.3024" cy="-147.4698" rx="3.2" ry="3.2"/>
</g>
</g>
</svg>
