<?xml version="1.0" encoding="UTF-8" standalone="no"?>
<!DOCTYPE svg PUBLIC "-//W3C//DTD SVG 1.1//EN"
 "http://www.w3.org/Graphics/SVG/1.1/DTD/svg11.dtd">
<!-- Generated by graphviz version 2.40.1 (20161225.0304)
 -->
<!-- Title: oneDegreeRelationshipsDiagram Pages: 1 -->
<svg width="646pt" height="346pt"
 viewBox="0.00 0.00 646.00 346.20" xmlns="http://www.w3.org/2000/svg" xmlns:xlink="http://www.w3.org/1999/xlink">
<g id="graph0" class="graph" transform="scale(1 1) rotate(0) translate(4 342.2)">
<title>oneDegreeRelationshipsDiagram</title>
<polygon fill="#ffffff" stroke="transparent" points="-4,4 -4,-342.2 642,-342.2 642,4 -4,4"/>
<text text-anchor="middle" x="72.4936" y="-7.3" font-family="Helvetica,sans-Serif" font-size="11.00" fill="#000000">Generated by SchemaSpy</text>
<!-- encontros -->
<g id="node1" class="node">
<title>encontros</title>
<g id="a_node1"><a xlink:href="../../tables/encontros.html" xlink:title="encontros" target="_top">
<polygon fill="#ffffff" stroke="transparent" points="520,-207.2 520,-334.2 617,-334.2 617,-207.2 520,-207.2"/>
<polygon fill="#f5f5f5" stroke="transparent" points="520.5,-310.7 520.5,-333.7 617.5,-333.7 617.5,-310.7 520.5,-310.7"/>
<polygon fill="none" stroke="#000000" points="520.5,-310.7 520.5,-333.7 617.5,-333.7 617.5,-310.7 520.5,-310.7"/>
<text text-anchor="start" x="525.5" y="-319.3" font-family="Helvetica,sans-Serif" font-weight="bold" font-size="11.00" fill="#000000">encontros</text>
<text text-anchor="start" x="583.0219" y="-318.8" font-family="Helvetica,sans-Serif" font-size="11.00" fill="#000000">[table]</text>
<polygon fill="none" stroke="#000000" points="520.5,-288.7 520.5,-310.7 617.5,-310.7 617.5,-288.7 520.5,-288.7"/>
<image xlink:href="../../images/primaryKeys.png" width="11px" height="12px" preserveAspectRatio="xMinYMin meet" x="525.5" y="-305.7"/>
<text text-anchor="start" x="549.5" y="-295.8" font-family="Helvetica,sans-Serif" font-size="11.00" fill="#000000">id</text>
<polygon fill="none" stroke="#000000" points="520.5,-266.7 520.5,-288.7 617.5,-288.7 617.5,-266.7 520.5,-266.7"/>
<image xlink:href="../../images/foreignKeys.png" width="11px" height="12px" preserveAspectRatio="xMinYMin meet" x="525.5" y="-283.7"/>
<text text-anchor="start" x="549.5" y="-273.8" font-family="Helvetica,sans-Serif" font-size="11.00" fill="#000000">id_grupo</text>
<polygon fill="none" stroke="#000000" points="520.5,-244.7 520.5,-266.7 617.5,-266.7 617.5,-244.7 520.5,-244.7"/>
<image xlink:href="../../images/foreignKeys.png" width="11px" height="12px" preserveAspectRatio="xMinYMin meet" x="525.5" y="-261.7"/>
<text text-anchor="start" x="549.5" y="-251.8" font-family="Helvetica,sans-Serif" font-size="11.00" fill="#000000">id_turma</text>
<polygon fill="none" stroke="#000000" points="520.5,-225.7 520.5,-244.7 617.5,-244.7 617.5,-225.7 520.5,-225.7"/>
<text text-anchor="start" x="523.5" y="-231.8" font-family="Helvetica,sans-Serif" font-size="11.00" fill="#000000">...</text>
<polygon fill="#ffffff" stroke="transparent" points="520.5,-206.7 520.5,-225.7 562.5,-225.7 562.5,-206.7 520.5,-206.7"/>
<polygon fill="none" stroke="#000000" points="520.5,-206.7 520.5,-225.7 562.5,-225.7 562.5,-206.7 520.5,-206.7"/>
<text text-anchor="start" x="523.5" y="-212.8" font-family="Helvetica,sans-Serif" font-size="11.00" fill="#000000">&lt; 2</text>
<polygon fill="#ffffff" stroke="transparent" points="562.5,-206.7 562.5,-225.7 585.5,-225.7 585.5,-206.7 562.5,-206.7"/>
<polygon fill="none" stroke="#000000" points="562.5,-206.7 562.5,-225.7 585.5,-225.7 585.5,-206.7 562.5,-206.7"/>
<text text-anchor="start" x="576.3862" y="-212.8" font-family="Helvetica,sans-Serif" font-size="11.00" fill="#000000"> &#160;</text>
<polygon fill="#ffffff" stroke="transparent" points="585.5,-206.7 585.5,-225.7 617.5,-225.7 617.5,-206.7 585.5,-206.7"/>
<polygon fill="none" stroke="#000000" points="585.5,-206.7 585.5,-225.7 617.5,-225.7 617.5,-206.7 585.5,-206.7"/>
<text text-anchor="start" x="598.9053" y="-212.8" font-family="Helvetica,sans-Serif" font-size="11.00" fill="#000000">2 &gt;</text>
</a>
</g>
</g>
<!-- grupos -->
<g id="node2" class="node">
<title>grupos</title>
<g id="a_node2"><a xlink:href="../../tables/grupos.html" xlink:title="grupos" target="_top">
<polygon fill="#ffffff" stroke="transparent" points="282,-135.7 282,-313.7 458,-313.7 458,-135.7 282,-135.7"/>
<polygon fill="#f5f5f5" stroke="transparent" points="284,-288.7 284,-311.7 456,-311.7 456,-288.7 284,-288.7"/>
<polygon fill="none" stroke="#000000" points="284,-288.7 284,-311.7 456,-311.7 456,-288.7 284,-288.7"/>
<text text-anchor="start" x="289" y="-297.3" font-family="Helvetica,sans-Serif" font-weight="bold" font-size="11.00" fill="#000000">grupos</text>
<text text-anchor="start" x="421.0437" y="-296.8" font-family="Helvetica,sans-Serif" font-size="11.00" fill="#000000">[table]</text>
<polygon fill="none" stroke="#000000" points="284,-266.7 284,-288.7 389,-288.7 389,-266.7 284,-266.7"/>
<image xlink:href="../../images/primaryKeys.png" width="11px" height="12px" preserveAspectRatio="xMinYMin meet" x="289" y="-283.7"/>
<text text-anchor="start" x="304" y="-273.8" font-family="Helvetica,sans-Serif" font-size="11.00" fill="#000000">id</text>
<polygon fill="none" stroke="#000000" points="389,-266.7 389,-288.7 456,-288.7 456,-266.7 389,-266.7"/>
<text text-anchor="start" x="392" y="-274.4" font-family="Helvetica,sans-Serif" font-size="11.00" fill="#000000">serial[10]</text>
<polygon fill="none" stroke="#000000" points="284,-244.7 284,-266.7 389,-266.7 389,-244.7 284,-244.7"/>
<image xlink:href="../../images/foreignKeys.png" width="11px" height="12px" preserveAspectRatio="xMinYMin meet" x="289" y="-261.7"/>
<text text-anchor="start" x="304" y="-251.8" font-family="Helvetica,sans-Serif" font-size="11.00" fill="#000000">id_curso</text>
<polygon fill="none" stroke="#000000" points="389,-244.7 389,-266.7 456,-266.7 456,-244.7 389,-244.7"/>
<text text-anchor="start" x="392" y="-252.4" font-family="Helvetica,sans-Serif" font-size="11.00" fill="#000000">int4[10]</text>
<polygon fill="none" stroke="#000000" points="284,-222.7 284,-244.7 389,-244.7 389,-222.7 284,-222.7"/>
<image xlink:href="../../images/foreignKeys.png" width="11px" height="12px" preserveAspectRatio="xMinYMin meet" x="289" y="-239.7"/>
<text text-anchor="start" x="304" y="-229.8" font-family="Helvetica,sans-Serif" font-size="11.00" fill="#000000">id_user</text>
<polygon fill="none" stroke="#000000" points="389,-222.7 389,-244.7 456,-244.7 456,-222.7 389,-222.7"/>
<text text-anchor="start" x="392" y="-230.4" font-family="Helvetica,sans-Serif" font-size="11.00" fill="#000000">int4[10]</text>
<polygon fill="none" stroke="#000000" points="284,-200.7 284,-222.7 389,-222.7 389,-200.7 284,-200.7"/>
<text text-anchor="start" x="304" y="-207.8" font-family="Helvetica,sans-Serif" font-size="11.00" fill="#000000">areade_estudo</text>
<polygon fill="none" stroke="#000000" points="389,-200.7 389,-222.7 456,-222.7 456,-200.7 389,-200.7"/>
<text text-anchor="start" x="391.9365" y="-208.4" font-family="Helvetica,sans-Serif" font-size="11.00" fill="#000000">varchar[100]</text>
<polygon fill="#ffffff" stroke="transparent" points="284,-178.7 284,-200.7 389,-200.7 389,-178.7 284,-178.7"/>
<polygon fill="none" stroke="#000000" points="284,-178.7 284,-200.7 389,-200.7 389,-178.7 284,-178.7"/>
<text text-anchor="start" x="304" y="-185.8" font-family="Helvetica,sans-Serif" font-size="11.00" fill="#000000">nome</text>
<polygon fill="none" stroke="#000000" points="389,-178.7 389,-200.7 456,-200.7 456,-178.7 389,-178.7"/>
<text text-anchor="start" x="391.9365" y="-186.4" font-family="Helvetica,sans-Serif" font-size="11.00" fill="#000000">varchar[100]</text>
<polygon fill="none" stroke="#000000" points="284,-156.7 284,-178.7 389,-178.7 389,-156.7 284,-156.7"/>
<text text-anchor="start" x="304" y="-163.8" font-family="Helvetica,sans-Serif" font-size="11.00" fill="#000000">descricao</text>
<polygon fill="none" stroke="#000000" points="389,-156.7 389,-178.7 456,-178.7 456,-156.7 389,-156.7"/>
<text text-anchor="start" x="391.9365" y="-164.4" font-family="Helvetica,sans-Serif" font-size="11.00" fill="#000000">varchar[255]</text>
<polygon fill="#ffffff" stroke="transparent" points="284,-137.7 284,-156.7 341,-156.7 341,-137.7 284,-137.7"/>
<polygon fill="none" stroke="#000000" points="284,-137.7 284,-156.7 341,-156.7 341,-137.7 284,-137.7"/>
<text text-anchor="start" x="287" y="-143.8" font-family="Helvetica,sans-Serif" font-size="11.00" fill="#000000">&lt; 2</text>
<polygon fill="#ffffff" stroke="transparent" points="341,-137.7 341,-156.7 389,-156.7 389,-137.7 341,-137.7"/>
<polygon fill="none" stroke="#000000" points="341,-137.7 341,-156.7 389,-156.7 389,-137.7 341,-137.7"/>
<text text-anchor="start" x="379.8862" y="-143.8" font-family="Helvetica,sans-Serif" font-size="11.00" fill="#000000"> &#160;</text>
<polygon fill="#ffffff" stroke="transparent" points="389,-137.7 389,-156.7 456,-156.7 456,-137.7 389,-137.7"/>
<polygon fill="none" stroke="#000000" points="389,-137.7 389,-156.7 456,-156.7 456,-137.7 389,-137.7"/>
<text text-anchor="start" x="437.4053" y="-143.8" font-family="Helvetica,sans-Serif" font-size="11.00" fill="#000000">2 &gt;</text>
<polygon fill="none" stroke="#000000" stroke-width="2" points="283,-136.7 283,-312.7 457,-312.7 457,-136.7 283,-136.7"/>
</a>
</g>
</g>
<!-- encontros&#45;&gt;grupos -->
<g id="edge1" class="edge">
<title>encontros:w&#45;&gt;grupos:e</title>
<path fill="none" stroke="#000000" d="M505.8432,-277.7C488.2137,-277.7 479.0677,-277.7 456,-277.7"/>
<polygon fill="#000000" stroke="#000000" points="512.5,-277.7001 520.5,-281.3 516.5,-277.7 520.5,-277.7 520.5,-277.7 520.5,-277.7 516.5,-277.7 520.5,-274.1 512.5,-277.7001 512.5,-277.7001"/>
<ellipse fill="none" stroke="#000000" cx="509.3" cy="-277.7001" rx="3.2" ry="3.2"/>
</g>
<!-- cursos -->
<g id="node3" class="node">
<title>cursos</title>
<g id="a_node3"><a xlink:href="../../tables/cursos.html" xlink:title="cursos" target="_top">
<polygon fill="#ffffff" stroke="transparent" points="8,-166.2 8,-249.2 95,-249.2 95,-166.2 8,-166.2"/>
<polygon fill="#f5f5f5" stroke="transparent" points="8.5,-225.7 8.5,-248.7 95.5,-248.7 95.5,-225.7 8.5,-225.7"/>
<polygon fill="none" stroke="#000000" points="8.5,-225.7 8.5,-248.7 95.5,-248.7 95.5,-225.7 8.5,-225.7"/>
<text text-anchor="start" x="13.5" y="-234.3" font-family="Helvetica,sans-Serif" font-weight="bold" font-size="11.00" fill="#000000">cursos</text>
<text text-anchor="start" x="60.5437" y="-233.8" font-family="Helvetica,sans-Serif" font-size="11.00" fill="#000000">[table]</text>
<polygon fill="none" stroke="#000000" points="8.5,-203.7 8.5,-225.7 95.5,-225.7 95.5,-203.7 8.5,-203.7"/>
<image xlink:href="../../images/primaryKeys.png" width="11px" height="12px" preserveAspectRatio="xMinYMin meet" x="13.5" y="-220.7"/>
<text text-anchor="start" x="28.5" y="-210.8" font-family="Helvetica,sans-Serif" font-size="11.00" fill="#000000">id</text>
<polygon fill="none" stroke="#000000" points="8.5,-184.7 8.5,-203.7 95.5,-203.7 95.5,-184.7 8.5,-184.7"/>
<text text-anchor="start" x="11.5" y="-190.8" font-family="Helvetica,sans-Serif" font-size="11.00" fill="#000000">...</text>
<polygon fill="#ffffff" stroke="transparent" points="8.5,-165.7 8.5,-184.7 41.5,-184.7 41.5,-165.7 8.5,-165.7"/>
<polygon fill="none" stroke="#000000" points="8.5,-165.7 8.5,-184.7 41.5,-184.7 41.5,-165.7 8.5,-165.7"/>
<text text-anchor="start" x="11.5" y="-171.8" font-family="Helvetica,sans-Serif" font-size="11.00" fill="#000000"> &#160;</text>
<polygon fill="#ffffff" stroke="transparent" points="41.5,-165.7 41.5,-184.7 63.5,-184.7 63.5,-165.7 41.5,-165.7"/>
<polygon fill="none" stroke="#000000" points="41.5,-165.7 41.5,-184.7 63.5,-184.7 63.5,-165.7 41.5,-165.7"/>
<text text-anchor="start" x="54.3862" y="-171.8" font-family="Helvetica,sans-Serif" font-size="11.00" fill="#000000"> &#160;</text>
<polygon fill="#ffffff" stroke="transparent" points="63.5,-165.7 63.5,-184.7 95.5,-184.7 95.5,-165.7 63.5,-165.7"/>
<polygon fill="none" stroke="#000000" points="63.5,-165.7 63.5,-184.7 95.5,-184.7 95.5,-165.7 63.5,-165.7"/>
<text text-anchor="start" x="76.9053" y="-171.8" font-family="Helvetica,sans-Serif" font-size="11.00" fill="#000000">3 &gt;</text>
</a>
</g>
</g>
<!-- grupos&#45;&gt;cursos -->
<g id="edge2" class="edge">
<title>grupos:w&#45;&gt;cursos:e</title>
<path fill="none" stroke="#000000" d="M269.3218,-255.8302C214.5959,-256.7822 193.3992,-262.0791 136,-241.7 115.6135,-234.462 117.1333,-214.7 95.5,-214.7"/>
<polygon fill="#000000" stroke="#000000" points="276.0003,-255.771 284.0319,-259.2999 280.0002,-255.7355 284,-255.7 284,-255.7 284,-255.7 280.0002,-255.7355 283.9681,-252.1001 276.0003,-255.771 276.0003,-255.771"/>
<ellipse fill="none" stroke="#000000" cx="272.8004" cy="-255.7994" rx="3.2" ry="3.2"/>
</g>
<!-- usuarios -->
<g id="node4" class="node">
<title>usuarios</title>
<g id="a_node4"><a xlink:href="../../tables/usuarios.html" xlink:title="usuarios" target="_top">
<polygon fill="#ffffff" stroke="transparent" points="144,-38.2 144,-231.2 233,-231.2 233,-38.2 144,-38.2"/>
<polygon fill="#f5f5f5" stroke="transparent" points="144.5,-207.7 144.5,-230.7 233.5,-230.7 233.5,-207.7 144.5,-207.7"/>
<polygon fill="none" stroke="#000000" points="144.5,-207.7 144.5,-230.7 233.5,-230.7 233.5,-207.7 144.5,-207.7"/>
<text text-anchor="start" x="149.5" y="-216.3" font-family="Helvetica,sans-Serif" font-weight="bold" font-size="11.00" fill="#000000">usuarios</text>
<text text-anchor="start" x="199.0219" y="-215.8" font-family="Helvetica,sans-Serif" font-size="11.00" fill="#000000">[table]</text>
<polygon fill="none" stroke="#000000" points="144.5,-185.7 144.5,-207.7 233.5,-207.7 233.5,-185.7 144.5,-185.7"/>
<image xlink:href="../../images/primaryKeys.png" width="11px" height="12px" preserveAspectRatio="xMinYMin meet" x="149.5" y="-202.7"/>
<text text-anchor="start" x="169.5" y="-192.8" font-family="Helvetica,sans-Serif" font-size="11.00" fill="#000000">id</text>
<polygon fill="none" stroke="#000000" points="144.5,-163.7 144.5,-185.7 233.5,-185.7 233.5,-163.7 144.5,-163.7"/>
<image xlink:href="../../images/foreignKeys.png" width="11px" height="12px" preserveAspectRatio="xMinYMin meet" x="149.5" y="-180.7"/>
<text text-anchor="start" x="169.5" y="-170.8" font-family="Helvetica,sans-Serif" font-size="11.00" fill="#000000">id_curso</text>
<polygon fill="#ffffff" stroke="transparent" points="144.5,-141.7 144.5,-163.7 233.5,-163.7 233.5,-141.7 144.5,-141.7"/>
<polygon fill="none" stroke="#000000" points="144.5,-141.7 144.5,-163.7 233.5,-163.7 233.5,-141.7 144.5,-141.7"/>
<text text-anchor="start" x="169.5" y="-148.8" font-family="Helvetica,sans-Serif" font-size="11.00" fill="#000000">nome</text>
<polygon fill="#ffffff" stroke="transparent" points="144.5,-119.7 144.5,-141.7 233.5,-141.7 233.5,-119.7 144.5,-119.7"/>
<polygon fill="none" stroke="#000000" points="144.5,-119.7 144.5,-141.7 233.5,-141.7 233.5,-119.7 144.5,-119.7"/>
<text text-anchor="start" x="169.5" y="-126.8" font-family="Helvetica,sans-Serif" font-size="11.00" fill="#000000">email</text>
<polygon fill="#ffffff" stroke="transparent" points="144.5,-97.7 144.5,-119.7 233.5,-119.7 233.5,-97.7 144.5,-97.7"/>
<polygon fill="none" stroke="#000000" points="144.5,-97.7 144.5,-119.7 233.5,-119.7 233.5,-97.7 144.5,-97.7"/>
<text text-anchor="start" x="169.5" y="-104.8" font-family="Helvetica,sans-Serif" font-size="11.00" fill="#000000">matricula</text>
<polygon fill="#ffffff" stroke="transparent" points="144.5,-75.7 144.5,-97.7 233.5,-97.7 233.5,-75.7 144.5,-75.7"/>
<polygon fill="none" stroke="#000000" points="144.5,-75.7 144.5,-97.7 233.5,-97.7 233.5,-75.7 144.5,-75.7"/>
<text text-anchor="start" x="169.5" y="-82.8" font-family="Helvetica,sans-Serif" font-size="11.00" fill="#000000">siape</text>
<polygon fill="none" stroke="#000000" points="144.5,-56.7 144.5,-75.7 233.5,-75.7 233.5,-56.7 144.5,-56.7"/>
<text text-anchor="start" x="147.5" y="-62.8" font-family="Helvetica,sans-Serif" font-size="11.00" fill="#000000">...</text>
<polygon fill="#ffffff" stroke="transparent" points="144.5,-37.7 144.5,-56.7 182.5,-56.7 182.5,-37.7 144.5,-37.7"/>
<polygon fill="none" stroke="#000000" points="144.5,-37.7 144.5,-56.7 182.5,-56.7 182.5,-37.7 144.5,-37.7"/>
<text text-anchor="start" x="147.5" y="-43.8" font-family="Helvetica,sans-Serif" font-size="11.00" fill="#000000">&lt; 1</text>
<polygon fill="#ffffff" stroke="transparent" points="182.5,-37.7 182.5,-56.7 203.5,-56.7 203.5,-37.7 182.5,-37.7"/>
<polygon fill="none" stroke="#000000" points="182.5,-37.7 182.5,-56.7 203.5,-56.7 203.5,-37.7 182.5,-37.7"/>
<text text-anchor="start" x="194.3862" y="-43.8" font-family="Helvetica,sans-Serif" font-size="11.00" fill="#000000"> &#160;</text>
<polygon fill="#ffffff" stroke="transparent" points="203.5,-37.7 203.5,-56.7 233.5,-56.7 233.5,-37.7 203.5,-37.7"/>
<polygon fill="none" stroke="#000000" points="203.5,-37.7 203.5,-56.7 233.5,-56.7 233.5,-37.7 203.5,-37.7"/>
<text text-anchor="start" x="214.9053" y="-43.8" font-family="Helvetica,sans-Serif" font-size="11.00" fill="#000000">6 &gt;</text>
</a>
</g>
</g>
<!-- grupos&#45;&gt;usuarios -->
<g id="edge3" class="edge">
<title>grupos:w&#45;&gt;usuarios:e</title>
<path fill="none" stroke="#000000" d="M270.1749,-229.4556C256.8807,-219.7369 255.4548,-196.7 233.5,-196.7"/>
<polygon fill="#000000" stroke="#000000" points="276.3523,-231.3521 282.9434,-237.1415 280.1761,-232.526 284,-233.7 284,-233.7 284,-233.7 280.1761,-232.526 285.0566,-230.2585 276.3523,-231.3521 276.3523,-231.3521"/>
<ellipse fill="none" stroke="#000000" cx="273.2932" cy="-230.4129" rx="3.2" ry="3.2"/>
</g>
<!-- usuarios&#45;&gt;cursos -->
<g id="edge6" class="edge">
<title>usuarios:w&#45;&gt;cursos:e</title>
<path fill="none" stroke="#000000" d="M130.7637,-179.2885C117.8632,-189.7952 117.6826,-214.7 95.5,-214.7"/>
<polygon fill="#000000" stroke="#000000" points="136.9121,-177.2347 145.6406,-178.1145 140.7061,-175.9673 144.5,-174.7 144.5,-174.7 144.5,-174.7 140.7061,-175.9673 143.3594,-171.2855 136.9121,-177.2347 136.9121,-177.2347"/>
<ellipse fill="none" stroke="#000000" cx="133.877" cy="-178.2486" rx="3.2" ry="3.2"/>
</g>
<!-- usuario_grupo -->
<g id="node5" class="node">
<title>usuario_grupo</title>
<g id="a_node5"><a xlink:href="../../tables/usuario_grupo.html" xlink:title="usuario_grupo" target="_top">
<polygon fill="#ffffff" stroke="transparent" points="507,-90.7 507,-176.7 630,-176.7 630,-90.7 507,-90.7"/>
<polygon fill="#f5f5f5" stroke="transparent" points="507.5,-153.7 507.5,-176.7 630.5,-176.7 630.5,-153.7 507.5,-153.7"/>
<polygon fill="none" stroke="#000000" points="507.5,-153.7 507.5,-176.7 630.5,-176.7 630.5,-153.7 507.5,-153.7"/>
<text text-anchor="start" x="512.5" y="-162.3" font-family="Helvetica,sans-Serif" font-weight="bold" font-size="11.00" fill="#000000">usuario_grupo</text>
<text text-anchor="start" x="596.0219" y="-161.8" font-family="Helvetica,sans-Serif" font-size="11.00" fill="#000000">[table]</text>
<polygon fill="none" stroke="#000000" points="507.5,-131.7 507.5,-153.7 630.5,-153.7 630.5,-131.7 507.5,-131.7"/>
<image xlink:href="../../images/foreignKeys.png" width="11px" height="12px" preserveAspectRatio="xMinYMin meet" x="512.5" y="-148.7"/>
<text text-anchor="start" x="536.5" y="-138.8" font-family="Helvetica,sans-Serif" font-size="11.00" fill="#000000">id_grupo</text>
<polygon fill="none" stroke="#000000" points="507.5,-109.7 507.5,-131.7 630.5,-131.7 630.5,-109.7 507.5,-109.7"/>
<image xlink:href="../../images/foreignKeys.png" width="11px" height="12px" preserveAspectRatio="xMinYMin meet" x="512.5" y="-126.7"/>
<text text-anchor="start" x="536.5" y="-116.8" font-family="Helvetica,sans-Serif" font-size="11.00" fill="#000000">id_usuario</text>
<polygon fill="#ffffff" stroke="transparent" points="507.5,-90.7 507.5,-109.7 567.5,-109.7 567.5,-90.7 507.5,-90.7"/>
<polygon fill="none" stroke="#000000" points="507.5,-90.7 507.5,-109.7 567.5,-109.7 567.5,-90.7 507.5,-90.7"/>
<text text-anchor="start" x="510.5" y="-96.8" font-family="Helvetica,sans-Serif" font-size="11.00" fill="#000000">&lt; 2</text>
<polygon fill="#ffffff" stroke="transparent" points="567.5,-90.7 567.5,-109.7 598.5,-109.7 598.5,-90.7 567.5,-90.7"/>
<polygon fill="none" stroke="#000000" points="567.5,-90.7 567.5,-109.7 598.5,-109.7 598.5,-90.7 567.5,-90.7"/>
<text text-anchor="start" x="589.3862" y="-96.8" font-family="Helvetica,sans-Serif" font-size="11.00" fill="#000000"> &#160;</text>
<polygon fill="#ffffff" stroke="transparent" points="598.5,-90.7 598.5,-109.7 630.5,-109.7 630.5,-90.7 598.5,-90.7"/>
<polygon fill="none" stroke="#000000" points="598.5,-90.7 598.5,-109.7 630.5,-109.7 630.5,-90.7 598.5,-90.7"/>
<text text-anchor="start" x="621.3862" y="-96.8" font-family="Helvetica,sans-Serif" font-size="11.00" fill="#000000"> &#160;</text>
</a>
</g>
</g>
<!-- usuario_grupo&#45;&gt;grupos -->
<g id="edge4" class="edge">
<title>usuario_grupo:w&#45;&gt;grupos:e</title>
<path fill="none" stroke="#000000" d="M493.4047,-145.7733C455.9673,-165.8681 514.4481,-277.7 456,-277.7"/>
<polygon fill="#000000" stroke="#000000" points="499.6836,-144.4043 508.2669,-146.2174 503.5918,-143.5522 507.5,-142.7 507.5,-142.7 507.5,-142.7 503.5918,-143.5522 506.7331,-139.1826 499.6836,-144.4043 499.6836,-144.4043"/>
<ellipse fill="none" stroke="#000000" cx="496.5571" cy="-145.086" rx="3.2" ry="3.2"/>
</g>
<!-- usuario_grupo&#45;&gt;usuarios -->
<g id="edge5" class="edge">
<title>usuario_grupo:w&#45;&gt;usuarios:e</title>
<path fill="none" stroke="#000000" d="M493.0213,-120.386C399.7107,-116.3291 358.9278,-75.1479 274,-125.7 242.7832,-144.2814 269.8284,-196.7 233.5,-196.7"/>
<polygon fill="#000000" stroke="#000000" points="499.5019,-120.5265 507.4219,-124.2992 503.5009,-120.6132 507.5,-120.7 507.5,-120.7 507.5,-120.7 503.5009,-120.6132 507.5781,-117.1008 499.5019,-120.5265 499.5019,-120.5265"/>
<ellipse fill="none" stroke="#000000" cx="496.3026" cy="-120.4571" rx="3.2" ry="3.2"/>
</g>
</g>
</svg>
