<?xml version="1.0" encoding="UTF-8" standalone="no"?>
<!DOCTYPE svg PUBLIC "-//W3C//DTD SVG 1.1//EN"
 "http://www.w3.org/Graphics/SVG/1.1/DTD/svg11.dtd">
<!-- Generated by graphviz version 2.40.1 (20161225.0304)
 -->
<!-- Title: oneDegreeRelationshipsDiagram Pages: 1 -->
<svg width="639pt" height="346pt"
 viewBox="0.00 0.00 639.00 345.70" xmlns="http://www.w3.org/2000/svg" xmlns:xlink="http://www.w3.org/1999/xlink">
<g id="graph0" class="graph" transform="scale(1 1) rotate(0) translate(4 341.7)">
<title>oneDegreeRelationshipsDiagram</title>
<polygon fill="#ffffff" stroke="transparent" points="-4,4 -4,-341.7 635,-341.7 635,4 -4,4"/>
<text text-anchor="middle" x="72.4936" y="-7.3" font-family="Helvetica,sans-Serif" font-size="11.00" fill="#000000">Generated by SchemaSpy</text>
<!-- encontro -->
<g id="node1" class="node">
<title>encontro</title>
<g id="a_node1"><a xlink:href="../../tables/encontro.html" xlink:title="encontro" target="_top">
<polygon fill="#ffffff" stroke="transparent" points="516.5,-48.2 516.5,-219.2 606.5,-219.2 606.5,-48.2 516.5,-48.2"/>
<polygon fill="#f5f5f5" stroke="transparent" points="516.5,-195.7 516.5,-218.7 606.5,-218.7 606.5,-195.7 516.5,-195.7"/>
<polygon fill="none" stroke="#000000" points="516.5,-195.7 516.5,-218.7 606.5,-218.7 606.5,-195.7 516.5,-195.7"/>
<text text-anchor="start" x="521.5" y="-204.3" font-family="Helvetica,sans-Serif" font-weight="bold" font-size="11.00" fill="#000000">encontro</text>
<text text-anchor="start" x="572.0219" y="-203.8" font-family="Helvetica,sans-Serif" font-size="11.00" fill="#000000">[table]</text>
<polygon fill="none" stroke="#000000" points="516.5,-173.7 516.5,-195.7 606.5,-195.7 606.5,-173.7 516.5,-173.7"/>
<image xlink:href="../../images/primaryKeys.png" width="11px" height="12px" preserveAspectRatio="xMinYMin meet" x="521.5" y="-190.7"/>
<text text-anchor="start" x="537.5" y="-180.8" font-family="Helvetica,sans-Serif" font-size="11.00" fill="#000000">id</text>
<polygon fill="none" stroke="#000000" points="516.5,-151.7 516.5,-173.7 606.5,-173.7 606.5,-151.7 516.5,-151.7"/>
<image xlink:href="../../images/foreignKeys.png" width="11px" height="12px" preserveAspectRatio="xMinYMin meet" x="521.5" y="-168.7"/>
<text text-anchor="start" x="537.5" y="-158.8" font-family="Helvetica,sans-Serif" font-size="11.00" fill="#000000">id_grupo</text>
<polygon fill="none" stroke="#000000" points="516.5,-129.7 516.5,-151.7 606.5,-151.7 606.5,-129.7 516.5,-129.7"/>
<image xlink:href="../../images/foreignKeys.png" width="11px" height="12px" preserveAspectRatio="xMinYMin meet" x="521.5" y="-146.7"/>
<text text-anchor="start" x="537.5" y="-136.8" font-family="Helvetica,sans-Serif" font-size="11.00" fill="#000000">id_turma</text>
<polygon fill="none" stroke="#000000" points="516.5,-107.7 516.5,-129.7 606.5,-129.7 606.5,-107.7 516.5,-107.7"/>
<image xlink:href="../../images/foreignKeys.png" width="11px" height="12px" preserveAspectRatio="xMinYMin meet" x="521.5" y="-124.7"/>
<text text-anchor="start" x="537.5" y="-114.8" font-family="Helvetica,sans-Serif" font-size="11.00" fill="#000000">id_encontro</text>
<polygon fill="none" stroke="#000000" points="516.5,-85.7 516.5,-107.7 606.5,-107.7 606.5,-85.7 516.5,-85.7"/>
<image xlink:href="../../images/foreignKeys.png" width="11px" height="12px" preserveAspectRatio="xMinYMin meet" x="521.5" y="-102.7"/>
<text text-anchor="start" x="537.5" y="-92.8" font-family="Helvetica,sans-Serif" font-size="11.00" fill="#000000">id_user</text>
<polygon fill="none" stroke="#000000" points="516.5,-66.7 516.5,-85.7 606.5,-85.7 606.5,-66.7 516.5,-66.7"/>
<text text-anchor="start" x="519.5" y="-72.8" font-family="Helvetica,sans-Serif" font-size="11.00" fill="#000000">...</text>
<polygon fill="#ffffff" stroke="transparent" points="516.5,-47.7 516.5,-66.7 555.5,-66.7 555.5,-47.7 516.5,-47.7"/>
<polygon fill="none" stroke="#000000" points="516.5,-47.7 516.5,-66.7 555.5,-66.7 555.5,-47.7 516.5,-47.7"/>
<text text-anchor="start" x="519.5" y="-53.8" font-family="Helvetica,sans-Serif" font-size="11.00" fill="#000000">&lt; 4</text>
<polygon fill="#ffffff" stroke="transparent" points="555.5,-47.7 555.5,-66.7 576.5,-66.7 576.5,-47.7 555.5,-47.7"/>
<polygon fill="none" stroke="#000000" points="555.5,-47.7 555.5,-66.7 576.5,-66.7 576.5,-47.7 555.5,-47.7"/>
<text text-anchor="start" x="567.3862" y="-53.8" font-family="Helvetica,sans-Serif" font-size="11.00" fill="#000000"> &#160;</text>
<polygon fill="#ffffff" stroke="transparent" points="576.5,-47.7 576.5,-66.7 606.5,-66.7 606.5,-47.7 576.5,-47.7"/>
<polygon fill="none" stroke="#000000" points="576.5,-47.7 576.5,-66.7 606.5,-66.7 606.5,-47.7 576.5,-47.7"/>
<text text-anchor="start" x="587.9053" y="-53.8" font-family="Helvetica,sans-Serif" font-size="11.00" fill="#000000">2 &gt;</text>
</a>
</g>
</g>
<!-- grupo -->
<g id="node2" class="node">
<title>grupo</title>
<g id="a_node2"><a xlink:href="../../tables/grupo.html" xlink:title="grupo" target="_top">
<polygon fill="#ffffff" stroke="transparent" points="275,-105.7 275,-283.7 451,-283.7 451,-105.7 275,-105.7"/>
<polygon fill="#f5f5f5" stroke="transparent" points="277,-258.7 277,-281.7 449,-281.7 449,-258.7 277,-258.7"/>
<polygon fill="none" stroke="#000000" points="277,-258.7 277,-281.7 449,-281.7 449,-258.7 277,-258.7"/>
<text text-anchor="start" x="282" y="-267.3" font-family="Helvetica,sans-Serif" font-weight="bold" font-size="11.00" fill="#000000">grupo</text>
<text text-anchor="start" x="414.0437" y="-266.8" font-family="Helvetica,sans-Serif" font-size="11.00" fill="#000000">[table]</text>
<polygon fill="none" stroke="#000000" points="277,-236.7 277,-258.7 382,-258.7 382,-236.7 277,-236.7"/>
<image xlink:href="../../images/primaryKeys.png" width="11px" height="12px" preserveAspectRatio="xMinYMin meet" x="282" y="-253.7"/>
<text text-anchor="start" x="297" y="-243.8" font-family="Helvetica,sans-Serif" font-size="11.00" fill="#000000">id</text>
<polygon fill="none" stroke="#000000" points="382,-236.7 382,-258.7 449,-258.7 449,-236.7 382,-236.7"/>
<text text-anchor="start" x="385" y="-244.4" font-family="Helvetica,sans-Serif" font-size="11.00" fill="#000000">serial[10]</text>
<polygon fill="none" stroke="#000000" points="277,-214.7 277,-236.7 382,-236.7 382,-214.7 277,-214.7"/>
<text text-anchor="start" x="297" y="-221.8" font-family="Helvetica,sans-Serif" font-size="11.00" fill="#000000">descricao</text>
<polygon fill="none" stroke="#000000" points="382,-214.7 382,-236.7 449,-236.7 449,-214.7 382,-214.7"/>
<text text-anchor="start" x="384.9365" y="-222.4" font-family="Helvetica,sans-Serif" font-size="11.00" fill="#000000">varchar[255]</text>
<polygon fill="#ffffff" stroke="transparent" points="277,-192.7 277,-214.7 382,-214.7 382,-192.7 277,-192.7"/>
<polygon fill="none" stroke="#000000" points="277,-192.7 277,-214.7 382,-214.7 382,-192.7 277,-192.7"/>
<text text-anchor="start" x="297" y="-199.8" font-family="Helvetica,sans-Serif" font-size="11.00" fill="#000000">nome</text>
<polygon fill="none" stroke="#000000" points="382,-192.7 382,-214.7 449,-214.7 449,-192.7 382,-192.7"/>
<text text-anchor="start" x="384.9365" y="-200.4" font-family="Helvetica,sans-Serif" font-size="11.00" fill="#000000">varchar[100]</text>
<polygon fill="none" stroke="#000000" points="277,-170.7 277,-192.7 382,-192.7 382,-170.7 277,-170.7"/>
<text text-anchor="start" x="297" y="-177.8" font-family="Helvetica,sans-Serif" font-size="11.00" fill="#000000">areade_estudo</text>
<polygon fill="none" stroke="#000000" points="382,-170.7 382,-192.7 449,-192.7 449,-170.7 382,-170.7"/>
<text text-anchor="start" x="384.9365" y="-178.4" font-family="Helvetica,sans-Serif" font-size="11.00" fill="#000000">varchar[100]</text>
<polygon fill="none" stroke="#000000" points="277,-148.7 277,-170.7 382,-170.7 382,-148.7 277,-148.7"/>
<image xlink:href="../../images/foreignKeys.png" width="11px" height="12px" preserveAspectRatio="xMinYMin meet" x="282" y="-165.7"/>
<text text-anchor="start" x="297" y="-155.8" font-family="Helvetica,sans-Serif" font-size="11.00" fill="#000000">id_user</text>
<polygon fill="none" stroke="#000000" points="382,-148.7 382,-170.7 449,-170.7 449,-148.7 382,-148.7"/>
<text text-anchor="start" x="385" y="-156.4" font-family="Helvetica,sans-Serif" font-size="11.00" fill="#000000">int4[10]</text>
<polygon fill="none" stroke="#000000" points="277,-126.7 277,-148.7 382,-148.7 382,-126.7 277,-126.7"/>
<image xlink:href="../../images/foreignKeys.png" width="11px" height="12px" preserveAspectRatio="xMinYMin meet" x="282" y="-143.7"/>
<text text-anchor="start" x="297" y="-133.8" font-family="Helvetica,sans-Serif" font-size="11.00" fill="#000000">id_curso</text>
<polygon fill="none" stroke="#000000" points="382,-126.7 382,-148.7 449,-148.7 449,-126.7 382,-126.7"/>
<text text-anchor="start" x="385" y="-134.4" font-family="Helvetica,sans-Serif" font-size="11.00" fill="#000000">int4[10]</text>
<polygon fill="#ffffff" stroke="transparent" points="277,-107.7 277,-126.7 334,-126.7 334,-107.7 277,-107.7"/>
<polygon fill="none" stroke="#000000" points="277,-107.7 277,-126.7 334,-126.7 334,-107.7 277,-107.7"/>
<text text-anchor="start" x="280" y="-113.8" font-family="Helvetica,sans-Serif" font-size="11.00" fill="#000000">&lt; 2</text>
<polygon fill="#ffffff" stroke="transparent" points="334,-107.7 334,-126.7 382,-126.7 382,-107.7 334,-107.7"/>
<polygon fill="none" stroke="#000000" points="334,-107.7 334,-126.7 382,-126.7 382,-107.7 334,-107.7"/>
<text text-anchor="start" x="372.8862" y="-113.8" font-family="Helvetica,sans-Serif" font-size="11.00" fill="#000000"> &#160;</text>
<polygon fill="#ffffff" stroke="transparent" points="382,-107.7 382,-126.7 449,-126.7 449,-107.7 382,-107.7"/>
<polygon fill="none" stroke="#000000" points="382,-107.7 382,-126.7 449,-126.7 449,-107.7 382,-107.7"/>
<text text-anchor="start" x="430.4053" y="-113.8" font-family="Helvetica,sans-Serif" font-size="11.00" fill="#000000">2 &gt;</text>
<polygon fill="none" stroke="#000000" stroke-width="2" points="276,-106.7 276,-282.7 450,-282.7 450,-106.7 276,-106.7"/>
</a>
</g>
</g>
<!-- encontro&#45;&gt;grupo -->
<g id="edge1" class="edge">
<title>encontro:w&#45;&gt;grupo:e</title>
<path fill="none" stroke="#000000" d="M502.0979,-166.1374C474.1459,-182.0395 491.399,-247.7 449,-247.7"/>
<polygon fill="#000000" stroke="#000000" points="508.7186,-164.5573 517.3358,-166.2016 512.6093,-163.6286 516.5,-162.7 516.5,-162.7 516.5,-162.7 512.6093,-163.6286 515.6642,-159.1984 508.7186,-164.5573 508.7186,-164.5573"/>
<ellipse fill="none" stroke="#000000" cx="505.606" cy="-165.3002" rx="3.2" ry="3.2"/>
</g>
<!-- usuario -->
<g id="node3" class="node">
<title>usuario</title>
<g id="a_node3"><a xlink:href="../../tables/usuario.html" xlink:title="usuario" target="_top">
<polygon fill="#ffffff" stroke="transparent" points="144,-75.2 144,-268.2 226,-268.2 226,-75.2 144,-75.2"/>
<polygon fill="#f5f5f5" stroke="transparent" points="144,-244.7 144,-267.7 226,-267.7 226,-244.7 144,-244.7"/>
<polygon fill="none" stroke="#000000" points="144,-244.7 144,-267.7 226,-267.7 226,-244.7 144,-244.7"/>
<text text-anchor="start" x="149" y="-253.3" font-family="Helvetica,sans-Serif" font-weight="bold" font-size="11.00" fill="#000000">usuario</text>
<text text-anchor="start" x="191.5219" y="-252.8" font-family="Helvetica,sans-Serif" font-size="11.00" fill="#000000">[table]</text>
<polygon fill="none" stroke="#000000" points="144,-222.7 144,-244.7 226,-244.7 226,-222.7 144,-222.7"/>
<image xlink:href="../../images/primaryKeys.png" width="11px" height="12px" preserveAspectRatio="xMinYMin meet" x="149" y="-239.7"/>
<text text-anchor="start" x="166" y="-229.8" font-family="Helvetica,sans-Serif" font-size="11.00" fill="#000000">id</text>
<polygon fill="#ffffff" stroke="transparent" points="144,-200.7 144,-222.7 226,-222.7 226,-200.7 144,-200.7"/>
<polygon fill="none" stroke="#000000" points="144,-200.7 144,-222.7 226,-222.7 226,-200.7 144,-200.7"/>
<text text-anchor="start" x="166" y="-207.8" font-family="Helvetica,sans-Serif" font-size="11.00" fill="#000000">matricula</text>
<polygon fill="#ffffff" stroke="transparent" points="144,-178.7 144,-200.7 226,-200.7 226,-178.7 144,-178.7"/>
<polygon fill="none" stroke="#000000" points="144,-178.7 144,-200.7 226,-200.7 226,-178.7 144,-178.7"/>
<text text-anchor="start" x="166" y="-185.8" font-family="Helvetica,sans-Serif" font-size="11.00" fill="#000000">email</text>
<polygon fill="#ffffff" stroke="transparent" points="144,-156.7 144,-178.7 226,-178.7 226,-156.7 144,-156.7"/>
<polygon fill="none" stroke="#000000" points="144,-156.7 144,-178.7 226,-178.7 226,-156.7 144,-156.7"/>
<text text-anchor="start" x="166" y="-163.8" font-family="Helvetica,sans-Serif" font-size="11.00" fill="#000000">nome</text>
<polygon fill="#ffffff" stroke="transparent" points="144,-134.7 144,-156.7 226,-156.7 226,-134.7 144,-134.7"/>
<polygon fill="none" stroke="#000000" points="144,-134.7 144,-156.7 226,-156.7 226,-134.7 144,-134.7"/>
<text text-anchor="start" x="166" y="-141.8" font-family="Helvetica,sans-Serif" font-size="11.00" fill="#000000">siape</text>
<polygon fill="none" stroke="#000000" points="144,-112.7 144,-134.7 226,-134.7 226,-112.7 144,-112.7"/>
<image xlink:href="../../images/foreignKeys.png" width="11px" height="12px" preserveAspectRatio="xMinYMin meet" x="149" y="-129.7"/>
<text text-anchor="start" x="166" y="-119.8" font-family="Helvetica,sans-Serif" font-size="11.00" fill="#000000">id_curso</text>
<polygon fill="none" stroke="#000000" points="144,-93.7 144,-112.7 226,-112.7 226,-93.7 144,-93.7"/>
<text text-anchor="start" x="147" y="-99.8" font-family="Helvetica,sans-Serif" font-size="11.00" fill="#000000">...</text>
<polygon fill="#ffffff" stroke="transparent" points="144,-74.7 144,-93.7 179,-93.7 179,-74.7 144,-74.7"/>
<polygon fill="none" stroke="#000000" points="144,-74.7 144,-93.7 179,-93.7 179,-74.7 144,-74.7"/>
<text text-anchor="start" x="147" y="-80.8" font-family="Helvetica,sans-Serif" font-size="11.00" fill="#000000">&lt; 1</text>
<polygon fill="#ffffff" stroke="transparent" points="179,-74.7 179,-93.7 198,-93.7 198,-74.7 179,-74.7"/>
<polygon fill="none" stroke="#000000" points="179,-74.7 179,-93.7 198,-93.7 198,-74.7 179,-74.7"/>
<text text-anchor="start" x="188.8862" y="-80.8" font-family="Helvetica,sans-Serif" font-size="11.00" fill="#000000"> &#160;</text>
<polygon fill="#ffffff" stroke="transparent" points="198,-74.7 198,-93.7 226,-93.7 226,-74.7 198,-74.7"/>
<polygon fill="none" stroke="#000000" points="198,-74.7 198,-93.7 226,-93.7 226,-74.7 198,-74.7"/>
<text text-anchor="start" x="207.4053" y="-80.8" font-family="Helvetica,sans-Serif" font-size="11.00" fill="#000000">6 &gt;</text>
</a>
</g>
</g>
<!-- encontro&#45;&gt;usuario -->
<g id="edge2" class="edge">
<title>encontro:w&#45;&gt;usuario:e</title>
<path fill="none" stroke="#000000" d="M501.9163,-96.3043C401.0552,-90.8266 351.8251,-31.2821 267,-94.7 215.414,-133.2672 290.4092,-233.7 226,-233.7"/>
<polygon fill="#000000" stroke="#000000" points="508.5029,-96.483 516.4023,-100.2987 512.5015,-96.5915 516.5,-96.7 516.5,-96.7 516.5,-96.7 512.5015,-96.5915 516.5977,-93.1013 508.5029,-96.483 508.5029,-96.483"/>
<ellipse fill="none" stroke="#000000" cx="505.3041" cy="-96.3962" rx="3.2" ry="3.2"/>
</g>
<!-- grupo&#45;&gt;usuario -->
<g id="edge4" class="edge">
<title>grupo:w&#45;&gt;usuario:e</title>
<path fill="none" stroke="#000000" d="M263.0503,-164.329C244.2607,-180.5294 259.8581,-233.7 226,-233.7"/>
<polygon fill="#000000" stroke="#000000" points="269.4071,-162.2196 278.1338,-163.1168 273.2036,-160.9598 277,-159.7 277,-159.7 277,-159.7 273.2036,-160.9598 275.8662,-156.2832 269.4071,-162.2196 269.4071,-162.2196"/>
<ellipse fill="none" stroke="#000000" cx="266.37" cy="-163.2275" rx="3.2" ry="3.2"/>
</g>
<!-- curso -->
<g id="node4" class="node">
<title>curso</title>
<g id="a_node4"><a xlink:href="../../tables/curso.html" xlink:title="curso" target="_top">
<polygon fill="#ffffff" stroke="transparent" points="8,-38.2 8,-121.2 95,-121.2 95,-38.2 8,-38.2"/>
<polygon fill="#f5f5f5" stroke="transparent" points="8.5,-97.7 8.5,-120.7 95.5,-120.7 95.5,-97.7 8.5,-97.7"/>
<polygon fill="none" stroke="#000000" points="8.5,-97.7 8.5,-120.7 95.5,-120.7 95.5,-97.7 8.5,-97.7"/>
<text text-anchor="start" x="13.5" y="-106.3" font-family="Helvetica,sans-Serif" font-weight="bold" font-size="11.00" fill="#000000">curso</text>
<text text-anchor="start" x="60.5437" y="-105.8" font-family="Helvetica,sans-Serif" font-size="11.00" fill="#000000">[table]</text>
<polygon fill="none" stroke="#000000" points="8.5,-75.7 8.5,-97.7 95.5,-97.7 95.5,-75.7 8.5,-75.7"/>
<image xlink:href="../../images/primaryKeys.png" width="11px" height="12px" preserveAspectRatio="xMinYMin meet" x="13.5" y="-92.7"/>
<text text-anchor="start" x="28.5" y="-82.8" font-family="Helvetica,sans-Serif" font-size="11.00" fill="#000000">id</text>
<polygon fill="none" stroke="#000000" points="8.5,-56.7 8.5,-75.7 95.5,-75.7 95.5,-56.7 8.5,-56.7"/>
<text text-anchor="start" x="11.5" y="-62.8" font-family="Helvetica,sans-Serif" font-size="11.00" fill="#000000">...</text>
<polygon fill="#ffffff" stroke="transparent" points="8.5,-37.7 8.5,-56.7 41.5,-56.7 41.5,-37.7 8.5,-37.7"/>
<polygon fill="none" stroke="#000000" points="8.5,-37.7 8.5,-56.7 41.5,-56.7 41.5,-37.7 8.5,-37.7"/>
<text text-anchor="start" x="11.5" y="-43.8" font-family="Helvetica,sans-Serif" font-size="11.00" fill="#000000"> &#160;</text>
<polygon fill="#ffffff" stroke="transparent" points="41.5,-37.7 41.5,-56.7 63.5,-56.7 63.5,-37.7 41.5,-37.7"/>
<polygon fill="none" stroke="#000000" points="41.5,-37.7 41.5,-56.7 63.5,-56.7 63.5,-37.7 41.5,-37.7"/>
<text text-anchor="start" x="54.3862" y="-43.8" font-family="Helvetica,sans-Serif" font-size="11.00" fill="#000000"> &#160;</text>
<polygon fill="#ffffff" stroke="transparent" points="63.5,-37.7 63.5,-56.7 95.5,-56.7 95.5,-37.7 63.5,-37.7"/>
<polygon fill="none" stroke="#000000" points="63.5,-37.7 63.5,-56.7 95.5,-56.7 95.5,-37.7 63.5,-37.7"/>
<text text-anchor="start" x="76.9053" y="-43.8" font-family="Helvetica,sans-Serif" font-size="11.00" fill="#000000">3 &gt;</text>
</a>
</g>
</g>
<!-- grupo&#45;&gt;curso -->
<g id="edge3" class="edge">
<title>grupo:w&#45;&gt;curso:e</title>
<path fill="none" stroke="#000000" d="M262.71,-133.3431C246.972,-120.0817 261.0728,-80.1735 234,-64.7 196.1851,-43.087 178.2143,-53.9745 136,-64.7 116.1465,-69.7442 115.9843,-86.7 95.5,-86.7"/>
<polygon fill="#000000" stroke="#000000" points="269.3478,-135.3669 275.9501,-141.1435 273.1739,-136.5334 277,-137.7 277,-137.7 277,-137.7 273.1739,-136.5334 278.0499,-134.2565 269.3478,-135.3669 269.3478,-135.3669"/>
<ellipse fill="none" stroke="#000000" cx="266.2869" cy="-134.4336" rx="3.2" ry="3.2"/>
</g>
<!-- usuario&#45;&gt;curso -->
<g id="edge5" class="edge">
<title>usuario:w&#45;&gt;curso:e</title>
<path fill="none" stroke="#000000" d="M130.2341,-119.1631C117.821,-109.283 116.6813,-86.7 95.5,-86.7"/>
<polygon fill="#000000" stroke="#000000" points="136.402,-121.1958 142.8731,-127.1191 140.201,-122.4479 144,-123.7 144,-123.7 144,-123.7 140.201,-122.4479 145.1269,-120.2809 136.402,-121.1958 136.402,-121.1958"/>
<ellipse fill="none" stroke="#000000" cx="133.3628" cy="-120.1942" rx="3.2" ry="3.2"/>
</g>
<!-- usuario_grupo -->
<g id="node5" class="node">
<title>usuario_grupo</title>
<g id="a_node5"><a xlink:href="../../tables/usuario_grupo.html" xlink:title="usuario_grupo" target="_top">
<polygon fill="#ffffff" stroke="transparent" points="500,-247.7 500,-333.7 623,-333.7 623,-247.7 500,-247.7"/>
<polygon fill="#f5f5f5" stroke="transparent" points="500.5,-310.7 500.5,-333.7 623.5,-333.7 623.5,-310.7 500.5,-310.7"/>
<polygon fill="none" stroke="#000000" points="500.5,-310.7 500.5,-333.7 623.5,-333.7 623.5,-310.7 500.5,-310.7"/>
<text text-anchor="start" x="505.5" y="-319.3" font-family="Helvetica,sans-Serif" font-weight="bold" font-size="11.00" fill="#000000">usuario_grupo</text>
<text text-anchor="start" x="589.0219" y="-318.8" font-family="Helvetica,sans-Serif" font-size="11.00" fill="#000000">[table]</text>
<polygon fill="none" stroke="#000000" points="500.5,-288.7 500.5,-310.7 623.5,-310.7 623.5,-288.7 500.5,-288.7"/>
<image xlink:href="../../images/foreignKeys.png" width="11px" height="12px" preserveAspectRatio="xMinYMin meet" x="505.5" y="-305.7"/>
<text text-anchor="start" x="529.5" y="-295.8" font-family="Helvetica,sans-Serif" font-size="11.00" fill="#000000">id_usuario</text>
<polygon fill="none" stroke="#000000" points="500.5,-266.7 500.5,-288.7 623.5,-288.7 623.5,-266.7 500.5,-266.7"/>
<image xlink:href="../../images/foreignKeys.png" width="11px" height="12px" preserveAspectRatio="xMinYMin meet" x="505.5" y="-283.7"/>
<text text-anchor="start" x="529.5" y="-273.8" font-family="Helvetica,sans-Serif" font-size="11.00" fill="#000000">id_grupo</text>
<polygon fill="#ffffff" stroke="transparent" points="500.5,-247.7 500.5,-266.7 560.5,-266.7 560.5,-247.7 500.5,-247.7"/>
<polygon fill="none" stroke="#000000" points="500.5,-247.7 500.5,-266.7 560.5,-266.7 560.5,-247.7 500.5,-247.7"/>
<text text-anchor="start" x="503.5" y="-253.8" font-family="Helvetica,sans-Serif" font-size="11.00" fill="#000000">&lt; 2</text>
<polygon fill="#ffffff" stroke="transparent" points="560.5,-247.7 560.5,-266.7 591.5,-266.7 591.5,-247.7 560.5,-247.7"/>
<polygon fill="none" stroke="#000000" points="560.5,-247.7 560.5,-266.7 591.5,-266.7 591.5,-247.7 560.5,-247.7"/>
<text text-anchor="start" x="582.3862" y="-253.8" font-family="Helvetica,sans-Serif" font-size="11.00" fill="#000000"> &#160;</text>
<polygon fill="#ffffff" stroke="transparent" points="591.5,-247.7 591.5,-266.7 623.5,-266.7 623.5,-247.7 591.5,-247.7"/>
<polygon fill="none" stroke="#000000" points="591.5,-247.7 591.5,-266.7 623.5,-266.7 623.5,-247.7 591.5,-247.7"/>
<text text-anchor="start" x="614.3862" y="-253.8" font-family="Helvetica,sans-Serif" font-size="11.00" fill="#000000"> &#160;</text>
</a>
</g>
</g>
<!-- usuario_grupo&#45;&gt;grupo -->
<g id="edge6" class="edge">
<title>usuario_grupo:w&#45;&gt;grupo:e</title>
<path fill="none" stroke="#000000" d="M486.5458,-274.0214C473.3193,-266.0105 469.6947,-247.7 449,-247.7"/>
<polygon fill="#000000" stroke="#000000" points="492.7643,-275.6607 499.5823,-281.1811 496.6321,-276.6803 500.5,-277.7 500.5,-277.7 500.5,-277.7 496.6321,-276.6803 501.4177,-274.2189 492.7643,-275.6607 492.7643,-275.6607"/>
<ellipse fill="none" stroke="#000000" cx="489.67" cy="-274.8449" rx="3.2" ry="3.2"/>
</g>
<!-- usuario_grupo&#45;&gt;usuario -->
<g id="edge7" class="edge">
<title>usuario_grupo:w&#45;&gt;usuario:e</title>
<path fill="none" stroke="#000000" d="M486.0337,-299.9924C392.8827,-303.7695 353.7252,-342.1024 267,-294.7 238.3363,-279.033 258.6659,-233.7 226,-233.7"/>
<polygon fill="#000000" stroke="#000000" points="492.5016,-299.8617 500.5728,-303.2993 496.5008,-299.7809 500.5,-299.7 500.5,-299.7 500.5,-299.7 496.5008,-299.7809 500.4272,-296.1007 492.5016,-299.8617 492.5016,-299.8617"/>
<ellipse fill="none" stroke="#000000" cx="489.3023" cy="-299.9264" rx="3.2" ry="3.2"/>
</g>
</g>
</svg>
