<?xml version="1.0" encoding="UTF-8" standalone="no"?>
<!DOCTYPE svg PUBLIC "-//W3C//DTD SVG 1.1//EN"
 "http://www.w3.org/Graphics/SVG/1.1/DTD/svg11.dtd">
<!-- Generated by graphviz version 2.40.1 (20161225.0304)
 -->
<!-- Title: twoDegreesRelationshipsDiagram Pages: 1 -->
<svg width="809pt" height="475pt"
 viewBox="0.00 0.00 809.00 474.77" xmlns="http://www.w3.org/2000/svg" xmlns:xlink="http://www.w3.org/1999/xlink">
<g id="graph0" class="graph" transform="scale(1 1) rotate(0) translate(4 470.7713)">
<title>twoDegreesRelationshipsDiagram</title>
<polygon fill="#ffffff" stroke="transparent" points="-4,4 -4,-470.7713 805,-470.7713 805,4 -4,4"/>
<text text-anchor="middle" x="72.4936" y="-7.3" font-family="Helvetica,sans-Serif" font-size="11.00" fill="#000000">Generated by SchemaSpy</text>
<!-- agendamentos -->
<g id="node1" class="node">
<title>agendamentos</title>
<g id="a_node1"><a xlink:href="../../tables/agendamentos.html" xlink:title="agendamentos" target="_top">
<polygon fill="#ffffff" stroke="transparent" points="670,-240.2713 670,-301.2713 793,-301.2713 793,-240.2713 670,-240.2713"/>
<polygon fill="#f5f5f5" stroke="transparent" points="670.5,-277.7713 670.5,-300.7713 793.5,-300.7713 793.5,-277.7713 670.5,-277.7713"/>
<polygon fill="none" stroke="#000000" points="670.5,-277.7713 670.5,-300.7713 793.5,-300.7713 793.5,-277.7713 670.5,-277.7713"/>
<text text-anchor="start" x="675.5" y="-286.3713" font-family="Helvetica,sans-Serif" font-weight="bold" font-size="11.00" fill="#000000">agendamentos</text>
<text text-anchor="start" x="759.0219" y="-285.8713" font-family="Helvetica,sans-Serif" font-size="11.00" fill="#000000">[table]</text>
<polygon fill="none" stroke="#000000" points="670.5,-258.7713 670.5,-277.7713 793.5,-277.7713 793.5,-258.7713 670.5,-258.7713"/>
<text text-anchor="start" x="673.5" y="-264.8713" font-family="Helvetica,sans-Serif" font-size="11.00" fill="#000000">...</text>
<polygon fill="#ffffff" stroke="transparent" points="670.5,-239.7713 670.5,-258.7713 730.5,-258.7713 730.5,-239.7713 670.5,-239.7713"/>
<polygon fill="none" stroke="#000000" points="670.5,-239.7713 670.5,-258.7713 730.5,-258.7713 730.5,-239.7713 670.5,-239.7713"/>
<text text-anchor="start" x="673.5" y="-245.8713" font-family="Helvetica,sans-Serif" font-size="11.00" fill="#000000">&lt; 2</text>
<polygon fill="#ffffff" stroke="transparent" points="730.5,-239.7713 730.5,-258.7713 761.5,-258.7713 761.5,-239.7713 730.5,-239.7713"/>
<polygon fill="none" stroke="#000000" points="730.5,-239.7713 730.5,-258.7713 761.5,-258.7713 761.5,-239.7713 730.5,-239.7713"/>
<text text-anchor="start" x="752.3862" y="-245.8713" font-family="Helvetica,sans-Serif" font-size="11.00" fill="#000000"> &#160;</text>
<polygon fill="#ffffff" stroke="transparent" points="761.5,-239.7713 761.5,-258.7713 793.5,-258.7713 793.5,-239.7713 761.5,-239.7713"/>
<polygon fill="none" stroke="#000000" points="761.5,-239.7713 761.5,-258.7713 793.5,-258.7713 793.5,-239.7713 761.5,-239.7713"/>
<text text-anchor="start" x="784.3862" y="-245.8713" font-family="Helvetica,sans-Serif" font-size="11.00" fill="#000000"> &#160;</text>
</a>
</g>
</g>
<!-- encontros -->
<g id="node2" class="node">
<title>encontros</title>
<g id="a_node2"><a xlink:href="../../tables/encontros.html" xlink:title="encontros" target="_top">
<polygon fill="#ffffff" stroke="transparent" points="511,-175.2713 511,-302.2713 608,-302.2713 608,-175.2713 511,-175.2713"/>
<polygon fill="#f5f5f5" stroke="transparent" points="511.5,-278.7713 511.5,-301.7713 608.5,-301.7713 608.5,-278.7713 511.5,-278.7713"/>
<polygon fill="none" stroke="#000000" points="511.5,-278.7713 511.5,-301.7713 608.5,-301.7713 608.5,-278.7713 511.5,-278.7713"/>
<text text-anchor="start" x="516.5" y="-287.3713" font-family="Helvetica,sans-Serif" font-weight="bold" font-size="11.00" fill="#000000">encontros</text>
<text text-anchor="start" x="574.0219" y="-286.8713" font-family="Helvetica,sans-Serif" font-size="11.00" fill="#000000">[table]</text>
<polygon fill="none" stroke="#000000" points="511.5,-256.7713 511.5,-278.7713 608.5,-278.7713 608.5,-256.7713 511.5,-256.7713"/>
<image xlink:href="../../images/primaryKeys.png" width="11px" height="12px" preserveAspectRatio="xMinYMin meet" x="516.5" y="-273.771"/>
<text text-anchor="start" x="540.5" y="-263.8713" font-family="Helvetica,sans-Serif" font-size="11.00" fill="#000000">id</text>
<polygon fill="none" stroke="#000000" points="511.5,-234.7713 511.5,-256.7713 608.5,-256.7713 608.5,-234.7713 511.5,-234.7713"/>
<image xlink:href="../../images/foreignKeys.png" width="11px" height="12px" preserveAspectRatio="xMinYMin meet" x="516.5" y="-251.771"/>
<text text-anchor="start" x="540.5" y="-241.8713" font-family="Helvetica,sans-Serif" font-size="11.00" fill="#000000">id_grupo</text>
<polygon fill="none" stroke="#000000" points="511.5,-212.7713 511.5,-234.7713 608.5,-234.7713 608.5,-212.7713 511.5,-212.7713"/>
<image xlink:href="../../images/foreignKeys.png" width="11px" height="12px" preserveAspectRatio="xMinYMin meet" x="516.5" y="-229.771"/>
<text text-anchor="start" x="540.5" y="-219.8713" font-family="Helvetica,sans-Serif" font-size="11.00" fill="#000000">id_turma</text>
<polygon fill="none" stroke="#000000" points="511.5,-193.7713 511.5,-212.7713 608.5,-212.7713 608.5,-193.7713 511.5,-193.7713"/>
<text text-anchor="start" x="514.5" y="-199.8713" font-family="Helvetica,sans-Serif" font-size="11.00" fill="#000000">...</text>
<polygon fill="#ffffff" stroke="transparent" points="511.5,-174.7713 511.5,-193.7713 553.5,-193.7713 553.5,-174.7713 511.5,-174.7713"/>
<polygon fill="none" stroke="#000000" points="511.5,-174.7713 511.5,-193.7713 553.5,-193.7713 553.5,-174.7713 511.5,-174.7713"/>
<text text-anchor="start" x="514.5" y="-180.8713" font-family="Helvetica,sans-Serif" font-size="11.00" fill="#000000">&lt; 2</text>
<polygon fill="#ffffff" stroke="transparent" points="553.5,-174.7713 553.5,-193.7713 576.5,-193.7713 576.5,-174.7713 553.5,-174.7713"/>
<polygon fill="none" stroke="#000000" points="553.5,-174.7713 553.5,-193.7713 576.5,-193.7713 576.5,-174.7713 553.5,-174.7713"/>
<text text-anchor="start" x="567.3862" y="-180.8713" font-family="Helvetica,sans-Serif" font-size="11.00" fill="#000000"> &#160;</text>
<polygon fill="#ffffff" stroke="transparent" points="576.5,-174.7713 576.5,-193.7713 608.5,-193.7713 608.5,-174.7713 576.5,-174.7713"/>
<polygon fill="none" stroke="#000000" points="576.5,-174.7713 576.5,-193.7713 608.5,-193.7713 608.5,-174.7713 576.5,-174.7713"/>
<text text-anchor="start" x="589.9053" y="-180.8713" font-family="Helvetica,sans-Serif" font-size="11.00" fill="#000000">2 &gt;</text>
</a>
</g>
</g>
<!-- agendamentos&#45;&gt;encontros -->
<g id="edge1" class="edge">
<title>agendamentos:w&#45;&gt;encontros:e</title>
<path fill="none" stroke="#000000" d="M655.92,-267.7713C639.2931,-267.7713 630.4583,-267.7713 608.5,-267.7713"/>
<polygon fill="#000000" stroke="#000000" points="662.5,-267.7713 670.5,-271.3713 666.5,-267.7713 670.5,-267.7713 670.5,-267.7713 670.5,-267.7713 666.5,-267.7713 670.5,-264.1713 662.5,-267.7713 662.5,-267.7713"/>
<ellipse fill="none" stroke="#000000" cx="659.3" cy="-267.7713" rx="3.2" ry="3.2"/>
</g>
<!-- grupos -->
<g id="node3" class="node">
<title>grupos</title>
<g id="a_node3"><a xlink:href="../../tables/grupos.html" xlink:title="grupos" target="_top">
<polygon fill="#ffffff" stroke="transparent" points="273,-284.7713 273,-462.7713 449,-462.7713 449,-284.7713 273,-284.7713"/>
<polygon fill="#f5f5f5" stroke="transparent" points="275,-437.7713 275,-460.7713 447,-460.7713 447,-437.7713 275,-437.7713"/>
<polygon fill="none" stroke="#000000" points="275,-437.7713 275,-460.7713 447,-460.7713 447,-437.7713 275,-437.7713"/>
<text text-anchor="start" x="280" y="-446.3713" font-family="Helvetica,sans-Serif" font-weight="bold" font-size="11.00" fill="#000000">grupos</text>
<text text-anchor="start" x="412.0437" y="-445.8713" font-family="Helvetica,sans-Serif" font-size="11.00" fill="#000000">[table]</text>
<polygon fill="none" stroke="#000000" points="275,-415.7713 275,-437.7713 380,-437.7713 380,-415.7713 275,-415.7713"/>
<image xlink:href="../../images/primaryKeys.png" width="11px" height="12px" preserveAspectRatio="xMinYMin meet" x="280" y="-432.771"/>
<text text-anchor="start" x="295" y="-422.8713" font-family="Helvetica,sans-Serif" font-size="11.00" fill="#000000">id</text>
<polygon fill="none" stroke="#000000" points="380,-415.7713 380,-437.7713 447,-437.7713 447,-415.7713 380,-415.7713"/>
<text text-anchor="start" x="383" y="-423.4713" font-family="Helvetica,sans-Serif" font-size="11.00" fill="#000000">serial[10]</text>
<polygon fill="none" stroke="#000000" points="275,-393.7713 275,-415.7713 380,-415.7713 380,-393.7713 275,-393.7713"/>
<image xlink:href="../../images/foreignKeys.png" width="11px" height="12px" preserveAspectRatio="xMinYMin meet" x="280" y="-410.771"/>
<text text-anchor="start" x="295" y="-400.8713" font-family="Helvetica,sans-Serif" font-size="11.00" fill="#000000">id_curso</text>
<polygon fill="none" stroke="#000000" points="380,-393.7713 380,-415.7713 447,-415.7713 447,-393.7713 380,-393.7713"/>
<text text-anchor="start" x="383" y="-401.4713" font-family="Helvetica,sans-Serif" font-size="11.00" fill="#000000">int4[10]</text>
<polygon fill="none" stroke="#000000" points="275,-371.7713 275,-393.7713 380,-393.7713 380,-371.7713 275,-371.7713"/>
<image xlink:href="../../images/foreignKeys.png" width="11px" height="12px" preserveAspectRatio="xMinYMin meet" x="280" y="-388.771"/>
<text text-anchor="start" x="295" y="-378.8713" font-family="Helvetica,sans-Serif" font-size="11.00" fill="#000000">id_user</text>
<polygon fill="none" stroke="#000000" points="380,-371.7713 380,-393.7713 447,-393.7713 447,-371.7713 380,-371.7713"/>
<text text-anchor="start" x="383" y="-379.4713" font-family="Helvetica,sans-Serif" font-size="11.00" fill="#000000">int4[10]</text>
<polygon fill="none" stroke="#000000" points="275,-349.7713 275,-371.7713 380,-371.7713 380,-349.7713 275,-349.7713"/>
<text text-anchor="start" x="295" y="-356.8713" font-family="Helvetica,sans-Serif" font-size="11.00" fill="#000000">areade_estudo</text>
<polygon fill="none" stroke="#000000" points="380,-349.7713 380,-371.7713 447,-371.7713 447,-349.7713 380,-349.7713"/>
<text text-anchor="start" x="382.9365" y="-357.4713" font-family="Helvetica,sans-Serif" font-size="11.00" fill="#000000">varchar[100]</text>
<polygon fill="#ffffff" stroke="transparent" points="275,-327.7713 275,-349.7713 380,-349.7713 380,-327.7713 275,-327.7713"/>
<polygon fill="none" stroke="#000000" points="275,-327.7713 275,-349.7713 380,-349.7713 380,-327.7713 275,-327.7713"/>
<text text-anchor="start" x="295" y="-334.8713" font-family="Helvetica,sans-Serif" font-size="11.00" fill="#000000">nome</text>
<polygon fill="none" stroke="#000000" points="380,-327.7713 380,-349.7713 447,-349.7713 447,-327.7713 380,-327.7713"/>
<text text-anchor="start" x="382.9365" y="-335.4713" font-family="Helvetica,sans-Serif" font-size="11.00" fill="#000000">varchar[100]</text>
<polygon fill="none" stroke="#000000" points="275,-305.7713 275,-327.7713 380,-327.7713 380,-305.7713 275,-305.7713"/>
<text text-anchor="start" x="295" y="-312.8713" font-family="Helvetica,sans-Serif" font-size="11.00" fill="#000000">descricao</text>
<polygon fill="none" stroke="#000000" points="380,-305.7713 380,-327.7713 447,-327.7713 447,-305.7713 380,-305.7713"/>
<text text-anchor="start" x="382.9365" y="-313.4713" font-family="Helvetica,sans-Serif" font-size="11.00" fill="#000000">varchar[255]</text>
<polygon fill="#ffffff" stroke="transparent" points="275,-286.7713 275,-305.7713 332,-305.7713 332,-286.7713 275,-286.7713"/>
<polygon fill="none" stroke="#000000" points="275,-286.7713 275,-305.7713 332,-305.7713 332,-286.7713 275,-286.7713"/>
<text text-anchor="start" x="278" y="-292.8713" font-family="Helvetica,sans-Serif" font-size="11.00" fill="#000000">&lt; 2</text>
<polygon fill="#ffffff" stroke="transparent" points="332,-286.7713 332,-305.7713 380,-305.7713 380,-286.7713 332,-286.7713"/>
<polygon fill="none" stroke="#000000" points="332,-286.7713 332,-305.7713 380,-305.7713 380,-286.7713 332,-286.7713"/>
<text text-anchor="start" x="370.8862" y="-292.8713" font-family="Helvetica,sans-Serif" font-size="11.00" fill="#000000"> &#160;</text>
<polygon fill="#ffffff" stroke="transparent" points="380,-286.7713 380,-305.7713 447,-305.7713 447,-286.7713 380,-286.7713"/>
<polygon fill="none" stroke="#000000" points="380,-286.7713 380,-305.7713 447,-305.7713 447,-286.7713 380,-286.7713"/>
<text text-anchor="start" x="428.4053" y="-292.8713" font-family="Helvetica,sans-Serif" font-size="11.00" fill="#000000">2 &gt;</text>
<polygon fill="none" stroke="#000000" stroke-width="2" points="274,-285.7713 274,-461.7713 448,-461.7713 448,-285.7713 274,-285.7713"/>
</a>
</g>
</g>
<!-- encontros&#45;&gt;grupos -->
<g id="edge2" class="edge">
<title>encontros:w&#45;&gt;grupos:e</title>
<path fill="none" stroke="#000000" d="M496.9106,-248.0598C439.3729,-269.0122 526.7285,-426.7713 447,-426.7713"/>
<polygon fill="#000000" stroke="#000000" points="503.5966,-247.011 512.0579,-249.3278 507.5483,-246.3912 511.5,-245.7713 511.5,-245.7713 511.5,-245.7713 507.5483,-246.3912 510.9421,-242.2148 503.5966,-247.011 503.5966,-247.011"/>
<ellipse fill="none" stroke="#000000" cx="500.4353" cy="-247.507" rx="3.2" ry="3.2"/>
</g>
<!-- turmas -->
<g id="node4" class="node">
<title>turmas</title>
<g id="a_node4"><a xlink:href="../../tables/turmas.html" xlink:title="turmas" target="_top">
<polygon fill="#ffffff" stroke="transparent" points="321.5,-65.2713 321.5,-126.2713 400.5,-126.2713 400.5,-65.2713 321.5,-65.2713"/>
<polygon fill="#f5f5f5" stroke="transparent" points="322,-102.7713 322,-125.7713 401,-125.7713 401,-102.7713 322,-102.7713"/>
<polygon fill="none" stroke="#000000" points="322,-102.7713 322,-125.7713 401,-125.7713 401,-102.7713 322,-102.7713"/>
<text text-anchor="start" x="327" y="-111.3713" font-family="Helvetica,sans-Serif" font-weight="bold" font-size="11.00" fill="#000000">turmas</text>
<text text-anchor="start" x="366.5219" y="-110.8713" font-family="Helvetica,sans-Serif" font-size="11.00" fill="#000000">[table]</text>
<polygon fill="none" stroke="#000000" points="322,-83.7713 322,-102.7713 401,-102.7713 401,-83.7713 322,-83.7713"/>
<text text-anchor="start" x="325" y="-89.8713" font-family="Helvetica,sans-Serif" font-size="11.00" fill="#000000">...</text>
<polygon fill="#ffffff" stroke="transparent" points="322,-64.7713 322,-83.7713 355,-83.7713 355,-64.7713 322,-64.7713"/>
<polygon fill="none" stroke="#000000" points="322,-64.7713 322,-83.7713 355,-83.7713 355,-64.7713 322,-64.7713"/>
<text text-anchor="start" x="325" y="-70.8713" font-family="Helvetica,sans-Serif" font-size="11.00" fill="#000000">&lt; 2</text>
<polygon fill="#ffffff" stroke="transparent" points="355,-64.7713 355,-83.7713 373,-83.7713 373,-64.7713 355,-64.7713"/>
<polygon fill="none" stroke="#000000" points="355,-64.7713 355,-83.7713 373,-83.7713 373,-64.7713 355,-64.7713"/>
<text text-anchor="start" x="363.8862" y="-70.8713" font-family="Helvetica,sans-Serif" font-size="11.00" fill="#000000"> &#160;</text>
<polygon fill="#ffffff" stroke="transparent" points="373,-64.7713 373,-83.7713 401,-83.7713 401,-64.7713 373,-64.7713"/>
<polygon fill="none" stroke="#000000" points="373,-64.7713 373,-83.7713 401,-83.7713 401,-64.7713 373,-64.7713"/>
<text text-anchor="start" x="382.4053" y="-70.8713" font-family="Helvetica,sans-Serif" font-size="11.00" fill="#000000">2 &gt;</text>
</a>
</g>
</g>
<!-- encontros&#45;&gt;turmas -->
<g id="edge3" class="edge">
<title>encontros:w&#45;&gt;turmas:e</title>
<path fill="none" stroke="#000000" d="M497.1013,-221.9194C440.631,-205.997 471.8134,-92.7713 401,-92.7713"/>
<polygon fill="#000000" stroke="#000000" points="503.5654,-222.7507 511.0408,-227.3419 507.5327,-223.261 511.5,-223.7713 511.5,-223.7713 511.5,-223.7713 507.5327,-223.261 511.9592,-220.2007 503.5654,-222.7507 503.5654,-222.7507"/>
<ellipse fill="none" stroke="#000000" cx="500.3915" cy="-222.3425" rx="3.2" ry="3.2"/>
</g>
<!-- cursos -->
<g id="node5" class="node">
<title>cursos</title>
<g id="a_node5"><a xlink:href="../../tables/cursos.html" xlink:title="cursos" target="_top">
<polygon fill="#ffffff" stroke="transparent" points="8,-146.2713 8,-207.2713 86,-207.2713 86,-146.2713 8,-146.2713"/>
<polygon fill="#f5f5f5" stroke="transparent" points="8,-183.7713 8,-206.7713 86,-206.7713 86,-183.7713 8,-183.7713"/>
<polygon fill="none" stroke="#000000" points="8,-183.7713 8,-206.7713 86,-206.7713 86,-183.7713 8,-183.7713"/>
<text text-anchor="start" x="13" y="-192.3713" font-family="Helvetica,sans-Serif" font-weight="bold" font-size="11.00" fill="#000000">cursos</text>
<text text-anchor="start" x="51.5219" y="-191.8713" font-family="Helvetica,sans-Serif" font-size="11.00" fill="#000000">[table]</text>
<polygon fill="none" stroke="#000000" points="8,-164.7713 8,-183.7713 86,-183.7713 86,-164.7713 8,-164.7713"/>
<text text-anchor="start" x="11" y="-170.8713" font-family="Helvetica,sans-Serif" font-size="11.00" fill="#000000">...</text>
<polygon fill="#ffffff" stroke="transparent" points="8,-145.7713 8,-164.7713 36,-164.7713 36,-145.7713 8,-145.7713"/>
<polygon fill="none" stroke="#000000" points="8,-145.7713 8,-164.7713 36,-164.7713 36,-145.7713 8,-145.7713"/>
<text text-anchor="start" x="11" y="-151.8713" font-family="Helvetica,sans-Serif" font-size="11.00" fill="#000000"> &#160;</text>
<polygon fill="#ffffff" stroke="transparent" points="36,-145.7713 36,-164.7713 56,-164.7713 56,-145.7713 36,-145.7713"/>
<polygon fill="none" stroke="#000000" points="36,-145.7713 36,-164.7713 56,-164.7713 56,-145.7713 36,-145.7713"/>
<text text-anchor="start" x="46.8862" y="-151.8713" font-family="Helvetica,sans-Serif" font-size="11.00" fill="#000000"> &#160;</text>
<polygon fill="#ffffff" stroke="transparent" points="56,-145.7713 56,-164.7713 86,-164.7713 86,-145.7713 56,-145.7713"/>
<polygon fill="none" stroke="#000000" points="56,-145.7713 56,-164.7713 86,-164.7713 86,-145.7713 56,-145.7713"/>
<text text-anchor="start" x="67.4053" y="-151.8713" font-family="Helvetica,sans-Serif" font-size="11.00" fill="#000000">3 &gt;</text>
</a>
</g>
</g>
<!-- grupos&#45;&gt;cursos -->
<g id="edge4" class="edge">
<title>grupos:w&#45;&gt;cursos:e</title>
<path fill="none" stroke="#000000" d="M260.335,-403.9712C160.1941,-393.014 90.8469,-272.2543 61.9989,-211.3996"/>
<polygon fill="#000000" stroke="#000000" points="267.0119,-404.3354 274.8039,-408.3659 271.0059,-404.5533 275,-404.7713 275,-404.7713 275,-404.7713 271.0059,-404.5533 275.1961,-401.1766 267.0119,-404.3354 267.0119,-404.3354"/>
<ellipse fill="none" stroke="#000000" cx="263.8166" cy="-404.161" rx="3.2" ry="3.2"/>
</g>
<!-- usuarios -->
<g id="node6" class="node">
<title>usuarios</title>
<g id="a_node6"><a xlink:href="../../tables/usuarios.html" xlink:title="usuarios" target="_top">
<polygon fill="#ffffff" stroke="transparent" points="135,-146.2713 135,-207.2713 224,-207.2713 224,-146.2713 135,-146.2713"/>
<polygon fill="#f5f5f5" stroke="transparent" points="135.5,-183.7713 135.5,-206.7713 224.5,-206.7713 224.5,-183.7713 135.5,-183.7713"/>
<polygon fill="none" stroke="#000000" points="135.5,-183.7713 135.5,-206.7713 224.5,-206.7713 224.5,-183.7713 135.5,-183.7713"/>
<text text-anchor="start" x="140.5" y="-192.3713" font-family="Helvetica,sans-Serif" font-weight="bold" font-size="11.00" fill="#000000">usuarios</text>
<text text-anchor="start" x="190.0219" y="-191.8713" font-family="Helvetica,sans-Serif" font-size="11.00" fill="#000000">[table]</text>
<polygon fill="none" stroke="#000000" points="135.5,-164.7713 135.5,-183.7713 224.5,-183.7713 224.5,-164.7713 135.5,-164.7713"/>
<text text-anchor="start" x="138.5" y="-170.8713" font-family="Helvetica,sans-Serif" font-size="11.00" fill="#000000">...</text>
<polygon fill="#ffffff" stroke="transparent" points="135.5,-145.7713 135.5,-164.7713 173.5,-164.7713 173.5,-145.7713 135.5,-145.7713"/>
<polygon fill="none" stroke="#000000" points="135.5,-145.7713 135.5,-164.7713 173.5,-164.7713 173.5,-145.7713 135.5,-145.7713"/>
<text text-anchor="start" x="138.5" y="-151.8713" font-family="Helvetica,sans-Serif" font-size="11.00" fill="#000000">&lt; 1</text>
<polygon fill="#ffffff" stroke="transparent" points="173.5,-145.7713 173.5,-164.7713 194.5,-164.7713 194.5,-145.7713 173.5,-145.7713"/>
<polygon fill="none" stroke="#000000" points="173.5,-145.7713 173.5,-164.7713 194.5,-164.7713 194.5,-145.7713 173.5,-145.7713"/>
<text text-anchor="start" x="185.3862" y="-151.8713" font-family="Helvetica,sans-Serif" font-size="11.00" fill="#000000"> &#160;</text>
<polygon fill="#ffffff" stroke="transparent" points="194.5,-145.7713 194.5,-164.7713 224.5,-164.7713 224.5,-145.7713 194.5,-145.7713"/>
<polygon fill="none" stroke="#000000" points="194.5,-145.7713 194.5,-164.7713 224.5,-164.7713 224.5,-145.7713 194.5,-145.7713"/>
<text text-anchor="start" x="205.9053" y="-151.8713" font-family="Helvetica,sans-Serif" font-size="11.00" fill="#000000">6 &gt;</text>
</a>
</g>
</g>
<!-- grupos&#45;&gt;usuarios -->
<g id="edge5" class="edge">
<title>grupos:w&#45;&gt;usuarios:e</title>
<path fill="none" stroke="#000000" d="M263.4558,-373.6623C242.1775,-345.755 209.5321,-260.3875 191.8728,-211.7164"/>
<polygon fill="#000000" stroke="#000000" points="268.7196,-377.8157 272.77,-385.5974 271.8598,-380.2935 275,-382.7713 275,-382.7713 275,-382.7713 271.8598,-380.2935 277.23,-379.9451 268.7196,-377.8157 268.7196,-377.8157"/>
<ellipse fill="none" stroke="#000000" cx="266.2075" cy="-375.8335" rx="3.2" ry="3.2"/>
</g>
<!-- turmas&#45;&gt;cursos -->
<g id="edge9" class="edge">
<title>turmas:w&#45;&gt;cursos:e</title>
<path fill="none" stroke="#000000" d="M307.5319,-92.8967C230.4801,-94.2941 205.7797,-107.4317 127,-135.7713 116.1328,-139.6805 104.8637,-144.7556 94.333,-149.9958"/>
<polygon fill="#000000" stroke="#000000" points="314.0003,-92.8407 322.0312,-96.3711 318.0002,-92.806 322,-92.7713 322,-92.7713 322,-92.7713 318.0002,-92.806 321.9688,-89.1714 314.0003,-92.8407 314.0003,-92.8407"/>
<ellipse fill="none" stroke="#000000" cx="310.8004" cy="-92.8685" rx="3.2" ry="3.2"/>
</g>
<!-- turmas&#45;&gt;usuarios -->
<g id="edge10" class="edge">
<title>turmas:w&#45;&gt;usuarios:e</title>
<path fill="none" stroke="#000000" d="M307.7324,-95.5526C285.3785,-102.8925 252.9387,-123.5008 226.2808,-142.1203"/>
<polygon fill="#000000" stroke="#000000" points="314.1478,-94.302 322.6888,-96.3048 318.0739,-93.5367 322,-92.7713 322,-92.7713 322,-92.7713 318.0739,-93.5367 321.3112,-89.2378 314.1478,-94.302 314.1478,-94.302"/>
<ellipse fill="none" stroke="#000000" cx="311.0069" cy="-94.9143" rx="3.2" ry="3.2"/>
</g>
<!-- usuarios&#45;&gt;cursos -->
<g id="edge15" class="edge">
<title>usuarios:w&#45;&gt;cursos:e</title>
<path fill="none" stroke="#000000" d="M112.2957,-176.7713C106.2589,-176.7713 100.2326,-176.7713 94.4175,-176.7713"/>
<polygon fill="#000000" stroke="#000000" points="118.7518,-176.7713 126.7518,-180.3713 122.7518,-176.7713 126.7518,-176.7713 126.7518,-176.7713 126.7518,-176.7713 122.7518,-176.7713 126.7517,-173.1713 118.7518,-176.7713 118.7518,-176.7713"/>
<ellipse fill="none" stroke="#000000" cx="115.5518" cy="-176.7713" rx="3.2" ry="3.2"/>
</g>
<!-- mensagens -->
<g id="node7" class="node">
<title>mensagens</title>
<g id="a_node7"><a xlink:href="../../tables/mensagens.html" xlink:title="mensagens" target="_top">
<polygon fill="#ffffff" stroke="transparent" points="679,-140.2713 679,-201.2713 784,-201.2713 784,-140.2713 679,-140.2713"/>
<polygon fill="#f5f5f5" stroke="transparent" points="679.5,-177.7713 679.5,-200.7713 784.5,-200.7713 784.5,-177.7713 679.5,-177.7713"/>
<polygon fill="none" stroke="#000000" points="679.5,-177.7713 679.5,-200.7713 784.5,-200.7713 784.5,-177.7713 679.5,-177.7713"/>
<text text-anchor="start" x="684.5" y="-186.3713" font-family="Helvetica,sans-Serif" font-weight="bold" font-size="11.00" fill="#000000">mensagens</text>
<text text-anchor="start" x="750.0219" y="-185.8713" font-family="Helvetica,sans-Serif" font-size="11.00" fill="#000000">[table]</text>
<polygon fill="none" stroke="#000000" points="679.5,-158.7713 679.5,-177.7713 784.5,-177.7713 784.5,-158.7713 679.5,-158.7713"/>
<text text-anchor="start" x="682.5" y="-164.8713" font-family="Helvetica,sans-Serif" font-size="11.00" fill="#000000">...</text>
<polygon fill="#ffffff" stroke="transparent" points="679.5,-139.7713 679.5,-158.7713 730.5,-158.7713 730.5,-139.7713 679.5,-139.7713"/>
<polygon fill="none" stroke="#000000" points="679.5,-139.7713 679.5,-158.7713 730.5,-158.7713 730.5,-139.7713 679.5,-139.7713"/>
<text text-anchor="start" x="682.5" y="-145.8713" font-family="Helvetica,sans-Serif" font-size="11.00" fill="#000000">&lt; 2</text>
<polygon fill="#ffffff" stroke="transparent" points="730.5,-139.7713 730.5,-158.7713 757.5,-158.7713 757.5,-139.7713 730.5,-139.7713"/>
<polygon fill="none" stroke="#000000" points="730.5,-139.7713 730.5,-158.7713 757.5,-158.7713 757.5,-139.7713 730.5,-139.7713"/>
<text text-anchor="start" x="748.3862" y="-145.8713" font-family="Helvetica,sans-Serif" font-size="11.00" fill="#000000"> &#160;</text>
<polygon fill="#ffffff" stroke="transparent" points="757.5,-139.7713 757.5,-158.7713 784.5,-158.7713 784.5,-139.7713 757.5,-139.7713"/>
<polygon fill="none" stroke="#000000" points="757.5,-139.7713 757.5,-158.7713 784.5,-158.7713 784.5,-139.7713 757.5,-139.7713"/>
<text text-anchor="start" x="775.3862" y="-145.8713" font-family="Helvetica,sans-Serif" font-size="11.00" fill="#000000"> &#160;</text>
</a>
</g>
</g>
<!-- mensagens&#45;&gt;encontros -->
<g id="edge6" class="edge">
<title>mensagens:w&#45;&gt;encontros:e</title>
<path fill="none" stroke="#000000" d="M665.124,-170.8737C631.9821,-187.7527 657.2586,-267.7713 608.5,-267.7713"/>
<polygon fill="#000000" stroke="#000000" points="671.68,-169.4589 680.2594,-171.2903 675.59,-168.6151 679.5,-167.7713 679.5,-167.7713 679.5,-167.7713 675.59,-168.6151 678.7406,-164.2523 671.68,-169.4589 671.68,-169.4589"/>
<ellipse fill="none" stroke="#000000" cx="668.552" cy="-170.134" rx="3.2" ry="3.2"/>
</g>
<!-- mensagens&#45;&gt;usuarios -->
<g id="edge7" class="edge">
<title>mensagens:w&#45;&gt;usuarios:e</title>
<path fill="none" stroke="#000000" d="M664.9078,-167.3746C653.033,-166.679 645.68,-165.2663 629,-164.7713 467.2934,-159.9723 426.3847,-153.5013 265,-164.7713 254.3835,-165.5127 243.0792,-166.7658 232.2853,-168.1899"/>
<polygon fill="#000000" stroke="#000000" points="671.503,-167.5538 679.4021,-171.3699 675.5015,-167.6625 679.5,-167.7713 679.5,-167.7713 679.5,-167.7713 675.5015,-167.6625 679.5979,-164.1726 671.503,-167.5538 671.503,-167.5538"/>
<ellipse fill="none" stroke="#000000" cx="668.3041" cy="-167.4668" rx="3.2" ry="3.2"/>
</g>
<!-- token -->
<g id="node8" class="node">
<title>token</title>
<g id="a_node8"><a xlink:href="../../tables/token.html" xlink:title="token" target="_top">
<polygon fill="#ffffff" stroke="transparent" points="325.5,-175.2713 325.5,-236.2713 396.5,-236.2713 396.5,-175.2713 325.5,-175.2713"/>
<polygon fill="#f5f5f5" stroke="transparent" points="326,-212.7713 326,-235.7713 397,-235.7713 397,-212.7713 326,-212.7713"/>
<polygon fill="none" stroke="#000000" points="326,-212.7713 326,-235.7713 397,-235.7713 397,-212.7713 326,-212.7713"/>
<text text-anchor="start" x="331" y="-221.3713" font-family="Helvetica,sans-Serif" font-weight="bold" font-size="11.00" fill="#000000">token</text>
<text text-anchor="start" x="362.5219" y="-220.8713" font-family="Helvetica,sans-Serif" font-size="11.00" fill="#000000">[table]</text>
<polygon fill="none" stroke="#000000" points="326,-193.7713 326,-212.7713 397,-212.7713 397,-193.7713 326,-193.7713"/>
<text text-anchor="start" x="329" y="-199.8713" font-family="Helvetica,sans-Serif" font-size="11.00" fill="#000000">...</text>
<polygon fill="#ffffff" stroke="transparent" points="326,-174.7713 326,-193.7713 360,-193.7713 360,-174.7713 326,-174.7713"/>
<polygon fill="none" stroke="#000000" points="326,-174.7713 326,-193.7713 360,-193.7713 360,-174.7713 326,-174.7713"/>
<text text-anchor="start" x="329" y="-180.8713" font-family="Helvetica,sans-Serif" font-size="11.00" fill="#000000">&lt; 1</text>
<polygon fill="#ffffff" stroke="transparent" points="360,-174.7713 360,-193.7713 378,-193.7713 378,-174.7713 360,-174.7713"/>
<polygon fill="none" stroke="#000000" points="360,-174.7713 360,-193.7713 378,-193.7713 378,-174.7713 360,-174.7713"/>
<text text-anchor="start" x="368.8862" y="-180.8713" font-family="Helvetica,sans-Serif" font-size="11.00" fill="#000000"> &#160;</text>
<polygon fill="#ffffff" stroke="transparent" points="378,-174.7713 378,-193.7713 397,-193.7713 397,-174.7713 378,-174.7713"/>
<polygon fill="none" stroke="#000000" points="378,-174.7713 378,-193.7713 397,-193.7713 397,-174.7713 378,-174.7713"/>
<text text-anchor="start" x="387.8862" y="-180.8713" font-family="Helvetica,sans-Serif" font-size="11.00" fill="#000000"> &#160;</text>
</a>
</g>
</g>
<!-- token&#45;&gt;usuarios -->
<g id="edge8" class="edge">
<title>token:w&#45;&gt;usuarios:e</title>
<path fill="none" stroke="#000000" d="M311.4684,-202.3832C284.2348,-200.9799 255.8034,-195.9771 232.3345,-190.7607"/>
<polygon fill="#000000" stroke="#000000" points="318.0029,-202.5576 325.9039,-206.37 322.0014,-202.6644 326,-202.7713 326,-202.7713 326,-202.7713 322.0014,-202.6644 326.0961,-199.1726 318.0029,-202.5576 318.0029,-202.5576"/>
<ellipse fill="none" stroke="#000000" cx="314.804" cy="-202.4722" rx="3.2" ry="3.2"/>
</g>
<!-- usuario_grupo -->
<g id="node9" class="node">
<title>usuario_grupo</title>
<g id="a_node9"><a xlink:href="../../tables/usuario_grupo.html" xlink:title="usuario_grupo" target="_top">
<polygon fill="#ffffff" stroke="transparent" points="498,-359.2713 498,-420.2713 621,-420.2713 621,-359.2713 498,-359.2713"/>
<polygon fill="#f5f5f5" stroke="transparent" points="498.5,-396.7713 498.5,-419.7713 621.5,-419.7713 621.5,-396.7713 498.5,-396.7713"/>
<polygon fill="none" stroke="#000000" points="498.5,-396.7713 498.5,-419.7713 621.5,-419.7713 621.5,-396.7713 498.5,-396.7713"/>
<text text-anchor="start" x="503.5" y="-405.3713" font-family="Helvetica,sans-Serif" font-weight="bold" font-size="11.00" fill="#000000">usuario_grupo</text>
<text text-anchor="start" x="587.0219" y="-404.8713" font-family="Helvetica,sans-Serif" font-size="11.00" fill="#000000">[table]</text>
<polygon fill="none" stroke="#000000" points="498.5,-377.7713 498.5,-396.7713 621.5,-396.7713 621.5,-377.7713 498.5,-377.7713"/>
<text text-anchor="start" x="501.5" y="-383.8713" font-family="Helvetica,sans-Serif" font-size="11.00" fill="#000000">...</text>
<polygon fill="#ffffff" stroke="transparent" points="498.5,-358.7713 498.5,-377.7713 558.5,-377.7713 558.5,-358.7713 498.5,-358.7713"/>
<polygon fill="none" stroke="#000000" points="498.5,-358.7713 498.5,-377.7713 558.5,-377.7713 558.5,-358.7713 498.5,-358.7713"/>
<text text-anchor="start" x="501.5" y="-364.8713" font-family="Helvetica,sans-Serif" font-size="11.00" fill="#000000">&lt; 2</text>
<polygon fill="#ffffff" stroke="transparent" points="558.5,-358.7713 558.5,-377.7713 589.5,-377.7713 589.5,-358.7713 558.5,-358.7713"/>
<polygon fill="none" stroke="#000000" points="558.5,-358.7713 558.5,-377.7713 589.5,-377.7713 589.5,-358.7713 558.5,-358.7713"/>
<text text-anchor="start" x="580.3862" y="-364.8713" font-family="Helvetica,sans-Serif" font-size="11.00" fill="#000000"> &#160;</text>
<polygon fill="#ffffff" stroke="transparent" points="589.5,-358.7713 589.5,-377.7713 621.5,-377.7713 621.5,-358.7713 589.5,-358.7713"/>
<polygon fill="none" stroke="#000000" points="589.5,-358.7713 589.5,-377.7713 621.5,-377.7713 621.5,-358.7713 589.5,-358.7713"/>
<text text-anchor="start" x="612.3862" y="-364.8713" font-family="Helvetica,sans-Serif" font-size="11.00" fill="#000000"> &#160;</text>
</a>
</g>
</g>
<!-- usuario_grupo&#45;&gt;grupos -->
<g id="edge11" class="edge">
<title>usuario_grupo:w&#45;&gt;grupos:e</title>
<path fill="none" stroke="#000000" d="M475.5728,-423.6396C466.0734,-425.5859 456.4209,-426.7713 447,-426.7713"/>
<polygon fill="#000000" stroke="#000000" points="482.051,-422.0561 490.677,-423.6534 485.9366,-421.1062 489.8222,-420.1564 489.8222,-420.1564 489.8222,-420.1564 485.9366,-421.1062 488.9673,-416.6594 482.051,-422.0561 482.051,-422.0561"/>
<ellipse fill="none" stroke="#000000" cx="478.9425" cy="-422.8159" rx="3.2" ry="3.2"/>
</g>
<!-- usuario_grupo&#45;&gt;usuarios -->
<g id="edge12" class="edge">
<title>usuario_grupo:w&#45;&gt;usuarios:e</title>
<path fill="none" stroke="#000000" d="M518.0628,-344.1524C508.7907,-333.8641 499.0295,-322.9699 490,-312.7713 475.1722,-296.0236 476.6274,-285.5003 457,-274.7713 381.3315,-233.408 343.901,-281.5747 265,-246.7713 246.0435,-238.4095 227.8644,-224.6445 213.1806,-211.5234"/>
<polygon fill="#000000" stroke="#000000" points="522.5126,-349.0797 525.2026,-357.4298 525.1935,-352.0483 527.8744,-355.0169 527.8744,-355.0169 527.8744,-355.0169 525.1935,-352.0483 530.5462,-352.6041 522.5126,-349.0797 522.5126,-349.0797"/>
<ellipse fill="none" stroke="#000000" cx="520.3678" cy="-346.7048" rx="3.2" ry="3.2"/>
</g>
<!-- usuario_turma -->
<g id="node10" class="node">
<title>usuario_turma</title>
<g id="a_node10"><a xlink:href="../../tables/usuario_turma.html" xlink:title="usuario_turma" target="_top">
<polygon fill="#ffffff" stroke="transparent" points="498.5,-39.2713 498.5,-100.2713 620.5,-100.2713 620.5,-39.2713 498.5,-39.2713"/>
<polygon fill="#f5f5f5" stroke="transparent" points="498.5,-76.7713 498.5,-99.7713 620.5,-99.7713 620.5,-76.7713 498.5,-76.7713"/>
<polygon fill="none" stroke="#000000" points="498.5,-76.7713 498.5,-99.7713 620.5,-99.7713 620.5,-76.7713 498.5,-76.7713"/>
<text text-anchor="start" x="503.5" y="-85.3713" font-family="Helvetica,sans-Serif" font-weight="bold" font-size="11.00" fill="#000000">usuario_turma</text>
<text text-anchor="start" x="586.0219" y="-84.8713" font-family="Helvetica,sans-Serif" font-size="11.00" fill="#000000">[table]</text>
<polygon fill="none" stroke="#000000" points="498.5,-57.7713 498.5,-76.7713 620.5,-76.7713 620.5,-57.7713 498.5,-57.7713"/>
<text text-anchor="start" x="501.5" y="-63.8713" font-family="Helvetica,sans-Serif" font-size="11.00" fill="#000000">...</text>
<polygon fill="#ffffff" stroke="transparent" points="498.5,-38.7713 498.5,-57.7713 557.5,-57.7713 557.5,-38.7713 498.5,-38.7713"/>
<polygon fill="none" stroke="#000000" points="498.5,-38.7713 498.5,-57.7713 557.5,-57.7713 557.5,-38.7713 498.5,-38.7713"/>
<text text-anchor="start" x="501.5" y="-44.8713" font-family="Helvetica,sans-Serif" font-size="11.00" fill="#000000">&lt; 2</text>
<polygon fill="#ffffff" stroke="transparent" points="557.5,-38.7713 557.5,-57.7713 588.5,-57.7713 588.5,-38.7713 557.5,-38.7713"/>
<polygon fill="none" stroke="#000000" points="557.5,-38.7713 557.5,-57.7713 588.5,-57.7713 588.5,-38.7713 557.5,-38.7713"/>
<text text-anchor="start" x="579.3862" y="-44.8713" font-family="Helvetica,sans-Serif" font-size="11.00" fill="#000000"> &#160;</text>
<polygon fill="#ffffff" stroke="transparent" points="588.5,-38.7713 588.5,-57.7713 620.5,-57.7713 620.5,-38.7713 588.5,-38.7713"/>
<polygon fill="none" stroke="#000000" points="588.5,-38.7713 588.5,-57.7713 620.5,-57.7713 620.5,-38.7713 588.5,-38.7713"/>
<text text-anchor="start" x="611.3862" y="-44.8713" font-family="Helvetica,sans-Serif" font-size="11.00" fill="#000000"> &#160;</text>
</a>
</g>
</g>
<!-- usuario_turma&#45;&gt;turmas -->
<g id="edge13" class="edge">
<title>usuario_turma:w&#45;&gt;turmas:e</title>
<path fill="none" stroke="#000000" d="M483.7057,-67.8227C451.219,-72.6869 440.4168,-92.7713 401,-92.7713"/>
<polygon fill="#000000" stroke="#000000" points="490.5201,-67.3384 498.7552,-70.3622 494.5101,-67.0549 498.5,-66.7713 498.5,-66.7713 498.5,-66.7713 494.5101,-67.0549 498.2448,-63.1803 490.5201,-67.3384 490.5201,-67.3384"/>
<ellipse fill="none" stroke="#000000" cx="487.3282" cy="-67.5653" rx="3.2" ry="3.2"/>
</g>
<!-- usuario_turma&#45;&gt;usuarios -->
<g id="edge14" class="edge">
<title>usuario_turma:w&#45;&gt;usuarios:e</title>
<path fill="none" stroke="#000000" d="M484.1959,-64.5305C475.7087,-61.6004 470.0695,-56.6229 457,-54.7713 372.5104,-42.8011 340.6997,-15.3843 265,-54.7713 230.0101,-72.9767 206.3667,-112.7853 192.968,-141.9984"/>
<polygon fill="#000000" stroke="#000000" points="490.5964,-65.5331 497.9428,-70.3279 494.5482,-66.1522 498.5,-66.7713 498.5,-66.7713 498.5,-66.7713 494.5482,-66.1522 499.0572,-63.2146 490.5964,-65.5331 490.5964,-65.5331"/>
<ellipse fill="none" stroke="#000000" cx="487.4349" cy="-65.0379" rx="3.2" ry="3.2"/>
</g>
</g>
</svg>
