<?xml version="1.0" encoding="UTF-8" standalone="no"?>
<!DOCTYPE svg PUBLIC "-//W3C//DTD SVG 1.1//EN"
 "http://www.w3.org/Graphics/SVG/1.1/DTD/svg11.dtd">
<!-- Generated by graphviz version 2.40.1 (20161225.0304)
 -->
<!-- Title: oneDegreeRelationshipsDiagram Pages: 1 -->
<svg width="684pt" height="346pt"
 viewBox="0.00 0.00 684.00 346.20" xmlns="http://www.w3.org/2000/svg" xmlns:xlink="http://www.w3.org/1999/xlink">
<g id="graph0" class="graph" transform="scale(1 1) rotate(0) translate(4 342.2)">
<title>oneDegreeRelationshipsDiagram</title>
<polygon fill="#ffffff" stroke="transparent" points="-4,4 -4,-342.2 680,-342.2 680,4 -4,4"/>
<text text-anchor="middle" x="72.4936" y="-7.3" font-family="Helvetica,sans-Serif" font-size="11.00" fill="#000000">Generated by SchemaSpy</text>
<!-- encontros -->
<g id="node1" class="node">
<title>encontros</title>
<g id="a_node1"><a xlink:href="../../tables/encontros.html" xlink:title="encontros" target="_top">
<polygon fill="#ffffff" stroke="transparent" points="558,-207.2 558,-334.2 655,-334.2 655,-207.2 558,-207.2"/>
<polygon fill="#f5f5f5" stroke="transparent" points="558.5,-310.7 558.5,-333.7 655.5,-333.7 655.5,-310.7 558.5,-310.7"/>
<polygon fill="none" stroke="#000000" points="558.5,-310.7 558.5,-333.7 655.5,-333.7 655.5,-310.7 558.5,-310.7"/>
<text text-anchor="start" x="563.5" y="-319.3" font-family="Helvetica,sans-Serif" font-weight="bold" font-size="11.00" fill="#000000">encontros</text>
<text text-anchor="start" x="621.0219" y="-318.8" font-family="Helvetica,sans-Serif" font-size="11.00" fill="#000000">[table]</text>
<polygon fill="none" stroke="#000000" points="558.5,-288.7 558.5,-310.7 655.5,-310.7 655.5,-288.7 558.5,-288.7"/>
<image xlink:href="../../images/primaryKeys.png" width="11px" height="12px" preserveAspectRatio="xMinYMin meet" x="563.5" y="-305.7"/>
<text text-anchor="start" x="587.5" y="-295.8" font-family="Helvetica,sans-Serif" font-size="11.00" fill="#000000">id</text>
<polygon fill="none" stroke="#000000" points="558.5,-266.7 558.5,-288.7 655.5,-288.7 655.5,-266.7 558.5,-266.7"/>
<image xlink:href="../../images/foreignKeys.png" width="11px" height="12px" preserveAspectRatio="xMinYMin meet" x="563.5" y="-283.7"/>
<text text-anchor="start" x="587.5" y="-273.8" font-family="Helvetica,sans-Serif" font-size="11.00" fill="#000000">id_grupo</text>
<polygon fill="none" stroke="#000000" points="558.5,-244.7 558.5,-266.7 655.5,-266.7 655.5,-244.7 558.5,-244.7"/>
<image xlink:href="../../images/foreignKeys.png" width="11px" height="12px" preserveAspectRatio="xMinYMin meet" x="563.5" y="-261.7"/>
<text text-anchor="start" x="587.5" y="-251.8" font-family="Helvetica,sans-Serif" font-size="11.00" fill="#000000">id_turma</text>
<polygon fill="none" stroke="#000000" points="558.5,-225.7 558.5,-244.7 655.5,-244.7 655.5,-225.7 558.5,-225.7"/>
<text text-anchor="start" x="561.5" y="-231.8" font-family="Helvetica,sans-Serif" font-size="11.00" fill="#000000">...</text>
<polygon fill="#ffffff" stroke="transparent" points="558.5,-206.7 558.5,-225.7 600.5,-225.7 600.5,-206.7 558.5,-206.7"/>
<polygon fill="none" stroke="#000000" points="558.5,-206.7 558.5,-225.7 600.5,-225.7 600.5,-206.7 558.5,-206.7"/>
<text text-anchor="start" x="561.5" y="-212.8" font-family="Helvetica,sans-Serif" font-size="11.00" fill="#000000">&lt; 2</text>
<polygon fill="#ffffff" stroke="transparent" points="600.5,-206.7 600.5,-225.7 623.5,-225.7 623.5,-206.7 600.5,-206.7"/>
<polygon fill="none" stroke="#000000" points="600.5,-206.7 600.5,-225.7 623.5,-225.7 623.5,-206.7 600.5,-206.7"/>
<text text-anchor="start" x="614.3862" y="-212.8" font-family="Helvetica,sans-Serif" font-size="11.00" fill="#000000"> &#160;</text>
<polygon fill="#ffffff" stroke="transparent" points="623.5,-206.7 623.5,-225.7 655.5,-225.7 655.5,-206.7 623.5,-206.7"/>
<polygon fill="none" stroke="#000000" points="623.5,-206.7 623.5,-225.7 655.5,-225.7 655.5,-206.7 623.5,-206.7"/>
<text text-anchor="start" x="636.9053" y="-212.8" font-family="Helvetica,sans-Serif" font-size="11.00" fill="#000000">2 &gt;</text>
</a>
</g>
</g>
<!-- grupos -->
<g id="node2" class="node">
<title>grupos</title>
<g id="a_node2"><a xlink:href="../../tables/grupos.html" xlink:title="grupos" target="_top">
<polygon fill="#ffffff" stroke="transparent" points="320,-135.7 320,-313.7 496,-313.7 496,-135.7 320,-135.7"/>
<polygon fill="#f5f5f5" stroke="transparent" points="322,-288.7 322,-311.7 494,-311.7 494,-288.7 322,-288.7"/>
<polygon fill="none" stroke="#000000" points="322,-288.7 322,-311.7 494,-311.7 494,-288.7 322,-288.7"/>
<text text-anchor="start" x="327" y="-297.3" font-family="Helvetica,sans-Serif" font-weight="bold" font-size="11.00" fill="#000000">grupos</text>
<text text-anchor="start" x="459.0437" y="-296.8" font-family="Helvetica,sans-Serif" font-size="11.00" fill="#000000">[table]</text>
<polygon fill="none" stroke="#000000" points="322,-266.7 322,-288.7 427,-288.7 427,-266.7 322,-266.7"/>
<image xlink:href="../../images/primaryKeys.png" width="11px" height="12px" preserveAspectRatio="xMinYMin meet" x="327" y="-283.7"/>
<text text-anchor="start" x="342" y="-273.8" font-family="Helvetica,sans-Serif" font-size="11.00" fill="#000000">id</text>
<polygon fill="none" stroke="#000000" points="427,-266.7 427,-288.7 494,-288.7 494,-266.7 427,-266.7"/>
<text text-anchor="start" x="430" y="-274.4" font-family="Helvetica,sans-Serif" font-size="11.00" fill="#000000">serial[10]</text>
<polygon fill="none" stroke="#000000" points="322,-244.7 322,-266.7 427,-266.7 427,-244.7 322,-244.7"/>
<image xlink:href="../../images/foreignKeys.png" width="11px" height="12px" preserveAspectRatio="xMinYMin meet" x="327" y="-261.7"/>
<text text-anchor="start" x="342" y="-251.8" font-family="Helvetica,sans-Serif" font-size="11.00" fill="#000000">id_curso</text>
<polygon fill="none" stroke="#000000" points="427,-244.7 427,-266.7 494,-266.7 494,-244.7 427,-244.7"/>
<text text-anchor="start" x="430" y="-252.4" font-family="Helvetica,sans-Serif" font-size="11.00" fill="#000000">int4[10]</text>
<polygon fill="none" stroke="#000000" points="322,-222.7 322,-244.7 427,-244.7 427,-222.7 322,-222.7"/>
<image xlink:href="../../images/foreignKeys.png" width="11px" height="12px" preserveAspectRatio="xMinYMin meet" x="327" y="-239.7"/>
<text text-anchor="start" x="342" y="-229.8" font-family="Helvetica,sans-Serif" font-size="11.00" fill="#000000">id_user</text>
<polygon fill="none" stroke="#000000" points="427,-222.7 427,-244.7 494,-244.7 494,-222.7 427,-222.7"/>
<text text-anchor="start" x="430" y="-230.4" font-family="Helvetica,sans-Serif" font-size="11.00" fill="#000000">int4[10]</text>
<polygon fill="none" stroke="#000000" points="322,-200.7 322,-222.7 427,-222.7 427,-200.7 322,-200.7"/>
<text text-anchor="start" x="342" y="-207.8" font-family="Helvetica,sans-Serif" font-size="11.00" fill="#000000">areade_estudo</text>
<polygon fill="none" stroke="#000000" points="427,-200.7 427,-222.7 494,-222.7 494,-200.7 427,-200.7"/>
<text text-anchor="start" x="429.9365" y="-208.4" font-family="Helvetica,sans-Serif" font-size="11.00" fill="#000000">varchar[100]</text>
<polygon fill="#ffffff" stroke="transparent" points="322,-178.7 322,-200.7 427,-200.7 427,-178.7 322,-178.7"/>
<polygon fill="none" stroke="#000000" points="322,-178.7 322,-200.7 427,-200.7 427,-178.7 322,-178.7"/>
<text text-anchor="start" x="342" y="-185.8" font-family="Helvetica,sans-Serif" font-size="11.00" fill="#000000">nome</text>
<polygon fill="none" stroke="#000000" points="427,-178.7 427,-200.7 494,-200.7 494,-178.7 427,-178.7"/>
<text text-anchor="start" x="429.9365" y="-186.4" font-family="Helvetica,sans-Serif" font-size="11.00" fill="#000000">varchar[100]</text>
<polygon fill="none" stroke="#000000" points="322,-156.7 322,-178.7 427,-178.7 427,-156.7 322,-156.7"/>
<text text-anchor="start" x="342" y="-163.8" font-family="Helvetica,sans-Serif" font-size="11.00" fill="#000000">descricao</text>
<polygon fill="none" stroke="#000000" points="427,-156.7 427,-178.7 494,-178.7 494,-156.7 427,-156.7"/>
<text text-anchor="start" x="429.9365" y="-164.4" font-family="Helvetica,sans-Serif" font-size="11.00" fill="#000000">varchar[255]</text>
<polygon fill="#ffffff" stroke="transparent" points="322,-137.7 322,-156.7 379,-156.7 379,-137.7 322,-137.7"/>
<polygon fill="none" stroke="#000000" points="322,-137.7 322,-156.7 379,-156.7 379,-137.7 322,-137.7"/>
<text text-anchor="start" x="325" y="-143.8" font-family="Helvetica,sans-Serif" font-size="11.00" fill="#000000">&lt; 2</text>
<polygon fill="#ffffff" stroke="transparent" points="379,-137.7 379,-156.7 427,-156.7 427,-137.7 379,-137.7"/>
<polygon fill="none" stroke="#000000" points="379,-137.7 379,-156.7 427,-156.7 427,-137.7 379,-137.7"/>
<text text-anchor="start" x="417.8862" y="-143.8" font-family="Helvetica,sans-Serif" font-size="11.00" fill="#000000"> &#160;</text>
<polygon fill="#ffffff" stroke="transparent" points="427,-137.7 427,-156.7 494,-156.7 494,-137.7 427,-137.7"/>
<polygon fill="none" stroke="#000000" points="427,-137.7 427,-156.7 494,-156.7 494,-137.7 427,-137.7"/>
<text text-anchor="start" x="475.4053" y="-143.8" font-family="Helvetica,sans-Serif" font-size="11.00" fill="#000000">2 &gt;</text>
<polygon fill="none" stroke="#000000" stroke-width="2" points="321,-136.7 321,-312.7 495,-312.7 495,-136.7 321,-136.7"/>
</a>
</g>
</g>
<!-- encontros&#45;&gt;grupos -->
<g id="edge1" class="edge">
<title>encontros:w&#45;&gt;grupos:e</title>
<path fill="none" stroke="#000000" d="M543.8432,-277.7C526.2137,-277.7 517.0677,-277.7 494,-277.7"/>
<polygon fill="#000000" stroke="#000000" points="550.5,-277.7001 558.5,-281.3 554.5,-277.7 558.5,-277.7 558.5,-277.7 558.5,-277.7 554.5,-277.7 558.5,-274.1 550.5,-277.7001 550.5,-277.7001"/>
<ellipse fill="none" stroke="#000000" cx="547.3" cy="-277.7001" rx="3.2" ry="3.2"/>
</g>
<!-- cursos -->
<g id="node3" class="node">
<title>cursos</title>
<g id="a_node3"><a xlink:href="../../tables/cursos.html" xlink:title="cursos" target="_top">
<polygon fill="#ffffff" stroke="transparent" points="8,-166.2 8,-249.2 95,-249.2 95,-166.2 8,-166.2"/>
<polygon fill="#f5f5f5" stroke="transparent" points="8.5,-225.7 8.5,-248.7 95.5,-248.7 95.5,-225.7 8.5,-225.7"/>
<polygon fill="none" stroke="#000000" points="8.5,-225.7 8.5,-248.7 95.5,-248.7 95.5,-225.7 8.5,-225.7"/>
<text text-anchor="start" x="13.5" y="-234.3" font-family="Helvetica,sans-Serif" font-weight="bold" font-size="11.00" fill="#000000">cursos</text>
<text text-anchor="start" x="60.5437" y="-233.8" font-family="Helvetica,sans-Serif" font-size="11.00" fill="#000000">[table]</text>
<polygon fill="none" stroke="#000000" points="8.5,-203.7 8.5,-225.7 95.5,-225.7 95.5,-203.7 8.5,-203.7"/>
<image xlink:href="../../images/primaryKeys.png" width="11px" height="12px" preserveAspectRatio="xMinYMin meet" x="13.5" y="-220.7"/>
<text text-anchor="start" x="28.5" y="-210.8" font-family="Helvetica,sans-Serif" font-size="11.00" fill="#000000">id</text>
<polygon fill="none" stroke="#000000" points="8.5,-184.7 8.5,-203.7 95.5,-203.7 95.5,-184.7 8.5,-184.7"/>
<text text-anchor="start" x="11.5" y="-190.8" font-family="Helvetica,sans-Serif" font-size="11.00" fill="#000000">...</text>
<polygon fill="#ffffff" stroke="transparent" points="8.5,-165.7 8.5,-184.7 41.5,-184.7 41.5,-165.7 8.5,-165.7"/>
<polygon fill="none" stroke="#000000" points="8.5,-165.7 8.5,-184.7 41.5,-184.7 41.5,-165.7 8.5,-165.7"/>
<text text-anchor="start" x="11.5" y="-171.8" font-family="Helvetica,sans-Serif" font-size="11.00" fill="#000000"> &#160;</text>
<polygon fill="#ffffff" stroke="transparent" points="41.5,-165.7 41.5,-184.7 63.5,-184.7 63.5,-165.7 41.5,-165.7"/>
<polygon fill="none" stroke="#000000" points="41.5,-165.7 41.5,-184.7 63.5,-184.7 63.5,-165.7 41.5,-165.7"/>
<text text-anchor="start" x="54.3862" y="-171.8" font-family="Helvetica,sans-Serif" font-size="11.00" fill="#000000"> &#160;</text>
<polygon fill="#ffffff" stroke="transparent" points="63.5,-165.7 63.5,-184.7 95.5,-184.7 95.5,-165.7 63.5,-165.7"/>
<polygon fill="none" stroke="#000000" points="63.5,-165.7 63.5,-184.7 95.5,-184.7 95.5,-165.7 63.5,-165.7"/>
<text text-anchor="start" x="76.9053" y="-171.8" font-family="Helvetica,sans-Serif" font-size="11.00" fill="#000000">3 &gt;</text>
</a>
</g>
</g>
<!-- grupos&#45;&gt;cursos -->
<g id="edge2" class="edge">
<title>grupos:w&#45;&gt;cursos:e</title>
<path fill="none" stroke="#000000" d="M307.557,-255.8311C235.91,-257.126 209.6393,-267.0521 136,-241.7 115.545,-234.6579 117.1333,-214.7 95.5,-214.7"/>
<polygon fill="#000000" stroke="#000000" points="314.0003,-255.7726 322.0327,-259.2999 318.0002,-255.7363 322,-255.7 322,-255.7 322,-255.7 318.0002,-255.7363 321.9673,-252.1001 314.0003,-255.7726 314.0003,-255.7726"/>
<ellipse fill="none" stroke="#000000" cx="310.8005" cy="-255.8017" rx="3.2" ry="3.2"/>
</g>
<!-- usuarios -->
<g id="node4" class="node">
<title>usuarios</title>
<g id="a_node4"><a xlink:href="../../tables/usuarios.html" xlink:title="usuarios" target="_top">
<polygon fill="#ffffff" stroke="transparent" points="144,-38.2 144,-231.2 271,-231.2 271,-38.2 144,-38.2"/>
<polygon fill="#f5f5f5" stroke="transparent" points="144.5,-207.7 144.5,-230.7 271.5,-230.7 271.5,-207.7 144.5,-207.7"/>
<polygon fill="none" stroke="#000000" points="144.5,-207.7 144.5,-230.7 271.5,-230.7 271.5,-207.7 144.5,-207.7"/>
<text text-anchor="start" x="149.5" y="-216.3" font-family="Helvetica,sans-Serif" font-weight="bold" font-size="11.00" fill="#000000">usuarios</text>
<text text-anchor="start" x="236.5437" y="-215.8" font-family="Helvetica,sans-Serif" font-size="11.00" fill="#000000">[table]</text>
<polygon fill="none" stroke="#000000" points="144.5,-185.7 144.5,-207.7 271.5,-207.7 271.5,-185.7 144.5,-185.7"/>
<image xlink:href="../../images/primaryKeys.png" width="11px" height="12px" preserveAspectRatio="xMinYMin meet" x="149.5" y="-202.7"/>
<text text-anchor="start" x="164.5" y="-192.8" font-family="Helvetica,sans-Serif" font-size="11.00" fill="#000000">id</text>
<polygon fill="none" stroke="#000000" points="144.5,-163.7 144.5,-185.7 271.5,-185.7 271.5,-163.7 144.5,-163.7"/>
<image xlink:href="../../images/foreignKeys.png" width="11px" height="12px" preserveAspectRatio="xMinYMin meet" x="149.5" y="-180.7"/>
<text text-anchor="start" x="164.5" y="-170.8" font-family="Helvetica,sans-Serif" font-size="11.00" fill="#000000">id_curso</text>
<polygon fill="#ffffff" stroke="transparent" points="144.5,-141.7 144.5,-163.7 271.5,-163.7 271.5,-141.7 144.5,-141.7"/>
<polygon fill="none" stroke="#000000" points="144.5,-141.7 144.5,-163.7 271.5,-163.7 271.5,-141.7 144.5,-141.7"/>
<text text-anchor="start" x="164.5" y="-148.8" font-family="Helvetica,sans-Serif" font-size="11.00" fill="#000000">nome</text>
<polygon fill="#ffffff" stroke="transparent" points="144.5,-119.7 144.5,-141.7 271.5,-141.7 271.5,-119.7 144.5,-119.7"/>
<polygon fill="none" stroke="#000000" points="144.5,-119.7 144.5,-141.7 271.5,-141.7 271.5,-119.7 144.5,-119.7"/>
<text text-anchor="start" x="164.5" y="-126.8" font-family="Helvetica,sans-Serif" font-size="11.00" fill="#000000">email</text>
<polygon fill="#ffffff" stroke="transparent" points="144.5,-97.7 144.5,-119.7 271.5,-119.7 271.5,-97.7 144.5,-97.7"/>
<polygon fill="none" stroke="#000000" points="144.5,-97.7 144.5,-119.7 271.5,-119.7 271.5,-97.7 144.5,-97.7"/>
<text text-anchor="start" x="164.5" y="-104.8" font-family="Helvetica,sans-Serif" font-size="11.00" fill="#000000">matricula</text>
<polygon fill="#ffffff" stroke="transparent" points="144.5,-75.7 144.5,-97.7 271.5,-97.7 271.5,-75.7 144.5,-75.7"/>
<polygon fill="none" stroke="#000000" points="144.5,-75.7 144.5,-97.7 271.5,-97.7 271.5,-75.7 144.5,-75.7"/>
<text text-anchor="start" x="164.5" y="-82.8" font-family="Helvetica,sans-Serif" font-size="11.00" fill="#000000">siape</text>
<polygon fill="none" stroke="#000000" points="144.5,-56.7 144.5,-75.7 271.5,-75.7 271.5,-56.7 144.5,-56.7"/>
<text text-anchor="start" x="147.5" y="-62.8" font-family="Helvetica,sans-Serif" font-size="11.00" fill="#000000">...</text>
<polygon fill="#ffffff" stroke="transparent" points="144.5,-37.7 144.5,-56.7 201.5,-56.7 201.5,-37.7 144.5,-37.7"/>
<polygon fill="none" stroke="#000000" points="144.5,-37.7 144.5,-56.7 201.5,-56.7 201.5,-37.7 144.5,-37.7"/>
<text text-anchor="start" x="147.5" y="-43.8" font-family="Helvetica,sans-Serif" font-size="11.00" fill="#000000">&lt; 1</text>
<polygon fill="#ffffff" stroke="transparent" points="201.5,-37.7 201.5,-56.7 231.5,-56.7 231.5,-37.7 201.5,-37.7"/>
<polygon fill="none" stroke="#000000" points="201.5,-37.7 201.5,-56.7 231.5,-56.7 231.5,-37.7 201.5,-37.7"/>
<text text-anchor="start" x="222.3862" y="-43.8" font-family="Helvetica,sans-Serif" font-size="11.00" fill="#000000"> &#160;</text>
<polygon fill="#ffffff" stroke="transparent" points="231.5,-37.7 231.5,-56.7 271.5,-56.7 271.5,-37.7 231.5,-37.7"/>
<polygon fill="none" stroke="#000000" points="231.5,-37.7 231.5,-56.7 271.5,-56.7 271.5,-37.7 231.5,-37.7"/>
<text text-anchor="start" x="252.9053" y="-43.8" font-family="Helvetica,sans-Serif" font-size="11.00" fill="#000000">6 &gt;</text>
</a>
</g>
</g>
<!-- grupos&#45;&gt;usuarios -->
<g id="edge3" class="edge">
<title>grupos:w&#45;&gt;usuarios:e</title>
<path fill="none" stroke="#000000" d="M308.1749,-229.4556C294.8807,-219.7369 293.4548,-196.7 271.5,-196.7"/>
<polygon fill="#000000" stroke="#000000" points="314.3523,-231.3521 320.9434,-237.1415 318.1761,-232.526 322,-233.7 322,-233.7 322,-233.7 318.1761,-232.526 323.0566,-230.2585 314.3523,-231.3521 314.3523,-231.3521"/>
<ellipse fill="none" stroke="#000000" cx="311.2932" cy="-230.4129" rx="3.2" ry="3.2"/>
</g>
<!-- usuarios&#45;&gt;cursos -->
<g id="edge6" class="edge">
<title>usuarios:w&#45;&gt;cursos:e</title>
<path fill="none" stroke="#000000" d="M130.7637,-179.2885C117.8632,-189.7952 117.6826,-214.7 95.5,-214.7"/>
<polygon fill="#000000" stroke="#000000" points="136.9121,-177.2347 145.6406,-178.1145 140.7061,-175.9673 144.5,-174.7 144.5,-174.7 144.5,-174.7 140.7061,-175.9673 143.3594,-171.2855 136.9121,-177.2347 136.9121,-177.2347"/>
<ellipse fill="none" stroke="#000000" cx="133.877" cy="-178.2486" rx="3.2" ry="3.2"/>
</g>
<!-- usuario_grupo -->
<g id="node5" class="node">
<title>usuario_grupo</title>
<g id="a_node5"><a xlink:href="../../tables/usuario_grupo.html" xlink:title="usuario_grupo" target="_top">
<polygon fill="#ffffff" stroke="transparent" points="545,-90.7 545,-176.7 668,-176.7 668,-90.7 545,-90.7"/>
<polygon fill="#f5f5f5" stroke="transparent" points="545.5,-153.7 545.5,-176.7 668.5,-176.7 668.5,-153.7 545.5,-153.7"/>
<polygon fill="none" stroke="#000000" points="545.5,-153.7 545.5,-176.7 668.5,-176.7 668.5,-153.7 545.5,-153.7"/>
<text text-anchor="start" x="550.5" y="-162.3" font-family="Helvetica,sans-Serif" font-weight="bold" font-size="11.00" fill="#000000">usuario_grupo</text>
<text text-anchor="start" x="634.0219" y="-161.8" font-family="Helvetica,sans-Serif" font-size="11.00" fill="#000000">[table]</text>
<polygon fill="none" stroke="#000000" points="545.5,-131.7 545.5,-153.7 668.5,-153.7 668.5,-131.7 545.5,-131.7"/>
<image xlink:href="../../images/foreignKeys.png" width="11px" height="12px" preserveAspectRatio="xMinYMin meet" x="550.5" y="-148.7"/>
<text text-anchor="start" x="574.5" y="-138.8" font-family="Helvetica,sans-Serif" font-size="11.00" fill="#000000">id_grupo</text>
<polygon fill="none" stroke="#000000" points="545.5,-109.7 545.5,-131.7 668.5,-131.7 668.5,-109.7 545.5,-109.7"/>
<image xlink:href="../../images/foreignKeys.png" width="11px" height="12px" preserveAspectRatio="xMinYMin meet" x="550.5" y="-126.7"/>
<text text-anchor="start" x="574.5" y="-116.8" font-family="Helvetica,sans-Serif" font-size="11.00" fill="#000000">id_usuario</text>
<polygon fill="#ffffff" stroke="transparent" points="545.5,-90.7 545.5,-109.7 605.5,-109.7 605.5,-90.7 545.5,-90.7"/>
<polygon fill="none" stroke="#000000" points="545.5,-90.7 545.5,-109.7 605.5,-109.7 605.5,-90.7 545.5,-90.7"/>
<text text-anchor="start" x="548.5" y="-96.8" font-family="Helvetica,sans-Serif" font-size="11.00" fill="#000000">&lt; 2</text>
<polygon fill="#ffffff" stroke="transparent" points="605.5,-90.7 605.5,-109.7 636.5,-109.7 636.5,-90.7 605.5,-90.7"/>
<polygon fill="none" stroke="#000000" points="605.5,-90.7 605.5,-109.7 636.5,-109.7 636.5,-90.7 605.5,-90.7"/>
<text text-anchor="start" x="627.3862" y="-96.8" font-family="Helvetica,sans-Serif" font-size="11.00" fill="#000000"> &#160;</text>
<polygon fill="#ffffff" stroke="transparent" points="636.5,-90.7 636.5,-109.7 668.5,-109.7 668.5,-90.7 636.5,-90.7"/>
<polygon fill="none" stroke="#000000" points="636.5,-90.7 636.5,-109.7 668.5,-109.7 668.5,-90.7 636.5,-90.7"/>
<text text-anchor="start" x="659.3862" y="-96.8" font-family="Helvetica,sans-Serif" font-size="11.00" fill="#000000"> &#160;</text>
</a>
</g>
</g>
<!-- usuario_grupo&#45;&gt;grupos -->
<g id="edge4" class="edge">
<title>usuario_grupo:w&#45;&gt;grupos:e</title>
<path fill="none" stroke="#000000" d="M531.4047,-145.7733C493.9673,-165.8681 552.4481,-277.7 494,-277.7"/>
<polygon fill="#000000" stroke="#000000" points="537.6836,-144.4043 546.2669,-146.2174 541.5918,-143.5522 545.5,-142.7 545.5,-142.7 545.5,-142.7 541.5918,-143.5522 544.7331,-139.1826 537.6836,-144.4043 537.6836,-144.4043"/>
<ellipse fill="none" stroke="#000000" cx="534.5571" cy="-145.086" rx="3.2" ry="3.2"/>
</g>
<!-- usuario_grupo&#45;&gt;usuarios -->
<g id="edge5" class="edge">
<title>usuario_grupo:w&#45;&gt;usuarios:e</title>
<path fill="none" stroke="#000000" d="M531.0213,-120.386C437.7107,-116.3291 396.9278,-75.1479 312,-125.7 280.7832,-144.2814 307.8284,-196.7 271.5,-196.7"/>
<polygon fill="#000000" stroke="#000000" points="537.5019,-120.5265 545.4219,-124.2992 541.5009,-120.6132 545.5,-120.7 545.5,-120.7 545.5,-120.7 541.5009,-120.6132 545.5781,-117.1008 537.5019,-120.5265 537.5019,-120.5265"/>
<ellipse fill="none" stroke="#000000" cx="534.3026" cy="-120.4571" rx="3.2" ry="3.2"/>
</g>
</g>
</svg>
