<?xml version="1.0" encoding="UTF-8" standalone="no"?>
<!DOCTYPE svg PUBLIC "-//W3C//DTD SVG 1.1//EN"
 "http://www.w3.org/Graphics/SVG/1.1/DTD/svg11.dtd">
<!-- Generated by graphviz version 2.40.1 (20161225.0304)
 -->
<!-- Title: twoDegreesRelationshipsDiagram Pages: 1 -->
<svg width="795pt" height="498pt"
 viewBox="0.00 0.00 795.00 497.78" xmlns="http://www.w3.org/2000/svg" xmlns:xlink="http://www.w3.org/1999/xlink">
<g id="graph0" class="graph" transform="scale(1 1) rotate(0) translate(4 493.7803)">
<title>twoDegreesRelationshipsDiagram</title>
<polygon fill="#ffffff" stroke="transparent" points="-4,4 -4,-493.7803 791,-493.7803 791,4 -4,4"/>
<text text-anchor="middle" x="72.4936" y="-7.3" font-family="Helvetica,sans-Serif" font-size="11.00" fill="#000000">Generated by SchemaSpy</text>
<!-- agendamentos -->
<g id="node1" class="node">
<title>agendamentos</title>
<g id="a_node1"><a xlink:href="../../tables/agendamentos.html" xlink:title="agendamentos" target="_top">
<polygon fill="#ffffff" stroke="transparent" points="656,-135.2 656,-196.2 779,-196.2 779,-135.2 656,-135.2"/>
<polygon fill="#f5f5f5" stroke="transparent" points="656.5,-172.7 656.5,-195.7 779.5,-195.7 779.5,-172.7 656.5,-172.7"/>
<polygon fill="none" stroke="#000000" points="656.5,-172.7 656.5,-195.7 779.5,-195.7 779.5,-172.7 656.5,-172.7"/>
<text text-anchor="start" x="661.5" y="-181.3" font-family="Helvetica,sans-Serif" font-weight="bold" font-size="11.00" fill="#000000">agendamentos</text>
<text text-anchor="start" x="745.0219" y="-180.8" font-family="Helvetica,sans-Serif" font-size="11.00" fill="#000000">[table]</text>
<polygon fill="none" stroke="#000000" points="656.5,-153.7 656.5,-172.7 779.5,-172.7 779.5,-153.7 656.5,-153.7"/>
<text text-anchor="start" x="659.5" y="-159.8" font-family="Helvetica,sans-Serif" font-size="11.00" fill="#000000">...</text>
<polygon fill="#ffffff" stroke="transparent" points="656.5,-134.7 656.5,-153.7 716.5,-153.7 716.5,-134.7 656.5,-134.7"/>
<polygon fill="none" stroke="#000000" points="656.5,-134.7 656.5,-153.7 716.5,-153.7 716.5,-134.7 656.5,-134.7"/>
<text text-anchor="start" x="659.5" y="-140.8" font-family="Helvetica,sans-Serif" font-size="11.00" fill="#000000">&lt; 2</text>
<polygon fill="#ffffff" stroke="transparent" points="716.5,-134.7 716.5,-153.7 747.5,-153.7 747.5,-134.7 716.5,-134.7"/>
<polygon fill="none" stroke="#000000" points="716.5,-134.7 716.5,-153.7 747.5,-153.7 747.5,-134.7 716.5,-134.7"/>
<text text-anchor="start" x="738.3862" y="-140.8" font-family="Helvetica,sans-Serif" font-size="11.00" fill="#000000"> &#160;</text>
<polygon fill="#ffffff" stroke="transparent" points="747.5,-134.7 747.5,-153.7 779.5,-153.7 779.5,-134.7 747.5,-134.7"/>
<polygon fill="none" stroke="#000000" points="747.5,-134.7 747.5,-153.7 779.5,-153.7 779.5,-134.7 747.5,-134.7"/>
<text text-anchor="start" x="770.3862" y="-140.8" font-family="Helvetica,sans-Serif" font-size="11.00" fill="#000000"> &#160;</text>
</a>
</g>
</g>
<!-- encontro -->
<g id="node2" class="node">
<title>encontro</title>
<g id="a_node2"><a xlink:href="../../tables/encontro.html" xlink:title="encontro" target="_top">
<polygon fill="#ffffff" stroke="transparent" points="500.5,-132.2 500.5,-193.2 590.5,-193.2 590.5,-132.2 500.5,-132.2"/>
<polygon fill="#f5f5f5" stroke="transparent" points="500.5,-169.7 500.5,-192.7 590.5,-192.7 590.5,-169.7 500.5,-169.7"/>
<polygon fill="none" stroke="#000000" points="500.5,-169.7 500.5,-192.7 590.5,-192.7 590.5,-169.7 500.5,-169.7"/>
<text text-anchor="start" x="505.5" y="-178.3" font-family="Helvetica,sans-Serif" font-weight="bold" font-size="11.00" fill="#000000">encontro</text>
<text text-anchor="start" x="556.0219" y="-177.8" font-family="Helvetica,sans-Serif" font-size="11.00" fill="#000000">[table]</text>
<polygon fill="none" stroke="#000000" points="500.5,-150.7 500.5,-169.7 590.5,-169.7 590.5,-150.7 500.5,-150.7"/>
<text text-anchor="start" x="503.5" y="-156.8" font-family="Helvetica,sans-Serif" font-size="11.00" fill="#000000">...</text>
<polygon fill="#ffffff" stroke="transparent" points="500.5,-131.7 500.5,-150.7 539.5,-150.7 539.5,-131.7 500.5,-131.7"/>
<polygon fill="none" stroke="#000000" points="500.5,-131.7 500.5,-150.7 539.5,-150.7 539.5,-131.7 500.5,-131.7"/>
<text text-anchor="start" x="503.5" y="-137.8" font-family="Helvetica,sans-Serif" font-size="11.00" fill="#000000">&lt; 4</text>
<polygon fill="#ffffff" stroke="transparent" points="539.5,-131.7 539.5,-150.7 560.5,-150.7 560.5,-131.7 539.5,-131.7"/>
<polygon fill="none" stroke="#000000" points="539.5,-131.7 539.5,-150.7 560.5,-150.7 560.5,-131.7 539.5,-131.7"/>
<text text-anchor="start" x="551.3862" y="-137.8" font-family="Helvetica,sans-Serif" font-size="11.00" fill="#000000"> &#160;</text>
<polygon fill="#ffffff" stroke="transparent" points="560.5,-131.7 560.5,-150.7 590.5,-150.7 590.5,-131.7 560.5,-131.7"/>
<polygon fill="none" stroke="#000000" points="560.5,-131.7 560.5,-150.7 590.5,-150.7 590.5,-131.7 560.5,-131.7"/>
<text text-anchor="start" x="571.9053" y="-137.8" font-family="Helvetica,sans-Serif" font-size="11.00" fill="#000000">2 &gt;</text>
</a>
</g>
</g>
<!-- agendamentos&#45;&gt;encontro -->
<g id="edge1" class="edge">
<title>agendamentos:w&#45;&gt;encontro:e</title>
<path fill="none" stroke="#000000" d="M642.0619,-162.7C627.4147,-162.7 612.3346,-162.7 598.5729,-162.7"/>
<polygon fill="#000000" stroke="#000000" points="648.5,-162.7001 656.5,-166.3 652.5,-162.7 656.5,-162.7 656.5,-162.7 656.5,-162.7 652.5,-162.7 656.5,-159.1 648.5,-162.7001 648.5,-162.7001"/>
<ellipse fill="none" stroke="#000000" cx="645.3" cy="-162.7001" rx="3.2" ry="3.2"/>
</g>
<!-- grupo -->
<g id="node3" class="node">
<title>grupo</title>
<g id="a_node3"><a xlink:href="../../tables/grupo.html" xlink:title="grupo" target="_top">
<polygon fill="#ffffff" stroke="transparent" points="259,-269.7 259,-447.7 435,-447.7 435,-269.7 259,-269.7"/>
<polygon fill="#f5f5f5" stroke="transparent" points="261,-422.7 261,-445.7 433,-445.7 433,-422.7 261,-422.7"/>
<polygon fill="none" stroke="#000000" points="261,-422.7 261,-445.7 433,-445.7 433,-422.7 261,-422.7"/>
<text text-anchor="start" x="266" y="-431.3" font-family="Helvetica,sans-Serif" font-weight="bold" font-size="11.00" fill="#000000">grupo</text>
<text text-anchor="start" x="398.0437" y="-430.8" font-family="Helvetica,sans-Serif" font-size="11.00" fill="#000000">[table]</text>
<polygon fill="none" stroke="#000000" points="261,-400.7 261,-422.7 366,-422.7 366,-400.7 261,-400.7"/>
<image xlink:href="../../images/primaryKeys.png" width="11px" height="12px" preserveAspectRatio="xMinYMin meet" x="266" y="-417.7"/>
<text text-anchor="start" x="281" y="-407.8" font-family="Helvetica,sans-Serif" font-size="11.00" fill="#000000">id</text>
<polygon fill="none" stroke="#000000" points="366,-400.7 366,-422.7 433,-422.7 433,-400.7 366,-400.7"/>
<text text-anchor="start" x="369" y="-408.4" font-family="Helvetica,sans-Serif" font-size="11.00" fill="#000000">serial[10]</text>
<polygon fill="none" stroke="#000000" points="261,-378.7 261,-400.7 366,-400.7 366,-378.7 261,-378.7"/>
<text text-anchor="start" x="281" y="-385.8" font-family="Helvetica,sans-Serif" font-size="11.00" fill="#000000">descricao</text>
<polygon fill="none" stroke="#000000" points="366,-378.7 366,-400.7 433,-400.7 433,-378.7 366,-378.7"/>
<text text-anchor="start" x="368.9365" y="-386.4" font-family="Helvetica,sans-Serif" font-size="11.00" fill="#000000">varchar[255]</text>
<polygon fill="#ffffff" stroke="transparent" points="261,-356.7 261,-378.7 366,-378.7 366,-356.7 261,-356.7"/>
<polygon fill="none" stroke="#000000" points="261,-356.7 261,-378.7 366,-378.7 366,-356.7 261,-356.7"/>
<text text-anchor="start" x="281" y="-363.8" font-family="Helvetica,sans-Serif" font-size="11.00" fill="#000000">nome</text>
<polygon fill="none" stroke="#000000" points="366,-356.7 366,-378.7 433,-378.7 433,-356.7 366,-356.7"/>
<text text-anchor="start" x="368.9365" y="-364.4" font-family="Helvetica,sans-Serif" font-size="11.00" fill="#000000">varchar[100]</text>
<polygon fill="none" stroke="#000000" points="261,-334.7 261,-356.7 366,-356.7 366,-334.7 261,-334.7"/>
<text text-anchor="start" x="281" y="-341.8" font-family="Helvetica,sans-Serif" font-size="11.00" fill="#000000">areade_estudo</text>
<polygon fill="none" stroke="#000000" points="366,-334.7 366,-356.7 433,-356.7 433,-334.7 366,-334.7"/>
<text text-anchor="start" x="368.9365" y="-342.4" font-family="Helvetica,sans-Serif" font-size="11.00" fill="#000000">varchar[100]</text>
<polygon fill="none" stroke="#000000" points="261,-312.7 261,-334.7 366,-334.7 366,-312.7 261,-312.7"/>
<image xlink:href="../../images/foreignKeys.png" width="11px" height="12px" preserveAspectRatio="xMinYMin meet" x="266" y="-329.7"/>
<text text-anchor="start" x="281" y="-319.8" font-family="Helvetica,sans-Serif" font-size="11.00" fill="#000000">id_user</text>
<polygon fill="none" stroke="#000000" points="366,-312.7 366,-334.7 433,-334.7 433,-312.7 366,-312.7"/>
<text text-anchor="start" x="369" y="-320.4" font-family="Helvetica,sans-Serif" font-size="11.00" fill="#000000">int4[10]</text>
<polygon fill="none" stroke="#000000" points="261,-290.7 261,-312.7 366,-312.7 366,-290.7 261,-290.7"/>
<image xlink:href="../../images/foreignKeys.png" width="11px" height="12px" preserveAspectRatio="xMinYMin meet" x="266" y="-307.7"/>
<text text-anchor="start" x="281" y="-297.8" font-family="Helvetica,sans-Serif" font-size="11.00" fill="#000000">id_curso</text>
<polygon fill="none" stroke="#000000" points="366,-290.7 366,-312.7 433,-312.7 433,-290.7 366,-290.7"/>
<text text-anchor="start" x="369" y="-298.4" font-family="Helvetica,sans-Serif" font-size="11.00" fill="#000000">int4[10]</text>
<polygon fill="#ffffff" stroke="transparent" points="261,-271.7 261,-290.7 318,-290.7 318,-271.7 261,-271.7"/>
<polygon fill="none" stroke="#000000" points="261,-271.7 261,-290.7 318,-290.7 318,-271.7 261,-271.7"/>
<text text-anchor="start" x="264" y="-277.8" font-family="Helvetica,sans-Serif" font-size="11.00" fill="#000000">&lt; 2</text>
<polygon fill="#ffffff" stroke="transparent" points="318,-271.7 318,-290.7 366,-290.7 366,-271.7 318,-271.7"/>
<polygon fill="none" stroke="#000000" points="318,-271.7 318,-290.7 366,-290.7 366,-271.7 318,-271.7"/>
<text text-anchor="start" x="356.8862" y="-277.8" font-family="Helvetica,sans-Serif" font-size="11.00" fill="#000000"> &#160;</text>
<polygon fill="#ffffff" stroke="transparent" points="366,-271.7 366,-290.7 433,-290.7 433,-271.7 366,-271.7"/>
<polygon fill="none" stroke="#000000" points="366,-271.7 366,-290.7 433,-290.7 433,-271.7 366,-271.7"/>
<text text-anchor="start" x="414.4053" y="-277.8" font-family="Helvetica,sans-Serif" font-size="11.00" fill="#000000">2 &gt;</text>
<polygon fill="none" stroke="#000000" stroke-width="2" points="260,-270.7 260,-446.7 434,-446.7 434,-270.7 260,-270.7"/>
</a>
</g>
</g>
<!-- encontro&#45;&gt;grupo -->
<g id="edge2" class="edge">
<title>encontro:w&#45;&gt;grupo:e</title>
<path fill="none" stroke="#000000" d="M533.9736,-211.4582C515.3976,-283.9495 476.4916,-411.7 433,-411.7"/>
<polygon fill="#000000" stroke="#000000" points="535.5725,-205.0821 541.0102,-198.198 536.5454,-201.2023 537.5183,-197.3224 537.5183,-197.3224 537.5183,-197.3224 536.5454,-201.2023 534.0264,-196.4467 535.5725,-205.0821 535.5725,-205.0821"/>
<ellipse fill="none" stroke="#000000" cx="534.7941" cy="-208.186" rx="3.2" ry="3.2"/>
</g>
<!-- turma -->
<g id="node4" class="node">
<title>turma</title>
<g id="a_node4"><a xlink:href="../../tables/turma.html" xlink:title="turma" target="_top">
<polygon fill="#ffffff" stroke="transparent" points="311,-77.2 311,-138.2 383,-138.2 383,-77.2 311,-77.2"/>
<polygon fill="#f5f5f5" stroke="transparent" points="311,-114.7 311,-137.7 383,-137.7 383,-114.7 311,-114.7"/>
<polygon fill="none" stroke="#000000" points="311,-114.7 311,-137.7 383,-137.7 383,-114.7 311,-114.7"/>
<text text-anchor="start" x="316" y="-123.3" font-family="Helvetica,sans-Serif" font-weight="bold" font-size="11.00" fill="#000000">turma</text>
<text text-anchor="start" x="348.5219" y="-122.8" font-family="Helvetica,sans-Serif" font-size="11.00" fill="#000000">[table]</text>
<polygon fill="none" stroke="#000000" points="311,-95.7 311,-114.7 383,-114.7 383,-95.7 311,-95.7"/>
<text text-anchor="start" x="314" y="-101.8" font-family="Helvetica,sans-Serif" font-size="11.00" fill="#000000">...</text>
<polygon fill="#ffffff" stroke="transparent" points="311,-76.7 311,-95.7 341,-95.7 341,-76.7 311,-76.7"/>
<polygon fill="none" stroke="#000000" points="311,-76.7 311,-95.7 341,-95.7 341,-76.7 311,-76.7"/>
<text text-anchor="start" x="314" y="-82.8" font-family="Helvetica,sans-Serif" font-size="11.00" fill="#000000">&lt; 2</text>
<polygon fill="#ffffff" stroke="transparent" points="341,-76.7 341,-95.7 357,-95.7 357,-76.7 341,-76.7"/>
<polygon fill="none" stroke="#000000" points="341,-76.7 341,-95.7 357,-95.7 357,-76.7 341,-76.7"/>
<text text-anchor="start" x="347.8862" y="-82.8" font-family="Helvetica,sans-Serif" font-size="11.00" fill="#000000"> &#160;</text>
<polygon fill="#ffffff" stroke="transparent" points="357,-76.7 357,-95.7 383,-95.7 383,-76.7 357,-76.7"/>
<polygon fill="none" stroke="#000000" points="357,-76.7 357,-95.7 383,-95.7 383,-76.7 357,-76.7"/>
<text text-anchor="start" x="364.4053" y="-82.8" font-family="Helvetica,sans-Serif" font-size="11.00" fill="#000000">2 &gt;</text>
</a>
</g>
</g>
<!-- encontro&#45;&gt;turma -->
<g id="edge3" class="edge">
<title>encontro:w&#45;&gt;turma:e</title>
<path fill="none" stroke="#000000" d="M479.0909,-127.5022C450.358,-115.338 415.8416,-104.7 383,-104.7"/>
<polygon fill="#000000" stroke="#000000" points="484.9665,-130.1123 490.816,-136.6501 488.622,-131.7362 492.2775,-133.3602 492.2775,-133.3602 492.2775,-133.3602 488.622,-131.7362 493.7391,-130.0702 484.9665,-130.1123 484.9665,-130.1123"/>
<ellipse fill="none" stroke="#000000" cx="482.042" cy="-128.8131" rx="3.2" ry="3.2"/>
</g>
<!-- usuario -->
<g id="node5" class="node">
<title>usuario</title>
<g id="a_node5"><a xlink:href="../../tables/usuario.html" xlink:title="usuario" target="_top">
<polygon fill="#ffffff" stroke="transparent" points="128,-153.2 128,-214.2 210,-214.2 210,-153.2 128,-153.2"/>
<polygon fill="#f5f5f5" stroke="transparent" points="128,-190.7 128,-213.7 210,-213.7 210,-190.7 128,-190.7"/>
<polygon fill="none" stroke="#000000" points="128,-190.7 128,-213.7 210,-213.7 210,-190.7 128,-190.7"/>
<text text-anchor="start" x="133" y="-199.3" font-family="Helvetica,sans-Serif" font-weight="bold" font-size="11.00" fill="#000000">usuario</text>
<text text-anchor="start" x="175.5219" y="-198.8" font-family="Helvetica,sans-Serif" font-size="11.00" fill="#000000">[table]</text>
<polygon fill="none" stroke="#000000" points="128,-171.7 128,-190.7 210,-190.7 210,-171.7 128,-171.7"/>
<text text-anchor="start" x="131" y="-177.8" font-family="Helvetica,sans-Serif" font-size="11.00" fill="#000000">...</text>
<polygon fill="#ffffff" stroke="transparent" points="128,-152.7 128,-171.7 163,-171.7 163,-152.7 128,-152.7"/>
<polygon fill="none" stroke="#000000" points="128,-152.7 128,-171.7 163,-171.7 163,-152.7 128,-152.7"/>
<text text-anchor="start" x="131" y="-158.8" font-family="Helvetica,sans-Serif" font-size="11.00" fill="#000000">&lt; 1</text>
<polygon fill="#ffffff" stroke="transparent" points="163,-152.7 163,-171.7 182,-171.7 182,-152.7 163,-152.7"/>
<polygon fill="none" stroke="#000000" points="163,-152.7 163,-171.7 182,-171.7 182,-152.7 163,-152.7"/>
<text text-anchor="start" x="172.8862" y="-158.8" font-family="Helvetica,sans-Serif" font-size="11.00" fill="#000000"> &#160;</text>
<polygon fill="#ffffff" stroke="transparent" points="182,-152.7 182,-171.7 210,-171.7 210,-152.7 182,-152.7"/>
<polygon fill="none" stroke="#000000" points="182,-152.7 182,-171.7 210,-171.7 210,-152.7 182,-152.7"/>
<text text-anchor="start" x="191.4053" y="-158.8" font-family="Helvetica,sans-Serif" font-size="11.00" fill="#000000">6 &gt;</text>
</a>
</g>
</g>
<!-- encontro&#45;&gt;usuario -->
<g id="edge4" class="edge">
<title>encontro:w&#45;&gt;usuario:e</title>
<path fill="none" stroke="#000000" d="M477.7445,-165.1959C418.0272,-167.5687 328.6878,-171.5393 251,-176.7 240.4502,-177.4008 229.1478,-178.2814 218.4095,-179.1792"/>
<polygon fill="#000000" stroke="#000000" points="484.2697,-164.9404 492.4044,-168.2246 488.2666,-164.7839 492.2635,-164.6273 492.2635,-164.6273 492.2635,-164.6273 488.2666,-164.7839 492.1227,-161.0301 484.2697,-164.9404 484.2697,-164.9404"/>
<ellipse fill="none" stroke="#000000" cx="481.0721" cy="-165.0657" rx="3.2" ry="3.2"/>
</g>
<!-- grupo&#45;&gt;usuario -->
<g id="edge6" class="edge">
<title>grupo:w&#45;&gt;usuario:e</title>
<path fill="none" stroke="#000000" d="M249.3142,-315.1449C232.4016,-296.3432 205.6957,-250.5339 187.7748,-218.3068"/>
<polygon fill="#000000" stroke="#000000" points="254.5449,-318.9743 258.8734,-326.6048 257.7725,-321.3371 261,-323.7 261,-323.7 261,-323.7 257.7725,-321.3371 263.1266,-320.7952 254.5449,-318.9743 254.5449,-318.9743"/>
<ellipse fill="none" stroke="#000000" cx="251.9629" cy="-317.084" rx="3.2" ry="3.2"/>
</g>
<!-- curso -->
<g id="node6" class="node">
<title>curso</title>
<g id="a_node6"><a xlink:href="../../tables/curso.html" xlink:title="curso" target="_top">
<polygon fill="#ffffff" stroke="transparent" points="8,-153.2 8,-214.2 79,-214.2 79,-153.2 8,-153.2"/>
<polygon fill="#f5f5f5" stroke="transparent" points="8.5,-190.7 8.5,-213.7 79.5,-213.7 79.5,-190.7 8.5,-190.7"/>
<polygon fill="none" stroke="#000000" points="8.5,-190.7 8.5,-213.7 79.5,-213.7 79.5,-190.7 8.5,-190.7"/>
<text text-anchor="start" x="13.5" y="-199.3" font-family="Helvetica,sans-Serif" font-weight="bold" font-size="11.00" fill="#000000">curso</text>
<text text-anchor="start" x="45.0219" y="-198.8" font-family="Helvetica,sans-Serif" font-size="11.00" fill="#000000">[table]</text>
<polygon fill="none" stroke="#000000" points="8.5,-171.7 8.5,-190.7 79.5,-190.7 79.5,-171.7 8.5,-171.7"/>
<text text-anchor="start" x="11.5" y="-177.8" font-family="Helvetica,sans-Serif" font-size="11.00" fill="#000000">...</text>
<polygon fill="#ffffff" stroke="transparent" points="8.5,-152.7 8.5,-171.7 33.5,-171.7 33.5,-152.7 8.5,-152.7"/>
<polygon fill="none" stroke="#000000" points="8.5,-152.7 8.5,-171.7 33.5,-171.7 33.5,-152.7 8.5,-152.7"/>
<text text-anchor="start" x="11.5" y="-158.8" font-family="Helvetica,sans-Serif" font-size="11.00" fill="#000000"> &#160;</text>
<polygon fill="#ffffff" stroke="transparent" points="33.5,-152.7 33.5,-171.7 51.5,-171.7 51.5,-152.7 33.5,-152.7"/>
<polygon fill="none" stroke="#000000" points="33.5,-152.7 33.5,-171.7 51.5,-171.7 51.5,-152.7 33.5,-152.7"/>
<text text-anchor="start" x="42.3862" y="-158.8" font-family="Helvetica,sans-Serif" font-size="11.00" fill="#000000"> &#160;</text>
<polygon fill="#ffffff" stroke="transparent" points="51.5,-152.7 51.5,-171.7 79.5,-171.7 79.5,-152.7 51.5,-152.7"/>
<polygon fill="none" stroke="#000000" points="51.5,-152.7 51.5,-171.7 79.5,-171.7 79.5,-152.7 51.5,-152.7"/>
<text text-anchor="start" x="60.9053" y="-158.8" font-family="Helvetica,sans-Serif" font-size="11.00" fill="#000000">3 &gt;</text>
</a>
</g>
</g>
<!-- grupo&#45;&gt;curso -->
<g id="edge5" class="edge">
<title>grupo:w&#45;&gt;curso:e</title>
<path fill="none" stroke="#000000" d="M246.5744,-301.0409C181.1853,-295.1427 118.3091,-250.8934 80.2834,-218.4657"/>
<polygon fill="#000000" stroke="#000000" points="253.0083,-301.3348 260.8357,-305.2962 257.0042,-301.5174 261,-301.7 261,-301.7 261,-301.7 257.0042,-301.5174 261.1643,-298.1038 253.0083,-301.3348 253.0083,-301.3348"/>
<ellipse fill="none" stroke="#000000" cx="249.8117" cy="-301.1887" rx="3.2" ry="3.2"/>
</g>
<!-- turma&#45;&gt;usuario -->
<g id="edge9" class="edge">
<title>turma:w&#45;&gt;usuario:e</title>
<path fill="none" stroke="#000000" d="M296.4022,-105.735C262.5159,-110.4511 230.1971,-130.4764 206.5895,-149.0494"/>
<polygon fill="#000000" stroke="#000000" points="303.02,-105.2659 311.2546,-108.291 307.01,-104.9829 311,-104.7 311,-104.7 311,-104.7 307.01,-104.9829 310.7454,-101.109 303.02,-105.2659 303.02,-105.2659"/>
<ellipse fill="none" stroke="#000000" cx="299.828" cy="-105.4922" rx="3.2" ry="3.2"/>
</g>
<!-- turma&#45;&gt;curso -->
<g id="edge8" class="edge">
<title>turma:w&#45;&gt;curso:e</title>
<path fill="none" stroke="#000000" d="M296.416,-104.7929C221.5546,-105.8006 196.7023,-115.2055 120,-142.7 109.0778,-146.6151 97.8051,-151.8843 87.3808,-157.3388"/>
<polygon fill="#000000" stroke="#000000" points="303.0002,-104.751 311.023,-108.2999 307.0001,-104.7255 311,-104.7 311,-104.7 311,-104.7 307.0001,-104.7255 310.977,-101.1001 303.0002,-104.751 303.0002,-104.751"/>
<ellipse fill="none" stroke="#000000" cx="299.8002" cy="-104.7714" rx="3.2" ry="3.2"/>
</g>
<!-- usuario&#45;&gt;curso -->
<g id="edge10" class="edge">
<title>usuario:w&#45;&gt;curso:e</title>
<path fill="none" stroke="#000000" d="M105.2372,-183.7C99.169,-183.7 93.1134,-183.7 87.2974,-183.7"/>
<polygon fill="#000000" stroke="#000000" points="111.7593,-183.7001 119.7593,-187.3 115.7593,-183.7 119.7593,-183.7 119.7593,-183.7 119.7593,-183.7 115.7593,-183.7 119.7593,-180.1 111.7593,-183.7001 111.7593,-183.7001"/>
<ellipse fill="none" stroke="#000000" cx="108.5593" cy="-183.7001" rx="3.2" ry="3.2"/>
</g>
<!-- token -->
<g id="node7" class="node">
<title>token</title>
<g id="a_node7"><a xlink:href="../../tables/token.html" xlink:title="token" target="_top">
<polygon fill="#ffffff" stroke="transparent" points="311.5,-187.2 311.5,-248.2 382.5,-248.2 382.5,-187.2 311.5,-187.2"/>
<polygon fill="#f5f5f5" stroke="transparent" points="312,-224.7 312,-247.7 383,-247.7 383,-224.7 312,-224.7"/>
<polygon fill="none" stroke="#000000" points="312,-224.7 312,-247.7 383,-247.7 383,-224.7 312,-224.7"/>
<text text-anchor="start" x="317" y="-233.3" font-family="Helvetica,sans-Serif" font-weight="bold" font-size="11.00" fill="#000000">token</text>
<text text-anchor="start" x="348.5219" y="-232.8" font-family="Helvetica,sans-Serif" font-size="11.00" fill="#000000">[table]</text>
<polygon fill="none" stroke="#000000" points="312,-205.7 312,-224.7 383,-224.7 383,-205.7 312,-205.7"/>
<text text-anchor="start" x="315" y="-211.8" font-family="Helvetica,sans-Serif" font-size="11.00" fill="#000000">...</text>
<polygon fill="#ffffff" stroke="transparent" points="312,-186.7 312,-205.7 346,-205.7 346,-186.7 312,-186.7"/>
<polygon fill="none" stroke="#000000" points="312,-186.7 312,-205.7 346,-205.7 346,-186.7 312,-186.7"/>
<text text-anchor="start" x="315" y="-192.8" font-family="Helvetica,sans-Serif" font-size="11.00" fill="#000000">&lt; 1</text>
<polygon fill="#ffffff" stroke="transparent" points="346,-186.7 346,-205.7 364,-205.7 364,-186.7 346,-186.7"/>
<polygon fill="none" stroke="#000000" points="346,-186.7 346,-205.7 364,-205.7 364,-186.7 346,-186.7"/>
<text text-anchor="start" x="354.8862" y="-192.8" font-family="Helvetica,sans-Serif" font-size="11.00" fill="#000000"> &#160;</text>
<polygon fill="#ffffff" stroke="transparent" points="364,-186.7 364,-205.7 383,-205.7 383,-186.7 364,-186.7"/>
<polygon fill="none" stroke="#000000" points="364,-186.7 364,-205.7 383,-205.7 383,-186.7 364,-186.7"/>
<text text-anchor="start" x="373.8862" y="-192.8" font-family="Helvetica,sans-Serif" font-size="11.00" fill="#000000"> &#160;</text>
</a>
</g>
</g>
<!-- token&#45;&gt;usuario -->
<g id="edge7" class="edge">
<title>token:w&#45;&gt;usuario:e</title>
<path fill="none" stroke="#000000" d="M297.3102,-214.2109C269.8055,-212.444 241.2431,-206.1567 218.0684,-199.7448"/>
<polygon fill="#000000" stroke="#000000" points="304.0044,-214.4337 311.8802,-218.298 308.0022,-214.5669 312,-214.7 312,-214.7 312,-214.7 308.0022,-214.5669 312.1198,-211.102 304.0044,-214.4337 304.0044,-214.4337"/>
<ellipse fill="none" stroke="#000000" cx="300.8062" cy="-214.3272" rx="3.2" ry="3.2"/>
</g>
<!-- usuario_grupo -->
<g id="node8" class="node">
<title>usuario_grupo</title>
<g id="a_node8"><a xlink:href="../../tables/usuario_grupo.html" xlink:title="usuario_grupo" target="_top">
<polygon fill="#ffffff" stroke="transparent" points="484,-411.2 484,-472.2 607,-472.2 607,-411.2 484,-411.2"/>
<polygon fill="#f5f5f5" stroke="transparent" points="484.5,-448.7 484.5,-471.7 607.5,-471.7 607.5,-448.7 484.5,-448.7"/>
<polygon fill="none" stroke="#000000" points="484.5,-448.7 484.5,-471.7 607.5,-471.7 607.5,-448.7 484.5,-448.7"/>
<text text-anchor="start" x="489.5" y="-457.3" font-family="Helvetica,sans-Serif" font-weight="bold" font-size="11.00" fill="#000000">usuario_grupo</text>
<text text-anchor="start" x="573.0219" y="-456.8" font-family="Helvetica,sans-Serif" font-size="11.00" fill="#000000">[table]</text>
<polygon fill="none" stroke="#000000" points="484.5,-429.7 484.5,-448.7 607.5,-448.7 607.5,-429.7 484.5,-429.7"/>
<text text-anchor="start" x="487.5" y="-435.8" font-family="Helvetica,sans-Serif" font-size="11.00" fill="#000000">...</text>
<polygon fill="#ffffff" stroke="transparent" points="484.5,-410.7 484.5,-429.7 544.5,-429.7 544.5,-410.7 484.5,-410.7"/>
<polygon fill="none" stroke="#000000" points="484.5,-410.7 484.5,-429.7 544.5,-429.7 544.5,-410.7 484.5,-410.7"/>
<text text-anchor="start" x="487.5" y="-416.8" font-family="Helvetica,sans-Serif" font-size="11.00" fill="#000000">&lt; 2</text>
<polygon fill="#ffffff" stroke="transparent" points="544.5,-410.7 544.5,-429.7 575.5,-429.7 575.5,-410.7 544.5,-410.7"/>
<polygon fill="none" stroke="#000000" points="544.5,-410.7 544.5,-429.7 575.5,-429.7 575.5,-410.7 544.5,-410.7"/>
<text text-anchor="start" x="566.3862" y="-416.8" font-family="Helvetica,sans-Serif" font-size="11.00" fill="#000000"> &#160;</text>
<polygon fill="#ffffff" stroke="transparent" points="575.5,-410.7 575.5,-429.7 607.5,-429.7 607.5,-410.7 575.5,-410.7"/>
<polygon fill="none" stroke="#000000" points="575.5,-410.7 575.5,-429.7 607.5,-429.7 607.5,-410.7 575.5,-410.7"/>
<text text-anchor="start" x="598.3862" y="-416.8" font-family="Helvetica,sans-Serif" font-size="11.00" fill="#000000"> &#160;</text>
</a>
</g>
</g>
<!-- usuario_grupo&#45;&gt;grupo -->
<g id="edge11" class="edge">
<title>usuario_grupo:w&#45;&gt;grupo:e</title>
<path fill="none" stroke="#000000" d="M461.4567,-414.2736C451.951,-412.6751 442.3291,-411.7 433,-411.7"/>
<polygon fill="#000000" stroke="#000000" points="467.8967,-415.5626 475.0345,-420.6628 471.8189,-416.3477 475.7411,-417.1328 475.7411,-417.1328 475.7411,-417.1328 471.8189,-416.3477 476.4477,-413.6028 467.8967,-415.5626 467.8967,-415.5626"/>
<ellipse fill="none" stroke="#000000" cx="464.7589" cy="-414.9345" rx="3.2" ry="3.2"/>
</g>
<!-- usuario_grupo&#45;&gt;usuario -->
<g id="edge12" class="edge">
<title>usuario_grupo:w&#45;&gt;usuario:e</title>
<path fill="none" stroke="#000000" d="M461.6491,-473.3591C397.7063,-491.6515 310.7447,-503.2294 251,-458.7 212.1029,-429.7089 184.9314,-285.6769 174.156,-218.4149"/>
<polygon fill="#000000" stroke="#000000" points="468.0803,-471.4221 476.7787,-472.562 471.9104,-470.2685 475.7404,-469.1149 475.7404,-469.1149 475.7404,-469.1149 471.9104,-470.2685 474.7022,-465.6679 468.0803,-471.4221 468.0803,-471.4221"/>
<ellipse fill="none" stroke="#000000" cx="465.0163" cy="-472.345" rx="3.2" ry="3.2"/>
</g>
<!-- usuario_turma -->
<g id="node9" class="node">
<title>usuario_turma</title>
<g id="a_node9"><a xlink:href="../../tables/usuario_turma.html" xlink:title="usuario_turma" target="_top">
<polygon fill="#ffffff" stroke="transparent" points="484.5,-38.2 484.5,-99.2 606.5,-99.2 606.5,-38.2 484.5,-38.2"/>
<polygon fill="#f5f5f5" stroke="transparent" points="484.5,-75.7 484.5,-98.7 606.5,-98.7 606.5,-75.7 484.5,-75.7"/>
<polygon fill="none" stroke="#000000" points="484.5,-75.7 484.5,-98.7 606.5,-98.7 606.5,-75.7 484.5,-75.7"/>
<text text-anchor="start" x="489.5" y="-84.3" font-family="Helvetica,sans-Serif" font-weight="bold" font-size="11.00" fill="#000000">usuario_turma</text>
<text text-anchor="start" x="572.0219" y="-83.8" font-family="Helvetica,sans-Serif" font-size="11.00" fill="#000000">[table]</text>
<polygon fill="none" stroke="#000000" points="484.5,-56.7 484.5,-75.7 606.5,-75.7 606.5,-56.7 484.5,-56.7"/>
<text text-anchor="start" x="487.5" y="-62.8" font-family="Helvetica,sans-Serif" font-size="11.00" fill="#000000">...</text>
<polygon fill="#ffffff" stroke="transparent" points="484.5,-37.7 484.5,-56.7 543.5,-56.7 543.5,-37.7 484.5,-37.7"/>
<polygon fill="none" stroke="#000000" points="484.5,-37.7 484.5,-56.7 543.5,-56.7 543.5,-37.7 484.5,-37.7"/>
<text text-anchor="start" x="487.5" y="-43.8" font-family="Helvetica,sans-Serif" font-size="11.00" fill="#000000">&lt; 2</text>
<polygon fill="#ffffff" stroke="transparent" points="543.5,-37.7 543.5,-56.7 574.5,-56.7 574.5,-37.7 543.5,-37.7"/>
<polygon fill="none" stroke="#000000" points="543.5,-37.7 543.5,-56.7 574.5,-56.7 574.5,-37.7 543.5,-37.7"/>
<text text-anchor="start" x="565.3862" y="-43.8" font-family="Helvetica,sans-Serif" font-size="11.00" fill="#000000"> &#160;</text>
<polygon fill="#ffffff" stroke="transparent" points="574.5,-37.7 574.5,-56.7 606.5,-56.7 606.5,-37.7 574.5,-37.7"/>
<polygon fill="none" stroke="#000000" points="574.5,-37.7 574.5,-56.7 606.5,-56.7 606.5,-37.7 574.5,-37.7"/>
<text text-anchor="start" x="597.3862" y="-43.8" font-family="Helvetica,sans-Serif" font-size="11.00" fill="#000000"> &#160;</text>
</a>
</g>
</g>
<!-- usuario_turma&#45;&gt;turma -->
<g id="edge13" class="edge">
<title>usuario_turma:w&#45;&gt;turma:e</title>
<path fill="none" stroke="#000000" d="M470.0895,-66.9976C434.593,-73.7647 426.0408,-104.7 383,-104.7"/>
<polygon fill="#000000" stroke="#000000" points="476.5322,-66.4175 484.8229,-69.2855 480.5161,-66.0588 484.5,-65.7 484.5,-65.7 484.5,-65.7 480.5161,-66.0588 484.1771,-62.1145 476.5322,-66.4175 476.5322,-66.4175"/>
<ellipse fill="none" stroke="#000000" cx="473.3451" cy="-66.7045" rx="3.2" ry="3.2"/>
</g>
<!-- usuario_turma&#45;&gt;usuario -->
<g id="edge14" class="edge">
<title>usuario_turma:w&#45;&gt;usuario:e</title>
<path fill="none" stroke="#000000" d="M470.0424,-65.3921C376.9833,-61.4107 338.56,-20.9048 251,-66.7 218.0303,-83.9437 195.5445,-121.1487 182.576,-149.0027"/>
<polygon fill="#000000" stroke="#000000" points="476.5018,-65.5296 484.4233,-69.2992 480.5009,-65.6148 484.5,-65.7 484.5,-65.7 484.5,-65.7 480.5009,-65.6148 484.5767,-62.1008 476.5018,-65.5296 476.5018,-65.5296"/>
<ellipse fill="none" stroke="#000000" cx="473.3025" cy="-65.4614" rx="3.2" ry="3.2"/>
</g>
</g>
</svg>
