<?xml version="1.0" encoding="UTF-8" standalone="no"?>
<!DOCTYPE svg PUBLIC "-//W3C//DTD SVG 1.1//EN"
 "http://www.w3.org/Graphics/SVG/1.1/DTD/svg11.dtd">
<!-- Generated by graphviz version 2.40.1 (20161225.0304)
 -->
<!-- Title: twoDegreesRelationshipsDiagram Pages: 1 -->
<svg width="352pt" height="245pt"
 viewBox="0.00 0.00 352.00 244.70" xmlns="http://www.w3.org/2000/svg" xmlns:xlink="http://www.w3.org/1999/xlink">
<g id="graph0" class="graph" transform="scale(1 1) rotate(0) translate(4 240.7)">
<title>twoDegreesRelationshipsDiagram</title>
<polygon fill="#ffffff" stroke="transparent" points="-4,4 -4,-240.7 348,-240.7 348,4 -4,4"/>
<text text-anchor="middle" x="72.4936" y="-7.3" font-family="Helvetica,sans-Serif" font-size="11.00" fill="#000000">Generated by SchemaSpy</text>
<!-- agendamentos -->
<g id="node1" class="node">
<title>agendamentos</title>
<g id="a_node1"><a xlink:href="../../tables/agendamentos.html" xlink:title="agendamentos" target="_top">
<polygon fill="#ffffff" stroke="transparent" points="213,-85.7 213,-212.7 336,-212.7 336,-85.7 213,-85.7"/>
<polygon fill="#f5f5f5" stroke="transparent" points="213.5,-189.2 213.5,-212.2 336.5,-212.2 336.5,-189.2 213.5,-189.2"/>
<polygon fill="none" stroke="#000000" points="213.5,-189.2 213.5,-212.2 336.5,-212.2 336.5,-189.2 213.5,-189.2"/>
<text text-anchor="start" x="218.5" y="-197.8" font-family="Helvetica,sans-Serif" font-weight="bold" font-size="11.00" fill="#000000">agendamentos</text>
<text text-anchor="start" x="302.0219" y="-197.3" font-family="Helvetica,sans-Serif" font-size="11.00" fill="#000000">[table]</text>
<polygon fill="none" stroke="#000000" points="213.5,-167.2 213.5,-189.2 336.5,-189.2 336.5,-167.2 213.5,-167.2"/>
<image xlink:href="../../images/foreignKeys.png" width="11px" height="12px" preserveAspectRatio="xMinYMin meet" x="218.5" y="-184.2"/>
<text text-anchor="start" x="242.5" y="-174.3" font-family="Helvetica,sans-Serif" font-size="11.00" fill="#000000">encontro_id</text>
<polygon fill="none" stroke="#000000" points="213.5,-145.2 213.5,-167.2 336.5,-167.2 336.5,-145.2 213.5,-145.2"/>
<image xlink:href="../../images/primaryKeys.png" width="11px" height="12px" preserveAspectRatio="xMinYMin meet" x="218.5" y="-162.2"/>
<text text-anchor="start" x="242.5" y="-152.3" font-family="Helvetica,sans-Serif" font-size="11.00" fill="#000000">id</text>
<polygon fill="none" stroke="#000000" points="213.5,-123.2 213.5,-145.2 336.5,-145.2 336.5,-123.2 213.5,-123.2"/>
<image xlink:href="../../images/foreignKeys.png" width="11px" height="12px" preserveAspectRatio="xMinYMin meet" x="218.5" y="-140.2"/>
<text text-anchor="start" x="242.5" y="-130.3" font-family="Helvetica,sans-Serif" font-size="11.00" fill="#000000">local_id</text>
<polygon fill="none" stroke="#000000" points="213.5,-104.2 213.5,-123.2 336.5,-123.2 336.5,-104.2 213.5,-104.2"/>
<text text-anchor="start" x="216.5" y="-110.3" font-family="Helvetica,sans-Serif" font-size="11.00" fill="#000000">...</text>
<polygon fill="#ffffff" stroke="transparent" points="213.5,-85.2 213.5,-104.2 273.5,-104.2 273.5,-85.2 213.5,-85.2"/>
<polygon fill="none" stroke="#000000" points="213.5,-85.2 213.5,-104.2 273.5,-104.2 273.5,-85.2 213.5,-85.2"/>
<text text-anchor="start" x="216.5" y="-91.3" font-family="Helvetica,sans-Serif" font-size="11.00" fill="#000000">&lt; 2</text>
<polygon fill="#ffffff" stroke="transparent" points="273.5,-85.2 273.5,-104.2 304.5,-104.2 304.5,-85.2 273.5,-85.2"/>
<polygon fill="none" stroke="#000000" points="273.5,-85.2 273.5,-104.2 304.5,-104.2 304.5,-85.2 273.5,-85.2"/>
<text text-anchor="start" x="295.3862" y="-91.3" font-family="Helvetica,sans-Serif" font-size="11.00" fill="#000000"> &#160;</text>
<polygon fill="#ffffff" stroke="transparent" points="304.5,-85.2 304.5,-104.2 336.5,-104.2 336.5,-85.2 304.5,-85.2"/>
<polygon fill="none" stroke="#000000" points="304.5,-85.2 304.5,-104.2 336.5,-104.2 336.5,-85.2 304.5,-85.2"/>
<text text-anchor="start" x="327.3862" y="-91.3" font-family="Helvetica,sans-Serif" font-size="11.00" fill="#000000"> &#160;</text>
</a>
</g>
</g>
<!-- encontros -->
<g id="node2" class="node">
<title>encontros</title>
<g id="a_node2"><a xlink:href="../../tables/encontros.html" xlink:title="encontros" target="_top">
<polygon fill="#ffffff" stroke="transparent" points="37.5,-171.7 37.5,-232.7 134.5,-232.7 134.5,-171.7 37.5,-171.7"/>
<polygon fill="#f5f5f5" stroke="transparent" points="38,-209.2 38,-232.2 135,-232.2 135,-209.2 38,-209.2"/>
<polygon fill="none" stroke="#000000" points="38,-209.2 38,-232.2 135,-232.2 135,-209.2 38,-209.2"/>
<text text-anchor="start" x="43" y="-217.8" font-family="Helvetica,sans-Serif" font-weight="bold" font-size="11.00" fill="#000000">encontros</text>
<text text-anchor="start" x="100.5219" y="-217.3" font-family="Helvetica,sans-Serif" font-size="11.00" fill="#000000">[table]</text>
<polygon fill="none" stroke="#000000" points="38,-190.2 38,-209.2 135,-209.2 135,-190.2 38,-190.2"/>
<text text-anchor="start" x="41" y="-196.3" font-family="Helvetica,sans-Serif" font-size="11.00" fill="#000000">...</text>
<polygon fill="#ffffff" stroke="transparent" points="38,-171.2 38,-190.2 80,-190.2 80,-171.2 38,-171.2"/>
<polygon fill="none" stroke="#000000" points="38,-171.2 38,-190.2 80,-190.2 80,-171.2 38,-171.2"/>
<text text-anchor="start" x="41" y="-177.3" font-family="Helvetica,sans-Serif" font-size="11.00" fill="#000000">&lt; 2</text>
<polygon fill="#ffffff" stroke="transparent" points="80,-171.2 80,-190.2 103,-190.2 103,-171.2 80,-171.2"/>
<polygon fill="none" stroke="#000000" points="80,-171.2 80,-190.2 103,-190.2 103,-171.2 80,-171.2"/>
<text text-anchor="start" x="93.8862" y="-177.3" font-family="Helvetica,sans-Serif" font-size="11.00" fill="#000000"> &#160;</text>
<polygon fill="#ffffff" stroke="transparent" points="103,-171.2 103,-190.2 135,-190.2 135,-171.2 103,-171.2"/>
<polygon fill="none" stroke="#000000" points="103,-171.2 103,-190.2 135,-190.2 135,-171.2 103,-171.2"/>
<text text-anchor="start" x="116.4053" y="-177.3" font-family="Helvetica,sans-Serif" font-size="11.00" fill="#000000">2 &gt;</text>
</a>
</g>
</g>
<!-- agendamentos&#45;&gt;encontros -->
<g id="edge1" class="edge">
<title>agendamentos:w&#45;&gt;encontros:e</title>
<path fill="none" stroke="#000000" d="M198.8611,-179.5136C174.7816,-184.1111 165.6137,-199.2 135,-199.2"/>
<polygon fill="#000000" stroke="#000000" points="205.532,-178.9151 213.8218,-181.7856 209.516,-178.5575 213.5,-178.2 213.5,-178.2 213.5,-178.2 209.516,-178.5575 213.1782,-174.6144 205.532,-178.9151 205.532,-178.9151"/>
<ellipse fill="none" stroke="#000000" cx="202.3448" cy="-179.2011" rx="3.2" ry="3.2"/>
</g>
<!-- locais -->
<g id="node3" class="node">
<title>locais</title>
<g id="a_node3"><a xlink:href="../../tables/locais.html" xlink:title="locais" target="_top">
<polygon fill="#ffffff" stroke="transparent" points="8,-38.2 8,-150.2 164,-150.2 164,-38.2 8,-38.2"/>
<polygon fill="#f5f5f5" stroke="transparent" points="10,-125.2 10,-148.2 162,-148.2 162,-125.2 10,-125.2"/>
<polygon fill="none" stroke="#000000" points="10,-125.2 10,-148.2 162,-148.2 162,-125.2 10,-125.2"/>
<text text-anchor="start" x="15" y="-133.8" font-family="Helvetica,sans-Serif" font-weight="bold" font-size="11.00" fill="#000000">locais</text>
<text text-anchor="start" x="127.0437" y="-133.3" font-family="Helvetica,sans-Serif" font-size="11.00" fill="#000000">[table]</text>
<polygon fill="none" stroke="#000000" points="10,-103.2 10,-125.2 95,-125.2 95,-103.2 10,-103.2"/>
<image xlink:href="../../images/primaryKeys.png" width="11px" height="12px" preserveAspectRatio="xMinYMin meet" x="15" y="-120.2"/>
<text text-anchor="start" x="30" y="-110.3" font-family="Helvetica,sans-Serif" font-size="11.00" fill="#000000">id</text>
<polygon fill="none" stroke="#000000" points="95,-103.2 95,-125.2 162,-125.2 162,-103.2 95,-103.2"/>
<text text-anchor="start" x="98" y="-110.9" font-family="Helvetica,sans-Serif" font-size="11.00" fill="#000000">serial[10]</text>
<polygon fill="none" stroke="#000000" points="10,-81.2 10,-103.2 95,-103.2 95,-81.2 10,-81.2"/>
<text text-anchor="start" x="30" y="-88.3" font-family="Helvetica,sans-Serif" font-size="11.00" fill="#000000">localizacao</text>
<polygon fill="none" stroke="#000000" points="95,-81.2 95,-103.2 162,-103.2 162,-81.2 95,-81.2"/>
<text text-anchor="start" x="97.9365" y="-88.9" font-family="Helvetica,sans-Serif" font-size="11.00" fill="#000000">varchar[255]</text>
<polygon fill="#ffffff" stroke="transparent" points="10,-59.2 10,-81.2 95,-81.2 95,-59.2 10,-59.2"/>
<polygon fill="none" stroke="#000000" points="10,-59.2 10,-81.2 95,-81.2 95,-59.2 10,-59.2"/>
<text text-anchor="start" x="30" y="-66.3" font-family="Helvetica,sans-Serif" font-size="11.00" fill="#000000">nome</text>
<polygon fill="none" stroke="#000000" points="95,-59.2 95,-81.2 162,-81.2 162,-59.2 95,-59.2"/>
<text text-anchor="start" x="97.9365" y="-66.9" font-family="Helvetica,sans-Serif" font-size="11.00" fill="#000000">varchar[255]</text>
<polygon fill="#ffffff" stroke="transparent" points="10,-40.2 10,-59.2 57,-59.2 57,-40.2 10,-40.2"/>
<polygon fill="none" stroke="#000000" points="10,-40.2 10,-59.2 57,-59.2 57,-40.2 10,-40.2"/>
<text text-anchor="start" x="13" y="-46.3" font-family="Helvetica,sans-Serif" font-size="11.00" fill="#000000">&lt; 0</text>
<polygon fill="#ffffff" stroke="transparent" points="57,-40.2 57,-59.2 95,-59.2 95,-40.2 57,-40.2"/>
<polygon fill="none" stroke="#000000" points="57,-40.2 57,-59.2 95,-59.2 95,-40.2 57,-40.2"/>
<text text-anchor="start" x="85.8862" y="-46.3" font-family="Helvetica,sans-Serif" font-size="11.00" fill="#000000"> &#160;</text>
<polygon fill="#ffffff" stroke="transparent" points="95,-40.2 95,-59.2 162,-59.2 162,-40.2 95,-40.2"/>
<polygon fill="none" stroke="#000000" points="95,-40.2 95,-59.2 162,-59.2 162,-40.2 95,-40.2"/>
<text text-anchor="start" x="143.4053" y="-46.3" font-family="Helvetica,sans-Serif" font-size="11.00" fill="#000000">1 &gt;</text>
<polygon fill="none" stroke="#000000" stroke-width="2" points="9,-39.2 9,-149.2 163,-149.2 163,-39.2 9,-39.2"/>
</a>
</g>
</g>
<!-- agendamentos&#45;&gt;locais -->
<g id="edge2" class="edge">
<title>agendamentos:w&#45;&gt;locais:e</title>
<path fill="none" stroke="#000000" d="M199.3169,-131.4191C186.6073,-125.9236 180.7994,-114.2 162,-114.2"/>
<polygon fill="#000000" stroke="#000000" points="205.6495,-132.6607 212.8073,-137.7327 209.5747,-133.4303 213.5,-134.2 213.5,-134.2 213.5,-134.2 209.5747,-133.4303 214.1927,-130.6673 205.6495,-132.6607 205.6495,-132.6607"/>
<ellipse fill="none" stroke="#000000" cx="202.5093" cy="-132.045" rx="3.2" ry="3.2"/>
</g>
</g>
</svg>
