<?xml version="1.0" encoding="UTF-8" standalone="no"?>
<!DOCTYPE svg PUBLIC "-//W3C//DTD SVG 1.1//EN"
 "http://www.w3.org/Graphics/SVG/1.1/DTD/svg11.dtd">
<!-- Generated by graphviz version 2.40.1 (20161225.0304)
 -->
<!-- Title: oneDegreeRelationshipsDiagram Pages: 1 -->
<svg width="352pt" height="205pt"
 viewBox="0.00 0.00 352.00 204.70" xmlns="http://www.w3.org/2000/svg" xmlns:xlink="http://www.w3.org/1999/xlink">
<g id="graph0" class="graph" transform="scale(1 1) rotate(0) translate(4 200.7)">
<title>oneDegreeRelationshipsDiagram</title>
<polygon fill="#ffffff" stroke="transparent" points="-4,4 -4,-200.7 348,-200.7 348,4 -4,4"/>
<text text-anchor="middle" x="72.4936" y="-7.3" font-family="Helvetica,sans-Serif" font-size="11.00" fill="#000000">Generated by SchemaSpy</text>
<!-- agendamentos -->
<g id="node1" class="node">
<title>agendamentos</title>
<g id="a_node1"><a xlink:href="../../tables/agendamentos.html" xlink:title="agendamentos" target="_top">
<polygon fill="#ffffff" stroke="transparent" points="213,-65.7 213,-192.7 336,-192.7 336,-65.7 213,-65.7"/>
<polygon fill="#f5f5f5" stroke="transparent" points="213.5,-169.2 213.5,-192.2 336.5,-192.2 336.5,-169.2 213.5,-169.2"/>
<polygon fill="none" stroke="#000000" points="213.5,-169.2 213.5,-192.2 336.5,-192.2 336.5,-169.2 213.5,-169.2"/>
<text text-anchor="start" x="218.5" y="-177.8" font-family="Helvetica,sans-Serif" font-weight="bold" font-size="11.00" fill="#000000">agendamentos</text>
<text text-anchor="start" x="302.0219" y="-177.3" font-family="Helvetica,sans-Serif" font-size="11.00" fill="#000000">[table]</text>
<polygon fill="none" stroke="#000000" points="213.5,-147.2 213.5,-169.2 336.5,-169.2 336.5,-147.2 213.5,-147.2"/>
<image xlink:href="../../images/foreignKeys.png" width="11px" height="12px" preserveAspectRatio="xMinYMin meet" x="218.5" y="-164.2"/>
<text text-anchor="start" x="242.5" y="-154.3" font-family="Helvetica,sans-Serif" font-size="11.00" fill="#000000">encontro_id</text>
<polygon fill="none" stroke="#000000" points="213.5,-125.2 213.5,-147.2 336.5,-147.2 336.5,-125.2 213.5,-125.2"/>
<image xlink:href="../../images/primaryKeys.png" width="11px" height="12px" preserveAspectRatio="xMinYMin meet" x="218.5" y="-142.2"/>
<text text-anchor="start" x="242.5" y="-132.3" font-family="Helvetica,sans-Serif" font-size="11.00" fill="#000000">id</text>
<polygon fill="none" stroke="#000000" points="213.5,-103.2 213.5,-125.2 336.5,-125.2 336.5,-103.2 213.5,-103.2"/>
<image xlink:href="../../images/foreignKeys.png" width="11px" height="12px" preserveAspectRatio="xMinYMin meet" x="218.5" y="-120.2"/>
<text text-anchor="start" x="242.5" y="-110.3" font-family="Helvetica,sans-Serif" font-size="11.00" fill="#000000">local_id</text>
<polygon fill="none" stroke="#000000" points="213.5,-84.2 213.5,-103.2 336.5,-103.2 336.5,-84.2 213.5,-84.2"/>
<text text-anchor="start" x="216.5" y="-90.3" font-family="Helvetica,sans-Serif" font-size="11.00" fill="#000000">...</text>
<polygon fill="#ffffff" stroke="transparent" points="213.5,-65.2 213.5,-84.2 273.5,-84.2 273.5,-65.2 213.5,-65.2"/>
<polygon fill="none" stroke="#000000" points="213.5,-65.2 213.5,-84.2 273.5,-84.2 273.5,-65.2 213.5,-65.2"/>
<text text-anchor="start" x="216.5" y="-71.3" font-family="Helvetica,sans-Serif" font-size="11.00" fill="#000000">&lt; 2</text>
<polygon fill="#ffffff" stroke="transparent" points="273.5,-65.2 273.5,-84.2 304.5,-84.2 304.5,-65.2 273.5,-65.2"/>
<polygon fill="none" stroke="#000000" points="273.5,-65.2 273.5,-84.2 304.5,-84.2 304.5,-65.2 273.5,-65.2"/>
<text text-anchor="start" x="295.3862" y="-71.3" font-family="Helvetica,sans-Serif" font-size="11.00" fill="#000000"> &#160;</text>
<polygon fill="#ffffff" stroke="transparent" points="304.5,-65.2 304.5,-84.2 336.5,-84.2 336.5,-65.2 304.5,-65.2"/>
<polygon fill="none" stroke="#000000" points="304.5,-65.2 304.5,-84.2 336.5,-84.2 336.5,-65.2 304.5,-65.2"/>
<text text-anchor="start" x="327.3862" y="-71.3" font-family="Helvetica,sans-Serif" font-size="11.00" fill="#000000"> &#160;</text>
</a>
</g>
</g>
<!-- locais -->
<g id="node2" class="node">
<title>locais</title>
<g id="a_node2"><a xlink:href="../../tables/locais.html" xlink:title="locais" target="_top">
<polygon fill="#ffffff" stroke="transparent" points="8,-38.2 8,-150.2 164,-150.2 164,-38.2 8,-38.2"/>
<polygon fill="#f5f5f5" stroke="transparent" points="10,-125.2 10,-148.2 162,-148.2 162,-125.2 10,-125.2"/>
<polygon fill="none" stroke="#000000" points="10,-125.2 10,-148.2 162,-148.2 162,-125.2 10,-125.2"/>
<text text-anchor="start" x="15" y="-133.8" font-family="Helvetica,sans-Serif" font-weight="bold" font-size="11.00" fill="#000000">locais</text>
<text text-anchor="start" x="127.0437" y="-133.3" font-family="Helvetica,sans-Serif" font-size="11.00" fill="#000000">[table]</text>
<polygon fill="none" stroke="#000000" points="10,-103.2 10,-125.2 95,-125.2 95,-103.2 10,-103.2"/>
<image xlink:href="../../images/primaryKeys.png" width="11px" height="12px" preserveAspectRatio="xMinYMin meet" x="15" y="-120.2"/>
<text text-anchor="start" x="30" y="-110.3" font-family="Helvetica,sans-Serif" font-size="11.00" fill="#000000">id</text>
<polygon fill="none" stroke="#000000" points="95,-103.2 95,-125.2 162,-125.2 162,-103.2 95,-103.2"/>
<text text-anchor="start" x="98" y="-110.9" font-family="Helvetica,sans-Serif" font-size="11.00" fill="#000000">serial[10]</text>
<polygon fill="none" stroke="#000000" points="10,-81.2 10,-103.2 95,-103.2 95,-81.2 10,-81.2"/>
<text text-anchor="start" x="30" y="-88.3" font-family="Helvetica,sans-Serif" font-size="11.00" fill="#000000">localizacao</text>
<polygon fill="none" stroke="#000000" points="95,-81.2 95,-103.2 162,-103.2 162,-81.2 95,-81.2"/>
<text text-anchor="start" x="97.9365" y="-88.9" font-family="Helvetica,sans-Serif" font-size="11.00" fill="#000000">varchar[255]</text>
<polygon fill="#ffffff" stroke="transparent" points="10,-59.2 10,-81.2 95,-81.2 95,-59.2 10,-59.2"/>
<polygon fill="none" stroke="#000000" points="10,-59.2 10,-81.2 95,-81.2 95,-59.2 10,-59.2"/>
<text text-anchor="start" x="30" y="-66.3" font-family="Helvetica,sans-Serif" font-size="11.00" fill="#000000">nome</text>
<polygon fill="none" stroke="#000000" points="95,-59.2 95,-81.2 162,-81.2 162,-59.2 95,-59.2"/>
<text text-anchor="start" x="97.9365" y="-66.9" font-family="Helvetica,sans-Serif" font-size="11.00" fill="#000000">varchar[255]</text>
<polygon fill="#ffffff" stroke="transparent" points="10,-40.2 10,-59.2 57,-59.2 57,-40.2 10,-40.2"/>
<polygon fill="none" stroke="#000000" points="10,-40.2 10,-59.2 57,-59.2 57,-40.2 10,-40.2"/>
<text text-anchor="start" x="13" y="-46.3" font-family="Helvetica,sans-Serif" font-size="11.00" fill="#000000">&lt; 0</text>
<polygon fill="#ffffff" stroke="transparent" points="57,-40.2 57,-59.2 95,-59.2 95,-40.2 57,-40.2"/>
<polygon fill="none" stroke="#000000" points="57,-40.2 57,-59.2 95,-59.2 95,-40.2 57,-40.2"/>
<text text-anchor="start" x="85.8862" y="-46.3" font-family="Helvetica,sans-Serif" font-size="11.00" fill="#000000"> &#160;</text>
<polygon fill="#ffffff" stroke="transparent" points="95,-40.2 95,-59.2 162,-59.2 162,-40.2 95,-40.2"/>
<polygon fill="none" stroke="#000000" points="95,-40.2 95,-59.2 162,-59.2 162,-40.2 95,-40.2"/>
<text text-anchor="start" x="143.4053" y="-46.3" font-family="Helvetica,sans-Serif" font-size="11.00" fill="#000000">1 &gt;</text>
<polygon fill="none" stroke="#000000" stroke-width="2" points="9,-39.2 9,-149.2 163,-149.2 163,-39.2 9,-39.2"/>
</a>
</g>
</g>
<!-- agendamentos&#45;&gt;locais -->
<g id="edge1" class="edge">
<title>agendamentos:w&#45;&gt;locais:e</title>
<path fill="none" stroke="#000000" d="M199.0156,-114.2C186.6771,-114.2 179.1667,-114.2 162,-114.2"/>
<polygon fill="#000000" stroke="#000000" points="205.5,-114.2001 213.5,-117.8 209.5,-114.2 213.5,-114.2 213.5,-114.2 213.5,-114.2 209.5,-114.2 213.5,-110.6 205.5,-114.2001 205.5,-114.2001"/>
<ellipse fill="none" stroke="#000000" cx="202.3" cy="-114.2001" rx="3.2" ry="3.2"/>
</g>
</g>
</svg>
