<?xml version="1.0" encoding="UTF-8" standalone="no"?>
<!DOCTYPE svg PUBLIC "-//W3C//DTD SVG 1.1//EN"
 "http://www.w3.org/Graphics/SVG/1.1/DTD/svg11.dtd">
<!-- Generated by graphviz version 2.40.1 (20161225.0304)
 -->
<!-- Title: twoDegreesRelationshipsDiagram Pages: 1 -->
<svg width="766pt" height="458pt"
 viewBox="0.00 0.00 766.00 458.20" xmlns="http://www.w3.org/2000/svg" xmlns:xlink="http://www.w3.org/1999/xlink">
<g id="graph0" class="graph" transform="scale(1 1) rotate(0) translate(4 454.2)">
<title>twoDegreesRelationshipsDiagram</title>
<polygon fill="#ffffff" stroke="transparent" points="-4,4 -4,-454.2 762,-454.2 762,4 -4,4"/>
<text text-anchor="middle" x="72.4936" y="-7.3" font-family="Helvetica,sans-Serif" font-size="11.00" fill="#000000">Generated by SchemaSpy</text>
<!-- agendamentos -->
<g id="node1" class="node">
<title>agendamentos</title>
<g id="a_node1"><a xlink:href="../../tables/agendamentos.html" xlink:title="agendamentos" target="_top">
<polygon fill="#ffffff" stroke="transparent" points="600,-302.2 600,-363.2 723,-363.2 723,-302.2 600,-302.2"/>
<polygon fill="#f5f5f5" stroke="transparent" points="600.5,-339.7 600.5,-362.7 723.5,-362.7 723.5,-339.7 600.5,-339.7"/>
<polygon fill="none" stroke="#000000" points="600.5,-339.7 600.5,-362.7 723.5,-362.7 723.5,-339.7 600.5,-339.7"/>
<text text-anchor="start" x="605.5" y="-348.3" font-family="Helvetica,sans-Serif" font-weight="bold" font-size="11.00" fill="#000000">agendamentos</text>
<text text-anchor="start" x="689.0219" y="-347.8" font-family="Helvetica,sans-Serif" font-size="11.00" fill="#000000">[table]</text>
<polygon fill="none" stroke="#000000" points="600.5,-320.7 600.5,-339.7 723.5,-339.7 723.5,-320.7 600.5,-320.7"/>
<text text-anchor="start" x="603.5" y="-326.8" font-family="Helvetica,sans-Serif" font-size="11.00" fill="#000000">...</text>
<polygon fill="#ffffff" stroke="transparent" points="600.5,-301.7 600.5,-320.7 660.5,-320.7 660.5,-301.7 600.5,-301.7"/>
<polygon fill="none" stroke="#000000" points="600.5,-301.7 600.5,-320.7 660.5,-320.7 660.5,-301.7 600.5,-301.7"/>
<text text-anchor="start" x="603.5" y="-307.8" font-family="Helvetica,sans-Serif" font-size="11.00" fill="#000000">&lt; 2</text>
<polygon fill="#ffffff" stroke="transparent" points="660.5,-301.7 660.5,-320.7 691.5,-320.7 691.5,-301.7 660.5,-301.7"/>
<polygon fill="none" stroke="#000000" points="660.5,-301.7 660.5,-320.7 691.5,-320.7 691.5,-301.7 660.5,-301.7"/>
<text text-anchor="start" x="682.3862" y="-307.8" font-family="Helvetica,sans-Serif" font-size="11.00" fill="#000000"> &#160;</text>
<polygon fill="#ffffff" stroke="transparent" points="691.5,-301.7 691.5,-320.7 723.5,-320.7 723.5,-301.7 691.5,-301.7"/>
<polygon fill="none" stroke="#000000" points="691.5,-301.7 691.5,-320.7 723.5,-320.7 723.5,-301.7 691.5,-301.7"/>
<text text-anchor="start" x="714.3862" y="-307.8" font-family="Helvetica,sans-Serif" font-size="11.00" fill="#000000"> &#160;</text>
</a>
</g>
</g>
<!-- encontros -->
<g id="node2" class="node">
<title>encontros</title>
<g id="a_node2"><a xlink:href="../../tables/encontros.html" xlink:title="encontros" target="_top">
<polygon fill="#ffffff" stroke="transparent" points="414,-237.2 414,-364.2 511,-364.2 511,-237.2 414,-237.2"/>
<polygon fill="#f5f5f5" stroke="transparent" points="414.5,-340.7 414.5,-363.7 511.5,-363.7 511.5,-340.7 414.5,-340.7"/>
<polygon fill="none" stroke="#000000" points="414.5,-340.7 414.5,-363.7 511.5,-363.7 511.5,-340.7 414.5,-340.7"/>
<text text-anchor="start" x="419.5" y="-349.3" font-family="Helvetica,sans-Serif" font-weight="bold" font-size="11.00" fill="#000000">encontros</text>
<text text-anchor="start" x="477.0219" y="-348.8" font-family="Helvetica,sans-Serif" font-size="11.00" fill="#000000">[table]</text>
<polygon fill="none" stroke="#000000" points="414.5,-318.7 414.5,-340.7 511.5,-340.7 511.5,-318.7 414.5,-318.7"/>
<image xlink:href="../../images/primaryKeys.png" width="11px" height="12px" preserveAspectRatio="xMinYMin meet" x="419.5" y="-335.7"/>
<text text-anchor="start" x="443.5" y="-325.8" font-family="Helvetica,sans-Serif" font-size="11.00" fill="#000000">id</text>
<polygon fill="none" stroke="#000000" points="414.5,-296.7 414.5,-318.7 511.5,-318.7 511.5,-296.7 414.5,-296.7"/>
<image xlink:href="../../images/foreignKeys.png" width="11px" height="12px" preserveAspectRatio="xMinYMin meet" x="419.5" y="-313.7"/>
<text text-anchor="start" x="443.5" y="-303.8" font-family="Helvetica,sans-Serif" font-size="11.00" fill="#000000">id_grupo</text>
<polygon fill="none" stroke="#000000" points="414.5,-274.7 414.5,-296.7 511.5,-296.7 511.5,-274.7 414.5,-274.7"/>
<image xlink:href="../../images/foreignKeys.png" width="11px" height="12px" preserveAspectRatio="xMinYMin meet" x="419.5" y="-291.7"/>
<text text-anchor="start" x="443.5" y="-281.8" font-family="Helvetica,sans-Serif" font-size="11.00" fill="#000000">id_turma</text>
<polygon fill="none" stroke="#000000" points="414.5,-255.7 414.5,-274.7 511.5,-274.7 511.5,-255.7 414.5,-255.7"/>
<text text-anchor="start" x="417.5" y="-261.8" font-family="Helvetica,sans-Serif" font-size="11.00" fill="#000000">...</text>
<polygon fill="#ffffff" stroke="transparent" points="414.5,-236.7 414.5,-255.7 456.5,-255.7 456.5,-236.7 414.5,-236.7"/>
<polygon fill="none" stroke="#000000" points="414.5,-236.7 414.5,-255.7 456.5,-255.7 456.5,-236.7 414.5,-236.7"/>
<text text-anchor="start" x="417.5" y="-242.8" font-family="Helvetica,sans-Serif" font-size="11.00" fill="#000000">&lt; 2</text>
<polygon fill="#ffffff" stroke="transparent" points="456.5,-236.7 456.5,-255.7 479.5,-255.7 479.5,-236.7 456.5,-236.7"/>
<polygon fill="none" stroke="#000000" points="456.5,-236.7 456.5,-255.7 479.5,-255.7 479.5,-236.7 456.5,-236.7"/>
<text text-anchor="start" x="470.3862" y="-242.8" font-family="Helvetica,sans-Serif" font-size="11.00" fill="#000000"> &#160;</text>
<polygon fill="#ffffff" stroke="transparent" points="479.5,-236.7 479.5,-255.7 511.5,-255.7 511.5,-236.7 479.5,-236.7"/>
<polygon fill="none" stroke="#000000" points="479.5,-236.7 479.5,-255.7 511.5,-255.7 511.5,-236.7 479.5,-236.7"/>
<text text-anchor="start" x="492.9053" y="-242.8" font-family="Helvetica,sans-Serif" font-size="11.00" fill="#000000">2 &gt;</text>
</a>
</g>
</g>
<!-- agendamentos&#45;&gt;encontros -->
<g id="edge1" class="edge">
<title>agendamentos:w&#45;&gt;encontros:e</title>
<path fill="none" stroke="#000000" d="M585.788,-329.7C557.6859,-329.7 545.6476,-329.7 511.5,-329.7"/>
<polygon fill="#000000" stroke="#000000" points="592.5,-329.7001 600.5,-333.3 596.5,-329.7 600.5,-329.7 600.5,-329.7 600.5,-329.7 596.5,-329.7 600.5,-326.1 592.5,-329.7001 592.5,-329.7001"/>
<ellipse fill="none" stroke="#000000" cx="589.3" cy="-329.7001" rx="3.2" ry="3.2"/>
</g>
<!-- grupos -->
<g id="node3" class="node">
<title>grupos</title>
<g id="a_node3"><a xlink:href="../../tables/grupos.html" xlink:title="grupos" target="_top">
<polygon fill="#ffffff" stroke="transparent" points="273,-305.2 273,-366.2 352,-366.2 352,-305.2 273,-305.2"/>
<polygon fill="#f5f5f5" stroke="transparent" points="273.5,-342.7 273.5,-365.7 352.5,-365.7 352.5,-342.7 273.5,-342.7"/>
<polygon fill="none" stroke="#000000" points="273.5,-342.7 273.5,-365.7 352.5,-365.7 352.5,-342.7 273.5,-342.7"/>
<text text-anchor="start" x="278.5" y="-351.3" font-family="Helvetica,sans-Serif" font-weight="bold" font-size="11.00" fill="#000000">grupos</text>
<text text-anchor="start" x="318.0219" y="-350.8" font-family="Helvetica,sans-Serif" font-size="11.00" fill="#000000">[table]</text>
<polygon fill="none" stroke="#000000" points="273.5,-323.7 273.5,-342.7 352.5,-342.7 352.5,-323.7 273.5,-323.7"/>
<text text-anchor="start" x="276.5" y="-329.8" font-family="Helvetica,sans-Serif" font-size="11.00" fill="#000000">...</text>
<polygon fill="#ffffff" stroke="transparent" points="273.5,-304.7 273.5,-323.7 306.5,-323.7 306.5,-304.7 273.5,-304.7"/>
<polygon fill="none" stroke="#000000" points="273.5,-304.7 273.5,-323.7 306.5,-323.7 306.5,-304.7 273.5,-304.7"/>
<text text-anchor="start" x="276.5" y="-310.8" font-family="Helvetica,sans-Serif" font-size="11.00" fill="#000000">&lt; 2</text>
<polygon fill="#ffffff" stroke="transparent" points="306.5,-304.7 306.5,-323.7 324.5,-323.7 324.5,-304.7 306.5,-304.7"/>
<polygon fill="none" stroke="#000000" points="306.5,-304.7 306.5,-323.7 324.5,-323.7 324.5,-304.7 306.5,-304.7"/>
<text text-anchor="start" x="315.3862" y="-310.8" font-family="Helvetica,sans-Serif" font-size="11.00" fill="#000000"> &#160;</text>
<polygon fill="#ffffff" stroke="transparent" points="324.5,-304.7 324.5,-323.7 352.5,-323.7 352.5,-304.7 324.5,-304.7"/>
<polygon fill="none" stroke="#000000" points="324.5,-304.7 324.5,-323.7 352.5,-323.7 352.5,-304.7 324.5,-304.7"/>
<text text-anchor="start" x="333.9053" y="-310.8" font-family="Helvetica,sans-Serif" font-size="11.00" fill="#000000">2 &gt;</text>
</a>
</g>
</g>
<!-- encontros&#45;&gt;grupos -->
<g id="edge2" class="edge">
<title>encontros:w&#45;&gt;grupos:e</title>
<path fill="none" stroke="#000000" d="M399.7919,-310.1885C382.7468,-316.512 376.4084,-332.7 352.5,-332.7"/>
<polygon fill="#000000" stroke="#000000" points="406.6121,-309.0346 415.1006,-311.2496 410.5561,-308.3673 414.5,-307.7 414.5,-307.7 414.5,-307.7 410.5561,-308.3673 413.8994,-304.1504 406.6121,-309.0346 406.6121,-309.0346"/>
<ellipse fill="none" stroke="#000000" cx="403.4569" cy="-309.5685" rx="3.2" ry="3.2"/>
</g>
<!-- turmas -->
<g id="node4" class="node">
<title>turmas</title>
<g id="a_node4"><a xlink:href="../../tables/turmas.html" xlink:title="turmas" target="_top">
<polygon fill="#ffffff" stroke="transparent" points="273,-195.2 273,-256.2 352,-256.2 352,-195.2 273,-195.2"/>
<polygon fill="#f5f5f5" stroke="transparent" points="273.5,-232.7 273.5,-255.7 352.5,-255.7 352.5,-232.7 273.5,-232.7"/>
<polygon fill="none" stroke="#000000" points="273.5,-232.7 273.5,-255.7 352.5,-255.7 352.5,-232.7 273.5,-232.7"/>
<text text-anchor="start" x="278.5" y="-241.3" font-family="Helvetica,sans-Serif" font-weight="bold" font-size="11.00" fill="#000000">turmas</text>
<text text-anchor="start" x="318.0219" y="-240.8" font-family="Helvetica,sans-Serif" font-size="11.00" fill="#000000">[table]</text>
<polygon fill="none" stroke="#000000" points="273.5,-213.7 273.5,-232.7 352.5,-232.7 352.5,-213.7 273.5,-213.7"/>
<text text-anchor="start" x="276.5" y="-219.8" font-family="Helvetica,sans-Serif" font-size="11.00" fill="#000000">...</text>
<polygon fill="#ffffff" stroke="transparent" points="273.5,-194.7 273.5,-213.7 306.5,-213.7 306.5,-194.7 273.5,-194.7"/>
<polygon fill="none" stroke="#000000" points="273.5,-194.7 273.5,-213.7 306.5,-213.7 306.5,-194.7 273.5,-194.7"/>
<text text-anchor="start" x="276.5" y="-200.8" font-family="Helvetica,sans-Serif" font-size="11.00" fill="#000000">&lt; 2</text>
<polygon fill="#ffffff" stroke="transparent" points="306.5,-194.7 306.5,-213.7 324.5,-213.7 324.5,-194.7 306.5,-194.7"/>
<polygon fill="none" stroke="#000000" points="306.5,-194.7 306.5,-213.7 324.5,-213.7 324.5,-194.7 306.5,-194.7"/>
<text text-anchor="start" x="315.3862" y="-200.8" font-family="Helvetica,sans-Serif" font-size="11.00" fill="#000000"> &#160;</text>
<polygon fill="#ffffff" stroke="transparent" points="324.5,-194.7 324.5,-213.7 352.5,-213.7 352.5,-194.7 324.5,-194.7"/>
<polygon fill="none" stroke="#000000" points="324.5,-194.7 324.5,-213.7 352.5,-213.7 352.5,-194.7 324.5,-194.7"/>
<text text-anchor="start" x="333.9053" y="-200.8" font-family="Helvetica,sans-Serif" font-size="11.00" fill="#000000">2 &gt;</text>
</a>
</g>
</g>
<!-- encontros&#45;&gt;turmas -->
<g id="edge3" class="edge">
<title>encontros:w&#45;&gt;turmas:e</title>
<path fill="none" stroke="#000000" d="M400.3326,-281.9477C378.9035,-268.385 385.9536,-222.7 352.5,-222.7"/>
<polygon fill="#000000" stroke="#000000" points="406.7666,-283.6518 413.5783,-289.18 410.6333,-284.6759 414.5,-285.7 414.5,-285.7 414.5,-285.7 410.6333,-284.6759 415.4217,-282.22 406.7666,-283.6518 406.7666,-283.6518"/>
<ellipse fill="none" stroke="#000000" cx="403.6733" cy="-282.8325" rx="3.2" ry="3.2"/>
</g>
<!-- cursos -->
<g id="node5" class="node">
<title>cursos</title>
<g id="a_node5"><a xlink:href="../../tables/cursos.html" xlink:title="cursos" target="_top">
<polygon fill="#ffffff" stroke="transparent" points="8,-228.2 8,-289.2 86,-289.2 86,-228.2 8,-228.2"/>
<polygon fill="#f5f5f5" stroke="transparent" points="8,-265.7 8,-288.7 86,-288.7 86,-265.7 8,-265.7"/>
<polygon fill="none" stroke="#000000" points="8,-265.7 8,-288.7 86,-288.7 86,-265.7 8,-265.7"/>
<text text-anchor="start" x="13" y="-274.3" font-family="Helvetica,sans-Serif" font-weight="bold" font-size="11.00" fill="#000000">cursos</text>
<text text-anchor="start" x="51.5219" y="-273.8" font-family="Helvetica,sans-Serif" font-size="11.00" fill="#000000">[table]</text>
<polygon fill="none" stroke="#000000" points="8,-246.7 8,-265.7 86,-265.7 86,-246.7 8,-246.7"/>
<text text-anchor="start" x="11" y="-252.8" font-family="Helvetica,sans-Serif" font-size="11.00" fill="#000000">...</text>
<polygon fill="#ffffff" stroke="transparent" points="8,-227.7 8,-246.7 36,-246.7 36,-227.7 8,-227.7"/>
<polygon fill="none" stroke="#000000" points="8,-227.7 8,-246.7 36,-246.7 36,-227.7 8,-227.7"/>
<text text-anchor="start" x="11" y="-233.8" font-family="Helvetica,sans-Serif" font-size="11.00" fill="#000000"> &#160;</text>
<polygon fill="#ffffff" stroke="transparent" points="36,-227.7 36,-246.7 56,-246.7 56,-227.7 36,-227.7"/>
<polygon fill="none" stroke="#000000" points="36,-227.7 36,-246.7 56,-246.7 56,-227.7 36,-227.7"/>
<text text-anchor="start" x="46.8862" y="-233.8" font-family="Helvetica,sans-Serif" font-size="11.00" fill="#000000"> &#160;</text>
<polygon fill="#ffffff" stroke="transparent" points="56,-227.7 56,-246.7 86,-246.7 86,-227.7 56,-227.7"/>
<polygon fill="none" stroke="#000000" points="56,-227.7 56,-246.7 86,-246.7 86,-227.7 56,-227.7"/>
<text text-anchor="start" x="67.4053" y="-233.8" font-family="Helvetica,sans-Serif" font-size="11.00" fill="#000000">3 &gt;</text>
</a>
</g>
</g>
<!-- grupos&#45;&gt;cursos -->
<g id="edge4" class="edge">
<title>grupos:w&#45;&gt;cursos:e</title>
<path fill="none" stroke="#000000" d="M258.9588,-331.9869C182.3179,-324.2244 170.9841,-255.7 86,-255.7"/>
<polygon fill="#000000" stroke="#000000" points="265.5096,-332.3081 273.3236,-336.2957 269.5048,-332.504 273.5,-332.7 273.5,-332.7 273.5,-332.7 269.5048,-332.504 273.6764,-329.1043 265.5096,-332.3081 265.5096,-332.3081"/>
<ellipse fill="none" stroke="#000000" cx="262.3134" cy="-332.1513" rx="3.2" ry="3.2"/>
</g>
<!-- usuarios -->
<g id="node6" class="node">
<title>usuarios</title>
<g id="a_node6"><a xlink:href="../../tables/usuarios.html" xlink:title="usuarios" target="_top">
<polygon fill="#ffffff" stroke="transparent" points="135,-38.2 135,-231.2 224,-231.2 224,-38.2 135,-38.2"/>
<polygon fill="#f5f5f5" stroke="transparent" points="135.5,-207.7 135.5,-230.7 224.5,-230.7 224.5,-207.7 135.5,-207.7"/>
<polygon fill="none" stroke="#000000" points="135.5,-207.7 135.5,-230.7 224.5,-230.7 224.5,-207.7 135.5,-207.7"/>
<text text-anchor="start" x="140.5" y="-216.3" font-family="Helvetica,sans-Serif" font-weight="bold" font-size="11.00" fill="#000000">usuarios</text>
<text text-anchor="start" x="190.0219" y="-215.8" font-family="Helvetica,sans-Serif" font-size="11.00" fill="#000000">[table]</text>
<polygon fill="none" stroke="#000000" points="135.5,-185.7 135.5,-207.7 224.5,-207.7 224.5,-185.7 135.5,-185.7"/>
<image xlink:href="../../images/primaryKeys.png" width="11px" height="12px" preserveAspectRatio="xMinYMin meet" x="140.5" y="-202.7"/>
<text text-anchor="start" x="160.5" y="-192.8" font-family="Helvetica,sans-Serif" font-size="11.00" fill="#000000">id</text>
<polygon fill="none" stroke="#000000" points="135.5,-163.7 135.5,-185.7 224.5,-185.7 224.5,-163.7 135.5,-163.7"/>
<image xlink:href="../../images/foreignKeys.png" width="11px" height="12px" preserveAspectRatio="xMinYMin meet" x="140.5" y="-180.7"/>
<text text-anchor="start" x="160.5" y="-170.8" font-family="Helvetica,sans-Serif" font-size="11.00" fill="#000000">id_curso</text>
<polygon fill="#ffffff" stroke="transparent" points="135.5,-141.7 135.5,-163.7 224.5,-163.7 224.5,-141.7 135.5,-141.7"/>
<polygon fill="none" stroke="#000000" points="135.5,-141.7 135.5,-163.7 224.5,-163.7 224.5,-141.7 135.5,-141.7"/>
<text text-anchor="start" x="160.5" y="-148.8" font-family="Helvetica,sans-Serif" font-size="11.00" fill="#000000">nome</text>
<polygon fill="#ffffff" stroke="transparent" points="135.5,-119.7 135.5,-141.7 224.5,-141.7 224.5,-119.7 135.5,-119.7"/>
<polygon fill="none" stroke="#000000" points="135.5,-119.7 135.5,-141.7 224.5,-141.7 224.5,-119.7 135.5,-119.7"/>
<text text-anchor="start" x="160.5" y="-126.8" font-family="Helvetica,sans-Serif" font-size="11.00" fill="#000000">email</text>
<polygon fill="#ffffff" stroke="transparent" points="135.5,-97.7 135.5,-119.7 224.5,-119.7 224.5,-97.7 135.5,-97.7"/>
<polygon fill="none" stroke="#000000" points="135.5,-97.7 135.5,-119.7 224.5,-119.7 224.5,-97.7 135.5,-97.7"/>
<text text-anchor="start" x="160.5" y="-104.8" font-family="Helvetica,sans-Serif" font-size="11.00" fill="#000000">matricula</text>
<polygon fill="#ffffff" stroke="transparent" points="135.5,-75.7 135.5,-97.7 224.5,-97.7 224.5,-75.7 135.5,-75.7"/>
<polygon fill="none" stroke="#000000" points="135.5,-75.7 135.5,-97.7 224.5,-97.7 224.5,-75.7 135.5,-75.7"/>
<text text-anchor="start" x="160.5" y="-82.8" font-family="Helvetica,sans-Serif" font-size="11.00" fill="#000000">siape</text>
<polygon fill="none" stroke="#000000" points="135.5,-56.7 135.5,-75.7 224.5,-75.7 224.5,-56.7 135.5,-56.7"/>
<text text-anchor="start" x="138.5" y="-62.8" font-family="Helvetica,sans-Serif" font-size="11.00" fill="#000000">...</text>
<polygon fill="#ffffff" stroke="transparent" points="135.5,-37.7 135.5,-56.7 173.5,-56.7 173.5,-37.7 135.5,-37.7"/>
<polygon fill="none" stroke="#000000" points="135.5,-37.7 135.5,-56.7 173.5,-56.7 173.5,-37.7 135.5,-37.7"/>
<text text-anchor="start" x="138.5" y="-43.8" font-family="Helvetica,sans-Serif" font-size="11.00" fill="#000000">&lt; 1</text>
<polygon fill="#ffffff" stroke="transparent" points="173.5,-37.7 173.5,-56.7 194.5,-56.7 194.5,-37.7 173.5,-37.7"/>
<polygon fill="none" stroke="#000000" points="173.5,-37.7 173.5,-56.7 194.5,-56.7 194.5,-37.7 173.5,-37.7"/>
<text text-anchor="start" x="185.3862" y="-43.8" font-family="Helvetica,sans-Serif" font-size="11.00" fill="#000000"> &#160;</text>
<polygon fill="#ffffff" stroke="transparent" points="194.5,-37.7 194.5,-56.7 224.5,-56.7 224.5,-37.7 194.5,-37.7"/>
<polygon fill="none" stroke="#000000" points="194.5,-37.7 194.5,-56.7 224.5,-56.7 224.5,-37.7 194.5,-37.7"/>
<text text-anchor="start" x="205.9053" y="-43.8" font-family="Helvetica,sans-Serif" font-size="11.00" fill="#000000">6 &gt;</text>
</a>
</g>
</g>
<!-- grupos&#45;&gt;usuarios -->
<g id="edge5" class="edge">
<title>grupos:w&#45;&gt;usuarios:e</title>
<path fill="none" stroke="#000000" d="M258.9835,-329.3382C222.8941,-308.3953 282.7247,-196.7 224.5,-196.7"/>
<polygon fill="#000000" stroke="#000000" points="265.7063,-330.895 272.6878,-336.2072 269.6031,-331.7975 273.5,-332.7 273.5,-332.7 273.5,-332.7 269.6031,-331.7975 274.3122,-329.1928 265.7063,-330.895 265.7063,-330.895"/>
<ellipse fill="none" stroke="#000000" cx="262.5888" cy="-330.1731" rx="3.2" ry="3.2"/>
</g>
<!-- turmas&#45;&gt;cursos -->
<g id="edge9" class="edge">
<title>turmas:w&#45;&gt;cursos:e</title>
<path fill="none" stroke="#000000" d="M259.4091,-225.7509C250.6669,-230.1093 245.7748,-237.9991 232,-241.7 169.046,-258.6139 151.1865,-255.7 86,-255.7"/>
<polygon fill="#000000" stroke="#000000" points="265.6812,-224.3929 274.2618,-226.2185 269.5906,-223.5465 273.5,-222.7 273.5,-222.7 273.5,-222.7 269.5906,-223.5465 272.7382,-219.1815 265.6812,-224.3929 265.6812,-224.3929"/>
<ellipse fill="none" stroke="#000000" cx="262.5536" cy="-225.0701" rx="3.2" ry="3.2"/>
</g>
<!-- turmas&#45;&gt;usuarios -->
<g id="edge10" class="edge">
<title>turmas:w&#45;&gt;usuarios:e</title>
<path fill="none" stroke="#000000" d="M259.2707,-218.8636C247.5311,-211.6313 243.1828,-196.7 224.5,-196.7"/>
<polygon fill="#000000" stroke="#000000" points="265.7758,-220.6174 272.5628,-226.1759 269.6379,-221.6587 273.5,-222.7 273.5,-222.7 273.5,-222.7 269.6379,-221.6587 274.4372,-219.2241 265.7758,-220.6174 265.7758,-220.6174"/>
<ellipse fill="none" stroke="#000000" cx="262.6861" cy="-219.7844" rx="3.2" ry="3.2"/>
</g>
<!-- usuarios&#45;&gt;cursos -->
<g id="edge15" class="edge">
<title>usuarios:w&#45;&gt;cursos:e</title>
<path fill="none" stroke="#000000" d="M121.5711,-179.287C101.7825,-196.422 122.0923,-255.7 86,-255.7"/>
<polygon fill="#000000" stroke="#000000" points="127.9014,-177.2024 136.6261,-178.1194 131.7007,-175.9512 135.5,-174.7 135.5,-174.7 135.5,-174.7 131.7007,-175.9512 134.3739,-171.2806 127.9014,-177.2024 127.9014,-177.2024"/>
<ellipse fill="none" stroke="#000000" cx="124.862" cy="-178.2033" rx="3.2" ry="3.2"/>
</g>
<!-- mensagens -->
<g id="node7" class="node">
<title>mensagens</title>
<g id="a_node7"><a xlink:href="../../tables/mensagens.html" xlink:title="mensagens" target="_top">
<polygon fill="#ffffff" stroke="transparent" points="573,-67.7 573,-245.7 750,-245.7 750,-67.7 573,-67.7"/>
<polygon fill="#f5f5f5" stroke="transparent" points="575.5,-220.7 575.5,-243.7 748.5,-243.7 748.5,-220.7 575.5,-220.7"/>
<polygon fill="none" stroke="#000000" points="575.5,-220.7 575.5,-243.7 748.5,-243.7 748.5,-220.7 575.5,-220.7"/>
<text text-anchor="start" x="580.5" y="-229.3" font-family="Helvetica,sans-Serif" font-weight="bold" font-size="11.00" fill="#000000">mensagens</text>
<text text-anchor="start" x="713.5437" y="-228.8" font-family="Helvetica,sans-Serif" font-size="11.00" fill="#000000">[table]</text>
<polygon fill="none" stroke="#000000" points="575.5,-198.7 575.5,-220.7 664.5,-220.7 664.5,-198.7 575.5,-198.7"/>
<image xlink:href="../../images/primaryKeys.png" width="11px" height="12px" preserveAspectRatio="xMinYMin meet" x="580.5" y="-215.7"/>
<text text-anchor="start" x="595.5" y="-205.8" font-family="Helvetica,sans-Serif" font-size="11.00" fill="#000000">id</text>
<polygon fill="none" stroke="#000000" points="664.5,-198.7 664.5,-220.7 748.5,-220.7 748.5,-198.7 664.5,-198.7"/>
<text text-anchor="start" x="667.5" y="-206.4" font-family="Helvetica,sans-Serif" font-size="11.00" fill="#000000">serial[10]</text>
<polygon fill="none" stroke="#000000" points="575.5,-176.7 575.5,-198.7 664.5,-198.7 664.5,-176.7 575.5,-176.7"/>
<image xlink:href="../../images/foreignKeys.png" width="11px" height="12px" preserveAspectRatio="xMinYMin meet" x="580.5" y="-193.7"/>
<text text-anchor="start" x="595.5" y="-183.8" font-family="Helvetica,sans-Serif" font-size="11.00" fill="#000000">id_encontro</text>
<polygon fill="none" stroke="#000000" points="664.5,-176.7 664.5,-198.7 748.5,-198.7 748.5,-176.7 664.5,-176.7"/>
<text text-anchor="start" x="667.5" y="-184.4" font-family="Helvetica,sans-Serif" font-size="11.00" fill="#000000">int4[10]</text>
<polygon fill="none" stroke="#000000" points="575.5,-154.7 575.5,-176.7 664.5,-176.7 664.5,-154.7 575.5,-154.7"/>
<image xlink:href="../../images/foreignKeys.png" width="11px" height="12px" preserveAspectRatio="xMinYMin meet" x="580.5" y="-171.7"/>
<text text-anchor="start" x="595.5" y="-161.8" font-family="Helvetica,sans-Serif" font-size="11.00" fill="#000000">id_user</text>
<polygon fill="none" stroke="#000000" points="664.5,-154.7 664.5,-176.7 748.5,-176.7 748.5,-154.7 664.5,-154.7"/>
<text text-anchor="start" x="667.5" y="-162.4" font-family="Helvetica,sans-Serif" font-size="11.00" fill="#000000">int4[10]</text>
<polygon fill="none" stroke="#000000" points="575.5,-132.7 575.5,-154.7 664.5,-154.7 664.5,-132.7 575.5,-132.7"/>
<text text-anchor="start" x="595.5" y="-139.8" font-family="Helvetica,sans-Serif" font-size="11.00" fill="#000000">data</text>
<polygon fill="none" stroke="#000000" points="664.5,-132.7 664.5,-154.7 748.5,-154.7 748.5,-132.7 664.5,-132.7"/>
<text text-anchor="start" x="667.3807" y="-140.4" font-family="Helvetica,sans-Serif" font-size="11.00" fill="#000000">timestamp[29,6]</text>
<polygon fill="none" stroke="#000000" points="575.5,-110.7 575.5,-132.7 664.5,-132.7 664.5,-110.7 575.5,-110.7"/>
<text text-anchor="start" x="595.5" y="-117.8" font-family="Helvetica,sans-Serif" font-size="11.00" fill="#000000">pdf_base64</text>
<polygon fill="none" stroke="#000000" points="664.5,-110.7 664.5,-132.7 748.5,-132.7 748.5,-110.7 664.5,-110.7"/>
<text text-anchor="start" x="667.5" y="-118.4" font-family="Helvetica,sans-Serif" font-size="11.00" fill="#000000">oid[10]</text>
<polygon fill="none" stroke="#000000" points="575.5,-88.7 575.5,-110.7 664.5,-110.7 664.5,-88.7 575.5,-88.7"/>
<text text-anchor="start" x="595.5" y="-95.8" font-family="Helvetica,sans-Serif" font-size="11.00" fill="#000000">texto</text>
<polygon fill="none" stroke="#000000" points="664.5,-88.7 664.5,-110.7 748.5,-110.7 748.5,-88.7 664.5,-88.7"/>
<text text-anchor="start" x="667.5" y="-96.4" font-family="Helvetica,sans-Serif" font-size="11.00" fill="#000000">oid[10]</text>
<polygon fill="#ffffff" stroke="transparent" points="575.5,-69.7 575.5,-88.7 624.5,-88.7 624.5,-69.7 575.5,-69.7"/>
<polygon fill="none" stroke="#000000" points="575.5,-69.7 575.5,-88.7 624.5,-88.7 624.5,-69.7 575.5,-69.7"/>
<text text-anchor="start" x="578.5" y="-75.8" font-family="Helvetica,sans-Serif" font-size="11.00" fill="#000000">&lt; 2</text>
<polygon fill="#ffffff" stroke="transparent" points="624.5,-69.7 624.5,-88.7 664.5,-88.7 664.5,-69.7 624.5,-69.7"/>
<polygon fill="none" stroke="#000000" points="624.5,-69.7 624.5,-88.7 664.5,-88.7 664.5,-69.7 624.5,-69.7"/>
<text text-anchor="start" x="655.3862" y="-75.8" font-family="Helvetica,sans-Serif" font-size="11.00" fill="#000000"> &#160;</text>
<polygon fill="#ffffff" stroke="transparent" points="664.5,-69.7 664.5,-88.7 748.5,-88.7 748.5,-69.7 664.5,-69.7"/>
<polygon fill="none" stroke="#000000" points="664.5,-69.7 664.5,-88.7 748.5,-88.7 748.5,-69.7 664.5,-69.7"/>
<text text-anchor="start" x="729.9053" y="-75.8" font-family="Helvetica,sans-Serif" font-size="11.00" fill="#000000">0 &gt;</text>
<polygon fill="none" stroke="#000000" stroke-width="2" points="574,-68.7 574,-244.7 749,-244.7 749,-68.7 574,-68.7"/>
</a>
</g>
</g>
<!-- mensagens&#45;&gt;encontros -->
<g id="edge6" class="edge">
<title>mensagens:w&#45;&gt;encontros:e</title>
<path fill="none" stroke="#000000" d="M561.206,-190.4098C517.5227,-210.0413 575.0464,-329.7 511.5,-329.7"/>
<polygon fill="#000000" stroke="#000000" points="567.64,-189.1901 576.1706,-191.237 571.57,-188.4451 575.5,-187.7 575.5,-187.7 575.5,-187.7 571.57,-188.4451 574.8294,-184.163 567.64,-189.1901 567.64,-189.1901"/>
<ellipse fill="none" stroke="#000000" cx="564.496" cy="-189.7862" rx="3.2" ry="3.2"/>
</g>
<!-- mensagens&#45;&gt;usuarios -->
<g id="edge7" class="edge">
<title>mensagens:w&#45;&gt;usuarios:e</title>
<path fill="none" stroke="#000000" d="M561.3246,-162.4675C551.8426,-157.4841 547.0418,-148.1408 532,-144.7 471.7777,-130.9242 454.3149,-137.1518 393,-144.7 334.7996,-151.8648 320.0475,-156.4914 265,-176.7 246.1546,-183.6184 244.5752,-196.7 224.5,-196.7"/>
<polygon fill="#000000" stroke="#000000" points="567.7002,-163.9213 574.6996,-169.2099 571.6001,-164.8107 575.5,-165.7 575.5,-165.7 575.5,-165.7 571.6001,-164.8107 576.3004,-162.1901 567.7002,-163.9213 567.7002,-163.9213"/>
<ellipse fill="none" stroke="#000000" cx="564.5803" cy="-163.2099" rx="3.2" ry="3.2"/>
</g>
<!-- token -->
<g id="node8" class="node">
<title>token</title>
<g id="a_node8"><a xlink:href="../../tables/token.html" xlink:title="token" target="_top">
<polygon fill="#ffffff" stroke="transparent" points="277,-45.2 277,-106.2 348,-106.2 348,-45.2 277,-45.2"/>
<polygon fill="#f5f5f5" stroke="transparent" points="277.5,-82.7 277.5,-105.7 348.5,-105.7 348.5,-82.7 277.5,-82.7"/>
<polygon fill="none" stroke="#000000" points="277.5,-82.7 277.5,-105.7 348.5,-105.7 348.5,-82.7 277.5,-82.7"/>
<text text-anchor="start" x="282.5" y="-91.3" font-family="Helvetica,sans-Serif" font-weight="bold" font-size="11.00" fill="#000000">token</text>
<text text-anchor="start" x="314.0219" y="-90.8" font-family="Helvetica,sans-Serif" font-size="11.00" fill="#000000">[table]</text>
<polygon fill="none" stroke="#000000" points="277.5,-63.7 277.5,-82.7 348.5,-82.7 348.5,-63.7 277.5,-63.7"/>
<text text-anchor="start" x="280.5" y="-69.8" font-family="Helvetica,sans-Serif" font-size="11.00" fill="#000000">...</text>
<polygon fill="#ffffff" stroke="transparent" points="277.5,-44.7 277.5,-63.7 311.5,-63.7 311.5,-44.7 277.5,-44.7"/>
<polygon fill="none" stroke="#000000" points="277.5,-44.7 277.5,-63.7 311.5,-63.7 311.5,-44.7 277.5,-44.7"/>
<text text-anchor="start" x="280.5" y="-50.8" font-family="Helvetica,sans-Serif" font-size="11.00" fill="#000000">&lt; 1</text>
<polygon fill="#ffffff" stroke="transparent" points="311.5,-44.7 311.5,-63.7 329.5,-63.7 329.5,-44.7 311.5,-44.7"/>
<polygon fill="none" stroke="#000000" points="311.5,-44.7 311.5,-63.7 329.5,-63.7 329.5,-44.7 311.5,-44.7"/>
<text text-anchor="start" x="320.3862" y="-50.8" font-family="Helvetica,sans-Serif" font-size="11.00" fill="#000000"> &#160;</text>
<polygon fill="#ffffff" stroke="transparent" points="329.5,-44.7 329.5,-63.7 348.5,-63.7 348.5,-44.7 329.5,-44.7"/>
<polygon fill="none" stroke="#000000" points="329.5,-44.7 329.5,-63.7 348.5,-63.7 348.5,-44.7 329.5,-44.7"/>
<text text-anchor="start" x="339.3862" y="-50.8" font-family="Helvetica,sans-Serif" font-size="11.00" fill="#000000"> &#160;</text>
</a>
</g>
</g>
<!-- token&#45;&gt;usuarios -->
<g id="edge8" class="edge">
<title>token:w&#45;&gt;usuarios:e</title>
<path fill="none" stroke="#000000" d="M263.3328,-76.0167C229.4168,-95.7362 278.5812,-196.7 224.5,-196.7"/>
<polygon fill="#000000" stroke="#000000" points="269.7106,-74.5236 278.3206,-76.2052 273.6053,-73.6118 277.5,-72.7 277.5,-72.7 277.5,-72.7 273.6053,-73.6118 276.6794,-69.1948 269.7106,-74.5236 269.7106,-74.5236"/>
<ellipse fill="none" stroke="#000000" cx="266.5949" cy="-75.2531" rx="3.2" ry="3.2"/>
</g>
<!-- usuario_grupo -->
<g id="node9" class="node">
<title>usuario_grupo</title>
<g id="a_node9"><a xlink:href="../../tables/usuario_grupo.html" xlink:title="usuario_grupo" target="_top">
<polygon fill="#ffffff" stroke="transparent" points="401,-385.2 401,-446.2 524,-446.2 524,-385.2 401,-385.2"/>
<polygon fill="#f5f5f5" stroke="transparent" points="401.5,-422.7 401.5,-445.7 524.5,-445.7 524.5,-422.7 401.5,-422.7"/>
<polygon fill="none" stroke="#000000" points="401.5,-422.7 401.5,-445.7 524.5,-445.7 524.5,-422.7 401.5,-422.7"/>
<text text-anchor="start" x="406.5" y="-431.3" font-family="Helvetica,sans-Serif" font-weight="bold" font-size="11.00" fill="#000000">usuario_grupo</text>
<text text-anchor="start" x="490.0219" y="-430.8" font-family="Helvetica,sans-Serif" font-size="11.00" fill="#000000">[table]</text>
<polygon fill="none" stroke="#000000" points="401.5,-403.7 401.5,-422.7 524.5,-422.7 524.5,-403.7 401.5,-403.7"/>
<text text-anchor="start" x="404.5" y="-409.8" font-family="Helvetica,sans-Serif" font-size="11.00" fill="#000000">...</text>
<polygon fill="#ffffff" stroke="transparent" points="401.5,-384.7 401.5,-403.7 461.5,-403.7 461.5,-384.7 401.5,-384.7"/>
<polygon fill="none" stroke="#000000" points="401.5,-384.7 401.5,-403.7 461.5,-403.7 461.5,-384.7 401.5,-384.7"/>
<text text-anchor="start" x="404.5" y="-390.8" font-family="Helvetica,sans-Serif" font-size="11.00" fill="#000000">&lt; 2</text>
<polygon fill="#ffffff" stroke="transparent" points="461.5,-384.7 461.5,-403.7 492.5,-403.7 492.5,-384.7 461.5,-384.7"/>
<polygon fill="none" stroke="#000000" points="461.5,-384.7 461.5,-403.7 492.5,-403.7 492.5,-384.7 461.5,-384.7"/>
<text text-anchor="start" x="483.3862" y="-390.8" font-family="Helvetica,sans-Serif" font-size="11.00" fill="#000000"> &#160;</text>
<polygon fill="#ffffff" stroke="transparent" points="492.5,-384.7 492.5,-403.7 524.5,-403.7 524.5,-384.7 492.5,-384.7"/>
<polygon fill="none" stroke="#000000" points="492.5,-384.7 492.5,-403.7 524.5,-403.7 524.5,-384.7 492.5,-384.7"/>
<text text-anchor="start" x="515.3862" y="-390.8" font-family="Helvetica,sans-Serif" font-size="11.00" fill="#000000"> &#160;</text>
</a>
</g>
</g>
<!-- usuario_grupo&#45;&gt;grupos -->
<g id="edge11" class="edge">
<title>usuario_grupo:w&#45;&gt;grupos:e</title>
<path fill="none" stroke="#000000" d="M387.73,-408.1696C368.1565,-391.2461 388.1687,-332.7 352.5,-332.7"/>
<polygon fill="#000000" stroke="#000000" points="393.9007,-410.1998 400.3749,-416.1197 397.7004,-411.4499 401.5,-412.7 401.5,-412.7 401.5,-412.7 397.7004,-411.4499 402.6251,-409.2803 393.9007,-410.1998 393.9007,-410.1998"/>
<ellipse fill="none" stroke="#000000" cx="390.861" cy="-409.1997" rx="3.2" ry="3.2"/>
</g>
<!-- usuario_grupo&#45;&gt;usuarios -->
<g id="edge12" class="edge">
<title>usuario_grupo:w&#45;&gt;usuarios:e</title>
<path fill="none" stroke="#000000" d="M386.9382,-409.9976C356.6745,-395.7578 395.9017,-328.7967 360,-294.7 328.0826,-264.3873 299.599,-293.9119 265,-266.7 236.7481,-244.48 260.443,-196.7 224.5,-196.7"/>
<polygon fill="#000000" stroke="#000000" points="393.6343,-411.2402 400.8431,-416.2396 397.5672,-411.9701 401.5,-412.7 401.5,-412.7 401.5,-412.7 397.5672,-411.9701 402.1569,-409.1604 393.6343,-411.2402 393.6343,-411.2402"/>
<ellipse fill="none" stroke="#000000" cx="390.488" cy="-410.6563" rx="3.2" ry="3.2"/>
</g>
<!-- usuario_turma -->
<g id="node10" class="node">
<title>usuario_turma</title>
<g id="a_node10"><a xlink:href="../../tables/usuario_turma.html" xlink:title="usuario_turma" target="_top">
<polygon fill="#ffffff" stroke="transparent" points="401.5,-155.2 401.5,-216.2 523.5,-216.2 523.5,-155.2 401.5,-155.2"/>
<polygon fill="#f5f5f5" stroke="transparent" points="401.5,-192.7 401.5,-215.7 523.5,-215.7 523.5,-192.7 401.5,-192.7"/>
<polygon fill="none" stroke="#000000" points="401.5,-192.7 401.5,-215.7 523.5,-215.7 523.5,-192.7 401.5,-192.7"/>
<text text-anchor="start" x="406.5" y="-201.3" font-family="Helvetica,sans-Serif" font-weight="bold" font-size="11.00" fill="#000000">usuario_turma</text>
<text text-anchor="start" x="489.0219" y="-200.8" font-family="Helvetica,sans-Serif" font-size="11.00" fill="#000000">[table]</text>
<polygon fill="none" stroke="#000000" points="401.5,-173.7 401.5,-192.7 523.5,-192.7 523.5,-173.7 401.5,-173.7"/>
<text text-anchor="start" x="404.5" y="-179.8" font-family="Helvetica,sans-Serif" font-size="11.00" fill="#000000">...</text>
<polygon fill="#ffffff" stroke="transparent" points="401.5,-154.7 401.5,-173.7 460.5,-173.7 460.5,-154.7 401.5,-154.7"/>
<polygon fill="none" stroke="#000000" points="401.5,-154.7 401.5,-173.7 460.5,-173.7 460.5,-154.7 401.5,-154.7"/>
<text text-anchor="start" x="404.5" y="-160.8" font-family="Helvetica,sans-Serif" font-size="11.00" fill="#000000">&lt; 2</text>
<polygon fill="#ffffff" stroke="transparent" points="460.5,-154.7 460.5,-173.7 491.5,-173.7 491.5,-154.7 460.5,-154.7"/>
<polygon fill="none" stroke="#000000" points="460.5,-154.7 460.5,-173.7 491.5,-173.7 491.5,-154.7 460.5,-154.7"/>
<text text-anchor="start" x="482.3862" y="-160.8" font-family="Helvetica,sans-Serif" font-size="11.00" fill="#000000"> &#160;</text>
<polygon fill="#ffffff" stroke="transparent" points="491.5,-154.7 491.5,-173.7 523.5,-173.7 523.5,-154.7 491.5,-154.7"/>
<polygon fill="none" stroke="#000000" points="491.5,-154.7 491.5,-173.7 523.5,-173.7 523.5,-154.7 491.5,-154.7"/>
<text text-anchor="start" x="514.3862" y="-160.8" font-family="Helvetica,sans-Serif" font-size="11.00" fill="#000000"> &#160;</text>
</a>
</g>
</g>
<!-- usuario_turma&#45;&gt;turmas -->
<g id="edge13" class="edge">
<title>usuario_turma:w&#45;&gt;turmas:e</title>
<path fill="none" stroke="#000000" d="M387.7637,-187.2885C374.8632,-197.7952 374.6826,-222.7 352.5,-222.7"/>
<polygon fill="#000000" stroke="#000000" points="393.9121,-185.2347 402.6406,-186.1145 397.7061,-183.9673 401.5,-182.7 401.5,-182.7 401.5,-182.7 397.7061,-183.9673 400.3594,-179.2855 393.9121,-185.2347 393.9121,-185.2347"/>
<ellipse fill="none" stroke="#000000" cx="390.877" cy="-186.2486" rx="3.2" ry="3.2"/>
</g>
<!-- usuario_turma&#45;&gt;usuarios -->
<g id="edge14" class="edge">
<title>usuario_turma:w&#45;&gt;usuarios:e</title>
<path fill="none" stroke="#000000" d="M386.7944,-182.5565C337.7771,-181.5918 319.8251,-176.3381 265,-184.7 246.4411,-187.5306 243.2735,-196.7 224.5,-196.7"/>
<polygon fill="#000000" stroke="#000000" points="393.5004,-182.6219 401.4649,-186.2998 397.5002,-182.6609 401.5,-182.7 401.5,-182.7 401.5,-182.7 397.5002,-182.6609 401.5351,-179.1002 393.5004,-182.6219 393.5004,-182.6219"/>
<ellipse fill="none" stroke="#000000" cx="390.3005" cy="-182.5906" rx="3.2" ry="3.2"/>
</g>
</g>
</svg>
