<?xml version="1.0" encoding="UTF-8" standalone="no"?>
<!DOCTYPE svg PUBLIC "-//W3C//DTD SVG 1.1//EN"
 "http://www.w3.org/Graphics/SVG/1.1/DTD/svg11.dtd">
<!-- Generated by graphviz version 2.40.1 (20161225.0304)
 -->
<!-- Title: oneDegreeRelationshipsDiagram Pages: 1 -->
<svg width="377pt" height="391pt"
 viewBox="0.00 0.00 377.00 391.20" xmlns="http://www.w3.org/2000/svg" xmlns:xlink="http://www.w3.org/1999/xlink">
<g id="graph0" class="graph" transform="scale(1 1) rotate(0) translate(4 387.2)">
<title>oneDegreeRelationshipsDiagram</title>
<polygon fill="#ffffff" stroke="transparent" points="-4,4 -4,-387.2 373,-387.2 373,4 -4,4"/>
<text text-anchor="middle" x="72.4936" y="-7.3" font-family="Helvetica,sans-Serif" font-size="11.00" fill="#000000">Generated by SchemaSpy</text>
<!-- mensagens -->
<g id="node1" class="node">
<title>mensagens</title>
<g id="a_node1"><a xlink:href="../../tables/mensagens.html" xlink:title="mensagens" target="_top">
<polygon fill="#ffffff" stroke="transparent" points="184,-161.7 184,-339.7 361,-339.7 361,-161.7 184,-161.7"/>
<polygon fill="#f5f5f5" stroke="transparent" points="186.5,-314.7 186.5,-337.7 359.5,-337.7 359.5,-314.7 186.5,-314.7"/>
<polygon fill="none" stroke="#000000" points="186.5,-314.7 186.5,-337.7 359.5,-337.7 359.5,-314.7 186.5,-314.7"/>
<text text-anchor="start" x="191.5" y="-323.3" font-family="Helvetica,sans-Serif" font-weight="bold" font-size="11.00" fill="#000000">mensagens</text>
<text text-anchor="start" x="324.5437" y="-322.8" font-family="Helvetica,sans-Serif" font-size="11.00" fill="#000000">[table]</text>
<polygon fill="none" stroke="#000000" points="186.5,-292.7 186.5,-314.7 275.5,-314.7 275.5,-292.7 186.5,-292.7"/>
<image xlink:href="../../images/primaryKeys.png" width="11px" height="12px" preserveAspectRatio="xMinYMin meet" x="191.5" y="-309.7"/>
<text text-anchor="start" x="206.5" y="-299.8" font-family="Helvetica,sans-Serif" font-size="11.00" fill="#000000">id</text>
<polygon fill="none" stroke="#000000" points="275.5,-292.7 275.5,-314.7 359.5,-314.7 359.5,-292.7 275.5,-292.7"/>
<text text-anchor="start" x="278.5" y="-300.4" font-family="Helvetica,sans-Serif" font-size="11.00" fill="#000000">serial[10]</text>
<polygon fill="none" stroke="#000000" points="186.5,-270.7 186.5,-292.7 275.5,-292.7 275.5,-270.7 186.5,-270.7"/>
<image xlink:href="../../images/foreignKeys.png" width="11px" height="12px" preserveAspectRatio="xMinYMin meet" x="191.5" y="-287.7"/>
<text text-anchor="start" x="206.5" y="-277.8" font-family="Helvetica,sans-Serif" font-size="11.00" fill="#000000">id_encontro</text>
<polygon fill="none" stroke="#000000" points="275.5,-270.7 275.5,-292.7 359.5,-292.7 359.5,-270.7 275.5,-270.7"/>
<text text-anchor="start" x="278.5" y="-278.4" font-family="Helvetica,sans-Serif" font-size="11.00" fill="#000000">int4[10]</text>
<polygon fill="none" stroke="#000000" points="186.5,-248.7 186.5,-270.7 275.5,-270.7 275.5,-248.7 186.5,-248.7"/>
<image xlink:href="../../images/foreignKeys.png" width="11px" height="12px" preserveAspectRatio="xMinYMin meet" x="191.5" y="-265.7"/>
<text text-anchor="start" x="206.5" y="-255.8" font-family="Helvetica,sans-Serif" font-size="11.00" fill="#000000">id_user</text>
<polygon fill="none" stroke="#000000" points="275.5,-248.7 275.5,-270.7 359.5,-270.7 359.5,-248.7 275.5,-248.7"/>
<text text-anchor="start" x="278.5" y="-256.4" font-family="Helvetica,sans-Serif" font-size="11.00" fill="#000000">int4[10]</text>
<polygon fill="none" stroke="#000000" points="186.5,-226.7 186.5,-248.7 275.5,-248.7 275.5,-226.7 186.5,-226.7"/>
<text text-anchor="start" x="206.5" y="-233.8" font-family="Helvetica,sans-Serif" font-size="11.00" fill="#000000">data</text>
<polygon fill="none" stroke="#000000" points="275.5,-226.7 275.5,-248.7 359.5,-248.7 359.5,-226.7 275.5,-226.7"/>
<text text-anchor="start" x="278.3807" y="-234.4" font-family="Helvetica,sans-Serif" font-size="11.00" fill="#000000">timestamp[29,6]</text>
<polygon fill="none" stroke="#000000" points="186.5,-204.7 186.5,-226.7 275.5,-226.7 275.5,-204.7 186.5,-204.7"/>
<text text-anchor="start" x="206.5" y="-211.8" font-family="Helvetica,sans-Serif" font-size="11.00" fill="#000000">pdf_base64</text>
<polygon fill="none" stroke="#000000" points="275.5,-204.7 275.5,-226.7 359.5,-226.7 359.5,-204.7 275.5,-204.7"/>
<text text-anchor="start" x="278.5" y="-212.4" font-family="Helvetica,sans-Serif" font-size="11.00" fill="#000000">oid[10]</text>
<polygon fill="none" stroke="#000000" points="186.5,-182.7 186.5,-204.7 275.5,-204.7 275.5,-182.7 186.5,-182.7"/>
<text text-anchor="start" x="206.5" y="-189.8" font-family="Helvetica,sans-Serif" font-size="11.00" fill="#000000">texto</text>
<polygon fill="none" stroke="#000000" points="275.5,-182.7 275.5,-204.7 359.5,-204.7 359.5,-182.7 275.5,-182.7"/>
<text text-anchor="start" x="278.5" y="-190.4" font-family="Helvetica,sans-Serif" font-size="11.00" fill="#000000">oid[10]</text>
<polygon fill="#ffffff" stroke="transparent" points="186.5,-163.7 186.5,-182.7 235.5,-182.7 235.5,-163.7 186.5,-163.7"/>
<polygon fill="none" stroke="#000000" points="186.5,-163.7 186.5,-182.7 235.5,-182.7 235.5,-163.7 186.5,-163.7"/>
<text text-anchor="start" x="189.5" y="-169.8" font-family="Helvetica,sans-Serif" font-size="11.00" fill="#000000">&lt; 2</text>
<polygon fill="#ffffff" stroke="transparent" points="235.5,-163.7 235.5,-182.7 275.5,-182.7 275.5,-163.7 235.5,-163.7"/>
<polygon fill="none" stroke="#000000" points="235.5,-163.7 235.5,-182.7 275.5,-182.7 275.5,-163.7 235.5,-163.7"/>
<text text-anchor="start" x="266.3862" y="-169.8" font-family="Helvetica,sans-Serif" font-size="11.00" fill="#000000"> &#160;</text>
<polygon fill="#ffffff" stroke="transparent" points="275.5,-163.7 275.5,-182.7 359.5,-182.7 359.5,-163.7 275.5,-163.7"/>
<polygon fill="none" stroke="#000000" points="275.5,-163.7 275.5,-182.7 359.5,-182.7 359.5,-163.7 275.5,-163.7"/>
<text text-anchor="start" x="340.9053" y="-169.8" font-family="Helvetica,sans-Serif" font-size="11.00" fill="#000000">0 &gt;</text>
<polygon fill="none" stroke="#000000" stroke-width="2" points="185,-162.7 185,-338.7 360,-338.7 360,-162.7 185,-162.7"/>
</a>
</g>
</g>
<!-- encontros -->
<g id="node2" class="node">
<title>encontros</title>
<g id="a_node2"><a xlink:href="../../tables/encontros.html" xlink:title="encontros" target="_top">
<polygon fill="#ffffff" stroke="transparent" points="23,-252.2 23,-379.2 120,-379.2 120,-252.2 23,-252.2"/>
<polygon fill="#f5f5f5" stroke="transparent" points="23.5,-355.7 23.5,-378.7 120.5,-378.7 120.5,-355.7 23.5,-355.7"/>
<polygon fill="none" stroke="#000000" points="23.5,-355.7 23.5,-378.7 120.5,-378.7 120.5,-355.7 23.5,-355.7"/>
<text text-anchor="start" x="28.5" y="-364.3" font-family="Helvetica,sans-Serif" font-weight="bold" font-size="11.00" fill="#000000">encontros</text>
<text text-anchor="start" x="86.0219" y="-363.8" font-family="Helvetica,sans-Serif" font-size="11.00" fill="#000000">[table]</text>
<polygon fill="none" stroke="#000000" points="23.5,-333.7 23.5,-355.7 120.5,-355.7 120.5,-333.7 23.5,-333.7"/>
<image xlink:href="../../images/primaryKeys.png" width="11px" height="12px" preserveAspectRatio="xMinYMin meet" x="28.5" y="-350.7"/>
<text text-anchor="start" x="52.5" y="-340.8" font-family="Helvetica,sans-Serif" font-size="11.00" fill="#000000">id</text>
<polygon fill="none" stroke="#000000" points="23.5,-311.7 23.5,-333.7 120.5,-333.7 120.5,-311.7 23.5,-311.7"/>
<image xlink:href="../../images/foreignKeys.png" width="11px" height="12px" preserveAspectRatio="xMinYMin meet" x="28.5" y="-328.7"/>
<text text-anchor="start" x="52.5" y="-318.8" font-family="Helvetica,sans-Serif" font-size="11.00" fill="#000000">id_grupo</text>
<polygon fill="none" stroke="#000000" points="23.5,-289.7 23.5,-311.7 120.5,-311.7 120.5,-289.7 23.5,-289.7"/>
<image xlink:href="../../images/foreignKeys.png" width="11px" height="12px" preserveAspectRatio="xMinYMin meet" x="28.5" y="-306.7"/>
<text text-anchor="start" x="52.5" y="-296.8" font-family="Helvetica,sans-Serif" font-size="11.00" fill="#000000">id_turma</text>
<polygon fill="none" stroke="#000000" points="23.5,-270.7 23.5,-289.7 120.5,-289.7 120.5,-270.7 23.5,-270.7"/>
<text text-anchor="start" x="26.5" y="-276.8" font-family="Helvetica,sans-Serif" font-size="11.00" fill="#000000">...</text>
<polygon fill="#ffffff" stroke="transparent" points="23.5,-251.7 23.5,-270.7 65.5,-270.7 65.5,-251.7 23.5,-251.7"/>
<polygon fill="none" stroke="#000000" points="23.5,-251.7 23.5,-270.7 65.5,-270.7 65.5,-251.7 23.5,-251.7"/>
<text text-anchor="start" x="26.5" y="-257.8" font-family="Helvetica,sans-Serif" font-size="11.00" fill="#000000">&lt; 2</text>
<polygon fill="#ffffff" stroke="transparent" points="65.5,-251.7 65.5,-270.7 88.5,-270.7 88.5,-251.7 65.5,-251.7"/>
<polygon fill="none" stroke="#000000" points="65.5,-251.7 65.5,-270.7 88.5,-270.7 88.5,-251.7 65.5,-251.7"/>
<text text-anchor="start" x="79.3862" y="-257.8" font-family="Helvetica,sans-Serif" font-size="11.00" fill="#000000"> &#160;</text>
<polygon fill="#ffffff" stroke="transparent" points="88.5,-251.7 88.5,-270.7 120.5,-270.7 120.5,-251.7 88.5,-251.7"/>
<polygon fill="none" stroke="#000000" points="88.5,-251.7 88.5,-270.7 120.5,-270.7 120.5,-251.7 88.5,-251.7"/>
<text text-anchor="start" x="101.9053" y="-257.8" font-family="Helvetica,sans-Serif" font-size="11.00" fill="#000000">2 &gt;</text>
</a>
</g>
</g>
<!-- mensagens&#45;&gt;encontros -->
<g id="edge1" class="edge">
<title>mensagens:w&#45;&gt;encontros:e</title>
<path fill="none" stroke="#000000" d="M172.3845,-285.0872C149.0955,-298.1729 155.3492,-344.7 120.5,-344.7"/>
<polygon fill="#000000" stroke="#000000" points="178.7208,-283.5667 187.34,-285.2006 182.6104,-282.6334 186.5,-281.7 186.5,-281.7 186.5,-281.7 182.6104,-282.6334 185.66,-278.1994 178.7208,-283.5667 178.7208,-283.5667"/>
<ellipse fill="none" stroke="#000000" cx="175.6092" cy="-284.3134" rx="3.2" ry="3.2"/>
</g>
<!-- usuarios -->
<g id="node3" class="node">
<title>usuarios</title>
<g id="a_node3"><a xlink:href="../../tables/usuarios.html" xlink:title="usuarios" target="_top">
<polygon fill="#ffffff" stroke="transparent" points="8,-38.2 8,-231.2 135,-231.2 135,-38.2 8,-38.2"/>
<polygon fill="#f5f5f5" stroke="transparent" points="8.5,-207.7 8.5,-230.7 135.5,-230.7 135.5,-207.7 8.5,-207.7"/>
<polygon fill="none" stroke="#000000" points="8.5,-207.7 8.5,-230.7 135.5,-230.7 135.5,-207.7 8.5,-207.7"/>
<text text-anchor="start" x="13.5" y="-216.3" font-family="Helvetica,sans-Serif" font-weight="bold" font-size="11.00" fill="#000000">usuarios</text>
<text text-anchor="start" x="100.5437" y="-215.8" font-family="Helvetica,sans-Serif" font-size="11.00" fill="#000000">[table]</text>
<polygon fill="none" stroke="#000000" points="8.5,-185.7 8.5,-207.7 135.5,-207.7 135.5,-185.7 8.5,-185.7"/>
<image xlink:href="../../images/primaryKeys.png" width="11px" height="12px" preserveAspectRatio="xMinYMin meet" x="13.5" y="-202.7"/>
<text text-anchor="start" x="28.5" y="-192.8" font-family="Helvetica,sans-Serif" font-size="11.00" fill="#000000">id</text>
<polygon fill="none" stroke="#000000" points="8.5,-163.7 8.5,-185.7 135.5,-185.7 135.5,-163.7 8.5,-163.7"/>
<image xlink:href="../../images/foreignKeys.png" width="11px" height="12px" preserveAspectRatio="xMinYMin meet" x="13.5" y="-180.7"/>
<text text-anchor="start" x="28.5" y="-170.8" font-family="Helvetica,sans-Serif" font-size="11.00" fill="#000000">id_curso</text>
<polygon fill="#ffffff" stroke="transparent" points="8.5,-141.7 8.5,-163.7 135.5,-163.7 135.5,-141.7 8.5,-141.7"/>
<polygon fill="none" stroke="#000000" points="8.5,-141.7 8.5,-163.7 135.5,-163.7 135.5,-141.7 8.5,-141.7"/>
<text text-anchor="start" x="28.5" y="-148.8" font-family="Helvetica,sans-Serif" font-size="11.00" fill="#000000">nome</text>
<polygon fill="#ffffff" stroke="transparent" points="8.5,-119.7 8.5,-141.7 135.5,-141.7 135.5,-119.7 8.5,-119.7"/>
<polygon fill="none" stroke="#000000" points="8.5,-119.7 8.5,-141.7 135.5,-141.7 135.5,-119.7 8.5,-119.7"/>
<text text-anchor="start" x="28.5" y="-126.8" font-family="Helvetica,sans-Serif" font-size="11.00" fill="#000000">email</text>
<polygon fill="#ffffff" stroke="transparent" points="8.5,-97.7 8.5,-119.7 135.5,-119.7 135.5,-97.7 8.5,-97.7"/>
<polygon fill="none" stroke="#000000" points="8.5,-97.7 8.5,-119.7 135.5,-119.7 135.5,-97.7 8.5,-97.7"/>
<text text-anchor="start" x="28.5" y="-104.8" font-family="Helvetica,sans-Serif" font-size="11.00" fill="#000000">matricula</text>
<polygon fill="#ffffff" stroke="transparent" points="8.5,-75.7 8.5,-97.7 135.5,-97.7 135.5,-75.7 8.5,-75.7"/>
<polygon fill="none" stroke="#000000" points="8.5,-75.7 8.5,-97.7 135.5,-97.7 135.5,-75.7 8.5,-75.7"/>
<text text-anchor="start" x="28.5" y="-82.8" font-family="Helvetica,sans-Serif" font-size="11.00" fill="#000000">siape</text>
<polygon fill="none" stroke="#000000" points="8.5,-56.7 8.5,-75.7 135.5,-75.7 135.5,-56.7 8.5,-56.7"/>
<text text-anchor="start" x="11.5" y="-62.8" font-family="Helvetica,sans-Serif" font-size="11.00" fill="#000000">...</text>
<polygon fill="#ffffff" stroke="transparent" points="8.5,-37.7 8.5,-56.7 65.5,-56.7 65.5,-37.7 8.5,-37.7"/>
<polygon fill="none" stroke="#000000" points="8.5,-37.7 8.5,-56.7 65.5,-56.7 65.5,-37.7 8.5,-37.7"/>
<text text-anchor="start" x="11.5" y="-43.8" font-family="Helvetica,sans-Serif" font-size="11.00" fill="#000000">&lt; 1</text>
<polygon fill="#ffffff" stroke="transparent" points="65.5,-37.7 65.5,-56.7 95.5,-56.7 95.5,-37.7 65.5,-37.7"/>
<polygon fill="none" stroke="#000000" points="65.5,-37.7 65.5,-56.7 95.5,-56.7 95.5,-37.7 65.5,-37.7"/>
<text text-anchor="start" x="86.3862" y="-43.8" font-family="Helvetica,sans-Serif" font-size="11.00" fill="#000000"> &#160;</text>
<polygon fill="#ffffff" stroke="transparent" points="95.5,-37.7 95.5,-56.7 135.5,-56.7 135.5,-37.7 95.5,-37.7"/>
<polygon fill="none" stroke="#000000" points="95.5,-37.7 95.5,-56.7 135.5,-56.7 135.5,-37.7 95.5,-37.7"/>
<text text-anchor="start" x="116.9053" y="-43.8" font-family="Helvetica,sans-Serif" font-size="11.00" fill="#000000">6 &gt;</text>
</a>
</g>
</g>
<!-- mensagens&#45;&gt;usuarios -->
<g id="edge2" class="edge">
<title>mensagens:w&#45;&gt;usuarios:e</title>
<path fill="none" stroke="#000000" d="M172.4033,-254.7565C156.025,-239.9048 165.3329,-196.7 135.5,-196.7"/>
<polygon fill="#000000" stroke="#000000" points="178.9507,-257.0526 185.3087,-263.0972 182.7254,-258.3763 186.5,-259.7 186.5,-259.7 186.5,-259.7 182.7254,-258.3763 187.6913,-256.3028 178.9507,-257.0526 178.9507,-257.0526"/>
<ellipse fill="none" stroke="#000000" cx="175.931" cy="-255.9936" rx="3.2" ry="3.2"/>
</g>
</g>
</svg>
