<?xml version="1.0" encoding="UTF-8" standalone="no"?>
<!DOCTYPE svg PUBLIC "-//W3C//DTD SVG 1.1//EN"
 "http://www.w3.org/Graphics/SVG/1.1/DTD/svg11.dtd">
<!-- Generated by graphviz version 2.40.1 (20161225.0304)
 -->
<!-- Title: oneDegreeRelationshipsDiagram Pages: 1 -->
<svg width="347pt" height="391pt"
 viewBox="0.00 0.00 347.00 391.20" xmlns="http://www.w3.org/2000/svg" xmlns:xlink="http://www.w3.org/1999/xlink">
<g id="graph0" class="graph" transform="scale(1 1) rotate(0) translate(4 387.2)">
<title>oneDegreeRelationshipsDiagram</title>
<polygon fill="#ffffff" stroke="transparent" points="-4,4 -4,-387.2 343,-387.2 343,4 -4,4"/>
<text text-anchor="middle" x="72.4936" y="-7.3" font-family="Helvetica,sans-Serif" font-size="11.00" fill="#000000">Generated by SchemaSpy</text>
<!-- mensagens -->
<g id="node1" class="node">
<title>mensagens</title>
<g id="a_node1"><a xlink:href="../../tables/mensagens.html" xlink:title="mensagens" target="_top">
<polygon fill="#ffffff" stroke="transparent" points="154,-161.7 154,-339.7 331,-339.7 331,-161.7 154,-161.7"/>
<polygon fill="#f5f5f5" stroke="transparent" points="156.5,-314.7 156.5,-337.7 329.5,-337.7 329.5,-314.7 156.5,-314.7"/>
<polygon fill="none" stroke="#000000" points="156.5,-314.7 156.5,-337.7 329.5,-337.7 329.5,-314.7 156.5,-314.7"/>
<text text-anchor="start" x="161.5" y="-323.3" font-family="Helvetica,sans-Serif" font-weight="bold" font-size="11.00" fill="#000000">mensagens</text>
<text text-anchor="start" x="294.5437" y="-322.8" font-family="Helvetica,sans-Serif" font-size="11.00" fill="#000000">[table]</text>
<polygon fill="none" stroke="#000000" points="156.5,-292.7 156.5,-314.7 245.5,-314.7 245.5,-292.7 156.5,-292.7"/>
<image xlink:href="../../images/primaryKeys.png" width="11px" height="12px" preserveAspectRatio="xMinYMin meet" x="161.5" y="-309.7"/>
<text text-anchor="start" x="176.5" y="-299.8" font-family="Helvetica,sans-Serif" font-size="11.00" fill="#000000">id</text>
<polygon fill="none" stroke="#000000" points="245.5,-292.7 245.5,-314.7 329.5,-314.7 329.5,-292.7 245.5,-292.7"/>
<text text-anchor="start" x="248.5" y="-300.4" font-family="Helvetica,sans-Serif" font-size="11.00" fill="#000000">serial[10]</text>
<polygon fill="none" stroke="#000000" points="156.5,-270.7 156.5,-292.7 245.5,-292.7 245.5,-270.7 156.5,-270.7"/>
<image xlink:href="../../images/foreignKeys.png" width="11px" height="12px" preserveAspectRatio="xMinYMin meet" x="161.5" y="-287.7"/>
<text text-anchor="start" x="176.5" y="-277.8" font-family="Helvetica,sans-Serif" font-size="11.00" fill="#000000">id_encontro</text>
<polygon fill="none" stroke="#000000" points="245.5,-270.7 245.5,-292.7 329.5,-292.7 329.5,-270.7 245.5,-270.7"/>
<text text-anchor="start" x="248.5" y="-278.4" font-family="Helvetica,sans-Serif" font-size="11.00" fill="#000000">int4[10]</text>
<polygon fill="none" stroke="#000000" points="156.5,-248.7 156.5,-270.7 245.5,-270.7 245.5,-248.7 156.5,-248.7"/>
<image xlink:href="../../images/foreignKeys.png" width="11px" height="12px" preserveAspectRatio="xMinYMin meet" x="161.5" y="-265.7"/>
<text text-anchor="start" x="176.5" y="-255.8" font-family="Helvetica,sans-Serif" font-size="11.00" fill="#000000">id_user</text>
<polygon fill="none" stroke="#000000" points="245.5,-248.7 245.5,-270.7 329.5,-270.7 329.5,-248.7 245.5,-248.7"/>
<text text-anchor="start" x="248.5" y="-256.4" font-family="Helvetica,sans-Serif" font-size="11.00" fill="#000000">int4[10]</text>
<polygon fill="none" stroke="#000000" points="156.5,-226.7 156.5,-248.7 245.5,-248.7 245.5,-226.7 156.5,-226.7"/>
<text text-anchor="start" x="176.5" y="-233.8" font-family="Helvetica,sans-Serif" font-size="11.00" fill="#000000">data</text>
<polygon fill="none" stroke="#000000" points="245.5,-226.7 245.5,-248.7 329.5,-248.7 329.5,-226.7 245.5,-226.7"/>
<text text-anchor="start" x="248.3807" y="-234.4" font-family="Helvetica,sans-Serif" font-size="11.00" fill="#000000">timestamp[29,6]</text>
<polygon fill="none" stroke="#000000" points="156.5,-204.7 156.5,-226.7 245.5,-226.7 245.5,-204.7 156.5,-204.7"/>
<text text-anchor="start" x="176.5" y="-211.8" font-family="Helvetica,sans-Serif" font-size="11.00" fill="#000000">pdf_base64</text>
<polygon fill="none" stroke="#000000" points="245.5,-204.7 245.5,-226.7 329.5,-226.7 329.5,-204.7 245.5,-204.7"/>
<text text-anchor="start" x="248.5" y="-212.4" font-family="Helvetica,sans-Serif" font-size="11.00" fill="#000000">oid[10]</text>
<polygon fill="none" stroke="#000000" points="156.5,-182.7 156.5,-204.7 245.5,-204.7 245.5,-182.7 156.5,-182.7"/>
<text text-anchor="start" x="176.5" y="-189.8" font-family="Helvetica,sans-Serif" font-size="11.00" fill="#000000">texto</text>
<polygon fill="none" stroke="#000000" points="245.5,-182.7 245.5,-204.7 329.5,-204.7 329.5,-182.7 245.5,-182.7"/>
<text text-anchor="start" x="248.5" y="-190.4" font-family="Helvetica,sans-Serif" font-size="11.00" fill="#000000">oid[10]</text>
<polygon fill="#ffffff" stroke="transparent" points="156.5,-163.7 156.5,-182.7 205.5,-182.7 205.5,-163.7 156.5,-163.7"/>
<polygon fill="none" stroke="#000000" points="156.5,-163.7 156.5,-182.7 205.5,-182.7 205.5,-163.7 156.5,-163.7"/>
<text text-anchor="start" x="159.5" y="-169.8" font-family="Helvetica,sans-Serif" font-size="11.00" fill="#000000">&lt; 2</text>
<polygon fill="#ffffff" stroke="transparent" points="205.5,-163.7 205.5,-182.7 245.5,-182.7 245.5,-163.7 205.5,-163.7"/>
<polygon fill="none" stroke="#000000" points="205.5,-163.7 205.5,-182.7 245.5,-182.7 245.5,-163.7 205.5,-163.7"/>
<text text-anchor="start" x="236.3862" y="-169.8" font-family="Helvetica,sans-Serif" font-size="11.00" fill="#000000"> &#160;</text>
<polygon fill="#ffffff" stroke="transparent" points="245.5,-163.7 245.5,-182.7 329.5,-182.7 329.5,-163.7 245.5,-163.7"/>
<polygon fill="none" stroke="#000000" points="245.5,-163.7 245.5,-182.7 329.5,-182.7 329.5,-163.7 245.5,-163.7"/>
<text text-anchor="start" x="310.9053" y="-169.8" font-family="Helvetica,sans-Serif" font-size="11.00" fill="#000000">0 &gt;</text>
<polygon fill="none" stroke="#000000" stroke-width="2" points="155,-162.7 155,-338.7 330,-338.7 330,-162.7 155,-162.7"/>
</a>
</g>
</g>
<!-- encontros -->
<g id="node2" class="node">
<title>encontros</title>
<g id="a_node2"><a xlink:href="../../tables/encontros.html" xlink:title="encontros" target="_top">
<polygon fill="#ffffff" stroke="transparent" points="8,-252.2 8,-379.2 105,-379.2 105,-252.2 8,-252.2"/>
<polygon fill="#f5f5f5" stroke="transparent" points="8.5,-355.7 8.5,-378.7 105.5,-378.7 105.5,-355.7 8.5,-355.7"/>
<polygon fill="none" stroke="#000000" points="8.5,-355.7 8.5,-378.7 105.5,-378.7 105.5,-355.7 8.5,-355.7"/>
<text text-anchor="start" x="13.5" y="-364.3" font-family="Helvetica,sans-Serif" font-weight="bold" font-size="11.00" fill="#000000">encontros</text>
<text text-anchor="start" x="71.0219" y="-363.8" font-family="Helvetica,sans-Serif" font-size="11.00" fill="#000000">[table]</text>
<polygon fill="none" stroke="#000000" points="8.5,-333.7 8.5,-355.7 105.5,-355.7 105.5,-333.7 8.5,-333.7"/>
<image xlink:href="../../images/primaryKeys.png" width="11px" height="12px" preserveAspectRatio="xMinYMin meet" x="13.5" y="-350.7"/>
<text text-anchor="start" x="37.5" y="-340.8" font-family="Helvetica,sans-Serif" font-size="11.00" fill="#000000">id</text>
<polygon fill="none" stroke="#000000" points="8.5,-311.7 8.5,-333.7 105.5,-333.7 105.5,-311.7 8.5,-311.7"/>
<image xlink:href="../../images/foreignKeys.png" width="11px" height="12px" preserveAspectRatio="xMinYMin meet" x="13.5" y="-328.7"/>
<text text-anchor="start" x="37.5" y="-318.8" font-family="Helvetica,sans-Serif" font-size="11.00" fill="#000000">id_grupo</text>
<polygon fill="none" stroke="#000000" points="8.5,-289.7 8.5,-311.7 105.5,-311.7 105.5,-289.7 8.5,-289.7"/>
<image xlink:href="../../images/foreignKeys.png" width="11px" height="12px" preserveAspectRatio="xMinYMin meet" x="13.5" y="-306.7"/>
<text text-anchor="start" x="37.5" y="-296.8" font-family="Helvetica,sans-Serif" font-size="11.00" fill="#000000">id_turma</text>
<polygon fill="none" stroke="#000000" points="8.5,-270.7 8.5,-289.7 105.5,-289.7 105.5,-270.7 8.5,-270.7"/>
<text text-anchor="start" x="11.5" y="-276.8" font-family="Helvetica,sans-Serif" font-size="11.00" fill="#000000">...</text>
<polygon fill="#ffffff" stroke="transparent" points="8.5,-251.7 8.5,-270.7 50.5,-270.7 50.5,-251.7 8.5,-251.7"/>
<polygon fill="none" stroke="#000000" points="8.5,-251.7 8.5,-270.7 50.5,-270.7 50.5,-251.7 8.5,-251.7"/>
<text text-anchor="start" x="11.5" y="-257.8" font-family="Helvetica,sans-Serif" font-size="11.00" fill="#000000">&lt; 2</text>
<polygon fill="#ffffff" stroke="transparent" points="50.5,-251.7 50.5,-270.7 73.5,-270.7 73.5,-251.7 50.5,-251.7"/>
<polygon fill="none" stroke="#000000" points="50.5,-251.7 50.5,-270.7 73.5,-270.7 73.5,-251.7 50.5,-251.7"/>
<text text-anchor="start" x="64.3862" y="-257.8" font-family="Helvetica,sans-Serif" font-size="11.00" fill="#000000"> &#160;</text>
<polygon fill="#ffffff" stroke="transparent" points="73.5,-251.7 73.5,-270.7 105.5,-270.7 105.5,-251.7 73.5,-251.7"/>
<polygon fill="none" stroke="#000000" points="73.5,-251.7 73.5,-270.7 105.5,-270.7 105.5,-251.7 73.5,-251.7"/>
<text text-anchor="start" x="86.9053" y="-257.8" font-family="Helvetica,sans-Serif" font-size="11.00" fill="#000000">2 &gt;</text>
</a>
</g>
</g>
<!-- mensagens&#45;&gt;encontros -->
<g id="edge1" class="edge">
<title>mensagens:w&#45;&gt;encontros:e</title>
<path fill="none" stroke="#000000" d="M142.4033,-286.6435C126.025,-301.4952 135.3329,-344.7 105.5,-344.7"/>
<polygon fill="#000000" stroke="#000000" points="148.9507,-284.3474 157.6913,-285.0972 152.7254,-283.0237 156.5,-281.7 156.5,-281.7 156.5,-281.7 152.7254,-283.0237 155.3087,-278.3028 148.9507,-284.3474 148.9507,-284.3474"/>
<ellipse fill="none" stroke="#000000" cx="145.931" cy="-285.4064" rx="3.2" ry="3.2"/>
</g>
<!-- usuarios -->
<g id="node3" class="node">
<title>usuarios</title>
<g id="a_node3"><a xlink:href="../../tables/usuarios.html" xlink:title="usuarios" target="_top">
<polygon fill="#ffffff" stroke="transparent" points="12,-38.2 12,-231.2 101,-231.2 101,-38.2 12,-38.2"/>
<polygon fill="#f5f5f5" stroke="transparent" points="12.5,-207.7 12.5,-230.7 101.5,-230.7 101.5,-207.7 12.5,-207.7"/>
<polygon fill="none" stroke="#000000" points="12.5,-207.7 12.5,-230.7 101.5,-230.7 101.5,-207.7 12.5,-207.7"/>
<text text-anchor="start" x="17.5" y="-216.3" font-family="Helvetica,sans-Serif" font-weight="bold" font-size="11.00" fill="#000000">usuarios</text>
<text text-anchor="start" x="67.0219" y="-215.8" font-family="Helvetica,sans-Serif" font-size="11.00" fill="#000000">[table]</text>
<polygon fill="none" stroke="#000000" points="12.5,-185.7 12.5,-207.7 101.5,-207.7 101.5,-185.7 12.5,-185.7"/>
<image xlink:href="../../images/primaryKeys.png" width="11px" height="12px" preserveAspectRatio="xMinYMin meet" x="17.5" y="-202.7"/>
<text text-anchor="start" x="37.5" y="-192.8" font-family="Helvetica,sans-Serif" font-size="11.00" fill="#000000">id</text>
<polygon fill="none" stroke="#000000" points="12.5,-163.7 12.5,-185.7 101.5,-185.7 101.5,-163.7 12.5,-163.7"/>
<image xlink:href="../../images/foreignKeys.png" width="11px" height="12px" preserveAspectRatio="xMinYMin meet" x="17.5" y="-180.7"/>
<text text-anchor="start" x="37.5" y="-170.8" font-family="Helvetica,sans-Serif" font-size="11.00" fill="#000000">id_curso</text>
<polygon fill="#ffffff" stroke="transparent" points="12.5,-141.7 12.5,-163.7 101.5,-163.7 101.5,-141.7 12.5,-141.7"/>
<polygon fill="none" stroke="#000000" points="12.5,-141.7 12.5,-163.7 101.5,-163.7 101.5,-141.7 12.5,-141.7"/>
<text text-anchor="start" x="37.5" y="-148.8" font-family="Helvetica,sans-Serif" font-size="11.00" fill="#000000">nome</text>
<polygon fill="#ffffff" stroke="transparent" points="12.5,-119.7 12.5,-141.7 101.5,-141.7 101.5,-119.7 12.5,-119.7"/>
<polygon fill="none" stroke="#000000" points="12.5,-119.7 12.5,-141.7 101.5,-141.7 101.5,-119.7 12.5,-119.7"/>
<text text-anchor="start" x="37.5" y="-126.8" font-family="Helvetica,sans-Serif" font-size="11.00" fill="#000000">email</text>
<polygon fill="#ffffff" stroke="transparent" points="12.5,-97.7 12.5,-119.7 101.5,-119.7 101.5,-97.7 12.5,-97.7"/>
<polygon fill="none" stroke="#000000" points="12.5,-97.7 12.5,-119.7 101.5,-119.7 101.5,-97.7 12.5,-97.7"/>
<text text-anchor="start" x="37.5" y="-104.8" font-family="Helvetica,sans-Serif" font-size="11.00" fill="#000000">matricula</text>
<polygon fill="#ffffff" stroke="transparent" points="12.5,-75.7 12.5,-97.7 101.5,-97.7 101.5,-75.7 12.5,-75.7"/>
<polygon fill="none" stroke="#000000" points="12.5,-75.7 12.5,-97.7 101.5,-97.7 101.5,-75.7 12.5,-75.7"/>
<text text-anchor="start" x="37.5" y="-82.8" font-family="Helvetica,sans-Serif" font-size="11.00" fill="#000000">siape</text>
<polygon fill="none" stroke="#000000" points="12.5,-56.7 12.5,-75.7 101.5,-75.7 101.5,-56.7 12.5,-56.7"/>
<text text-anchor="start" x="15.5" y="-62.8" font-family="Helvetica,sans-Serif" font-size="11.00" fill="#000000">...</text>
<polygon fill="#ffffff" stroke="transparent" points="12.5,-37.7 12.5,-56.7 50.5,-56.7 50.5,-37.7 12.5,-37.7"/>
<polygon fill="none" stroke="#000000" points="12.5,-37.7 12.5,-56.7 50.5,-56.7 50.5,-37.7 12.5,-37.7"/>
<text text-anchor="start" x="15.5" y="-43.8" font-family="Helvetica,sans-Serif" font-size="11.00" fill="#000000">&lt; 1</text>
<polygon fill="#ffffff" stroke="transparent" points="50.5,-37.7 50.5,-56.7 71.5,-56.7 71.5,-37.7 50.5,-37.7"/>
<polygon fill="none" stroke="#000000" points="50.5,-37.7 50.5,-56.7 71.5,-56.7 71.5,-37.7 50.5,-37.7"/>
<text text-anchor="start" x="62.3862" y="-43.8" font-family="Helvetica,sans-Serif" font-size="11.00" fill="#000000"> &#160;</text>
<polygon fill="#ffffff" stroke="transparent" points="71.5,-37.7 71.5,-56.7 101.5,-56.7 101.5,-37.7 71.5,-37.7"/>
<polygon fill="none" stroke="#000000" points="71.5,-37.7 71.5,-56.7 101.5,-56.7 101.5,-37.7 71.5,-37.7"/>
<text text-anchor="start" x="82.9053" y="-43.8" font-family="Helvetica,sans-Serif" font-size="11.00" fill="#000000">6 &gt;</text>
</a>
</g>
</g>
<!-- mensagens&#45;&gt;usuarios -->
<g id="edge2" class="edge">
<title>mensagens:w&#45;&gt;usuarios:e</title>
<path fill="none" stroke="#000000" d="M142.5254,-255.3698C124.0758,-241.1363 132.7161,-196.7 101.5,-196.7"/>
<polygon fill="#000000" stroke="#000000" points="148.8584,-257.3321 155.4344,-263.1387 152.6792,-258.5161 156.5,-259.7 156.5,-259.7 156.5,-259.7 152.6792,-258.5161 157.5656,-256.2613 148.8584,-257.3321 148.8584,-257.3321"/>
<ellipse fill="none" stroke="#000000" cx="145.8018" cy="-256.3849" rx="3.2" ry="3.2"/>
</g>
</g>
</svg>
