<?xml version="1.0" encoding="UTF-8" standalone="no"?>
<!DOCTYPE svg PUBLIC "-//W3C//DTD SVG 1.1//EN"
 "http://www.w3.org/Graphics/SVG/1.1/DTD/svg11.dtd">
<!-- Generated by graphviz version 2.40.1 (20161225.0304)
 -->
<!-- Title: twoDegreesRelationshipsDiagram Pages: 1 -->
<svg width="804pt" height="458pt"
 viewBox="0.00 0.00 804.00 458.20" xmlns="http://www.w3.org/2000/svg" xmlns:xlink="http://www.w3.org/1999/xlink">
<g id="graph0" class="graph" transform="scale(1 1) rotate(0) translate(4 454.2)">
<title>twoDegreesRelationshipsDiagram</title>
<polygon fill="#ffffff" stroke="transparent" points="-4,4 -4,-454.2 800,-454.2 800,4 -4,4"/>
<text text-anchor="middle" x="72.4936" y="-7.3" font-family="Helvetica,sans-Serif" font-size="11.00" fill="#000000">Generated by SchemaSpy</text>
<!-- agendamentos -->
<g id="node1" class="node">
<title>agendamentos</title>
<g id="a_node1"><a xlink:href="../../tables/agendamentos.html" xlink:title="agendamentos" target="_top">
<polygon fill="#ffffff" stroke="transparent" points="638,-302.2 638,-363.2 761,-363.2 761,-302.2 638,-302.2"/>
<polygon fill="#f5f5f5" stroke="transparent" points="638.5,-339.7 638.5,-362.7 761.5,-362.7 761.5,-339.7 638.5,-339.7"/>
<polygon fill="none" stroke="#000000" points="638.5,-339.7 638.5,-362.7 761.5,-362.7 761.5,-339.7 638.5,-339.7"/>
<text text-anchor="start" x="643.5" y="-348.3" font-family="Helvetica,sans-Serif" font-weight="bold" font-size="11.00" fill="#000000">agendamentos</text>
<text text-anchor="start" x="727.0219" y="-347.8" font-family="Helvetica,sans-Serif" font-size="11.00" fill="#000000">[table]</text>
<polygon fill="none" stroke="#000000" points="638.5,-320.7 638.5,-339.7 761.5,-339.7 761.5,-320.7 638.5,-320.7"/>
<text text-anchor="start" x="641.5" y="-326.8" font-family="Helvetica,sans-Serif" font-size="11.00" fill="#000000">...</text>
<polygon fill="#ffffff" stroke="transparent" points="638.5,-301.7 638.5,-320.7 698.5,-320.7 698.5,-301.7 638.5,-301.7"/>
<polygon fill="none" stroke="#000000" points="638.5,-301.7 638.5,-320.7 698.5,-320.7 698.5,-301.7 638.5,-301.7"/>
<text text-anchor="start" x="641.5" y="-307.8" font-family="Helvetica,sans-Serif" font-size="11.00" fill="#000000">&lt; 2</text>
<polygon fill="#ffffff" stroke="transparent" points="698.5,-301.7 698.5,-320.7 729.5,-320.7 729.5,-301.7 698.5,-301.7"/>
<polygon fill="none" stroke="#000000" points="698.5,-301.7 698.5,-320.7 729.5,-320.7 729.5,-301.7 698.5,-301.7"/>
<text text-anchor="start" x="720.3862" y="-307.8" font-family="Helvetica,sans-Serif" font-size="11.00" fill="#000000"> &#160;</text>
<polygon fill="#ffffff" stroke="transparent" points="729.5,-301.7 729.5,-320.7 761.5,-320.7 761.5,-301.7 729.5,-301.7"/>
<polygon fill="none" stroke="#000000" points="729.5,-301.7 729.5,-320.7 761.5,-320.7 761.5,-301.7 729.5,-301.7"/>
<text text-anchor="start" x="752.3862" y="-307.8" font-family="Helvetica,sans-Serif" font-size="11.00" fill="#000000"> &#160;</text>
</a>
</g>
</g>
<!-- encontros -->
<g id="node2" class="node">
<title>encontros</title>
<g id="a_node2"><a xlink:href="../../tables/encontros.html" xlink:title="encontros" target="_top">
<polygon fill="#ffffff" stroke="transparent" points="452,-237.2 452,-364.2 549,-364.2 549,-237.2 452,-237.2"/>
<polygon fill="#f5f5f5" stroke="transparent" points="452.5,-340.7 452.5,-363.7 549.5,-363.7 549.5,-340.7 452.5,-340.7"/>
<polygon fill="none" stroke="#000000" points="452.5,-340.7 452.5,-363.7 549.5,-363.7 549.5,-340.7 452.5,-340.7"/>
<text text-anchor="start" x="457.5" y="-349.3" font-family="Helvetica,sans-Serif" font-weight="bold" font-size="11.00" fill="#000000">encontros</text>
<text text-anchor="start" x="515.0219" y="-348.8" font-family="Helvetica,sans-Serif" font-size="11.00" fill="#000000">[table]</text>
<polygon fill="none" stroke="#000000" points="452.5,-318.7 452.5,-340.7 549.5,-340.7 549.5,-318.7 452.5,-318.7"/>
<image xlink:href="../../images/primaryKeys.png" width="11px" height="12px" preserveAspectRatio="xMinYMin meet" x="457.5" y="-335.7"/>
<text text-anchor="start" x="481.5" y="-325.8" font-family="Helvetica,sans-Serif" font-size="11.00" fill="#000000">id</text>
<polygon fill="none" stroke="#000000" points="452.5,-296.7 452.5,-318.7 549.5,-318.7 549.5,-296.7 452.5,-296.7"/>
<image xlink:href="../../images/foreignKeys.png" width="11px" height="12px" preserveAspectRatio="xMinYMin meet" x="457.5" y="-313.7"/>
<text text-anchor="start" x="481.5" y="-303.8" font-family="Helvetica,sans-Serif" font-size="11.00" fill="#000000">id_grupo</text>
<polygon fill="none" stroke="#000000" points="452.5,-274.7 452.5,-296.7 549.5,-296.7 549.5,-274.7 452.5,-274.7"/>
<image xlink:href="../../images/foreignKeys.png" width="11px" height="12px" preserveAspectRatio="xMinYMin meet" x="457.5" y="-291.7"/>
<text text-anchor="start" x="481.5" y="-281.8" font-family="Helvetica,sans-Serif" font-size="11.00" fill="#000000">id_turma</text>
<polygon fill="none" stroke="#000000" points="452.5,-255.7 452.5,-274.7 549.5,-274.7 549.5,-255.7 452.5,-255.7"/>
<text text-anchor="start" x="455.5" y="-261.8" font-family="Helvetica,sans-Serif" font-size="11.00" fill="#000000">...</text>
<polygon fill="#ffffff" stroke="transparent" points="452.5,-236.7 452.5,-255.7 494.5,-255.7 494.5,-236.7 452.5,-236.7"/>
<polygon fill="none" stroke="#000000" points="452.5,-236.7 452.5,-255.7 494.5,-255.7 494.5,-236.7 452.5,-236.7"/>
<text text-anchor="start" x="455.5" y="-242.8" font-family="Helvetica,sans-Serif" font-size="11.00" fill="#000000">&lt; 2</text>
<polygon fill="#ffffff" stroke="transparent" points="494.5,-236.7 494.5,-255.7 517.5,-255.7 517.5,-236.7 494.5,-236.7"/>
<polygon fill="none" stroke="#000000" points="494.5,-236.7 494.5,-255.7 517.5,-255.7 517.5,-236.7 494.5,-236.7"/>
<text text-anchor="start" x="508.3862" y="-242.8" font-family="Helvetica,sans-Serif" font-size="11.00" fill="#000000"> &#160;</text>
<polygon fill="#ffffff" stroke="transparent" points="517.5,-236.7 517.5,-255.7 549.5,-255.7 549.5,-236.7 517.5,-236.7"/>
<polygon fill="none" stroke="#000000" points="517.5,-236.7 517.5,-255.7 549.5,-255.7 549.5,-236.7 517.5,-236.7"/>
<text text-anchor="start" x="530.9053" y="-242.8" font-family="Helvetica,sans-Serif" font-size="11.00" fill="#000000">2 &gt;</text>
</a>
</g>
</g>
<!-- agendamentos&#45;&gt;encontros -->
<g id="edge1" class="edge">
<title>agendamentos:w&#45;&gt;encontros:e</title>
<path fill="none" stroke="#000000" d="M623.788,-329.7C595.6859,-329.7 583.6476,-329.7 549.5,-329.7"/>
<polygon fill="#000000" stroke="#000000" points="630.5,-329.7001 638.5,-333.3 634.5,-329.7 638.5,-329.7 638.5,-329.7 638.5,-329.7 634.5,-329.7 638.5,-326.1 630.5,-329.7001 630.5,-329.7001"/>
<ellipse fill="none" stroke="#000000" cx="627.3" cy="-329.7001" rx="3.2" ry="3.2"/>
</g>
<!-- grupos -->
<g id="node3" class="node">
<title>grupos</title>
<g id="a_node3"><a xlink:href="../../tables/grupos.html" xlink:title="grupos" target="_top">
<polygon fill="#ffffff" stroke="transparent" points="311,-305.2 311,-366.2 390,-366.2 390,-305.2 311,-305.2"/>
<polygon fill="#f5f5f5" stroke="transparent" points="311.5,-342.7 311.5,-365.7 390.5,-365.7 390.5,-342.7 311.5,-342.7"/>
<polygon fill="none" stroke="#000000" points="311.5,-342.7 311.5,-365.7 390.5,-365.7 390.5,-342.7 311.5,-342.7"/>
<text text-anchor="start" x="316.5" y="-351.3" font-family="Helvetica,sans-Serif" font-weight="bold" font-size="11.00" fill="#000000">grupos</text>
<text text-anchor="start" x="356.0219" y="-350.8" font-family="Helvetica,sans-Serif" font-size="11.00" fill="#000000">[table]</text>
<polygon fill="none" stroke="#000000" points="311.5,-323.7 311.5,-342.7 390.5,-342.7 390.5,-323.7 311.5,-323.7"/>
<text text-anchor="start" x="314.5" y="-329.8" font-family="Helvetica,sans-Serif" font-size="11.00" fill="#000000">...</text>
<polygon fill="#ffffff" stroke="transparent" points="311.5,-304.7 311.5,-323.7 344.5,-323.7 344.5,-304.7 311.5,-304.7"/>
<polygon fill="none" stroke="#000000" points="311.5,-304.7 311.5,-323.7 344.5,-323.7 344.5,-304.7 311.5,-304.7"/>
<text text-anchor="start" x="314.5" y="-310.8" font-family="Helvetica,sans-Serif" font-size="11.00" fill="#000000">&lt; 2</text>
<polygon fill="#ffffff" stroke="transparent" points="344.5,-304.7 344.5,-323.7 362.5,-323.7 362.5,-304.7 344.5,-304.7"/>
<polygon fill="none" stroke="#000000" points="344.5,-304.7 344.5,-323.7 362.5,-323.7 362.5,-304.7 344.5,-304.7"/>
<text text-anchor="start" x="353.3862" y="-310.8" font-family="Helvetica,sans-Serif" font-size="11.00" fill="#000000"> &#160;</text>
<polygon fill="#ffffff" stroke="transparent" points="362.5,-304.7 362.5,-323.7 390.5,-323.7 390.5,-304.7 362.5,-304.7"/>
<polygon fill="none" stroke="#000000" points="362.5,-304.7 362.5,-323.7 390.5,-323.7 390.5,-304.7 362.5,-304.7"/>
<text text-anchor="start" x="371.9053" y="-310.8" font-family="Helvetica,sans-Serif" font-size="11.00" fill="#000000">2 &gt;</text>
</a>
</g>
</g>
<!-- encontros&#45;&gt;grupos -->
<g id="edge2" class="edge">
<title>encontros:w&#45;&gt;grupos:e</title>
<path fill="none" stroke="#000000" d="M437.7919,-310.1885C420.7468,-316.512 414.4084,-332.7 390.5,-332.7"/>
<polygon fill="#000000" stroke="#000000" points="444.6121,-309.0346 453.1006,-311.2496 448.5561,-308.3673 452.5,-307.7 452.5,-307.7 452.5,-307.7 448.5561,-308.3673 451.8994,-304.1504 444.6121,-309.0346 444.6121,-309.0346"/>
<ellipse fill="none" stroke="#000000" cx="441.4569" cy="-309.5685" rx="3.2" ry="3.2"/>
</g>
<!-- turmas -->
<g id="node4" class="node">
<title>turmas</title>
<g id="a_node4"><a xlink:href="../../tables/turmas.html" xlink:title="turmas" target="_top">
<polygon fill="#ffffff" stroke="transparent" points="311,-195.2 311,-256.2 390,-256.2 390,-195.2 311,-195.2"/>
<polygon fill="#f5f5f5" stroke="transparent" points="311.5,-232.7 311.5,-255.7 390.5,-255.7 390.5,-232.7 311.5,-232.7"/>
<polygon fill="none" stroke="#000000" points="311.5,-232.7 311.5,-255.7 390.5,-255.7 390.5,-232.7 311.5,-232.7"/>
<text text-anchor="start" x="316.5" y="-241.3" font-family="Helvetica,sans-Serif" font-weight="bold" font-size="11.00" fill="#000000">turmas</text>
<text text-anchor="start" x="356.0219" y="-240.8" font-family="Helvetica,sans-Serif" font-size="11.00" fill="#000000">[table]</text>
<polygon fill="none" stroke="#000000" points="311.5,-213.7 311.5,-232.7 390.5,-232.7 390.5,-213.7 311.5,-213.7"/>
<text text-anchor="start" x="314.5" y="-219.8" font-family="Helvetica,sans-Serif" font-size="11.00" fill="#000000">...</text>
<polygon fill="#ffffff" stroke="transparent" points="311.5,-194.7 311.5,-213.7 344.5,-213.7 344.5,-194.7 311.5,-194.7"/>
<polygon fill="none" stroke="#000000" points="311.5,-194.7 311.5,-213.7 344.5,-213.7 344.5,-194.7 311.5,-194.7"/>
<text text-anchor="start" x="314.5" y="-200.8" font-family="Helvetica,sans-Serif" font-size="11.00" fill="#000000">&lt; 2</text>
<polygon fill="#ffffff" stroke="transparent" points="344.5,-194.7 344.5,-213.7 362.5,-213.7 362.5,-194.7 344.5,-194.7"/>
<polygon fill="none" stroke="#000000" points="344.5,-194.7 344.5,-213.7 362.5,-213.7 362.5,-194.7 344.5,-194.7"/>
<text text-anchor="start" x="353.3862" y="-200.8" font-family="Helvetica,sans-Serif" font-size="11.00" fill="#000000"> &#160;</text>
<polygon fill="#ffffff" stroke="transparent" points="362.5,-194.7 362.5,-213.7 390.5,-213.7 390.5,-194.7 362.5,-194.7"/>
<polygon fill="none" stroke="#000000" points="362.5,-194.7 362.5,-213.7 390.5,-213.7 390.5,-194.7 362.5,-194.7"/>
<text text-anchor="start" x="371.9053" y="-200.8" font-family="Helvetica,sans-Serif" font-size="11.00" fill="#000000">2 &gt;</text>
</a>
</g>
</g>
<!-- encontros&#45;&gt;turmas -->
<g id="edge3" class="edge">
<title>encontros:w&#45;&gt;turmas:e</title>
<path fill="none" stroke="#000000" d="M438.3326,-281.9477C416.9035,-268.385 423.9536,-222.7 390.5,-222.7"/>
<polygon fill="#000000" stroke="#000000" points="444.7666,-283.6518 451.5783,-289.18 448.6333,-284.6759 452.5,-285.7 452.5,-285.7 452.5,-285.7 448.6333,-284.6759 453.4217,-282.22 444.7666,-283.6518 444.7666,-283.6518"/>
<ellipse fill="none" stroke="#000000" cx="441.6733" cy="-282.8325" rx="3.2" ry="3.2"/>
</g>
<!-- cursos -->
<g id="node5" class="node">
<title>cursos</title>
<g id="a_node5"><a xlink:href="../../tables/cursos.html" xlink:title="cursos" target="_top">
<polygon fill="#ffffff" stroke="transparent" points="8,-228.2 8,-289.2 86,-289.2 86,-228.2 8,-228.2"/>
<polygon fill="#f5f5f5" stroke="transparent" points="8,-265.7 8,-288.7 86,-288.7 86,-265.7 8,-265.7"/>
<polygon fill="none" stroke="#000000" points="8,-265.7 8,-288.7 86,-288.7 86,-265.7 8,-265.7"/>
<text text-anchor="start" x="13" y="-274.3" font-family="Helvetica,sans-Serif" font-weight="bold" font-size="11.00" fill="#000000">cursos</text>
<text text-anchor="start" x="51.5219" y="-273.8" font-family="Helvetica,sans-Serif" font-size="11.00" fill="#000000">[table]</text>
<polygon fill="none" stroke="#000000" points="8,-246.7 8,-265.7 86,-265.7 86,-246.7 8,-246.7"/>
<text text-anchor="start" x="11" y="-252.8" font-family="Helvetica,sans-Serif" font-size="11.00" fill="#000000">...</text>
<polygon fill="#ffffff" stroke="transparent" points="8,-227.7 8,-246.7 36,-246.7 36,-227.7 8,-227.7"/>
<polygon fill="none" stroke="#000000" points="8,-227.7 8,-246.7 36,-246.7 36,-227.7 8,-227.7"/>
<text text-anchor="start" x="11" y="-233.8" font-family="Helvetica,sans-Serif" font-size="11.00" fill="#000000"> &#160;</text>
<polygon fill="#ffffff" stroke="transparent" points="36,-227.7 36,-246.7 56,-246.7 56,-227.7 36,-227.7"/>
<polygon fill="none" stroke="#000000" points="36,-227.7 36,-246.7 56,-246.7 56,-227.7 36,-227.7"/>
<text text-anchor="start" x="46.8862" y="-233.8" font-family="Helvetica,sans-Serif" font-size="11.00" fill="#000000"> &#160;</text>
<polygon fill="#ffffff" stroke="transparent" points="56,-227.7 56,-246.7 86,-246.7 86,-227.7 56,-227.7"/>
<polygon fill="none" stroke="#000000" points="56,-227.7 56,-246.7 86,-246.7 86,-227.7 56,-227.7"/>
<text text-anchor="start" x="67.4053" y="-233.8" font-family="Helvetica,sans-Serif" font-size="11.00" fill="#000000">3 &gt;</text>
</a>
</g>
</g>
<!-- grupos&#45;&gt;cursos -->
<g id="edge4" class="edge">
<title>grupos:w&#45;&gt;cursos:e</title>
<path fill="none" stroke="#000000" d="M296.9102,-332.1879C204.0745,-325.5072 186.8363,-255.7 86,-255.7"/>
<polygon fill="#000000" stroke="#000000" points="303.5049,-332.4193 311.3737,-336.2978 307.5025,-332.5597 311.5,-332.7 311.5,-332.7 311.5,-332.7 307.5025,-332.5597 311.6263,-329.1022 303.5049,-332.4193 303.5049,-332.4193"/>
<ellipse fill="none" stroke="#000000" cx="300.3069" cy="-332.3071" rx="3.2" ry="3.2"/>
</g>
<!-- usuarios -->
<g id="node6" class="node">
<title>usuarios</title>
<g id="a_node6"><a xlink:href="../../tables/usuarios.html" xlink:title="usuarios" target="_top">
<polygon fill="#ffffff" stroke="transparent" points="135,-38.2 135,-231.2 262,-231.2 262,-38.2 135,-38.2"/>
<polygon fill="#f5f5f5" stroke="transparent" points="135.5,-207.7 135.5,-230.7 262.5,-230.7 262.5,-207.7 135.5,-207.7"/>
<polygon fill="none" stroke="#000000" points="135.5,-207.7 135.5,-230.7 262.5,-230.7 262.5,-207.7 135.5,-207.7"/>
<text text-anchor="start" x="140.5" y="-216.3" font-family="Helvetica,sans-Serif" font-weight="bold" font-size="11.00" fill="#000000">usuarios</text>
<text text-anchor="start" x="227.5437" y="-215.8" font-family="Helvetica,sans-Serif" font-size="11.00" fill="#000000">[table]</text>
<polygon fill="none" stroke="#000000" points="135.5,-185.7 135.5,-207.7 262.5,-207.7 262.5,-185.7 135.5,-185.7"/>
<image xlink:href="../../images/primaryKeys.png" width="11px" height="12px" preserveAspectRatio="xMinYMin meet" x="140.5" y="-202.7"/>
<text text-anchor="start" x="155.5" y="-192.8" font-family="Helvetica,sans-Serif" font-size="11.00" fill="#000000">id</text>
<polygon fill="none" stroke="#000000" points="135.5,-163.7 135.5,-185.7 262.5,-185.7 262.5,-163.7 135.5,-163.7"/>
<image xlink:href="../../images/foreignKeys.png" width="11px" height="12px" preserveAspectRatio="xMinYMin meet" x="140.5" y="-180.7"/>
<text text-anchor="start" x="155.5" y="-170.8" font-family="Helvetica,sans-Serif" font-size="11.00" fill="#000000">id_curso</text>
<polygon fill="#ffffff" stroke="transparent" points="135.5,-141.7 135.5,-163.7 262.5,-163.7 262.5,-141.7 135.5,-141.7"/>
<polygon fill="none" stroke="#000000" points="135.5,-141.7 135.5,-163.7 262.5,-163.7 262.5,-141.7 135.5,-141.7"/>
<text text-anchor="start" x="155.5" y="-148.8" font-family="Helvetica,sans-Serif" font-size="11.00" fill="#000000">nome</text>
<polygon fill="#ffffff" stroke="transparent" points="135.5,-119.7 135.5,-141.7 262.5,-141.7 262.5,-119.7 135.5,-119.7"/>
<polygon fill="none" stroke="#000000" points="135.5,-119.7 135.5,-141.7 262.5,-141.7 262.5,-119.7 135.5,-119.7"/>
<text text-anchor="start" x="155.5" y="-126.8" font-family="Helvetica,sans-Serif" font-size="11.00" fill="#000000">email</text>
<polygon fill="#ffffff" stroke="transparent" points="135.5,-97.7 135.5,-119.7 262.5,-119.7 262.5,-97.7 135.5,-97.7"/>
<polygon fill="none" stroke="#000000" points="135.5,-97.7 135.5,-119.7 262.5,-119.7 262.5,-97.7 135.5,-97.7"/>
<text text-anchor="start" x="155.5" y="-104.8" font-family="Helvetica,sans-Serif" font-size="11.00" fill="#000000">matricula</text>
<polygon fill="#ffffff" stroke="transparent" points="135.5,-75.7 135.5,-97.7 262.5,-97.7 262.5,-75.7 135.5,-75.7"/>
<polygon fill="none" stroke="#000000" points="135.5,-75.7 135.5,-97.7 262.5,-97.7 262.5,-75.7 135.5,-75.7"/>
<text text-anchor="start" x="155.5" y="-82.8" font-family="Helvetica,sans-Serif" font-size="11.00" fill="#000000">siape</text>
<polygon fill="none" stroke="#000000" points="135.5,-56.7 135.5,-75.7 262.5,-75.7 262.5,-56.7 135.5,-56.7"/>
<text text-anchor="start" x="138.5" y="-62.8" font-family="Helvetica,sans-Serif" font-size="11.00" fill="#000000">...</text>
<polygon fill="#ffffff" stroke="transparent" points="135.5,-37.7 135.5,-56.7 192.5,-56.7 192.5,-37.7 135.5,-37.7"/>
<polygon fill="none" stroke="#000000" points="135.5,-37.7 135.5,-56.7 192.5,-56.7 192.5,-37.7 135.5,-37.7"/>
<text text-anchor="start" x="138.5" y="-43.8" font-family="Helvetica,sans-Serif" font-size="11.00" fill="#000000">&lt; 1</text>
<polygon fill="#ffffff" stroke="transparent" points="192.5,-37.7 192.5,-56.7 222.5,-56.7 222.5,-37.7 192.5,-37.7"/>
<polygon fill="none" stroke="#000000" points="192.5,-37.7 192.5,-56.7 222.5,-56.7 222.5,-37.7 192.5,-37.7"/>
<text text-anchor="start" x="213.3862" y="-43.8" font-family="Helvetica,sans-Serif" font-size="11.00" fill="#000000"> &#160;</text>
<polygon fill="#ffffff" stroke="transparent" points="222.5,-37.7 222.5,-56.7 262.5,-56.7 262.5,-37.7 222.5,-37.7"/>
<polygon fill="none" stroke="#000000" points="222.5,-37.7 222.5,-56.7 262.5,-56.7 262.5,-37.7 222.5,-37.7"/>
<text text-anchor="start" x="243.9053" y="-43.8" font-family="Helvetica,sans-Serif" font-size="11.00" fill="#000000">6 &gt;</text>
</a>
</g>
</g>
<!-- grupos&#45;&gt;usuarios -->
<g id="edge5" class="edge">
<title>grupos:w&#45;&gt;usuarios:e</title>
<path fill="none" stroke="#000000" d="M296.9835,-329.3382C260.8941,-308.3953 320.7247,-196.7 262.5,-196.7"/>
<polygon fill="#000000" stroke="#000000" points="303.7063,-330.895 310.6878,-336.2072 307.6031,-331.7975 311.5,-332.7 311.5,-332.7 311.5,-332.7 307.6031,-331.7975 312.3122,-329.1928 303.7063,-330.895 303.7063,-330.895"/>
<ellipse fill="none" stroke="#000000" cx="300.5888" cy="-330.1731" rx="3.2" ry="3.2"/>
</g>
<!-- turmas&#45;&gt;cursos -->
<g id="edge9" class="edge">
<title>turmas:w&#45;&gt;cursos:e</title>
<path fill="none" stroke="#000000" d="M297.4185,-225.7867C288.6881,-230.1898 283.8105,-238.1347 270,-241.7 190.5894,-262.2007 168.0142,-255.7 86,-255.7"/>
<polygon fill="#000000" stroke="#000000" points="303.6855,-224.413 312.2709,-226.2165 307.5928,-223.5565 311.5,-222.7 311.5,-222.7 311.5,-222.7 307.5928,-223.5565 310.7291,-219.1835 303.6855,-224.413 303.6855,-224.413"/>
<ellipse fill="none" stroke="#000000" cx="300.5598" cy="-225.0982" rx="3.2" ry="3.2"/>
</g>
<!-- turmas&#45;&gt;usuarios -->
<g id="edge10" class="edge">
<title>turmas:w&#45;&gt;usuarios:e</title>
<path fill="none" stroke="#000000" d="M297.2707,-218.8636C285.5311,-211.6313 281.1828,-196.7 262.5,-196.7"/>
<polygon fill="#000000" stroke="#000000" points="303.7758,-220.6174 310.5628,-226.1759 307.6379,-221.6587 311.5,-222.7 311.5,-222.7 311.5,-222.7 307.6379,-221.6587 312.4372,-219.2241 303.7758,-220.6174 303.7758,-220.6174"/>
<ellipse fill="none" stroke="#000000" cx="300.6861" cy="-219.7844" rx="3.2" ry="3.2"/>
</g>
<!-- usuarios&#45;&gt;cursos -->
<g id="edge15" class="edge">
<title>usuarios:w&#45;&gt;cursos:e</title>
<path fill="none" stroke="#000000" d="M121.5711,-179.287C101.7825,-196.422 122.0923,-255.7 86,-255.7"/>
<polygon fill="#000000" stroke="#000000" points="127.9014,-177.2024 136.6261,-178.1194 131.7007,-175.9512 135.5,-174.7 135.5,-174.7 135.5,-174.7 131.7007,-175.9512 134.3739,-171.2806 127.9014,-177.2024 127.9014,-177.2024"/>
<ellipse fill="none" stroke="#000000" cx="124.862" cy="-178.2033" rx="3.2" ry="3.2"/>
</g>
<!-- mensagens -->
<g id="node7" class="node">
<title>mensagens</title>
<g id="a_node7"><a xlink:href="../../tables/mensagens.html" xlink:title="mensagens" target="_top">
<polygon fill="#ffffff" stroke="transparent" points="611,-67.7 611,-245.7 788,-245.7 788,-67.7 611,-67.7"/>
<polygon fill="#f5f5f5" stroke="transparent" points="613.5,-220.7 613.5,-243.7 786.5,-243.7 786.5,-220.7 613.5,-220.7"/>
<polygon fill="none" stroke="#000000" points="613.5,-220.7 613.5,-243.7 786.5,-243.7 786.5,-220.7 613.5,-220.7"/>
<text text-anchor="start" x="618.5" y="-229.3" font-family="Helvetica,sans-Serif" font-weight="bold" font-size="11.00" fill="#000000">mensagens</text>
<text text-anchor="start" x="751.5437" y="-228.8" font-family="Helvetica,sans-Serif" font-size="11.00" fill="#000000">[table]</text>
<polygon fill="none" stroke="#000000" points="613.5,-198.7 613.5,-220.7 702.5,-220.7 702.5,-198.7 613.5,-198.7"/>
<image xlink:href="../../images/primaryKeys.png" width="11px" height="12px" preserveAspectRatio="xMinYMin meet" x="618.5" y="-215.7"/>
<text text-anchor="start" x="633.5" y="-205.8" font-family="Helvetica,sans-Serif" font-size="11.00" fill="#000000">id</text>
<polygon fill="none" stroke="#000000" points="702.5,-198.7 702.5,-220.7 786.5,-220.7 786.5,-198.7 702.5,-198.7"/>
<text text-anchor="start" x="705.5" y="-206.4" font-family="Helvetica,sans-Serif" font-size="11.00" fill="#000000">serial[10]</text>
<polygon fill="none" stroke="#000000" points="613.5,-176.7 613.5,-198.7 702.5,-198.7 702.5,-176.7 613.5,-176.7"/>
<image xlink:href="../../images/foreignKeys.png" width="11px" height="12px" preserveAspectRatio="xMinYMin meet" x="618.5" y="-193.7"/>
<text text-anchor="start" x="633.5" y="-183.8" font-family="Helvetica,sans-Serif" font-size="11.00" fill="#000000">id_encontro</text>
<polygon fill="none" stroke="#000000" points="702.5,-176.7 702.5,-198.7 786.5,-198.7 786.5,-176.7 702.5,-176.7"/>
<text text-anchor="start" x="705.5" y="-184.4" font-family="Helvetica,sans-Serif" font-size="11.00" fill="#000000">int4[10]</text>
<polygon fill="none" stroke="#000000" points="613.5,-154.7 613.5,-176.7 702.5,-176.7 702.5,-154.7 613.5,-154.7"/>
<image xlink:href="../../images/foreignKeys.png" width="11px" height="12px" preserveAspectRatio="xMinYMin meet" x="618.5" y="-171.7"/>
<text text-anchor="start" x="633.5" y="-161.8" font-family="Helvetica,sans-Serif" font-size="11.00" fill="#000000">id_user</text>
<polygon fill="none" stroke="#000000" points="702.5,-154.7 702.5,-176.7 786.5,-176.7 786.5,-154.7 702.5,-154.7"/>
<text text-anchor="start" x="705.5" y="-162.4" font-family="Helvetica,sans-Serif" font-size="11.00" fill="#000000">int4[10]</text>
<polygon fill="none" stroke="#000000" points="613.5,-132.7 613.5,-154.7 702.5,-154.7 702.5,-132.7 613.5,-132.7"/>
<text text-anchor="start" x="633.5" y="-139.8" font-family="Helvetica,sans-Serif" font-size="11.00" fill="#000000">data</text>
<polygon fill="none" stroke="#000000" points="702.5,-132.7 702.5,-154.7 786.5,-154.7 786.5,-132.7 702.5,-132.7"/>
<text text-anchor="start" x="705.3807" y="-140.4" font-family="Helvetica,sans-Serif" font-size="11.00" fill="#000000">timestamp[29,6]</text>
<polygon fill="none" stroke="#000000" points="613.5,-110.7 613.5,-132.7 702.5,-132.7 702.5,-110.7 613.5,-110.7"/>
<text text-anchor="start" x="633.5" y="-117.8" font-family="Helvetica,sans-Serif" font-size="11.00" fill="#000000">pdf_base64</text>
<polygon fill="none" stroke="#000000" points="702.5,-110.7 702.5,-132.7 786.5,-132.7 786.5,-110.7 702.5,-110.7"/>
<text text-anchor="start" x="705.5" y="-118.4" font-family="Helvetica,sans-Serif" font-size="11.00" fill="#000000">oid[10]</text>
<polygon fill="none" stroke="#000000" points="613.5,-88.7 613.5,-110.7 702.5,-110.7 702.5,-88.7 613.5,-88.7"/>
<text text-anchor="start" x="633.5" y="-95.8" font-family="Helvetica,sans-Serif" font-size="11.00" fill="#000000">texto</text>
<polygon fill="none" stroke="#000000" points="702.5,-88.7 702.5,-110.7 786.5,-110.7 786.5,-88.7 702.5,-88.7"/>
<text text-anchor="start" x="705.5" y="-96.4" font-family="Helvetica,sans-Serif" font-size="11.00" fill="#000000">oid[10]</text>
<polygon fill="#ffffff" stroke="transparent" points="613.5,-69.7 613.5,-88.7 662.5,-88.7 662.5,-69.7 613.5,-69.7"/>
<polygon fill="none" stroke="#000000" points="613.5,-69.7 613.5,-88.7 662.5,-88.7 662.5,-69.7 613.5,-69.7"/>
<text text-anchor="start" x="616.5" y="-75.8" font-family="Helvetica,sans-Serif" font-size="11.00" fill="#000000">&lt; 2</text>
<polygon fill="#ffffff" stroke="transparent" points="662.5,-69.7 662.5,-88.7 702.5,-88.7 702.5,-69.7 662.5,-69.7"/>
<polygon fill="none" stroke="#000000" points="662.5,-69.7 662.5,-88.7 702.5,-88.7 702.5,-69.7 662.5,-69.7"/>
<text text-anchor="start" x="693.3862" y="-75.8" font-family="Helvetica,sans-Serif" font-size="11.00" fill="#000000"> &#160;</text>
<polygon fill="#ffffff" stroke="transparent" points="702.5,-69.7 702.5,-88.7 786.5,-88.7 786.5,-69.7 702.5,-69.7"/>
<polygon fill="none" stroke="#000000" points="702.5,-69.7 702.5,-88.7 786.5,-88.7 786.5,-69.7 702.5,-69.7"/>
<text text-anchor="start" x="767.9053" y="-75.8" font-family="Helvetica,sans-Serif" font-size="11.00" fill="#000000">0 &gt;</text>
<polygon fill="none" stroke="#000000" stroke-width="2" points="612,-68.7 612,-244.7 787,-244.7 787,-68.7 612,-68.7"/>
</a>
</g>
</g>
<!-- mensagens&#45;&gt;encontros -->
<g id="edge6" class="edge">
<title>mensagens:w&#45;&gt;encontros:e</title>
<path fill="none" stroke="#000000" d="M599.206,-190.4098C555.5227,-210.0413 613.0464,-329.7 549.5,-329.7"/>
<polygon fill="#000000" stroke="#000000" points="605.64,-189.1901 614.1706,-191.237 609.57,-188.4451 613.5,-187.7 613.5,-187.7 613.5,-187.7 609.57,-188.4451 612.8294,-184.163 605.64,-189.1901 605.64,-189.1901"/>
<ellipse fill="none" stroke="#000000" cx="602.496" cy="-189.7862" rx="3.2" ry="3.2"/>
</g>
<!-- mensagens&#45;&gt;usuarios -->
<g id="edge7" class="edge">
<title>mensagens:w&#45;&gt;usuarios:e</title>
<path fill="none" stroke="#000000" d="M599.3246,-162.4675C589.8426,-157.4841 585.0418,-148.1408 570,-144.7 509.7777,-130.9242 492.3149,-137.1518 431,-144.7 372.7996,-151.8648 358.0475,-156.4914 303,-176.7 284.1546,-183.6184 282.5752,-196.7 262.5,-196.7"/>
<polygon fill="#000000" stroke="#000000" points="605.7002,-163.9213 612.6996,-169.2099 609.6001,-164.8107 613.5,-165.7 613.5,-165.7 613.5,-165.7 609.6001,-164.8107 614.3004,-162.1901 605.7002,-163.9213 605.7002,-163.9213"/>
<ellipse fill="none" stroke="#000000" cx="602.5803" cy="-163.2099" rx="3.2" ry="3.2"/>
</g>
<!-- token -->
<g id="node8" class="node">
<title>token</title>
<g id="a_node8"><a xlink:href="../../tables/token.html" xlink:title="token" target="_top">
<polygon fill="#ffffff" stroke="transparent" points="315,-45.2 315,-106.2 386,-106.2 386,-45.2 315,-45.2"/>
<polygon fill="#f5f5f5" stroke="transparent" points="315.5,-82.7 315.5,-105.7 386.5,-105.7 386.5,-82.7 315.5,-82.7"/>
<polygon fill="none" stroke="#000000" points="315.5,-82.7 315.5,-105.7 386.5,-105.7 386.5,-82.7 315.5,-82.7"/>
<text text-anchor="start" x="320.5" y="-91.3" font-family="Helvetica,sans-Serif" font-weight="bold" font-size="11.00" fill="#000000">token</text>
<text text-anchor="start" x="352.0219" y="-90.8" font-family="Helvetica,sans-Serif" font-size="11.00" fill="#000000">[table]</text>
<polygon fill="none" stroke="#000000" points="315.5,-63.7 315.5,-82.7 386.5,-82.7 386.5,-63.7 315.5,-63.7"/>
<text text-anchor="start" x="318.5" y="-69.8" font-family="Helvetica,sans-Serif" font-size="11.00" fill="#000000">...</text>
<polygon fill="#ffffff" stroke="transparent" points="315.5,-44.7 315.5,-63.7 349.5,-63.7 349.5,-44.7 315.5,-44.7"/>
<polygon fill="none" stroke="#000000" points="315.5,-44.7 315.5,-63.7 349.5,-63.7 349.5,-44.7 315.5,-44.7"/>
<text text-anchor="start" x="318.5" y="-50.8" font-family="Helvetica,sans-Serif" font-size="11.00" fill="#000000">&lt; 1</text>
<polygon fill="#ffffff" stroke="transparent" points="349.5,-44.7 349.5,-63.7 367.5,-63.7 367.5,-44.7 349.5,-44.7"/>
<polygon fill="none" stroke="#000000" points="349.5,-44.7 349.5,-63.7 367.5,-63.7 367.5,-44.7 349.5,-44.7"/>
<text text-anchor="start" x="358.3862" y="-50.8" font-family="Helvetica,sans-Serif" font-size="11.00" fill="#000000"> &#160;</text>
<polygon fill="#ffffff" stroke="transparent" points="367.5,-44.7 367.5,-63.7 386.5,-63.7 386.5,-44.7 367.5,-44.7"/>
<polygon fill="none" stroke="#000000" points="367.5,-44.7 367.5,-63.7 386.5,-63.7 386.5,-44.7 367.5,-44.7"/>
<text text-anchor="start" x="377.3862" y="-50.8" font-family="Helvetica,sans-Serif" font-size="11.00" fill="#000000"> &#160;</text>
</a>
</g>
</g>
<!-- token&#45;&gt;usuarios -->
<g id="edge8" class="edge">
<title>token:w&#45;&gt;usuarios:e</title>
<path fill="none" stroke="#000000" d="M301.3328,-76.0167C267.4168,-95.7362 316.5812,-196.7 262.5,-196.7"/>
<polygon fill="#000000" stroke="#000000" points="307.7106,-74.5236 316.3206,-76.2052 311.6053,-73.6118 315.5,-72.7 315.5,-72.7 315.5,-72.7 311.6053,-73.6118 314.6794,-69.1948 307.7106,-74.5236 307.7106,-74.5236"/>
<ellipse fill="none" stroke="#000000" cx="304.5949" cy="-75.2531" rx="3.2" ry="3.2"/>
</g>
<!-- usuario_grupo -->
<g id="node9" class="node">
<title>usuario_grupo</title>
<g id="a_node9"><a xlink:href="../../tables/usuario_grupo.html" xlink:title="usuario_grupo" target="_top">
<polygon fill="#ffffff" stroke="transparent" points="439,-385.2 439,-446.2 562,-446.2 562,-385.2 439,-385.2"/>
<polygon fill="#f5f5f5" stroke="transparent" points="439.5,-422.7 439.5,-445.7 562.5,-445.7 562.5,-422.7 439.5,-422.7"/>
<polygon fill="none" stroke="#000000" points="439.5,-422.7 439.5,-445.7 562.5,-445.7 562.5,-422.7 439.5,-422.7"/>
<text text-anchor="start" x="444.5" y="-431.3" font-family="Helvetica,sans-Serif" font-weight="bold" font-size="11.00" fill="#000000">usuario_grupo</text>
<text text-anchor="start" x="528.0219" y="-430.8" font-family="Helvetica,sans-Serif" font-size="11.00" fill="#000000">[table]</text>
<polygon fill="none" stroke="#000000" points="439.5,-403.7 439.5,-422.7 562.5,-422.7 562.5,-403.7 439.5,-403.7"/>
<text text-anchor="start" x="442.5" y="-409.8" font-family="Helvetica,sans-Serif" font-size="11.00" fill="#000000">...</text>
<polygon fill="#ffffff" stroke="transparent" points="439.5,-384.7 439.5,-403.7 499.5,-403.7 499.5,-384.7 439.5,-384.7"/>
<polygon fill="none" stroke="#000000" points="439.5,-384.7 439.5,-403.7 499.5,-403.7 499.5,-384.7 439.5,-384.7"/>
<text text-anchor="start" x="442.5" y="-390.8" font-family="Helvetica,sans-Serif" font-size="11.00" fill="#000000">&lt; 2</text>
<polygon fill="#ffffff" stroke="transparent" points="499.5,-384.7 499.5,-403.7 530.5,-403.7 530.5,-384.7 499.5,-384.7"/>
<polygon fill="none" stroke="#000000" points="499.5,-384.7 499.5,-403.7 530.5,-403.7 530.5,-384.7 499.5,-384.7"/>
<text text-anchor="start" x="521.3862" y="-390.8" font-family="Helvetica,sans-Serif" font-size="11.00" fill="#000000"> &#160;</text>
<polygon fill="#ffffff" stroke="transparent" points="530.5,-384.7 530.5,-403.7 562.5,-403.7 562.5,-384.7 530.5,-384.7"/>
<polygon fill="none" stroke="#000000" points="530.5,-384.7 530.5,-403.7 562.5,-403.7 562.5,-384.7 530.5,-384.7"/>
<text text-anchor="start" x="553.3862" y="-390.8" font-family="Helvetica,sans-Serif" font-size="11.00" fill="#000000"> &#160;</text>
</a>
</g>
</g>
<!-- usuario_grupo&#45;&gt;grupos -->
<g id="edge11" class="edge">
<title>usuario_grupo:w&#45;&gt;grupos:e</title>
<path fill="none" stroke="#000000" d="M425.73,-408.1696C406.1565,-391.2461 426.1687,-332.7 390.5,-332.7"/>
<polygon fill="#000000" stroke="#000000" points="431.9007,-410.1998 438.3749,-416.1197 435.7004,-411.4499 439.5,-412.7 439.5,-412.7 439.5,-412.7 435.7004,-411.4499 440.6251,-409.2803 431.9007,-410.1998 431.9007,-410.1998"/>
<ellipse fill="none" stroke="#000000" cx="428.861" cy="-409.1997" rx="3.2" ry="3.2"/>
</g>
<!-- usuario_grupo&#45;&gt;usuarios -->
<g id="edge12" class="edge">
<title>usuario_grupo:w&#45;&gt;usuarios:e</title>
<path fill="none" stroke="#000000" d="M424.9382,-409.9976C394.6745,-395.7578 433.9017,-328.7967 398,-294.7 366.0826,-264.3873 337.599,-293.9119 303,-266.7 274.7481,-244.48 298.443,-196.7 262.5,-196.7"/>
<polygon fill="#000000" stroke="#000000" points="431.6343,-411.2402 438.8431,-416.2396 435.5672,-411.9701 439.5,-412.7 439.5,-412.7 439.5,-412.7 435.5672,-411.9701 440.1569,-409.1604 431.6343,-411.2402 431.6343,-411.2402"/>
<ellipse fill="none" stroke="#000000" cx="428.488" cy="-410.6563" rx="3.2" ry="3.2"/>
</g>
<!-- usuario_turma -->
<g id="node10" class="node">
<title>usuario_turma</title>
<g id="a_node10"><a xlink:href="../../tables/usuario_turma.html" xlink:title="usuario_turma" target="_top">
<polygon fill="#ffffff" stroke="transparent" points="439.5,-155.2 439.5,-216.2 561.5,-216.2 561.5,-155.2 439.5,-155.2"/>
<polygon fill="#f5f5f5" stroke="transparent" points="439.5,-192.7 439.5,-215.7 561.5,-215.7 561.5,-192.7 439.5,-192.7"/>
<polygon fill="none" stroke="#000000" points="439.5,-192.7 439.5,-215.7 561.5,-215.7 561.5,-192.7 439.5,-192.7"/>
<text text-anchor="start" x="444.5" y="-201.3" font-family="Helvetica,sans-Serif" font-weight="bold" font-size="11.00" fill="#000000">usuario_turma</text>
<text text-anchor="start" x="527.0219" y="-200.8" font-family="Helvetica,sans-Serif" font-size="11.00" fill="#000000">[table]</text>
<polygon fill="none" stroke="#000000" points="439.5,-173.7 439.5,-192.7 561.5,-192.7 561.5,-173.7 439.5,-173.7"/>
<text text-anchor="start" x="442.5" y="-179.8" font-family="Helvetica,sans-Serif" font-size="11.00" fill="#000000">...</text>
<polygon fill="#ffffff" stroke="transparent" points="439.5,-154.7 439.5,-173.7 498.5,-173.7 498.5,-154.7 439.5,-154.7"/>
<polygon fill="none" stroke="#000000" points="439.5,-154.7 439.5,-173.7 498.5,-173.7 498.5,-154.7 439.5,-154.7"/>
<text text-anchor="start" x="442.5" y="-160.8" font-family="Helvetica,sans-Serif" font-size="11.00" fill="#000000">&lt; 2</text>
<polygon fill="#ffffff" stroke="transparent" points="498.5,-154.7 498.5,-173.7 529.5,-173.7 529.5,-154.7 498.5,-154.7"/>
<polygon fill="none" stroke="#000000" points="498.5,-154.7 498.5,-173.7 529.5,-173.7 529.5,-154.7 498.5,-154.7"/>
<text text-anchor="start" x="520.3862" y="-160.8" font-family="Helvetica,sans-Serif" font-size="11.00" fill="#000000"> &#160;</text>
<polygon fill="#ffffff" stroke="transparent" points="529.5,-154.7 529.5,-173.7 561.5,-173.7 561.5,-154.7 529.5,-154.7"/>
<polygon fill="none" stroke="#000000" points="529.5,-154.7 529.5,-173.7 561.5,-173.7 561.5,-154.7 529.5,-154.7"/>
<text text-anchor="start" x="552.3862" y="-160.8" font-family="Helvetica,sans-Serif" font-size="11.00" fill="#000000"> &#160;</text>
</a>
</g>
</g>
<!-- usuario_turma&#45;&gt;turmas -->
<g id="edge13" class="edge">
<title>usuario_turma:w&#45;&gt;turmas:e</title>
<path fill="none" stroke="#000000" d="M425.7637,-187.2885C412.8632,-197.7952 412.6826,-222.7 390.5,-222.7"/>
<polygon fill="#000000" stroke="#000000" points="431.9121,-185.2347 440.6406,-186.1145 435.7061,-183.9673 439.5,-182.7 439.5,-182.7 439.5,-182.7 435.7061,-183.9673 438.3594,-179.2855 431.9121,-185.2347 431.9121,-185.2347"/>
<ellipse fill="none" stroke="#000000" cx="428.877" cy="-186.2486" rx="3.2" ry="3.2"/>
</g>
<!-- usuario_turma&#45;&gt;usuarios -->
<g id="edge14" class="edge">
<title>usuario_turma:w&#45;&gt;usuarios:e</title>
<path fill="none" stroke="#000000" d="M424.7944,-182.5565C375.7771,-181.5918 357.8251,-176.3381 303,-184.7 284.4411,-187.5306 281.2735,-196.7 262.5,-196.7"/>
<polygon fill="#000000" stroke="#000000" points="431.5004,-182.6219 439.4649,-186.2998 435.5002,-182.6609 439.5,-182.7 439.5,-182.7 439.5,-182.7 435.5002,-182.6609 439.5351,-179.1002 431.5004,-182.6219 431.5004,-182.6219"/>
<ellipse fill="none" stroke="#000000" cx="428.3005" cy="-182.5906" rx="3.2" ry="3.2"/>
</g>
</g>
</svg>
