<?xml version="1.0" encoding="UTF-8" standalone="no"?>
<!DOCTYPE svg PUBLIC "-//W3C//DTD SVG 1.1//EN"
 "http://www.w3.org/Graphics/SVG/1.1/DTD/svg11.dtd">
<!-- Generated by graphviz version 2.40.1 (20161225.0304)
 -->
<!-- Title: twoDegreesRelationshipsDiagram Pages: 1 -->
<svg width="654pt" height="530pt"
 viewBox="0.00 0.00 654.00 530.20" xmlns="http://www.w3.org/2000/svg" xmlns:xlink="http://www.w3.org/1999/xlink">
<g id="graph0" class="graph" transform="scale(1 1) rotate(0) translate(4 526.2)">
<title>twoDegreesRelationshipsDiagram</title>
<polygon fill="#ffffff" stroke="transparent" points="-4,4 -4,-526.2 650,-526.2 650,4 -4,4"/>
<text text-anchor="middle" x="72.4936" y="-7.3" font-family="Helvetica,sans-Serif" font-size="11.00" fill="#000000">Generated by SchemaSpy</text>
<!-- grupos -->
<g id="node1" class="node">
<title>grupos</title>
<g id="a_node1"><a xlink:href="../../tables/grupos.html" xlink:title="grupos" target="_top">
<polygon fill="#ffffff" stroke="transparent" points="349,-38.2 349,-99.2 428,-99.2 428,-38.2 349,-38.2"/>
<polygon fill="#f5f5f5" stroke="transparent" points="349.5,-75.7 349.5,-98.7 428.5,-98.7 428.5,-75.7 349.5,-75.7"/>
<polygon fill="none" stroke="#000000" points="349.5,-75.7 349.5,-98.7 428.5,-98.7 428.5,-75.7 349.5,-75.7"/>
<text text-anchor="start" x="354.5" y="-84.3" font-family="Helvetica,sans-Serif" font-weight="bold" font-size="11.00" fill="#000000">grupos</text>
<text text-anchor="start" x="394.0219" y="-83.8" font-family="Helvetica,sans-Serif" font-size="11.00" fill="#000000">[table]</text>
<polygon fill="none" stroke="#000000" points="349.5,-56.7 349.5,-75.7 428.5,-75.7 428.5,-56.7 349.5,-56.7"/>
<text text-anchor="start" x="352.5" y="-62.8" font-family="Helvetica,sans-Serif" font-size="11.00" fill="#000000">...</text>
<polygon fill="#ffffff" stroke="transparent" points="349.5,-37.7 349.5,-56.7 382.5,-56.7 382.5,-37.7 349.5,-37.7"/>
<polygon fill="none" stroke="#000000" points="349.5,-37.7 349.5,-56.7 382.5,-56.7 382.5,-37.7 349.5,-37.7"/>
<text text-anchor="start" x="352.5" y="-43.8" font-family="Helvetica,sans-Serif" font-size="11.00" fill="#000000">&lt; 2</text>
<polygon fill="#ffffff" stroke="transparent" points="382.5,-37.7 382.5,-56.7 400.5,-56.7 400.5,-37.7 382.5,-37.7"/>
<polygon fill="none" stroke="#000000" points="382.5,-37.7 382.5,-56.7 400.5,-56.7 400.5,-37.7 382.5,-37.7"/>
<text text-anchor="start" x="391.3862" y="-43.8" font-family="Helvetica,sans-Serif" font-size="11.00" fill="#000000"> &#160;</text>
<polygon fill="#ffffff" stroke="transparent" points="400.5,-37.7 400.5,-56.7 428.5,-56.7 428.5,-37.7 400.5,-37.7"/>
<polygon fill="none" stroke="#000000" points="400.5,-37.7 400.5,-56.7 428.5,-56.7 428.5,-37.7 400.5,-37.7"/>
<text text-anchor="start" x="409.9053" y="-43.8" font-family="Helvetica,sans-Serif" font-size="11.00" fill="#000000">2 &gt;</text>
</a>
</g>
</g>
<!-- cursos -->
<g id="node2" class="node">
<title>cursos</title>
<g id="a_node2"><a xlink:href="../../tables/cursos.html" xlink:title="cursos" target="_top">
<polygon fill="#ffffff" stroke="transparent" points="8,-293.2 8,-354.2 86,-354.2 86,-293.2 8,-293.2"/>
<polygon fill="#f5f5f5" stroke="transparent" points="8,-330.7 8,-353.7 86,-353.7 86,-330.7 8,-330.7"/>
<polygon fill="none" stroke="#000000" points="8,-330.7 8,-353.7 86,-353.7 86,-330.7 8,-330.7"/>
<text text-anchor="start" x="13" y="-339.3" font-family="Helvetica,sans-Serif" font-weight="bold" font-size="11.00" fill="#000000">cursos</text>
<text text-anchor="start" x="51.5219" y="-338.8" font-family="Helvetica,sans-Serif" font-size="11.00" fill="#000000">[table]</text>
<polygon fill="none" stroke="#000000" points="8,-311.7 8,-330.7 86,-330.7 86,-311.7 8,-311.7"/>
<text text-anchor="start" x="11" y="-317.8" font-family="Helvetica,sans-Serif" font-size="11.00" fill="#000000">...</text>
<polygon fill="#ffffff" stroke="transparent" points="8,-292.7 8,-311.7 36,-311.7 36,-292.7 8,-292.7"/>
<polygon fill="none" stroke="#000000" points="8,-292.7 8,-311.7 36,-311.7 36,-292.7 8,-292.7"/>
<text text-anchor="start" x="11" y="-298.8" font-family="Helvetica,sans-Serif" font-size="11.00" fill="#000000"> &#160;</text>
<polygon fill="#ffffff" stroke="transparent" points="36,-292.7 36,-311.7 56,-311.7 56,-292.7 36,-292.7"/>
<polygon fill="none" stroke="#000000" points="36,-292.7 36,-311.7 56,-311.7 56,-292.7 36,-292.7"/>
<text text-anchor="start" x="46.8862" y="-298.8" font-family="Helvetica,sans-Serif" font-size="11.00" fill="#000000"> &#160;</text>
<polygon fill="#ffffff" stroke="transparent" points="56,-292.7 56,-311.7 86,-311.7 86,-292.7 56,-292.7"/>
<polygon fill="none" stroke="#000000" points="56,-292.7 56,-311.7 86,-311.7 86,-292.7 56,-292.7"/>
<text text-anchor="start" x="67.4053" y="-298.8" font-family="Helvetica,sans-Serif" font-size="11.00" fill="#000000">3 &gt;</text>
</a>
</g>
</g>
<!-- grupos&#45;&gt;cursos -->
<g id="edge1" class="edge">
<title>grupos:w&#45;&gt;cursos:e</title>
<path fill="none" stroke="#000000" d="M335.0878,-65.8463C235.7336,-67.9434 194.2671,-93.0963 127,-173.7 83.5411,-225.7752 153.8269,-320.7 86,-320.7"/>
<polygon fill="#000000" stroke="#000000" points="341.5004,-65.7812 349.5366,-69.2998 345.5002,-65.7406 349.5,-65.7 349.5,-65.7 349.5,-65.7 345.5002,-65.7406 349.4634,-62.1002 341.5004,-65.7812 341.5004,-65.7812"/>
<ellipse fill="none" stroke="#000000" cx="338.3006" cy="-65.8137" rx="3.2" ry="3.2"/>
</g>
<!-- usuarios -->
<g id="node3" class="node">
<title>usuarios</title>
<g id="a_node3"><a xlink:href="../../tables/usuarios.html" xlink:title="usuarios" target="_top">
<polygon fill="#ffffff" stroke="transparent" points="135,-184.2 135,-377.2 262,-377.2 262,-184.2 135,-184.2"/>
<polygon fill="#f5f5f5" stroke="transparent" points="135.5,-353.7 135.5,-376.7 262.5,-376.7 262.5,-353.7 135.5,-353.7"/>
<polygon fill="none" stroke="#000000" points="135.5,-353.7 135.5,-376.7 262.5,-376.7 262.5,-353.7 135.5,-353.7"/>
<text text-anchor="start" x="140.5" y="-362.3" font-family="Helvetica,sans-Serif" font-weight="bold" font-size="11.00" fill="#000000">usuarios</text>
<text text-anchor="start" x="227.5437" y="-361.8" font-family="Helvetica,sans-Serif" font-size="11.00" fill="#000000">[table]</text>
<polygon fill="none" stroke="#000000" points="135.5,-331.7 135.5,-353.7 262.5,-353.7 262.5,-331.7 135.5,-331.7"/>
<image xlink:href="../../images/primaryKeys.png" width="11px" height="12px" preserveAspectRatio="xMinYMin meet" x="140.5" y="-348.7"/>
<text text-anchor="start" x="155.5" y="-338.8" font-family="Helvetica,sans-Serif" font-size="11.00" fill="#000000">id</text>
<polygon fill="none" stroke="#000000" points="135.5,-309.7 135.5,-331.7 262.5,-331.7 262.5,-309.7 135.5,-309.7"/>
<image xlink:href="../../images/foreignKeys.png" width="11px" height="12px" preserveAspectRatio="xMinYMin meet" x="140.5" y="-326.7"/>
<text text-anchor="start" x="155.5" y="-316.8" font-family="Helvetica,sans-Serif" font-size="11.00" fill="#000000">id_curso</text>
<polygon fill="#ffffff" stroke="transparent" points="135.5,-287.7 135.5,-309.7 262.5,-309.7 262.5,-287.7 135.5,-287.7"/>
<polygon fill="none" stroke="#000000" points="135.5,-287.7 135.5,-309.7 262.5,-309.7 262.5,-287.7 135.5,-287.7"/>
<text text-anchor="start" x="155.5" y="-294.8" font-family="Helvetica,sans-Serif" font-size="11.00" fill="#000000">nome</text>
<polygon fill="#ffffff" stroke="transparent" points="135.5,-265.7 135.5,-287.7 262.5,-287.7 262.5,-265.7 135.5,-265.7"/>
<polygon fill="none" stroke="#000000" points="135.5,-265.7 135.5,-287.7 262.5,-287.7 262.5,-265.7 135.5,-265.7"/>
<text text-anchor="start" x="155.5" y="-272.8" font-family="Helvetica,sans-Serif" font-size="11.00" fill="#000000">email</text>
<polygon fill="#ffffff" stroke="transparent" points="135.5,-243.7 135.5,-265.7 262.5,-265.7 262.5,-243.7 135.5,-243.7"/>
<polygon fill="none" stroke="#000000" points="135.5,-243.7 135.5,-265.7 262.5,-265.7 262.5,-243.7 135.5,-243.7"/>
<text text-anchor="start" x="155.5" y="-250.8" font-family="Helvetica,sans-Serif" font-size="11.00" fill="#000000">matricula</text>
<polygon fill="#ffffff" stroke="transparent" points="135.5,-221.7 135.5,-243.7 262.5,-243.7 262.5,-221.7 135.5,-221.7"/>
<polygon fill="none" stroke="#000000" points="135.5,-221.7 135.5,-243.7 262.5,-243.7 262.5,-221.7 135.5,-221.7"/>
<text text-anchor="start" x="155.5" y="-228.8" font-family="Helvetica,sans-Serif" font-size="11.00" fill="#000000">siape</text>
<polygon fill="none" stroke="#000000" points="135.5,-202.7 135.5,-221.7 262.5,-221.7 262.5,-202.7 135.5,-202.7"/>
<text text-anchor="start" x="138.5" y="-208.8" font-family="Helvetica,sans-Serif" font-size="11.00" fill="#000000">...</text>
<polygon fill="#ffffff" stroke="transparent" points="135.5,-183.7 135.5,-202.7 192.5,-202.7 192.5,-183.7 135.5,-183.7"/>
<polygon fill="none" stroke="#000000" points="135.5,-183.7 135.5,-202.7 192.5,-202.7 192.5,-183.7 135.5,-183.7"/>
<text text-anchor="start" x="138.5" y="-189.8" font-family="Helvetica,sans-Serif" font-size="11.00" fill="#000000">&lt; 1</text>
<polygon fill="#ffffff" stroke="transparent" points="192.5,-183.7 192.5,-202.7 222.5,-202.7 222.5,-183.7 192.5,-183.7"/>
<polygon fill="none" stroke="#000000" points="192.5,-183.7 192.5,-202.7 222.5,-202.7 222.5,-183.7 192.5,-183.7"/>
<text text-anchor="start" x="213.3862" y="-189.8" font-family="Helvetica,sans-Serif" font-size="11.00" fill="#000000"> &#160;</text>
<polygon fill="#ffffff" stroke="transparent" points="222.5,-183.7 222.5,-202.7 262.5,-202.7 262.5,-183.7 222.5,-183.7"/>
<polygon fill="none" stroke="#000000" points="222.5,-183.7 222.5,-202.7 262.5,-202.7 262.5,-183.7 222.5,-183.7"/>
<text text-anchor="start" x="243.9053" y="-189.8" font-family="Helvetica,sans-Serif" font-size="11.00" fill="#000000">6 &gt;</text>
</a>
</g>
</g>
<!-- grupos&#45;&gt;usuarios -->
<g id="edge2" class="edge">
<title>grupos:w&#45;&gt;usuarios:e</title>
<path fill="none" stroke="#000000" d="M334.8465,-68.0421C318.1242,-74.3047 313.8731,-92.4154 303,-113.7 279.4902,-159.7214 314.1786,-342.7 262.5,-342.7"/>
<polygon fill="#000000" stroke="#000000" points="341.6003,-66.9627 350.0682,-69.2549 345.5501,-66.3313 349.5,-65.7 349.5,-65.7 349.5,-65.7 345.5501,-66.3313 348.9318,-62.1451 341.6003,-66.9627 341.6003,-66.9627"/>
<ellipse fill="none" stroke="#000000" cx="338.4404" cy="-67.4677" rx="3.2" ry="3.2"/>
</g>
<!-- usuarios&#45;&gt;cursos -->
<g id="edge11" class="edge">
<title>usuarios:w&#45;&gt;cursos:e</title>
<path fill="none" stroke="#000000" d="M120.8428,-320.7C109.4139,-320.7 102.1563,-320.7 86,-320.7"/>
<polygon fill="#000000" stroke="#000000" points="127.5,-320.7001 135.5,-324.3 131.5,-320.7 135.5,-320.7 135.5,-320.7 135.5,-320.7 131.5,-320.7 135.5,-317.1 127.5,-320.7001 127.5,-320.7001"/>
<ellipse fill="none" stroke="#000000" cx="124.3" cy="-320.7001" rx="3.2" ry="3.2"/>
</g>
<!-- mensagens -->
<g id="node4" class="node">
<title>mensagens</title>
<g id="a_node4"><a xlink:href="../../tables/mensagens.html" xlink:title="mensagens" target="_top">
<polygon fill="#ffffff" stroke="transparent" points="336,-347.2 336,-408.2 441,-408.2 441,-347.2 336,-347.2"/>
<polygon fill="#f5f5f5" stroke="transparent" points="336.5,-384.7 336.5,-407.7 441.5,-407.7 441.5,-384.7 336.5,-384.7"/>
<polygon fill="none" stroke="#000000" points="336.5,-384.7 336.5,-407.7 441.5,-407.7 441.5,-384.7 336.5,-384.7"/>
<text text-anchor="start" x="341.5" y="-393.3" font-family="Helvetica,sans-Serif" font-weight="bold" font-size="11.00" fill="#000000">mensagens</text>
<text text-anchor="start" x="407.0219" y="-392.8" font-family="Helvetica,sans-Serif" font-size="11.00" fill="#000000">[table]</text>
<polygon fill="none" stroke="#000000" points="336.5,-365.7 336.5,-384.7 441.5,-384.7 441.5,-365.7 336.5,-365.7"/>
<text text-anchor="start" x="339.5" y="-371.8" font-family="Helvetica,sans-Serif" font-size="11.00" fill="#000000">...</text>
<polygon fill="#ffffff" stroke="transparent" points="336.5,-346.7 336.5,-365.7 387.5,-365.7 387.5,-346.7 336.5,-346.7"/>
<polygon fill="none" stroke="#000000" points="336.5,-346.7 336.5,-365.7 387.5,-365.7 387.5,-346.7 336.5,-346.7"/>
<text text-anchor="start" x="339.5" y="-352.8" font-family="Helvetica,sans-Serif" font-size="11.00" fill="#000000">&lt; 2</text>
<polygon fill="#ffffff" stroke="transparent" points="387.5,-346.7 387.5,-365.7 414.5,-365.7 414.5,-346.7 387.5,-346.7"/>
<polygon fill="none" stroke="#000000" points="387.5,-346.7 387.5,-365.7 414.5,-365.7 414.5,-346.7 387.5,-346.7"/>
<text text-anchor="start" x="405.3862" y="-352.8" font-family="Helvetica,sans-Serif" font-size="11.00" fill="#000000"> &#160;</text>
<polygon fill="#ffffff" stroke="transparent" points="414.5,-346.7 414.5,-365.7 441.5,-365.7 441.5,-346.7 414.5,-346.7"/>
<polygon fill="none" stroke="#000000" points="414.5,-346.7 414.5,-365.7 441.5,-365.7 441.5,-346.7 414.5,-346.7"/>
<text text-anchor="start" x="432.3862" y="-352.8" font-family="Helvetica,sans-Serif" font-size="11.00" fill="#000000"> &#160;</text>
</a>
</g>
</g>
<!-- mensagens&#45;&gt;usuarios -->
<g id="edge3" class="edge">
<title>mensagens:w&#45;&gt;usuarios:e</title>
<path fill="none" stroke="#000000" d="M322.2189,-372.6983C299.1787,-365.6927 292.8734,-342.7 262.5,-342.7"/>
<polygon fill="#000000" stroke="#000000" points="328.5774,-373.5895 336.0003,-378.2651 332.5387,-374.1447 336.5,-374.7 336.5,-374.7 336.5,-374.7 332.5387,-374.1447 336.9997,-371.1349 328.5774,-373.5895 328.5774,-373.5895"/>
<ellipse fill="none" stroke="#000000" cx="325.4084" cy="-373.1453" rx="3.2" ry="3.2"/>
</g>
<!-- token -->
<g id="node5" class="node">
<title>token</title>
<g id="a_node5"><a xlink:href="../../tables/token.html" xlink:title="token" target="_top">
<polygon fill="#ffffff" stroke="transparent" points="311,-147.7 311,-325.7 466,-325.7 466,-147.7 311,-147.7"/>
<polygon fill="#f5f5f5" stroke="transparent" points="313.5,-300.7 313.5,-323.7 464.5,-323.7 464.5,-300.7 313.5,-300.7"/>
<polygon fill="none" stroke="#000000" points="313.5,-300.7 313.5,-323.7 464.5,-323.7 464.5,-300.7 313.5,-300.7"/>
<text text-anchor="start" x="318.5" y="-309.3" font-family="Helvetica,sans-Serif" font-weight="bold" font-size="11.00" fill="#000000">token</text>
<text text-anchor="start" x="429.5437" y="-308.8" font-family="Helvetica,sans-Serif" font-size="11.00" fill="#000000">[table]</text>
<polygon fill="none" stroke="#000000" points="313.5,-278.7 313.5,-300.7 397.5,-300.7 397.5,-278.7 313.5,-278.7"/>
<text text-anchor="start" x="333.5" y="-285.8" font-family="Helvetica,sans-Serif" font-size="11.00" fill="#000000">expired</text>
<polygon fill="none" stroke="#000000" points="397.5,-278.7 397.5,-300.7 464.5,-300.7 464.5,-278.7 397.5,-278.7"/>
<text text-anchor="start" x="400.5" y="-286.4" font-family="Helvetica,sans-Serif" font-size="11.00" fill="#000000">bool[1]</text>
<polygon fill="none" stroke="#000000" points="313.5,-256.7 313.5,-278.7 397.5,-278.7 397.5,-256.7 313.5,-256.7"/>
<image xlink:href="../../images/primaryKeys.png" width="11px" height="12px" preserveAspectRatio="xMinYMin meet" x="318.5" y="-273.7"/>
<text text-anchor="start" x="333.5" y="-263.8" font-family="Helvetica,sans-Serif" font-size="11.00" fill="#000000">id</text>
<polygon fill="none" stroke="#000000" points="397.5,-256.7 397.5,-278.7 464.5,-278.7 464.5,-256.7 397.5,-256.7"/>
<text text-anchor="start" x="400.5" y="-264.4" font-family="Helvetica,sans-Serif" font-size="11.00" fill="#000000">int4[10]</text>
<polygon fill="none" stroke="#000000" points="313.5,-234.7 313.5,-256.7 397.5,-256.7 397.5,-234.7 313.5,-234.7"/>
<image xlink:href="../../images/foreignKeys.png" width="11px" height="12px" preserveAspectRatio="xMinYMin meet" x="318.5" y="-251.7"/>
<text text-anchor="start" x="333.5" y="-241.8" font-family="Helvetica,sans-Serif" font-size="11.00" fill="#000000">id_usuario</text>
<polygon fill="none" stroke="#000000" points="397.5,-234.7 397.5,-256.7 464.5,-256.7 464.5,-234.7 397.5,-234.7"/>
<text text-anchor="start" x="400.5" y="-242.4" font-family="Helvetica,sans-Serif" font-size="11.00" fill="#000000">int4[10]</text>
<polygon fill="none" stroke="#000000" points="313.5,-212.7 313.5,-234.7 397.5,-234.7 397.5,-212.7 313.5,-212.7"/>
<text text-anchor="start" x="333.5" y="-219.8" font-family="Helvetica,sans-Serif" font-size="11.00" fill="#000000">revoked</text>
<polygon fill="none" stroke="#000000" points="397.5,-212.7 397.5,-234.7 464.5,-234.7 464.5,-212.7 397.5,-212.7"/>
<text text-anchor="start" x="400.5" y="-220.4" font-family="Helvetica,sans-Serif" font-size="11.00" fill="#000000">bool[1]</text>
<polygon fill="#ffffff" stroke="transparent" points="313.5,-190.7 313.5,-212.7 397.5,-212.7 397.5,-190.7 313.5,-190.7"/>
<polygon fill="none" stroke="#000000" points="313.5,-190.7 313.5,-212.7 397.5,-212.7 397.5,-190.7 313.5,-190.7"/>
<text text-anchor="start" x="333.5" y="-197.8" font-family="Helvetica,sans-Serif" font-size="11.00" fill="#000000">token</text>
<polygon fill="none" stroke="#000000" points="397.5,-190.7 397.5,-212.7 464.5,-212.7 464.5,-190.7 397.5,-190.7"/>
<text text-anchor="start" x="400.4365" y="-198.4" font-family="Helvetica,sans-Serif" font-size="11.00" fill="#000000">varchar[255]</text>
<polygon fill="none" stroke="#000000" points="313.5,-168.7 313.5,-190.7 397.5,-190.7 397.5,-168.7 313.5,-168.7"/>
<text text-anchor="start" x="333.5" y="-175.8" font-family="Helvetica,sans-Serif" font-size="11.00" fill="#000000">token_type</text>
<polygon fill="none" stroke="#000000" points="397.5,-168.7 397.5,-190.7 464.5,-190.7 464.5,-168.7 397.5,-168.7"/>
<text text-anchor="start" x="400.4365" y="-176.4" font-family="Helvetica,sans-Serif" font-size="11.00" fill="#000000">varchar[255]</text>
<polygon fill="#ffffff" stroke="transparent" points="313.5,-149.7 313.5,-168.7 359.5,-168.7 359.5,-149.7 313.5,-149.7"/>
<polygon fill="none" stroke="#000000" points="313.5,-149.7 313.5,-168.7 359.5,-168.7 359.5,-149.7 313.5,-149.7"/>
<text text-anchor="start" x="316.5" y="-155.8" font-family="Helvetica,sans-Serif" font-size="11.00" fill="#000000">&lt; 1</text>
<polygon fill="#ffffff" stroke="transparent" points="359.5,-149.7 359.5,-168.7 397.5,-168.7 397.5,-149.7 359.5,-149.7"/>
<polygon fill="none" stroke="#000000" points="359.5,-149.7 359.5,-168.7 397.5,-168.7 397.5,-149.7 359.5,-149.7"/>
<text text-anchor="start" x="388.3862" y="-155.8" font-family="Helvetica,sans-Serif" font-size="11.00" fill="#000000"> &#160;</text>
<polygon fill="#ffffff" stroke="transparent" points="397.5,-149.7 397.5,-168.7 464.5,-168.7 464.5,-149.7 397.5,-149.7"/>
<polygon fill="none" stroke="#000000" points="397.5,-149.7 397.5,-168.7 464.5,-168.7 464.5,-149.7 397.5,-149.7"/>
<text text-anchor="start" x="445.9053" y="-155.8" font-family="Helvetica,sans-Serif" font-size="11.00" fill="#000000">0 &gt;</text>
<polygon fill="none" stroke="#000000" stroke-width="2" points="312,-148.7 312,-324.7 465,-324.7 465,-148.7 312,-148.7"/>
</a>
</g>
</g>
<!-- token&#45;&gt;usuarios -->
<g id="edge4" class="edge">
<title>token:w&#45;&gt;usuarios:e</title>
<path fill="none" stroke="#000000" d="M299.3222,-249.868C274.9104,-268.4344 305.1184,-342.7 262.5,-342.7"/>
<polygon fill="#000000" stroke="#000000" points="305.8248,-247.9564 314.5154,-249.1538 309.6624,-246.8282 313.5,-245.7 313.5,-245.7 313.5,-245.7 309.6624,-246.8282 312.4846,-242.2462 305.8248,-247.9564 305.8248,-247.9564"/>
<ellipse fill="none" stroke="#000000" cx="302.7547" cy="-248.8589" rx="3.2" ry="3.2"/>
</g>
<!-- turmas -->
<g id="node6" class="node">
<title>turmas</title>
<g id="a_node6"><a xlink:href="../../tables/turmas.html" xlink:title="turmas" target="_top">
<polygon fill="#ffffff" stroke="transparent" points="349,-457.2 349,-518.2 428,-518.2 428,-457.2 349,-457.2"/>
<polygon fill="#f5f5f5" stroke="transparent" points="349.5,-494.7 349.5,-517.7 428.5,-517.7 428.5,-494.7 349.5,-494.7"/>
<polygon fill="none" stroke="#000000" points="349.5,-494.7 349.5,-517.7 428.5,-517.7 428.5,-494.7 349.5,-494.7"/>
<text text-anchor="start" x="354.5" y="-503.3" font-family="Helvetica,sans-Serif" font-weight="bold" font-size="11.00" fill="#000000">turmas</text>
<text text-anchor="start" x="394.0219" y="-502.8" font-family="Helvetica,sans-Serif" font-size="11.00" fill="#000000">[table]</text>
<polygon fill="none" stroke="#000000" points="349.5,-475.7 349.5,-494.7 428.5,-494.7 428.5,-475.7 349.5,-475.7"/>
<text text-anchor="start" x="352.5" y="-481.8" font-family="Helvetica,sans-Serif" font-size="11.00" fill="#000000">...</text>
<polygon fill="#ffffff" stroke="transparent" points="349.5,-456.7 349.5,-475.7 382.5,-475.7 382.5,-456.7 349.5,-456.7"/>
<polygon fill="none" stroke="#000000" points="349.5,-456.7 349.5,-475.7 382.5,-475.7 382.5,-456.7 349.5,-456.7"/>
<text text-anchor="start" x="352.5" y="-462.8" font-family="Helvetica,sans-Serif" font-size="11.00" fill="#000000">&lt; 2</text>
<polygon fill="#ffffff" stroke="transparent" points="382.5,-456.7 382.5,-475.7 400.5,-475.7 400.5,-456.7 382.5,-456.7"/>
<polygon fill="none" stroke="#000000" points="382.5,-456.7 382.5,-475.7 400.5,-475.7 400.5,-456.7 382.5,-456.7"/>
<text text-anchor="start" x="391.3862" y="-462.8" font-family="Helvetica,sans-Serif" font-size="11.00" fill="#000000"> &#160;</text>
<polygon fill="#ffffff" stroke="transparent" points="400.5,-456.7 400.5,-475.7 428.5,-475.7 428.5,-456.7 400.5,-456.7"/>
<polygon fill="none" stroke="#000000" points="400.5,-456.7 400.5,-475.7 428.5,-475.7 428.5,-456.7 400.5,-456.7"/>
<text text-anchor="start" x="409.9053" y="-462.8" font-family="Helvetica,sans-Serif" font-size="11.00" fill="#000000">2 &gt;</text>
</a>
</g>
</g>
<!-- turmas&#45;&gt;cursos -->
<g id="edge5" class="edge">
<title>turmas:w&#45;&gt;cursos:e</title>
<path fill="none" stroke="#000000" d="M334.8089,-484.5256C238.3984,-482.1492 204.5464,-455.2181 127,-387.7 100.6706,-364.7755 120.9108,-320.7 86,-320.7"/>
<polygon fill="#000000" stroke="#000000" points="341.5006,-484.605 349.4573,-488.2997 345.5003,-484.6525 349.5,-484.7 349.5,-484.7 349.5,-484.7 345.5003,-484.6525 349.5427,-481.1003 341.5006,-484.605 341.5006,-484.605"/>
<ellipse fill="none" stroke="#000000" cx="338.3008" cy="-484.567" rx="3.2" ry="3.2"/>
</g>
<!-- turmas&#45;&gt;usuarios -->
<g id="edge6" class="edge">
<title>turmas:w&#45;&gt;usuarios:e</title>
<path fill="none" stroke="#000000" d="M334.875,-482.2854C319.9272,-476.4459 315.5975,-460.7049 303,-442.7 275.5105,-403.4109 310.4511,-342.7 262.5,-342.7"/>
<polygon fill="#000000" stroke="#000000" points="341.6068,-483.3968 348.9136,-488.2519 345.5534,-484.0484 349.5,-484.7 349.5,-484.7 349.5,-484.7 345.5534,-484.0484 350.0864,-481.1481 341.6068,-483.3968 341.6068,-483.3968"/>
<ellipse fill="none" stroke="#000000" cx="338.4496" cy="-482.8755" rx="3.2" ry="3.2"/>
</g>
<!-- usuario_grupo -->
<g id="node7" class="node">
<title>usuario_grupo</title>
<g id="a_node7"><a xlink:href="../../tables/usuario_grupo.html" xlink:title="usuario_grupo" target="_top">
<polygon fill="#ffffff" stroke="transparent" points="515,-67.2 515,-128.2 638,-128.2 638,-67.2 515,-67.2"/>
<polygon fill="#f5f5f5" stroke="transparent" points="515.5,-104.7 515.5,-127.7 638.5,-127.7 638.5,-104.7 515.5,-104.7"/>
<polygon fill="none" stroke="#000000" points="515.5,-104.7 515.5,-127.7 638.5,-127.7 638.5,-104.7 515.5,-104.7"/>
<text text-anchor="start" x="520.5" y="-113.3" font-family="Helvetica,sans-Serif" font-weight="bold" font-size="11.00" fill="#000000">usuario_grupo</text>
<text text-anchor="start" x="604.0219" y="-112.8" font-family="Helvetica,sans-Serif" font-size="11.00" fill="#000000">[table]</text>
<polygon fill="none" stroke="#000000" points="515.5,-85.7 515.5,-104.7 638.5,-104.7 638.5,-85.7 515.5,-85.7"/>
<text text-anchor="start" x="518.5" y="-91.8" font-family="Helvetica,sans-Serif" font-size="11.00" fill="#000000">...</text>
<polygon fill="#ffffff" stroke="transparent" points="515.5,-66.7 515.5,-85.7 575.5,-85.7 575.5,-66.7 515.5,-66.7"/>
<polygon fill="none" stroke="#000000" points="515.5,-66.7 515.5,-85.7 575.5,-85.7 575.5,-66.7 515.5,-66.7"/>
<text text-anchor="start" x="518.5" y="-72.8" font-family="Helvetica,sans-Serif" font-size="11.00" fill="#000000">&lt; 2</text>
<polygon fill="#ffffff" stroke="transparent" points="575.5,-66.7 575.5,-85.7 606.5,-85.7 606.5,-66.7 575.5,-66.7"/>
<polygon fill="none" stroke="#000000" points="575.5,-66.7 575.5,-85.7 606.5,-85.7 606.5,-66.7 575.5,-66.7"/>
<text text-anchor="start" x="597.3862" y="-72.8" font-family="Helvetica,sans-Serif" font-size="11.00" fill="#000000"> &#160;</text>
<polygon fill="#ffffff" stroke="transparent" points="606.5,-66.7 606.5,-85.7 638.5,-85.7 638.5,-66.7 606.5,-66.7"/>
<polygon fill="none" stroke="#000000" points="606.5,-66.7 606.5,-85.7 638.5,-85.7 638.5,-66.7 606.5,-66.7"/>
<text text-anchor="start" x="629.3862" y="-72.8" font-family="Helvetica,sans-Serif" font-size="11.00" fill="#000000"> &#160;</text>
</a>
</g>
</g>
<!-- usuario_grupo&#45;&gt;grupos -->
<g id="edge7" class="edge">
<title>usuario_grupo:w&#45;&gt;grupos:e</title>
<path fill="none" stroke="#000000" d="M500.9618,-93.3013C472.663,-87.5084 463.845,-65.7 428.5,-65.7"/>
<polygon fill="#000000" stroke="#000000" points="507.5368,-93.9338 515.1552,-98.2835 511.5184,-94.3169 515.5,-94.7 515.5,-94.7 515.5,-94.7 511.5184,-94.3169 515.8448,-91.1165 507.5368,-93.9338 507.5368,-93.9338"/>
<ellipse fill="none" stroke="#000000" cx="504.3515" cy="-93.6273" rx="3.2" ry="3.2"/>
</g>
<!-- usuario_grupo&#45;&gt;usuarios -->
<g id="edge8" class="edge">
<title>usuario_grupo:w&#45;&gt;usuarios:e</title>
<path fill="none" stroke="#000000" d="M501.0072,-97.1842C492.5009,-100.488 487.0489,-106.3045 474,-109.7 399.4698,-129.0938 358.3401,-84.1431 303,-137.7 236.2631,-202.2865 355.3721,-342.7 262.5,-342.7"/>
<polygon fill="#000000" stroke="#000000" points="507.615,-96.0516 516.1082,-98.2483 511.5575,-95.3758 515.5,-94.7 515.5,-94.7 515.5,-94.7 511.5575,-95.3758 514.8918,-91.1517 507.615,-96.0516 507.615,-96.0516"/>
<ellipse fill="none" stroke="#000000" cx="504.461" cy="-96.5923" rx="3.2" ry="3.2"/>
</g>
<!-- usuario_turma -->
<g id="node8" class="node">
<title>usuario_turma</title>
<g id="a_node8"><a xlink:href="../../tables/usuario_turma.html" xlink:title="usuario_turma" target="_top">
<polygon fill="#ffffff" stroke="transparent" points="515.5,-431.2 515.5,-492.2 637.5,-492.2 637.5,-431.2 515.5,-431.2"/>
<polygon fill="#f5f5f5" stroke="transparent" points="515.5,-468.7 515.5,-491.7 637.5,-491.7 637.5,-468.7 515.5,-468.7"/>
<polygon fill="none" stroke="#000000" points="515.5,-468.7 515.5,-491.7 637.5,-491.7 637.5,-468.7 515.5,-468.7"/>
<text text-anchor="start" x="520.5" y="-477.3" font-family="Helvetica,sans-Serif" font-weight="bold" font-size="11.00" fill="#000000">usuario_turma</text>
<text text-anchor="start" x="603.0219" y="-476.8" font-family="Helvetica,sans-Serif" font-size="11.00" fill="#000000">[table]</text>
<polygon fill="none" stroke="#000000" points="515.5,-449.7 515.5,-468.7 637.5,-468.7 637.5,-449.7 515.5,-449.7"/>
<text text-anchor="start" x="518.5" y="-455.8" font-family="Helvetica,sans-Serif" font-size="11.00" fill="#000000">...</text>
<polygon fill="#ffffff" stroke="transparent" points="515.5,-430.7 515.5,-449.7 574.5,-449.7 574.5,-430.7 515.5,-430.7"/>
<polygon fill="none" stroke="#000000" points="515.5,-430.7 515.5,-449.7 574.5,-449.7 574.5,-430.7 515.5,-430.7"/>
<text text-anchor="start" x="518.5" y="-436.8" font-family="Helvetica,sans-Serif" font-size="11.00" fill="#000000">&lt; 2</text>
<polygon fill="#ffffff" stroke="transparent" points="574.5,-430.7 574.5,-449.7 605.5,-449.7 605.5,-430.7 574.5,-430.7"/>
<polygon fill="none" stroke="#000000" points="574.5,-430.7 574.5,-449.7 605.5,-449.7 605.5,-430.7 574.5,-430.7"/>
<text text-anchor="start" x="596.3862" y="-436.8" font-family="Helvetica,sans-Serif" font-size="11.00" fill="#000000"> &#160;</text>
<polygon fill="#ffffff" stroke="transparent" points="605.5,-430.7 605.5,-449.7 637.5,-449.7 637.5,-430.7 605.5,-430.7"/>
<polygon fill="none" stroke="#000000" points="605.5,-430.7 605.5,-449.7 637.5,-449.7 637.5,-430.7 605.5,-430.7"/>
<text text-anchor="start" x="628.3862" y="-436.8" font-family="Helvetica,sans-Serif" font-size="11.00" fill="#000000"> &#160;</text>
</a>
</g>
</g>
<!-- usuario_turma&#45;&gt;usuarios -->
<g id="edge10" class="edge">
<title>usuario_turma:w&#45;&gt;usuarios:e</title>
<path fill="none" stroke="#000000" d="M501.1393,-456.7679C492.588,-454.1875 486.8764,-449.605 474,-446.7 398.876,-429.7516 365.6005,-463.5558 303,-418.7 271.888,-396.4069 300.7745,-342.7 262.5,-342.7"/>
<polygon fill="#000000" stroke="#000000" points="507.5714,-457.6332 515.0199,-462.2679 511.5357,-458.1666 515.5,-458.7 515.5,-458.7 515.5,-458.7 511.5357,-458.1666 515.9801,-455.1321 507.5714,-457.6332 507.5714,-457.6332"/>
<ellipse fill="none" stroke="#000000" cx="504.4" cy="-457.2065" rx="3.2" ry="3.2"/>
</g>
<!-- usuario_turma&#45;&gt;turmas -->
<g id="edge9" class="edge">
<title>usuario_turma:w&#45;&gt;turmas:e</title>
<path fill="none" stroke="#000000" d="M501.0637,-459.954C472.8726,-465.1476 463.4966,-484.7 428.5,-484.7"/>
<polygon fill="#000000" stroke="#000000" points="507.53,-459.3924 515.8116,-462.2865 511.515,-459.0462 515.5,-458.7 515.5,-458.7 515.5,-458.7 511.515,-459.0462 515.1884,-455.1135 507.53,-459.3924 507.53,-459.3924"/>
<ellipse fill="none" stroke="#000000" cx="504.342" cy="-459.6693" rx="3.2" ry="3.2"/>
</g>
</g>
</svg>
