<?xml version="1.0" encoding="UTF-8" standalone="no"?>
<!DOCTYPE svg PUBLIC "-//W3C//DTD SVG 1.1//EN"
 "http://www.w3.org/Graphics/SVG/1.1/DTD/svg11.dtd">
<!-- Generated by graphviz version 2.40.1 (20161225.0304)
 -->
<!-- Title: twoDegreesRelationshipsDiagram Pages: 1 -->
<svg width="616pt" height="530pt"
 viewBox="0.00 0.00 616.00 530.20" xmlns="http://www.w3.org/2000/svg" xmlns:xlink="http://www.w3.org/1999/xlink">
<g id="graph0" class="graph" transform="scale(1 1) rotate(0) translate(4 526.2)">
<title>twoDegreesRelationshipsDiagram</title>
<polygon fill="#ffffff" stroke="transparent" points="-4,4 -4,-526.2 612,-526.2 612,4 -4,4"/>
<text text-anchor="middle" x="72.4936" y="-7.3" font-family="Helvetica,sans-Serif" font-size="11.00" fill="#000000">Generated by SchemaSpy</text>
<!-- grupos -->
<g id="node1" class="node">
<title>grupos</title>
<g id="a_node1"><a xlink:href="../../tables/grupos.html" xlink:title="grupos" target="_top">
<polygon fill="#ffffff" stroke="transparent" points="311,-38.2 311,-99.2 390,-99.2 390,-38.2 311,-38.2"/>
<polygon fill="#f5f5f5" stroke="transparent" points="311.5,-75.7 311.5,-98.7 390.5,-98.7 390.5,-75.7 311.5,-75.7"/>
<polygon fill="none" stroke="#000000" points="311.5,-75.7 311.5,-98.7 390.5,-98.7 390.5,-75.7 311.5,-75.7"/>
<text text-anchor="start" x="316.5" y="-84.3" font-family="Helvetica,sans-Serif" font-weight="bold" font-size="11.00" fill="#000000">grupos</text>
<text text-anchor="start" x="356.0219" y="-83.8" font-family="Helvetica,sans-Serif" font-size="11.00" fill="#000000">[table]</text>
<polygon fill="none" stroke="#000000" points="311.5,-56.7 311.5,-75.7 390.5,-75.7 390.5,-56.7 311.5,-56.7"/>
<text text-anchor="start" x="314.5" y="-62.8" font-family="Helvetica,sans-Serif" font-size="11.00" fill="#000000">...</text>
<polygon fill="#ffffff" stroke="transparent" points="311.5,-37.7 311.5,-56.7 344.5,-56.7 344.5,-37.7 311.5,-37.7"/>
<polygon fill="none" stroke="#000000" points="311.5,-37.7 311.5,-56.7 344.5,-56.7 344.5,-37.7 311.5,-37.7"/>
<text text-anchor="start" x="314.5" y="-43.8" font-family="Helvetica,sans-Serif" font-size="11.00" fill="#000000">&lt; 2</text>
<polygon fill="#ffffff" stroke="transparent" points="344.5,-37.7 344.5,-56.7 362.5,-56.7 362.5,-37.7 344.5,-37.7"/>
<polygon fill="none" stroke="#000000" points="344.5,-37.7 344.5,-56.7 362.5,-56.7 362.5,-37.7 344.5,-37.7"/>
<text text-anchor="start" x="353.3862" y="-43.8" font-family="Helvetica,sans-Serif" font-size="11.00" fill="#000000"> &#160;</text>
<polygon fill="#ffffff" stroke="transparent" points="362.5,-37.7 362.5,-56.7 390.5,-56.7 390.5,-37.7 362.5,-37.7"/>
<polygon fill="none" stroke="#000000" points="362.5,-37.7 362.5,-56.7 390.5,-56.7 390.5,-37.7 362.5,-37.7"/>
<text text-anchor="start" x="371.9053" y="-43.8" font-family="Helvetica,sans-Serif" font-size="11.00" fill="#000000">2 &gt;</text>
</a>
</g>
</g>
<!-- cursos -->
<g id="node2" class="node">
<title>cursos</title>
<g id="a_node2"><a xlink:href="../../tables/cursos.html" xlink:title="cursos" target="_top">
<polygon fill="#ffffff" stroke="transparent" points="8,-293.2 8,-354.2 86,-354.2 86,-293.2 8,-293.2"/>
<polygon fill="#f5f5f5" stroke="transparent" points="8,-330.7 8,-353.7 86,-353.7 86,-330.7 8,-330.7"/>
<polygon fill="none" stroke="#000000" points="8,-330.7 8,-353.7 86,-353.7 86,-330.7 8,-330.7"/>
<text text-anchor="start" x="13" y="-339.3" font-family="Helvetica,sans-Serif" font-weight="bold" font-size="11.00" fill="#000000">cursos</text>
<text text-anchor="start" x="51.5219" y="-338.8" font-family="Helvetica,sans-Serif" font-size="11.00" fill="#000000">[table]</text>
<polygon fill="none" stroke="#000000" points="8,-311.7 8,-330.7 86,-330.7 86,-311.7 8,-311.7"/>
<text text-anchor="start" x="11" y="-317.8" font-family="Helvetica,sans-Serif" font-size="11.00" fill="#000000">...</text>
<polygon fill="#ffffff" stroke="transparent" points="8,-292.7 8,-311.7 36,-311.7 36,-292.7 8,-292.7"/>
<polygon fill="none" stroke="#000000" points="8,-292.7 8,-311.7 36,-311.7 36,-292.7 8,-292.7"/>
<text text-anchor="start" x="11" y="-298.8" font-family="Helvetica,sans-Serif" font-size="11.00" fill="#000000"> &#160;</text>
<polygon fill="#ffffff" stroke="transparent" points="36,-292.7 36,-311.7 56,-311.7 56,-292.7 36,-292.7"/>
<polygon fill="none" stroke="#000000" points="36,-292.7 36,-311.7 56,-311.7 56,-292.7 36,-292.7"/>
<text text-anchor="start" x="46.8862" y="-298.8" font-family="Helvetica,sans-Serif" font-size="11.00" fill="#000000"> &#160;</text>
<polygon fill="#ffffff" stroke="transparent" points="56,-292.7 56,-311.7 86,-311.7 86,-292.7 56,-292.7"/>
<polygon fill="none" stroke="#000000" points="56,-292.7 56,-311.7 86,-311.7 86,-292.7 56,-292.7"/>
<text text-anchor="start" x="67.4053" y="-298.8" font-family="Helvetica,sans-Serif" font-size="11.00" fill="#000000">3 &gt;</text>
</a>
</g>
</g>
<!-- grupos&#45;&gt;cursos -->
<g id="edge1" class="edge">
<title>grupos:w&#45;&gt;cursos:e</title>
<path fill="none" stroke="#000000" d="M296.985,-65.9746C213.0899,-69.2714 181.9418,-102.4095 127,-173.7 85.5964,-227.4237 153.8269,-320.7 86,-320.7"/>
<polygon fill="#000000" stroke="#000000" points="303.5014,-65.8514 311.5681,-69.2994 307.5007,-65.7757 311.5,-65.7 311.5,-65.7 311.5,-65.7 307.5007,-65.7757 311.4319,-62.1006 303.5014,-65.8514 303.5014,-65.8514"/>
<ellipse fill="none" stroke="#000000" cx="300.302" cy="-65.9119" rx="3.2" ry="3.2"/>
</g>
<!-- usuarios -->
<g id="node3" class="node">
<title>usuarios</title>
<g id="a_node3"><a xlink:href="../../tables/usuarios.html" xlink:title="usuarios" target="_top">
<polygon fill="#ffffff" stroke="transparent" points="135,-184.2 135,-377.2 224,-377.2 224,-184.2 135,-184.2"/>
<polygon fill="#f5f5f5" stroke="transparent" points="135.5,-353.7 135.5,-376.7 224.5,-376.7 224.5,-353.7 135.5,-353.7"/>
<polygon fill="none" stroke="#000000" points="135.5,-353.7 135.5,-376.7 224.5,-376.7 224.5,-353.7 135.5,-353.7"/>
<text text-anchor="start" x="140.5" y="-362.3" font-family="Helvetica,sans-Serif" font-weight="bold" font-size="11.00" fill="#000000">usuarios</text>
<text text-anchor="start" x="190.0219" y="-361.8" font-family="Helvetica,sans-Serif" font-size="11.00" fill="#000000">[table]</text>
<polygon fill="none" stroke="#000000" points="135.5,-331.7 135.5,-353.7 224.5,-353.7 224.5,-331.7 135.5,-331.7"/>
<image xlink:href="../../images/primaryKeys.png" width="11px" height="12px" preserveAspectRatio="xMinYMin meet" x="140.5" y="-348.7"/>
<text text-anchor="start" x="160.5" y="-338.8" font-family="Helvetica,sans-Serif" font-size="11.00" fill="#000000">id</text>
<polygon fill="none" stroke="#000000" points="135.5,-309.7 135.5,-331.7 224.5,-331.7 224.5,-309.7 135.5,-309.7"/>
<image xlink:href="../../images/foreignKeys.png" width="11px" height="12px" preserveAspectRatio="xMinYMin meet" x="140.5" y="-326.7"/>
<text text-anchor="start" x="160.5" y="-316.8" font-family="Helvetica,sans-Serif" font-size="11.00" fill="#000000">id_curso</text>
<polygon fill="#ffffff" stroke="transparent" points="135.5,-287.7 135.5,-309.7 224.5,-309.7 224.5,-287.7 135.5,-287.7"/>
<polygon fill="none" stroke="#000000" points="135.5,-287.7 135.5,-309.7 224.5,-309.7 224.5,-287.7 135.5,-287.7"/>
<text text-anchor="start" x="160.5" y="-294.8" font-family="Helvetica,sans-Serif" font-size="11.00" fill="#000000">nome</text>
<polygon fill="#ffffff" stroke="transparent" points="135.5,-265.7 135.5,-287.7 224.5,-287.7 224.5,-265.7 135.5,-265.7"/>
<polygon fill="none" stroke="#000000" points="135.5,-265.7 135.5,-287.7 224.5,-287.7 224.5,-265.7 135.5,-265.7"/>
<text text-anchor="start" x="160.5" y="-272.8" font-family="Helvetica,sans-Serif" font-size="11.00" fill="#000000">email</text>
<polygon fill="#ffffff" stroke="transparent" points="135.5,-243.7 135.5,-265.7 224.5,-265.7 224.5,-243.7 135.5,-243.7"/>
<polygon fill="none" stroke="#000000" points="135.5,-243.7 135.5,-265.7 224.5,-265.7 224.5,-243.7 135.5,-243.7"/>
<text text-anchor="start" x="160.5" y="-250.8" font-family="Helvetica,sans-Serif" font-size="11.00" fill="#000000">matricula</text>
<polygon fill="#ffffff" stroke="transparent" points="135.5,-221.7 135.5,-243.7 224.5,-243.7 224.5,-221.7 135.5,-221.7"/>
<polygon fill="none" stroke="#000000" points="135.5,-221.7 135.5,-243.7 224.5,-243.7 224.5,-221.7 135.5,-221.7"/>
<text text-anchor="start" x="160.5" y="-228.8" font-family="Helvetica,sans-Serif" font-size="11.00" fill="#000000">siape</text>
<polygon fill="none" stroke="#000000" points="135.5,-202.7 135.5,-221.7 224.5,-221.7 224.5,-202.7 135.5,-202.7"/>
<text text-anchor="start" x="138.5" y="-208.8" font-family="Helvetica,sans-Serif" font-size="11.00" fill="#000000">...</text>
<polygon fill="#ffffff" stroke="transparent" points="135.5,-183.7 135.5,-202.7 173.5,-202.7 173.5,-183.7 135.5,-183.7"/>
<polygon fill="none" stroke="#000000" points="135.5,-183.7 135.5,-202.7 173.5,-202.7 173.5,-183.7 135.5,-183.7"/>
<text text-anchor="start" x="138.5" y="-189.8" font-family="Helvetica,sans-Serif" font-size="11.00" fill="#000000">&lt; 1</text>
<polygon fill="#ffffff" stroke="transparent" points="173.5,-183.7 173.5,-202.7 194.5,-202.7 194.5,-183.7 173.5,-183.7"/>
<polygon fill="none" stroke="#000000" points="173.5,-183.7 173.5,-202.7 194.5,-202.7 194.5,-183.7 173.5,-183.7"/>
<text text-anchor="start" x="185.3862" y="-189.8" font-family="Helvetica,sans-Serif" font-size="11.00" fill="#000000"> &#160;</text>
<polygon fill="#ffffff" stroke="transparent" points="194.5,-183.7 194.5,-202.7 224.5,-202.7 224.5,-183.7 194.5,-183.7"/>
<polygon fill="none" stroke="#000000" points="194.5,-183.7 194.5,-202.7 224.5,-202.7 224.5,-183.7 194.5,-183.7"/>
<text text-anchor="start" x="205.9053" y="-189.8" font-family="Helvetica,sans-Serif" font-size="11.00" fill="#000000">6 &gt;</text>
</a>
</g>
</g>
<!-- grupos&#45;&gt;usuarios -->
<g id="edge2" class="edge">
<title>grupos:w&#45;&gt;usuarios:e</title>
<path fill="none" stroke="#000000" d="M296.8465,-68.0421C280.1242,-74.3047 275.8731,-92.4154 265,-113.7 241.4902,-159.7214 276.1786,-342.7 224.5,-342.7"/>
<polygon fill="#000000" stroke="#000000" points="303.6003,-66.9627 312.0682,-69.2549 307.5501,-66.3313 311.5,-65.7 311.5,-65.7 311.5,-65.7 307.5501,-66.3313 310.9318,-62.1451 303.6003,-66.9627 303.6003,-66.9627"/>
<ellipse fill="none" stroke="#000000" cx="300.4404" cy="-67.4677" rx="3.2" ry="3.2"/>
</g>
<!-- usuarios&#45;&gt;cursos -->
<g id="edge11" class="edge">
<title>usuarios:w&#45;&gt;cursos:e</title>
<path fill="none" stroke="#000000" d="M120.8428,-320.7C109.4139,-320.7 102.1563,-320.7 86,-320.7"/>
<polygon fill="#000000" stroke="#000000" points="127.5,-320.7001 135.5,-324.3 131.5,-320.7 135.5,-320.7 135.5,-320.7 135.5,-320.7 131.5,-320.7 135.5,-317.1 127.5,-320.7001 127.5,-320.7001"/>
<ellipse fill="none" stroke="#000000" cx="124.3" cy="-320.7001" rx="3.2" ry="3.2"/>
</g>
<!-- mensagens -->
<g id="node4" class="node">
<title>mensagens</title>
<g id="a_node4"><a xlink:href="../../tables/mensagens.html" xlink:title="mensagens" target="_top">
<polygon fill="#ffffff" stroke="transparent" points="298,-347.2 298,-408.2 403,-408.2 403,-347.2 298,-347.2"/>
<polygon fill="#f5f5f5" stroke="transparent" points="298.5,-384.7 298.5,-407.7 403.5,-407.7 403.5,-384.7 298.5,-384.7"/>
<polygon fill="none" stroke="#000000" points="298.5,-384.7 298.5,-407.7 403.5,-407.7 403.5,-384.7 298.5,-384.7"/>
<text text-anchor="start" x="303.5" y="-393.3" font-family="Helvetica,sans-Serif" font-weight="bold" font-size="11.00" fill="#000000">mensagens</text>
<text text-anchor="start" x="369.0219" y="-392.8" font-family="Helvetica,sans-Serif" font-size="11.00" fill="#000000">[table]</text>
<polygon fill="none" stroke="#000000" points="298.5,-365.7 298.5,-384.7 403.5,-384.7 403.5,-365.7 298.5,-365.7"/>
<text text-anchor="start" x="301.5" y="-371.8" font-family="Helvetica,sans-Serif" font-size="11.00" fill="#000000">...</text>
<polygon fill="#ffffff" stroke="transparent" points="298.5,-346.7 298.5,-365.7 349.5,-365.7 349.5,-346.7 298.5,-346.7"/>
<polygon fill="none" stroke="#000000" points="298.5,-346.7 298.5,-365.7 349.5,-365.7 349.5,-346.7 298.5,-346.7"/>
<text text-anchor="start" x="301.5" y="-352.8" font-family="Helvetica,sans-Serif" font-size="11.00" fill="#000000">&lt; 2</text>
<polygon fill="#ffffff" stroke="transparent" points="349.5,-346.7 349.5,-365.7 376.5,-365.7 376.5,-346.7 349.5,-346.7"/>
<polygon fill="none" stroke="#000000" points="349.5,-346.7 349.5,-365.7 376.5,-365.7 376.5,-346.7 349.5,-346.7"/>
<text text-anchor="start" x="367.3862" y="-352.8" font-family="Helvetica,sans-Serif" font-size="11.00" fill="#000000"> &#160;</text>
<polygon fill="#ffffff" stroke="transparent" points="376.5,-346.7 376.5,-365.7 403.5,-365.7 403.5,-346.7 376.5,-346.7"/>
<polygon fill="none" stroke="#000000" points="376.5,-346.7 376.5,-365.7 403.5,-365.7 403.5,-346.7 376.5,-346.7"/>
<text text-anchor="start" x="394.3862" y="-352.8" font-family="Helvetica,sans-Serif" font-size="11.00" fill="#000000"> &#160;</text>
</a>
</g>
</g>
<!-- mensagens&#45;&gt;usuarios -->
<g id="edge3" class="edge">
<title>mensagens:w&#45;&gt;usuarios:e</title>
<path fill="none" stroke="#000000" d="M284.2189,-372.6983C261.1787,-365.6927 254.8734,-342.7 224.5,-342.7"/>
<polygon fill="#000000" stroke="#000000" points="290.5774,-373.5895 298.0003,-378.2651 294.5387,-374.1447 298.5,-374.7 298.5,-374.7 298.5,-374.7 294.5387,-374.1447 298.9997,-371.1349 290.5774,-373.5895 290.5774,-373.5895"/>
<ellipse fill="none" stroke="#000000" cx="287.4084" cy="-373.1453" rx="3.2" ry="3.2"/>
</g>
<!-- token -->
<g id="node5" class="node">
<title>token</title>
<g id="a_node5"><a xlink:href="../../tables/token.html" xlink:title="token" target="_top">
<polygon fill="#ffffff" stroke="transparent" points="273,-147.7 273,-325.7 428,-325.7 428,-147.7 273,-147.7"/>
<polygon fill="#f5f5f5" stroke="transparent" points="275.5,-300.7 275.5,-323.7 426.5,-323.7 426.5,-300.7 275.5,-300.7"/>
<polygon fill="none" stroke="#000000" points="275.5,-300.7 275.5,-323.7 426.5,-323.7 426.5,-300.7 275.5,-300.7"/>
<text text-anchor="start" x="280.5" y="-309.3" font-family="Helvetica,sans-Serif" font-weight="bold" font-size="11.00" fill="#000000">token</text>
<text text-anchor="start" x="391.5437" y="-308.8" font-family="Helvetica,sans-Serif" font-size="11.00" fill="#000000">[table]</text>
<polygon fill="none" stroke="#000000" points="275.5,-278.7 275.5,-300.7 359.5,-300.7 359.5,-278.7 275.5,-278.7"/>
<text text-anchor="start" x="295.5" y="-285.8" font-family="Helvetica,sans-Serif" font-size="11.00" fill="#000000">expired</text>
<polygon fill="none" stroke="#000000" points="359.5,-278.7 359.5,-300.7 426.5,-300.7 426.5,-278.7 359.5,-278.7"/>
<text text-anchor="start" x="362.5" y="-286.4" font-family="Helvetica,sans-Serif" font-size="11.00" fill="#000000">bool[1]</text>
<polygon fill="none" stroke="#000000" points="275.5,-256.7 275.5,-278.7 359.5,-278.7 359.5,-256.7 275.5,-256.7"/>
<image xlink:href="../../images/primaryKeys.png" width="11px" height="12px" preserveAspectRatio="xMinYMin meet" x="280.5" y="-273.7"/>
<text text-anchor="start" x="295.5" y="-263.8" font-family="Helvetica,sans-Serif" font-size="11.00" fill="#000000">id</text>
<polygon fill="none" stroke="#000000" points="359.5,-256.7 359.5,-278.7 426.5,-278.7 426.5,-256.7 359.5,-256.7"/>
<text text-anchor="start" x="362.5" y="-264.4" font-family="Helvetica,sans-Serif" font-size="11.00" fill="#000000">int4[10]</text>
<polygon fill="none" stroke="#000000" points="275.5,-234.7 275.5,-256.7 359.5,-256.7 359.5,-234.7 275.5,-234.7"/>
<image xlink:href="../../images/foreignKeys.png" width="11px" height="12px" preserveAspectRatio="xMinYMin meet" x="280.5" y="-251.7"/>
<text text-anchor="start" x="295.5" y="-241.8" font-family="Helvetica,sans-Serif" font-size="11.00" fill="#000000">id_usuario</text>
<polygon fill="none" stroke="#000000" points="359.5,-234.7 359.5,-256.7 426.5,-256.7 426.5,-234.7 359.5,-234.7"/>
<text text-anchor="start" x="362.5" y="-242.4" font-family="Helvetica,sans-Serif" font-size="11.00" fill="#000000">int4[10]</text>
<polygon fill="none" stroke="#000000" points="275.5,-212.7 275.5,-234.7 359.5,-234.7 359.5,-212.7 275.5,-212.7"/>
<text text-anchor="start" x="295.5" y="-219.8" font-family="Helvetica,sans-Serif" font-size="11.00" fill="#000000">revoked</text>
<polygon fill="none" stroke="#000000" points="359.5,-212.7 359.5,-234.7 426.5,-234.7 426.5,-212.7 359.5,-212.7"/>
<text text-anchor="start" x="362.5" y="-220.4" font-family="Helvetica,sans-Serif" font-size="11.00" fill="#000000">bool[1]</text>
<polygon fill="#ffffff" stroke="transparent" points="275.5,-190.7 275.5,-212.7 359.5,-212.7 359.5,-190.7 275.5,-190.7"/>
<polygon fill="none" stroke="#000000" points="275.5,-190.7 275.5,-212.7 359.5,-212.7 359.5,-190.7 275.5,-190.7"/>
<text text-anchor="start" x="295.5" y="-197.8" font-family="Helvetica,sans-Serif" font-size="11.00" fill="#000000">token</text>
<polygon fill="none" stroke="#000000" points="359.5,-190.7 359.5,-212.7 426.5,-212.7 426.5,-190.7 359.5,-190.7"/>
<text text-anchor="start" x="362.4365" y="-198.4" font-family="Helvetica,sans-Serif" font-size="11.00" fill="#000000">varchar[255]</text>
<polygon fill="none" stroke="#000000" points="275.5,-168.7 275.5,-190.7 359.5,-190.7 359.5,-168.7 275.5,-168.7"/>
<text text-anchor="start" x="295.5" y="-175.8" font-family="Helvetica,sans-Serif" font-size="11.00" fill="#000000">token_type</text>
<polygon fill="none" stroke="#000000" points="359.5,-168.7 359.5,-190.7 426.5,-190.7 426.5,-168.7 359.5,-168.7"/>
<text text-anchor="start" x="362.4365" y="-176.4" font-family="Helvetica,sans-Serif" font-size="11.00" fill="#000000">varchar[255]</text>
<polygon fill="#ffffff" stroke="transparent" points="275.5,-149.7 275.5,-168.7 321.5,-168.7 321.5,-149.7 275.5,-149.7"/>
<polygon fill="none" stroke="#000000" points="275.5,-149.7 275.5,-168.7 321.5,-168.7 321.5,-149.7 275.5,-149.7"/>
<text text-anchor="start" x="278.5" y="-155.8" font-family="Helvetica,sans-Serif" font-size="11.00" fill="#000000">&lt; 1</text>
<polygon fill="#ffffff" stroke="transparent" points="321.5,-149.7 321.5,-168.7 359.5,-168.7 359.5,-149.7 321.5,-149.7"/>
<polygon fill="none" stroke="#000000" points="321.5,-149.7 321.5,-168.7 359.5,-168.7 359.5,-149.7 321.5,-149.7"/>
<text text-anchor="start" x="350.3862" y="-155.8" font-family="Helvetica,sans-Serif" font-size="11.00" fill="#000000"> &#160;</text>
<polygon fill="#ffffff" stroke="transparent" points="359.5,-149.7 359.5,-168.7 426.5,-168.7 426.5,-149.7 359.5,-149.7"/>
<polygon fill="none" stroke="#000000" points="359.5,-149.7 359.5,-168.7 426.5,-168.7 426.5,-149.7 359.5,-149.7"/>
<text text-anchor="start" x="407.9053" y="-155.8" font-family="Helvetica,sans-Serif" font-size="11.00" fill="#000000">0 &gt;</text>
<polygon fill="none" stroke="#000000" stroke-width="2" points="274,-148.7 274,-324.7 427,-324.7 427,-148.7 274,-148.7"/>
</a>
</g>
</g>
<!-- token&#45;&gt;usuarios -->
<g id="edge4" class="edge">
<title>token:w&#45;&gt;usuarios:e</title>
<path fill="none" stroke="#000000" d="M261.3222,-249.868C236.9104,-268.4344 267.1184,-342.7 224.5,-342.7"/>
<polygon fill="#000000" stroke="#000000" points="267.8248,-247.9564 276.5154,-249.1538 271.6624,-246.8282 275.5,-245.7 275.5,-245.7 275.5,-245.7 271.6624,-246.8282 274.4846,-242.2462 267.8248,-247.9564 267.8248,-247.9564"/>
<ellipse fill="none" stroke="#000000" cx="264.7547" cy="-248.8589" rx="3.2" ry="3.2"/>
</g>
<!-- turmas -->
<g id="node6" class="node">
<title>turmas</title>
<g id="a_node6"><a xlink:href="../../tables/turmas.html" xlink:title="turmas" target="_top">
<polygon fill="#ffffff" stroke="transparent" points="311,-457.2 311,-518.2 390,-518.2 390,-457.2 311,-457.2"/>
<polygon fill="#f5f5f5" stroke="transparent" points="311.5,-494.7 311.5,-517.7 390.5,-517.7 390.5,-494.7 311.5,-494.7"/>
<polygon fill="none" stroke="#000000" points="311.5,-494.7 311.5,-517.7 390.5,-517.7 390.5,-494.7 311.5,-494.7"/>
<text text-anchor="start" x="316.5" y="-503.3" font-family="Helvetica,sans-Serif" font-weight="bold" font-size="11.00" fill="#000000">turmas</text>
<text text-anchor="start" x="356.0219" y="-502.8" font-family="Helvetica,sans-Serif" font-size="11.00" fill="#000000">[table]</text>
<polygon fill="none" stroke="#000000" points="311.5,-475.7 311.5,-494.7 390.5,-494.7 390.5,-475.7 311.5,-475.7"/>
<text text-anchor="start" x="314.5" y="-481.8" font-family="Helvetica,sans-Serif" font-size="11.00" fill="#000000">...</text>
<polygon fill="#ffffff" stroke="transparent" points="311.5,-456.7 311.5,-475.7 344.5,-475.7 344.5,-456.7 311.5,-456.7"/>
<polygon fill="none" stroke="#000000" points="311.5,-456.7 311.5,-475.7 344.5,-475.7 344.5,-456.7 311.5,-456.7"/>
<text text-anchor="start" x="314.5" y="-462.8" font-family="Helvetica,sans-Serif" font-size="11.00" fill="#000000">&lt; 2</text>
<polygon fill="#ffffff" stroke="transparent" points="344.5,-456.7 344.5,-475.7 362.5,-475.7 362.5,-456.7 344.5,-456.7"/>
<polygon fill="none" stroke="#000000" points="344.5,-456.7 344.5,-475.7 362.5,-475.7 362.5,-456.7 344.5,-456.7"/>
<text text-anchor="start" x="353.3862" y="-462.8" font-family="Helvetica,sans-Serif" font-size="11.00" fill="#000000"> &#160;</text>
<polygon fill="#ffffff" stroke="transparent" points="362.5,-456.7 362.5,-475.7 390.5,-475.7 390.5,-456.7 362.5,-456.7"/>
<polygon fill="none" stroke="#000000" points="362.5,-456.7 362.5,-475.7 390.5,-475.7 390.5,-456.7 362.5,-456.7"/>
<text text-anchor="start" x="371.9053" y="-462.8" font-family="Helvetica,sans-Serif" font-size="11.00" fill="#000000">2 &gt;</text>
</a>
</g>
</g>
<!-- turmas&#45;&gt;cursos -->
<g id="edge5" class="edge">
<title>turmas:w&#45;&gt;cursos:e</title>
<path fill="none" stroke="#000000" d="M296.8962,-484.3987C216.0756,-480.9297 190.9086,-447.5766 127,-387.7 101.5238,-363.8311 120.9108,-320.7 86,-320.7"/>
<polygon fill="#000000" stroke="#000000" points="303.5017,-484.5349 311.4257,-488.2992 307.5009,-484.6175 311.5,-484.7 311.5,-484.7 311.5,-484.7 307.5009,-484.6175 311.5743,-481.1008 303.5017,-484.5349 303.5017,-484.5349"/>
<ellipse fill="none" stroke="#000000" cx="300.3024" cy="-484.4689" rx="3.2" ry="3.2"/>
</g>
<!-- turmas&#45;&gt;usuarios -->
<g id="edge6" class="edge">
<title>turmas:w&#45;&gt;usuarios:e</title>
<path fill="none" stroke="#000000" d="M296.875,-482.2854C281.9272,-476.4459 277.5975,-460.7049 265,-442.7 237.5105,-403.4109 272.4511,-342.7 224.5,-342.7"/>
<polygon fill="#000000" stroke="#000000" points="303.6068,-483.3968 310.9136,-488.2519 307.5534,-484.0484 311.5,-484.7 311.5,-484.7 311.5,-484.7 307.5534,-484.0484 312.0864,-481.1481 303.6068,-483.3968 303.6068,-483.3968"/>
<ellipse fill="none" stroke="#000000" cx="300.4496" cy="-482.8755" rx="3.2" ry="3.2"/>
</g>
<!-- usuario_grupo -->
<g id="node7" class="node">
<title>usuario_grupo</title>
<g id="a_node7"><a xlink:href="../../tables/usuario_grupo.html" xlink:title="usuario_grupo" target="_top">
<polygon fill="#ffffff" stroke="transparent" points="477,-67.2 477,-128.2 600,-128.2 600,-67.2 477,-67.2"/>
<polygon fill="#f5f5f5" stroke="transparent" points="477.5,-104.7 477.5,-127.7 600.5,-127.7 600.5,-104.7 477.5,-104.7"/>
<polygon fill="none" stroke="#000000" points="477.5,-104.7 477.5,-127.7 600.5,-127.7 600.5,-104.7 477.5,-104.7"/>
<text text-anchor="start" x="482.5" y="-113.3" font-family="Helvetica,sans-Serif" font-weight="bold" font-size="11.00" fill="#000000">usuario_grupo</text>
<text text-anchor="start" x="566.0219" y="-112.8" font-family="Helvetica,sans-Serif" font-size="11.00" fill="#000000">[table]</text>
<polygon fill="none" stroke="#000000" points="477.5,-85.7 477.5,-104.7 600.5,-104.7 600.5,-85.7 477.5,-85.7"/>
<text text-anchor="start" x="480.5" y="-91.8" font-family="Helvetica,sans-Serif" font-size="11.00" fill="#000000">...</text>
<polygon fill="#ffffff" stroke="transparent" points="477.5,-66.7 477.5,-85.7 537.5,-85.7 537.5,-66.7 477.5,-66.7"/>
<polygon fill="none" stroke="#000000" points="477.5,-66.7 477.5,-85.7 537.5,-85.7 537.5,-66.7 477.5,-66.7"/>
<text text-anchor="start" x="480.5" y="-72.8" font-family="Helvetica,sans-Serif" font-size="11.00" fill="#000000">&lt; 2</text>
<polygon fill="#ffffff" stroke="transparent" points="537.5,-66.7 537.5,-85.7 568.5,-85.7 568.5,-66.7 537.5,-66.7"/>
<polygon fill="none" stroke="#000000" points="537.5,-66.7 537.5,-85.7 568.5,-85.7 568.5,-66.7 537.5,-66.7"/>
<text text-anchor="start" x="559.3862" y="-72.8" font-family="Helvetica,sans-Serif" font-size="11.00" fill="#000000"> &#160;</text>
<polygon fill="#ffffff" stroke="transparent" points="568.5,-66.7 568.5,-85.7 600.5,-85.7 600.5,-66.7 568.5,-66.7"/>
<polygon fill="none" stroke="#000000" points="568.5,-66.7 568.5,-85.7 600.5,-85.7 600.5,-66.7 568.5,-66.7"/>
<text text-anchor="start" x="591.3862" y="-72.8" font-family="Helvetica,sans-Serif" font-size="11.00" fill="#000000"> &#160;</text>
</a>
</g>
</g>
<!-- usuario_grupo&#45;&gt;grupos -->
<g id="edge7" class="edge">
<title>usuario_grupo:w&#45;&gt;grupos:e</title>
<path fill="none" stroke="#000000" d="M462.9618,-93.3013C434.663,-87.5084 425.845,-65.7 390.5,-65.7"/>
<polygon fill="#000000" stroke="#000000" points="469.5368,-93.9338 477.1552,-98.2835 473.5184,-94.3169 477.5,-94.7 477.5,-94.7 477.5,-94.7 473.5184,-94.3169 477.8448,-91.1165 469.5368,-93.9338 469.5368,-93.9338"/>
<ellipse fill="none" stroke="#000000" cx="466.3515" cy="-93.6273" rx="3.2" ry="3.2"/>
</g>
<!-- usuario_grupo&#45;&gt;usuarios -->
<g id="edge8" class="edge">
<title>usuario_grupo:w&#45;&gt;usuarios:e</title>
<path fill="none" stroke="#000000" d="M463.0072,-97.1842C454.5009,-100.488 449.0489,-106.3045 436,-109.7 361.4698,-129.0938 320.3401,-84.1431 265,-137.7 198.2631,-202.2865 317.3721,-342.7 224.5,-342.7"/>
<polygon fill="#000000" stroke="#000000" points="469.615,-96.0516 478.1082,-98.2483 473.5575,-95.3758 477.5,-94.7 477.5,-94.7 477.5,-94.7 473.5575,-95.3758 476.8918,-91.1517 469.615,-96.0516 469.615,-96.0516"/>
<ellipse fill="none" stroke="#000000" cx="466.461" cy="-96.5923" rx="3.2" ry="3.2"/>
</g>
<!-- usuario_turma -->
<g id="node8" class="node">
<title>usuario_turma</title>
<g id="a_node8"><a xlink:href="../../tables/usuario_turma.html" xlink:title="usuario_turma" target="_top">
<polygon fill="#ffffff" stroke="transparent" points="477.5,-431.2 477.5,-492.2 599.5,-492.2 599.5,-431.2 477.5,-431.2"/>
<polygon fill="#f5f5f5" stroke="transparent" points="477.5,-468.7 477.5,-491.7 599.5,-491.7 599.5,-468.7 477.5,-468.7"/>
<polygon fill="none" stroke="#000000" points="477.5,-468.7 477.5,-491.7 599.5,-491.7 599.5,-468.7 477.5,-468.7"/>
<text text-anchor="start" x="482.5" y="-477.3" font-family="Helvetica,sans-Serif" font-weight="bold" font-size="11.00" fill="#000000">usuario_turma</text>
<text text-anchor="start" x="565.0219" y="-476.8" font-family="Helvetica,sans-Serif" font-size="11.00" fill="#000000">[table]</text>
<polygon fill="none" stroke="#000000" points="477.5,-449.7 477.5,-468.7 599.5,-468.7 599.5,-449.7 477.5,-449.7"/>
<text text-anchor="start" x="480.5" y="-455.8" font-family="Helvetica,sans-Serif" font-size="11.00" fill="#000000">...</text>
<polygon fill="#ffffff" stroke="transparent" points="477.5,-430.7 477.5,-449.7 536.5,-449.7 536.5,-430.7 477.5,-430.7"/>
<polygon fill="none" stroke="#000000" points="477.5,-430.7 477.5,-449.7 536.5,-449.7 536.5,-430.7 477.5,-430.7"/>
<text text-anchor="start" x="480.5" y="-436.8" font-family="Helvetica,sans-Serif" font-size="11.00" fill="#000000">&lt; 2</text>
<polygon fill="#ffffff" stroke="transparent" points="536.5,-430.7 536.5,-449.7 567.5,-449.7 567.5,-430.7 536.5,-430.7"/>
<polygon fill="none" stroke="#000000" points="536.5,-430.7 536.5,-449.7 567.5,-449.7 567.5,-430.7 536.5,-430.7"/>
<text text-anchor="start" x="558.3862" y="-436.8" font-family="Helvetica,sans-Serif" font-size="11.00" fill="#000000"> &#160;</text>
<polygon fill="#ffffff" stroke="transparent" points="567.5,-430.7 567.5,-449.7 599.5,-449.7 599.5,-430.7 567.5,-430.7"/>
<polygon fill="none" stroke="#000000" points="567.5,-430.7 567.5,-449.7 599.5,-449.7 599.5,-430.7 567.5,-430.7"/>
<text text-anchor="start" x="590.3862" y="-436.8" font-family="Helvetica,sans-Serif" font-size="11.00" fill="#000000"> &#160;</text>
</a>
</g>
</g>
<!-- usuario_turma&#45;&gt;usuarios -->
<g id="edge10" class="edge">
<title>usuario_turma:w&#45;&gt;usuarios:e</title>
<path fill="none" stroke="#000000" d="M463.1393,-456.7679C454.588,-454.1875 448.8764,-449.605 436,-446.7 360.876,-429.7516 327.6005,-463.5558 265,-418.7 233.888,-396.4069 262.7745,-342.7 224.5,-342.7"/>
<polygon fill="#000000" stroke="#000000" points="469.5714,-457.6332 477.0199,-462.2679 473.5357,-458.1666 477.5,-458.7 477.5,-458.7 477.5,-458.7 473.5357,-458.1666 477.9801,-455.1321 469.5714,-457.6332 469.5714,-457.6332"/>
<ellipse fill="none" stroke="#000000" cx="466.4" cy="-457.2065" rx="3.2" ry="3.2"/>
</g>
<!-- usuario_turma&#45;&gt;turmas -->
<g id="edge9" class="edge">
<title>usuario_turma:w&#45;&gt;turmas:e</title>
<path fill="none" stroke="#000000" d="M463.0637,-459.954C434.8726,-465.1476 425.4966,-484.7 390.5,-484.7"/>
<polygon fill="#000000" stroke="#000000" points="469.53,-459.3924 477.8116,-462.2865 473.515,-459.0462 477.5,-458.7 477.5,-458.7 477.5,-458.7 473.515,-459.0462 477.1884,-455.1135 469.53,-459.3924 469.53,-459.3924"/>
<ellipse fill="none" stroke="#000000" cx="466.342" cy="-459.6693" rx="3.2" ry="3.2"/>
</g>
</g>
</svg>
