<?xml version="1.0" encoding="UTF-8" standalone="no"?>
<!DOCTYPE svg PUBLIC "-//W3C//DTD SVG 1.1//EN"
 "http://www.w3.org/Graphics/SVG/1.1/DTD/svg11.dtd">
<!-- Generated by graphviz version 2.40.1 (20161225.0304)
 -->
<!-- Title: oneDegreeRelationshipsDiagram Pages: 1 -->
<svg width="317pt" height="289pt"
 viewBox="0.00 0.00 317.00 288.70" xmlns="http://www.w3.org/2000/svg" xmlns:xlink="http://www.w3.org/1999/xlink">
<g id="graph0" class="graph" transform="scale(1 1) rotate(0) translate(4 284.7)">
<title>oneDegreeRelationshipsDiagram</title>
<polygon fill="#ffffff" stroke="transparent" points="-4,4 -4,-284.7 313,-284.7 313,4 -4,4"/>
<text text-anchor="middle" x="72.4936" y="-7.3" font-family="Helvetica,sans-Serif" font-size="11.00" fill="#000000">Generated by SchemaSpy</text>
<!-- token -->
<g id="node1" class="node">
<title>token</title>
<g id="a_node1"><a xlink:href="../../tables/token.html" xlink:title="token" target="_top">
<polygon fill="#ffffff" stroke="transparent" points="146,-98.7 146,-276.7 301,-276.7 301,-98.7 146,-98.7"/>
<polygon fill="#f5f5f5" stroke="transparent" points="148.5,-251.7 148.5,-274.7 299.5,-274.7 299.5,-251.7 148.5,-251.7"/>
<polygon fill="none" stroke="#000000" points="148.5,-251.7 148.5,-274.7 299.5,-274.7 299.5,-251.7 148.5,-251.7"/>
<text text-anchor="start" x="153.5" y="-260.3" font-family="Helvetica,sans-Serif" font-weight="bold" font-size="11.00" fill="#000000">token</text>
<text text-anchor="start" x="264.5437" y="-259.8" font-family="Helvetica,sans-Serif" font-size="11.00" fill="#000000">[table]</text>
<polygon fill="none" stroke="#000000" points="148.5,-229.7 148.5,-251.7 232.5,-251.7 232.5,-229.7 148.5,-229.7"/>
<text text-anchor="start" x="168.5" y="-236.8" font-family="Helvetica,sans-Serif" font-size="11.00" fill="#000000">expired</text>
<polygon fill="none" stroke="#000000" points="232.5,-229.7 232.5,-251.7 299.5,-251.7 299.5,-229.7 232.5,-229.7"/>
<text text-anchor="start" x="235.5" y="-237.4" font-family="Helvetica,sans-Serif" font-size="11.00" fill="#000000">bool[1]</text>
<polygon fill="none" stroke="#000000" points="148.5,-207.7 148.5,-229.7 232.5,-229.7 232.5,-207.7 148.5,-207.7"/>
<image xlink:href="../../images/primaryKeys.png" width="11px" height="12px" preserveAspectRatio="xMinYMin meet" x="153.5" y="-224.7"/>
<text text-anchor="start" x="168.5" y="-214.8" font-family="Helvetica,sans-Serif" font-size="11.00" fill="#000000">id</text>
<polygon fill="none" stroke="#000000" points="232.5,-207.7 232.5,-229.7 299.5,-229.7 299.5,-207.7 232.5,-207.7"/>
<text text-anchor="start" x="235.5" y="-215.4" font-family="Helvetica,sans-Serif" font-size="11.00" fill="#000000">int4[10]</text>
<polygon fill="none" stroke="#000000" points="148.5,-185.7 148.5,-207.7 232.5,-207.7 232.5,-185.7 148.5,-185.7"/>
<image xlink:href="../../images/foreignKeys.png" width="11px" height="12px" preserveAspectRatio="xMinYMin meet" x="153.5" y="-202.7"/>
<text text-anchor="start" x="168.5" y="-192.8" font-family="Helvetica,sans-Serif" font-size="11.00" fill="#000000">id_usuario</text>
<polygon fill="none" stroke="#000000" points="232.5,-185.7 232.5,-207.7 299.5,-207.7 299.5,-185.7 232.5,-185.7"/>
<text text-anchor="start" x="235.5" y="-193.4" font-family="Helvetica,sans-Serif" font-size="11.00" fill="#000000">int4[10]</text>
<polygon fill="none" stroke="#000000" points="148.5,-163.7 148.5,-185.7 232.5,-185.7 232.5,-163.7 148.5,-163.7"/>
<text text-anchor="start" x="168.5" y="-170.8" font-family="Helvetica,sans-Serif" font-size="11.00" fill="#000000">revoked</text>
<polygon fill="none" stroke="#000000" points="232.5,-163.7 232.5,-185.7 299.5,-185.7 299.5,-163.7 232.5,-163.7"/>
<text text-anchor="start" x="235.5" y="-171.4" font-family="Helvetica,sans-Serif" font-size="11.00" fill="#000000">bool[1]</text>
<polygon fill="#ffffff" stroke="transparent" points="148.5,-141.7 148.5,-163.7 232.5,-163.7 232.5,-141.7 148.5,-141.7"/>
<polygon fill="none" stroke="#000000" points="148.5,-141.7 148.5,-163.7 232.5,-163.7 232.5,-141.7 148.5,-141.7"/>
<text text-anchor="start" x="168.5" y="-148.8" font-family="Helvetica,sans-Serif" font-size="11.00" fill="#000000">token</text>
<polygon fill="none" stroke="#000000" points="232.5,-141.7 232.5,-163.7 299.5,-163.7 299.5,-141.7 232.5,-141.7"/>
<text text-anchor="start" x="235.4365" y="-149.4" font-family="Helvetica,sans-Serif" font-size="11.00" fill="#000000">varchar[255]</text>
<polygon fill="none" stroke="#000000" points="148.5,-119.7 148.5,-141.7 232.5,-141.7 232.5,-119.7 148.5,-119.7"/>
<text text-anchor="start" x="168.5" y="-126.8" font-family="Helvetica,sans-Serif" font-size="11.00" fill="#000000">token_type</text>
<polygon fill="none" stroke="#000000" points="232.5,-119.7 232.5,-141.7 299.5,-141.7 299.5,-119.7 232.5,-119.7"/>
<text text-anchor="start" x="235.4365" y="-127.4" font-family="Helvetica,sans-Serif" font-size="11.00" fill="#000000">varchar[255]</text>
<polygon fill="#ffffff" stroke="transparent" points="148.5,-100.7 148.5,-119.7 194.5,-119.7 194.5,-100.7 148.5,-100.7"/>
<polygon fill="none" stroke="#000000" points="148.5,-100.7 148.5,-119.7 194.5,-119.7 194.5,-100.7 148.5,-100.7"/>
<text text-anchor="start" x="151.5" y="-106.8" font-family="Helvetica,sans-Serif" font-size="11.00" fill="#000000">&lt; 1</text>
<polygon fill="#ffffff" stroke="transparent" points="194.5,-100.7 194.5,-119.7 232.5,-119.7 232.5,-100.7 194.5,-100.7"/>
<polygon fill="none" stroke="#000000" points="194.5,-100.7 194.5,-119.7 232.5,-119.7 232.5,-100.7 194.5,-100.7"/>
<text text-anchor="start" x="223.3862" y="-106.8" font-family="Helvetica,sans-Serif" font-size="11.00" fill="#000000"> &#160;</text>
<polygon fill="#ffffff" stroke="transparent" points="232.5,-100.7 232.5,-119.7 299.5,-119.7 299.5,-100.7 232.5,-100.7"/>
<polygon fill="none" stroke="#000000" points="232.5,-100.7 232.5,-119.7 299.5,-119.7 299.5,-100.7 232.5,-100.7"/>
<text text-anchor="start" x="280.9053" y="-106.8" font-family="Helvetica,sans-Serif" font-size="11.00" fill="#000000">0 &gt;</text>
<polygon fill="none" stroke="#000000" stroke-width="2" points="147,-99.7 147,-275.7 300,-275.7 300,-99.7 147,-99.7"/>
</a>
</g>
</g>
<!-- usuarios -->
<g id="node2" class="node">
<title>usuarios</title>
<g id="a_node2"><a xlink:href="../../tables/usuarios.html" xlink:title="usuarios" target="_top">
<polygon fill="#ffffff" stroke="transparent" points="8,-38.2 8,-231.2 97,-231.2 97,-38.2 8,-38.2"/>
<polygon fill="#f5f5f5" stroke="transparent" points="8.5,-207.7 8.5,-230.7 97.5,-230.7 97.5,-207.7 8.5,-207.7"/>
<polygon fill="none" stroke="#000000" points="8.5,-207.7 8.5,-230.7 97.5,-230.7 97.5,-207.7 8.5,-207.7"/>
<text text-anchor="start" x="13.5" y="-216.3" font-family="Helvetica,sans-Serif" font-weight="bold" font-size="11.00" fill="#000000">usuarios</text>
<text text-anchor="start" x="63.0219" y="-215.8" font-family="Helvetica,sans-Serif" font-size="11.00" fill="#000000">[table]</text>
<polygon fill="none" stroke="#000000" points="8.5,-185.7 8.5,-207.7 97.5,-207.7 97.5,-185.7 8.5,-185.7"/>
<image xlink:href="../../images/primaryKeys.png" width="11px" height="12px" preserveAspectRatio="xMinYMin meet" x="13.5" y="-202.7"/>
<text text-anchor="start" x="33.5" y="-192.8" font-family="Helvetica,sans-Serif" font-size="11.00" fill="#000000">id</text>
<polygon fill="none" stroke="#000000" points="8.5,-163.7 8.5,-185.7 97.5,-185.7 97.5,-163.7 8.5,-163.7"/>
<image xlink:href="../../images/foreignKeys.png" width="11px" height="12px" preserveAspectRatio="xMinYMin meet" x="13.5" y="-180.7"/>
<text text-anchor="start" x="33.5" y="-170.8" font-family="Helvetica,sans-Serif" font-size="11.00" fill="#000000">id_curso</text>
<polygon fill="#ffffff" stroke="transparent" points="8.5,-141.7 8.5,-163.7 97.5,-163.7 97.5,-141.7 8.5,-141.7"/>
<polygon fill="none" stroke="#000000" points="8.5,-141.7 8.5,-163.7 97.5,-163.7 97.5,-141.7 8.5,-141.7"/>
<text text-anchor="start" x="33.5" y="-148.8" font-family="Helvetica,sans-Serif" font-size="11.00" fill="#000000">nome</text>
<polygon fill="#ffffff" stroke="transparent" points="8.5,-119.7 8.5,-141.7 97.5,-141.7 97.5,-119.7 8.5,-119.7"/>
<polygon fill="none" stroke="#000000" points="8.5,-119.7 8.5,-141.7 97.5,-141.7 97.5,-119.7 8.5,-119.7"/>
<text text-anchor="start" x="33.5" y="-126.8" font-family="Helvetica,sans-Serif" font-size="11.00" fill="#000000">email</text>
<polygon fill="#ffffff" stroke="transparent" points="8.5,-97.7 8.5,-119.7 97.5,-119.7 97.5,-97.7 8.5,-97.7"/>
<polygon fill="none" stroke="#000000" points="8.5,-97.7 8.5,-119.7 97.5,-119.7 97.5,-97.7 8.5,-97.7"/>
<text text-anchor="start" x="33.5" y="-104.8" font-family="Helvetica,sans-Serif" font-size="11.00" fill="#000000">matricula</text>
<polygon fill="#ffffff" stroke="transparent" points="8.5,-75.7 8.5,-97.7 97.5,-97.7 97.5,-75.7 8.5,-75.7"/>
<polygon fill="none" stroke="#000000" points="8.5,-75.7 8.5,-97.7 97.5,-97.7 97.5,-75.7 8.5,-75.7"/>
<text text-anchor="start" x="33.5" y="-82.8" font-family="Helvetica,sans-Serif" font-size="11.00" fill="#000000">siape</text>
<polygon fill="none" stroke="#000000" points="8.5,-56.7 8.5,-75.7 97.5,-75.7 97.5,-56.7 8.5,-56.7"/>
<text text-anchor="start" x="11.5" y="-62.8" font-family="Helvetica,sans-Serif" font-size="11.00" fill="#000000">...</text>
<polygon fill="#ffffff" stroke="transparent" points="8.5,-37.7 8.5,-56.7 46.5,-56.7 46.5,-37.7 8.5,-37.7"/>
<polygon fill="none" stroke="#000000" points="8.5,-37.7 8.5,-56.7 46.5,-56.7 46.5,-37.7 8.5,-37.7"/>
<text text-anchor="start" x="11.5" y="-43.8" font-family="Helvetica,sans-Serif" font-size="11.00" fill="#000000">&lt; 1</text>
<polygon fill="#ffffff" stroke="transparent" points="46.5,-37.7 46.5,-56.7 67.5,-56.7 67.5,-37.7 46.5,-37.7"/>
<polygon fill="none" stroke="#000000" points="46.5,-37.7 46.5,-56.7 67.5,-56.7 67.5,-37.7 46.5,-37.7"/>
<text text-anchor="start" x="58.3862" y="-43.8" font-family="Helvetica,sans-Serif" font-size="11.00" fill="#000000"> &#160;</text>
<polygon fill="#ffffff" stroke="transparent" points="67.5,-37.7 67.5,-56.7 97.5,-56.7 97.5,-37.7 67.5,-37.7"/>
<polygon fill="none" stroke="#000000" points="67.5,-37.7 67.5,-56.7 97.5,-56.7 97.5,-37.7 67.5,-37.7"/>
<text text-anchor="start" x="78.9053" y="-43.8" font-family="Helvetica,sans-Serif" font-size="11.00" fill="#000000">6 &gt;</text>
</a>
</g>
</g>
<!-- token&#45;&gt;usuarios -->
<g id="edge1" class="edge">
<title>token:w&#45;&gt;usuarios:e</title>
<path fill="none" stroke="#000000" d="M133.776,-196.7C121.7815,-196.7 114.3229,-196.7 97.5,-196.7"/>
<polygon fill="#000000" stroke="#000000" points="140.5,-196.7001 148.5,-200.3 144.5,-196.7 148.5,-196.7 148.5,-196.7 148.5,-196.7 144.5,-196.7 148.5,-193.1 140.5,-196.7001 140.5,-196.7001"/>
<ellipse fill="none" stroke="#000000" cx="137.3" cy="-196.7001" rx="3.2" ry="3.2"/>
</g>
</g>
</svg>
