<?xml version="1.0" encoding="UTF-8" standalone="no"?>
<!DOCTYPE svg PUBLIC "-//W3C//DTD SVG 1.1//EN"
 "http://www.w3.org/Graphics/SVG/1.1/DTD/svg11.dtd">
<!-- Generated by graphviz version 2.40.1 (20161225.0304)
 -->
<!-- Title: oneDegreeRelationshipsDiagram Pages: 1 -->
<svg width="355pt" height="289pt"
 viewBox="0.00 0.00 355.00 288.70" xmlns="http://www.w3.org/2000/svg" xmlns:xlink="http://www.w3.org/1999/xlink">
<g id="graph0" class="graph" transform="scale(1 1) rotate(0) translate(4 284.7)">
<title>oneDegreeRelationshipsDiagram</title>
<polygon fill="#ffffff" stroke="transparent" points="-4,4 -4,-284.7 351,-284.7 351,4 -4,4"/>
<text text-anchor="middle" x="72.4936" y="-7.3" font-family="Helvetica,sans-Serif" font-size="11.00" fill="#000000">Generated by SchemaSpy</text>
<!-- token -->
<g id="node1" class="node">
<title>token</title>
<g id="a_node1"><a xlink:href="../../tables/token.html" xlink:title="token" target="_top">
<polygon fill="#ffffff" stroke="transparent" points="184,-98.7 184,-276.7 339,-276.7 339,-98.7 184,-98.7"/>
<polygon fill="#f5f5f5" stroke="transparent" points="186.5,-251.7 186.5,-274.7 337.5,-274.7 337.5,-251.7 186.5,-251.7"/>
<polygon fill="none" stroke="#000000" points="186.5,-251.7 186.5,-274.7 337.5,-274.7 337.5,-251.7 186.5,-251.7"/>
<text text-anchor="start" x="191.5" y="-260.3" font-family="Helvetica,sans-Serif" font-weight="bold" font-size="11.00" fill="#000000">token</text>
<text text-anchor="start" x="302.5437" y="-259.8" font-family="Helvetica,sans-Serif" font-size="11.00" fill="#000000">[table]</text>
<polygon fill="none" stroke="#000000" points="186.5,-229.7 186.5,-251.7 270.5,-251.7 270.5,-229.7 186.5,-229.7"/>
<text text-anchor="start" x="206.5" y="-236.8" font-family="Helvetica,sans-Serif" font-size="11.00" fill="#000000">expired</text>
<polygon fill="none" stroke="#000000" points="270.5,-229.7 270.5,-251.7 337.5,-251.7 337.5,-229.7 270.5,-229.7"/>
<text text-anchor="start" x="273.5" y="-237.4" font-family="Helvetica,sans-Serif" font-size="11.00" fill="#000000">bool[1]</text>
<polygon fill="none" stroke="#000000" points="186.5,-207.7 186.5,-229.7 270.5,-229.7 270.5,-207.7 186.5,-207.7"/>
<image xlink:href="../../images/primaryKeys.png" width="11px" height="12px" preserveAspectRatio="xMinYMin meet" x="191.5" y="-224.7"/>
<text text-anchor="start" x="206.5" y="-214.8" font-family="Helvetica,sans-Serif" font-size="11.00" fill="#000000">id</text>
<polygon fill="none" stroke="#000000" points="270.5,-207.7 270.5,-229.7 337.5,-229.7 337.5,-207.7 270.5,-207.7"/>
<text text-anchor="start" x="273.5" y="-215.4" font-family="Helvetica,sans-Serif" font-size="11.00" fill="#000000">int4[10]</text>
<polygon fill="none" stroke="#000000" points="186.5,-185.7 186.5,-207.7 270.5,-207.7 270.5,-185.7 186.5,-185.7"/>
<image xlink:href="../../images/foreignKeys.png" width="11px" height="12px" preserveAspectRatio="xMinYMin meet" x="191.5" y="-202.7"/>
<text text-anchor="start" x="206.5" y="-192.8" font-family="Helvetica,sans-Serif" font-size="11.00" fill="#000000">id_usuario</text>
<polygon fill="none" stroke="#000000" points="270.5,-185.7 270.5,-207.7 337.5,-207.7 337.5,-185.7 270.5,-185.7"/>
<text text-anchor="start" x="273.5" y="-193.4" font-family="Helvetica,sans-Serif" font-size="11.00" fill="#000000">int4[10]</text>
<polygon fill="none" stroke="#000000" points="186.5,-163.7 186.5,-185.7 270.5,-185.7 270.5,-163.7 186.5,-163.7"/>
<text text-anchor="start" x="206.5" y="-170.8" font-family="Helvetica,sans-Serif" font-size="11.00" fill="#000000">revoked</text>
<polygon fill="none" stroke="#000000" points="270.5,-163.7 270.5,-185.7 337.5,-185.7 337.5,-163.7 270.5,-163.7"/>
<text text-anchor="start" x="273.5" y="-171.4" font-family="Helvetica,sans-Serif" font-size="11.00" fill="#000000">bool[1]</text>
<polygon fill="#ffffff" stroke="transparent" points="186.5,-141.7 186.5,-163.7 270.5,-163.7 270.5,-141.7 186.5,-141.7"/>
<polygon fill="none" stroke="#000000" points="186.5,-141.7 186.5,-163.7 270.5,-163.7 270.5,-141.7 186.5,-141.7"/>
<text text-anchor="start" x="206.5" y="-148.8" font-family="Helvetica,sans-Serif" font-size="11.00" fill="#000000">token</text>
<polygon fill="none" stroke="#000000" points="270.5,-141.7 270.5,-163.7 337.5,-163.7 337.5,-141.7 270.5,-141.7"/>
<text text-anchor="start" x="273.4365" y="-149.4" font-family="Helvetica,sans-Serif" font-size="11.00" fill="#000000">varchar[255]</text>
<polygon fill="none" stroke="#000000" points="186.5,-119.7 186.5,-141.7 270.5,-141.7 270.5,-119.7 186.5,-119.7"/>
<text text-anchor="start" x="206.5" y="-126.8" font-family="Helvetica,sans-Serif" font-size="11.00" fill="#000000">token_type</text>
<polygon fill="none" stroke="#000000" points="270.5,-119.7 270.5,-141.7 337.5,-141.7 337.5,-119.7 270.5,-119.7"/>
<text text-anchor="start" x="273.4365" y="-127.4" font-family="Helvetica,sans-Serif" font-size="11.00" fill="#000000">varchar[255]</text>
<polygon fill="#ffffff" stroke="transparent" points="186.5,-100.7 186.5,-119.7 232.5,-119.7 232.5,-100.7 186.5,-100.7"/>
<polygon fill="none" stroke="#000000" points="186.5,-100.7 186.5,-119.7 232.5,-119.7 232.5,-100.7 186.5,-100.7"/>
<text text-anchor="start" x="189.5" y="-106.8" font-family="Helvetica,sans-Serif" font-size="11.00" fill="#000000">&lt; 1</text>
<polygon fill="#ffffff" stroke="transparent" points="232.5,-100.7 232.5,-119.7 270.5,-119.7 270.5,-100.7 232.5,-100.7"/>
<polygon fill="none" stroke="#000000" points="232.5,-100.7 232.5,-119.7 270.5,-119.7 270.5,-100.7 232.5,-100.7"/>
<text text-anchor="start" x="261.3862" y="-106.8" font-family="Helvetica,sans-Serif" font-size="11.00" fill="#000000"> &#160;</text>
<polygon fill="#ffffff" stroke="transparent" points="270.5,-100.7 270.5,-119.7 337.5,-119.7 337.5,-100.7 270.5,-100.7"/>
<polygon fill="none" stroke="#000000" points="270.5,-100.7 270.5,-119.7 337.5,-119.7 337.5,-100.7 270.5,-100.7"/>
<text text-anchor="start" x="318.9053" y="-106.8" font-family="Helvetica,sans-Serif" font-size="11.00" fill="#000000">0 &gt;</text>
<polygon fill="none" stroke="#000000" stroke-width="2" points="185,-99.7 185,-275.7 338,-275.7 338,-99.7 185,-99.7"/>
</a>
</g>
</g>
<!-- usuarios -->
<g id="node2" class="node">
<title>usuarios</title>
<g id="a_node2"><a xlink:href="../../tables/usuarios.html" xlink:title="usuarios" target="_top">
<polygon fill="#ffffff" stroke="transparent" points="8,-38.2 8,-231.2 135,-231.2 135,-38.2 8,-38.2"/>
<polygon fill="#f5f5f5" stroke="transparent" points="8.5,-207.7 8.5,-230.7 135.5,-230.7 135.5,-207.7 8.5,-207.7"/>
<polygon fill="none" stroke="#000000" points="8.5,-207.7 8.5,-230.7 135.5,-230.7 135.5,-207.7 8.5,-207.7"/>
<text text-anchor="start" x="13.5" y="-216.3" font-family="Helvetica,sans-Serif" font-weight="bold" font-size="11.00" fill="#000000">usuarios</text>
<text text-anchor="start" x="100.5437" y="-215.8" font-family="Helvetica,sans-Serif" font-size="11.00" fill="#000000">[table]</text>
<polygon fill="none" stroke="#000000" points="8.5,-185.7 8.5,-207.7 135.5,-207.7 135.5,-185.7 8.5,-185.7"/>
<image xlink:href="../../images/primaryKeys.png" width="11px" height="12px" preserveAspectRatio="xMinYMin meet" x="13.5" y="-202.7"/>
<text text-anchor="start" x="28.5" y="-192.8" font-family="Helvetica,sans-Serif" font-size="11.00" fill="#000000">id</text>
<polygon fill="none" stroke="#000000" points="8.5,-163.7 8.5,-185.7 135.5,-185.7 135.5,-163.7 8.5,-163.7"/>
<image xlink:href="../../images/foreignKeys.png" width="11px" height="12px" preserveAspectRatio="xMinYMin meet" x="13.5" y="-180.7"/>
<text text-anchor="start" x="28.5" y="-170.8" font-family="Helvetica,sans-Serif" font-size="11.00" fill="#000000">id_curso</text>
<polygon fill="#ffffff" stroke="transparent" points="8.5,-141.7 8.5,-163.7 135.5,-163.7 135.5,-141.7 8.5,-141.7"/>
<polygon fill="none" stroke="#000000" points="8.5,-141.7 8.5,-163.7 135.5,-163.7 135.5,-141.7 8.5,-141.7"/>
<text text-anchor="start" x="28.5" y="-148.8" font-family="Helvetica,sans-Serif" font-size="11.00" fill="#000000">nome</text>
<polygon fill="#ffffff" stroke="transparent" points="8.5,-119.7 8.5,-141.7 135.5,-141.7 135.5,-119.7 8.5,-119.7"/>
<polygon fill="none" stroke="#000000" points="8.5,-119.7 8.5,-141.7 135.5,-141.7 135.5,-119.7 8.5,-119.7"/>
<text text-anchor="start" x="28.5" y="-126.8" font-family="Helvetica,sans-Serif" font-size="11.00" fill="#000000">email</text>
<polygon fill="#ffffff" stroke="transparent" points="8.5,-97.7 8.5,-119.7 135.5,-119.7 135.5,-97.7 8.5,-97.7"/>
<polygon fill="none" stroke="#000000" points="8.5,-97.7 8.5,-119.7 135.5,-119.7 135.5,-97.7 8.5,-97.7"/>
<text text-anchor="start" x="28.5" y="-104.8" font-family="Helvetica,sans-Serif" font-size="11.00" fill="#000000">matricula</text>
<polygon fill="#ffffff" stroke="transparent" points="8.5,-75.7 8.5,-97.7 135.5,-97.7 135.5,-75.7 8.5,-75.7"/>
<polygon fill="none" stroke="#000000" points="8.5,-75.7 8.5,-97.7 135.5,-97.7 135.5,-75.7 8.5,-75.7"/>
<text text-anchor="start" x="28.5" y="-82.8" font-family="Helvetica,sans-Serif" font-size="11.00" fill="#000000">siape</text>
<polygon fill="none" stroke="#000000" points="8.5,-56.7 8.5,-75.7 135.5,-75.7 135.5,-56.7 8.5,-56.7"/>
<text text-anchor="start" x="11.5" y="-62.8" font-family="Helvetica,sans-Serif" font-size="11.00" fill="#000000">...</text>
<polygon fill="#ffffff" stroke="transparent" points="8.5,-37.7 8.5,-56.7 65.5,-56.7 65.5,-37.7 8.5,-37.7"/>
<polygon fill="none" stroke="#000000" points="8.5,-37.7 8.5,-56.7 65.5,-56.7 65.5,-37.7 8.5,-37.7"/>
<text text-anchor="start" x="11.5" y="-43.8" font-family="Helvetica,sans-Serif" font-size="11.00" fill="#000000">&lt; 1</text>
<polygon fill="#ffffff" stroke="transparent" points="65.5,-37.7 65.5,-56.7 95.5,-56.7 95.5,-37.7 65.5,-37.7"/>
<polygon fill="none" stroke="#000000" points="65.5,-37.7 65.5,-56.7 95.5,-56.7 95.5,-37.7 65.5,-37.7"/>
<text text-anchor="start" x="86.3862" y="-43.8" font-family="Helvetica,sans-Serif" font-size="11.00" fill="#000000"> &#160;</text>
<polygon fill="#ffffff" stroke="transparent" points="95.5,-37.7 95.5,-56.7 135.5,-56.7 135.5,-37.7 95.5,-37.7"/>
<polygon fill="none" stroke="#000000" points="95.5,-37.7 95.5,-56.7 135.5,-56.7 135.5,-37.7 95.5,-37.7"/>
<text text-anchor="start" x="116.9053" y="-43.8" font-family="Helvetica,sans-Serif" font-size="11.00" fill="#000000">6 &gt;</text>
</a>
</g>
</g>
<!-- token&#45;&gt;usuarios -->
<g id="edge1" class="edge">
<title>token:w&#45;&gt;usuarios:e</title>
<path fill="none" stroke="#000000" d="M171.776,-196.7C159.7815,-196.7 152.3229,-196.7 135.5,-196.7"/>
<polygon fill="#000000" stroke="#000000" points="178.5,-196.7001 186.5,-200.3 182.5,-196.7 186.5,-196.7 186.5,-196.7 186.5,-196.7 182.5,-196.7 186.5,-193.1 178.5,-196.7001 178.5,-196.7001"/>
<ellipse fill="none" stroke="#000000" cx="175.3" cy="-196.7001" rx="3.2" ry="3.2"/>
</g>
</g>
</svg>
