<?xml version="1.0" encoding="UTF-8" standalone="no"?>
<!DOCTYPE svg PUBLIC "-//W3C//DTD SVG 1.1//EN"
 "http://www.w3.org/Graphics/SVG/1.1/DTD/svg11.dtd">
<!-- Generated by graphviz version 2.40.1 (20161225.0304)
 -->
<!-- Title: oneDegreeRelationshipsDiagram Pages: 1 -->
<svg width="617pt" height="368pt"
 viewBox="0.00 0.00 617.00 368.20" xmlns="http://www.w3.org/2000/svg" xmlns:xlink="http://www.w3.org/1999/xlink">
<g id="graph0" class="graph" transform="scale(1 1) rotate(0) translate(4 364.2)">
<title>oneDegreeRelationshipsDiagram</title>
<polygon fill="#ffffff" stroke="transparent" points="-4,4 -4,-364.2 613,-364.2 613,4 -4,4"/>
<text text-anchor="middle" x="72.4936" y="-7.3" font-family="Helvetica,sans-Serif" font-size="11.00" fill="#000000">Generated by SchemaSpy</text>
<!-- encontros -->
<g id="node1" class="node">
<title>encontros</title>
<g id="a_node1"><a xlink:href="../../tables/encontros.html" xlink:title="encontros" target="_top">
<polygon fill="#ffffff" stroke="transparent" points="491.5,-229.2 491.5,-356.2 588.5,-356.2 588.5,-229.2 491.5,-229.2"/>
<polygon fill="#f5f5f5" stroke="transparent" points="492,-332.7 492,-355.7 589,-355.7 589,-332.7 492,-332.7"/>
<polygon fill="none" stroke="#000000" points="492,-332.7 492,-355.7 589,-355.7 589,-332.7 492,-332.7"/>
<text text-anchor="start" x="497" y="-341.3" font-family="Helvetica,sans-Serif" font-weight="bold" font-size="11.00" fill="#000000">encontros</text>
<text text-anchor="start" x="554.5219" y="-340.8" font-family="Helvetica,sans-Serif" font-size="11.00" fill="#000000">[table]</text>
<polygon fill="none" stroke="#000000" points="492,-310.7 492,-332.7 589,-332.7 589,-310.7 492,-310.7"/>
<image xlink:href="../../images/primaryKeys.png" width="11px" height="12px" preserveAspectRatio="xMinYMin meet" x="497" y="-327.7"/>
<text text-anchor="start" x="521" y="-317.8" font-family="Helvetica,sans-Serif" font-size="11.00" fill="#000000">id</text>
<polygon fill="none" stroke="#000000" points="492,-288.7 492,-310.7 589,-310.7 589,-288.7 492,-288.7"/>
<image xlink:href="../../images/foreignKeys.png" width="11px" height="12px" preserveAspectRatio="xMinYMin meet" x="497" y="-305.7"/>
<text text-anchor="start" x="521" y="-295.8" font-family="Helvetica,sans-Serif" font-size="11.00" fill="#000000">id_grupo</text>
<polygon fill="none" stroke="#000000" points="492,-266.7 492,-288.7 589,-288.7 589,-266.7 492,-266.7"/>
<image xlink:href="../../images/foreignKeys.png" width="11px" height="12px" preserveAspectRatio="xMinYMin meet" x="497" y="-283.7"/>
<text text-anchor="start" x="521" y="-273.8" font-family="Helvetica,sans-Serif" font-size="11.00" fill="#000000">id_turma</text>
<polygon fill="none" stroke="#000000" points="492,-247.7 492,-266.7 589,-266.7 589,-247.7 492,-247.7"/>
<text text-anchor="start" x="495" y="-253.8" font-family="Helvetica,sans-Serif" font-size="11.00" fill="#000000">...</text>
<polygon fill="#ffffff" stroke="transparent" points="492,-228.7 492,-247.7 534,-247.7 534,-228.7 492,-228.7"/>
<polygon fill="none" stroke="#000000" points="492,-228.7 492,-247.7 534,-247.7 534,-228.7 492,-228.7"/>
<text text-anchor="start" x="495" y="-234.8" font-family="Helvetica,sans-Serif" font-size="11.00" fill="#000000">&lt; 2</text>
<polygon fill="#ffffff" stroke="transparent" points="534,-228.7 534,-247.7 557,-247.7 557,-228.7 534,-228.7"/>
<polygon fill="none" stroke="#000000" points="534,-228.7 534,-247.7 557,-247.7 557,-228.7 534,-228.7"/>
<text text-anchor="start" x="547.8862" y="-234.8" font-family="Helvetica,sans-Serif" font-size="11.00" fill="#000000"> &#160;</text>
<polygon fill="#ffffff" stroke="transparent" points="557,-228.7 557,-247.7 589,-247.7 589,-228.7 557,-228.7"/>
<polygon fill="none" stroke="#000000" points="557,-228.7 557,-247.7 589,-247.7 589,-228.7 557,-228.7"/>
<text text-anchor="start" x="570.4053" y="-234.8" font-family="Helvetica,sans-Serif" font-size="11.00" fill="#000000">2 &gt;</text>
</a>
</g>
</g>
<!-- turmas -->
<g id="node2" class="node">
<title>turmas</title>
<g id="a_node2"><a xlink:href="../../tables/turmas.html" xlink:title="turmas" target="_top">
<polygon fill="#ffffff" stroke="transparent" points="282,-113.7 282,-313.7 430,-313.7 430,-113.7 282,-113.7"/>
<polygon fill="#f5f5f5" stroke="transparent" points="284,-288.7 284,-311.7 428,-311.7 428,-288.7 284,-288.7"/>
<polygon fill="none" stroke="#000000" points="284,-288.7 284,-311.7 428,-311.7 428,-288.7 284,-288.7"/>
<text text-anchor="start" x="289" y="-297.3" font-family="Helvetica,sans-Serif" font-weight="bold" font-size="11.00" fill="#000000">turmas</text>
<text text-anchor="start" x="393.0437" y="-296.8" font-family="Helvetica,sans-Serif" font-size="11.00" fill="#000000">[table]</text>
<polygon fill="none" stroke="#000000" points="284,-266.7 284,-288.7 361,-288.7 361,-266.7 284,-266.7"/>
<image xlink:href="../../images/primaryKeys.png" width="11px" height="12px" preserveAspectRatio="xMinYMin meet" x="289" y="-283.7"/>
<text text-anchor="start" x="304" y="-273.8" font-family="Helvetica,sans-Serif" font-size="11.00" fill="#000000">id</text>
<polygon fill="none" stroke="#000000" points="361,-266.7 361,-288.7 428,-288.7 428,-266.7 361,-266.7"/>
<text text-anchor="start" x="364" y="-274.4" font-family="Helvetica,sans-Serif" font-size="11.00" fill="#000000">serial[10]</text>
<polygon fill="none" stroke="#000000" points="284,-244.7 284,-266.7 361,-266.7 361,-244.7 284,-244.7"/>
<image xlink:href="../../images/foreignKeys.png" width="11px" height="12px" preserveAspectRatio="xMinYMin meet" x="289" y="-261.7"/>
<text text-anchor="start" x="304" y="-251.8" font-family="Helvetica,sans-Serif" font-size="11.00" fill="#000000">id_curso</text>
<polygon fill="none" stroke="#000000" points="361,-244.7 361,-266.7 428,-266.7 428,-244.7 361,-244.7"/>
<text text-anchor="start" x="364" y="-252.4" font-family="Helvetica,sans-Serif" font-size="11.00" fill="#000000">int4[10]</text>
<polygon fill="none" stroke="#000000" points="284,-222.7 284,-244.7 361,-244.7 361,-222.7 284,-222.7"/>
<image xlink:href="../../images/foreignKeys.png" width="11px" height="12px" preserveAspectRatio="xMinYMin meet" x="289" y="-239.7"/>
<text text-anchor="start" x="304" y="-229.8" font-family="Helvetica,sans-Serif" font-size="11.00" fill="#000000">id_user</text>
<polygon fill="none" stroke="#000000" points="361,-222.7 361,-244.7 428,-244.7 428,-222.7 361,-222.7"/>
<text text-anchor="start" x="364" y="-230.4" font-family="Helvetica,sans-Serif" font-size="11.00" fill="#000000">int4[10]</text>
<polygon fill="none" stroke="#000000" points="284,-200.7 284,-222.7 361,-222.7 361,-200.7 284,-200.7"/>
<text text-anchor="start" x="304" y="-207.8" font-family="Helvetica,sans-Serif" font-size="11.00" fill="#000000">turno</text>
<polygon fill="none" stroke="#000000" points="361,-200.7 361,-222.7 428,-222.7 428,-200.7 361,-200.7"/>
<text text-anchor="start" x="364" y="-208.4" font-family="Helvetica,sans-Serif" font-size="11.00" fill="#000000">int2[5]</text>
<polygon fill="none" stroke="#000000" points="284,-178.7 284,-200.7 361,-200.7 361,-178.7 284,-178.7"/>
<text text-anchor="start" x="304" y="-185.8" font-family="Helvetica,sans-Serif" font-size="11.00" fill="#000000">disciplina</text>
<polygon fill="none" stroke="#000000" points="361,-178.7 361,-200.7 428,-200.7 428,-178.7 361,-178.7"/>
<text text-anchor="start" x="363.9365" y="-186.4" font-family="Helvetica,sans-Serif" font-size="11.00" fill="#000000">varchar[100]</text>
<polygon fill="#ffffff" stroke="transparent" points="284,-156.7 284,-178.7 361,-178.7 361,-156.7 284,-156.7"/>
<polygon fill="none" stroke="#000000" points="284,-156.7 284,-178.7 361,-178.7 361,-156.7 284,-156.7"/>
<text text-anchor="start" x="304" y="-163.8" font-family="Helvetica,sans-Serif" font-size="11.00" fill="#000000">nome</text>
<polygon fill="none" stroke="#000000" points="361,-156.7 361,-178.7 428,-178.7 428,-156.7 361,-156.7"/>
<text text-anchor="start" x="363.9365" y="-164.4" font-family="Helvetica,sans-Serif" font-size="11.00" fill="#000000">varchar[100]</text>
<polygon fill="none" stroke="#000000" points="284,-134.7 284,-156.7 361,-156.7 361,-134.7 284,-134.7"/>
<text text-anchor="start" x="304" y="-141.8" font-family="Helvetica,sans-Serif" font-size="11.00" fill="#000000">descricao</text>
<polygon fill="none" stroke="#000000" points="361,-134.7 361,-156.7 428,-156.7 428,-134.7 361,-134.7"/>
<text text-anchor="start" x="363.9365" y="-142.4" font-family="Helvetica,sans-Serif" font-size="11.00" fill="#000000">varchar[255]</text>
<polygon fill="#ffffff" stroke="transparent" points="284,-115.7 284,-134.7 327,-134.7 327,-115.7 284,-115.7"/>
<polygon fill="none" stroke="#000000" points="284,-115.7 284,-134.7 327,-134.7 327,-115.7 284,-115.7"/>
<text text-anchor="start" x="287" y="-121.8" font-family="Helvetica,sans-Serif" font-size="11.00" fill="#000000">&lt; 2</text>
<polygon fill="#ffffff" stroke="transparent" points="327,-115.7 327,-134.7 361,-134.7 361,-115.7 327,-115.7"/>
<polygon fill="none" stroke="#000000" points="327,-115.7 327,-134.7 361,-134.7 361,-115.7 327,-115.7"/>
<text text-anchor="start" x="351.8862" y="-121.8" font-family="Helvetica,sans-Serif" font-size="11.00" fill="#000000"> &#160;</text>
<polygon fill="#ffffff" stroke="transparent" points="361,-115.7 361,-134.7 428,-134.7 428,-115.7 361,-115.7"/>
<polygon fill="none" stroke="#000000" points="361,-115.7 361,-134.7 428,-134.7 428,-115.7 361,-115.7"/>
<text text-anchor="start" x="409.4053" y="-121.8" font-family="Helvetica,sans-Serif" font-size="11.00" fill="#000000">2 &gt;</text>
<polygon fill="none" stroke="#000000" stroke-width="2" points="283,-114.7 283,-312.7 429,-312.7 429,-114.7 283,-114.7"/>
</a>
</g>
</g>
<!-- encontros&#45;&gt;turmas -->
<g id="edge1" class="edge">
<title>encontros:w&#45;&gt;turmas:e</title>
<path fill="none" stroke="#000000" d="M477.4568,-277.7C459.964,-277.7 450.8889,-277.7 428,-277.7"/>
<polygon fill="#000000" stroke="#000000" points="484,-277.7001 492,-281.3 488,-277.7 492,-277.7 492,-277.7 492,-277.7 488,-277.7 492,-274.1 484,-277.7001 484,-277.7001"/>
<ellipse fill="none" stroke="#000000" cx="480.8" cy="-277.7001" rx="3.2" ry="3.2"/>
</g>
<!-- cursos -->
<g id="node3" class="node">
<title>cursos</title>
<g id="a_node3"><a xlink:href="../../tables/cursos.html" xlink:title="cursos" target="_top">
<polygon fill="#ffffff" stroke="transparent" points="8,-166.2 8,-249.2 95,-249.2 95,-166.2 8,-166.2"/>
<polygon fill="#f5f5f5" stroke="transparent" points="8.5,-225.7 8.5,-248.7 95.5,-248.7 95.5,-225.7 8.5,-225.7"/>
<polygon fill="none" stroke="#000000" points="8.5,-225.7 8.5,-248.7 95.5,-248.7 95.5,-225.7 8.5,-225.7"/>
<text text-anchor="start" x="13.5" y="-234.3" font-family="Helvetica,sans-Serif" font-weight="bold" font-size="11.00" fill="#000000">cursos</text>
<text text-anchor="start" x="60.5437" y="-233.8" font-family="Helvetica,sans-Serif" font-size="11.00" fill="#000000">[table]</text>
<polygon fill="none" stroke="#000000" points="8.5,-203.7 8.5,-225.7 95.5,-225.7 95.5,-203.7 8.5,-203.7"/>
<image xlink:href="../../images/primaryKeys.png" width="11px" height="12px" preserveAspectRatio="xMinYMin meet" x="13.5" y="-220.7"/>
<text text-anchor="start" x="28.5" y="-210.8" font-family="Helvetica,sans-Serif" font-size="11.00" fill="#000000">id</text>
<polygon fill="none" stroke="#000000" points="8.5,-184.7 8.5,-203.7 95.5,-203.7 95.5,-184.7 8.5,-184.7"/>
<text text-anchor="start" x="11.5" y="-190.8" font-family="Helvetica,sans-Serif" font-size="11.00" fill="#000000">...</text>
<polygon fill="#ffffff" stroke="transparent" points="8.5,-165.7 8.5,-184.7 41.5,-184.7 41.5,-165.7 8.5,-165.7"/>
<polygon fill="none" stroke="#000000" points="8.5,-165.7 8.5,-184.7 41.5,-184.7 41.5,-165.7 8.5,-165.7"/>
<text text-anchor="start" x="11.5" y="-171.8" font-family="Helvetica,sans-Serif" font-size="11.00" fill="#000000"> &#160;</text>
<polygon fill="#ffffff" stroke="transparent" points="41.5,-165.7 41.5,-184.7 63.5,-184.7 63.5,-165.7 41.5,-165.7"/>
<polygon fill="none" stroke="#000000" points="41.5,-165.7 41.5,-184.7 63.5,-184.7 63.5,-165.7 41.5,-165.7"/>
<text text-anchor="start" x="54.3862" y="-171.8" font-family="Helvetica,sans-Serif" font-size="11.00" fill="#000000"> &#160;</text>
<polygon fill="#ffffff" stroke="transparent" points="63.5,-165.7 63.5,-184.7 95.5,-184.7 95.5,-165.7 63.5,-165.7"/>
<polygon fill="none" stroke="#000000" points="63.5,-165.7 63.5,-184.7 95.5,-184.7 95.5,-165.7 63.5,-165.7"/>
<text text-anchor="start" x="76.9053" y="-171.8" font-family="Helvetica,sans-Serif" font-size="11.00" fill="#000000">3 &gt;</text>
</a>
</g>
</g>
<!-- turmas&#45;&gt;cursos -->
<g id="edge2" class="edge">
<title>turmas:w&#45;&gt;cursos:e</title>
<path fill="none" stroke="#000000" d="M269.3218,-255.8302C214.5959,-256.7822 193.3992,-262.0791 136,-241.7 115.6135,-234.462 117.1333,-214.7 95.5,-214.7"/>
<polygon fill="#000000" stroke="#000000" points="276.0003,-255.771 284.0319,-259.2999 280.0002,-255.7355 284,-255.7 284,-255.7 284,-255.7 280.0002,-255.7355 283.9681,-252.1001 276.0003,-255.771 276.0003,-255.771"/>
<ellipse fill="none" stroke="#000000" cx="272.8004" cy="-255.7994" rx="3.2" ry="3.2"/>
</g>
<!-- usuarios -->
<g id="node4" class="node">
<title>usuarios</title>
<g id="a_node4"><a xlink:href="../../tables/usuarios.html" xlink:title="usuarios" target="_top">
<polygon fill="#ffffff" stroke="transparent" points="144,-38.2 144,-231.2 233,-231.2 233,-38.2 144,-38.2"/>
<polygon fill="#f5f5f5" stroke="transparent" points="144.5,-207.7 144.5,-230.7 233.5,-230.7 233.5,-207.7 144.5,-207.7"/>
<polygon fill="none" stroke="#000000" points="144.5,-207.7 144.5,-230.7 233.5,-230.7 233.5,-207.7 144.5,-207.7"/>
<text text-anchor="start" x="149.5" y="-216.3" font-family="Helvetica,sans-Serif" font-weight="bold" font-size="11.00" fill="#000000">usuarios</text>
<text text-anchor="start" x="199.0219" y="-215.8" font-family="Helvetica,sans-Serif" font-size="11.00" fill="#000000">[table]</text>
<polygon fill="none" stroke="#000000" points="144.5,-185.7 144.5,-207.7 233.5,-207.7 233.5,-185.7 144.5,-185.7"/>
<image xlink:href="../../images/primaryKeys.png" width="11px" height="12px" preserveAspectRatio="xMinYMin meet" x="149.5" y="-202.7"/>
<text text-anchor="start" x="169.5" y="-192.8" font-family="Helvetica,sans-Serif" font-size="11.00" fill="#000000">id</text>
<polygon fill="none" stroke="#000000" points="144.5,-163.7 144.5,-185.7 233.5,-185.7 233.5,-163.7 144.5,-163.7"/>
<image xlink:href="../../images/foreignKeys.png" width="11px" height="12px" preserveAspectRatio="xMinYMin meet" x="149.5" y="-180.7"/>
<text text-anchor="start" x="169.5" y="-170.8" font-family="Helvetica,sans-Serif" font-size="11.00" fill="#000000">id_curso</text>
<polygon fill="#ffffff" stroke="transparent" points="144.5,-141.7 144.5,-163.7 233.5,-163.7 233.5,-141.7 144.5,-141.7"/>
<polygon fill="none" stroke="#000000" points="144.5,-141.7 144.5,-163.7 233.5,-163.7 233.5,-141.7 144.5,-141.7"/>
<text text-anchor="start" x="169.5" y="-148.8" font-family="Helvetica,sans-Serif" font-size="11.00" fill="#000000">nome</text>
<polygon fill="#ffffff" stroke="transparent" points="144.5,-119.7 144.5,-141.7 233.5,-141.7 233.5,-119.7 144.5,-119.7"/>
<polygon fill="none" stroke="#000000" points="144.5,-119.7 144.5,-141.7 233.5,-141.7 233.5,-119.7 144.5,-119.7"/>
<text text-anchor="start" x="169.5" y="-126.8" font-family="Helvetica,sans-Serif" font-size="11.00" fill="#000000">email</text>
<polygon fill="#ffffff" stroke="transparent" points="144.5,-97.7 144.5,-119.7 233.5,-119.7 233.5,-97.7 144.5,-97.7"/>
<polygon fill="none" stroke="#000000" points="144.5,-97.7 144.5,-119.7 233.5,-119.7 233.5,-97.7 144.5,-97.7"/>
<text text-anchor="start" x="169.5" y="-104.8" font-family="Helvetica,sans-Serif" font-size="11.00" fill="#000000">matricula</text>
<polygon fill="#ffffff" stroke="transparent" points="144.5,-75.7 144.5,-97.7 233.5,-97.7 233.5,-75.7 144.5,-75.7"/>
<polygon fill="none" stroke="#000000" points="144.5,-75.7 144.5,-97.7 233.5,-97.7 233.5,-75.7 144.5,-75.7"/>
<text text-anchor="start" x="169.5" y="-82.8" font-family="Helvetica,sans-Serif" font-size="11.00" fill="#000000">siape</text>
<polygon fill="none" stroke="#000000" points="144.5,-56.7 144.5,-75.7 233.5,-75.7 233.5,-56.7 144.5,-56.7"/>
<text text-anchor="start" x="147.5" y="-62.8" font-family="Helvetica,sans-Serif" font-size="11.00" fill="#000000">...</text>
<polygon fill="#ffffff" stroke="transparent" points="144.5,-37.7 144.5,-56.7 182.5,-56.7 182.5,-37.7 144.5,-37.7"/>
<polygon fill="none" stroke="#000000" points="144.5,-37.7 144.5,-56.7 182.5,-56.7 182.5,-37.7 144.5,-37.7"/>
<text text-anchor="start" x="147.5" y="-43.8" font-family="Helvetica,sans-Serif" font-size="11.00" fill="#000000">&lt; 1</text>
<polygon fill="#ffffff" stroke="transparent" points="182.5,-37.7 182.5,-56.7 203.5,-56.7 203.5,-37.7 182.5,-37.7"/>
<polygon fill="none" stroke="#000000" points="182.5,-37.7 182.5,-56.7 203.5,-56.7 203.5,-37.7 182.5,-37.7"/>
<text text-anchor="start" x="194.3862" y="-43.8" font-family="Helvetica,sans-Serif" font-size="11.00" fill="#000000"> &#160;</text>
<polygon fill="#ffffff" stroke="transparent" points="203.5,-37.7 203.5,-56.7 233.5,-56.7 233.5,-37.7 203.5,-37.7"/>
<polygon fill="none" stroke="#000000" points="203.5,-37.7 203.5,-56.7 233.5,-56.7 233.5,-37.7 203.5,-37.7"/>
<text text-anchor="start" x="214.9053" y="-43.8" font-family="Helvetica,sans-Serif" font-size="11.00" fill="#000000">6 &gt;</text>
</a>
</g>
</g>
<!-- turmas&#45;&gt;usuarios -->
<g id="edge3" class="edge">
<title>turmas:w&#45;&gt;usuarios:e</title>
<path fill="none" stroke="#000000" d="M270.1749,-229.4556C256.8807,-219.7369 255.4548,-196.7 233.5,-196.7"/>
<polygon fill="#000000" stroke="#000000" points="276.3523,-231.3521 282.9434,-237.1415 280.1761,-232.526 284,-233.7 284,-233.7 284,-233.7 280.1761,-232.526 285.0566,-230.2585 276.3523,-231.3521 276.3523,-231.3521"/>
<ellipse fill="none" stroke="#000000" cx="273.2932" cy="-230.4129" rx="3.2" ry="3.2"/>
</g>
<!-- usuarios&#45;&gt;cursos -->
<g id="edge6" class="edge">
<title>usuarios:w&#45;&gt;cursos:e</title>
<path fill="none" stroke="#000000" d="M130.7637,-179.2885C117.8632,-189.7952 117.6826,-214.7 95.5,-214.7"/>
<polygon fill="#000000" stroke="#000000" points="136.9121,-177.2347 145.6406,-178.1145 140.7061,-175.9673 144.5,-174.7 144.5,-174.7 144.5,-174.7 140.7061,-175.9673 143.3594,-171.2855 136.9121,-177.2347 136.9121,-177.2347"/>
<ellipse fill="none" stroke="#000000" cx="133.877" cy="-178.2486" rx="3.2" ry="3.2"/>
</g>
<!-- usuario_turma -->
<g id="node5" class="node">
<title>usuario_turma</title>
<g id="a_node5"><a xlink:href="../../tables/usuario_turma.html" xlink:title="usuario_turma" target="_top">
<polygon fill="#ffffff" stroke="transparent" points="479,-90.7 479,-176.7 601,-176.7 601,-90.7 479,-90.7"/>
<polygon fill="#f5f5f5" stroke="transparent" points="479,-153.7 479,-176.7 601,-176.7 601,-153.7 479,-153.7"/>
<polygon fill="none" stroke="#000000" points="479,-153.7 479,-176.7 601,-176.7 601,-153.7 479,-153.7"/>
<text text-anchor="start" x="484" y="-162.3" font-family="Helvetica,sans-Serif" font-weight="bold" font-size="11.00" fill="#000000">usuario_turma</text>
<text text-anchor="start" x="566.5219" y="-161.8" font-family="Helvetica,sans-Serif" font-size="11.00" fill="#000000">[table]</text>
<polygon fill="none" stroke="#000000" points="479,-131.7 479,-153.7 601,-153.7 601,-131.7 479,-131.7"/>
<image xlink:href="../../images/foreignKeys.png" width="11px" height="12px" preserveAspectRatio="xMinYMin meet" x="484" y="-148.7"/>
<text text-anchor="start" x="508" y="-138.8" font-family="Helvetica,sans-Serif" font-size="11.00" fill="#000000">id_turma</text>
<polygon fill="none" stroke="#000000" points="479,-109.7 479,-131.7 601,-131.7 601,-109.7 479,-109.7"/>
<image xlink:href="../../images/foreignKeys.png" width="11px" height="12px" preserveAspectRatio="xMinYMin meet" x="484" y="-126.7"/>
<text text-anchor="start" x="508" y="-116.8" font-family="Helvetica,sans-Serif" font-size="11.00" fill="#000000">id_usuario</text>
<polygon fill="#ffffff" stroke="transparent" points="479,-90.7 479,-109.7 538,-109.7 538,-90.7 479,-90.7"/>
<polygon fill="none" stroke="#000000" points="479,-90.7 479,-109.7 538,-109.7 538,-90.7 479,-90.7"/>
<text text-anchor="start" x="482" y="-96.8" font-family="Helvetica,sans-Serif" font-size="11.00" fill="#000000">&lt; 2</text>
<polygon fill="#ffffff" stroke="transparent" points="538,-90.7 538,-109.7 569,-109.7 569,-90.7 538,-90.7"/>
<polygon fill="none" stroke="#000000" points="538,-90.7 538,-109.7 569,-109.7 569,-90.7 538,-90.7"/>
<text text-anchor="start" x="559.8862" y="-96.8" font-family="Helvetica,sans-Serif" font-size="11.00" fill="#000000"> &#160;</text>
<polygon fill="#ffffff" stroke="transparent" points="569,-90.7 569,-109.7 601,-109.7 601,-90.7 569,-90.7"/>
<polygon fill="none" stroke="#000000" points="569,-90.7 569,-109.7 601,-109.7 601,-90.7 569,-90.7"/>
<text text-anchor="start" x="591.8862" y="-96.8" font-family="Helvetica,sans-Serif" font-size="11.00" fill="#000000"> &#160;</text>
</a>
</g>
</g>
<!-- usuario_turma&#45;&gt;turmas -->
<g id="edge4" class="edge">
<title>usuario_turma:w&#45;&gt;turmas:e</title>
<path fill="none" stroke="#000000" d="M464.4567,-146.0371C428.1079,-166.826 486.1257,-277.7 428,-277.7"/>
<polygon fill="#000000" stroke="#000000" points="471.2026,-144.4892 479.8051,-146.2088 475.1013,-143.5946 479,-142.7 479,-142.7 479,-142.7 475.1013,-143.5946 478.1949,-139.1912 471.2026,-144.4892 471.2026,-144.4892"/>
<ellipse fill="none" stroke="#000000" cx="468.0837" cy="-145.2049" rx="3.2" ry="3.2"/>
</g>
<!-- usuario_turma&#45;&gt;usuarios -->
<g id="edge5" class="edge">
<title>usuario_turma:w&#45;&gt;usuarios:e</title>
<path fill="none" stroke="#000000" d="M464.6464,-117.533C456.3681,-113.3903 451.3009,-106.3482 438,-103.7 366.5142,-89.4673 334.9672,-63.7527 274,-103.7 236.291,-128.4079 278.5826,-196.7 233.5,-196.7"/>
<polygon fill="#000000" stroke="#000000" points="471.1879,-118.9763 478.2243,-124.2154 475.0939,-119.8381 479,-120.7 479,-120.7 479,-120.7 475.0939,-119.8381 479.7757,-117.1846 471.1879,-118.9763 471.1879,-118.9763"/>
<ellipse fill="none" stroke="#000000" cx="468.0631" cy="-118.2868" rx="3.2" ry="3.2"/>
</g>
</g>
</svg>
