<?xml version="1.0" encoding="UTF-8" standalone="no"?>
<!DOCTYPE svg PUBLIC "-//W3C//DTD SVG 1.1//EN"
 "http://www.w3.org/Graphics/SVG/1.1/DTD/svg11.dtd">
<!-- Generated by graphviz version 2.40.1 (20161225.0304)
 -->
<!-- Title: twoDegreesRelationshipsDiagram Pages: 1 -->
<svg width="781pt" height="496pt"
 viewBox="0.00 0.00 781.00 496.20" xmlns="http://www.w3.org/2000/svg" xmlns:xlink="http://www.w3.org/1999/xlink">
<g id="graph0" class="graph" transform="scale(1 1) rotate(0) translate(4 492.2)">
<title>twoDegreesRelationshipsDiagram</title>
<polygon fill="#ffffff" stroke="transparent" points="-4,4 -4,-492.2 777,-492.2 777,4 -4,4"/>
<text text-anchor="middle" x="72.4936" y="-7.3" font-family="Helvetica,sans-Serif" font-size="11.00" fill="#000000">Generated by SchemaSpy</text>
<!-- agendamentos -->
<g id="node1" class="node">
<title>agendamentos</title>
<g id="a_node1"><a xlink:href="../../tables/agendamentos.html" xlink:title="agendamentos" target="_top">
<polygon fill="#ffffff" stroke="transparent" points="642,-340.2 642,-401.2 765,-401.2 765,-340.2 642,-340.2"/>
<polygon fill="#f5f5f5" stroke="transparent" points="642.5,-377.7 642.5,-400.7 765.5,-400.7 765.5,-377.7 642.5,-377.7"/>
<polygon fill="none" stroke="#000000" points="642.5,-377.7 642.5,-400.7 765.5,-400.7 765.5,-377.7 642.5,-377.7"/>
<text text-anchor="start" x="647.5" y="-386.3" font-family="Helvetica,sans-Serif" font-weight="bold" font-size="11.00" fill="#000000">agendamentos</text>
<text text-anchor="start" x="731.0219" y="-385.8" font-family="Helvetica,sans-Serif" font-size="11.00" fill="#000000">[table]</text>
<polygon fill="none" stroke="#000000" points="642.5,-358.7 642.5,-377.7 765.5,-377.7 765.5,-358.7 642.5,-358.7"/>
<text text-anchor="start" x="645.5" y="-364.8" font-family="Helvetica,sans-Serif" font-size="11.00" fill="#000000">...</text>
<polygon fill="#ffffff" stroke="transparent" points="642.5,-339.7 642.5,-358.7 702.5,-358.7 702.5,-339.7 642.5,-339.7"/>
<polygon fill="none" stroke="#000000" points="642.5,-339.7 642.5,-358.7 702.5,-358.7 702.5,-339.7 642.5,-339.7"/>
<text text-anchor="start" x="645.5" y="-345.8" font-family="Helvetica,sans-Serif" font-size="11.00" fill="#000000">&lt; 2</text>
<polygon fill="#ffffff" stroke="transparent" points="702.5,-339.7 702.5,-358.7 733.5,-358.7 733.5,-339.7 702.5,-339.7"/>
<polygon fill="none" stroke="#000000" points="702.5,-339.7 702.5,-358.7 733.5,-358.7 733.5,-339.7 702.5,-339.7"/>
<text text-anchor="start" x="724.3862" y="-345.8" font-family="Helvetica,sans-Serif" font-size="11.00" fill="#000000"> &#160;</text>
<polygon fill="#ffffff" stroke="transparent" points="733.5,-339.7 733.5,-358.7 765.5,-358.7 765.5,-339.7 733.5,-339.7"/>
<polygon fill="none" stroke="#000000" points="733.5,-339.7 733.5,-358.7 765.5,-358.7 765.5,-339.7 733.5,-339.7"/>
<text text-anchor="start" x="756.3862" y="-345.8" font-family="Helvetica,sans-Serif" font-size="11.00" fill="#000000"> &#160;</text>
</a>
</g>
</g>
<!-- encontros -->
<g id="node2" class="node">
<title>encontros</title>
<g id="a_node2"><a xlink:href="../../tables/encontros.html" xlink:title="encontros" target="_top">
<polygon fill="#ffffff" stroke="transparent" points="483,-275.2 483,-402.2 580,-402.2 580,-275.2 483,-275.2"/>
<polygon fill="#f5f5f5" stroke="transparent" points="483.5,-378.7 483.5,-401.7 580.5,-401.7 580.5,-378.7 483.5,-378.7"/>
<polygon fill="none" stroke="#000000" points="483.5,-378.7 483.5,-401.7 580.5,-401.7 580.5,-378.7 483.5,-378.7"/>
<text text-anchor="start" x="488.5" y="-387.3" font-family="Helvetica,sans-Serif" font-weight="bold" font-size="11.00" fill="#000000">encontros</text>
<text text-anchor="start" x="546.0219" y="-386.8" font-family="Helvetica,sans-Serif" font-size="11.00" fill="#000000">[table]</text>
<polygon fill="none" stroke="#000000" points="483.5,-356.7 483.5,-378.7 580.5,-378.7 580.5,-356.7 483.5,-356.7"/>
<image xlink:href="../../images/primaryKeys.png" width="11px" height="12px" preserveAspectRatio="xMinYMin meet" x="488.5" y="-373.7"/>
<text text-anchor="start" x="512.5" y="-363.8" font-family="Helvetica,sans-Serif" font-size="11.00" fill="#000000">id</text>
<polygon fill="none" stroke="#000000" points="483.5,-334.7 483.5,-356.7 580.5,-356.7 580.5,-334.7 483.5,-334.7"/>
<image xlink:href="../../images/foreignKeys.png" width="11px" height="12px" preserveAspectRatio="xMinYMin meet" x="488.5" y="-351.7"/>
<text text-anchor="start" x="512.5" y="-341.8" font-family="Helvetica,sans-Serif" font-size="11.00" fill="#000000">id_grupo</text>
<polygon fill="none" stroke="#000000" points="483.5,-312.7 483.5,-334.7 580.5,-334.7 580.5,-312.7 483.5,-312.7"/>
<image xlink:href="../../images/foreignKeys.png" width="11px" height="12px" preserveAspectRatio="xMinYMin meet" x="488.5" y="-329.7"/>
<text text-anchor="start" x="512.5" y="-319.8" font-family="Helvetica,sans-Serif" font-size="11.00" fill="#000000">id_turma</text>
<polygon fill="none" stroke="#000000" points="483.5,-293.7 483.5,-312.7 580.5,-312.7 580.5,-293.7 483.5,-293.7"/>
<text text-anchor="start" x="486.5" y="-299.8" font-family="Helvetica,sans-Serif" font-size="11.00" fill="#000000">...</text>
<polygon fill="#ffffff" stroke="transparent" points="483.5,-274.7 483.5,-293.7 525.5,-293.7 525.5,-274.7 483.5,-274.7"/>
<polygon fill="none" stroke="#000000" points="483.5,-274.7 483.5,-293.7 525.5,-293.7 525.5,-274.7 483.5,-274.7"/>
<text text-anchor="start" x="486.5" y="-280.8" font-family="Helvetica,sans-Serif" font-size="11.00" fill="#000000">&lt; 2</text>
<polygon fill="#ffffff" stroke="transparent" points="525.5,-274.7 525.5,-293.7 548.5,-293.7 548.5,-274.7 525.5,-274.7"/>
<polygon fill="none" stroke="#000000" points="525.5,-274.7 525.5,-293.7 548.5,-293.7 548.5,-274.7 525.5,-274.7"/>
<text text-anchor="start" x="539.3862" y="-280.8" font-family="Helvetica,sans-Serif" font-size="11.00" fill="#000000"> &#160;</text>
<polygon fill="#ffffff" stroke="transparent" points="548.5,-274.7 548.5,-293.7 580.5,-293.7 580.5,-274.7 548.5,-274.7"/>
<polygon fill="none" stroke="#000000" points="548.5,-274.7 548.5,-293.7 580.5,-293.7 580.5,-274.7 548.5,-274.7"/>
<text text-anchor="start" x="561.9053" y="-280.8" font-family="Helvetica,sans-Serif" font-size="11.00" fill="#000000">2 &gt;</text>
</a>
</g>
</g>
<!-- agendamentos&#45;&gt;encontros -->
<g id="edge1" class="edge">
<title>agendamentos:w&#45;&gt;encontros:e</title>
<path fill="none" stroke="#000000" d="M627.92,-367.7C611.2931,-367.7 602.4583,-367.7 580.5,-367.7"/>
<polygon fill="#000000" stroke="#000000" points="634.5,-367.7001 642.5,-371.3 638.5,-367.7 642.5,-367.7 642.5,-367.7 642.5,-367.7 638.5,-367.7 642.5,-364.1 634.5,-367.7001 634.5,-367.7001"/>
<ellipse fill="none" stroke="#000000" cx="631.3" cy="-367.7001" rx="3.2" ry="3.2"/>
</g>
<!-- grupos -->
<g id="node3" class="node">
<title>grupos</title>
<g id="a_node3"><a xlink:href="../../tables/grupos.html" xlink:title="grupos" target="_top">
<polygon fill="#ffffff" stroke="transparent" points="307.5,-423.2 307.5,-484.2 386.5,-484.2 386.5,-423.2 307.5,-423.2"/>
<polygon fill="#f5f5f5" stroke="transparent" points="308,-460.7 308,-483.7 387,-483.7 387,-460.7 308,-460.7"/>
<polygon fill="none" stroke="#000000" points="308,-460.7 308,-483.7 387,-483.7 387,-460.7 308,-460.7"/>
<text text-anchor="start" x="313" y="-469.3" font-family="Helvetica,sans-Serif" font-weight="bold" font-size="11.00" fill="#000000">grupos</text>
<text text-anchor="start" x="352.5219" y="-468.8" font-family="Helvetica,sans-Serif" font-size="11.00" fill="#000000">[table]</text>
<polygon fill="none" stroke="#000000" points="308,-441.7 308,-460.7 387,-460.7 387,-441.7 308,-441.7"/>
<text text-anchor="start" x="311" y="-447.8" font-family="Helvetica,sans-Serif" font-size="11.00" fill="#000000">...</text>
<polygon fill="#ffffff" stroke="transparent" points="308,-422.7 308,-441.7 341,-441.7 341,-422.7 308,-422.7"/>
<polygon fill="none" stroke="#000000" points="308,-422.7 308,-441.7 341,-441.7 341,-422.7 308,-422.7"/>
<text text-anchor="start" x="311" y="-428.8" font-family="Helvetica,sans-Serif" font-size="11.00" fill="#000000">&lt; 2</text>
<polygon fill="#ffffff" stroke="transparent" points="341,-422.7 341,-441.7 359,-441.7 359,-422.7 341,-422.7"/>
<polygon fill="none" stroke="#000000" points="341,-422.7 341,-441.7 359,-441.7 359,-422.7 341,-422.7"/>
<text text-anchor="start" x="349.8862" y="-428.8" font-family="Helvetica,sans-Serif" font-size="11.00" fill="#000000"> &#160;</text>
<polygon fill="#ffffff" stroke="transparent" points="359,-422.7 359,-441.7 387,-441.7 387,-422.7 359,-422.7"/>
<polygon fill="none" stroke="#000000" points="359,-422.7 359,-441.7 387,-441.7 387,-422.7 359,-422.7"/>
<text text-anchor="start" x="368.4053" y="-428.8" font-family="Helvetica,sans-Serif" font-size="11.00" fill="#000000">2 &gt;</text>
</a>
</g>
</g>
<!-- encontros&#45;&gt;grupos -->
<g id="edge2" class="edge">
<title>encontros:w&#45;&gt;grupos:e</title>
<path fill="none" stroke="#000000" d="M469.1153,-347.8931C424.6283,-362.9714 444.9348,-450.7 387,-450.7"/>
<polygon fill="#000000" stroke="#000000" points="475.5914,-346.9058 484.0426,-349.2589 479.5457,-346.3029 483.5,-345.7 483.5,-345.7 483.5,-345.7 479.5457,-346.3029 482.9574,-342.1411 475.5914,-346.9058 475.5914,-346.9058"/>
<ellipse fill="none" stroke="#000000" cx="472.4279" cy="-347.3881" rx="3.2" ry="3.2"/>
</g>
<!-- turmas -->
<g id="node4" class="node">
<title>turmas</title>
<g id="a_node4"><a xlink:href="../../tables/turmas.html" xlink:title="turmas" target="_top">
<polygon fill="#ffffff" stroke="transparent" points="273,-174.7 273,-374.7 421,-374.7 421,-174.7 273,-174.7"/>
<polygon fill="#f5f5f5" stroke="transparent" points="275,-349.7 275,-372.7 419,-372.7 419,-349.7 275,-349.7"/>
<polygon fill="none" stroke="#000000" points="275,-349.7 275,-372.7 419,-372.7 419,-349.7 275,-349.7"/>
<text text-anchor="start" x="280" y="-358.3" font-family="Helvetica,sans-Serif" font-weight="bold" font-size="11.00" fill="#000000">turmas</text>
<text text-anchor="start" x="384.0437" y="-357.8" font-family="Helvetica,sans-Serif" font-size="11.00" fill="#000000">[table]</text>
<polygon fill="none" stroke="#000000" points="275,-327.7 275,-349.7 352,-349.7 352,-327.7 275,-327.7"/>
<image xlink:href="../../images/primaryKeys.png" width="11px" height="12px" preserveAspectRatio="xMinYMin meet" x="280" y="-344.7"/>
<text text-anchor="start" x="295" y="-334.8" font-family="Helvetica,sans-Serif" font-size="11.00" fill="#000000">id</text>
<polygon fill="none" stroke="#000000" points="352,-327.7 352,-349.7 419,-349.7 419,-327.7 352,-327.7"/>
<text text-anchor="start" x="355" y="-335.4" font-family="Helvetica,sans-Serif" font-size="11.00" fill="#000000">serial[10]</text>
<polygon fill="none" stroke="#000000" points="275,-305.7 275,-327.7 352,-327.7 352,-305.7 275,-305.7"/>
<image xlink:href="../../images/foreignKeys.png" width="11px" height="12px" preserveAspectRatio="xMinYMin meet" x="280" y="-322.7"/>
<text text-anchor="start" x="295" y="-312.8" font-family="Helvetica,sans-Serif" font-size="11.00" fill="#000000">id_curso</text>
<polygon fill="none" stroke="#000000" points="352,-305.7 352,-327.7 419,-327.7 419,-305.7 352,-305.7"/>
<text text-anchor="start" x="355" y="-313.4" font-family="Helvetica,sans-Serif" font-size="11.00" fill="#000000">int4[10]</text>
<polygon fill="none" stroke="#000000" points="275,-283.7 275,-305.7 352,-305.7 352,-283.7 275,-283.7"/>
<image xlink:href="../../images/foreignKeys.png" width="11px" height="12px" preserveAspectRatio="xMinYMin meet" x="280" y="-300.7"/>
<text text-anchor="start" x="295" y="-290.8" font-family="Helvetica,sans-Serif" font-size="11.00" fill="#000000">id_user</text>
<polygon fill="none" stroke="#000000" points="352,-283.7 352,-305.7 419,-305.7 419,-283.7 352,-283.7"/>
<text text-anchor="start" x="355" y="-291.4" font-family="Helvetica,sans-Serif" font-size="11.00" fill="#000000">int4[10]</text>
<polygon fill="none" stroke="#000000" points="275,-261.7 275,-283.7 352,-283.7 352,-261.7 275,-261.7"/>
<text text-anchor="start" x="295" y="-268.8" font-family="Helvetica,sans-Serif" font-size="11.00" fill="#000000">turno</text>
<polygon fill="none" stroke="#000000" points="352,-261.7 352,-283.7 419,-283.7 419,-261.7 352,-261.7"/>
<text text-anchor="start" x="355" y="-269.4" font-family="Helvetica,sans-Serif" font-size="11.00" fill="#000000">int2[5]</text>
<polygon fill="none" stroke="#000000" points="275,-239.7 275,-261.7 352,-261.7 352,-239.7 275,-239.7"/>
<text text-anchor="start" x="295" y="-246.8" font-family="Helvetica,sans-Serif" font-size="11.00" fill="#000000">disciplina</text>
<polygon fill="none" stroke="#000000" points="352,-239.7 352,-261.7 419,-261.7 419,-239.7 352,-239.7"/>
<text text-anchor="start" x="354.9365" y="-247.4" font-family="Helvetica,sans-Serif" font-size="11.00" fill="#000000">varchar[100]</text>
<polygon fill="#ffffff" stroke="transparent" points="275,-217.7 275,-239.7 352,-239.7 352,-217.7 275,-217.7"/>
<polygon fill="none" stroke="#000000" points="275,-217.7 275,-239.7 352,-239.7 352,-217.7 275,-217.7"/>
<text text-anchor="start" x="295" y="-224.8" font-family="Helvetica,sans-Serif" font-size="11.00" fill="#000000">nome</text>
<polygon fill="none" stroke="#000000" points="352,-217.7 352,-239.7 419,-239.7 419,-217.7 352,-217.7"/>
<text text-anchor="start" x="354.9365" y="-225.4" font-family="Helvetica,sans-Serif" font-size="11.00" fill="#000000">varchar[100]</text>
<polygon fill="none" stroke="#000000" points="275,-195.7 275,-217.7 352,-217.7 352,-195.7 275,-195.7"/>
<text text-anchor="start" x="295" y="-202.8" font-family="Helvetica,sans-Serif" font-size="11.00" fill="#000000">descricao</text>
<polygon fill="none" stroke="#000000" points="352,-195.7 352,-217.7 419,-217.7 419,-195.7 352,-195.7"/>
<text text-anchor="start" x="354.9365" y="-203.4" font-family="Helvetica,sans-Serif" font-size="11.00" fill="#000000">varchar[255]</text>
<polygon fill="#ffffff" stroke="transparent" points="275,-176.7 275,-195.7 318,-195.7 318,-176.7 275,-176.7"/>
<polygon fill="none" stroke="#000000" points="275,-176.7 275,-195.7 318,-195.7 318,-176.7 275,-176.7"/>
<text text-anchor="start" x="278" y="-182.8" font-family="Helvetica,sans-Serif" font-size="11.00" fill="#000000">&lt; 2</text>
<polygon fill="#ffffff" stroke="transparent" points="318,-176.7 318,-195.7 352,-195.7 352,-176.7 318,-176.7"/>
<polygon fill="none" stroke="#000000" points="318,-176.7 318,-195.7 352,-195.7 352,-176.7 318,-176.7"/>
<text text-anchor="start" x="342.8862" y="-182.8" font-family="Helvetica,sans-Serif" font-size="11.00" fill="#000000"> &#160;</text>
<polygon fill="#ffffff" stroke="transparent" points="352,-176.7 352,-195.7 419,-195.7 419,-176.7 352,-176.7"/>
<polygon fill="none" stroke="#000000" points="352,-176.7 352,-195.7 419,-195.7 419,-176.7 352,-176.7"/>
<text text-anchor="start" x="400.4053" y="-182.8" font-family="Helvetica,sans-Serif" font-size="11.00" fill="#000000">2 &gt;</text>
<polygon fill="none" stroke="#000000" stroke-width="2" points="274,-175.7 274,-373.7 420,-373.7 420,-175.7 274,-175.7"/>
</a>
</g>
</g>
<!-- encontros&#45;&gt;turmas -->
<g id="edge3" class="edge">
<title>encontros:w&#45;&gt;turmas:e</title>
<path fill="none" stroke="#000000" d="M469.1406,-325.0843C451.118,-328.7977 442.9132,-338.7 419,-338.7"/>
<polygon fill="#000000" stroke="#000000" points="475.5369,-324.4677 483.8455,-327.2834 479.5185,-324.0839 483.5,-323.7 483.5,-323.7 483.5,-323.7 479.5185,-324.0839 483.1545,-320.1166 475.5369,-324.4677 475.5369,-324.4677"/>
<ellipse fill="none" stroke="#000000" cx="472.3517" cy="-324.7748" rx="3.2" ry="3.2"/>
</g>
<!-- cursos -->
<g id="node5" class="node">
<title>cursos</title>
<g id="a_node5"><a xlink:href="../../tables/cursos.html" xlink:title="cursos" target="_top">
<polygon fill="#ffffff" stroke="transparent" points="8,-302.2 8,-363.2 86,-363.2 86,-302.2 8,-302.2"/>
<polygon fill="#f5f5f5" stroke="transparent" points="8,-339.7 8,-362.7 86,-362.7 86,-339.7 8,-339.7"/>
<polygon fill="none" stroke="#000000" points="8,-339.7 8,-362.7 86,-362.7 86,-339.7 8,-339.7"/>
<text text-anchor="start" x="13" y="-348.3" font-family="Helvetica,sans-Serif" font-weight="bold" font-size="11.00" fill="#000000">cursos</text>
<text text-anchor="start" x="51.5219" y="-347.8" font-family="Helvetica,sans-Serif" font-size="11.00" fill="#000000">[table]</text>
<polygon fill="none" stroke="#000000" points="8,-320.7 8,-339.7 86,-339.7 86,-320.7 8,-320.7"/>
<text text-anchor="start" x="11" y="-326.8" font-family="Helvetica,sans-Serif" font-size="11.00" fill="#000000">...</text>
<polygon fill="#ffffff" stroke="transparent" points="8,-301.7 8,-320.7 36,-320.7 36,-301.7 8,-301.7"/>
<polygon fill="none" stroke="#000000" points="8,-301.7 8,-320.7 36,-320.7 36,-301.7 8,-301.7"/>
<text text-anchor="start" x="11" y="-307.8" font-family="Helvetica,sans-Serif" font-size="11.00" fill="#000000"> &#160;</text>
<polygon fill="#ffffff" stroke="transparent" points="36,-301.7 36,-320.7 56,-320.7 56,-301.7 36,-301.7"/>
<polygon fill="none" stroke="#000000" points="36,-301.7 36,-320.7 56,-320.7 56,-301.7 36,-301.7"/>
<text text-anchor="start" x="46.8862" y="-307.8" font-family="Helvetica,sans-Serif" font-size="11.00" fill="#000000"> &#160;</text>
<polygon fill="#ffffff" stroke="transparent" points="56,-301.7 56,-320.7 86,-320.7 86,-301.7 56,-301.7"/>
<polygon fill="none" stroke="#000000" points="56,-301.7 56,-320.7 86,-320.7 86,-301.7 56,-301.7"/>
<text text-anchor="start" x="67.4053" y="-307.8" font-family="Helvetica,sans-Serif" font-size="11.00" fill="#000000">3 &gt;</text>
</a>
</g>
</g>
<!-- grupos&#45;&gt;cursos -->
<g id="edge4" class="edge">
<title>grupos:w&#45;&gt;cursos:e</title>
<path fill="none" stroke="#000000" d="M293.1657,-450.1812C216.3776,-444.8857 139.2428,-400.1653 92.2986,-367.4657"/>
<polygon fill="#000000" stroke="#000000" points="300.0049,-450.4203 307.8741,-454.2978 304.0024,-450.5602 308,-450.7 308,-450.7 308,-450.7 304.0024,-450.5602 308.1259,-447.1022 300.0049,-450.4203 300.0049,-450.4203"/>
<ellipse fill="none" stroke="#000000" cx="296.8068" cy="-450.3085" rx="3.2" ry="3.2"/>
</g>
<!-- usuarios -->
<g id="node6" class="node">
<title>usuarios</title>
<g id="a_node6"><a xlink:href="../../tables/usuarios.html" xlink:title="usuarios" target="_top">
<polygon fill="#ffffff" stroke="transparent" points="135,-247.2 135,-308.2 224,-308.2 224,-247.2 135,-247.2"/>
<polygon fill="#f5f5f5" stroke="transparent" points="135.5,-284.7 135.5,-307.7 224.5,-307.7 224.5,-284.7 135.5,-284.7"/>
<polygon fill="none" stroke="#000000" points="135.5,-284.7 135.5,-307.7 224.5,-307.7 224.5,-284.7 135.5,-284.7"/>
<text text-anchor="start" x="140.5" y="-293.3" font-family="Helvetica,sans-Serif" font-weight="bold" font-size="11.00" fill="#000000">usuarios</text>
<text text-anchor="start" x="190.0219" y="-292.8" font-family="Helvetica,sans-Serif" font-size="11.00" fill="#000000">[table]</text>
<polygon fill="none" stroke="#000000" points="135.5,-265.7 135.5,-284.7 224.5,-284.7 224.5,-265.7 135.5,-265.7"/>
<text text-anchor="start" x="138.5" y="-271.8" font-family="Helvetica,sans-Serif" font-size="11.00" fill="#000000">...</text>
<polygon fill="#ffffff" stroke="transparent" points="135.5,-246.7 135.5,-265.7 173.5,-265.7 173.5,-246.7 135.5,-246.7"/>
<polygon fill="none" stroke="#000000" points="135.5,-246.7 135.5,-265.7 173.5,-265.7 173.5,-246.7 135.5,-246.7"/>
<text text-anchor="start" x="138.5" y="-252.8" font-family="Helvetica,sans-Serif" font-size="11.00" fill="#000000">&lt; 1</text>
<polygon fill="#ffffff" stroke="transparent" points="173.5,-246.7 173.5,-265.7 194.5,-265.7 194.5,-246.7 173.5,-246.7"/>
<polygon fill="none" stroke="#000000" points="173.5,-246.7 173.5,-265.7 194.5,-265.7 194.5,-246.7 173.5,-246.7"/>
<text text-anchor="start" x="185.3862" y="-252.8" font-family="Helvetica,sans-Serif" font-size="11.00" fill="#000000"> &#160;</text>
<polygon fill="#ffffff" stroke="transparent" points="194.5,-246.7 194.5,-265.7 224.5,-265.7 224.5,-246.7 194.5,-246.7"/>
<polygon fill="none" stroke="#000000" points="194.5,-246.7 194.5,-265.7 224.5,-265.7 224.5,-246.7 194.5,-246.7"/>
<text text-anchor="start" x="205.9053" y="-252.8" font-family="Helvetica,sans-Serif" font-size="11.00" fill="#000000">6 &gt;</text>
</a>
</g>
</g>
<!-- grupos&#45;&gt;usuarios -->
<g id="edge5" class="edge">
<title>grupos:w&#45;&gt;usuarios:e</title>
<path fill="none" stroke="#000000" d="M294.0564,-446.5856C261.1771,-428.655 219.6957,-356.2712 196.7524,-312.2933"/>
<polygon fill="#000000" stroke="#000000" points="300.3271,-448.4359 306.9811,-454.1528 304.1635,-449.5679 308,-450.7 308,-450.7 308,-450.7 304.1635,-449.5679 309.0189,-447.2472 300.3271,-448.4359 300.3271,-448.4359"/>
<ellipse fill="none" stroke="#000000" cx="297.2579" cy="-447.5302" rx="3.2" ry="3.2"/>
</g>
<!-- turmas&#45;&gt;cursos -->
<g id="edge9" class="edge">
<title>turmas:w&#45;&gt;cursos:e</title>
<path fill="none" stroke="#000000" d="M260.13,-317.2678C225.1891,-319.118 145.6559,-325.0805 94.2421,-329.0293"/>
<polygon fill="#000000" stroke="#000000" points="267.0058,-317.0053 275.1374,-320.2974 271.0029,-316.8527 275,-316.7 275,-316.7 275,-316.7 271.0029,-316.8527 274.8626,-313.1026 267.0058,-317.0053 267.0058,-317.0053"/>
<ellipse fill="none" stroke="#000000" cx="263.8082" cy="-317.1274" rx="3.2" ry="3.2"/>
</g>
<!-- turmas&#45;&gt;usuarios -->
<g id="edge10" class="edge">
<title>turmas:w&#45;&gt;usuarios:e</title>
<path fill="none" stroke="#000000" d="M260.3253,-294.1136C250.8755,-293.3972 241.3168,-292.0828 232.2433,-290.4978"/>
<polygon fill="#000000" stroke="#000000" points="267.0064,-294.3805 274.8562,-298.2971 271.0032,-294.5403 275,-294.7 275,-294.7 275,-294.7 271.0032,-294.5403 275.1438,-291.1029 267.0064,-294.3805 267.0064,-294.3805"/>
<ellipse fill="none" stroke="#000000" cx="263.8089" cy="-294.2527" rx="3.2" ry="3.2"/>
</g>
<!-- usuarios&#45;&gt;cursos -->
<g id="edge15" class="edge">
<title>usuarios:w&#45;&gt;cursos:e</title>
<path fill="none" stroke="#000000" d="M113.3161,-305.1726C106.9386,-307.8198 100.5602,-310.4675 94.4175,-313.0173"/>
<polygon fill="#000000" stroke="#000000" points="119.363,-302.6625 128.1319,-302.9204 123.0574,-301.129 126.7518,-299.5955 126.7518,-299.5955 126.7518,-299.5955 123.0574,-301.129 125.3716,-296.2706 119.363,-302.6625 119.363,-302.6625"/>
<ellipse fill="none" stroke="#000000" cx="116.4075" cy="-303.8894" rx="3.2" ry="3.2"/>
</g>
<!-- mensagens -->
<g id="node7" class="node">
<title>mensagens</title>
<g id="a_node7"><a xlink:href="../../tables/mensagens.html" xlink:title="mensagens" target="_top">
<polygon fill="#ffffff" stroke="transparent" points="651,-177.2 651,-238.2 756,-238.2 756,-177.2 651,-177.2"/>
<polygon fill="#f5f5f5" stroke="transparent" points="651.5,-214.7 651.5,-237.7 756.5,-237.7 756.5,-214.7 651.5,-214.7"/>
<polygon fill="none" stroke="#000000" points="651.5,-214.7 651.5,-237.7 756.5,-237.7 756.5,-214.7 651.5,-214.7"/>
<text text-anchor="start" x="656.5" y="-223.3" font-family="Helvetica,sans-Serif" font-weight="bold" font-size="11.00" fill="#000000">mensagens</text>
<text text-anchor="start" x="722.0219" y="-222.8" font-family="Helvetica,sans-Serif" font-size="11.00" fill="#000000">[table]</text>
<polygon fill="none" stroke="#000000" points="651.5,-195.7 651.5,-214.7 756.5,-214.7 756.5,-195.7 651.5,-195.7"/>
<text text-anchor="start" x="654.5" y="-201.8" font-family="Helvetica,sans-Serif" font-size="11.00" fill="#000000">...</text>
<polygon fill="#ffffff" stroke="transparent" points="651.5,-176.7 651.5,-195.7 702.5,-195.7 702.5,-176.7 651.5,-176.7"/>
<polygon fill="none" stroke="#000000" points="651.5,-176.7 651.5,-195.7 702.5,-195.7 702.5,-176.7 651.5,-176.7"/>
<text text-anchor="start" x="654.5" y="-182.8" font-family="Helvetica,sans-Serif" font-size="11.00" fill="#000000">&lt; 2</text>
<polygon fill="#ffffff" stroke="transparent" points="702.5,-176.7 702.5,-195.7 729.5,-195.7 729.5,-176.7 702.5,-176.7"/>
<polygon fill="none" stroke="#000000" points="702.5,-176.7 702.5,-195.7 729.5,-195.7 729.5,-176.7 702.5,-176.7"/>
<text text-anchor="start" x="720.3862" y="-182.8" font-family="Helvetica,sans-Serif" font-size="11.00" fill="#000000"> &#160;</text>
<polygon fill="#ffffff" stroke="transparent" points="729.5,-176.7 729.5,-195.7 756.5,-195.7 756.5,-176.7 729.5,-176.7"/>
<polygon fill="none" stroke="#000000" points="729.5,-176.7 729.5,-195.7 756.5,-195.7 756.5,-176.7 729.5,-176.7"/>
<text text-anchor="start" x="747.3862" y="-182.8" font-family="Helvetica,sans-Serif" font-size="11.00" fill="#000000"> &#160;</text>
</a>
</g>
</g>
<!-- mensagens&#45;&gt;encontros -->
<g id="edge6" class="edge">
<title>mensagens:w&#45;&gt;encontros:e</title>
<path fill="none" stroke="#000000" d="M637.1794,-207.0042C583.9,-226.816 653.9627,-367.7 580.5,-367.7"/>
<polygon fill="#000000" stroke="#000000" points="643.6016,-205.9709 652.0719,-208.2543 647.5508,-205.3355 651.5,-204.7 651.5,-204.7 651.5,-204.7 647.5508,-205.3355 650.9281,-201.1457 643.6016,-205.9709 643.6016,-205.9709"/>
<ellipse fill="none" stroke="#000000" cx="640.4422" cy="-206.4793" rx="3.2" ry="3.2"/>
</g>
<!-- mensagens&#45;&gt;usuarios -->
<g id="edge7" class="edge">
<title>mensagens:w&#45;&gt;usuarios:e</title>
<path fill="none" stroke="#000000" d="M637.1852,-201.0592C622.9135,-192.1318 622.9951,-169.1926 601,-159.7 532.3771,-130.0838 330.6011,-108.885 265,-144.7 227.0533,-165.417 203.436,-210.9847 190.8795,-242.9834"/>
<polygon fill="#000000" stroke="#000000" points="643.7468,-202.728 650.6126,-208.1889 647.6234,-203.714 651.5,-204.7 651.5,-204.7 651.5,-204.7 647.6234,-203.714 652.3874,-201.2111 643.7468,-202.728 643.7468,-202.728"/>
<ellipse fill="none" stroke="#000000" cx="640.6456" cy="-201.9392" rx="3.2" ry="3.2"/>
</g>
<!-- token -->
<g id="node8" class="node">
<title>token</title>
<g id="a_node8"><a xlink:href="../../tables/token.html" xlink:title="token" target="_top">
<polygon fill="#ffffff" stroke="transparent" points="311.5,-38.2 311.5,-99.2 382.5,-99.2 382.5,-38.2 311.5,-38.2"/>
<polygon fill="#f5f5f5" stroke="transparent" points="312,-75.7 312,-98.7 383,-98.7 383,-75.7 312,-75.7"/>
<polygon fill="none" stroke="#000000" points="312,-75.7 312,-98.7 383,-98.7 383,-75.7 312,-75.7"/>
<text text-anchor="start" x="317" y="-84.3" font-family="Helvetica,sans-Serif" font-weight="bold" font-size="11.00" fill="#000000">token</text>
<text text-anchor="start" x="348.5219" y="-83.8" font-family="Helvetica,sans-Serif" font-size="11.00" fill="#000000">[table]</text>
<polygon fill="none" stroke="#000000" points="312,-56.7 312,-75.7 383,-75.7 383,-56.7 312,-56.7"/>
<text text-anchor="start" x="315" y="-62.8" font-family="Helvetica,sans-Serif" font-size="11.00" fill="#000000">...</text>
<polygon fill="#ffffff" stroke="transparent" points="312,-37.7 312,-56.7 346,-56.7 346,-37.7 312,-37.7"/>
<polygon fill="none" stroke="#000000" points="312,-37.7 312,-56.7 346,-56.7 346,-37.7 312,-37.7"/>
<text text-anchor="start" x="315" y="-43.8" font-family="Helvetica,sans-Serif" font-size="11.00" fill="#000000">&lt; 1</text>
<polygon fill="#ffffff" stroke="transparent" points="346,-37.7 346,-56.7 364,-56.7 364,-37.7 346,-37.7"/>
<polygon fill="none" stroke="#000000" points="346,-37.7 346,-56.7 364,-56.7 364,-37.7 346,-37.7"/>
<text text-anchor="start" x="354.8862" y="-43.8" font-family="Helvetica,sans-Serif" font-size="11.00" fill="#000000"> &#160;</text>
<polygon fill="#ffffff" stroke="transparent" points="364,-37.7 364,-56.7 383,-56.7 383,-37.7 364,-37.7"/>
<polygon fill="none" stroke="#000000" points="364,-37.7 364,-56.7 383,-56.7 383,-37.7 364,-37.7"/>
<text text-anchor="start" x="373.8862" y="-43.8" font-family="Helvetica,sans-Serif" font-size="11.00" fill="#000000"> &#160;</text>
</a>
</g>
</g>
<!-- token&#45;&gt;usuarios -->
<g id="edge8" class="edge">
<title>token:w&#45;&gt;usuarios:e</title>
<path fill="none" stroke="#000000" d="M297.5217,-66.9523C225.4005,-79.7055 195.6239,-186.7312 184.8451,-243.1667"/>
<polygon fill="#000000" stroke="#000000" points="304.0298,-66.3894 312.3102,-69.2866 308.0149,-66.0447 312,-65.7 312,-65.7 312,-65.7 308.0149,-66.0447 311.6898,-62.1134 304.0298,-66.3894 304.0298,-66.3894"/>
<ellipse fill="none" stroke="#000000" cx="300.8417" cy="-66.6652" rx="3.2" ry="3.2"/>
</g>
<!-- usuario_grupo -->
<g id="node9" class="node">
<title>usuario_grupo</title>
<g id="a_node9"><a xlink:href="../../tables/usuario_grupo.html" xlink:title="usuario_grupo" target="_top">
<polygon fill="#ffffff" stroke="transparent" points="470,-423.2 470,-484.2 593,-484.2 593,-423.2 470,-423.2"/>
<polygon fill="#f5f5f5" stroke="transparent" points="470.5,-460.7 470.5,-483.7 593.5,-483.7 593.5,-460.7 470.5,-460.7"/>
<polygon fill="none" stroke="#000000" points="470.5,-460.7 470.5,-483.7 593.5,-483.7 593.5,-460.7 470.5,-460.7"/>
<text text-anchor="start" x="475.5" y="-469.3" font-family="Helvetica,sans-Serif" font-weight="bold" font-size="11.00" fill="#000000">usuario_grupo</text>
<text text-anchor="start" x="559.0219" y="-468.8" font-family="Helvetica,sans-Serif" font-size="11.00" fill="#000000">[table]</text>
<polygon fill="none" stroke="#000000" points="470.5,-441.7 470.5,-460.7 593.5,-460.7 593.5,-441.7 470.5,-441.7"/>
<text text-anchor="start" x="473.5" y="-447.8" font-family="Helvetica,sans-Serif" font-size="11.00" fill="#000000">...</text>
<polygon fill="#ffffff" stroke="transparent" points="470.5,-422.7 470.5,-441.7 530.5,-441.7 530.5,-422.7 470.5,-422.7"/>
<polygon fill="none" stroke="#000000" points="470.5,-422.7 470.5,-441.7 530.5,-441.7 530.5,-422.7 470.5,-422.7"/>
<text text-anchor="start" x="473.5" y="-428.8" font-family="Helvetica,sans-Serif" font-size="11.00" fill="#000000">&lt; 2</text>
<polygon fill="#ffffff" stroke="transparent" points="530.5,-422.7 530.5,-441.7 561.5,-441.7 561.5,-422.7 530.5,-422.7"/>
<polygon fill="none" stroke="#000000" points="530.5,-422.7 530.5,-441.7 561.5,-441.7 561.5,-422.7 530.5,-422.7"/>
<text text-anchor="start" x="552.3862" y="-428.8" font-family="Helvetica,sans-Serif" font-size="11.00" fill="#000000"> &#160;</text>
<polygon fill="#ffffff" stroke="transparent" points="561.5,-422.7 561.5,-441.7 593.5,-441.7 593.5,-422.7 561.5,-422.7"/>
<polygon fill="none" stroke="#000000" points="561.5,-422.7 561.5,-441.7 593.5,-441.7 593.5,-422.7 561.5,-422.7"/>
<text text-anchor="start" x="584.3862" y="-428.8" font-family="Helvetica,sans-Serif" font-size="11.00" fill="#000000"> &#160;</text>
</a>
</g>
</g>
<!-- usuario_grupo&#45;&gt;grupos -->
<g id="edge11" class="edge">
<title>usuario_grupo:w&#45;&gt;grupos:e</title>
<path fill="none" stroke="#000000" d="M455.985,-450.7C430.1256,-450.7 418.7474,-450.7 387,-450.7"/>
<polygon fill="#000000" stroke="#000000" points="462.5,-450.7001 470.5,-454.3 466.5,-450.7 470.5,-450.7 470.5,-450.7 470.5,-450.7 466.5,-450.7 470.5,-447.1 462.5,-450.7001 462.5,-450.7001"/>
<ellipse fill="none" stroke="#000000" cx="459.3" cy="-450.7001" rx="3.2" ry="3.2"/>
</g>
<!-- usuario_grupo&#45;&gt;usuarios -->
<g id="edge12" class="edge">
<title>usuario_grupo:w&#45;&gt;usuarios:e</title>
<path fill="none" stroke="#000000" d="M456.6283,-446.2994C446.7117,-438.1735 445.8705,-420.897 429,-412.7 362.5575,-380.4171 328.6547,-423.1816 265,-385.7 235.6346,-368.4088 212.4691,-336.9039 197.7,-312.3668"/>
<polygon fill="#000000" stroke="#000000" points="462.8745,-448.2809 469.4114,-454.1315 466.6873,-449.4904 470.5,-450.7 470.5,-450.7 470.5,-450.7 466.6873,-449.4904 471.5886,-447.2685 462.8745,-448.2809 462.8745,-448.2809"/>
<ellipse fill="none" stroke="#000000" cx="459.8243" cy="-447.3133" rx="3.2" ry="3.2"/>
</g>
<!-- usuario_turma -->
<g id="node10" class="node">
<title>usuario_turma</title>
<g id="a_node10"><a xlink:href="../../tables/usuario_turma.html" xlink:title="usuario_turma" target="_top">
<polygon fill="#ffffff" stroke="transparent" points="470.5,-170.2 470.5,-231.2 592.5,-231.2 592.5,-170.2 470.5,-170.2"/>
<polygon fill="#f5f5f5" stroke="transparent" points="470.5,-207.7 470.5,-230.7 592.5,-230.7 592.5,-207.7 470.5,-207.7"/>
<polygon fill="none" stroke="#000000" points="470.5,-207.7 470.5,-230.7 592.5,-230.7 592.5,-207.7 470.5,-207.7"/>
<text text-anchor="start" x="475.5" y="-216.3" font-family="Helvetica,sans-Serif" font-weight="bold" font-size="11.00" fill="#000000">usuario_turma</text>
<text text-anchor="start" x="558.0219" y="-215.8" font-family="Helvetica,sans-Serif" font-size="11.00" fill="#000000">[table]</text>
<polygon fill="none" stroke="#000000" points="470.5,-188.7 470.5,-207.7 592.5,-207.7 592.5,-188.7 470.5,-188.7"/>
<text text-anchor="start" x="473.5" y="-194.8" font-family="Helvetica,sans-Serif" font-size="11.00" fill="#000000">...</text>
<polygon fill="#ffffff" stroke="transparent" points="470.5,-169.7 470.5,-188.7 529.5,-188.7 529.5,-169.7 470.5,-169.7"/>
<polygon fill="none" stroke="#000000" points="470.5,-169.7 470.5,-188.7 529.5,-188.7 529.5,-169.7 470.5,-169.7"/>
<text text-anchor="start" x="473.5" y="-175.8" font-family="Helvetica,sans-Serif" font-size="11.00" fill="#000000">&lt; 2</text>
<polygon fill="#ffffff" stroke="transparent" points="529.5,-169.7 529.5,-188.7 560.5,-188.7 560.5,-169.7 529.5,-169.7"/>
<polygon fill="none" stroke="#000000" points="529.5,-169.7 529.5,-188.7 560.5,-188.7 560.5,-169.7 529.5,-169.7"/>
<text text-anchor="start" x="551.3862" y="-175.8" font-family="Helvetica,sans-Serif" font-size="11.00" fill="#000000"> &#160;</text>
<polygon fill="#ffffff" stroke="transparent" points="560.5,-169.7 560.5,-188.7 592.5,-188.7 592.5,-169.7 560.5,-169.7"/>
<polygon fill="none" stroke="#000000" points="560.5,-169.7 560.5,-188.7 592.5,-188.7 592.5,-169.7 560.5,-169.7"/>
<text text-anchor="start" x="583.3862" y="-175.8" font-family="Helvetica,sans-Serif" font-size="11.00" fill="#000000"> &#160;</text>
</a>
</g>
</g>
<!-- usuario_turma&#45;&gt;turmas -->
<g id="edge13" class="edge">
<title>usuario_turma:w&#45;&gt;turmas:e</title>
<path fill="none" stroke="#000000" d="M479.3407,-245.4524C473.2039,-251.6494 467.2628,-258.1449 462,-264.7 438.1859,-294.3615 457.0383,-338.7 419,-338.7"/>
<polygon fill="#000000" stroke="#000000" points="484.0232,-240.9146 492.2735,-237.9324 486.8957,-238.1309 489.7682,-235.3472 489.7682,-235.3472 489.7682,-235.3472 486.8957,-238.1309 487.2628,-232.7619 484.0232,-240.9146 484.0232,-240.9146"/>
<ellipse fill="none" stroke="#000000" cx="481.7253" cy="-243.1415" rx="3.2" ry="3.2"/>
</g>
<!-- usuario_turma&#45;&gt;usuarios -->
<g id="edge14" class="edge">
<title>usuario_turma:w&#45;&gt;usuarios:e</title>
<path fill="none" stroke="#000000" d="M448.3805,-165.8036C393.6683,-148.3779 321.9138,-136.3936 265,-164.7 232.4001,-180.9138 208.9173,-216.1482 194.9058,-242.9915"/>
<polygon fill="#000000" stroke="#000000" points="454.6745,-167.9129 461.1159,-173.8684 458.4672,-169.1839 462.2599,-170.455 462.2599,-170.455 462.2599,-170.455 458.4672,-169.1839 463.4038,-167.0415 454.6745,-167.9129 454.6745,-167.9129"/>
<ellipse fill="none" stroke="#000000" cx="451.6404" cy="-166.896" rx="3.2" ry="3.2"/>
</g>
</g>
</svg>
