<?xml version="1.0" encoding="UTF-8" standalone="no"?>
<!DOCTYPE svg PUBLIC "-//W3C//DTD SVG 1.1//EN"
 "http://www.w3.org/Graphics/SVG/1.1/DTD/svg11.dtd">
<!-- Generated by graphviz version 2.40.1 (20161225.0304)
 -->
<!-- Title: twoDegreesRelationshipsDiagram Pages: 1 -->
<svg width="767pt" height="518pt"
 viewBox="0.00 0.00 767.00 517.69" xmlns="http://www.w3.org/2000/svg" xmlns:xlink="http://www.w3.org/1999/xlink">
<g id="graph0" class="graph" transform="scale(1 1) rotate(0) translate(4 513.6924)">
<title>twoDegreesRelationshipsDiagram</title>
<polygon fill="#ffffff" stroke="transparent" points="-4,4 -4,-513.6924 763,-513.6924 763,4 -4,4"/>
<text text-anchor="middle" x="72.4936" y="-7.3" font-family="Helvetica,sans-Serif" font-size="11.00" fill="#000000">Generated by SchemaSpy</text>
<!-- agendamentos -->
<g id="node1" class="node">
<title>agendamentos</title>
<g id="a_node1"><a xlink:href="../../tables/agendamentos.html" xlink:title="agendamentos" target="_top">
<polygon fill="#ffffff" stroke="transparent" points="628,-350.6924 628,-411.6924 751,-411.6924 751,-350.6924 628,-350.6924"/>
<polygon fill="#f5f5f5" stroke="transparent" points="628.5,-388.1924 628.5,-411.1924 751.5,-411.1924 751.5,-388.1924 628.5,-388.1924"/>
<polygon fill="none" stroke="#000000" points="628.5,-388.1924 628.5,-411.1924 751.5,-411.1924 751.5,-388.1924 628.5,-388.1924"/>
<text text-anchor="start" x="633.5" y="-396.7924" font-family="Helvetica,sans-Serif" font-weight="bold" font-size="11.00" fill="#000000">agendamentos</text>
<text text-anchor="start" x="717.0219" y="-396.2924" font-family="Helvetica,sans-Serif" font-size="11.00" fill="#000000">[table]</text>
<polygon fill="none" stroke="#000000" points="628.5,-369.1924 628.5,-388.1924 751.5,-388.1924 751.5,-369.1924 628.5,-369.1924"/>
<text text-anchor="start" x="631.5" y="-375.2924" font-family="Helvetica,sans-Serif" font-size="11.00" fill="#000000">...</text>
<polygon fill="#ffffff" stroke="transparent" points="628.5,-350.1924 628.5,-369.1924 688.5,-369.1924 688.5,-350.1924 628.5,-350.1924"/>
<polygon fill="none" stroke="#000000" points="628.5,-350.1924 628.5,-369.1924 688.5,-369.1924 688.5,-350.1924 628.5,-350.1924"/>
<text text-anchor="start" x="631.5" y="-356.2924" font-family="Helvetica,sans-Serif" font-size="11.00" fill="#000000">&lt; 2</text>
<polygon fill="#ffffff" stroke="transparent" points="688.5,-350.1924 688.5,-369.1924 719.5,-369.1924 719.5,-350.1924 688.5,-350.1924"/>
<polygon fill="none" stroke="#000000" points="688.5,-350.1924 688.5,-369.1924 719.5,-369.1924 719.5,-350.1924 688.5,-350.1924"/>
<text text-anchor="start" x="710.3862" y="-356.2924" font-family="Helvetica,sans-Serif" font-size="11.00" fill="#000000"> &#160;</text>
<polygon fill="#ffffff" stroke="transparent" points="719.5,-350.1924 719.5,-369.1924 751.5,-369.1924 751.5,-350.1924 719.5,-350.1924"/>
<polygon fill="none" stroke="#000000" points="719.5,-350.1924 719.5,-369.1924 751.5,-369.1924 751.5,-350.1924 719.5,-350.1924"/>
<text text-anchor="start" x="742.3862" y="-356.2924" font-family="Helvetica,sans-Serif" font-size="11.00" fill="#000000"> &#160;</text>
</a>
</g>
</g>
<!-- encontro -->
<g id="node2" class="node">
<title>encontro</title>
<g id="a_node2"><a xlink:href="../../tables/encontro.html" xlink:title="encontro" target="_top">
<polygon fill="#ffffff" stroke="transparent" points="472.5,-347.6924 472.5,-408.6924 562.5,-408.6924 562.5,-347.6924 472.5,-347.6924"/>
<polygon fill="#f5f5f5" stroke="transparent" points="472.5,-385.1924 472.5,-408.1924 562.5,-408.1924 562.5,-385.1924 472.5,-385.1924"/>
<polygon fill="none" stroke="#000000" points="472.5,-385.1924 472.5,-408.1924 562.5,-408.1924 562.5,-385.1924 472.5,-385.1924"/>
<text text-anchor="start" x="477.5" y="-393.7924" font-family="Helvetica,sans-Serif" font-weight="bold" font-size="11.00" fill="#000000">encontro</text>
<text text-anchor="start" x="528.0219" y="-393.2924" font-family="Helvetica,sans-Serif" font-size="11.00" fill="#000000">[table]</text>
<polygon fill="none" stroke="#000000" points="472.5,-366.1924 472.5,-385.1924 562.5,-385.1924 562.5,-366.1924 472.5,-366.1924"/>
<text text-anchor="start" x="475.5" y="-372.2924" font-family="Helvetica,sans-Serif" font-size="11.00" fill="#000000">...</text>
<polygon fill="#ffffff" stroke="transparent" points="472.5,-347.1924 472.5,-366.1924 511.5,-366.1924 511.5,-347.1924 472.5,-347.1924"/>
<polygon fill="none" stroke="#000000" points="472.5,-347.1924 472.5,-366.1924 511.5,-366.1924 511.5,-347.1924 472.5,-347.1924"/>
<text text-anchor="start" x="475.5" y="-353.2924" font-family="Helvetica,sans-Serif" font-size="11.00" fill="#000000">&lt; 4</text>
<polygon fill="#ffffff" stroke="transparent" points="511.5,-347.1924 511.5,-366.1924 532.5,-366.1924 532.5,-347.1924 511.5,-347.1924"/>
<polygon fill="none" stroke="#000000" points="511.5,-347.1924 511.5,-366.1924 532.5,-366.1924 532.5,-347.1924 511.5,-347.1924"/>
<text text-anchor="start" x="523.3862" y="-353.2924" font-family="Helvetica,sans-Serif" font-size="11.00" fill="#000000"> &#160;</text>
<polygon fill="#ffffff" stroke="transparent" points="532.5,-347.1924 532.5,-366.1924 562.5,-366.1924 562.5,-347.1924 532.5,-347.1924"/>
<polygon fill="none" stroke="#000000" points="532.5,-347.1924 532.5,-366.1924 562.5,-366.1924 562.5,-347.1924 532.5,-347.1924"/>
<text text-anchor="start" x="543.9053" y="-353.2924" font-family="Helvetica,sans-Serif" font-size="11.00" fill="#000000">2 &gt;</text>
</a>
</g>
</g>
<!-- agendamentos&#45;&gt;encontro -->
<g id="edge1" class="edge">
<title>agendamentos:w&#45;&gt;encontro:e</title>
<path fill="none" stroke="#000000" d="M614.0619,-378.1924C599.4147,-378.1924 584.3346,-378.1924 570.5729,-378.1924"/>
<polygon fill="#000000" stroke="#000000" points="620.5,-378.1925 628.5,-381.7924 624.5,-378.1924 628.5,-378.1924 628.5,-378.1924 628.5,-378.1924 624.5,-378.1924 628.5,-374.5924 620.5,-378.1925 620.5,-378.1925"/>
<ellipse fill="none" stroke="#000000" cx="617.3" cy="-378.1925" rx="3.2" ry="3.2"/>
</g>
<!-- grupo -->
<g id="node3" class="node">
<title>grupo</title>
<g id="a_node3"><a xlink:href="../../tables/grupo.html" xlink:title="grupo" target="_top">
<polygon fill="#ffffff" stroke="transparent" points="297,-402.6924 297,-463.6924 369,-463.6924 369,-402.6924 297,-402.6924"/>
<polygon fill="#f5f5f5" stroke="transparent" points="297,-440.1924 297,-463.1924 369,-463.1924 369,-440.1924 297,-440.1924"/>
<polygon fill="none" stroke="#000000" points="297,-440.1924 297,-463.1924 369,-463.1924 369,-440.1924 297,-440.1924"/>
<text text-anchor="start" x="302" y="-448.7924" font-family="Helvetica,sans-Serif" font-weight="bold" font-size="11.00" fill="#000000">grupo</text>
<text text-anchor="start" x="334.5219" y="-448.2924" font-family="Helvetica,sans-Serif" font-size="11.00" fill="#000000">[table]</text>
<polygon fill="none" stroke="#000000" points="297,-421.1924 297,-440.1924 369,-440.1924 369,-421.1924 297,-421.1924"/>
<text text-anchor="start" x="300" y="-427.2924" font-family="Helvetica,sans-Serif" font-size="11.00" fill="#000000">...</text>
<polygon fill="#ffffff" stroke="transparent" points="297,-402.1924 297,-421.1924 327,-421.1924 327,-402.1924 297,-402.1924"/>
<polygon fill="none" stroke="#000000" points="297,-402.1924 297,-421.1924 327,-421.1924 327,-402.1924 297,-402.1924"/>
<text text-anchor="start" x="300" y="-408.2924" font-family="Helvetica,sans-Serif" font-size="11.00" fill="#000000">&lt; 2</text>
<polygon fill="#ffffff" stroke="transparent" points="327,-402.1924 327,-421.1924 343,-421.1924 343,-402.1924 327,-402.1924"/>
<polygon fill="none" stroke="#000000" points="327,-402.1924 327,-421.1924 343,-421.1924 343,-402.1924 327,-402.1924"/>
<text text-anchor="start" x="333.8862" y="-408.2924" font-family="Helvetica,sans-Serif" font-size="11.00" fill="#000000"> &#160;</text>
<polygon fill="#ffffff" stroke="transparent" points="343,-402.1924 343,-421.1924 369,-421.1924 369,-402.1924 343,-402.1924"/>
<polygon fill="none" stroke="#000000" points="343,-402.1924 343,-421.1924 369,-421.1924 369,-402.1924 343,-402.1924"/>
<text text-anchor="start" x="350.4053" y="-408.2924" font-family="Helvetica,sans-Serif" font-size="11.00" fill="#000000">2 &gt;</text>
</a>
</g>
</g>
<!-- encontro&#45;&gt;grupo -->
<g id="edge2" class="edge">
<title>encontro:w&#45;&gt;grupo:e</title>
<path fill="none" stroke="#000000" d="M450.9443,-412.1011C425.9087,-421.9903 396.7729,-430.1924 369,-430.1924"/>
<polygon fill="#000000" stroke="#000000" points="457.0159,-409.5618 465.7854,-409.7962 460.7061,-408.0184 464.3963,-406.4749 464.3963,-406.4749 464.3963,-406.4749 460.7061,-408.0184 463.0073,-403.1537 457.0159,-409.5618 457.0159,-409.5618"/>
<ellipse fill="none" stroke="#000000" cx="454.0637" cy="-410.7965" rx="3.2" ry="3.2"/>
</g>
<!-- turma -->
<g id="node4" class="node">
<title>turma</title>
<g id="a_node4"><a xlink:href="../../tables/turma.html" xlink:title="turma" target="_top">
<polygon fill="#ffffff" stroke="transparent" points="259,-71.1924 259,-271.1924 407,-271.1924 407,-71.1924 259,-71.1924"/>
<polygon fill="#f5f5f5" stroke="transparent" points="261,-246.1924 261,-269.1924 405,-269.1924 405,-246.1924 261,-246.1924"/>
<polygon fill="none" stroke="#000000" points="261,-246.1924 261,-269.1924 405,-269.1924 405,-246.1924 261,-246.1924"/>
<text text-anchor="start" x="266" y="-254.7924" font-family="Helvetica,sans-Serif" font-weight="bold" font-size="11.00" fill="#000000">turma</text>
<text text-anchor="start" x="370.0437" y="-254.2924" font-family="Helvetica,sans-Serif" font-size="11.00" fill="#000000">[table]</text>
<polygon fill="none" stroke="#000000" points="261,-224.1924 261,-246.1924 338,-246.1924 338,-224.1924 261,-224.1924"/>
<image xlink:href="../../images/primaryKeys.png" width="11px" height="12px" preserveAspectRatio="xMinYMin meet" x="266" y="-241.192"/>
<text text-anchor="start" x="281" y="-231.2924" font-family="Helvetica,sans-Serif" font-size="11.00" fill="#000000">id</text>
<polygon fill="none" stroke="#000000" points="338,-224.1924 338,-246.1924 405,-246.1924 405,-224.1924 338,-224.1924"/>
<text text-anchor="start" x="341" y="-231.8924" font-family="Helvetica,sans-Serif" font-size="11.00" fill="#000000">serial[10]</text>
<polygon fill="none" stroke="#000000" points="261,-202.1924 261,-224.1924 338,-224.1924 338,-202.1924 261,-202.1924"/>
<text text-anchor="start" x="281" y="-209.2924" font-family="Helvetica,sans-Serif" font-size="11.00" fill="#000000">descricao</text>
<polygon fill="none" stroke="#000000" points="338,-202.1924 338,-224.1924 405,-224.1924 405,-202.1924 338,-202.1924"/>
<text text-anchor="start" x="340.9365" y="-209.8924" font-family="Helvetica,sans-Serif" font-size="11.00" fill="#000000">varchar[255]</text>
<polygon fill="#ffffff" stroke="transparent" points="261,-180.1924 261,-202.1924 338,-202.1924 338,-180.1924 261,-180.1924"/>
<polygon fill="none" stroke="#000000" points="261,-180.1924 261,-202.1924 338,-202.1924 338,-180.1924 261,-180.1924"/>
<text text-anchor="start" x="281" y="-187.2924" font-family="Helvetica,sans-Serif" font-size="11.00" fill="#000000">nome</text>
<polygon fill="none" stroke="#000000" points="338,-180.1924 338,-202.1924 405,-202.1924 405,-180.1924 338,-180.1924"/>
<text text-anchor="start" x="340.9365" y="-187.8924" font-family="Helvetica,sans-Serif" font-size="11.00" fill="#000000">varchar[100]</text>
<polygon fill="none" stroke="#000000" points="261,-158.1924 261,-180.1924 338,-180.1924 338,-158.1924 261,-158.1924"/>
<text text-anchor="start" x="281" y="-165.2924" font-family="Helvetica,sans-Serif" font-size="11.00" fill="#000000">turno</text>
<polygon fill="none" stroke="#000000" points="338,-158.1924 338,-180.1924 405,-180.1924 405,-158.1924 338,-158.1924"/>
<text text-anchor="start" x="341" y="-165.8924" font-family="Helvetica,sans-Serif" font-size="11.00" fill="#000000">int2[5]</text>
<polygon fill="none" stroke="#000000" points="261,-136.1924 261,-158.1924 338,-158.1924 338,-136.1924 261,-136.1924"/>
<text text-anchor="start" x="281" y="-143.2924" font-family="Helvetica,sans-Serif" font-size="11.00" fill="#000000">disciplina</text>
<polygon fill="none" stroke="#000000" points="338,-136.1924 338,-158.1924 405,-158.1924 405,-136.1924 338,-136.1924"/>
<text text-anchor="start" x="340.9365" y="-143.8924" font-family="Helvetica,sans-Serif" font-size="11.00" fill="#000000">varchar[100]</text>
<polygon fill="none" stroke="#000000" points="261,-114.1924 261,-136.1924 338,-136.1924 338,-114.1924 261,-114.1924"/>
<image xlink:href="../../images/foreignKeys.png" width="11px" height="12px" preserveAspectRatio="xMinYMin meet" x="266" y="-131.192"/>
<text text-anchor="start" x="281" y="-121.2924" font-family="Helvetica,sans-Serif" font-size="11.00" fill="#000000">id_user</text>
<polygon fill="none" stroke="#000000" points="338,-114.1924 338,-136.1924 405,-136.1924 405,-114.1924 338,-114.1924"/>
<text text-anchor="start" x="341" y="-121.8924" font-family="Helvetica,sans-Serif" font-size="11.00" fill="#000000">int4[10]</text>
<polygon fill="none" stroke="#000000" points="261,-92.1924 261,-114.1924 338,-114.1924 338,-92.1924 261,-92.1924"/>
<image xlink:href="../../images/foreignKeys.png" width="11px" height="12px" preserveAspectRatio="xMinYMin meet" x="266" y="-109.192"/>
<text text-anchor="start" x="281" y="-99.2924" font-family="Helvetica,sans-Serif" font-size="11.00" fill="#000000">id_curso</text>
<polygon fill="none" stroke="#000000" points="338,-92.1924 338,-114.1924 405,-114.1924 405,-92.1924 338,-92.1924"/>
<text text-anchor="start" x="341" y="-99.8924" font-family="Helvetica,sans-Serif" font-size="11.00" fill="#000000">int4[10]</text>
<polygon fill="#ffffff" stroke="transparent" points="261,-73.1924 261,-92.1924 304,-92.1924 304,-73.1924 261,-73.1924"/>
<polygon fill="none" stroke="#000000" points="261,-73.1924 261,-92.1924 304,-92.1924 304,-73.1924 261,-73.1924"/>
<text text-anchor="start" x="264" y="-79.2924" font-family="Helvetica,sans-Serif" font-size="11.00" fill="#000000">&lt; 2</text>
<polygon fill="#ffffff" stroke="transparent" points="304,-73.1924 304,-92.1924 338,-92.1924 338,-73.1924 304,-73.1924"/>
<polygon fill="none" stroke="#000000" points="304,-73.1924 304,-92.1924 338,-92.1924 338,-73.1924 304,-73.1924"/>
<text text-anchor="start" x="328.8862" y="-79.2924" font-family="Helvetica,sans-Serif" font-size="11.00" fill="#000000"> &#160;</text>
<polygon fill="#ffffff" stroke="transparent" points="338,-73.1924 338,-92.1924 405,-92.1924 405,-73.1924 338,-73.1924"/>
<polygon fill="none" stroke="#000000" points="338,-73.1924 338,-92.1924 405,-92.1924 405,-73.1924 338,-73.1924"/>
<text text-anchor="start" x="386.4053" y="-79.2924" font-family="Helvetica,sans-Serif" font-size="11.00" fill="#000000">2 &gt;</text>
<polygon fill="none" stroke="#000000" stroke-width="2" points="260,-72.1924 260,-270.1924 406,-270.1924 406,-72.1924 260,-72.1924"/>
</a>
</g>
</g>
<!-- encontro&#45;&gt;turma -->
<g id="edge3" class="edge">
<title>encontro:w&#45;&gt;turma:e</title>
<path fill="none" stroke="#000000" d="M502.0753,-330.0407C485.404,-288.5173 454.3814,-235.1924 405,-235.1924"/>
<polygon fill="#000000" stroke="#000000" points="504.3594,-336.0916 503.8167,-344.8475 505.772,-339.8338 507.1847,-343.5761 507.1847,-343.5761 507.1847,-343.5761 505.772,-339.8338 510.5527,-342.3047 504.3594,-336.0916 504.3594,-336.0916"/>
<ellipse fill="none" stroke="#000000" cx="503.2293" cy="-333.0978" rx="3.2" ry="3.2"/>
</g>
<!-- usuario -->
<g id="node5" class="node">
<title>usuario</title>
<g id="a_node5"><a xlink:href="../../tables/usuario.html" xlink:title="usuario" target="_top">
<polygon fill="#ffffff" stroke="transparent" points="128,-303.6924 128,-364.6924 210,-364.6924 210,-303.6924 128,-303.6924"/>
<polygon fill="#f5f5f5" stroke="transparent" points="128,-341.1924 128,-364.1924 210,-364.1924 210,-341.1924 128,-341.1924"/>
<polygon fill="none" stroke="#000000" points="128,-341.1924 128,-364.1924 210,-364.1924 210,-341.1924 128,-341.1924"/>
<text text-anchor="start" x="133" y="-349.7924" font-family="Helvetica,sans-Serif" font-weight="bold" font-size="11.00" fill="#000000">usuario</text>
<text text-anchor="start" x="175.5219" y="-349.2924" font-family="Helvetica,sans-Serif" font-size="11.00" fill="#000000">[table]</text>
<polygon fill="none" stroke="#000000" points="128,-322.1924 128,-341.1924 210,-341.1924 210,-322.1924 128,-322.1924"/>
<text text-anchor="start" x="131" y="-328.2924" font-family="Helvetica,sans-Serif" font-size="11.00" fill="#000000">...</text>
<polygon fill="#ffffff" stroke="transparent" points="128,-303.1924 128,-322.1924 163,-322.1924 163,-303.1924 128,-303.1924"/>
<polygon fill="none" stroke="#000000" points="128,-303.1924 128,-322.1924 163,-322.1924 163,-303.1924 128,-303.1924"/>
<text text-anchor="start" x="131" y="-309.2924" font-family="Helvetica,sans-Serif" font-size="11.00" fill="#000000">&lt; 1</text>
<polygon fill="#ffffff" stroke="transparent" points="163,-303.1924 163,-322.1924 182,-322.1924 182,-303.1924 163,-303.1924"/>
<polygon fill="none" stroke="#000000" points="163,-303.1924 163,-322.1924 182,-322.1924 182,-303.1924 163,-303.1924"/>
<text text-anchor="start" x="172.8862" y="-309.2924" font-family="Helvetica,sans-Serif" font-size="11.00" fill="#000000"> &#160;</text>
<polygon fill="#ffffff" stroke="transparent" points="182,-303.1924 182,-322.1924 210,-322.1924 210,-303.1924 182,-303.1924"/>
<polygon fill="none" stroke="#000000" points="182,-303.1924 182,-322.1924 210,-322.1924 210,-303.1924 182,-303.1924"/>
<text text-anchor="start" x="191.4053" y="-309.2924" font-family="Helvetica,sans-Serif" font-size="11.00" fill="#000000">6 &gt;</text>
</a>
</g>
</g>
<!-- encontro&#45;&gt;usuario -->
<g id="edge4" class="edge">
<title>encontro:w&#45;&gt;usuario:e</title>
<path fill="none" stroke="#000000" d="M449.6671,-380.1583C395.3841,-380.4118 317.5944,-377.8031 251,-364.1924 240.1581,-361.9765 228.8317,-358.5849 218.1788,-354.8684"/>
<polygon fill="#000000" stroke="#000000" points="456.3258,-380.0945 464.36,-383.6176 460.3257,-380.0561 464.3255,-380.0177 464.3255,-380.0177 464.3255,-380.0177 460.3257,-380.0561 464.2909,-376.4179 456.3258,-380.0945 456.3258,-380.0945"/>
<ellipse fill="none" stroke="#000000" cx="453.126" cy="-380.1252" rx="3.2" ry="3.2"/>
</g>
<!-- grupo&#45;&gt;usuario -->
<g id="edge6" class="edge">
<title>grupo:w&#45;&gt;usuario:e</title>
<path fill="none" stroke="#000000" d="M282.3772,-428.8628C246.2486,-422.3474 214.8433,-393.1262 194.306,-368.8506"/>
<polygon fill="#000000" stroke="#000000" points="289.0329,-429.4679 296.674,-433.7776 293.0164,-429.8301 297,-430.1924 297,-430.1924 297,-430.1924 293.0164,-429.8301 297.326,-426.6072 289.0329,-429.4679 289.0329,-429.4679"/>
<ellipse fill="none" stroke="#000000" cx="285.846" cy="-429.1781" rx="3.2" ry="3.2"/>
</g>
<!-- curso -->
<g id="node6" class="node">
<title>curso</title>
<g id="a_node6"><a xlink:href="../../tables/curso.html" xlink:title="curso" target="_top">
<polygon fill="#ffffff" stroke="transparent" points="8,-303.6924 8,-364.6924 79,-364.6924 79,-303.6924 8,-303.6924"/>
<polygon fill="#f5f5f5" stroke="transparent" points="8.5,-341.1924 8.5,-364.1924 79.5,-364.1924 79.5,-341.1924 8.5,-341.1924"/>
<polygon fill="none" stroke="#000000" points="8.5,-341.1924 8.5,-364.1924 79.5,-364.1924 79.5,-341.1924 8.5,-341.1924"/>
<text text-anchor="start" x="13.5" y="-349.7924" font-family="Helvetica,sans-Serif" font-weight="bold" font-size="11.00" fill="#000000">curso</text>
<text text-anchor="start" x="45.0219" y="-349.2924" font-family="Helvetica,sans-Serif" font-size="11.00" fill="#000000">[table]</text>
<polygon fill="none" stroke="#000000" points="8.5,-322.1924 8.5,-341.1924 79.5,-341.1924 79.5,-322.1924 8.5,-322.1924"/>
<text text-anchor="start" x="11.5" y="-328.2924" font-family="Helvetica,sans-Serif" font-size="11.00" fill="#000000">...</text>
<polygon fill="#ffffff" stroke="transparent" points="8.5,-303.1924 8.5,-322.1924 33.5,-322.1924 33.5,-303.1924 8.5,-303.1924"/>
<polygon fill="none" stroke="#000000" points="8.5,-303.1924 8.5,-322.1924 33.5,-322.1924 33.5,-303.1924 8.5,-303.1924"/>
<text text-anchor="start" x="11.5" y="-309.2924" font-family="Helvetica,sans-Serif" font-size="11.00" fill="#000000"> &#160;</text>
<polygon fill="#ffffff" stroke="transparent" points="33.5,-303.1924 33.5,-322.1924 51.5,-322.1924 51.5,-303.1924 33.5,-303.1924"/>
<polygon fill="none" stroke="#000000" points="33.5,-303.1924 33.5,-322.1924 51.5,-322.1924 51.5,-303.1924 33.5,-303.1924"/>
<text text-anchor="start" x="42.3862" y="-309.2924" font-family="Helvetica,sans-Serif" font-size="11.00" fill="#000000"> &#160;</text>
<polygon fill="#ffffff" stroke="transparent" points="51.5,-303.1924 51.5,-322.1924 79.5,-322.1924 79.5,-303.1924 51.5,-303.1924"/>
<polygon fill="none" stroke="#000000" points="51.5,-303.1924 51.5,-322.1924 79.5,-322.1924 79.5,-303.1924 51.5,-303.1924"/>
<text text-anchor="start" x="60.9053" y="-309.2924" font-family="Helvetica,sans-Serif" font-size="11.00" fill="#000000">3 &gt;</text>
</a>
</g>
</g>
<!-- grupo&#45;&gt;curso -->
<g id="edge5" class="edge">
<title>grupo:w&#45;&gt;curso:e</title>
<path fill="none" stroke="#000000" d="M282.3891,-429.7376C209.1241,-425.2524 133.418,-388.54 87.3876,-361.9596"/>
<polygon fill="#000000" stroke="#000000" points="289.0039,-429.9434 296.888,-433.7907 293.0019,-430.0679 297,-430.1924 297,-430.1924 297,-430.1924 293.0019,-430.0679 297.112,-426.5941 289.0039,-429.9434 289.0039,-429.9434"/>
<ellipse fill="none" stroke="#000000" cx="285.8054" cy="-429.8439" rx="3.2" ry="3.2"/>
</g>
<!-- turma&#45;&gt;usuario -->
<g id="edge9" class="edge">
<title>turma:w&#45;&gt;usuario:e</title>
<path fill="none" stroke="#000000" d="M251.978,-136.6474C234.7716,-167.2211 201.0359,-251.6807 182.3144,-299.6803"/>
<polygon fill="#000000" stroke="#000000" points="256.0501,-131.4772 263.8282,-127.4199 258.525,-128.3348 261,-125.1924 261,-125.1924 261,-125.1924 258.525,-128.3348 258.1718,-122.9649 256.0501,-131.4772 256.0501,-131.4772"/>
<ellipse fill="none" stroke="#000000" cx="254.0701" cy="-133.9911" rx="3.2" ry="3.2"/>
</g>
<!-- turma&#45;&gt;curso -->
<g id="edge8" class="edge">
<title>turma:w&#45;&gt;curso:e</title>
<path fill="none" stroke="#000000" d="M246.557,-104.0072C148.1018,-115.1651 83.422,-238.1259 57.0028,-299.6094"/>
<polygon fill="#000000" stroke="#000000" points="253.0127,-103.643 261.2028,-106.7867 257.0064,-103.4177 261,-103.1924 261,-103.1924 261,-103.1924 257.0064,-103.4177 260.7972,-99.5981 253.0127,-103.643 253.0127,-103.643"/>
<ellipse fill="none" stroke="#000000" cx="249.8178" cy="-103.8233" rx="3.2" ry="3.2"/>
</g>
<!-- usuario&#45;&gt;curso -->
<g id="edge10" class="edge">
<title>usuario:w&#45;&gt;curso:e</title>
<path fill="none" stroke="#000000" d="M105.2372,-334.1924C99.169,-334.1924 93.1134,-334.1924 87.2974,-334.1924"/>
<polygon fill="#000000" stroke="#000000" points="111.7593,-334.1925 119.7593,-337.7924 115.7593,-334.1924 119.7593,-334.1924 119.7593,-334.1924 119.7593,-334.1924 115.7593,-334.1924 119.7593,-330.5924 111.7593,-334.1925 111.7593,-334.1925"/>
<ellipse fill="none" stroke="#000000" cx="108.5593" cy="-334.1925" rx="3.2" ry="3.2"/>
</g>
<!-- token -->
<g id="node7" class="node">
<title>token</title>
<g id="a_node7"><a xlink:href="../../tables/token.html" xlink:title="token" target="_top">
<polygon fill="#ffffff" stroke="transparent" points="297.5,-292.6924 297.5,-353.6924 368.5,-353.6924 368.5,-292.6924 297.5,-292.6924"/>
<polygon fill="#f5f5f5" stroke="transparent" points="298,-330.1924 298,-353.1924 369,-353.1924 369,-330.1924 298,-330.1924"/>
<polygon fill="none" stroke="#000000" points="298,-330.1924 298,-353.1924 369,-353.1924 369,-330.1924 298,-330.1924"/>
<text text-anchor="start" x="303" y="-338.7924" font-family="Helvetica,sans-Serif" font-weight="bold" font-size="11.00" fill="#000000">token</text>
<text text-anchor="start" x="334.5219" y="-338.2924" font-family="Helvetica,sans-Serif" font-size="11.00" fill="#000000">[table]</text>
<polygon fill="none" stroke="#000000" points="298,-311.1924 298,-330.1924 369,-330.1924 369,-311.1924 298,-311.1924"/>
<text text-anchor="start" x="301" y="-317.2924" font-family="Helvetica,sans-Serif" font-size="11.00" fill="#000000">...</text>
<polygon fill="#ffffff" stroke="transparent" points="298,-292.1924 298,-311.1924 332,-311.1924 332,-292.1924 298,-292.1924"/>
<polygon fill="none" stroke="#000000" points="298,-292.1924 298,-311.1924 332,-311.1924 332,-292.1924 298,-292.1924"/>
<text text-anchor="start" x="301" y="-298.2924" font-family="Helvetica,sans-Serif" font-size="11.00" fill="#000000">&lt; 1</text>
<polygon fill="#ffffff" stroke="transparent" points="332,-292.1924 332,-311.1924 350,-311.1924 350,-292.1924 332,-292.1924"/>
<polygon fill="none" stroke="#000000" points="332,-292.1924 332,-311.1924 350,-311.1924 350,-292.1924 332,-292.1924"/>
<text text-anchor="start" x="340.8862" y="-298.2924" font-family="Helvetica,sans-Serif" font-size="11.00" fill="#000000"> &#160;</text>
<polygon fill="#ffffff" stroke="transparent" points="350,-292.1924 350,-311.1924 369,-311.1924 369,-292.1924 350,-292.1924"/>
<polygon fill="none" stroke="#000000" points="350,-292.1924 350,-311.1924 369,-311.1924 369,-292.1924 350,-292.1924"/>
<text text-anchor="start" x="359.8862" y="-298.2924" font-family="Helvetica,sans-Serif" font-size="11.00" fill="#000000"> &#160;</text>
</a>
</g>
</g>
<!-- token&#45;&gt;usuario -->
<g id="edge7" class="edge">
<title>token:w&#45;&gt;usuario:e</title>
<path fill="none" stroke="#000000" d="M283.5002,-320.4624C261.1561,-321.2601 237.8693,-323.7152 218.1759,-326.333"/>
<polygon fill="#000000" stroke="#000000" points="290.0014,-320.3414 298.067,-323.7918 294.0007,-320.2669 298,-320.1924 298,-320.1924 298,-320.1924 294.0007,-320.2669 297.933,-316.593 290.0014,-320.3414 290.0014,-320.3414"/>
<ellipse fill="none" stroke="#000000" cx="286.8019" cy="-320.401" rx="3.2" ry="3.2"/>
</g>
<!-- usuario_grupo -->
<g id="node8" class="node">
<title>usuario_grupo</title>
<g id="a_node8"><a xlink:href="../../tables/usuario_grupo.html" xlink:title="usuario_grupo" target="_top">
<polygon fill="#ffffff" stroke="transparent" points="456,-444.6924 456,-505.6924 579,-505.6924 579,-444.6924 456,-444.6924"/>
<polygon fill="#f5f5f5" stroke="transparent" points="456.5,-482.1924 456.5,-505.1924 579.5,-505.1924 579.5,-482.1924 456.5,-482.1924"/>
<polygon fill="none" stroke="#000000" points="456.5,-482.1924 456.5,-505.1924 579.5,-505.1924 579.5,-482.1924 456.5,-482.1924"/>
<text text-anchor="start" x="461.5" y="-490.7924" font-family="Helvetica,sans-Serif" font-weight="bold" font-size="11.00" fill="#000000">usuario_grupo</text>
<text text-anchor="start" x="545.0219" y="-490.2924" font-family="Helvetica,sans-Serif" font-size="11.00" fill="#000000">[table]</text>
<polygon fill="none" stroke="#000000" points="456.5,-463.1924 456.5,-482.1924 579.5,-482.1924 579.5,-463.1924 456.5,-463.1924"/>
<text text-anchor="start" x="459.5" y="-469.2924" font-family="Helvetica,sans-Serif" font-size="11.00" fill="#000000">...</text>
<polygon fill="#ffffff" stroke="transparent" points="456.5,-444.1924 456.5,-463.1924 516.5,-463.1924 516.5,-444.1924 456.5,-444.1924"/>
<polygon fill="none" stroke="#000000" points="456.5,-444.1924 456.5,-463.1924 516.5,-463.1924 516.5,-444.1924 456.5,-444.1924"/>
<text text-anchor="start" x="459.5" y="-450.2924" font-family="Helvetica,sans-Serif" font-size="11.00" fill="#000000">&lt; 2</text>
<polygon fill="#ffffff" stroke="transparent" points="516.5,-444.1924 516.5,-463.1924 547.5,-463.1924 547.5,-444.1924 516.5,-444.1924"/>
<polygon fill="none" stroke="#000000" points="516.5,-444.1924 516.5,-463.1924 547.5,-463.1924 547.5,-444.1924 516.5,-444.1924"/>
<text text-anchor="start" x="538.3862" y="-450.2924" font-family="Helvetica,sans-Serif" font-size="11.00" fill="#000000"> &#160;</text>
<polygon fill="#ffffff" stroke="transparent" points="547.5,-444.1924 547.5,-463.1924 579.5,-463.1924 579.5,-444.1924 547.5,-444.1924"/>
<polygon fill="none" stroke="#000000" points="547.5,-444.1924 547.5,-463.1924 579.5,-463.1924 579.5,-444.1924 547.5,-444.1924"/>
<text text-anchor="start" x="570.3862" y="-450.2924" font-family="Helvetica,sans-Serif" font-size="11.00" fill="#000000"> &#160;</text>
</a>
</g>
</g>
<!-- usuario_grupo&#45;&gt;grupo -->
<g id="edge11" class="edge">
<title>usuario_grupo:w&#45;&gt;grupo:e</title>
<path fill="none" stroke="#000000" d="M442.1245,-470.3877C412.4017,-462.3486 406.7448,-430.1924 369,-430.1924"/>
<polygon fill="#000000" stroke="#000000" points="448.5623,-471.1959 456.0516,-475.7644 452.5312,-471.6941 456.5,-472.1924 456.5,-472.1924 456.5,-472.1924 452.5312,-471.6941 456.9484,-468.6204 448.5623,-471.1959 448.5623,-471.1959"/>
<ellipse fill="none" stroke="#000000" cx="445.3872" cy="-470.7972" rx="3.2" ry="3.2"/>
</g>
<!-- usuario_grupo&#45;&gt;usuario -->
<g id="edge12" class="edge">
<title>usuario_grupo:w&#45;&gt;usuario:e</title>
<path fill="none" stroke="#000000" d="M442.0046,-472.5949C361.2105,-477.1014 325.9095,-517.1298 251,-474.1924 211.7771,-451.7102 189.5043,-402.3887 178.3451,-368.719"/>
<polygon fill="#000000" stroke="#000000" points="448.5031,-472.4145 456.6,-475.791 452.5015,-472.3035 456.5,-472.1924 456.5,-472.1924 456.5,-472.1924 452.5015,-472.3035 456.4,-468.5938 448.5031,-472.4145 448.5031,-472.4145"/>
<ellipse fill="none" stroke="#000000" cx="445.3043" cy="-472.5034" rx="3.2" ry="3.2"/>
</g>
<!-- usuario_turma -->
<g id="node9" class="node">
<title>usuario_turma</title>
<g id="a_node9"><a xlink:href="../../tables/usuario_turma.html" xlink:title="usuario_turma" target="_top">
<polygon fill="#ffffff" stroke="transparent" points="456.5,-110.6924 456.5,-171.6924 578.5,-171.6924 578.5,-110.6924 456.5,-110.6924"/>
<polygon fill="#f5f5f5" stroke="transparent" points="456.5,-148.1924 456.5,-171.1924 578.5,-171.1924 578.5,-148.1924 456.5,-148.1924"/>
<polygon fill="none" stroke="#000000" points="456.5,-148.1924 456.5,-171.1924 578.5,-171.1924 578.5,-148.1924 456.5,-148.1924"/>
<text text-anchor="start" x="461.5" y="-156.7924" font-family="Helvetica,sans-Serif" font-weight="bold" font-size="11.00" fill="#000000">usuario_turma</text>
<text text-anchor="start" x="544.0219" y="-156.2924" font-family="Helvetica,sans-Serif" font-size="11.00" fill="#000000">[table]</text>
<polygon fill="none" stroke="#000000" points="456.5,-129.1924 456.5,-148.1924 578.5,-148.1924 578.5,-129.1924 456.5,-129.1924"/>
<text text-anchor="start" x="459.5" y="-135.2924" font-family="Helvetica,sans-Serif" font-size="11.00" fill="#000000">...</text>
<polygon fill="#ffffff" stroke="transparent" points="456.5,-110.1924 456.5,-129.1924 515.5,-129.1924 515.5,-110.1924 456.5,-110.1924"/>
<polygon fill="none" stroke="#000000" points="456.5,-110.1924 456.5,-129.1924 515.5,-129.1924 515.5,-110.1924 456.5,-110.1924"/>
<text text-anchor="start" x="459.5" y="-116.2924" font-family="Helvetica,sans-Serif" font-size="11.00" fill="#000000">&lt; 2</text>
<polygon fill="#ffffff" stroke="transparent" points="515.5,-110.1924 515.5,-129.1924 546.5,-129.1924 546.5,-110.1924 515.5,-110.1924"/>
<polygon fill="none" stroke="#000000" points="515.5,-110.1924 515.5,-129.1924 546.5,-129.1924 546.5,-110.1924 515.5,-110.1924"/>
<text text-anchor="start" x="537.3862" y="-116.2924" font-family="Helvetica,sans-Serif" font-size="11.00" fill="#000000"> &#160;</text>
<polygon fill="#ffffff" stroke="transparent" points="546.5,-110.1924 546.5,-129.1924 578.5,-129.1924 578.5,-110.1924 546.5,-110.1924"/>
<polygon fill="none" stroke="#000000" points="546.5,-110.1924 546.5,-129.1924 578.5,-129.1924 578.5,-110.1924 546.5,-110.1924"/>
<text text-anchor="start" x="569.3862" y="-116.2924" font-family="Helvetica,sans-Serif" font-size="11.00" fill="#000000"> &#160;</text>
</a>
</g>
</g>
<!-- usuario_turma&#45;&gt;turma -->
<g id="edge13" class="edge">
<title>usuario_turma:w&#45;&gt;turma:e</title>
<path fill="none" stroke="#000000" d="M486.3067,-187.4566C466.2899,-211.1993 437.9183,-235.1924 405,-235.1924"/>
<polygon fill="#000000" stroke="#000000" points="490.4758,-182.1968 498.2665,-178.1637 492.9605,-179.0621 495.4452,-175.9275 495.4452,-175.9275 495.4452,-175.9275 492.9605,-179.0621 492.624,-173.6912 490.4758,-182.1968 490.4758,-182.1968"/>
<ellipse fill="none" stroke="#000000" cx="488.488" cy="-184.7046" rx="3.2" ry="3.2"/>
</g>
<!-- usuario_turma&#45;&gt;usuario -->
<g id="edge14" class="edge">
<title>usuario_turma:w&#45;&gt;usuario:e</title>
<path fill="none" stroke="#000000" d="M474.3549,-96.5772C457.3865,-82.0625 436.7594,-67.7522 415,-60.1924 346.1482,-36.2713 309.4637,-16.6632 251,-60.1924 212.2183,-89.0673 184.9866,-232.5812 174.1758,-299.6018"/>
<polygon fill="#000000" stroke="#000000" points="479.5356,-101.2316 483.0808,-109.2561 482.5112,-103.9048 485.4867,-106.5781 485.4867,-106.5781 485.4867,-106.5781 482.5112,-103.9048 487.8926,-103.9001 479.5356,-101.2316 479.5356,-101.2316"/>
<ellipse fill="none" stroke="#000000" cx="477.1552" cy="-99.093" rx="3.2" ry="3.2"/>
</g>
</g>
</svg>
