<?xml version="1.0" encoding="UTF-8" standalone="no"?>
<!DOCTYPE svg PUBLIC "-//W3C//DTD SVG 1.1//EN"
 "http://www.w3.org/Graphics/SVG/1.1/DTD/svg11.dtd">
<!-- Generated by graphviz version 2.40.1 (20161225.0304)
 -->
<!-- Title: oneDegreeRelationshipsDiagram Pages: 1 -->
<svg width="610pt" height="355pt"
 viewBox="0.00 0.00 610.00 354.70" xmlns="http://www.w3.org/2000/svg" xmlns:xlink="http://www.w3.org/1999/xlink">
<g id="graph0" class="graph" transform="scale(1 1) rotate(0) translate(4 350.7)">
<title>oneDegreeRelationshipsDiagram</title>
<polygon fill="#ffffff" stroke="transparent" points="-4,4 -4,-350.7 606,-350.7 606,4 -4,4"/>
<text text-anchor="middle" x="72.4936" y="-7.3" font-family="Helvetica,sans-Serif" font-size="11.00" fill="#000000">Generated by SchemaSpy</text>
<!-- encontro -->
<g id="node1" class="node">
<title>encontro</title>
<g id="a_node1"><a xlink:href="../../tables/encontro.html" xlink:title="encontro" target="_top">
<polygon fill="#ffffff" stroke="transparent" points="488,-38.2 488,-209.2 578,-209.2 578,-38.2 488,-38.2"/>
<polygon fill="#f5f5f5" stroke="transparent" points="488,-185.7 488,-208.7 578,-208.7 578,-185.7 488,-185.7"/>
<polygon fill="none" stroke="#000000" points="488,-185.7 488,-208.7 578,-208.7 578,-185.7 488,-185.7"/>
<text text-anchor="start" x="493" y="-194.3" font-family="Helvetica,sans-Serif" font-weight="bold" font-size="11.00" fill="#000000">encontro</text>
<text text-anchor="start" x="543.5219" y="-193.8" font-family="Helvetica,sans-Serif" font-size="11.00" fill="#000000">[table]</text>
<polygon fill="none" stroke="#000000" points="488,-163.7 488,-185.7 578,-185.7 578,-163.7 488,-163.7"/>
<image xlink:href="../../images/primaryKeys.png" width="11px" height="12px" preserveAspectRatio="xMinYMin meet" x="493" y="-180.7"/>
<text text-anchor="start" x="509" y="-170.8" font-family="Helvetica,sans-Serif" font-size="11.00" fill="#000000">id</text>
<polygon fill="none" stroke="#000000" points="488,-141.7 488,-163.7 578,-163.7 578,-141.7 488,-141.7"/>
<image xlink:href="../../images/foreignKeys.png" width="11px" height="12px" preserveAspectRatio="xMinYMin meet" x="493" y="-158.7"/>
<text text-anchor="start" x="509" y="-148.8" font-family="Helvetica,sans-Serif" font-size="11.00" fill="#000000">id_grupo</text>
<polygon fill="none" stroke="#000000" points="488,-119.7 488,-141.7 578,-141.7 578,-119.7 488,-119.7"/>
<image xlink:href="../../images/foreignKeys.png" width="11px" height="12px" preserveAspectRatio="xMinYMin meet" x="493" y="-136.7"/>
<text text-anchor="start" x="509" y="-126.8" font-family="Helvetica,sans-Serif" font-size="11.00" fill="#000000">id_turma</text>
<polygon fill="none" stroke="#000000" points="488,-97.7 488,-119.7 578,-119.7 578,-97.7 488,-97.7"/>
<image xlink:href="../../images/foreignKeys.png" width="11px" height="12px" preserveAspectRatio="xMinYMin meet" x="493" y="-114.7"/>
<text text-anchor="start" x="509" y="-104.8" font-family="Helvetica,sans-Serif" font-size="11.00" fill="#000000">id_encontro</text>
<polygon fill="none" stroke="#000000" points="488,-75.7 488,-97.7 578,-97.7 578,-75.7 488,-75.7"/>
<image xlink:href="../../images/foreignKeys.png" width="11px" height="12px" preserveAspectRatio="xMinYMin meet" x="493" y="-92.7"/>
<text text-anchor="start" x="509" y="-82.8" font-family="Helvetica,sans-Serif" font-size="11.00" fill="#000000">id_user</text>
<polygon fill="none" stroke="#000000" points="488,-56.7 488,-75.7 578,-75.7 578,-56.7 488,-56.7"/>
<text text-anchor="start" x="491" y="-62.8" font-family="Helvetica,sans-Serif" font-size="11.00" fill="#000000">...</text>
<polygon fill="#ffffff" stroke="transparent" points="488,-37.7 488,-56.7 527,-56.7 527,-37.7 488,-37.7"/>
<polygon fill="none" stroke="#000000" points="488,-37.7 488,-56.7 527,-56.7 527,-37.7 488,-37.7"/>
<text text-anchor="start" x="491" y="-43.8" font-family="Helvetica,sans-Serif" font-size="11.00" fill="#000000">&lt; 4</text>
<polygon fill="#ffffff" stroke="transparent" points="527,-37.7 527,-56.7 548,-56.7 548,-37.7 527,-37.7"/>
<polygon fill="none" stroke="#000000" points="527,-37.7 527,-56.7 548,-56.7 548,-37.7 527,-37.7"/>
<text text-anchor="start" x="538.8862" y="-43.8" font-family="Helvetica,sans-Serif" font-size="11.00" fill="#000000"> &#160;</text>
<polygon fill="#ffffff" stroke="transparent" points="548,-37.7 548,-56.7 578,-56.7 578,-37.7 548,-37.7"/>
<polygon fill="none" stroke="#000000" points="548,-37.7 548,-56.7 578,-56.7 578,-37.7 548,-37.7"/>
<text text-anchor="start" x="559.4053" y="-43.8" font-family="Helvetica,sans-Serif" font-size="11.00" fill="#000000">2 &gt;</text>
</a>
</g>
</g>
<!-- turma -->
<g id="node2" class="node">
<title>turma</title>
<g id="a_node2"><a xlink:href="../../tables/turma.html" xlink:title="turma" target="_top">
<polygon fill="#ffffff" stroke="transparent" points="275,-103.7 275,-303.7 423,-303.7 423,-103.7 275,-103.7"/>
<polygon fill="#f5f5f5" stroke="transparent" points="277,-278.7 277,-301.7 421,-301.7 421,-278.7 277,-278.7"/>
<polygon fill="none" stroke="#000000" points="277,-278.7 277,-301.7 421,-301.7 421,-278.7 277,-278.7"/>
<text text-anchor="start" x="282" y="-287.3" font-family="Helvetica,sans-Serif" font-weight="bold" font-size="11.00" fill="#000000">turma</text>
<text text-anchor="start" x="386.0437" y="-286.8" font-family="Helvetica,sans-Serif" font-size="11.00" fill="#000000">[table]</text>
<polygon fill="none" stroke="#000000" points="277,-256.7 277,-278.7 354,-278.7 354,-256.7 277,-256.7"/>
<image xlink:href="../../images/primaryKeys.png" width="11px" height="12px" preserveAspectRatio="xMinYMin meet" x="282" y="-273.7"/>
<text text-anchor="start" x="297" y="-263.8" font-family="Helvetica,sans-Serif" font-size="11.00" fill="#000000">id</text>
<polygon fill="none" stroke="#000000" points="354,-256.7 354,-278.7 421,-278.7 421,-256.7 354,-256.7"/>
<text text-anchor="start" x="357" y="-264.4" font-family="Helvetica,sans-Serif" font-size="11.00" fill="#000000">serial[10]</text>
<polygon fill="none" stroke="#000000" points="277,-234.7 277,-256.7 354,-256.7 354,-234.7 277,-234.7"/>
<text text-anchor="start" x="297" y="-241.8" font-family="Helvetica,sans-Serif" font-size="11.00" fill="#000000">descricao</text>
<polygon fill="none" stroke="#000000" points="354,-234.7 354,-256.7 421,-256.7 421,-234.7 354,-234.7"/>
<text text-anchor="start" x="356.9365" y="-242.4" font-family="Helvetica,sans-Serif" font-size="11.00" fill="#000000">varchar[255]</text>
<polygon fill="#ffffff" stroke="transparent" points="277,-212.7 277,-234.7 354,-234.7 354,-212.7 277,-212.7"/>
<polygon fill="none" stroke="#000000" points="277,-212.7 277,-234.7 354,-234.7 354,-212.7 277,-212.7"/>
<text text-anchor="start" x="297" y="-219.8" font-family="Helvetica,sans-Serif" font-size="11.00" fill="#000000">nome</text>
<polygon fill="none" stroke="#000000" points="354,-212.7 354,-234.7 421,-234.7 421,-212.7 354,-212.7"/>
<text text-anchor="start" x="356.9365" y="-220.4" font-family="Helvetica,sans-Serif" font-size="11.00" fill="#000000">varchar[100]</text>
<polygon fill="none" stroke="#000000" points="277,-190.7 277,-212.7 354,-212.7 354,-190.7 277,-190.7"/>
<text text-anchor="start" x="297" y="-197.8" font-family="Helvetica,sans-Serif" font-size="11.00" fill="#000000">turno</text>
<polygon fill="none" stroke="#000000" points="354,-190.7 354,-212.7 421,-212.7 421,-190.7 354,-190.7"/>
<text text-anchor="start" x="357" y="-198.4" font-family="Helvetica,sans-Serif" font-size="11.00" fill="#000000">int2[5]</text>
<polygon fill="none" stroke="#000000" points="277,-168.7 277,-190.7 354,-190.7 354,-168.7 277,-168.7"/>
<text text-anchor="start" x="297" y="-175.8" font-family="Helvetica,sans-Serif" font-size="11.00" fill="#000000">disciplina</text>
<polygon fill="none" stroke="#000000" points="354,-168.7 354,-190.7 421,-190.7 421,-168.7 354,-168.7"/>
<text text-anchor="start" x="356.9365" y="-176.4" font-family="Helvetica,sans-Serif" font-size="11.00" fill="#000000">varchar[100]</text>
<polygon fill="none" stroke="#000000" points="277,-146.7 277,-168.7 354,-168.7 354,-146.7 277,-146.7"/>
<image xlink:href="../../images/foreignKeys.png" width="11px" height="12px" preserveAspectRatio="xMinYMin meet" x="282" y="-163.7"/>
<text text-anchor="start" x="297" y="-153.8" font-family="Helvetica,sans-Serif" font-size="11.00" fill="#000000">id_user</text>
<polygon fill="none" stroke="#000000" points="354,-146.7 354,-168.7 421,-168.7 421,-146.7 354,-146.7"/>
<text text-anchor="start" x="357" y="-154.4" font-family="Helvetica,sans-Serif" font-size="11.00" fill="#000000">int4[10]</text>
<polygon fill="none" stroke="#000000" points="277,-124.7 277,-146.7 354,-146.7 354,-124.7 277,-124.7"/>
<image xlink:href="../../images/foreignKeys.png" width="11px" height="12px" preserveAspectRatio="xMinYMin meet" x="282" y="-141.7"/>
<text text-anchor="start" x="297" y="-131.8" font-family="Helvetica,sans-Serif" font-size="11.00" fill="#000000">id_curso</text>
<polygon fill="none" stroke="#000000" points="354,-124.7 354,-146.7 421,-146.7 421,-124.7 354,-124.7"/>
<text text-anchor="start" x="357" y="-132.4" font-family="Helvetica,sans-Serif" font-size="11.00" fill="#000000">int4[10]</text>
<polygon fill="#ffffff" stroke="transparent" points="277,-105.7 277,-124.7 320,-124.7 320,-105.7 277,-105.7"/>
<polygon fill="none" stroke="#000000" points="277,-105.7 277,-124.7 320,-124.7 320,-105.7 277,-105.7"/>
<text text-anchor="start" x="280" y="-111.8" font-family="Helvetica,sans-Serif" font-size="11.00" fill="#000000">&lt; 2</text>
<polygon fill="#ffffff" stroke="transparent" points="320,-105.7 320,-124.7 354,-124.7 354,-105.7 320,-105.7"/>
<polygon fill="none" stroke="#000000" points="320,-105.7 320,-124.7 354,-124.7 354,-105.7 320,-105.7"/>
<text text-anchor="start" x="344.8862" y="-111.8" font-family="Helvetica,sans-Serif" font-size="11.00" fill="#000000"> &#160;</text>
<polygon fill="#ffffff" stroke="transparent" points="354,-105.7 354,-124.7 421,-124.7 421,-105.7 354,-105.7"/>
<polygon fill="none" stroke="#000000" points="354,-105.7 354,-124.7 421,-124.7 421,-105.7 354,-105.7"/>
<text text-anchor="start" x="402.4053" y="-111.8" font-family="Helvetica,sans-Serif" font-size="11.00" fill="#000000">2 &gt;</text>
<polygon fill="none" stroke="#000000" stroke-width="2" points="276,-104.7 276,-302.7 422,-302.7 422,-104.7 276,-104.7"/>
</a>
</g>
</g>
<!-- encontro&#45;&gt;turma -->
<g id="edge1" class="edge">
<title>encontro:w&#45;&gt;turma:e</title>
<path fill="none" stroke="#000000" d="M473.646,-133.4366C430.7741,-152.7454 483.0878,-267.7 421,-267.7"/>
<polygon fill="#000000" stroke="#000000" points="480.1415,-132.1983 488.6742,-134.2363 484.0708,-131.4491 488,-130.7 488,-130.7 488,-130.7 484.0708,-131.4491 487.3258,-127.1637 480.1415,-132.1983 480.1415,-132.1983"/>
<ellipse fill="none" stroke="#000000" cx="476.9982" cy="-132.7976" rx="3.2" ry="3.2"/>
</g>
<!-- usuario -->
<g id="node3" class="node">
<title>usuario</title>
<g id="a_node3"><a xlink:href="../../tables/usuario.html" xlink:title="usuario" target="_top">
<polygon fill="#ffffff" stroke="transparent" points="144,-79.2 144,-272.2 226,-272.2 226,-79.2 144,-79.2"/>
<polygon fill="#f5f5f5" stroke="transparent" points="144,-248.7 144,-271.7 226,-271.7 226,-248.7 144,-248.7"/>
<polygon fill="none" stroke="#000000" points="144,-248.7 144,-271.7 226,-271.7 226,-248.7 144,-248.7"/>
<text text-anchor="start" x="149" y="-257.3" font-family="Helvetica,sans-Serif" font-weight="bold" font-size="11.00" fill="#000000">usuario</text>
<text text-anchor="start" x="191.5219" y="-256.8" font-family="Helvetica,sans-Serif" font-size="11.00" fill="#000000">[table]</text>
<polygon fill="none" stroke="#000000" points="144,-226.7 144,-248.7 226,-248.7 226,-226.7 144,-226.7"/>
<image xlink:href="../../images/primaryKeys.png" width="11px" height="12px" preserveAspectRatio="xMinYMin meet" x="149" y="-243.7"/>
<text text-anchor="start" x="166" y="-233.8" font-family="Helvetica,sans-Serif" font-size="11.00" fill="#000000">id</text>
<polygon fill="#ffffff" stroke="transparent" points="144,-204.7 144,-226.7 226,-226.7 226,-204.7 144,-204.7"/>
<polygon fill="none" stroke="#000000" points="144,-204.7 144,-226.7 226,-226.7 226,-204.7 144,-204.7"/>
<text text-anchor="start" x="166" y="-211.8" font-family="Helvetica,sans-Serif" font-size="11.00" fill="#000000">matricula</text>
<polygon fill="#ffffff" stroke="transparent" points="144,-182.7 144,-204.7 226,-204.7 226,-182.7 144,-182.7"/>
<polygon fill="none" stroke="#000000" points="144,-182.7 144,-204.7 226,-204.7 226,-182.7 144,-182.7"/>
<text text-anchor="start" x="166" y="-189.8" font-family="Helvetica,sans-Serif" font-size="11.00" fill="#000000">email</text>
<polygon fill="#ffffff" stroke="transparent" points="144,-160.7 144,-182.7 226,-182.7 226,-160.7 144,-160.7"/>
<polygon fill="none" stroke="#000000" points="144,-160.7 144,-182.7 226,-182.7 226,-160.7 144,-160.7"/>
<text text-anchor="start" x="166" y="-167.8" font-family="Helvetica,sans-Serif" font-size="11.00" fill="#000000">nome</text>
<polygon fill="#ffffff" stroke="transparent" points="144,-138.7 144,-160.7 226,-160.7 226,-138.7 144,-138.7"/>
<polygon fill="none" stroke="#000000" points="144,-138.7 144,-160.7 226,-160.7 226,-138.7 144,-138.7"/>
<text text-anchor="start" x="166" y="-145.8" font-family="Helvetica,sans-Serif" font-size="11.00" fill="#000000">siape</text>
<polygon fill="none" stroke="#000000" points="144,-116.7 144,-138.7 226,-138.7 226,-116.7 144,-116.7"/>
<image xlink:href="../../images/foreignKeys.png" width="11px" height="12px" preserveAspectRatio="xMinYMin meet" x="149" y="-133.7"/>
<text text-anchor="start" x="166" y="-123.8" font-family="Helvetica,sans-Serif" font-size="11.00" fill="#000000">id_curso</text>
<polygon fill="none" stroke="#000000" points="144,-97.7 144,-116.7 226,-116.7 226,-97.7 144,-97.7"/>
<text text-anchor="start" x="147" y="-103.8" font-family="Helvetica,sans-Serif" font-size="11.00" fill="#000000">...</text>
<polygon fill="#ffffff" stroke="transparent" points="144,-78.7 144,-97.7 179,-97.7 179,-78.7 144,-78.7"/>
<polygon fill="none" stroke="#000000" points="144,-78.7 144,-97.7 179,-97.7 179,-78.7 144,-78.7"/>
<text text-anchor="start" x="147" y="-84.8" font-family="Helvetica,sans-Serif" font-size="11.00" fill="#000000">&lt; 1</text>
<polygon fill="#ffffff" stroke="transparent" points="179,-78.7 179,-97.7 198,-97.7 198,-78.7 179,-78.7"/>
<polygon fill="none" stroke="#000000" points="179,-78.7 179,-97.7 198,-97.7 198,-78.7 179,-78.7"/>
<text text-anchor="start" x="188.8862" y="-84.8" font-family="Helvetica,sans-Serif" font-size="11.00" fill="#000000"> &#160;</text>
<polygon fill="#ffffff" stroke="transparent" points="198,-78.7 198,-97.7 226,-97.7 226,-78.7 198,-78.7"/>
<polygon fill="none" stroke="#000000" points="198,-78.7 198,-97.7 226,-97.7 226,-78.7 198,-78.7"/>
<text text-anchor="start" x="207.4053" y="-84.8" font-family="Helvetica,sans-Serif" font-size="11.00" fill="#000000">6 &gt;</text>
</a>
</g>
</g>
<!-- encontro&#45;&gt;usuario -->
<g id="edge2" class="edge">
<title>encontro:w&#45;&gt;usuario:e</title>
<path fill="none" stroke="#000000" d="M473.4303,-86.3018C385.0685,-81.4772 340.6136,-35.4279 267,-92.7 214.1421,-133.8239 292.9712,-237.7 226,-237.7"/>
<polygon fill="#000000" stroke="#000000" points="480.003,-86.4814 487.9016,-90.2987 484.0015,-86.5907 488,-86.7 488,-86.7 488,-86.7 484.0015,-86.5907 488.0984,-83.1013 480.003,-86.4814 480.003,-86.4814"/>
<ellipse fill="none" stroke="#000000" cx="476.8042" cy="-86.3939" rx="3.2" ry="3.2"/>
</g>
<!-- turma&#45;&gt;usuario -->
<g id="edge4" class="edge">
<title>turma:w&#45;&gt;usuario:e</title>
<path fill="none" stroke="#000000" d="M262.9925,-162.2304C242.8919,-179.1539 262.0717,-237.7 226,-237.7"/>
<polygon fill="#000000" stroke="#000000" points="269.3882,-160.1619 278.1078,-161.1253 273.1941,-158.9309 277,-157.7 277,-157.7 277,-157.7 273.1941,-158.9309 275.8922,-154.2747 269.3882,-160.1619 269.3882,-160.1619"/>
<ellipse fill="none" stroke="#000000" cx="266.3435" cy="-161.1466" rx="3.2" ry="3.2"/>
</g>
<!-- curso -->
<g id="node4" class="node">
<title>curso</title>
<g id="a_node4"><a xlink:href="../../tables/curso.html" xlink:title="curso" target="_top">
<polygon fill="#ffffff" stroke="transparent" points="8,-42.2 8,-125.2 95,-125.2 95,-42.2 8,-42.2"/>
<polygon fill="#f5f5f5" stroke="transparent" points="8.5,-101.7 8.5,-124.7 95.5,-124.7 95.5,-101.7 8.5,-101.7"/>
<polygon fill="none" stroke="#000000" points="8.5,-101.7 8.5,-124.7 95.5,-124.7 95.5,-101.7 8.5,-101.7"/>
<text text-anchor="start" x="13.5" y="-110.3" font-family="Helvetica,sans-Serif" font-weight="bold" font-size="11.00" fill="#000000">curso</text>
<text text-anchor="start" x="60.5437" y="-109.8" font-family="Helvetica,sans-Serif" font-size="11.00" fill="#000000">[table]</text>
<polygon fill="none" stroke="#000000" points="8.5,-79.7 8.5,-101.7 95.5,-101.7 95.5,-79.7 8.5,-79.7"/>
<image xlink:href="../../images/primaryKeys.png" width="11px" height="12px" preserveAspectRatio="xMinYMin meet" x="13.5" y="-96.7"/>
<text text-anchor="start" x="28.5" y="-86.8" font-family="Helvetica,sans-Serif" font-size="11.00" fill="#000000">id</text>
<polygon fill="none" stroke="#000000" points="8.5,-60.7 8.5,-79.7 95.5,-79.7 95.5,-60.7 8.5,-60.7"/>
<text text-anchor="start" x="11.5" y="-66.8" font-family="Helvetica,sans-Serif" font-size="11.00" fill="#000000">...</text>
<polygon fill="#ffffff" stroke="transparent" points="8.5,-41.7 8.5,-60.7 41.5,-60.7 41.5,-41.7 8.5,-41.7"/>
<polygon fill="none" stroke="#000000" points="8.5,-41.7 8.5,-60.7 41.5,-60.7 41.5,-41.7 8.5,-41.7"/>
<text text-anchor="start" x="11.5" y="-47.8" font-family="Helvetica,sans-Serif" font-size="11.00" fill="#000000"> &#160;</text>
<polygon fill="#ffffff" stroke="transparent" points="41.5,-41.7 41.5,-60.7 63.5,-60.7 63.5,-41.7 41.5,-41.7"/>
<polygon fill="none" stroke="#000000" points="41.5,-41.7 41.5,-60.7 63.5,-60.7 63.5,-41.7 41.5,-41.7"/>
<text text-anchor="start" x="54.3862" y="-47.8" font-family="Helvetica,sans-Serif" font-size="11.00" fill="#000000"> &#160;</text>
<polygon fill="#ffffff" stroke="transparent" points="63.5,-41.7 63.5,-60.7 95.5,-60.7 95.5,-41.7 63.5,-41.7"/>
<polygon fill="none" stroke="#000000" points="63.5,-41.7 63.5,-60.7 95.5,-60.7 95.5,-41.7 63.5,-41.7"/>
<text text-anchor="start" x="76.9053" y="-47.8" font-family="Helvetica,sans-Serif" font-size="11.00" fill="#000000">3 &gt;</text>
</a>
</g>
</g>
<!-- turma&#45;&gt;curso -->
<g id="edge3" class="edge">
<title>turma:w&#45;&gt;curso:e</title>
<path fill="none" stroke="#000000" d="M262.9661,-131.3358C248.2791,-118.7869 259.4704,-82.6181 234,-68.7 195.7786,-47.8143 178.2143,-57.9745 136,-68.7 116.1465,-73.7442 115.9843,-90.7 95.5,-90.7"/>
<polygon fill="#000000" stroke="#000000" points="269.3609,-133.3244 275.931,-139.1376 273.1804,-134.5122 277,-135.7 277,-135.7 277,-135.7 273.1804,-134.5122 278.069,-132.2624 269.3609,-133.3244 269.3609,-133.3244"/>
<ellipse fill="none" stroke="#000000" cx="266.3052" cy="-132.3741" rx="3.2" ry="3.2"/>
</g>
<!-- usuario&#45;&gt;curso -->
<g id="edge5" class="edge">
<title>usuario:w&#45;&gt;curso:e</title>
<path fill="none" stroke="#000000" d="M130.2341,-123.1631C117.821,-113.283 116.6813,-90.7 95.5,-90.7"/>
<polygon fill="#000000" stroke="#000000" points="136.402,-125.1958 142.8731,-131.1191 140.201,-126.4479 144,-127.7 144,-127.7 144,-127.7 140.201,-126.4479 145.1269,-124.2809 136.402,-125.1958 136.402,-125.1958"/>
<ellipse fill="none" stroke="#000000" cx="133.3628" cy="-124.1942" rx="3.2" ry="3.2"/>
</g>
<!-- usuario_turma -->
<g id="node5" class="node">
<title>usuario_turma</title>
<g id="a_node5"><a xlink:href="../../tables/usuario_turma.html" xlink:title="usuario_turma" target="_top">
<polygon fill="#ffffff" stroke="transparent" points="472,-256.7 472,-342.7 594,-342.7 594,-256.7 472,-256.7"/>
<polygon fill="#f5f5f5" stroke="transparent" points="472,-319.7 472,-342.7 594,-342.7 594,-319.7 472,-319.7"/>
<polygon fill="none" stroke="#000000" points="472,-319.7 472,-342.7 594,-342.7 594,-319.7 472,-319.7"/>
<text text-anchor="start" x="477" y="-328.3" font-family="Helvetica,sans-Serif" font-weight="bold" font-size="11.00" fill="#000000">usuario_turma</text>
<text text-anchor="start" x="559.5219" y="-327.8" font-family="Helvetica,sans-Serif" font-size="11.00" fill="#000000">[table]</text>
<polygon fill="none" stroke="#000000" points="472,-297.7 472,-319.7 594,-319.7 594,-297.7 472,-297.7"/>
<image xlink:href="../../images/foreignKeys.png" width="11px" height="12px" preserveAspectRatio="xMinYMin meet" x="477" y="-314.7"/>
<text text-anchor="start" x="501" y="-304.8" font-family="Helvetica,sans-Serif" font-size="11.00" fill="#000000">id_usuario</text>
<polygon fill="none" stroke="#000000" points="472,-275.7 472,-297.7 594,-297.7 594,-275.7 472,-275.7"/>
<image xlink:href="../../images/foreignKeys.png" width="11px" height="12px" preserveAspectRatio="xMinYMin meet" x="477" y="-292.7"/>
<text text-anchor="start" x="501" y="-282.8" font-family="Helvetica,sans-Serif" font-size="11.00" fill="#000000">id_turma</text>
<polygon fill="#ffffff" stroke="transparent" points="472,-256.7 472,-275.7 531,-275.7 531,-256.7 472,-256.7"/>
<polygon fill="none" stroke="#000000" points="472,-256.7 472,-275.7 531,-275.7 531,-256.7 472,-256.7"/>
<text text-anchor="start" x="475" y="-262.8" font-family="Helvetica,sans-Serif" font-size="11.00" fill="#000000">&lt; 2</text>
<polygon fill="#ffffff" stroke="transparent" points="531,-256.7 531,-275.7 562,-275.7 562,-256.7 531,-256.7"/>
<polygon fill="none" stroke="#000000" points="531,-256.7 531,-275.7 562,-275.7 562,-256.7 531,-256.7"/>
<text text-anchor="start" x="552.8862" y="-262.8" font-family="Helvetica,sans-Serif" font-size="11.00" fill="#000000"> &#160;</text>
<polygon fill="#ffffff" stroke="transparent" points="562,-256.7 562,-275.7 594,-275.7 594,-256.7 562,-256.7"/>
<polygon fill="none" stroke="#000000" points="562,-256.7 562,-275.7 594,-275.7 594,-256.7 562,-256.7"/>
<text text-anchor="start" x="584.8862" y="-262.8" font-family="Helvetica,sans-Serif" font-size="11.00" fill="#000000"> &#160;</text>
</a>
</g>
</g>
<!-- usuario_turma&#45;&gt;turma -->
<g id="edge6" class="edge">
<title>usuario_turma:w&#45;&gt;turma:e</title>
<path fill="none" stroke="#000000" d="M457.6076,-283.8965C445.2761,-278.6113 439.3304,-267.7 421,-267.7"/>
<polygon fill="#000000" stroke="#000000" points="464.1476,-285.1704 471.3117,-290.2336 468.0738,-285.9352 472,-286.7 472,-286.7 472,-286.7 468.0738,-285.9352 472.6883,-283.1664 464.1476,-285.1704 464.1476,-285.1704"/>
<ellipse fill="none" stroke="#000000" cx="461.0066" cy="-284.5585" rx="3.2" ry="3.2"/>
</g>
<!-- usuario_turma&#45;&gt;usuario -->
<g id="edge7" class="edge">
<title>usuario_turma:w&#45;&gt;usuario:e</title>
<path fill="none" stroke="#000000" d="M457.4565,-309.9239C449.2933,-311.4021 443.3408,-313.8018 431,-314.7 358.3034,-319.9911 329.4891,-352.2221 267,-314.7 233.7607,-294.7411 264.7713,-237.7 226,-237.7"/>
<polygon fill="#000000" stroke="#000000" points="464.0282,-309.3709 472.3019,-312.2873 468.0141,-309.0355 472,-308.7 472,-308.7 472,-308.7 468.0141,-309.0355 471.6981,-305.1127 464.0282,-309.3709 464.0282,-309.3709"/>
<ellipse fill="none" stroke="#000000" cx="460.8395" cy="-309.6393" rx="3.2" ry="3.2"/>
</g>
</g>
</svg>
