<?xml version="1.0" encoding="UTF-8" standalone="no"?>
<!DOCTYPE svg PUBLIC "-//W3C//DTD SVG 1.1//EN"
 "http://www.w3.org/Graphics/SVG/1.1/DTD/svg11.dtd">
<!-- Generated by graphviz version 2.40.1 (20161225.0304)
 -->
<!-- Title: oneDegreeRelationshipsDiagram Pages: 1 -->
<svg width="655pt" height="368pt"
 viewBox="0.00 0.00 655.00 368.20" xmlns="http://www.w3.org/2000/svg" xmlns:xlink="http://www.w3.org/1999/xlink">
<g id="graph0" class="graph" transform="scale(1 1) rotate(0) translate(4 364.2)">
<title>oneDegreeRelationshipsDiagram</title>
<polygon fill="#ffffff" stroke="transparent" points="-4,4 -4,-364.2 651,-364.2 651,4 -4,4"/>
<text text-anchor="middle" x="72.4936" y="-7.3" font-family="Helvetica,sans-Serif" font-size="11.00" fill="#000000">Generated by SchemaSpy</text>
<!-- encontros -->
<g id="node1" class="node">
<title>encontros</title>
<g id="a_node1"><a xlink:href="../../tables/encontros.html" xlink:title="encontros" target="_top">
<polygon fill="#ffffff" stroke="transparent" points="529.5,-229.2 529.5,-356.2 626.5,-356.2 626.5,-229.2 529.5,-229.2"/>
<polygon fill="#f5f5f5" stroke="transparent" points="530,-332.7 530,-355.7 627,-355.7 627,-332.7 530,-332.7"/>
<polygon fill="none" stroke="#000000" points="530,-332.7 530,-355.7 627,-355.7 627,-332.7 530,-332.7"/>
<text text-anchor="start" x="535" y="-341.3" font-family="Helvetica,sans-Serif" font-weight="bold" font-size="11.00" fill="#000000">encontros</text>
<text text-anchor="start" x="592.5219" y="-340.8" font-family="Helvetica,sans-Serif" font-size="11.00" fill="#000000">[table]</text>
<polygon fill="none" stroke="#000000" points="530,-310.7 530,-332.7 627,-332.7 627,-310.7 530,-310.7"/>
<image xlink:href="../../images/primaryKeys.png" width="11px" height="12px" preserveAspectRatio="xMinYMin meet" x="535" y="-327.7"/>
<text text-anchor="start" x="559" y="-317.8" font-family="Helvetica,sans-Serif" font-size="11.00" fill="#000000">id</text>
<polygon fill="none" stroke="#000000" points="530,-288.7 530,-310.7 627,-310.7 627,-288.7 530,-288.7"/>
<image xlink:href="../../images/foreignKeys.png" width="11px" height="12px" preserveAspectRatio="xMinYMin meet" x="535" y="-305.7"/>
<text text-anchor="start" x="559" y="-295.8" font-family="Helvetica,sans-Serif" font-size="11.00" fill="#000000">id_grupo</text>
<polygon fill="none" stroke="#000000" points="530,-266.7 530,-288.7 627,-288.7 627,-266.7 530,-266.7"/>
<image xlink:href="../../images/foreignKeys.png" width="11px" height="12px" preserveAspectRatio="xMinYMin meet" x="535" y="-283.7"/>
<text text-anchor="start" x="559" y="-273.8" font-family="Helvetica,sans-Serif" font-size="11.00" fill="#000000">id_turma</text>
<polygon fill="none" stroke="#000000" points="530,-247.7 530,-266.7 627,-266.7 627,-247.7 530,-247.7"/>
<text text-anchor="start" x="533" y="-253.8" font-family="Helvetica,sans-Serif" font-size="11.00" fill="#000000">...</text>
<polygon fill="#ffffff" stroke="transparent" points="530,-228.7 530,-247.7 572,-247.7 572,-228.7 530,-228.7"/>
<polygon fill="none" stroke="#000000" points="530,-228.7 530,-247.7 572,-247.7 572,-228.7 530,-228.7"/>
<text text-anchor="start" x="533" y="-234.8" font-family="Helvetica,sans-Serif" font-size="11.00" fill="#000000">&lt; 2</text>
<polygon fill="#ffffff" stroke="transparent" points="572,-228.7 572,-247.7 595,-247.7 595,-228.7 572,-228.7"/>
<polygon fill="none" stroke="#000000" points="572,-228.7 572,-247.7 595,-247.7 595,-228.7 572,-228.7"/>
<text text-anchor="start" x="585.8862" y="-234.8" font-family="Helvetica,sans-Serif" font-size="11.00" fill="#000000"> &#160;</text>
<polygon fill="#ffffff" stroke="transparent" points="595,-228.7 595,-247.7 627,-247.7 627,-228.7 595,-228.7"/>
<polygon fill="none" stroke="#000000" points="595,-228.7 595,-247.7 627,-247.7 627,-228.7 595,-228.7"/>
<text text-anchor="start" x="608.4053" y="-234.8" font-family="Helvetica,sans-Serif" font-size="11.00" fill="#000000">2 &gt;</text>
</a>
</g>
</g>
<!-- turmas -->
<g id="node2" class="node">
<title>turmas</title>
<g id="a_node2"><a xlink:href="../../tables/turmas.html" xlink:title="turmas" target="_top">
<polygon fill="#ffffff" stroke="transparent" points="320,-113.7 320,-313.7 468,-313.7 468,-113.7 320,-113.7"/>
<polygon fill="#f5f5f5" stroke="transparent" points="322,-288.7 322,-311.7 466,-311.7 466,-288.7 322,-288.7"/>
<polygon fill="none" stroke="#000000" points="322,-288.7 322,-311.7 466,-311.7 466,-288.7 322,-288.7"/>
<text text-anchor="start" x="327" y="-297.3" font-family="Helvetica,sans-Serif" font-weight="bold" font-size="11.00" fill="#000000">turmas</text>
<text text-anchor="start" x="431.0437" y="-296.8" font-family="Helvetica,sans-Serif" font-size="11.00" fill="#000000">[table]</text>
<polygon fill="none" stroke="#000000" points="322,-266.7 322,-288.7 399,-288.7 399,-266.7 322,-266.7"/>
<image xlink:href="../../images/primaryKeys.png" width="11px" height="12px" preserveAspectRatio="xMinYMin meet" x="327" y="-283.7"/>
<text text-anchor="start" x="342" y="-273.8" font-family="Helvetica,sans-Serif" font-size="11.00" fill="#000000">id</text>
<polygon fill="none" stroke="#000000" points="399,-266.7 399,-288.7 466,-288.7 466,-266.7 399,-266.7"/>
<text text-anchor="start" x="402" y="-274.4" font-family="Helvetica,sans-Serif" font-size="11.00" fill="#000000">serial[10]</text>
<polygon fill="none" stroke="#000000" points="322,-244.7 322,-266.7 399,-266.7 399,-244.7 322,-244.7"/>
<image xlink:href="../../images/foreignKeys.png" width="11px" height="12px" preserveAspectRatio="xMinYMin meet" x="327" y="-261.7"/>
<text text-anchor="start" x="342" y="-251.8" font-family="Helvetica,sans-Serif" font-size="11.00" fill="#000000">id_curso</text>
<polygon fill="none" stroke="#000000" points="399,-244.7 399,-266.7 466,-266.7 466,-244.7 399,-244.7"/>
<text text-anchor="start" x="402" y="-252.4" font-family="Helvetica,sans-Serif" font-size="11.00" fill="#000000">int4[10]</text>
<polygon fill="none" stroke="#000000" points="322,-222.7 322,-244.7 399,-244.7 399,-222.7 322,-222.7"/>
<image xlink:href="../../images/foreignKeys.png" width="11px" height="12px" preserveAspectRatio="xMinYMin meet" x="327" y="-239.7"/>
<text text-anchor="start" x="342" y="-229.8" font-family="Helvetica,sans-Serif" font-size="11.00" fill="#000000">id_user</text>
<polygon fill="none" stroke="#000000" points="399,-222.7 399,-244.7 466,-244.7 466,-222.7 399,-222.7"/>
<text text-anchor="start" x="402" y="-230.4" font-family="Helvetica,sans-Serif" font-size="11.00" fill="#000000">int4[10]</text>
<polygon fill="none" stroke="#000000" points="322,-200.7 322,-222.7 399,-222.7 399,-200.7 322,-200.7"/>
<text text-anchor="start" x="342" y="-207.8" font-family="Helvetica,sans-Serif" font-size="11.00" fill="#000000">turno</text>
<polygon fill="none" stroke="#000000" points="399,-200.7 399,-222.7 466,-222.7 466,-200.7 399,-200.7"/>
<text text-anchor="start" x="402" y="-208.4" font-family="Helvetica,sans-Serif" font-size="11.00" fill="#000000">int2[5]</text>
<polygon fill="none" stroke="#000000" points="322,-178.7 322,-200.7 399,-200.7 399,-178.7 322,-178.7"/>
<text text-anchor="start" x="342" y="-185.8" font-family="Helvetica,sans-Serif" font-size="11.00" fill="#000000">disciplina</text>
<polygon fill="none" stroke="#000000" points="399,-178.7 399,-200.7 466,-200.7 466,-178.7 399,-178.7"/>
<text text-anchor="start" x="401.9365" y="-186.4" font-family="Helvetica,sans-Serif" font-size="11.00" fill="#000000">varchar[100]</text>
<polygon fill="#ffffff" stroke="transparent" points="322,-156.7 322,-178.7 399,-178.7 399,-156.7 322,-156.7"/>
<polygon fill="none" stroke="#000000" points="322,-156.7 322,-178.7 399,-178.7 399,-156.7 322,-156.7"/>
<text text-anchor="start" x="342" y="-163.8" font-family="Helvetica,sans-Serif" font-size="11.00" fill="#000000">nome</text>
<polygon fill="none" stroke="#000000" points="399,-156.7 399,-178.7 466,-178.7 466,-156.7 399,-156.7"/>
<text text-anchor="start" x="401.9365" y="-164.4" font-family="Helvetica,sans-Serif" font-size="11.00" fill="#000000">varchar[100]</text>
<polygon fill="none" stroke="#000000" points="322,-134.7 322,-156.7 399,-156.7 399,-134.7 322,-134.7"/>
<text text-anchor="start" x="342" y="-141.8" font-family="Helvetica,sans-Serif" font-size="11.00" fill="#000000">descricao</text>
<polygon fill="none" stroke="#000000" points="399,-134.7 399,-156.7 466,-156.7 466,-134.7 399,-134.7"/>
<text text-anchor="start" x="401.9365" y="-142.4" font-family="Helvetica,sans-Serif" font-size="11.00" fill="#000000">varchar[255]</text>
<polygon fill="#ffffff" stroke="transparent" points="322,-115.7 322,-134.7 365,-134.7 365,-115.7 322,-115.7"/>
<polygon fill="none" stroke="#000000" points="322,-115.7 322,-134.7 365,-134.7 365,-115.7 322,-115.7"/>
<text text-anchor="start" x="325" y="-121.8" font-family="Helvetica,sans-Serif" font-size="11.00" fill="#000000">&lt; 2</text>
<polygon fill="#ffffff" stroke="transparent" points="365,-115.7 365,-134.7 399,-134.7 399,-115.7 365,-115.7"/>
<polygon fill="none" stroke="#000000" points="365,-115.7 365,-134.7 399,-134.7 399,-115.7 365,-115.7"/>
<text text-anchor="start" x="389.8862" y="-121.8" font-family="Helvetica,sans-Serif" font-size="11.00" fill="#000000"> &#160;</text>
<polygon fill="#ffffff" stroke="transparent" points="399,-115.7 399,-134.7 466,-134.7 466,-115.7 399,-115.7"/>
<polygon fill="none" stroke="#000000" points="399,-115.7 399,-134.7 466,-134.7 466,-115.7 399,-115.7"/>
<text text-anchor="start" x="447.4053" y="-121.8" font-family="Helvetica,sans-Serif" font-size="11.00" fill="#000000">2 &gt;</text>
<polygon fill="none" stroke="#000000" stroke-width="2" points="321,-114.7 321,-312.7 467,-312.7 467,-114.7 321,-114.7"/>
</a>
</g>
</g>
<!-- encontros&#45;&gt;turmas -->
<g id="edge1" class="edge">
<title>encontros:w&#45;&gt;turmas:e</title>
<path fill="none" stroke="#000000" d="M515.4568,-277.7C497.964,-277.7 488.8889,-277.7 466,-277.7"/>
<polygon fill="#000000" stroke="#000000" points="522,-277.7001 530,-281.3 526,-277.7 530,-277.7 530,-277.7 530,-277.7 526,-277.7 530,-274.1 522,-277.7001 522,-277.7001"/>
<ellipse fill="none" stroke="#000000" cx="518.8" cy="-277.7001" rx="3.2" ry="3.2"/>
</g>
<!-- cursos -->
<g id="node3" class="node">
<title>cursos</title>
<g id="a_node3"><a xlink:href="../../tables/cursos.html" xlink:title="cursos" target="_top">
<polygon fill="#ffffff" stroke="transparent" points="8,-166.2 8,-249.2 95,-249.2 95,-166.2 8,-166.2"/>
<polygon fill="#f5f5f5" stroke="transparent" points="8.5,-225.7 8.5,-248.7 95.5,-248.7 95.5,-225.7 8.5,-225.7"/>
<polygon fill="none" stroke="#000000" points="8.5,-225.7 8.5,-248.7 95.5,-248.7 95.5,-225.7 8.5,-225.7"/>
<text text-anchor="start" x="13.5" y="-234.3" font-family="Helvetica,sans-Serif" font-weight="bold" font-size="11.00" fill="#000000">cursos</text>
<text text-anchor="start" x="60.5437" y="-233.8" font-family="Helvetica,sans-Serif" font-size="11.00" fill="#000000">[table]</text>
<polygon fill="none" stroke="#000000" points="8.5,-203.7 8.5,-225.7 95.5,-225.7 95.5,-203.7 8.5,-203.7"/>
<image xlink:href="../../images/primaryKeys.png" width="11px" height="12px" preserveAspectRatio="xMinYMin meet" x="13.5" y="-220.7"/>
<text text-anchor="start" x="28.5" y="-210.8" font-family="Helvetica,sans-Serif" font-size="11.00" fill="#000000">id</text>
<polygon fill="none" stroke="#000000" points="8.5,-184.7 8.5,-203.7 95.5,-203.7 95.5,-184.7 8.5,-184.7"/>
<text text-anchor="start" x="11.5" y="-190.8" font-family="Helvetica,sans-Serif" font-size="11.00" fill="#000000">...</text>
<polygon fill="#ffffff" stroke="transparent" points="8.5,-165.7 8.5,-184.7 41.5,-184.7 41.5,-165.7 8.5,-165.7"/>
<polygon fill="none" stroke="#000000" points="8.5,-165.7 8.5,-184.7 41.5,-184.7 41.5,-165.7 8.5,-165.7"/>
<text text-anchor="start" x="11.5" y="-171.8" font-family="Helvetica,sans-Serif" font-size="11.00" fill="#000000"> &#160;</text>
<polygon fill="#ffffff" stroke="transparent" points="41.5,-165.7 41.5,-184.7 63.5,-184.7 63.5,-165.7 41.5,-165.7"/>
<polygon fill="none" stroke="#000000" points="41.5,-165.7 41.5,-184.7 63.5,-184.7 63.5,-165.7 41.5,-165.7"/>
<text text-anchor="start" x="54.3862" y="-171.8" font-family="Helvetica,sans-Serif" font-size="11.00" fill="#000000"> &#160;</text>
<polygon fill="#ffffff" stroke="transparent" points="63.5,-165.7 63.5,-184.7 95.5,-184.7 95.5,-165.7 63.5,-165.7"/>
<polygon fill="none" stroke="#000000" points="63.5,-165.7 63.5,-184.7 95.5,-184.7 95.5,-165.7 63.5,-165.7"/>
<text text-anchor="start" x="76.9053" y="-171.8" font-family="Helvetica,sans-Serif" font-size="11.00" fill="#000000">3 &gt;</text>
</a>
</g>
</g>
<!-- turmas&#45;&gt;cursos -->
<g id="edge2" class="edge">
<title>turmas:w&#45;&gt;cursos:e</title>
<path fill="none" stroke="#000000" d="M307.557,-255.8311C235.91,-257.126 209.6393,-267.0521 136,-241.7 115.545,-234.6579 117.1333,-214.7 95.5,-214.7"/>
<polygon fill="#000000" stroke="#000000" points="314.0003,-255.7726 322.0327,-259.2999 318.0002,-255.7363 322,-255.7 322,-255.7 322,-255.7 318.0002,-255.7363 321.9673,-252.1001 314.0003,-255.7726 314.0003,-255.7726"/>
<ellipse fill="none" stroke="#000000" cx="310.8005" cy="-255.8017" rx="3.2" ry="3.2"/>
</g>
<!-- usuarios -->
<g id="node4" class="node">
<title>usuarios</title>
<g id="a_node4"><a xlink:href="../../tables/usuarios.html" xlink:title="usuarios" target="_top">
<polygon fill="#ffffff" stroke="transparent" points="144,-38.2 144,-231.2 271,-231.2 271,-38.2 144,-38.2"/>
<polygon fill="#f5f5f5" stroke="transparent" points="144.5,-207.7 144.5,-230.7 271.5,-230.7 271.5,-207.7 144.5,-207.7"/>
<polygon fill="none" stroke="#000000" points="144.5,-207.7 144.5,-230.7 271.5,-230.7 271.5,-207.7 144.5,-207.7"/>
<text text-anchor="start" x="149.5" y="-216.3" font-family="Helvetica,sans-Serif" font-weight="bold" font-size="11.00" fill="#000000">usuarios</text>
<text text-anchor="start" x="236.5437" y="-215.8" font-family="Helvetica,sans-Serif" font-size="11.00" fill="#000000">[table]</text>
<polygon fill="none" stroke="#000000" points="144.5,-185.7 144.5,-207.7 271.5,-207.7 271.5,-185.7 144.5,-185.7"/>
<image xlink:href="../../images/primaryKeys.png" width="11px" height="12px" preserveAspectRatio="xMinYMin meet" x="149.5" y="-202.7"/>
<text text-anchor="start" x="164.5" y="-192.8" font-family="Helvetica,sans-Serif" font-size="11.00" fill="#000000">id</text>
<polygon fill="none" stroke="#000000" points="144.5,-163.7 144.5,-185.7 271.5,-185.7 271.5,-163.7 144.5,-163.7"/>
<image xlink:href="../../images/foreignKeys.png" width="11px" height="12px" preserveAspectRatio="xMinYMin meet" x="149.5" y="-180.7"/>
<text text-anchor="start" x="164.5" y="-170.8" font-family="Helvetica,sans-Serif" font-size="11.00" fill="#000000">id_curso</text>
<polygon fill="#ffffff" stroke="transparent" points="144.5,-141.7 144.5,-163.7 271.5,-163.7 271.5,-141.7 144.5,-141.7"/>
<polygon fill="none" stroke="#000000" points="144.5,-141.7 144.5,-163.7 271.5,-163.7 271.5,-141.7 144.5,-141.7"/>
<text text-anchor="start" x="164.5" y="-148.8" font-family="Helvetica,sans-Serif" font-size="11.00" fill="#000000">nome</text>
<polygon fill="#ffffff" stroke="transparent" points="144.5,-119.7 144.5,-141.7 271.5,-141.7 271.5,-119.7 144.5,-119.7"/>
<polygon fill="none" stroke="#000000" points="144.5,-119.7 144.5,-141.7 271.5,-141.7 271.5,-119.7 144.5,-119.7"/>
<text text-anchor="start" x="164.5" y="-126.8" font-family="Helvetica,sans-Serif" font-size="11.00" fill="#000000">email</text>
<polygon fill="#ffffff" stroke="transparent" points="144.5,-97.7 144.5,-119.7 271.5,-119.7 271.5,-97.7 144.5,-97.7"/>
<polygon fill="none" stroke="#000000" points="144.5,-97.7 144.5,-119.7 271.5,-119.7 271.5,-97.7 144.5,-97.7"/>
<text text-anchor="start" x="164.5" y="-104.8" font-family="Helvetica,sans-Serif" font-size="11.00" fill="#000000">matricula</text>
<polygon fill="#ffffff" stroke="transparent" points="144.5,-75.7 144.5,-97.7 271.5,-97.7 271.5,-75.7 144.5,-75.7"/>
<polygon fill="none" stroke="#000000" points="144.5,-75.7 144.5,-97.7 271.5,-97.7 271.5,-75.7 144.5,-75.7"/>
<text text-anchor="start" x="164.5" y="-82.8" font-family="Helvetica,sans-Serif" font-size="11.00" fill="#000000">siape</text>
<polygon fill="none" stroke="#000000" points="144.5,-56.7 144.5,-75.7 271.5,-75.7 271.5,-56.7 144.5,-56.7"/>
<text text-anchor="start" x="147.5" y="-62.8" font-family="Helvetica,sans-Serif" font-size="11.00" fill="#000000">...</text>
<polygon fill="#ffffff" stroke="transparent" points="144.5,-37.7 144.5,-56.7 201.5,-56.7 201.5,-37.7 144.5,-37.7"/>
<polygon fill="none" stroke="#000000" points="144.5,-37.7 144.5,-56.7 201.5,-56.7 201.5,-37.7 144.5,-37.7"/>
<text text-anchor="start" x="147.5" y="-43.8" font-family="Helvetica,sans-Serif" font-size="11.00" fill="#000000">&lt; 1</text>
<polygon fill="#ffffff" stroke="transparent" points="201.5,-37.7 201.5,-56.7 231.5,-56.7 231.5,-37.7 201.5,-37.7"/>
<polygon fill="none" stroke="#000000" points="201.5,-37.7 201.5,-56.7 231.5,-56.7 231.5,-37.7 201.5,-37.7"/>
<text text-anchor="start" x="222.3862" y="-43.8" font-family="Helvetica,sans-Serif" font-size="11.00" fill="#000000"> &#160;</text>
<polygon fill="#ffffff" stroke="transparent" points="231.5,-37.7 231.5,-56.7 271.5,-56.7 271.5,-37.7 231.5,-37.7"/>
<polygon fill="none" stroke="#000000" points="231.5,-37.7 231.5,-56.7 271.5,-56.7 271.5,-37.7 231.5,-37.7"/>
<text text-anchor="start" x="252.9053" y="-43.8" font-family="Helvetica,sans-Serif" font-size="11.00" fill="#000000">6 &gt;</text>
</a>
</g>
</g>
<!-- turmas&#45;&gt;usuarios -->
<g id="edge3" class="edge">
<title>turmas:w&#45;&gt;usuarios:e</title>
<path fill="none" stroke="#000000" d="M308.1749,-229.4556C294.8807,-219.7369 293.4548,-196.7 271.5,-196.7"/>
<polygon fill="#000000" stroke="#000000" points="314.3523,-231.3521 320.9434,-237.1415 318.1761,-232.526 322,-233.7 322,-233.7 322,-233.7 318.1761,-232.526 323.0566,-230.2585 314.3523,-231.3521 314.3523,-231.3521"/>
<ellipse fill="none" stroke="#000000" cx="311.2932" cy="-230.4129" rx="3.2" ry="3.2"/>
</g>
<!-- usuarios&#45;&gt;cursos -->
<g id="edge6" class="edge">
<title>usuarios:w&#45;&gt;cursos:e</title>
<path fill="none" stroke="#000000" d="M130.7637,-179.2885C117.8632,-189.7952 117.6826,-214.7 95.5,-214.7"/>
<polygon fill="#000000" stroke="#000000" points="136.9121,-177.2347 145.6406,-178.1145 140.7061,-175.9673 144.5,-174.7 144.5,-174.7 144.5,-174.7 140.7061,-175.9673 143.3594,-171.2855 136.9121,-177.2347 136.9121,-177.2347"/>
<ellipse fill="none" stroke="#000000" cx="133.877" cy="-178.2486" rx="3.2" ry="3.2"/>
</g>
<!-- usuario_turma -->
<g id="node5" class="node">
<title>usuario_turma</title>
<g id="a_node5"><a xlink:href="../../tables/usuario_turma.html" xlink:title="usuario_turma" target="_top">
<polygon fill="#ffffff" stroke="transparent" points="517,-90.7 517,-176.7 639,-176.7 639,-90.7 517,-90.7"/>
<polygon fill="#f5f5f5" stroke="transparent" points="517,-153.7 517,-176.7 639,-176.7 639,-153.7 517,-153.7"/>
<polygon fill="none" stroke="#000000" points="517,-153.7 517,-176.7 639,-176.7 639,-153.7 517,-153.7"/>
<text text-anchor="start" x="522" y="-162.3" font-family="Helvetica,sans-Serif" font-weight="bold" font-size="11.00" fill="#000000">usuario_turma</text>
<text text-anchor="start" x="604.5219" y="-161.8" font-family="Helvetica,sans-Serif" font-size="11.00" fill="#000000">[table]</text>
<polygon fill="none" stroke="#000000" points="517,-131.7 517,-153.7 639,-153.7 639,-131.7 517,-131.7"/>
<image xlink:href="../../images/foreignKeys.png" width="11px" height="12px" preserveAspectRatio="xMinYMin meet" x="522" y="-148.7"/>
<text text-anchor="start" x="546" y="-138.8" font-family="Helvetica,sans-Serif" font-size="11.00" fill="#000000">id_turma</text>
<polygon fill="none" stroke="#000000" points="517,-109.7 517,-131.7 639,-131.7 639,-109.7 517,-109.7"/>
<image xlink:href="../../images/foreignKeys.png" width="11px" height="12px" preserveAspectRatio="xMinYMin meet" x="522" y="-126.7"/>
<text text-anchor="start" x="546" y="-116.8" font-family="Helvetica,sans-Serif" font-size="11.00" fill="#000000">id_usuario</text>
<polygon fill="#ffffff" stroke="transparent" points="517,-90.7 517,-109.7 576,-109.7 576,-90.7 517,-90.7"/>
<polygon fill="none" stroke="#000000" points="517,-90.7 517,-109.7 576,-109.7 576,-90.7 517,-90.7"/>
<text text-anchor="start" x="520" y="-96.8" font-family="Helvetica,sans-Serif" font-size="11.00" fill="#000000">&lt; 2</text>
<polygon fill="#ffffff" stroke="transparent" points="576,-90.7 576,-109.7 607,-109.7 607,-90.7 576,-90.7"/>
<polygon fill="none" stroke="#000000" points="576,-90.7 576,-109.7 607,-109.7 607,-90.7 576,-90.7"/>
<text text-anchor="start" x="597.8862" y="-96.8" font-family="Helvetica,sans-Serif" font-size="11.00" fill="#000000"> &#160;</text>
<polygon fill="#ffffff" stroke="transparent" points="607,-90.7 607,-109.7 639,-109.7 639,-90.7 607,-90.7"/>
<polygon fill="none" stroke="#000000" points="607,-90.7 607,-109.7 639,-109.7 639,-90.7 607,-90.7"/>
<text text-anchor="start" x="629.8862" y="-96.8" font-family="Helvetica,sans-Serif" font-size="11.00" fill="#000000"> &#160;</text>
</a>
</g>
</g>
<!-- usuario_turma&#45;&gt;turmas -->
<g id="edge4" class="edge">
<title>usuario_turma:w&#45;&gt;turmas:e</title>
<path fill="none" stroke="#000000" d="M502.4567,-146.0371C466.1079,-166.826 524.1257,-277.7 466,-277.7"/>
<polygon fill="#000000" stroke="#000000" points="509.2026,-144.4892 517.8051,-146.2088 513.1013,-143.5946 517,-142.7 517,-142.7 517,-142.7 513.1013,-143.5946 516.1949,-139.1912 509.2026,-144.4892 509.2026,-144.4892"/>
<ellipse fill="none" stroke="#000000" cx="506.0837" cy="-145.2049" rx="3.2" ry="3.2"/>
</g>
<!-- usuario_turma&#45;&gt;usuarios -->
<g id="edge5" class="edge">
<title>usuario_turma:w&#45;&gt;usuarios:e</title>
<path fill="none" stroke="#000000" d="M502.6464,-117.533C494.3681,-113.3903 489.3009,-106.3482 476,-103.7 404.5142,-89.4673 372.9672,-63.7527 312,-103.7 274.291,-128.4079 316.5826,-196.7 271.5,-196.7"/>
<polygon fill="#000000" stroke="#000000" points="509.1879,-118.9763 516.2243,-124.2154 513.0939,-119.8381 517,-120.7 517,-120.7 517,-120.7 513.0939,-119.8381 517.7757,-117.1846 509.1879,-118.9763 509.1879,-118.9763"/>
<ellipse fill="none" stroke="#000000" cx="506.0631" cy="-118.2868" rx="3.2" ry="3.2"/>
</g>
</g>
</svg>
