<?xml version="1.0" encoding="UTF-8" standalone="no"?>
<!DOCTYPE svg PUBLIC "-//W3C//DTD SVG 1.1//EN"
 "http://www.w3.org/Graphics/SVG/1.1/DTD/svg11.dtd">
<!-- Generated by graphviz version 2.40.1 (20161225.0304)
 -->
<!-- Title: oneDegreeRelationshipsDiagram Pages: 1 -->
<svg width="505pt" height="335pt"
 viewBox="0.00 0.00 505.00 335.20" xmlns="http://www.w3.org/2000/svg" xmlns:xlink="http://www.w3.org/1999/xlink">
<g id="graph0" class="graph" transform="scale(1 1) rotate(0) translate(4 331.2)">
<title>oneDegreeRelationshipsDiagram</title>
<polygon fill="#ffffff" stroke="transparent" points="-4,4 -4,-331.2 501,-331.2 501,4 -4,4"/>
<text text-anchor="middle" x="72.4936" y="-7.3" font-family="Helvetica,sans-Serif" font-size="11.00" fill="#000000">Generated by SchemaSpy</text>
<!-- grupos -->
<g id="node1" class="node">
<title>grupos</title>
<g id="a_node1"><a xlink:href="../../tables/grupos.html" xlink:title="grupos" target="_top">
<polygon fill="#ffffff" stroke="transparent" points="184,-174.2 184,-323.2 289,-323.2 289,-174.2 184,-174.2"/>
<polygon fill="#f5f5f5" stroke="transparent" points="184.5,-299.7 184.5,-322.7 289.5,-322.7 289.5,-299.7 184.5,-299.7"/>
<polygon fill="none" stroke="#000000" points="184.5,-299.7 184.5,-322.7 289.5,-322.7 289.5,-299.7 184.5,-299.7"/>
<text text-anchor="start" x="189.5" y="-308.3" font-family="Helvetica,sans-Serif" font-weight="bold" font-size="11.00" fill="#000000">grupos</text>
<text text-anchor="start" x="254.5437" y="-307.8" font-family="Helvetica,sans-Serif" font-size="11.00" fill="#000000">[table]</text>
<polygon fill="none" stroke="#000000" points="184.5,-277.7 184.5,-299.7 289.5,-299.7 289.5,-277.7 184.5,-277.7"/>
<image xlink:href="../../images/primaryKeys.png" width="11px" height="12px" preserveAspectRatio="xMinYMin meet" x="189.5" y="-294.7"/>
<text text-anchor="start" x="204.5" y="-284.8" font-family="Helvetica,sans-Serif" font-size="11.00" fill="#000000">id</text>
<polygon fill="none" stroke="#000000" points="184.5,-255.7 184.5,-277.7 289.5,-277.7 289.5,-255.7 184.5,-255.7"/>
<image xlink:href="../../images/foreignKeys.png" width="11px" height="12px" preserveAspectRatio="xMinYMin meet" x="189.5" y="-272.7"/>
<text text-anchor="start" x="204.5" y="-262.8" font-family="Helvetica,sans-Serif" font-size="11.00" fill="#000000">id_curso</text>
<polygon fill="none" stroke="#000000" points="184.5,-233.7 184.5,-255.7 289.5,-255.7 289.5,-233.7 184.5,-233.7"/>
<image xlink:href="../../images/foreignKeys.png" width="11px" height="12px" preserveAspectRatio="xMinYMin meet" x="189.5" y="-250.7"/>
<text text-anchor="start" x="204.5" y="-240.8" font-family="Helvetica,sans-Serif" font-size="11.00" fill="#000000">id_user</text>
<polygon fill="#ffffff" stroke="transparent" points="184.5,-211.7 184.5,-233.7 289.5,-233.7 289.5,-211.7 184.5,-211.7"/>
<polygon fill="none" stroke="#000000" points="184.5,-211.7 184.5,-233.7 289.5,-233.7 289.5,-211.7 184.5,-211.7"/>
<text text-anchor="start" x="204.5" y="-218.8" font-family="Helvetica,sans-Serif" font-size="11.00" fill="#000000">nome</text>
<polygon fill="none" stroke="#000000" points="184.5,-192.7 184.5,-211.7 289.5,-211.7 289.5,-192.7 184.5,-192.7"/>
<text text-anchor="start" x="187.5" y="-198.8" font-family="Helvetica,sans-Serif" font-size="11.00" fill="#000000">...</text>
<polygon fill="#ffffff" stroke="transparent" points="184.5,-173.7 184.5,-192.7 230.5,-192.7 230.5,-173.7 184.5,-173.7"/>
<polygon fill="none" stroke="#000000" points="184.5,-173.7 184.5,-192.7 230.5,-192.7 230.5,-173.7 184.5,-173.7"/>
<text text-anchor="start" x="187.5" y="-179.8" font-family="Helvetica,sans-Serif" font-size="11.00" fill="#000000">&lt; 2</text>
<polygon fill="#ffffff" stroke="transparent" points="230.5,-173.7 230.5,-192.7 255.5,-192.7 255.5,-173.7 230.5,-173.7"/>
<polygon fill="none" stroke="#000000" points="230.5,-173.7 230.5,-192.7 255.5,-192.7 255.5,-173.7 230.5,-173.7"/>
<text text-anchor="start" x="246.3862" y="-179.8" font-family="Helvetica,sans-Serif" font-size="11.00" fill="#000000"> &#160;</text>
<polygon fill="#ffffff" stroke="transparent" points="255.5,-173.7 255.5,-192.7 289.5,-192.7 289.5,-173.7 255.5,-173.7"/>
<polygon fill="none" stroke="#000000" points="255.5,-173.7 255.5,-192.7 289.5,-192.7 289.5,-173.7 255.5,-173.7"/>
<text text-anchor="start" x="270.9053" y="-179.8" font-family="Helvetica,sans-Serif" font-size="11.00" fill="#000000">2 &gt;</text>
</a>
</g>
</g>
<!-- usuarios -->
<g id="node2" class="node">
<title>usuarios</title>
<g id="a_node2"><a xlink:href="../../tables/usuarios.html" xlink:title="usuarios" target="_top">
<polygon fill="#ffffff" stroke="transparent" points="8,-38.2 8,-231.2 135,-231.2 135,-38.2 8,-38.2"/>
<polygon fill="#f5f5f5" stroke="transparent" points="8.5,-207.7 8.5,-230.7 135.5,-230.7 135.5,-207.7 8.5,-207.7"/>
<polygon fill="none" stroke="#000000" points="8.5,-207.7 8.5,-230.7 135.5,-230.7 135.5,-207.7 8.5,-207.7"/>
<text text-anchor="start" x="13.5" y="-216.3" font-family="Helvetica,sans-Serif" font-weight="bold" font-size="11.00" fill="#000000">usuarios</text>
<text text-anchor="start" x="100.5437" y="-215.8" font-family="Helvetica,sans-Serif" font-size="11.00" fill="#000000">[table]</text>
<polygon fill="none" stroke="#000000" points="8.5,-185.7 8.5,-207.7 135.5,-207.7 135.5,-185.7 8.5,-185.7"/>
<image xlink:href="../../images/primaryKeys.png" width="11px" height="12px" preserveAspectRatio="xMinYMin meet" x="13.5" y="-202.7"/>
<text text-anchor="start" x="28.5" y="-192.8" font-family="Helvetica,sans-Serif" font-size="11.00" fill="#000000">id</text>
<polygon fill="none" stroke="#000000" points="8.5,-163.7 8.5,-185.7 135.5,-185.7 135.5,-163.7 8.5,-163.7"/>
<image xlink:href="../../images/foreignKeys.png" width="11px" height="12px" preserveAspectRatio="xMinYMin meet" x="13.5" y="-180.7"/>
<text text-anchor="start" x="28.5" y="-170.8" font-family="Helvetica,sans-Serif" font-size="11.00" fill="#000000">id_curso</text>
<polygon fill="#ffffff" stroke="transparent" points="8.5,-141.7 8.5,-163.7 135.5,-163.7 135.5,-141.7 8.5,-141.7"/>
<polygon fill="none" stroke="#000000" points="8.5,-141.7 8.5,-163.7 135.5,-163.7 135.5,-141.7 8.5,-141.7"/>
<text text-anchor="start" x="28.5" y="-148.8" font-family="Helvetica,sans-Serif" font-size="11.00" fill="#000000">nome</text>
<polygon fill="#ffffff" stroke="transparent" points="8.5,-119.7 8.5,-141.7 135.5,-141.7 135.5,-119.7 8.5,-119.7"/>
<polygon fill="none" stroke="#000000" points="8.5,-119.7 8.5,-141.7 135.5,-141.7 135.5,-119.7 8.5,-119.7"/>
<text text-anchor="start" x="28.5" y="-126.8" font-family="Helvetica,sans-Serif" font-size="11.00" fill="#000000">email</text>
<polygon fill="#ffffff" stroke="transparent" points="8.5,-97.7 8.5,-119.7 135.5,-119.7 135.5,-97.7 8.5,-97.7"/>
<polygon fill="none" stroke="#000000" points="8.5,-97.7 8.5,-119.7 135.5,-119.7 135.5,-97.7 8.5,-97.7"/>
<text text-anchor="start" x="28.5" y="-104.8" font-family="Helvetica,sans-Serif" font-size="11.00" fill="#000000">matricula</text>
<polygon fill="#ffffff" stroke="transparent" points="8.5,-75.7 8.5,-97.7 135.5,-97.7 135.5,-75.7 8.5,-75.7"/>
<polygon fill="none" stroke="#000000" points="8.5,-75.7 8.5,-97.7 135.5,-97.7 135.5,-75.7 8.5,-75.7"/>
<text text-anchor="start" x="28.5" y="-82.8" font-family="Helvetica,sans-Serif" font-size="11.00" fill="#000000">siape</text>
<polygon fill="none" stroke="#000000" points="8.5,-56.7 8.5,-75.7 135.5,-75.7 135.5,-56.7 8.5,-56.7"/>
<text text-anchor="start" x="11.5" y="-62.8" font-family="Helvetica,sans-Serif" font-size="11.00" fill="#000000">...</text>
<polygon fill="#ffffff" stroke="transparent" points="8.5,-37.7 8.5,-56.7 65.5,-56.7 65.5,-37.7 8.5,-37.7"/>
<polygon fill="none" stroke="#000000" points="8.5,-37.7 8.5,-56.7 65.5,-56.7 65.5,-37.7 8.5,-37.7"/>
<text text-anchor="start" x="11.5" y="-43.8" font-family="Helvetica,sans-Serif" font-size="11.00" fill="#000000">&lt; 1</text>
<polygon fill="#ffffff" stroke="transparent" points="65.5,-37.7 65.5,-56.7 95.5,-56.7 95.5,-37.7 65.5,-37.7"/>
<polygon fill="none" stroke="#000000" points="65.5,-37.7 65.5,-56.7 95.5,-56.7 95.5,-37.7 65.5,-37.7"/>
<text text-anchor="start" x="86.3862" y="-43.8" font-family="Helvetica,sans-Serif" font-size="11.00" fill="#000000"> &#160;</text>
<polygon fill="#ffffff" stroke="transparent" points="95.5,-37.7 95.5,-56.7 135.5,-56.7 135.5,-37.7 95.5,-37.7"/>
<polygon fill="none" stroke="#000000" points="95.5,-37.7 95.5,-56.7 135.5,-56.7 135.5,-37.7 95.5,-37.7"/>
<text text-anchor="start" x="116.9053" y="-43.8" font-family="Helvetica,sans-Serif" font-size="11.00" fill="#000000">6 &gt;</text>
</a>
</g>
</g>
<!-- grupos&#45;&gt;usuarios -->
<g id="edge1" class="edge">
<title>grupos:w&#45;&gt;usuarios:e</title>
<path fill="none" stroke="#000000" d="M170.8634,-239.9221C157.071,-227.7811 160.0315,-196.7 135.5,-196.7"/>
<polygon fill="#000000" stroke="#000000" points="176.95,-242.0546 183.3096,-248.0975 180.725,-243.3773 184.5,-244.7 184.5,-244.7 184.5,-244.7 180.725,-243.3773 185.6904,-241.3025 176.95,-242.0546 176.95,-242.0546"/>
<ellipse fill="none" stroke="#000000" cx="173.93" cy="-240.9965" rx="3.2" ry="3.2"/>
</g>
<!-- usuario_grupo -->
<g id="node3" class="node">
<title>usuario_grupo</title>
<g id="a_node3"><a xlink:href="../../tables/usuario_grupo.html" xlink:title="usuario_grupo" target="_top">
<polygon fill="#ffffff" stroke="transparent" points="338,-175.7 338,-265.7 489,-265.7 489,-175.7 338,-175.7"/>
<polygon fill="#f5f5f5" stroke="transparent" points="340.5,-240.7 340.5,-263.7 487.5,-263.7 487.5,-240.7 340.5,-240.7"/>
<polygon fill="none" stroke="#000000" points="340.5,-240.7 340.5,-263.7 487.5,-263.7 487.5,-240.7 340.5,-240.7"/>
<text text-anchor="start" x="345.5" y="-249.3" font-family="Helvetica,sans-Serif" font-weight="bold" font-size="11.00" fill="#000000">usuario_grupo</text>
<text text-anchor="start" x="452.5437" y="-248.8" font-family="Helvetica,sans-Serif" font-size="11.00" fill="#000000">[table]</text>
<polygon fill="none" stroke="#000000" points="340.5,-218.7 340.5,-240.7 445.5,-240.7 445.5,-218.7 340.5,-218.7"/>
<image xlink:href="../../images/foreignKeys.png" width="11px" height="12px" preserveAspectRatio="xMinYMin meet" x="345.5" y="-235.7"/>
<text text-anchor="start" x="360.5" y="-225.8" font-family="Helvetica,sans-Serif" font-size="11.00" fill="#000000">id_grupo</text>
<polygon fill="none" stroke="#000000" points="445.5,-218.7 445.5,-240.7 487.5,-240.7 487.5,-218.7 445.5,-218.7"/>
<text text-anchor="start" x="448.4644" y="-226.4" font-family="Helvetica,sans-Serif" font-size="11.00" fill="#000000">int4[10]</text>
<polygon fill="none" stroke="#000000" points="340.5,-196.7 340.5,-218.7 445.5,-218.7 445.5,-196.7 340.5,-196.7"/>
<image xlink:href="../../images/foreignKeys.png" width="11px" height="12px" preserveAspectRatio="xMinYMin meet" x="345.5" y="-213.7"/>
<text text-anchor="start" x="360.5" y="-203.8" font-family="Helvetica,sans-Serif" font-size="11.00" fill="#000000">id_usuario</text>
<polygon fill="none" stroke="#000000" points="445.5,-196.7 445.5,-218.7 487.5,-218.7 487.5,-196.7 445.5,-196.7"/>
<text text-anchor="start" x="448.4644" y="-204.4" font-family="Helvetica,sans-Serif" font-size="11.00" fill="#000000">int4[10]</text>
<polygon fill="#ffffff" stroke="transparent" points="340.5,-177.7 340.5,-196.7 397.5,-196.7 397.5,-177.7 340.5,-177.7"/>
<polygon fill="none" stroke="#000000" points="340.5,-177.7 340.5,-196.7 397.5,-196.7 397.5,-177.7 340.5,-177.7"/>
<text text-anchor="start" x="343.5" y="-183.8" font-family="Helvetica,sans-Serif" font-size="11.00" fill="#000000">&lt; 2</text>
<polygon fill="#ffffff" stroke="transparent" points="397.5,-177.7 397.5,-196.7 445.5,-196.7 445.5,-177.7 397.5,-177.7"/>
<polygon fill="none" stroke="#000000" points="397.5,-177.7 397.5,-196.7 445.5,-196.7 445.5,-177.7 397.5,-177.7"/>
<text text-anchor="start" x="436.3862" y="-183.8" font-family="Helvetica,sans-Serif" font-size="11.00" fill="#000000"> &#160;</text>
<polygon fill="#ffffff" stroke="transparent" points="445.5,-177.7 445.5,-196.7 487.5,-196.7 487.5,-177.7 445.5,-177.7"/>
<polygon fill="none" stroke="#000000" points="445.5,-177.7 445.5,-196.7 487.5,-196.7 487.5,-177.7 445.5,-177.7"/>
<text text-anchor="start" x="468.9053" y="-183.8" font-family="Helvetica,sans-Serif" font-size="11.00" fill="#000000">0 &gt;</text>
<polygon fill="none" stroke="#000000" stroke-width="2" points="339,-176.7 339,-264.7 488,-264.7 488,-176.7 339,-176.7"/>
</a>
</g>
</g>
<!-- usuario_grupo&#45;&gt;grupos -->
<g id="edge2" class="edge">
<title>usuario_grupo:w&#45;&gt;grupos:e</title>
<path fill="none" stroke="#000000" d="M326.7854,-234.3296C310.572,-248.2383 318.2036,-288.7 289.5,-288.7"/>
<polygon fill="#000000" stroke="#000000" points="332.9202,-232.2587 341.6514,-233.1109 336.7101,-230.9794 340.5,-229.7 340.5,-229.7 340.5,-229.7 336.7101,-230.9794 339.3486,-226.2891 332.9202,-232.2587 332.9202,-232.2587"/>
<ellipse fill="none" stroke="#000000" cx="329.8883" cy="-233.2822" rx="3.2" ry="3.2"/>
</g>
<!-- usuario_grupo&#45;&gt;usuarios -->
<g id="edge3" class="edge">
<title>usuario_grupo:w&#45;&gt;usuarios:e</title>
<path fill="none" stroke="#000000" d="M326.6545,-203.2098C315.4651,-193.7346 316.6265,-171.8953 297,-163.7 247.3748,-142.9783 226.6659,-145.6718 176,-163.7 154.1248,-171.4837 158.7188,-196.7 135.5,-196.7"/>
<polygon fill="#000000" stroke="#000000" points="332.8902,-205.232 339.3894,-211.1244 336.6951,-206.466 340.5,-207.7 340.5,-207.7 340.5,-207.7 336.6951,-206.466 341.6106,-204.2756 332.8902,-205.232 332.8902,-205.232"/>
<ellipse fill="none" stroke="#000000" cx="329.8463" cy="-204.2448" rx="3.2" ry="3.2"/>
</g>
</g>
</svg>
