<?xml version="1.0" encoding="UTF-8" standalone="no"?>
<!DOCTYPE svg PUBLIC "-//W3C//DTD SVG 1.1//EN"
 "http://www.w3.org/Graphics/SVG/1.1/DTD/svg11.dtd">
<!-- Generated by graphviz version 2.40.1 (20161225.0304)
 -->
<!-- Title: oneDegreeRelationshipsDiagram Pages: 1 -->
<svg width="467pt" height="335pt"
 viewBox="0.00 0.00 467.00 335.20" xmlns="http://www.w3.org/2000/svg" xmlns:xlink="http://www.w3.org/1999/xlink">
<g id="graph0" class="graph" transform="scale(1 1) rotate(0) translate(4 331.2)">
<title>oneDegreeRelationshipsDiagram</title>
<polygon fill="#ffffff" stroke="transparent" points="-4,4 -4,-331.2 463,-331.2 463,4 -4,4"/>
<text text-anchor="middle" x="72.4936" y="-7.3" font-family="Helvetica,sans-Serif" font-size="11.00" fill="#000000">Generated by SchemaSpy</text>
<!-- grupos -->
<g id="node1" class="node">
<title>grupos</title>
<g id="a_node1"><a xlink:href="../../tables/grupos.html" xlink:title="grupos" target="_top">
<polygon fill="#ffffff" stroke="transparent" points="146,-174.2 146,-323.2 251,-323.2 251,-174.2 146,-174.2"/>
<polygon fill="#f5f5f5" stroke="transparent" points="146.5,-299.7 146.5,-322.7 251.5,-322.7 251.5,-299.7 146.5,-299.7"/>
<polygon fill="none" stroke="#000000" points="146.5,-299.7 146.5,-322.7 251.5,-322.7 251.5,-299.7 146.5,-299.7"/>
<text text-anchor="start" x="151.5" y="-308.3" font-family="Helvetica,sans-Serif" font-weight="bold" font-size="11.00" fill="#000000">grupos</text>
<text text-anchor="start" x="216.5437" y="-307.8" font-family="Helvetica,sans-Serif" font-size="11.00" fill="#000000">[table]</text>
<polygon fill="none" stroke="#000000" points="146.5,-277.7 146.5,-299.7 251.5,-299.7 251.5,-277.7 146.5,-277.7"/>
<image xlink:href="../../images/primaryKeys.png" width="11px" height="12px" preserveAspectRatio="xMinYMin meet" x="151.5" y="-294.7"/>
<text text-anchor="start" x="166.5" y="-284.8" font-family="Helvetica,sans-Serif" font-size="11.00" fill="#000000">id</text>
<polygon fill="none" stroke="#000000" points="146.5,-255.7 146.5,-277.7 251.5,-277.7 251.5,-255.7 146.5,-255.7"/>
<image xlink:href="../../images/foreignKeys.png" width="11px" height="12px" preserveAspectRatio="xMinYMin meet" x="151.5" y="-272.7"/>
<text text-anchor="start" x="166.5" y="-262.8" font-family="Helvetica,sans-Serif" font-size="11.00" fill="#000000">id_curso</text>
<polygon fill="none" stroke="#000000" points="146.5,-233.7 146.5,-255.7 251.5,-255.7 251.5,-233.7 146.5,-233.7"/>
<image xlink:href="../../images/foreignKeys.png" width="11px" height="12px" preserveAspectRatio="xMinYMin meet" x="151.5" y="-250.7"/>
<text text-anchor="start" x="166.5" y="-240.8" font-family="Helvetica,sans-Serif" font-size="11.00" fill="#000000">id_user</text>
<polygon fill="#ffffff" stroke="transparent" points="146.5,-211.7 146.5,-233.7 251.5,-233.7 251.5,-211.7 146.5,-211.7"/>
<polygon fill="none" stroke="#000000" points="146.5,-211.7 146.5,-233.7 251.5,-233.7 251.5,-211.7 146.5,-211.7"/>
<text text-anchor="start" x="166.5" y="-218.8" font-family="Helvetica,sans-Serif" font-size="11.00" fill="#000000">nome</text>
<polygon fill="none" stroke="#000000" points="146.5,-192.7 146.5,-211.7 251.5,-211.7 251.5,-192.7 146.5,-192.7"/>
<text text-anchor="start" x="149.5" y="-198.8" font-family="Helvetica,sans-Serif" font-size="11.00" fill="#000000">...</text>
<polygon fill="#ffffff" stroke="transparent" points="146.5,-173.7 146.5,-192.7 192.5,-192.7 192.5,-173.7 146.5,-173.7"/>
<polygon fill="none" stroke="#000000" points="146.5,-173.7 146.5,-192.7 192.5,-192.7 192.5,-173.7 146.5,-173.7"/>
<text text-anchor="start" x="149.5" y="-179.8" font-family="Helvetica,sans-Serif" font-size="11.00" fill="#000000">&lt; 2</text>
<polygon fill="#ffffff" stroke="transparent" points="192.5,-173.7 192.5,-192.7 217.5,-192.7 217.5,-173.7 192.5,-173.7"/>
<polygon fill="none" stroke="#000000" points="192.5,-173.7 192.5,-192.7 217.5,-192.7 217.5,-173.7 192.5,-173.7"/>
<text text-anchor="start" x="208.3862" y="-179.8" font-family="Helvetica,sans-Serif" font-size="11.00" fill="#000000"> &#160;</text>
<polygon fill="#ffffff" stroke="transparent" points="217.5,-173.7 217.5,-192.7 251.5,-192.7 251.5,-173.7 217.5,-173.7"/>
<polygon fill="none" stroke="#000000" points="217.5,-173.7 217.5,-192.7 251.5,-192.7 251.5,-173.7 217.5,-173.7"/>
<text text-anchor="start" x="232.9053" y="-179.8" font-family="Helvetica,sans-Serif" font-size="11.00" fill="#000000">2 &gt;</text>
</a>
</g>
</g>
<!-- usuarios -->
<g id="node2" class="node">
<title>usuarios</title>
<g id="a_node2"><a xlink:href="../../tables/usuarios.html" xlink:title="usuarios" target="_top">
<polygon fill="#ffffff" stroke="transparent" points="8,-38.2 8,-231.2 97,-231.2 97,-38.2 8,-38.2"/>
<polygon fill="#f5f5f5" stroke="transparent" points="8.5,-207.7 8.5,-230.7 97.5,-230.7 97.5,-207.7 8.5,-207.7"/>
<polygon fill="none" stroke="#000000" points="8.5,-207.7 8.5,-230.7 97.5,-230.7 97.5,-207.7 8.5,-207.7"/>
<text text-anchor="start" x="13.5" y="-216.3" font-family="Helvetica,sans-Serif" font-weight="bold" font-size="11.00" fill="#000000">usuarios</text>
<text text-anchor="start" x="63.0219" y="-215.8" font-family="Helvetica,sans-Serif" font-size="11.00" fill="#000000">[table]</text>
<polygon fill="none" stroke="#000000" points="8.5,-185.7 8.5,-207.7 97.5,-207.7 97.5,-185.7 8.5,-185.7"/>
<image xlink:href="../../images/primaryKeys.png" width="11px" height="12px" preserveAspectRatio="xMinYMin meet" x="13.5" y="-202.7"/>
<text text-anchor="start" x="33.5" y="-192.8" font-family="Helvetica,sans-Serif" font-size="11.00" fill="#000000">id</text>
<polygon fill="none" stroke="#000000" points="8.5,-163.7 8.5,-185.7 97.5,-185.7 97.5,-163.7 8.5,-163.7"/>
<image xlink:href="../../images/foreignKeys.png" width="11px" height="12px" preserveAspectRatio="xMinYMin meet" x="13.5" y="-180.7"/>
<text text-anchor="start" x="33.5" y="-170.8" font-family="Helvetica,sans-Serif" font-size="11.00" fill="#000000">id_curso</text>
<polygon fill="#ffffff" stroke="transparent" points="8.5,-141.7 8.5,-163.7 97.5,-163.7 97.5,-141.7 8.5,-141.7"/>
<polygon fill="none" stroke="#000000" points="8.5,-141.7 8.5,-163.7 97.5,-163.7 97.5,-141.7 8.5,-141.7"/>
<text text-anchor="start" x="33.5" y="-148.8" font-family="Helvetica,sans-Serif" font-size="11.00" fill="#000000">nome</text>
<polygon fill="#ffffff" stroke="transparent" points="8.5,-119.7 8.5,-141.7 97.5,-141.7 97.5,-119.7 8.5,-119.7"/>
<polygon fill="none" stroke="#000000" points="8.5,-119.7 8.5,-141.7 97.5,-141.7 97.5,-119.7 8.5,-119.7"/>
<text text-anchor="start" x="33.5" y="-126.8" font-family="Helvetica,sans-Serif" font-size="11.00" fill="#000000">email</text>
<polygon fill="#ffffff" stroke="transparent" points="8.5,-97.7 8.5,-119.7 97.5,-119.7 97.5,-97.7 8.5,-97.7"/>
<polygon fill="none" stroke="#000000" points="8.5,-97.7 8.5,-119.7 97.5,-119.7 97.5,-97.7 8.5,-97.7"/>
<text text-anchor="start" x="33.5" y="-104.8" font-family="Helvetica,sans-Serif" font-size="11.00" fill="#000000">matricula</text>
<polygon fill="#ffffff" stroke="transparent" points="8.5,-75.7 8.5,-97.7 97.5,-97.7 97.5,-75.7 8.5,-75.7"/>
<polygon fill="none" stroke="#000000" points="8.5,-75.7 8.5,-97.7 97.5,-97.7 97.5,-75.7 8.5,-75.7"/>
<text text-anchor="start" x="33.5" y="-82.8" font-family="Helvetica,sans-Serif" font-size="11.00" fill="#000000">siape</text>
<polygon fill="none" stroke="#000000" points="8.5,-56.7 8.5,-75.7 97.5,-75.7 97.5,-56.7 8.5,-56.7"/>
<text text-anchor="start" x="11.5" y="-62.8" font-family="Helvetica,sans-Serif" font-size="11.00" fill="#000000">...</text>
<polygon fill="#ffffff" stroke="transparent" points="8.5,-37.7 8.5,-56.7 46.5,-56.7 46.5,-37.7 8.5,-37.7"/>
<polygon fill="none" stroke="#000000" points="8.5,-37.7 8.5,-56.7 46.5,-56.7 46.5,-37.7 8.5,-37.7"/>
<text text-anchor="start" x="11.5" y="-43.8" font-family="Helvetica,sans-Serif" font-size="11.00" fill="#000000">&lt; 1</text>
<polygon fill="#ffffff" stroke="transparent" points="46.5,-37.7 46.5,-56.7 67.5,-56.7 67.5,-37.7 46.5,-37.7"/>
<polygon fill="none" stroke="#000000" points="46.5,-37.7 46.5,-56.7 67.5,-56.7 67.5,-37.7 46.5,-37.7"/>
<text text-anchor="start" x="58.3862" y="-43.8" font-family="Helvetica,sans-Serif" font-size="11.00" fill="#000000"> &#160;</text>
<polygon fill="#ffffff" stroke="transparent" points="67.5,-37.7 67.5,-56.7 97.5,-56.7 97.5,-37.7 67.5,-37.7"/>
<polygon fill="none" stroke="#000000" points="67.5,-37.7 67.5,-56.7 97.5,-56.7 97.5,-37.7 67.5,-37.7"/>
<text text-anchor="start" x="78.9053" y="-43.8" font-family="Helvetica,sans-Serif" font-size="11.00" fill="#000000">6 &gt;</text>
</a>
</g>
</g>
<!-- grupos&#45;&gt;usuarios -->
<g id="edge1" class="edge">
<title>grupos:w&#45;&gt;usuarios:e</title>
<path fill="none" stroke="#000000" d="M132.8634,-239.9221C119.071,-227.7811 122.0315,-196.7 97.5,-196.7"/>
<polygon fill="#000000" stroke="#000000" points="138.95,-242.0546 145.3096,-248.0975 142.725,-243.3773 146.5,-244.7 146.5,-244.7 146.5,-244.7 142.725,-243.3773 147.6904,-241.3025 138.95,-242.0546 138.95,-242.0546"/>
<ellipse fill="none" stroke="#000000" cx="135.93" cy="-240.9965" rx="3.2" ry="3.2"/>
</g>
<!-- usuario_grupo -->
<g id="node3" class="node">
<title>usuario_grupo</title>
<g id="a_node3"><a xlink:href="../../tables/usuario_grupo.html" xlink:title="usuario_grupo" target="_top">
<polygon fill="#ffffff" stroke="transparent" points="300,-175.7 300,-265.7 451,-265.7 451,-175.7 300,-175.7"/>
<polygon fill="#f5f5f5" stroke="transparent" points="302.5,-240.7 302.5,-263.7 449.5,-263.7 449.5,-240.7 302.5,-240.7"/>
<polygon fill="none" stroke="#000000" points="302.5,-240.7 302.5,-263.7 449.5,-263.7 449.5,-240.7 302.5,-240.7"/>
<text text-anchor="start" x="307.5" y="-249.3" font-family="Helvetica,sans-Serif" font-weight="bold" font-size="11.00" fill="#000000">usuario_grupo</text>
<text text-anchor="start" x="414.5437" y="-248.8" font-family="Helvetica,sans-Serif" font-size="11.00" fill="#000000">[table]</text>
<polygon fill="none" stroke="#000000" points="302.5,-218.7 302.5,-240.7 407.5,-240.7 407.5,-218.7 302.5,-218.7"/>
<image xlink:href="../../images/foreignKeys.png" width="11px" height="12px" preserveAspectRatio="xMinYMin meet" x="307.5" y="-235.7"/>
<text text-anchor="start" x="322.5" y="-225.8" font-family="Helvetica,sans-Serif" font-size="11.00" fill="#000000">id_grupo</text>
<polygon fill="none" stroke="#000000" points="407.5,-218.7 407.5,-240.7 449.5,-240.7 449.5,-218.7 407.5,-218.7"/>
<text text-anchor="start" x="410.4644" y="-226.4" font-family="Helvetica,sans-Serif" font-size="11.00" fill="#000000">int4[10]</text>
<polygon fill="none" stroke="#000000" points="302.5,-196.7 302.5,-218.7 407.5,-218.7 407.5,-196.7 302.5,-196.7"/>
<image xlink:href="../../images/foreignKeys.png" width="11px" height="12px" preserveAspectRatio="xMinYMin meet" x="307.5" y="-213.7"/>
<text text-anchor="start" x="322.5" y="-203.8" font-family="Helvetica,sans-Serif" font-size="11.00" fill="#000000">id_usuario</text>
<polygon fill="none" stroke="#000000" points="407.5,-196.7 407.5,-218.7 449.5,-218.7 449.5,-196.7 407.5,-196.7"/>
<text text-anchor="start" x="410.4644" y="-204.4" font-family="Helvetica,sans-Serif" font-size="11.00" fill="#000000">int4[10]</text>
<polygon fill="#ffffff" stroke="transparent" points="302.5,-177.7 302.5,-196.7 359.5,-196.7 359.5,-177.7 302.5,-177.7"/>
<polygon fill="none" stroke="#000000" points="302.5,-177.7 302.5,-196.7 359.5,-196.7 359.5,-177.7 302.5,-177.7"/>
<text text-anchor="start" x="305.5" y="-183.8" font-family="Helvetica,sans-Serif" font-size="11.00" fill="#000000">&lt; 2</text>
<polygon fill="#ffffff" stroke="transparent" points="359.5,-177.7 359.5,-196.7 407.5,-196.7 407.5,-177.7 359.5,-177.7"/>
<polygon fill="none" stroke="#000000" points="359.5,-177.7 359.5,-196.7 407.5,-196.7 407.5,-177.7 359.5,-177.7"/>
<text text-anchor="start" x="398.3862" y="-183.8" font-family="Helvetica,sans-Serif" font-size="11.00" fill="#000000"> &#160;</text>
<polygon fill="#ffffff" stroke="transparent" points="407.5,-177.7 407.5,-196.7 449.5,-196.7 449.5,-177.7 407.5,-177.7"/>
<polygon fill="none" stroke="#000000" points="407.5,-177.7 407.5,-196.7 449.5,-196.7 449.5,-177.7 407.5,-177.7"/>
<text text-anchor="start" x="430.9053" y="-183.8" font-family="Helvetica,sans-Serif" font-size="11.00" fill="#000000">0 &gt;</text>
<polygon fill="none" stroke="#000000" stroke-width="2" points="301,-176.7 301,-264.7 450,-264.7 450,-176.7 301,-176.7"/>
</a>
</g>
</g>
<!-- usuario_grupo&#45;&gt;grupos -->
<g id="edge2" class="edge">
<title>usuario_grupo:w&#45;&gt;grupos:e</title>
<path fill="none" stroke="#000000" d="M288.7854,-234.3296C272.572,-248.2383 280.2036,-288.7 251.5,-288.7"/>
<polygon fill="#000000" stroke="#000000" points="294.9202,-232.2587 303.6514,-233.1109 298.7101,-230.9794 302.5,-229.7 302.5,-229.7 302.5,-229.7 298.7101,-230.9794 301.3486,-226.2891 294.9202,-232.2587 294.9202,-232.2587"/>
<ellipse fill="none" stroke="#000000" cx="291.8883" cy="-233.2822" rx="3.2" ry="3.2"/>
</g>
<!-- usuario_grupo&#45;&gt;usuarios -->
<g id="edge3" class="edge">
<title>usuario_grupo:w&#45;&gt;usuarios:e</title>
<path fill="none" stroke="#000000" d="M288.6545,-203.2098C277.4651,-193.7346 278.6265,-171.8953 259,-163.7 209.3748,-142.9783 188.6659,-145.6718 138,-163.7 116.1248,-171.4837 120.7188,-196.7 97.5,-196.7"/>
<polygon fill="#000000" stroke="#000000" points="294.8902,-205.232 301.3894,-211.1244 298.6951,-206.466 302.5,-207.7 302.5,-207.7 302.5,-207.7 298.6951,-206.466 303.6106,-204.2756 294.8902,-205.232 294.8902,-205.232"/>
<ellipse fill="none" stroke="#000000" cx="291.8463" cy="-204.2448" rx="3.2" ry="3.2"/>
</g>
</g>
</svg>
