<?xml version="1.0" encoding="UTF-8" standalone="no"?>
<!DOCTYPE svg PUBLIC "-//W3C//DTD SVG 1.1//EN"
 "http://www.w3.org/Graphics/SVG/1.1/DTD/svg11.dtd">
<!-- Generated by graphviz version 2.40.1 (20161225.0304)
 -->
<!-- Title: twoDegreesRelationshipsDiagram Pages: 1 -->
<svg width="722pt" height="415pt"
 viewBox="0.00 0.00 722.00 415.20" xmlns="http://www.w3.org/2000/svg" xmlns:xlink="http://www.w3.org/1999/xlink">
<g id="graph0" class="graph" transform="scale(1 1) rotate(0) translate(4 411.2)">
<title>twoDegreesRelationshipsDiagram</title>
<polygon fill="#ffffff" stroke="transparent" points="-4,4 -4,-411.2 718,-411.2 718,4 -4,4"/>
<text text-anchor="middle" x="72.4936" y="-7.3" font-family="Helvetica,sans-Serif" font-size="11.00" fill="#000000">Generated by SchemaSpy</text>
<!-- encontros -->
<g id="node1" class="node">
<title>encontros</title>
<g id="a_node1"><a xlink:href="../../tables/encontros.html" xlink:title="encontros" target="_top">
<polygon fill="#ffffff" stroke="transparent" points="428,-342.2 428,-403.2 525,-403.2 525,-342.2 428,-342.2"/>
<polygon fill="#f5f5f5" stroke="transparent" points="428.5,-379.7 428.5,-402.7 525.5,-402.7 525.5,-379.7 428.5,-379.7"/>
<polygon fill="none" stroke="#000000" points="428.5,-379.7 428.5,-402.7 525.5,-402.7 525.5,-379.7 428.5,-379.7"/>
<text text-anchor="start" x="433.5" y="-388.3" font-family="Helvetica,sans-Serif" font-weight="bold" font-size="11.00" fill="#000000">encontros</text>
<text text-anchor="start" x="491.0219" y="-387.8" font-family="Helvetica,sans-Serif" font-size="11.00" fill="#000000">[table]</text>
<polygon fill="none" stroke="#000000" points="428.5,-360.7 428.5,-379.7 525.5,-379.7 525.5,-360.7 428.5,-360.7"/>
<text text-anchor="start" x="431.5" y="-366.8" font-family="Helvetica,sans-Serif" font-size="11.00" fill="#000000">...</text>
<polygon fill="#ffffff" stroke="transparent" points="428.5,-341.7 428.5,-360.7 470.5,-360.7 470.5,-341.7 428.5,-341.7"/>
<polygon fill="none" stroke="#000000" points="428.5,-341.7 428.5,-360.7 470.5,-360.7 470.5,-341.7 428.5,-341.7"/>
<text text-anchor="start" x="431.5" y="-347.8" font-family="Helvetica,sans-Serif" font-size="11.00" fill="#000000">&lt; 2</text>
<polygon fill="#ffffff" stroke="transparent" points="470.5,-341.7 470.5,-360.7 493.5,-360.7 493.5,-341.7 470.5,-341.7"/>
<polygon fill="none" stroke="#000000" points="470.5,-341.7 470.5,-360.7 493.5,-360.7 493.5,-341.7 470.5,-341.7"/>
<text text-anchor="start" x="484.3862" y="-347.8" font-family="Helvetica,sans-Serif" font-size="11.00" fill="#000000"> &#160;</text>
<polygon fill="#ffffff" stroke="transparent" points="493.5,-341.7 493.5,-360.7 525.5,-360.7 525.5,-341.7 493.5,-341.7"/>
<polygon fill="none" stroke="#000000" points="493.5,-341.7 493.5,-360.7 525.5,-360.7 525.5,-341.7 493.5,-341.7"/>
<text text-anchor="start" x="506.9053" y="-347.8" font-family="Helvetica,sans-Serif" font-size="11.00" fill="#000000">2 &gt;</text>
</a>
</g>
</g>
<!-- grupos -->
<g id="node2" class="node">
<title>grupos</title>
<g id="a_node2"><a xlink:href="../../tables/grupos.html" xlink:title="grupos" target="_top">
<polygon fill="#ffffff" stroke="transparent" points="273,-297.2 273,-358.2 352,-358.2 352,-297.2 273,-297.2"/>
<polygon fill="#f5f5f5" stroke="transparent" points="273.5,-334.7 273.5,-357.7 352.5,-357.7 352.5,-334.7 273.5,-334.7"/>
<polygon fill="none" stroke="#000000" points="273.5,-334.7 273.5,-357.7 352.5,-357.7 352.5,-334.7 273.5,-334.7"/>
<text text-anchor="start" x="278.5" y="-343.3" font-family="Helvetica,sans-Serif" font-weight="bold" font-size="11.00" fill="#000000">grupos</text>
<text text-anchor="start" x="318.0219" y="-342.8" font-family="Helvetica,sans-Serif" font-size="11.00" fill="#000000">[table]</text>
<polygon fill="none" stroke="#000000" points="273.5,-315.7 273.5,-334.7 352.5,-334.7 352.5,-315.7 273.5,-315.7"/>
<text text-anchor="start" x="276.5" y="-321.8" font-family="Helvetica,sans-Serif" font-size="11.00" fill="#000000">...</text>
<polygon fill="#ffffff" stroke="transparent" points="273.5,-296.7 273.5,-315.7 306.5,-315.7 306.5,-296.7 273.5,-296.7"/>
<polygon fill="none" stroke="#000000" points="273.5,-296.7 273.5,-315.7 306.5,-315.7 306.5,-296.7 273.5,-296.7"/>
<text text-anchor="start" x="276.5" y="-302.8" font-family="Helvetica,sans-Serif" font-size="11.00" fill="#000000">&lt; 2</text>
<polygon fill="#ffffff" stroke="transparent" points="306.5,-296.7 306.5,-315.7 324.5,-315.7 324.5,-296.7 306.5,-296.7"/>
<polygon fill="none" stroke="#000000" points="306.5,-296.7 306.5,-315.7 324.5,-315.7 324.5,-296.7 306.5,-296.7"/>
<text text-anchor="start" x="315.3862" y="-302.8" font-family="Helvetica,sans-Serif" font-size="11.00" fill="#000000"> &#160;</text>
<polygon fill="#ffffff" stroke="transparent" points="324.5,-296.7 324.5,-315.7 352.5,-315.7 352.5,-296.7 324.5,-296.7"/>
<polygon fill="none" stroke="#000000" points="324.5,-296.7 324.5,-315.7 352.5,-315.7 352.5,-296.7 324.5,-296.7"/>
<text text-anchor="start" x="333.9053" y="-302.8" font-family="Helvetica,sans-Serif" font-size="11.00" fill="#000000">2 &gt;</text>
</a>
</g>
</g>
<!-- encontros&#45;&gt;grupos -->
<g id="edge1" class="edge">
<title>encontros:w&#45;&gt;grupos:e</title>
<path fill="none" stroke="#000000" d="M413.8985,-368.7785C395.1857,-366.4988 376.4287,-360.2755 360.2258,-353.3414"/>
<polygon fill="#000000" stroke="#000000" points="420.5159,-369.1961 428.2732,-373.2929 424.5079,-369.448 428.5,-369.7 428.5,-369.7 428.5,-369.7 424.5079,-369.448 428.7268,-366.1071 420.5159,-369.1961 420.5159,-369.1961"/>
<ellipse fill="none" stroke="#000000" cx="417.3222" cy="-368.9945" rx="3.2" ry="3.2"/>
</g>
<!-- turmas -->
<g id="node3" class="node">
<title>turmas</title>
<g id="a_node3"><a xlink:href="../../tables/turmas.html" xlink:title="turmas" target="_top">
<polygon fill="#ffffff" stroke="transparent" points="273,-215.2 273,-276.2 352,-276.2 352,-215.2 273,-215.2"/>
<polygon fill="#f5f5f5" stroke="transparent" points="273.5,-252.7 273.5,-275.7 352.5,-275.7 352.5,-252.7 273.5,-252.7"/>
<polygon fill="none" stroke="#000000" points="273.5,-252.7 273.5,-275.7 352.5,-275.7 352.5,-252.7 273.5,-252.7"/>
<text text-anchor="start" x="278.5" y="-261.3" font-family="Helvetica,sans-Serif" font-weight="bold" font-size="11.00" fill="#000000">turmas</text>
<text text-anchor="start" x="318.0219" y="-260.8" font-family="Helvetica,sans-Serif" font-size="11.00" fill="#000000">[table]</text>
<polygon fill="none" stroke="#000000" points="273.5,-233.7 273.5,-252.7 352.5,-252.7 352.5,-233.7 273.5,-233.7"/>
<text text-anchor="start" x="276.5" y="-239.8" font-family="Helvetica,sans-Serif" font-size="11.00" fill="#000000">...</text>
<polygon fill="#ffffff" stroke="transparent" points="273.5,-214.7 273.5,-233.7 306.5,-233.7 306.5,-214.7 273.5,-214.7"/>
<polygon fill="none" stroke="#000000" points="273.5,-214.7 273.5,-233.7 306.5,-233.7 306.5,-214.7 273.5,-214.7"/>
<text text-anchor="start" x="276.5" y="-220.8" font-family="Helvetica,sans-Serif" font-size="11.00" fill="#000000">&lt; 2</text>
<polygon fill="#ffffff" stroke="transparent" points="306.5,-214.7 306.5,-233.7 324.5,-233.7 324.5,-214.7 306.5,-214.7"/>
<polygon fill="none" stroke="#000000" points="306.5,-214.7 306.5,-233.7 324.5,-233.7 324.5,-214.7 306.5,-214.7"/>
<text text-anchor="start" x="315.3862" y="-220.8" font-family="Helvetica,sans-Serif" font-size="11.00" fill="#000000"> &#160;</text>
<polygon fill="#ffffff" stroke="transparent" points="324.5,-214.7 324.5,-233.7 352.5,-233.7 352.5,-214.7 324.5,-214.7"/>
<polygon fill="none" stroke="#000000" points="324.5,-214.7 324.5,-233.7 352.5,-233.7 352.5,-214.7 324.5,-214.7"/>
<text text-anchor="start" x="333.9053" y="-220.8" font-family="Helvetica,sans-Serif" font-size="11.00" fill="#000000">2 &gt;</text>
</a>
</g>
</g>
<!-- encontros&#45;&gt;turmas -->
<g id="edge2" class="edge">
<title>encontros:w&#45;&gt;turmas:e</title>
<path fill="none" stroke="#000000" d="M414.3802,-366.0678C404.6917,-359.6901 402.4322,-345.8109 393,-331.7 368.8494,-295.5698 395.9585,-242.7 352.5,-242.7"/>
<polygon fill="#000000" stroke="#000000" points="420.7522,-367.7069 427.6031,-373.1865 424.6261,-368.7034 428.5,-369.7 428.5,-369.7 428.5,-369.7 424.6261,-368.7034 429.3969,-366.2135 420.7522,-367.7069 420.7522,-367.7069"/>
<ellipse fill="none" stroke="#000000" cx="417.6531" cy="-366.9096" rx="3.2" ry="3.2"/>
</g>
<!-- cursos -->
<g id="node4" class="node">
<title>cursos</title>
<g id="a_node4"><a xlink:href="../../tables/cursos.html" xlink:title="cursos" target="_top">
<polygon fill="#ffffff" stroke="transparent" points="8,-216.2 8,-277.2 86,-277.2 86,-216.2 8,-216.2"/>
<polygon fill="#f5f5f5" stroke="transparent" points="8,-253.7 8,-276.7 86,-276.7 86,-253.7 8,-253.7"/>
<polygon fill="none" stroke="#000000" points="8,-253.7 8,-276.7 86,-276.7 86,-253.7 8,-253.7"/>
<text text-anchor="start" x="13" y="-262.3" font-family="Helvetica,sans-Serif" font-weight="bold" font-size="11.00" fill="#000000">cursos</text>
<text text-anchor="start" x="51.5219" y="-261.8" font-family="Helvetica,sans-Serif" font-size="11.00" fill="#000000">[table]</text>
<polygon fill="none" stroke="#000000" points="8,-234.7 8,-253.7 86,-253.7 86,-234.7 8,-234.7"/>
<text text-anchor="start" x="11" y="-240.8" font-family="Helvetica,sans-Serif" font-size="11.00" fill="#000000">...</text>
<polygon fill="#ffffff" stroke="transparent" points="8,-215.7 8,-234.7 36,-234.7 36,-215.7 8,-215.7"/>
<polygon fill="none" stroke="#000000" points="8,-215.7 8,-234.7 36,-234.7 36,-215.7 8,-215.7"/>
<text text-anchor="start" x="11" y="-221.8" font-family="Helvetica,sans-Serif" font-size="11.00" fill="#000000"> &#160;</text>
<polygon fill="#ffffff" stroke="transparent" points="36,-215.7 36,-234.7 56,-234.7 56,-215.7 36,-215.7"/>
<polygon fill="none" stroke="#000000" points="36,-215.7 36,-234.7 56,-234.7 56,-215.7 36,-215.7"/>
<text text-anchor="start" x="46.8862" y="-221.8" font-family="Helvetica,sans-Serif" font-size="11.00" fill="#000000"> &#160;</text>
<polygon fill="#ffffff" stroke="transparent" points="56,-215.7 56,-234.7 86,-234.7 86,-215.7 56,-215.7"/>
<polygon fill="none" stroke="#000000" points="56,-215.7 56,-234.7 86,-234.7 86,-215.7 56,-215.7"/>
<text text-anchor="start" x="67.4053" y="-221.8" font-family="Helvetica,sans-Serif" font-size="11.00" fill="#000000">3 &gt;</text>
</a>
</g>
</g>
<!-- grupos&#45;&gt;cursos -->
<g id="edge3" class="edge">
<title>grupos:w&#45;&gt;cursos:e</title>
<path fill="none" stroke="#000000" d="M251.4889,-302.5701C190.4142,-277.8215 103.1074,-243.7 86,-243.7"/>
<polygon fill="#000000" stroke="#000000" points="257.4438,-304.9919 263.4981,-311.3405 261.1491,-306.4988 264.8544,-308.0057 264.8544,-308.0057 264.8544,-308.0057 261.1491,-306.4988 266.2106,-304.671 257.4438,-304.9919 257.4438,-304.9919"/>
<ellipse fill="none" stroke="#000000" cx="254.4795" cy="-303.7863" rx="3.2" ry="3.2"/>
</g>
<!-- usuarios -->
<g id="node5" class="node">
<title>usuarios</title>
<g id="a_node5"><a xlink:href="../../tables/usuarios.html" xlink:title="usuarios" target="_top">
<polygon fill="#ffffff" stroke="transparent" points="135,-158.2 135,-219.2 224,-219.2 224,-158.2 135,-158.2"/>
<polygon fill="#f5f5f5" stroke="transparent" points="135.5,-195.7 135.5,-218.7 224.5,-218.7 224.5,-195.7 135.5,-195.7"/>
<polygon fill="none" stroke="#000000" points="135.5,-195.7 135.5,-218.7 224.5,-218.7 224.5,-195.7 135.5,-195.7"/>
<text text-anchor="start" x="140.5" y="-204.3" font-family="Helvetica,sans-Serif" font-weight="bold" font-size="11.00" fill="#000000">usuarios</text>
<text text-anchor="start" x="190.0219" y="-203.8" font-family="Helvetica,sans-Serif" font-size="11.00" fill="#000000">[table]</text>
<polygon fill="none" stroke="#000000" points="135.5,-176.7 135.5,-195.7 224.5,-195.7 224.5,-176.7 135.5,-176.7"/>
<text text-anchor="start" x="138.5" y="-182.8" font-family="Helvetica,sans-Serif" font-size="11.00" fill="#000000">...</text>
<polygon fill="#ffffff" stroke="transparent" points="135.5,-157.7 135.5,-176.7 173.5,-176.7 173.5,-157.7 135.5,-157.7"/>
<polygon fill="none" stroke="#000000" points="135.5,-157.7 135.5,-176.7 173.5,-176.7 173.5,-157.7 135.5,-157.7"/>
<text text-anchor="start" x="138.5" y="-163.8" font-family="Helvetica,sans-Serif" font-size="11.00" fill="#000000">&lt; 1</text>
<polygon fill="#ffffff" stroke="transparent" points="173.5,-157.7 173.5,-176.7 194.5,-176.7 194.5,-157.7 173.5,-157.7"/>
<polygon fill="none" stroke="#000000" points="173.5,-157.7 173.5,-176.7 194.5,-176.7 194.5,-157.7 173.5,-157.7"/>
<text text-anchor="start" x="185.3862" y="-163.8" font-family="Helvetica,sans-Serif" font-size="11.00" fill="#000000"> &#160;</text>
<polygon fill="#ffffff" stroke="transparent" points="194.5,-157.7 194.5,-176.7 224.5,-176.7 224.5,-157.7 194.5,-157.7"/>
<polygon fill="none" stroke="#000000" points="194.5,-157.7 194.5,-176.7 224.5,-176.7 224.5,-157.7 194.5,-157.7"/>
<text text-anchor="start" x="205.9053" y="-163.8" font-family="Helvetica,sans-Serif" font-size="11.00" fill="#000000">6 &gt;</text>
</a>
</g>
</g>
<!-- grupos&#45;&gt;usuarios -->
<g id="edge4" class="edge">
<title>grupos:w&#45;&gt;usuarios:e</title>
<path fill="none" stroke="#000000" d="M261.3181,-282.7432C239.3305,-260.3319 221.657,-240.0253 207.6479,-223.3268"/>
<polygon fill="#000000" stroke="#000000" points="266.0782,-287.5176 269.1771,-295.7248 268.9023,-290.3503 271.7265,-293.183 271.7265,-293.183 271.7265,-293.183 268.9023,-290.3503 274.2759,-290.6413 266.0782,-287.5176 266.0782,-287.5176"/>
<ellipse fill="none" stroke="#000000" cx="263.8188" cy="-285.2515" rx="3.2" ry="3.2"/>
</g>
<!-- turmas&#45;&gt;cursos -->
<g id="edge8" class="edge">
<title>turmas:w&#45;&gt;cursos:e</title>
<path fill="none" stroke="#000000" d="M259.0227,-242.7106C187.4138,-242.8174 164.2889,-243.7 86,-243.7"/>
<polygon fill="#000000" stroke="#000000" points="265.5,-242.7059 273.5026,-246.3 269.5,-242.7029 273.5,-242.7 273.5,-242.7 273.5,-242.7 269.5,-242.7029 273.4974,-239.1 265.5,-242.7059 265.5,-242.7059"/>
<ellipse fill="none" stroke="#000000" cx="262.3" cy="-242.7082" rx="3.2" ry="3.2"/>
</g>
<!-- turmas&#45;&gt;usuarios -->
<g id="edge9" class="edge">
<title>turmas:w&#45;&gt;usuarios:e</title>
<path fill="none" stroke="#000000" d="M258.9385,-241.1421C244.5412,-238.1395 230.7728,-231.1421 218.8627,-223.2048"/>
<polygon fill="#000000" stroke="#000000" points="265.5454,-241.8489 273.117,-246.2796 269.5227,-242.2745 273.5,-242.7 273.5,-242.7 273.5,-242.7 269.5227,-242.2745 273.883,-239.1204 265.5454,-241.8489 265.5454,-241.8489"/>
<ellipse fill="none" stroke="#000000" cx="262.3636" cy="-241.5085" rx="3.2" ry="3.2"/>
</g>
<!-- usuarios&#45;&gt;cursos -->
<g id="edge14" class="edge">
<title>usuarios:w&#45;&gt;cursos:e</title>
<path fill="none" stroke="#000000" d="M128.8015,-231.0819C115.6622,-238.3958 100.9721,-243.7 86,-243.7"/>
<polygon fill="#000000" stroke="#000000" points="134.5935,-227.4609 143.2854,-226.2726 137.9852,-225.3405 141.377,-223.22 141.377,-223.22 141.377,-223.22 137.9852,-225.3405 139.4686,-220.1675 134.5935,-227.4609 134.5935,-227.4609"/>
<ellipse fill="none" stroke="#000000" cx="131.8801" cy="-229.1573" rx="3.2" ry="3.2"/>
</g>
<!-- mensagens -->
<g id="node6" class="node">
<title>mensagens</title>
<g id="a_node6"><a xlink:href="../../tables/mensagens.html" xlink:title="mensagens" target="_top">
<polygon fill="#ffffff" stroke="transparent" points="601,-219.2 601,-280.2 706,-280.2 706,-219.2 601,-219.2"/>
<polygon fill="#f5f5f5" stroke="transparent" points="601.5,-256.7 601.5,-279.7 706.5,-279.7 706.5,-256.7 601.5,-256.7"/>
<polygon fill="none" stroke="#000000" points="601.5,-256.7 601.5,-279.7 706.5,-279.7 706.5,-256.7 601.5,-256.7"/>
<text text-anchor="start" x="606.5" y="-265.3" font-family="Helvetica,sans-Serif" font-weight="bold" font-size="11.00" fill="#000000">mensagens</text>
<text text-anchor="start" x="672.0219" y="-264.8" font-family="Helvetica,sans-Serif" font-size="11.00" fill="#000000">[table]</text>
<polygon fill="none" stroke="#000000" points="601.5,-237.7 601.5,-256.7 706.5,-256.7 706.5,-237.7 601.5,-237.7"/>
<text text-anchor="start" x="604.5" y="-243.8" font-family="Helvetica,sans-Serif" font-size="11.00" fill="#000000">...</text>
<polygon fill="#ffffff" stroke="transparent" points="601.5,-218.7 601.5,-237.7 652.5,-237.7 652.5,-218.7 601.5,-218.7"/>
<polygon fill="none" stroke="#000000" points="601.5,-218.7 601.5,-237.7 652.5,-237.7 652.5,-218.7 601.5,-218.7"/>
<text text-anchor="start" x="604.5" y="-224.8" font-family="Helvetica,sans-Serif" font-size="11.00" fill="#000000">&lt; 2</text>
<polygon fill="#ffffff" stroke="transparent" points="652.5,-218.7 652.5,-237.7 679.5,-237.7 679.5,-218.7 652.5,-218.7"/>
<polygon fill="none" stroke="#000000" points="652.5,-218.7 652.5,-237.7 679.5,-237.7 679.5,-218.7 652.5,-218.7"/>
<text text-anchor="start" x="670.3862" y="-224.8" font-family="Helvetica,sans-Serif" font-size="11.00" fill="#000000"> &#160;</text>
<polygon fill="#ffffff" stroke="transparent" points="679.5,-218.7 679.5,-237.7 706.5,-237.7 706.5,-218.7 679.5,-218.7"/>
<polygon fill="none" stroke="#000000" points="679.5,-218.7 679.5,-237.7 706.5,-237.7 706.5,-218.7 679.5,-218.7"/>
<text text-anchor="start" x="697.3862" y="-224.8" font-family="Helvetica,sans-Serif" font-size="11.00" fill="#000000"> &#160;</text>
</a>
</g>
</g>
<!-- mensagens&#45;&gt;encontros -->
<g id="edge5" class="edge">
<title>mensagens:w&#45;&gt;encontros:e</title>
<path fill="none" stroke="#000000" d="M587.1041,-249.3834C545.5698,-267.3709 584.1124,-369.7 525.5,-369.7"/>
<polygon fill="#000000" stroke="#000000" points="593.6355,-248.166 602.1597,-250.239 597.5677,-247.433 601.5,-246.7 601.5,-246.7 601.5,-246.7 597.5677,-247.433 600.8403,-243.161 593.6355,-248.166 593.6355,-248.166"/>
<ellipse fill="none" stroke="#000000" cx="590.4896" cy="-248.7524" rx="3.2" ry="3.2"/>
</g>
<!-- mensagens&#45;&gt;usuarios -->
<g id="edge6" class="edge">
<title>mensagens:w&#45;&gt;usuarios:e</title>
<path fill="none" stroke="#000000" d="M587.2732,-243.6302C560.7748,-228.7371 597.6784,-163.6715 560,-137.7 460.3997,-69.0462 310.7678,-123.3769 232.1125,-160.8134"/>
<polygon fill="#000000" stroke="#000000" points="593.68,-245.0126 600.7407,-250.219 597.59,-245.8563 601.5,-246.7 601.5,-246.7 601.5,-246.7 597.59,-245.8563 602.2593,-243.181 593.68,-245.0126 593.68,-245.0126"/>
<ellipse fill="none" stroke="#000000" cx="590.552" cy="-244.3376" rx="3.2" ry="3.2"/>
</g>
<!-- token -->
<g id="node7" class="node">
<title>token</title>
<g id="a_node7"><a xlink:href="../../tables/token.html" xlink:title="token" target="_top">
<polygon fill="#ffffff" stroke="transparent" points="277,-38.2 277,-99.2 348,-99.2 348,-38.2 277,-38.2"/>
<polygon fill="#f5f5f5" stroke="transparent" points="277.5,-75.7 277.5,-98.7 348.5,-98.7 348.5,-75.7 277.5,-75.7"/>
<polygon fill="none" stroke="#000000" points="277.5,-75.7 277.5,-98.7 348.5,-98.7 348.5,-75.7 277.5,-75.7"/>
<text text-anchor="start" x="282.5" y="-84.3" font-family="Helvetica,sans-Serif" font-weight="bold" font-size="11.00" fill="#000000">token</text>
<text text-anchor="start" x="314.0219" y="-83.8" font-family="Helvetica,sans-Serif" font-size="11.00" fill="#000000">[table]</text>
<polygon fill="none" stroke="#000000" points="277.5,-56.7 277.5,-75.7 348.5,-75.7 348.5,-56.7 277.5,-56.7"/>
<text text-anchor="start" x="280.5" y="-62.8" font-family="Helvetica,sans-Serif" font-size="11.00" fill="#000000">...</text>
<polygon fill="#ffffff" stroke="transparent" points="277.5,-37.7 277.5,-56.7 311.5,-56.7 311.5,-37.7 277.5,-37.7"/>
<polygon fill="none" stroke="#000000" points="277.5,-37.7 277.5,-56.7 311.5,-56.7 311.5,-37.7 277.5,-37.7"/>
<text text-anchor="start" x="280.5" y="-43.8" font-family="Helvetica,sans-Serif" font-size="11.00" fill="#000000">&lt; 1</text>
<polygon fill="#ffffff" stroke="transparent" points="311.5,-37.7 311.5,-56.7 329.5,-56.7 329.5,-37.7 311.5,-37.7"/>
<polygon fill="none" stroke="#000000" points="311.5,-37.7 311.5,-56.7 329.5,-56.7 329.5,-37.7 311.5,-37.7"/>
<text text-anchor="start" x="320.3862" y="-43.8" font-family="Helvetica,sans-Serif" font-size="11.00" fill="#000000"> &#160;</text>
<polygon fill="#ffffff" stroke="transparent" points="329.5,-37.7 329.5,-56.7 348.5,-56.7 348.5,-37.7 329.5,-37.7"/>
<polygon fill="none" stroke="#000000" points="329.5,-37.7 329.5,-56.7 348.5,-56.7 348.5,-37.7 329.5,-37.7"/>
<text text-anchor="start" x="339.3862" y="-43.8" font-family="Helvetica,sans-Serif" font-size="11.00" fill="#000000"> &#160;</text>
</a>
</g>
</g>
<!-- token&#45;&gt;usuarios -->
<g id="edge7" class="edge">
<title>token:w&#45;&gt;usuarios:e</title>
<path fill="none" stroke="#000000" d="M262.7258,-67.6047C225.9243,-77.2872 202.6876,-121.8512 190.39,-154.1103"/>
<polygon fill="#000000" stroke="#000000" points="269.5657,-66.7229 277.9603,-69.2705 273.5328,-66.2115 277.5,-65.7 277.5,-65.7 277.5,-65.7 273.5328,-66.2115 277.0397,-62.1295 269.5657,-66.7229 269.5657,-66.7229"/>
<ellipse fill="none" stroke="#000000" cx="266.3919" cy="-67.1321" rx="3.2" ry="3.2"/>
</g>
<!-- usuario_grupo -->
<g id="node8" class="node">
<title>usuario_grupo</title>
<g id="a_node8"><a xlink:href="../../tables/usuario_grupo.html" xlink:title="usuario_grupo" target="_top">
<polygon fill="#ffffff" stroke="transparent" points="401,-230.7 401,-320.7 552,-320.7 552,-230.7 401,-230.7"/>
<polygon fill="#f5f5f5" stroke="transparent" points="403.5,-295.7 403.5,-318.7 550.5,-318.7 550.5,-295.7 403.5,-295.7"/>
<polygon fill="none" stroke="#000000" points="403.5,-295.7 403.5,-318.7 550.5,-318.7 550.5,-295.7 403.5,-295.7"/>
<text text-anchor="start" x="408.5" y="-304.3" font-family="Helvetica,sans-Serif" font-weight="bold" font-size="11.00" fill="#000000">usuario_grupo</text>
<text text-anchor="start" x="515.5437" y="-303.8" font-family="Helvetica,sans-Serif" font-size="11.00" fill="#000000">[table]</text>
<polygon fill="none" stroke="#000000" points="403.5,-273.7 403.5,-295.7 508.5,-295.7 508.5,-273.7 403.5,-273.7"/>
<image xlink:href="../../images/foreignKeys.png" width="11px" height="12px" preserveAspectRatio="xMinYMin meet" x="408.5" y="-290.7"/>
<text text-anchor="start" x="423.5" y="-280.8" font-family="Helvetica,sans-Serif" font-size="11.00" fill="#000000">id_grupo</text>
<polygon fill="none" stroke="#000000" points="508.5,-273.7 508.5,-295.7 550.5,-295.7 550.5,-273.7 508.5,-273.7"/>
<text text-anchor="start" x="511.4644" y="-281.4" font-family="Helvetica,sans-Serif" font-size="11.00" fill="#000000">int4[10]</text>
<polygon fill="none" stroke="#000000" points="403.5,-251.7 403.5,-273.7 508.5,-273.7 508.5,-251.7 403.5,-251.7"/>
<image xlink:href="../../images/foreignKeys.png" width="11px" height="12px" preserveAspectRatio="xMinYMin meet" x="408.5" y="-268.7"/>
<text text-anchor="start" x="423.5" y="-258.8" font-family="Helvetica,sans-Serif" font-size="11.00" fill="#000000">id_usuario</text>
<polygon fill="none" stroke="#000000" points="508.5,-251.7 508.5,-273.7 550.5,-273.7 550.5,-251.7 508.5,-251.7"/>
<text text-anchor="start" x="511.4644" y="-259.4" font-family="Helvetica,sans-Serif" font-size="11.00" fill="#000000">int4[10]</text>
<polygon fill="#ffffff" stroke="transparent" points="403.5,-232.7 403.5,-251.7 460.5,-251.7 460.5,-232.7 403.5,-232.7"/>
<polygon fill="none" stroke="#000000" points="403.5,-232.7 403.5,-251.7 460.5,-251.7 460.5,-232.7 403.5,-232.7"/>
<text text-anchor="start" x="406.5" y="-238.8" font-family="Helvetica,sans-Serif" font-size="11.00" fill="#000000">&lt; 2</text>
<polygon fill="#ffffff" stroke="transparent" points="460.5,-232.7 460.5,-251.7 508.5,-251.7 508.5,-232.7 460.5,-232.7"/>
<polygon fill="none" stroke="#000000" points="460.5,-232.7 460.5,-251.7 508.5,-251.7 508.5,-232.7 460.5,-232.7"/>
<text text-anchor="start" x="499.3862" y="-238.8" font-family="Helvetica,sans-Serif" font-size="11.00" fill="#000000"> &#160;</text>
<polygon fill="#ffffff" stroke="transparent" points="508.5,-232.7 508.5,-251.7 550.5,-251.7 550.5,-232.7 508.5,-232.7"/>
<polygon fill="none" stroke="#000000" points="508.5,-232.7 508.5,-251.7 550.5,-251.7 550.5,-232.7 508.5,-232.7"/>
<text text-anchor="start" x="531.9053" y="-238.8" font-family="Helvetica,sans-Serif" font-size="11.00" fill="#000000">0 &gt;</text>
<polygon fill="none" stroke="#000000" stroke-width="2" points="402,-231.7 402,-319.7 551,-319.7 551,-231.7 402,-231.7"/>
</a>
</g>
</g>
<!-- usuario_grupo&#45;&gt;grupos -->
<g id="edge10" class="edge">
<title>usuario_grupo:w&#45;&gt;grupos:e</title>
<path fill="none" stroke="#000000" d="M388.8867,-286.12C378.9596,-287.9824 369.2152,-291.5186 360.1844,-295.7736"/>
<polygon fill="#000000" stroke="#000000" points="395.5375,-285.4738 403.8482,-288.2831 399.5188,-285.0869 403.5,-284.7 403.5,-284.7 403.5,-284.7 399.5188,-285.0869 403.1518,-281.1169 395.5375,-285.4738 395.5375,-285.4738"/>
<ellipse fill="none" stroke="#000000" cx="392.3525" cy="-285.7833" rx="3.2" ry="3.2"/>
</g>
<!-- usuario_grupo&#45;&gt;usuarios -->
<g id="edge11" class="edge">
<title>usuario_grupo:w&#45;&gt;usuarios:e</title>
<path fill="none" stroke="#000000" d="M389.5375,-258.3697C376.1527,-247.1818 382.6564,-217.3093 360,-204.7 321.1028,-183.052 270.0598,-180.447 232.1814,-182.4473"/>
<polygon fill="#000000" stroke="#000000" points="395.859,-260.3302 402.4336,-266.1384 399.6795,-261.5151 403.5,-262.7 403.5,-262.7 403.5,-262.7 399.6795,-261.5151 404.5664,-259.2616 395.859,-260.3302 395.859,-260.3302"/>
<ellipse fill="none" stroke="#000000" cx="392.8026" cy="-259.3823" rx="3.2" ry="3.2"/>
</g>
<!-- usuario_turma -->
<g id="node9" class="node">
<title>usuario_turma</title>
<g id="a_node9"><a xlink:href="../../tables/usuario_turma.html" xlink:title="usuario_turma" target="_top">
<polygon fill="#ffffff" stroke="transparent" points="415.5,-148.2 415.5,-209.2 537.5,-209.2 537.5,-148.2 415.5,-148.2"/>
<polygon fill="#f5f5f5" stroke="transparent" points="415.5,-185.7 415.5,-208.7 537.5,-208.7 537.5,-185.7 415.5,-185.7"/>
<polygon fill="none" stroke="#000000" points="415.5,-185.7 415.5,-208.7 537.5,-208.7 537.5,-185.7 415.5,-185.7"/>
<text text-anchor="start" x="420.5" y="-194.3" font-family="Helvetica,sans-Serif" font-weight="bold" font-size="11.00" fill="#000000">usuario_turma</text>
<text text-anchor="start" x="503.0219" y="-193.8" font-family="Helvetica,sans-Serif" font-size="11.00" fill="#000000">[table]</text>
<polygon fill="none" stroke="#000000" points="415.5,-166.7 415.5,-185.7 537.5,-185.7 537.5,-166.7 415.5,-166.7"/>
<text text-anchor="start" x="418.5" y="-172.8" font-family="Helvetica,sans-Serif" font-size="11.00" fill="#000000">...</text>
<polygon fill="#ffffff" stroke="transparent" points="415.5,-147.7 415.5,-166.7 474.5,-166.7 474.5,-147.7 415.5,-147.7"/>
<polygon fill="none" stroke="#000000" points="415.5,-147.7 415.5,-166.7 474.5,-166.7 474.5,-147.7 415.5,-147.7"/>
<text text-anchor="start" x="418.5" y="-153.8" font-family="Helvetica,sans-Serif" font-size="11.00" fill="#000000">&lt; 2</text>
<polygon fill="#ffffff" stroke="transparent" points="474.5,-147.7 474.5,-166.7 505.5,-166.7 505.5,-147.7 474.5,-147.7"/>
<polygon fill="none" stroke="#000000" points="474.5,-147.7 474.5,-166.7 505.5,-166.7 505.5,-147.7 474.5,-147.7"/>
<text text-anchor="start" x="496.3862" y="-153.8" font-family="Helvetica,sans-Serif" font-size="11.00" fill="#000000"> &#160;</text>
<polygon fill="#ffffff" stroke="transparent" points="505.5,-147.7 505.5,-166.7 537.5,-166.7 537.5,-147.7 505.5,-147.7"/>
<polygon fill="none" stroke="#000000" points="505.5,-147.7 505.5,-166.7 537.5,-166.7 537.5,-147.7 505.5,-147.7"/>
<text text-anchor="start" x="528.3862" y="-153.8" font-family="Helvetica,sans-Serif" font-size="11.00" fill="#000000"> &#160;</text>
</a>
</g>
</g>
<!-- usuario_turma&#45;&gt;turmas -->
<g id="edge12" class="edge">
<title>usuario_turma:w&#45;&gt;turmas:e</title>
<path fill="none" stroke="#000000" d="M401.4617,-179.3022C378.7196,-193.2188 387.6264,-242.7 352.5,-242.7"/>
<polygon fill="#000000" stroke="#000000" points="407.751,-177.6884 416.3948,-179.187 411.6255,-176.6942 415.5,-175.7 415.5,-175.7 415.5,-175.7 411.6255,-176.6942 414.6052,-172.213 407.751,-177.6884 407.751,-177.6884"/>
<ellipse fill="none" stroke="#000000" cx="404.6515" cy="-178.4838" rx="3.2" ry="3.2"/>
</g>
<!-- usuario_turma&#45;&gt;usuarios -->
<g id="edge13" class="edge">
<title>usuario_turma:w&#45;&gt;usuarios:e</title>
<path fill="none" stroke="#000000" d="M401.035,-175.7146C345.7274,-175.8373 326.7043,-176.7918 265,-180.7 254.4361,-181.3691 243.1552,-182.2824 232.3676,-183.253"/>
<polygon fill="#000000" stroke="#000000" points="407.5,-175.7081 415.5037,-179.3 411.5,-175.7041 415.5,-175.7 415.5,-175.7 415.5,-175.7 411.5,-175.7041 415.4963,-172.1 407.5,-175.7081 407.5,-175.7081"/>
<ellipse fill="none" stroke="#000000" cx="404.3" cy="-175.7114" rx="3.2" ry="3.2"/>
</g>
</g>
</svg>
