<?xml version="1.0" encoding="UTF-8" standalone="no"?>
<!DOCTYPE svg PUBLIC "-//W3C//DTD SVG 1.1//EN"
 "http://www.w3.org/Graphics/SVG/1.1/DTD/svg11.dtd">
<!-- Generated by graphviz version 2.40.1 (20161225.0304)
 -->
<!-- Title: twoDegreesRelationshipsDiagram Pages: 1 -->
<svg width="777pt" height="488pt"
 viewBox="0.00 0.00 777.00 487.53" xmlns="http://www.w3.org/2000/svg" xmlns:xlink="http://www.w3.org/1999/xlink">
<g id="graph0" class="graph" transform="scale(1 1) rotate(0) translate(4 483.532)">
<title>twoDegreesRelationshipsDiagram</title>
<polygon fill="#ffffff" stroke="transparent" points="-4,4 -4,-483.532 773,-483.532 773,4 -4,4"/>
<text text-anchor="middle" x="72.4936" y="-7.3" font-family="Helvetica,sans-Serif" font-size="11.00" fill="#000000">Generated by SchemaSpy</text>
<!-- encontros -->
<g id="node1" class="node">
<title>encontros</title>
<g id="a_node1"><a xlink:href="../../tables/encontros.html" xlink:title="encontros" target="_top">
<polygon fill="#ffffff" stroke="transparent" points="497,-238.532 497,-299.532 594,-299.532 594,-238.532 497,-238.532"/>
<polygon fill="#f5f5f5" stroke="transparent" points="497.5,-276.032 497.5,-299.032 594.5,-299.032 594.5,-276.032 497.5,-276.032"/>
<polygon fill="none" stroke="#000000" points="497.5,-276.032 497.5,-299.032 594.5,-299.032 594.5,-276.032 497.5,-276.032"/>
<text text-anchor="start" x="502.5" y="-284.632" font-family="Helvetica,sans-Serif" font-weight="bold" font-size="11.00" fill="#000000">encontros</text>
<text text-anchor="start" x="560.0219" y="-284.132" font-family="Helvetica,sans-Serif" font-size="11.00" fill="#000000">[table]</text>
<polygon fill="none" stroke="#000000" points="497.5,-257.032 497.5,-276.032 594.5,-276.032 594.5,-257.032 497.5,-257.032"/>
<text text-anchor="start" x="500.5" y="-263.132" font-family="Helvetica,sans-Serif" font-size="11.00" fill="#000000">...</text>
<polygon fill="#ffffff" stroke="transparent" points="497.5,-238.032 497.5,-257.032 539.5,-257.032 539.5,-238.032 497.5,-238.032"/>
<polygon fill="none" stroke="#000000" points="497.5,-238.032 497.5,-257.032 539.5,-257.032 539.5,-238.032 497.5,-238.032"/>
<text text-anchor="start" x="500.5" y="-244.132" font-family="Helvetica,sans-Serif" font-size="11.00" fill="#000000">&lt; 2</text>
<polygon fill="#ffffff" stroke="transparent" points="539.5,-238.032 539.5,-257.032 562.5,-257.032 562.5,-238.032 539.5,-238.032"/>
<polygon fill="none" stroke="#000000" points="539.5,-238.032 539.5,-257.032 562.5,-257.032 562.5,-238.032 539.5,-238.032"/>
<text text-anchor="start" x="553.3862" y="-244.132" font-family="Helvetica,sans-Serif" font-size="11.00" fill="#000000"> &#160;</text>
<polygon fill="#ffffff" stroke="transparent" points="562.5,-238.032 562.5,-257.032 594.5,-257.032 594.5,-238.032 562.5,-238.032"/>
<polygon fill="none" stroke="#000000" points="562.5,-238.032 562.5,-257.032 594.5,-257.032 594.5,-238.032 562.5,-238.032"/>
<text text-anchor="start" x="575.9053" y="-244.132" font-family="Helvetica,sans-Serif" font-size="11.00" fill="#000000">2 &gt;</text>
</a>
</g>
</g>
<!-- grupos -->
<g id="node2" class="node">
<title>grupos</title>
<g id="a_node2"><a xlink:href="../../tables/grupos.html" xlink:title="grupos" target="_top">
<polygon fill="#ffffff" stroke="transparent" points="353.5,-128.532 353.5,-189.532 432.5,-189.532 432.5,-128.532 353.5,-128.532"/>
<polygon fill="#f5f5f5" stroke="transparent" points="354,-166.032 354,-189.032 433,-189.032 433,-166.032 354,-166.032"/>
<polygon fill="none" stroke="#000000" points="354,-166.032 354,-189.032 433,-189.032 433,-166.032 354,-166.032"/>
<text text-anchor="start" x="359" y="-174.632" font-family="Helvetica,sans-Serif" font-weight="bold" font-size="11.00" fill="#000000">grupos</text>
<text text-anchor="start" x="398.5219" y="-174.132" font-family="Helvetica,sans-Serif" font-size="11.00" fill="#000000">[table]</text>
<polygon fill="none" stroke="#000000" points="354,-147.032 354,-166.032 433,-166.032 433,-147.032 354,-147.032"/>
<text text-anchor="start" x="357" y="-153.132" font-family="Helvetica,sans-Serif" font-size="11.00" fill="#000000">...</text>
<polygon fill="#ffffff" stroke="transparent" points="354,-128.032 354,-147.032 387,-147.032 387,-128.032 354,-128.032"/>
<polygon fill="none" stroke="#000000" points="354,-128.032 354,-147.032 387,-147.032 387,-128.032 354,-128.032"/>
<text text-anchor="start" x="357" y="-134.132" font-family="Helvetica,sans-Serif" font-size="11.00" fill="#000000">&lt; 2</text>
<polygon fill="#ffffff" stroke="transparent" points="387,-128.032 387,-147.032 405,-147.032 405,-128.032 387,-128.032"/>
<polygon fill="none" stroke="#000000" points="387,-128.032 387,-147.032 405,-147.032 405,-128.032 387,-128.032"/>
<text text-anchor="start" x="395.8862" y="-134.132" font-family="Helvetica,sans-Serif" font-size="11.00" fill="#000000"> &#160;</text>
<polygon fill="#ffffff" stroke="transparent" points="405,-128.032 405,-147.032 433,-147.032 433,-128.032 405,-128.032"/>
<polygon fill="none" stroke="#000000" points="405,-128.032 405,-147.032 433,-147.032 433,-128.032 405,-128.032"/>
<text text-anchor="start" x="414.4053" y="-134.132" font-family="Helvetica,sans-Serif" font-size="11.00" fill="#000000">2 &gt;</text>
</a>
</g>
</g>
<!-- encontros&#45;&gt;grupos -->
<g id="edge1" class="edge">
<title>encontros:w&#45;&gt;grupos:e</title>
<path fill="none" stroke="#000000" d="M483.6709,-261.5499C463.3658,-250.0772 437.0268,-218.7909 417.9734,-193.7718"/>
<polygon fill="#000000" stroke="#000000" points="489.8897,-263.5654 496.39,-269.4566 493.6949,-264.7987 497.5,-266.032 497.5,-266.032 497.5,-266.032 493.6949,-264.7987 498.61,-262.6074 489.8897,-263.5654 489.8897,-263.5654"/>
<ellipse fill="none" stroke="#000000" cx="486.8456" cy="-262.5788" rx="3.2" ry="3.2"/>
</g>
<!-- turmas -->
<g id="node3" class="node">
<title>turmas</title>
<g id="a_node3"><a xlink:href="../../tables/turmas.html" xlink:title="turmas" target="_top">
<polygon fill="#ffffff" stroke="transparent" points="353.5,-414.532 353.5,-475.532 432.5,-475.532 432.5,-414.532 353.5,-414.532"/>
<polygon fill="#f5f5f5" stroke="transparent" points="354,-452.032 354,-475.032 433,-475.032 433,-452.032 354,-452.032"/>
<polygon fill="none" stroke="#000000" points="354,-452.032 354,-475.032 433,-475.032 433,-452.032 354,-452.032"/>
<text text-anchor="start" x="359" y="-460.632" font-family="Helvetica,sans-Serif" font-weight="bold" font-size="11.00" fill="#000000">turmas</text>
<text text-anchor="start" x="398.5219" y="-460.132" font-family="Helvetica,sans-Serif" font-size="11.00" fill="#000000">[table]</text>
<polygon fill="none" stroke="#000000" points="354,-433.032 354,-452.032 433,-452.032 433,-433.032 354,-433.032"/>
<text text-anchor="start" x="357" y="-439.132" font-family="Helvetica,sans-Serif" font-size="11.00" fill="#000000">...</text>
<polygon fill="#ffffff" stroke="transparent" points="354,-414.032 354,-433.032 387,-433.032 387,-414.032 354,-414.032"/>
<polygon fill="none" stroke="#000000" points="354,-414.032 354,-433.032 387,-433.032 387,-414.032 354,-414.032"/>
<text text-anchor="start" x="357" y="-420.132" font-family="Helvetica,sans-Serif" font-size="11.00" fill="#000000">&lt; 2</text>
<polygon fill="#ffffff" stroke="transparent" points="387,-414.032 387,-433.032 405,-433.032 405,-414.032 387,-414.032"/>
<polygon fill="none" stroke="#000000" points="387,-414.032 387,-433.032 405,-433.032 405,-414.032 387,-414.032"/>
<text text-anchor="start" x="395.8862" y="-420.132" font-family="Helvetica,sans-Serif" font-size="11.00" fill="#000000"> &#160;</text>
<polygon fill="#ffffff" stroke="transparent" points="405,-414.032 405,-433.032 433,-433.032 433,-414.032 405,-414.032"/>
<polygon fill="none" stroke="#000000" points="405,-414.032 405,-433.032 433,-433.032 433,-414.032 405,-414.032"/>
<text text-anchor="start" x="414.4053" y="-420.132" font-family="Helvetica,sans-Serif" font-size="11.00" fill="#000000">2 &gt;</text>
</a>
</g>
</g>
<!-- encontros&#45;&gt;turmas -->
<g id="edge2" class="edge">
<title>encontros:w&#45;&gt;turmas:e</title>
<path fill="none" stroke="#000000" d="M482.8377,-268.0507C448.2759,-279.2002 468.2409,-334.2597 443,-376.032 436.0378,-387.5541 427.7074,-399.6034 419.8612,-410.3492"/>
<polygon fill="#000000" stroke="#000000" points="489.5748,-267.1232 497.991,-269.5984 493.5374,-266.5776 497.5,-266.032 497.5,-266.032 497.5,-266.032 493.5374,-266.5776 497.009,-262.4656 489.5748,-267.1232 489.5748,-267.1232"/>
<ellipse fill="none" stroke="#000000" cx="486.4047" cy="-267.5597" rx="3.2" ry="3.2"/>
</g>
<!-- cursos -->
<g id="node4" class="node">
<title>cursos</title>
<g id="a_node4"><a xlink:href="../../tables/cursos.html" xlink:title="cursos" target="_top">
<polygon fill="#ffffff" stroke="transparent" points="8,-275.532 8,-336.532 86,-336.532 86,-275.532 8,-275.532"/>
<polygon fill="#f5f5f5" stroke="transparent" points="8,-313.032 8,-336.032 86,-336.032 86,-313.032 8,-313.032"/>
<polygon fill="none" stroke="#000000" points="8,-313.032 8,-336.032 86,-336.032 86,-313.032 8,-313.032"/>
<text text-anchor="start" x="13" y="-321.632" font-family="Helvetica,sans-Serif" font-weight="bold" font-size="11.00" fill="#000000">cursos</text>
<text text-anchor="start" x="51.5219" y="-321.132" font-family="Helvetica,sans-Serif" font-size="11.00" fill="#000000">[table]</text>
<polygon fill="none" stroke="#000000" points="8,-294.032 8,-313.032 86,-313.032 86,-294.032 8,-294.032"/>
<text text-anchor="start" x="11" y="-300.132" font-family="Helvetica,sans-Serif" font-size="11.00" fill="#000000">...</text>
<polygon fill="#ffffff" stroke="transparent" points="8,-275.032 8,-294.032 36,-294.032 36,-275.032 8,-275.032"/>
<polygon fill="none" stroke="#000000" points="8,-275.032 8,-294.032 36,-294.032 36,-275.032 8,-275.032"/>
<text text-anchor="start" x="11" y="-281.132" font-family="Helvetica,sans-Serif" font-size="11.00" fill="#000000"> &#160;</text>
<polygon fill="#ffffff" stroke="transparent" points="36,-275.032 36,-294.032 56,-294.032 56,-275.032 36,-275.032"/>
<polygon fill="none" stroke="#000000" points="36,-275.032 36,-294.032 56,-294.032 56,-275.032 36,-275.032"/>
<text text-anchor="start" x="46.8862" y="-281.132" font-family="Helvetica,sans-Serif" font-size="11.00" fill="#000000"> &#160;</text>
<polygon fill="#ffffff" stroke="transparent" points="56,-275.032 56,-294.032 86,-294.032 86,-275.032 56,-275.032"/>
<polygon fill="none" stroke="#000000" points="56,-275.032 56,-294.032 86,-294.032 86,-275.032 56,-275.032"/>
<text text-anchor="start" x="67.4053" y="-281.132" font-family="Helvetica,sans-Serif" font-size="11.00" fill="#000000">3 &gt;</text>
</a>
</g>
</g>
<!-- grupos&#45;&gt;cursos -->
<g id="edge3" class="edge">
<title>grupos:w&#45;&gt;cursos:e</title>
<path fill="none" stroke="#000000" d="M364.6935,-112.5652C350.746,-94.1527 332.1399,-75.0184 310,-65.032 235.8597,-31.5905 192.9514,-17.4345 127,-65.032 93.0396,-89.5414 65.4218,-210.4226 53.4386,-271.123"/>
<polygon fill="#000000" stroke="#000000" points="368.5307,-117.9445 370.2458,-126.5479 370.8537,-121.2009 373.1766,-124.4573 373.1766,-124.4573 373.1766,-124.4573 370.8537,-121.2009 376.1073,-122.3666 368.5307,-117.9445 368.5307,-117.9445"/>
<ellipse fill="none" stroke="#000000" cx="366.6724" cy="-115.3394" rx="3.2" ry="3.2"/>
</g>
<!-- usuarios -->
<g id="node5" class="node">
<title>usuarios</title>
<g id="a_node5"><a xlink:href="../../tables/usuarios.html" xlink:title="usuarios" target="_top">
<polygon fill="#ffffff" stroke="transparent" points="135,-76.032 135,-364.032 302,-364.032 302,-76.032 135,-76.032"/>
<polygon fill="#f5f5f5" stroke="transparent" points="137.5,-339.032 137.5,-362.032 300.5,-362.032 300.5,-339.032 137.5,-339.032"/>
<polygon fill="none" stroke="#000000" points="137.5,-339.032 137.5,-362.032 300.5,-362.032 300.5,-339.032 137.5,-339.032"/>
<text text-anchor="start" x="142.5" y="-347.632" font-family="Helvetica,sans-Serif" font-weight="bold" font-size="11.00" fill="#000000">usuarios</text>
<text text-anchor="start" x="265.5437" y="-347.132" font-family="Helvetica,sans-Serif" font-size="11.00" fill="#000000">[table]</text>
<polygon fill="none" stroke="#000000" points="137.5,-317.032 137.5,-339.032 216.5,-339.032 216.5,-317.032 137.5,-317.032"/>
<image xlink:href="../../images/primaryKeys.png" width="11px" height="12px" preserveAspectRatio="xMinYMin meet" x="142.5" y="-334.032"/>
<text text-anchor="start" x="157.5" y="-324.132" font-family="Helvetica,sans-Serif" font-size="11.00" fill="#000000">id</text>
<polygon fill="none" stroke="#000000" points="216.5,-317.032 216.5,-339.032 300.5,-339.032 300.5,-317.032 216.5,-317.032"/>
<text text-anchor="start" x="219.5" y="-324.732" font-family="Helvetica,sans-Serif" font-size="11.00" fill="#000000">serial[10]</text>
<polygon fill="none" stroke="#000000" points="137.5,-295.032 137.5,-317.032 216.5,-317.032 216.5,-295.032 137.5,-295.032"/>
<image xlink:href="../../images/foreignKeys.png" width="11px" height="12px" preserveAspectRatio="xMinYMin meet" x="142.5" y="-312.032"/>
<text text-anchor="start" x="157.5" y="-302.132" font-family="Helvetica,sans-Serif" font-size="11.00" fill="#000000">id_curso</text>
<polygon fill="none" stroke="#000000" points="216.5,-295.032 216.5,-317.032 300.5,-317.032 300.5,-295.032 216.5,-295.032"/>
<text text-anchor="start" x="219.5" y="-302.732" font-family="Helvetica,sans-Serif" font-size="11.00" fill="#000000">int4[10]</text>
<polygon fill="none" stroke="#000000" points="137.5,-273.032 137.5,-295.032 216.5,-295.032 216.5,-273.032 137.5,-273.032"/>
<text text-anchor="start" x="157.5" y="-280.132" font-family="Helvetica,sans-Serif" font-size="11.00" fill="#000000">data_nasc</text>
<polygon fill="none" stroke="#000000" points="216.5,-273.032 216.5,-295.032 300.5,-295.032 300.5,-273.032 216.5,-273.032"/>
<text text-anchor="start" x="219.3807" y="-280.732" font-family="Helvetica,sans-Serif" font-size="11.00" fill="#000000">timestamp[29,6]</text>
<polygon fill="none" stroke="#000000" points="137.5,-251.032 137.5,-273.032 216.5,-273.032 216.5,-251.032 137.5,-251.032"/>
<text text-anchor="start" x="157.5" y="-258.132" font-family="Helvetica,sans-Serif" font-size="11.00" fill="#000000">dtype</text>
<polygon fill="none" stroke="#000000" points="216.5,-251.032 216.5,-273.032 300.5,-273.032 300.5,-251.032 216.5,-251.032"/>
<text text-anchor="start" x="219.5" y="-258.732" font-family="Helvetica,sans-Serif" font-size="11.00" fill="#000000">varchar[31]</text>
<polygon fill="#ffffff" stroke="transparent" points="137.5,-229.032 137.5,-251.032 216.5,-251.032 216.5,-229.032 137.5,-229.032"/>
<polygon fill="none" stroke="#000000" points="137.5,-229.032 137.5,-251.032 216.5,-251.032 216.5,-229.032 137.5,-229.032"/>
<text text-anchor="start" x="157.5" y="-236.132" font-family="Helvetica,sans-Serif" font-size="11.00" fill="#000000">nome</text>
<polygon fill="none" stroke="#000000" points="216.5,-229.032 216.5,-251.032 300.5,-251.032 300.5,-229.032 216.5,-229.032"/>
<text text-anchor="start" x="219.5" y="-236.732" font-family="Helvetica,sans-Serif" font-size="11.00" fill="#000000">varchar[100]</text>
<polygon fill="#ffffff" stroke="transparent" points="137.5,-207.032 137.5,-229.032 216.5,-229.032 216.5,-207.032 137.5,-207.032"/>
<polygon fill="none" stroke="#000000" points="137.5,-207.032 137.5,-229.032 216.5,-229.032 216.5,-207.032 137.5,-207.032"/>
<text text-anchor="start" x="157.5" y="-214.132" font-family="Helvetica,sans-Serif" font-size="11.00" fill="#000000">email</text>
<polygon fill="none" stroke="#000000" points="216.5,-207.032 216.5,-229.032 300.5,-229.032 300.5,-207.032 216.5,-207.032"/>
<text text-anchor="start" x="219.5" y="-214.732" font-family="Helvetica,sans-Serif" font-size="11.00" fill="#000000">varchar[255]</text>
<polygon fill="#ffffff" stroke="transparent" points="137.5,-185.032 137.5,-207.032 216.5,-207.032 216.5,-185.032 137.5,-185.032"/>
<polygon fill="none" stroke="#000000" points="137.5,-185.032 137.5,-207.032 216.5,-207.032 216.5,-185.032 137.5,-185.032"/>
<text text-anchor="start" x="157.5" y="-192.132" font-family="Helvetica,sans-Serif" font-size="11.00" fill="#000000">matricula</text>
<polygon fill="none" stroke="#000000" points="216.5,-185.032 216.5,-207.032 300.5,-207.032 300.5,-185.032 216.5,-185.032"/>
<text text-anchor="start" x="219.5" y="-192.732" font-family="Helvetica,sans-Serif" font-size="11.00" fill="#000000">varchar[255]</text>
<polygon fill="none" stroke="#000000" points="137.5,-163.032 137.5,-185.032 216.5,-185.032 216.5,-163.032 137.5,-163.032"/>
<text text-anchor="start" x="157.5" y="-170.132" font-family="Helvetica,sans-Serif" font-size="11.00" fill="#000000">password</text>
<polygon fill="none" stroke="#000000" points="216.5,-163.032 216.5,-185.032 300.5,-185.032 300.5,-163.032 216.5,-163.032"/>
<text text-anchor="start" x="219.5" y="-170.732" font-family="Helvetica,sans-Serif" font-size="11.00" fill="#000000">varchar[255]</text>
<polygon fill="none" stroke="#000000" points="137.5,-141.032 137.5,-163.032 216.5,-163.032 216.5,-141.032 137.5,-141.032"/>
<text text-anchor="start" x="157.5" y="-148.132" font-family="Helvetica,sans-Serif" font-size="11.00" fill="#000000">role</text>
<polygon fill="none" stroke="#000000" points="216.5,-141.032 216.5,-163.032 300.5,-163.032 300.5,-141.032 216.5,-141.032"/>
<text text-anchor="start" x="219.5" y="-148.732" font-family="Helvetica,sans-Serif" font-size="11.00" fill="#000000">varchar[255]</text>
<polygon fill="#ffffff" stroke="transparent" points="137.5,-119.032 137.5,-141.032 216.5,-141.032 216.5,-119.032 137.5,-119.032"/>
<polygon fill="none" stroke="#000000" points="137.5,-119.032 137.5,-141.032 216.5,-141.032 216.5,-119.032 137.5,-119.032"/>
<text text-anchor="start" x="157.5" y="-126.132" font-family="Helvetica,sans-Serif" font-size="11.00" fill="#000000">siape</text>
<polygon fill="none" stroke="#000000" points="216.5,-119.032 216.5,-141.032 300.5,-141.032 300.5,-119.032 216.5,-119.032"/>
<text text-anchor="start" x="219.5" y="-126.732" font-family="Helvetica,sans-Serif" font-size="11.00" fill="#000000">varchar[255]</text>
<polygon fill="none" stroke="#000000" points="137.5,-97.032 137.5,-119.032 216.5,-119.032 216.5,-97.032 137.5,-97.032"/>
<text text-anchor="start" x="157.5" y="-104.132" font-family="Helvetica,sans-Serif" font-size="11.00" fill="#000000">situacao</text>
<polygon fill="none" stroke="#000000" points="216.5,-97.032 216.5,-119.032 300.5,-119.032 300.5,-97.032 216.5,-97.032"/>
<text text-anchor="start" x="219.5" y="-104.732" font-family="Helvetica,sans-Serif" font-size="11.00" fill="#000000">varchar[255]</text>
<polygon fill="#ffffff" stroke="transparent" points="137.5,-78.032 137.5,-97.032 181.5,-97.032 181.5,-78.032 137.5,-78.032"/>
<polygon fill="none" stroke="#000000" points="137.5,-78.032 137.5,-97.032 181.5,-97.032 181.5,-78.032 137.5,-78.032"/>
<text text-anchor="start" x="140.5" y="-84.132" font-family="Helvetica,sans-Serif" font-size="11.00" fill="#000000">&lt; 1</text>
<polygon fill="#ffffff" stroke="transparent" points="181.5,-78.032 181.5,-97.032 216.5,-97.032 216.5,-78.032 181.5,-78.032"/>
<polygon fill="none" stroke="#000000" points="181.5,-78.032 181.5,-97.032 216.5,-97.032 216.5,-78.032 181.5,-78.032"/>
<text text-anchor="start" x="207.3862" y="-84.132" font-family="Helvetica,sans-Serif" font-size="11.00" fill="#000000"> &#160;</text>
<polygon fill="#ffffff" stroke="transparent" points="216.5,-78.032 216.5,-97.032 300.5,-97.032 300.5,-78.032 216.5,-78.032"/>
<polygon fill="none" stroke="#000000" points="216.5,-78.032 216.5,-97.032 300.5,-97.032 300.5,-78.032 216.5,-78.032"/>
<text text-anchor="start" x="281.9053" y="-84.132" font-family="Helvetica,sans-Serif" font-size="11.00" fill="#000000">6 &gt;</text>
<polygon fill="none" stroke="#000000" stroke-width="2" points="136,-77.032 136,-363.032 301,-363.032 301,-77.032 136,-77.032"/>
</a>
</g>
</g>
<!-- grupos&#45;&gt;usuarios -->
<g id="edge4" class="edge">
<title>grupos:w&#45;&gt;usuarios:e</title>
<path fill="none" stroke="#000000" d="M343.8243,-206.2385C317.0831,-262.8623 354.662,-328.032 300.5,-328.032"/>
<polygon fill="#000000" stroke="#000000" points="347.094,-200.5158 354.1886,-195.3556 349.0784,-197.0427 351.0628,-193.5697 351.0628,-193.5697 351.0628,-193.5697 349.0784,-197.0427 347.9371,-191.7837 347.094,-200.5158 347.094,-200.5158"/>
<ellipse fill="none" stroke="#000000" cx="345.5065" cy="-203.2943" rx="3.2" ry="3.2"/>
</g>
<!-- turmas&#45;&gt;cursos -->
<g id="edge8" class="edge">
<title>turmas:w&#45;&gt;cursos:e</title>
<path fill="none" stroke="#000000" d="M330.7563,-436.4261C274.9559,-426.8916 192.0973,-408.1432 127,-374.032 110.5311,-365.4023 94.4857,-352.8542 81.1407,-340.8802"/>
<polygon fill="#000000" stroke="#000000" points="337.1406,-437.4722 344.4532,-442.3184 341.0879,-438.119 345.0353,-438.7658 345.0353,-438.7658 345.0353,-438.7658 341.0879,-438.119 345.6174,-435.2132 337.1406,-437.4722 337.1406,-437.4722"/>
<ellipse fill="none" stroke="#000000" cx="333.9827" cy="-436.9547" rx="3.2" ry="3.2"/>
</g>
<!-- turmas&#45;&gt;usuarios -->
<g id="edge9" class="edge">
<title>turmas:w&#45;&gt;usuarios:e</title>
<path fill="none" stroke="#000000" d="M343.7969,-398.4335C322.5961,-362.9331 333.885,-328.032 300.5,-328.032"/>
<polygon fill="#000000" stroke="#000000" points="347.706,-403.9277 349.4105,-412.5332 350.0249,-407.187 352.3438,-410.4462 352.3438,-410.4462 352.3438,-410.4462 350.0249,-407.187 355.2771,-408.3592 347.706,-403.9277 347.706,-403.9277"/>
<ellipse fill="none" stroke="#000000" cx="345.8508" cy="-401.3203" rx="3.2" ry="3.2"/>
</g>
<!-- usuarios&#45;&gt;cursos -->
<g id="edge14" class="edge">
<title>usuarios:w&#45;&gt;cursos:e</title>
<path fill="none" stroke="#000000" d="M123.0919,-306.032C113.4537,-306.032 103.6551,-306.032 94.4386,-306.032"/>
<polygon fill="#000000" stroke="#000000" points="129.5,-306.0321 137.5,-309.632 133.5,-306.032 137.5,-306.032 137.5,-306.032 137.5,-306.032 133.5,-306.032 137.5,-302.432 129.5,-306.0321 129.5,-306.0321"/>
<ellipse fill="none" stroke="#000000" cx="126.3" cy="-306.0321" rx="3.2" ry="3.2"/>
</g>
<!-- mensagens -->
<g id="node6" class="node">
<title>mensagens</title>
<g id="a_node6"><a xlink:href="../../tables/mensagens.html" xlink:title="mensagens" target="_top">
<polygon fill="#ffffff" stroke="transparent" points="656,-180.532 656,-307.532 761,-307.532 761,-180.532 656,-180.532"/>
<polygon fill="#f5f5f5" stroke="transparent" points="656.5,-284.032 656.5,-307.032 761.5,-307.032 761.5,-284.032 656.5,-284.032"/>
<polygon fill="none" stroke="#000000" points="656.5,-284.032 656.5,-307.032 761.5,-307.032 761.5,-284.032 656.5,-284.032"/>
<text text-anchor="start" x="661.5" y="-292.632" font-family="Helvetica,sans-Serif" font-weight="bold" font-size="11.00" fill="#000000">mensagens</text>
<text text-anchor="start" x="727.0219" y="-292.132" font-family="Helvetica,sans-Serif" font-size="11.00" fill="#000000">[table]</text>
<polygon fill="none" stroke="#000000" points="656.5,-262.032 656.5,-284.032 761.5,-284.032 761.5,-262.032 656.5,-262.032"/>
<image xlink:href="../../images/primaryKeys.png" width="11px" height="12px" preserveAspectRatio="xMinYMin meet" x="661.5" y="-279.032"/>
<text text-anchor="start" x="684.5" y="-269.132" font-family="Helvetica,sans-Serif" font-size="11.00" fill="#000000">id</text>
<polygon fill="none" stroke="#000000" points="656.5,-240.032 656.5,-262.032 761.5,-262.032 761.5,-240.032 656.5,-240.032"/>
<image xlink:href="../../images/foreignKeys.png" width="11px" height="12px" preserveAspectRatio="xMinYMin meet" x="661.5" y="-257.032"/>
<text text-anchor="start" x="684.5" y="-247.132" font-family="Helvetica,sans-Serif" font-size="11.00" fill="#000000">id_encontro</text>
<polygon fill="none" stroke="#000000" points="656.5,-218.032 656.5,-240.032 761.5,-240.032 761.5,-218.032 656.5,-218.032"/>
<image xlink:href="../../images/foreignKeys.png" width="11px" height="12px" preserveAspectRatio="xMinYMin meet" x="661.5" y="-235.032"/>
<text text-anchor="start" x="684.5" y="-225.132" font-family="Helvetica,sans-Serif" font-size="11.00" fill="#000000">id_user</text>
<polygon fill="none" stroke="#000000" points="656.5,-199.032 656.5,-218.032 761.5,-218.032 761.5,-199.032 656.5,-199.032"/>
<text text-anchor="start" x="659.5" y="-205.132" font-family="Helvetica,sans-Serif" font-size="11.00" fill="#000000">...</text>
<polygon fill="#ffffff" stroke="transparent" points="656.5,-180.032 656.5,-199.032 707.5,-199.032 707.5,-180.032 656.5,-180.032"/>
<polygon fill="none" stroke="#000000" points="656.5,-180.032 656.5,-199.032 707.5,-199.032 707.5,-180.032 656.5,-180.032"/>
<text text-anchor="start" x="659.5" y="-186.132" font-family="Helvetica,sans-Serif" font-size="11.00" fill="#000000">&lt; 2</text>
<polygon fill="#ffffff" stroke="transparent" points="707.5,-180.032 707.5,-199.032 734.5,-199.032 734.5,-180.032 707.5,-180.032"/>
<polygon fill="none" stroke="#000000" points="707.5,-180.032 707.5,-199.032 734.5,-199.032 734.5,-180.032 707.5,-180.032"/>
<text text-anchor="start" x="725.3862" y="-186.132" font-family="Helvetica,sans-Serif" font-size="11.00" fill="#000000"> &#160;</text>
<polygon fill="#ffffff" stroke="transparent" points="734.5,-180.032 734.5,-199.032 761.5,-199.032 761.5,-180.032 734.5,-180.032"/>
<polygon fill="none" stroke="#000000" points="734.5,-180.032 734.5,-199.032 761.5,-199.032 761.5,-180.032 734.5,-180.032"/>
<text text-anchor="start" x="752.3862" y="-186.132" font-family="Helvetica,sans-Serif" font-size="11.00" fill="#000000"> &#160;</text>
</a>
</g>
</g>
<!-- mensagens&#45;&gt;encontros -->
<g id="edge5" class="edge">
<title>mensagens:w&#45;&gt;encontros:e</title>
<path fill="none" stroke="#000000" d="M641.6908,-252.6373C625.0457,-256.5069 617.0918,-266.032 594.5,-266.032"/>
<polygon fill="#000000" stroke="#000000" points="648.5466,-251.8942 656.888,-254.611 652.5233,-251.4631 656.5,-251.032 656.5,-251.032 656.5,-251.032 652.5233,-251.4631 656.112,-247.453 648.5466,-251.8942 648.5466,-251.8942"/>
<ellipse fill="none" stroke="#000000" cx="645.3652" cy="-252.239" rx="3.2" ry="3.2"/>
</g>
<!-- mensagens&#45;&gt;usuarios -->
<g id="edge6" class="edge">
<title>mensagens:w&#45;&gt;usuarios:e</title>
<path fill="none" stroke="#000000" d="M641.648,-228.5719C563.4214,-224.2716 397.358,-192.0706 343,-228.032 302.7242,-254.6771 348.7918,-328.032 300.5,-328.032"/>
<polygon fill="#000000" stroke="#000000" points="648.5038,-228.7842 656.3885,-232.6303 652.5019,-228.9081 656.5,-229.032 656.5,-229.032 656.5,-229.032 652.5019,-228.9081 656.6115,-225.4337 648.5038,-228.7842 648.5038,-228.7842"/>
<ellipse fill="none" stroke="#000000" cx="645.3054" cy="-228.6851" rx="3.2" ry="3.2"/>
</g>
<!-- token -->
<g id="node7" class="node">
<title>token</title>
<g id="a_node7"><a xlink:href="../../tables/token.html" xlink:title="token" target="_top">
<polygon fill="#ffffff" stroke="transparent" points="351,-238.532 351,-365.532 435,-365.532 435,-238.532 351,-238.532"/>
<polygon fill="#f5f5f5" stroke="transparent" points="351,-342.032 351,-365.032 435,-365.032 435,-342.032 351,-342.032"/>
<polygon fill="none" stroke="#000000" points="351,-342.032 351,-365.032 435,-365.032 435,-342.032 351,-342.032"/>
<text text-anchor="start" x="356" y="-350.632" font-family="Helvetica,sans-Serif" font-weight="bold" font-size="11.00" fill="#000000">token</text>
<text text-anchor="start" x="400.0437" y="-350.132" font-family="Helvetica,sans-Serif" font-size="11.00" fill="#000000">[table]</text>
<polygon fill="none" stroke="#000000" points="351,-320.032 351,-342.032 435,-342.032 435,-320.032 351,-320.032"/>
<image xlink:href="../../images/primaryKeys.png" width="11px" height="12px" preserveAspectRatio="xMinYMin meet" x="356" y="-337.032"/>
<text text-anchor="start" x="371" y="-327.132" font-family="Helvetica,sans-Serif" font-size="11.00" fill="#000000">id</text>
<polygon fill="none" stroke="#000000" points="351,-298.032 351,-320.032 435,-320.032 435,-298.032 351,-298.032"/>
<image xlink:href="../../images/foreignKeys.png" width="11px" height="12px" preserveAspectRatio="xMinYMin meet" x="356" y="-315.032"/>
<text text-anchor="start" x="371" y="-305.132" font-family="Helvetica,sans-Serif" font-size="11.00" fill="#000000">id_usuario</text>
<polygon fill="#ffffff" stroke="transparent" points="351,-276.032 351,-298.032 435,-298.032 435,-276.032 351,-276.032"/>
<polygon fill="none" stroke="#000000" points="351,-276.032 351,-298.032 435,-298.032 435,-276.032 351,-276.032"/>
<text text-anchor="start" x="371" y="-283.132" font-family="Helvetica,sans-Serif" font-size="11.00" fill="#000000">token</text>
<polygon fill="none" stroke="#000000" points="351,-257.032 351,-276.032 435,-276.032 435,-257.032 351,-257.032"/>
<text text-anchor="start" x="354" y="-263.132" font-family="Helvetica,sans-Serif" font-size="11.00" fill="#000000">...</text>
<polygon fill="#ffffff" stroke="transparent" points="351,-238.032 351,-257.032 391,-257.032 391,-238.032 351,-238.032"/>
<polygon fill="none" stroke="#000000" points="351,-238.032 351,-257.032 391,-257.032 391,-238.032 351,-238.032"/>
<text text-anchor="start" x="354" y="-244.132" font-family="Helvetica,sans-Serif" font-size="11.00" fill="#000000">&lt; 1</text>
<polygon fill="#ffffff" stroke="transparent" points="391,-238.032 391,-257.032 413,-257.032 413,-238.032 391,-238.032"/>
<polygon fill="none" stroke="#000000" points="391,-238.032 391,-257.032 413,-257.032 413,-238.032 391,-238.032"/>
<text text-anchor="start" x="403.8862" y="-244.132" font-family="Helvetica,sans-Serif" font-size="11.00" fill="#000000"> &#160;</text>
<polygon fill="#ffffff" stroke="transparent" points="413,-238.032 413,-257.032 435,-257.032 435,-238.032 413,-238.032"/>
<polygon fill="none" stroke="#000000" points="413,-238.032 413,-257.032 435,-257.032 435,-238.032 413,-238.032"/>
<text text-anchor="start" x="425.8862" y="-244.132" font-family="Helvetica,sans-Serif" font-size="11.00" fill="#000000"> &#160;</text>
</a>
</g>
</g>
<!-- token&#45;&gt;usuarios -->
<g id="edge7" class="edge">
<title>token:w&#45;&gt;usuarios:e</title>
<path fill="none" stroke="#000000" d="M336.7405,-311.8355C324.532,-317.1207 318.6727,-328.032 300.5,-328.032"/>
<polygon fill="#000000" stroke="#000000" points="343.1503,-310.5753 351.6945,-312.5644 347.0751,-309.8037 351,-309.032 351,-309.032 351,-309.032 347.0751,-309.8037 350.3055,-305.4996 343.1503,-310.5753 343.1503,-310.5753"/>
<ellipse fill="none" stroke="#000000" cx="340.0104" cy="-311.1927" rx="3.2" ry="3.2"/>
</g>
<!-- usuario_grupo -->
<g id="node8" class="node">
<title>usuario_grupo</title>
<g id="a_node8"><a xlink:href="../../tables/usuario_grupo.html" xlink:title="usuario_grupo" target="_top">
<polygon fill="#ffffff" stroke="transparent" points="484,-101.532 484,-162.532 607,-162.532 607,-101.532 484,-101.532"/>
<polygon fill="#f5f5f5" stroke="transparent" points="484.5,-139.032 484.5,-162.032 607.5,-162.032 607.5,-139.032 484.5,-139.032"/>
<polygon fill="none" stroke="#000000" points="484.5,-139.032 484.5,-162.032 607.5,-162.032 607.5,-139.032 484.5,-139.032"/>
<text text-anchor="start" x="489.5" y="-147.632" font-family="Helvetica,sans-Serif" font-weight="bold" font-size="11.00" fill="#000000">usuario_grupo</text>
<text text-anchor="start" x="573.0219" y="-147.132" font-family="Helvetica,sans-Serif" font-size="11.00" fill="#000000">[table]</text>
<polygon fill="none" stroke="#000000" points="484.5,-120.032 484.5,-139.032 607.5,-139.032 607.5,-120.032 484.5,-120.032"/>
<text text-anchor="start" x="487.5" y="-126.132" font-family="Helvetica,sans-Serif" font-size="11.00" fill="#000000">...</text>
<polygon fill="#ffffff" stroke="transparent" points="484.5,-101.032 484.5,-120.032 544.5,-120.032 544.5,-101.032 484.5,-101.032"/>
<polygon fill="none" stroke="#000000" points="484.5,-101.032 484.5,-120.032 544.5,-120.032 544.5,-101.032 484.5,-101.032"/>
<text text-anchor="start" x="487.5" y="-107.132" font-family="Helvetica,sans-Serif" font-size="11.00" fill="#000000">&lt; 2</text>
<polygon fill="#ffffff" stroke="transparent" points="544.5,-101.032 544.5,-120.032 575.5,-120.032 575.5,-101.032 544.5,-101.032"/>
<polygon fill="none" stroke="#000000" points="544.5,-101.032 544.5,-120.032 575.5,-120.032 575.5,-101.032 544.5,-101.032"/>
<text text-anchor="start" x="566.3862" y="-107.132" font-family="Helvetica,sans-Serif" font-size="11.00" fill="#000000"> &#160;</text>
<polygon fill="#ffffff" stroke="transparent" points="575.5,-101.032 575.5,-120.032 607.5,-120.032 607.5,-101.032 575.5,-101.032"/>
<polygon fill="none" stroke="#000000" points="575.5,-101.032 575.5,-120.032 607.5,-120.032 607.5,-101.032 575.5,-101.032"/>
<text text-anchor="start" x="598.3862" y="-107.132" font-family="Helvetica,sans-Serif" font-size="11.00" fill="#000000"> &#160;</text>
</a>
</g>
</g>
<!-- usuario_grupo&#45;&gt;grupos -->
<g id="edge10" class="edge">
<title>usuario_grupo:w&#45;&gt;grupos:e</title>
<path fill="none" stroke="#000000" d="M461.6412,-146.8791C454.4656,-148.1496 447.3807,-149.4039 440.6442,-150.5966"/>
<polygon fill="#000000" stroke="#000000" points="468.0665,-145.7416 476.5716,-147.8917 472.0052,-145.0442 475.944,-144.3468 475.944,-144.3468 475.944,-144.3468 472.0052,-145.0442 475.3164,-140.802 468.0665,-145.7416 468.0665,-145.7416"/>
<ellipse fill="none" stroke="#000000" cx="464.9155" cy="-146.2995" rx="3.2" ry="3.2"/>
</g>
<!-- usuario_grupo&#45;&gt;usuarios -->
<g id="edge11" class="edge">
<title>usuario_grupo:w&#45;&gt;usuarios:e</title>
<path fill="none" stroke="#000000" d="M461.6391,-101.5196C421.6229,-92.6438 375.5045,-91.4468 343,-118.032 269.2891,-178.3196 395.7255,-328.032 300.5,-328.032"/>
<polygon fill="#000000" stroke="#000000" points="468.022,-103.1 474.9222,-108.5173 471.9047,-104.0614 475.7875,-105.0228 475.7875,-105.0228 475.7875,-105.0228 471.9047,-104.0614 476.6528,-101.5283 468.022,-103.1 468.022,-103.1"/>
<ellipse fill="none" stroke="#000000" cx="464.9158" cy="-102.3308" rx="3.2" ry="3.2"/>
</g>
<!-- usuario_turma -->
<g id="node9" class="node">
<title>usuario_turma</title>
<g id="a_node9"><a xlink:href="../../tables/usuario_turma.html" xlink:title="usuario_turma" target="_top">
<polygon fill="#ffffff" stroke="transparent" points="484.5,-386.532 484.5,-447.532 606.5,-447.532 606.5,-386.532 484.5,-386.532"/>
<polygon fill="#f5f5f5" stroke="transparent" points="484.5,-424.032 484.5,-447.032 606.5,-447.032 606.5,-424.032 484.5,-424.032"/>
<polygon fill="none" stroke="#000000" points="484.5,-424.032 484.5,-447.032 606.5,-447.032 606.5,-424.032 484.5,-424.032"/>
<text text-anchor="start" x="489.5" y="-432.632" font-family="Helvetica,sans-Serif" font-weight="bold" font-size="11.00" fill="#000000">usuario_turma</text>
<text text-anchor="start" x="572.0219" y="-432.132" font-family="Helvetica,sans-Serif" font-size="11.00" fill="#000000">[table]</text>
<polygon fill="none" stroke="#000000" points="484.5,-405.032 484.5,-424.032 606.5,-424.032 606.5,-405.032 484.5,-405.032"/>
<text text-anchor="start" x="487.5" y="-411.132" font-family="Helvetica,sans-Serif" font-size="11.00" fill="#000000">...</text>
<polygon fill="#ffffff" stroke="transparent" points="484.5,-386.032 484.5,-405.032 543.5,-405.032 543.5,-386.032 484.5,-386.032"/>
<polygon fill="none" stroke="#000000" points="484.5,-386.032 484.5,-405.032 543.5,-405.032 543.5,-386.032 484.5,-386.032"/>
<text text-anchor="start" x="487.5" y="-392.132" font-family="Helvetica,sans-Serif" font-size="11.00" fill="#000000">&lt; 2</text>
<polygon fill="#ffffff" stroke="transparent" points="543.5,-386.032 543.5,-405.032 574.5,-405.032 574.5,-386.032 543.5,-386.032"/>
<polygon fill="none" stroke="#000000" points="543.5,-386.032 543.5,-405.032 574.5,-405.032 574.5,-386.032 543.5,-386.032"/>
<text text-anchor="start" x="565.3862" y="-392.132" font-family="Helvetica,sans-Serif" font-size="11.00" fill="#000000"> &#160;</text>
<polygon fill="#ffffff" stroke="transparent" points="574.5,-386.032 574.5,-405.032 606.5,-405.032 606.5,-386.032 574.5,-386.032"/>
<polygon fill="none" stroke="#000000" points="574.5,-386.032 574.5,-405.032 606.5,-405.032 606.5,-386.032 574.5,-386.032"/>
<text text-anchor="start" x="597.3862" y="-392.132" font-family="Helvetica,sans-Serif" font-size="11.00" fill="#000000"> &#160;</text>
</a>
</g>
</g>
<!-- usuario_turma&#45;&gt;turmas -->
<g id="edge12" class="edge">
<title>usuario_turma:w&#45;&gt;turmas:e</title>
<path fill="none" stroke="#000000" d="M462.0335,-432.357C454.8281,-433.6799 447.7095,-434.987 440.9381,-436.2303"/>
<polygon fill="#000000" stroke="#000000" points="468.5207,-431.166 477.0393,-433.262 472.4549,-430.4436 476.3891,-429.7212 476.3891,-429.7212 476.3891,-429.7212 472.4549,-430.4436 475.739,-426.1804 468.5207,-431.166 468.5207,-431.166"/>
<ellipse fill="none" stroke="#000000" cx="465.3733" cy="-431.7439" rx="3.2" ry="3.2"/>
</g>
<!-- usuario_turma&#45;&gt;usuarios -->
<g id="edge13" class="edge">
<title>usuario_turma:w&#45;&gt;usuarios:e</title>
<path fill="none" stroke="#000000" d="M462.0175,-405.5892C415.6397,-398.1743 363.3036,-387.7363 343,-376.032 318.3141,-361.8015 328.9939,-328.032 300.5,-328.032"/>
<polygon fill="#000000" stroke="#000000" points="468.5918,-406.611 475.944,-411.3971 472.5444,-407.2254 476.4969,-407.8398 476.4969,-407.8398 476.4969,-407.8398 472.5444,-407.2254 477.0498,-404.2825 468.5918,-406.611 468.5918,-406.611"/>
<ellipse fill="none" stroke="#000000" cx="465.4298" cy="-406.1195" rx="3.2" ry="3.2"/>
</g>
</g>
</svg>
