<?xml version="1.0" encoding="UTF-8" standalone="no"?>
<!DOCTYPE svg PUBLIC "-//W3C//DTD SVG 1.1//EN"
 "http://www.w3.org/Graphics/SVG/1.1/DTD/svg11.dtd">
<!-- Generated by graphviz version 2.40.1 (20161225.0304)
 -->
<!-- Title: twoDegreesRelationshipsDiagram Pages: 1 -->
<svg width="825pt" height="520pt"
 viewBox="0.00 0.00 825.00 519.67" xmlns="http://www.w3.org/2000/svg" xmlns:xlink="http://www.w3.org/1999/xlink">
<g id="graph0" class="graph" transform="scale(1 1) rotate(0) translate(4 515.6688)">
<title>twoDegreesRelationshipsDiagram</title>
<polygon fill="#ffffff" stroke="transparent" points="-4,4 -4,-515.6688 821,-515.6688 821,4 -4,4"/>
<text text-anchor="middle" x="72.4936" y="-7.3" font-family="Helvetica,sans-Serif" font-size="11.00" fill="#000000">Generated by SchemaSpy</text>
<!-- encontros -->
<g id="node1" class="node">
<title>encontros</title>
<g id="a_node1"><a xlink:href="../../tables/encontros.html" xlink:title="encontros" target="_top">
<polygon fill="#ffffff" stroke="transparent" points="545,-270.6688 545,-331.6688 642,-331.6688 642,-270.6688 545,-270.6688"/>
<polygon fill="#f5f5f5" stroke="transparent" points="545.5,-308.1688 545.5,-331.1688 642.5,-331.1688 642.5,-308.1688 545.5,-308.1688"/>
<polygon fill="none" stroke="#000000" points="545.5,-308.1688 545.5,-331.1688 642.5,-331.1688 642.5,-308.1688 545.5,-308.1688"/>
<text text-anchor="start" x="550.5" y="-316.7688" font-family="Helvetica,sans-Serif" font-weight="bold" font-size="11.00" fill="#000000">encontros</text>
<text text-anchor="start" x="608.0219" y="-316.2688" font-family="Helvetica,sans-Serif" font-size="11.00" fill="#000000">[table]</text>
<polygon fill="none" stroke="#000000" points="545.5,-289.1688 545.5,-308.1688 642.5,-308.1688 642.5,-289.1688 545.5,-289.1688"/>
<text text-anchor="start" x="548.5" y="-295.2688" font-family="Helvetica,sans-Serif" font-size="11.00" fill="#000000">...</text>
<polygon fill="#ffffff" stroke="transparent" points="545.5,-270.1688 545.5,-289.1688 587.5,-289.1688 587.5,-270.1688 545.5,-270.1688"/>
<polygon fill="none" stroke="#000000" points="545.5,-270.1688 545.5,-289.1688 587.5,-289.1688 587.5,-270.1688 545.5,-270.1688"/>
<text text-anchor="start" x="548.5" y="-276.2688" font-family="Helvetica,sans-Serif" font-size="11.00" fill="#000000">&lt; 2</text>
<polygon fill="#ffffff" stroke="transparent" points="587.5,-270.1688 587.5,-289.1688 610.5,-289.1688 610.5,-270.1688 587.5,-270.1688"/>
<polygon fill="none" stroke="#000000" points="587.5,-270.1688 587.5,-289.1688 610.5,-289.1688 610.5,-270.1688 587.5,-270.1688"/>
<text text-anchor="start" x="601.3862" y="-276.2688" font-family="Helvetica,sans-Serif" font-size="11.00" fill="#000000"> &#160;</text>
<polygon fill="#ffffff" stroke="transparent" points="610.5,-270.1688 610.5,-289.1688 642.5,-289.1688 642.5,-270.1688 610.5,-270.1688"/>
<polygon fill="none" stroke="#000000" points="610.5,-270.1688 610.5,-289.1688 642.5,-289.1688 642.5,-270.1688 610.5,-270.1688"/>
<text text-anchor="start" x="623.9053" y="-276.2688" font-family="Helvetica,sans-Serif" font-size="11.00" fill="#000000">2 &gt;</text>
</a>
</g>
</g>
<!-- grupos -->
<g id="node2" class="node">
<title>grupos</title>
<g id="a_node2"><a xlink:href="../../tables/grupos.html" xlink:title="grupos" target="_top">
<polygon fill="#ffffff" stroke="transparent" points="401.5,-160.6688 401.5,-221.6688 480.5,-221.6688 480.5,-160.6688 401.5,-160.6688"/>
<polygon fill="#f5f5f5" stroke="transparent" points="402,-198.1688 402,-221.1688 481,-221.1688 481,-198.1688 402,-198.1688"/>
<polygon fill="none" stroke="#000000" points="402,-198.1688 402,-221.1688 481,-221.1688 481,-198.1688 402,-198.1688"/>
<text text-anchor="start" x="407" y="-206.7688" font-family="Helvetica,sans-Serif" font-weight="bold" font-size="11.00" fill="#000000">grupos</text>
<text text-anchor="start" x="446.5219" y="-206.2688" font-family="Helvetica,sans-Serif" font-size="11.00" fill="#000000">[table]</text>
<polygon fill="none" stroke="#000000" points="402,-179.1688 402,-198.1688 481,-198.1688 481,-179.1688 402,-179.1688"/>
<text text-anchor="start" x="405" y="-185.2688" font-family="Helvetica,sans-Serif" font-size="11.00" fill="#000000">...</text>
<polygon fill="#ffffff" stroke="transparent" points="402,-160.1688 402,-179.1688 435,-179.1688 435,-160.1688 402,-160.1688"/>
<polygon fill="none" stroke="#000000" points="402,-160.1688 402,-179.1688 435,-179.1688 435,-160.1688 402,-160.1688"/>
<text text-anchor="start" x="405" y="-166.2688" font-family="Helvetica,sans-Serif" font-size="11.00" fill="#000000">&lt; 2</text>
<polygon fill="#ffffff" stroke="transparent" points="435,-160.1688 435,-179.1688 453,-179.1688 453,-160.1688 435,-160.1688"/>
<polygon fill="none" stroke="#000000" points="435,-160.1688 435,-179.1688 453,-179.1688 453,-160.1688 435,-160.1688"/>
<text text-anchor="start" x="443.8862" y="-166.2688" font-family="Helvetica,sans-Serif" font-size="11.00" fill="#000000"> &#160;</text>
<polygon fill="#ffffff" stroke="transparent" points="453,-160.1688 453,-179.1688 481,-179.1688 481,-160.1688 453,-160.1688"/>
<polygon fill="none" stroke="#000000" points="453,-160.1688 453,-179.1688 481,-179.1688 481,-160.1688 453,-160.1688"/>
<text text-anchor="start" x="462.4053" y="-166.2688" font-family="Helvetica,sans-Serif" font-size="11.00" fill="#000000">2 &gt;</text>
</a>
</g>
</g>
<!-- encontros&#45;&gt;grupos -->
<g id="edge1" class="edge">
<title>encontros:w&#45;&gt;grupos:e</title>
<path fill="none" stroke="#000000" d="M531.6709,-293.6868C511.3658,-282.2141 485.0268,-250.9277 465.9734,-225.9087"/>
<polygon fill="#000000" stroke="#000000" points="537.8897,-295.7023 544.39,-301.5935 541.6949,-296.9356 545.5,-298.1688 545.5,-298.1688 545.5,-298.1688 541.6949,-296.9356 546.61,-294.7442 537.8897,-295.7023 537.8897,-295.7023"/>
<ellipse fill="none" stroke="#000000" cx="534.8456" cy="-294.7157" rx="3.2" ry="3.2"/>
</g>
<!-- turmas -->
<g id="node3" class="node">
<title>turmas</title>
<g id="a_node3"><a xlink:href="../../tables/turmas.html" xlink:title="turmas" target="_top">
<polygon fill="#ffffff" stroke="transparent" points="401.5,-446.6688 401.5,-507.6688 480.5,-507.6688 480.5,-446.6688 401.5,-446.6688"/>
<polygon fill="#f5f5f5" stroke="transparent" points="402,-484.1688 402,-507.1688 481,-507.1688 481,-484.1688 402,-484.1688"/>
<polygon fill="none" stroke="#000000" points="402,-484.1688 402,-507.1688 481,-507.1688 481,-484.1688 402,-484.1688"/>
<text text-anchor="start" x="407" y="-492.7688" font-family="Helvetica,sans-Serif" font-weight="bold" font-size="11.00" fill="#000000">turmas</text>
<text text-anchor="start" x="446.5219" y="-492.2688" font-family="Helvetica,sans-Serif" font-size="11.00" fill="#000000">[table]</text>
<polygon fill="none" stroke="#000000" points="402,-465.1688 402,-484.1688 481,-484.1688 481,-465.1688 402,-465.1688"/>
<text text-anchor="start" x="405" y="-471.2688" font-family="Helvetica,sans-Serif" font-size="11.00" fill="#000000">...</text>
<polygon fill="#ffffff" stroke="transparent" points="402,-446.1688 402,-465.1688 435,-465.1688 435,-446.1688 402,-446.1688"/>
<polygon fill="none" stroke="#000000" points="402,-446.1688 402,-465.1688 435,-465.1688 435,-446.1688 402,-446.1688"/>
<text text-anchor="start" x="405" y="-452.2688" font-family="Helvetica,sans-Serif" font-size="11.00" fill="#000000">&lt; 2</text>
<polygon fill="#ffffff" stroke="transparent" points="435,-446.1688 435,-465.1688 453,-465.1688 453,-446.1688 435,-446.1688"/>
<polygon fill="none" stroke="#000000" points="435,-446.1688 435,-465.1688 453,-465.1688 453,-446.1688 435,-446.1688"/>
<text text-anchor="start" x="443.8862" y="-452.2688" font-family="Helvetica,sans-Serif" font-size="11.00" fill="#000000"> &#160;</text>
<polygon fill="#ffffff" stroke="transparent" points="453,-446.1688 453,-465.1688 481,-465.1688 481,-446.1688 453,-446.1688"/>
<polygon fill="none" stroke="#000000" points="453,-446.1688 453,-465.1688 481,-465.1688 481,-446.1688 453,-446.1688"/>
<text text-anchor="start" x="462.4053" y="-452.2688" font-family="Helvetica,sans-Serif" font-size="11.00" fill="#000000">2 &gt;</text>
</a>
</g>
</g>
<!-- encontros&#45;&gt;turmas -->
<g id="edge2" class="edge">
<title>encontros:w&#45;&gt;turmas:e</title>
<path fill="none" stroke="#000000" d="M530.8377,-300.1876C496.2759,-311.337 516.2409,-366.3965 491,-408.1688 484.0378,-419.691 475.7074,-431.7403 467.8612,-442.4861"/>
<polygon fill="#000000" stroke="#000000" points="537.5748,-299.26 545.991,-301.7352 541.5374,-298.7144 545.5,-298.1688 545.5,-298.1688 545.5,-298.1688 541.5374,-298.7144 545.009,-294.6025 537.5748,-299.26 537.5748,-299.26"/>
<ellipse fill="none" stroke="#000000" cx="534.4047" cy="-299.6965" rx="3.2" ry="3.2"/>
</g>
<!-- cursos -->
<g id="node4" class="node">
<title>cursos</title>
<g id="a_node4"><a xlink:href="../../tables/cursos.html" xlink:title="cursos" target="_top">
<polygon fill="#ffffff" stroke="transparent" points="8,-307.6688 8,-368.6688 86,-368.6688 86,-307.6688 8,-307.6688"/>
<polygon fill="#f5f5f5" stroke="transparent" points="8,-345.1688 8,-368.1688 86,-368.1688 86,-345.1688 8,-345.1688"/>
<polygon fill="none" stroke="#000000" points="8,-345.1688 8,-368.1688 86,-368.1688 86,-345.1688 8,-345.1688"/>
<text text-anchor="start" x="13" y="-353.7688" font-family="Helvetica,sans-Serif" font-weight="bold" font-size="11.00" fill="#000000">cursos</text>
<text text-anchor="start" x="51.5219" y="-353.2688" font-family="Helvetica,sans-Serif" font-size="11.00" fill="#000000">[table]</text>
<polygon fill="none" stroke="#000000" points="8,-326.1688 8,-345.1688 86,-345.1688 86,-326.1688 8,-326.1688"/>
<text text-anchor="start" x="11" y="-332.2688" font-family="Helvetica,sans-Serif" font-size="11.00" fill="#000000">...</text>
<polygon fill="#ffffff" stroke="transparent" points="8,-307.1688 8,-326.1688 36,-326.1688 36,-307.1688 8,-307.1688"/>
<polygon fill="none" stroke="#000000" points="8,-307.1688 8,-326.1688 36,-326.1688 36,-307.1688 8,-307.1688"/>
<text text-anchor="start" x="11" y="-313.2688" font-family="Helvetica,sans-Serif" font-size="11.00" fill="#000000"> &#160;</text>
<polygon fill="#ffffff" stroke="transparent" points="36,-307.1688 36,-326.1688 56,-326.1688 56,-307.1688 36,-307.1688"/>
<polygon fill="none" stroke="#000000" points="36,-307.1688 36,-326.1688 56,-326.1688 56,-307.1688 36,-307.1688"/>
<text text-anchor="start" x="46.8862" y="-313.2688" font-family="Helvetica,sans-Serif" font-size="11.00" fill="#000000"> &#160;</text>
<polygon fill="#ffffff" stroke="transparent" points="56,-307.1688 56,-326.1688 86,-326.1688 86,-307.1688 56,-307.1688"/>
<polygon fill="none" stroke="#000000" points="56,-307.1688 56,-326.1688 86,-326.1688 86,-307.1688 56,-307.1688"/>
<text text-anchor="start" x="67.4053" y="-313.2688" font-family="Helvetica,sans-Serif" font-size="11.00" fill="#000000">3 &gt;</text>
</a>
</g>
</g>
<!-- grupos&#45;&gt;cursos -->
<g id="edge3" class="edge">
<title>grupos:w&#45;&gt;cursos:e</title>
<path fill="none" stroke="#000000" d="M420.2306,-143.2785C406.5255,-118.0848 385.9089,-89.5168 358,-75.1688 266.693,-28.2277 209.486,-14.0419 127,-75.1688 89.9499,-102.6251 63.2489,-238.4989 52.3852,-303.4592"/>
<polygon fill="#000000" stroke="#000000" points="423.3122,-149.3093 423.7467,-158.0712 425.1324,-152.8712 426.9525,-156.4331 426.9525,-156.4331 426.9525,-156.4331 425.1324,-152.8712 430.1582,-154.795 423.3122,-149.3093 423.3122,-149.3093"/>
<ellipse fill="none" stroke="#000000" cx="421.8562" cy="-146.4598" rx="3.2" ry="3.2"/>
</g>
<!-- usuarios -->
<g id="node5" class="node">
<title>usuarios</title>
<g id="a_node5"><a xlink:href="../../tables/usuarios.html" xlink:title="usuarios" target="_top">
<polygon fill="#ffffff" stroke="transparent" points="135,-86.1688 135,-396.1688 350,-396.1688 350,-86.1688 135,-86.1688"/>
<polygon fill="#f5f5f5" stroke="transparent" points="137.5,-371.1688 137.5,-394.1688 348.5,-394.1688 348.5,-371.1688 137.5,-371.1688"/>
<polygon fill="none" stroke="#000000" points="137.5,-371.1688 137.5,-394.1688 348.5,-394.1688 348.5,-371.1688 137.5,-371.1688"/>
<text text-anchor="start" x="142.5" y="-379.7688" font-family="Helvetica,sans-Serif" font-weight="bold" font-size="11.00" fill="#000000">usuarios</text>
<text text-anchor="start" x="313.5437" y="-379.2688" font-family="Helvetica,sans-Serif" font-size="11.00" fill="#000000">[table]</text>
<polygon fill="none" stroke="#000000" points="137.5,-349.1688 137.5,-371.1688 264.5,-371.1688 264.5,-349.1688 137.5,-349.1688"/>
<image xlink:href="../../images/primaryKeys.png" width="11px" height="12px" preserveAspectRatio="xMinYMin meet" x="142.5" y="-366.169"/>
<text text-anchor="start" x="157.5" y="-356.2688" font-family="Helvetica,sans-Serif" font-size="11.00" fill="#000000">id</text>
<polygon fill="none" stroke="#000000" points="264.5,-349.1688 264.5,-371.1688 348.5,-371.1688 348.5,-349.1688 264.5,-349.1688"/>
<text text-anchor="start" x="267.5" y="-356.8688" font-family="Helvetica,sans-Serif" font-size="11.00" fill="#000000">serial[10]</text>
<polygon fill="none" stroke="#000000" points="137.5,-327.1688 137.5,-349.1688 264.5,-349.1688 264.5,-327.1688 137.5,-327.1688"/>
<image xlink:href="../../images/foreignKeys.png" width="11px" height="12px" preserveAspectRatio="xMinYMin meet" x="142.5" y="-344.169"/>
<text text-anchor="start" x="157.5" y="-334.2688" font-family="Helvetica,sans-Serif" font-size="11.00" fill="#000000">id_curso</text>
<polygon fill="none" stroke="#000000" points="264.5,-327.1688 264.5,-349.1688 348.5,-349.1688 348.5,-327.1688 264.5,-327.1688"/>
<text text-anchor="start" x="267.5" y="-334.8688" font-family="Helvetica,sans-Serif" font-size="11.00" fill="#000000">int4[10]</text>
<polygon fill="none" stroke="#000000" points="137.5,-305.1688 137.5,-327.1688 264.5,-327.1688 264.5,-305.1688 137.5,-305.1688"/>
<text text-anchor="start" x="157.5" y="-312.2688" font-family="Helvetica,sans-Serif" font-size="11.00" fill="#000000">data_nasc</text>
<polygon fill="none" stroke="#000000" points="264.5,-305.1688 264.5,-327.1688 348.5,-327.1688 348.5,-305.1688 264.5,-305.1688"/>
<text text-anchor="start" x="267.3807" y="-312.8688" font-family="Helvetica,sans-Serif" font-size="11.00" fill="#000000">timestamp[29,6]</text>
<polygon fill="none" stroke="#000000" points="137.5,-283.1688 137.5,-305.1688 264.5,-305.1688 264.5,-283.1688 137.5,-283.1688"/>
<text text-anchor="start" x="157.5" y="-290.2688" font-family="Helvetica,sans-Serif" font-size="11.00" fill="#000000">dtype</text>
<polygon fill="none" stroke="#000000" points="264.5,-283.1688 264.5,-305.1688 348.5,-305.1688 348.5,-283.1688 264.5,-283.1688"/>
<text text-anchor="start" x="267.5" y="-290.8688" font-family="Helvetica,sans-Serif" font-size="11.00" fill="#000000">varchar[31]</text>
<polygon fill="#ffffff" stroke="transparent" points="137.5,-261.1688 137.5,-283.1688 264.5,-283.1688 264.5,-261.1688 137.5,-261.1688"/>
<polygon fill="none" stroke="#000000" points="137.5,-261.1688 137.5,-283.1688 264.5,-283.1688 264.5,-261.1688 137.5,-261.1688"/>
<text text-anchor="start" x="157.5" y="-268.2688" font-family="Helvetica,sans-Serif" font-size="11.00" fill="#000000">nome</text>
<polygon fill="none" stroke="#000000" points="264.5,-261.1688 264.5,-283.1688 348.5,-283.1688 348.5,-261.1688 264.5,-261.1688"/>
<text text-anchor="start" x="267.5" y="-268.8688" font-family="Helvetica,sans-Serif" font-size="11.00" fill="#000000">varchar[100]</text>
<polygon fill="#ffffff" stroke="transparent" points="137.5,-239.1688 137.5,-261.1688 264.5,-261.1688 264.5,-239.1688 137.5,-239.1688"/>
<polygon fill="none" stroke="#000000" points="137.5,-239.1688 137.5,-261.1688 264.5,-261.1688 264.5,-239.1688 137.5,-239.1688"/>
<text text-anchor="start" x="157.5" y="-246.2688" font-family="Helvetica,sans-Serif" font-size="11.00" fill="#000000">email</text>
<polygon fill="none" stroke="#000000" points="264.5,-239.1688 264.5,-261.1688 348.5,-261.1688 348.5,-239.1688 264.5,-239.1688"/>
<text text-anchor="start" x="267.5" y="-246.8688" font-family="Helvetica,sans-Serif" font-size="11.00" fill="#000000">varchar[255]</text>
<polygon fill="#ffffff" stroke="transparent" points="137.5,-217.1688 137.5,-239.1688 264.5,-239.1688 264.5,-217.1688 137.5,-217.1688"/>
<polygon fill="none" stroke="#000000" points="137.5,-217.1688 137.5,-239.1688 264.5,-239.1688 264.5,-217.1688 137.5,-217.1688"/>
<text text-anchor="start" x="157.5" y="-224.2688" font-family="Helvetica,sans-Serif" font-size="11.00" fill="#000000">matricula</text>
<polygon fill="none" stroke="#000000" points="264.5,-217.1688 264.5,-239.1688 348.5,-239.1688 348.5,-217.1688 264.5,-217.1688"/>
<text text-anchor="start" x="267.5" y="-224.8688" font-family="Helvetica,sans-Serif" font-size="11.00" fill="#000000">varchar[255]</text>
<polygon fill="none" stroke="#000000" points="137.5,-195.1688 137.5,-217.1688 264.5,-217.1688 264.5,-195.1688 137.5,-195.1688"/>
<text text-anchor="start" x="157.5" y="-202.2688" font-family="Helvetica,sans-Serif" font-size="11.00" fill="#000000">password</text>
<polygon fill="none" stroke="#000000" points="264.5,-195.1688 264.5,-217.1688 348.5,-217.1688 348.5,-195.1688 264.5,-195.1688"/>
<text text-anchor="start" x="267.5" y="-202.8688" font-family="Helvetica,sans-Serif" font-size="11.00" fill="#000000">varchar[255]</text>
<polygon fill="none" stroke="#000000" points="137.5,-173.1688 137.5,-195.1688 264.5,-195.1688 264.5,-173.1688 137.5,-173.1688"/>
<text text-anchor="start" x="157.5" y="-180.2688" font-family="Helvetica,sans-Serif" font-size="11.00" fill="#000000">role</text>
<polygon fill="none" stroke="#000000" points="264.5,-173.1688 264.5,-195.1688 348.5,-195.1688 348.5,-173.1688 264.5,-173.1688"/>
<text text-anchor="start" x="267.5" y="-180.8688" font-family="Helvetica,sans-Serif" font-size="11.00" fill="#000000">varchar[255]</text>
<polygon fill="#ffffff" stroke="transparent" points="137.5,-151.1688 137.5,-173.1688 264.5,-173.1688 264.5,-151.1688 137.5,-151.1688"/>
<polygon fill="none" stroke="#000000" points="137.5,-151.1688 137.5,-173.1688 264.5,-173.1688 264.5,-151.1688 137.5,-151.1688"/>
<text text-anchor="start" x="157.5" y="-158.2688" font-family="Helvetica,sans-Serif" font-size="11.00" fill="#000000">siape</text>
<polygon fill="none" stroke="#000000" points="264.5,-151.1688 264.5,-173.1688 348.5,-173.1688 348.5,-151.1688 264.5,-151.1688"/>
<text text-anchor="start" x="267.5" y="-158.8688" font-family="Helvetica,sans-Serif" font-size="11.00" fill="#000000">varchar[255]</text>
<polygon fill="none" stroke="#000000" points="137.5,-129.1688 137.5,-151.1688 264.5,-151.1688 264.5,-129.1688 137.5,-129.1688"/>
<text text-anchor="start" x="157.5" y="-136.2688" font-family="Helvetica,sans-Serif" font-size="11.00" fill="#000000">situacao</text>
<polygon fill="none" stroke="#000000" points="264.5,-129.1688 264.5,-151.1688 348.5,-151.1688 348.5,-129.1688 264.5,-129.1688"/>
<text text-anchor="start" x="267.5" y="-136.8688" font-family="Helvetica,sans-Serif" font-size="11.00" fill="#000000">varchar[255]</text>
<polygon fill="none" stroke="#000000" points="137.5,-107.1688 137.5,-129.1688 264.5,-129.1688 264.5,-107.1688 137.5,-107.1688"/>
<text text-anchor="start" x="157.5" y="-114.2688" font-family="Helvetica,sans-Serif" font-size="11.00" fill="#000000">foto_perfil_base64</text>
<polygon fill="none" stroke="#000000" points="264.5,-107.1688 264.5,-129.1688 348.5,-129.1688 348.5,-107.1688 264.5,-107.1688"/>
<text text-anchor="start" x="267.5" y="-114.8688" font-family="Helvetica,sans-Serif" font-size="11.00" fill="#000000">oid[10]</text>
<polygon fill="#ffffff" stroke="transparent" points="137.5,-88.1688 137.5,-107.1688 205.5,-107.1688 205.5,-88.1688 137.5,-88.1688"/>
<polygon fill="none" stroke="#000000" points="137.5,-88.1688 137.5,-107.1688 205.5,-107.1688 205.5,-88.1688 137.5,-88.1688"/>
<text text-anchor="start" x="140.5" y="-94.2688" font-family="Helvetica,sans-Serif" font-size="11.00" fill="#000000">&lt; 1</text>
<polygon fill="#ffffff" stroke="transparent" points="205.5,-88.1688 205.5,-107.1688 264.5,-107.1688 264.5,-88.1688 205.5,-88.1688"/>
<polygon fill="none" stroke="#000000" points="205.5,-88.1688 205.5,-107.1688 264.5,-107.1688 264.5,-88.1688 205.5,-88.1688"/>
<text text-anchor="start" x="255.3862" y="-94.2688" font-family="Helvetica,sans-Serif" font-size="11.00" fill="#000000"> &#160;</text>
<polygon fill="#ffffff" stroke="transparent" points="264.5,-88.1688 264.5,-107.1688 348.5,-107.1688 348.5,-88.1688 264.5,-88.1688"/>
<polygon fill="none" stroke="#000000" points="264.5,-88.1688 264.5,-107.1688 348.5,-107.1688 348.5,-88.1688 264.5,-88.1688"/>
<text text-anchor="start" x="329.9053" y="-94.2688" font-family="Helvetica,sans-Serif" font-size="11.00" fill="#000000">6 &gt;</text>
<polygon fill="none" stroke="#000000" stroke-width="2" points="136,-87.1688 136,-395.1688 349,-395.1688 349,-87.1688 136,-87.1688"/>
</a>
</g>
</g>
<!-- grupos&#45;&gt;usuarios -->
<g id="edge4" class="edge">
<title>grupos:w&#45;&gt;usuarios:e</title>
<path fill="none" stroke="#000000" d="M391.8243,-238.3754C365.0831,-294.9991 402.662,-360.1688 348.5,-360.1688"/>
<polygon fill="#000000" stroke="#000000" points="395.094,-232.6526 402.1886,-227.4925 397.0784,-229.1796 399.0628,-225.7065 399.0628,-225.7065 399.0628,-225.7065 397.0784,-229.1796 395.9371,-223.9205 395.094,-232.6526 395.094,-232.6526"/>
<ellipse fill="none" stroke="#000000" cx="393.5065" cy="-235.4311" rx="3.2" ry="3.2"/>
</g>
<!-- turmas&#45;&gt;cursos -->
<g id="edge8" class="edge">
<title>turmas:w&#45;&gt;cursos:e</title>
<path fill="none" stroke="#000000" d="M378.8334,-471.9649C313.2726,-464.5021 208.4005,-446.8474 127,-406.1688 110.2052,-397.7759 93.9745,-385.1288 80.5728,-373.0094"/>
<polygon fill="#000000" stroke="#000000" points="385.4544,-472.6756 393.0245,-477.1089 389.4315,-473.1025 393.4087,-473.5294 393.4087,-473.5294 393.4087,-473.5294 389.4315,-473.1025 393.7929,-469.95 385.4544,-472.6756 385.4544,-472.6756"/>
<ellipse fill="none" stroke="#000000" cx="382.2727" cy="-472.334" rx="3.2" ry="3.2"/>
</g>
<!-- turmas&#45;&gt;usuarios -->
<g id="edge9" class="edge">
<title>turmas:w&#45;&gt;usuarios:e</title>
<path fill="none" stroke="#000000" d="M391.7969,-430.5703C370.5961,-395.0699 381.885,-360.1688 348.5,-360.1688"/>
<polygon fill="#000000" stroke="#000000" points="395.706,-436.0645 397.4105,-444.6701 398.0249,-439.3238 400.3438,-442.583 400.3438,-442.583 400.3438,-442.583 398.0249,-439.3238 403.2771,-440.496 395.706,-436.0645 395.706,-436.0645"/>
<ellipse fill="none" stroke="#000000" cx="393.8508" cy="-433.4571" rx="3.2" ry="3.2"/>
</g>
<!-- usuarios&#45;&gt;cursos -->
<g id="edge14" class="edge">
<title>usuarios:w&#45;&gt;cursos:e</title>
<path fill="none" stroke="#000000" d="M123.0919,-338.1688C113.4537,-338.1688 103.6551,-338.1688 94.4386,-338.1688"/>
<polygon fill="#000000" stroke="#000000" points="129.5,-338.1689 137.5,-341.7688 133.5,-338.1689 137.5,-338.1688 137.5,-338.1688 137.5,-338.1688 133.5,-338.1689 137.5,-334.5688 129.5,-338.1689 129.5,-338.1689"/>
<ellipse fill="none" stroke="#000000" cx="126.3" cy="-338.1689" rx="3.2" ry="3.2"/>
</g>
<!-- mensagens -->
<g id="node6" class="node">
<title>mensagens</title>
<g id="a_node6"><a xlink:href="../../tables/mensagens.html" xlink:title="mensagens" target="_top">
<polygon fill="#ffffff" stroke="transparent" points="704,-212.6688 704,-339.6688 809,-339.6688 809,-212.6688 704,-212.6688"/>
<polygon fill="#f5f5f5" stroke="transparent" points="704.5,-316.1688 704.5,-339.1688 809.5,-339.1688 809.5,-316.1688 704.5,-316.1688"/>
<polygon fill="none" stroke="#000000" points="704.5,-316.1688 704.5,-339.1688 809.5,-339.1688 809.5,-316.1688 704.5,-316.1688"/>
<text text-anchor="start" x="709.5" y="-324.7688" font-family="Helvetica,sans-Serif" font-weight="bold" font-size="11.00" fill="#000000">mensagens</text>
<text text-anchor="start" x="775.0219" y="-324.2688" font-family="Helvetica,sans-Serif" font-size="11.00" fill="#000000">[table]</text>
<polygon fill="none" stroke="#000000" points="704.5,-294.1688 704.5,-316.1688 809.5,-316.1688 809.5,-294.1688 704.5,-294.1688"/>
<image xlink:href="../../images/primaryKeys.png" width="11px" height="12px" preserveAspectRatio="xMinYMin meet" x="709.5" y="-311.169"/>
<text text-anchor="start" x="732.5" y="-301.2688" font-family="Helvetica,sans-Serif" font-size="11.00" fill="#000000">id</text>
<polygon fill="none" stroke="#000000" points="704.5,-272.1688 704.5,-294.1688 809.5,-294.1688 809.5,-272.1688 704.5,-272.1688"/>
<image xlink:href="../../images/foreignKeys.png" width="11px" height="12px" preserveAspectRatio="xMinYMin meet" x="709.5" y="-289.169"/>
<text text-anchor="start" x="732.5" y="-279.2688" font-family="Helvetica,sans-Serif" font-size="11.00" fill="#000000">id_encontro</text>
<polygon fill="none" stroke="#000000" points="704.5,-250.1688 704.5,-272.1688 809.5,-272.1688 809.5,-250.1688 704.5,-250.1688"/>
<image xlink:href="../../images/foreignKeys.png" width="11px" height="12px" preserveAspectRatio="xMinYMin meet" x="709.5" y="-267.169"/>
<text text-anchor="start" x="732.5" y="-257.2688" font-family="Helvetica,sans-Serif" font-size="11.00" fill="#000000">id_user</text>
<polygon fill="none" stroke="#000000" points="704.5,-231.1688 704.5,-250.1688 809.5,-250.1688 809.5,-231.1688 704.5,-231.1688"/>
<text text-anchor="start" x="707.5" y="-237.2688" font-family="Helvetica,sans-Serif" font-size="11.00" fill="#000000">...</text>
<polygon fill="#ffffff" stroke="transparent" points="704.5,-212.1688 704.5,-231.1688 755.5,-231.1688 755.5,-212.1688 704.5,-212.1688"/>
<polygon fill="none" stroke="#000000" points="704.5,-212.1688 704.5,-231.1688 755.5,-231.1688 755.5,-212.1688 704.5,-212.1688"/>
<text text-anchor="start" x="707.5" y="-218.2688" font-family="Helvetica,sans-Serif" font-size="11.00" fill="#000000">&lt; 2</text>
<polygon fill="#ffffff" stroke="transparent" points="755.5,-212.1688 755.5,-231.1688 782.5,-231.1688 782.5,-212.1688 755.5,-212.1688"/>
<polygon fill="none" stroke="#000000" points="755.5,-212.1688 755.5,-231.1688 782.5,-231.1688 782.5,-212.1688 755.5,-212.1688"/>
<text text-anchor="start" x="773.3862" y="-218.2688" font-family="Helvetica,sans-Serif" font-size="11.00" fill="#000000"> &#160;</text>
<polygon fill="#ffffff" stroke="transparent" points="782.5,-212.1688 782.5,-231.1688 809.5,-231.1688 809.5,-212.1688 782.5,-212.1688"/>
<polygon fill="none" stroke="#000000" points="782.5,-212.1688 782.5,-231.1688 809.5,-231.1688 809.5,-212.1688 782.5,-212.1688"/>
<text text-anchor="start" x="800.3862" y="-218.2688" font-family="Helvetica,sans-Serif" font-size="11.00" fill="#000000"> &#160;</text>
</a>
</g>
</g>
<!-- mensagens&#45;&gt;encontros -->
<g id="edge5" class="edge">
<title>mensagens:w&#45;&gt;encontros:e</title>
<path fill="none" stroke="#000000" d="M689.6908,-284.7741C673.0457,-288.6437 665.0918,-298.1688 642.5,-298.1688"/>
<polygon fill="#000000" stroke="#000000" points="696.5466,-284.031 704.888,-286.7479 700.5233,-283.5999 704.5,-283.1688 704.5,-283.1688 704.5,-283.1688 700.5233,-283.5999 704.112,-279.5898 696.5466,-284.031 696.5466,-284.031"/>
<ellipse fill="none" stroke="#000000" cx="693.3652" cy="-284.3759" rx="3.2" ry="3.2"/>
</g>
<!-- mensagens&#45;&gt;usuarios -->
<g id="edge6" class="edge">
<title>mensagens:w&#45;&gt;usuarios:e</title>
<path fill="none" stroke="#000000" d="M689.648,-260.7087C611.4214,-256.4084 445.358,-224.2075 391,-260.1688 350.7242,-286.8139 396.7918,-360.1688 348.5,-360.1688"/>
<polygon fill="#000000" stroke="#000000" points="696.5038,-260.9211 704.3885,-264.7671 700.5019,-261.045 704.5,-261.1688 704.5,-261.1688 704.5,-261.1688 700.5019,-261.045 704.6115,-257.5706 696.5038,-260.9211 696.5038,-260.9211"/>
<ellipse fill="none" stroke="#000000" cx="693.3054" cy="-260.822" rx="3.2" ry="3.2"/>
</g>
<!-- token -->
<g id="node7" class="node">
<title>token</title>
<g id="a_node7"><a xlink:href="../../tables/token.html" xlink:title="token" target="_top">
<polygon fill="#ffffff" stroke="transparent" points="399,-270.6688 399,-397.6688 483,-397.6688 483,-270.6688 399,-270.6688"/>
<polygon fill="#f5f5f5" stroke="transparent" points="399,-374.1688 399,-397.1688 483,-397.1688 483,-374.1688 399,-374.1688"/>
<polygon fill="none" stroke="#000000" points="399,-374.1688 399,-397.1688 483,-397.1688 483,-374.1688 399,-374.1688"/>
<text text-anchor="start" x="404" y="-382.7688" font-family="Helvetica,sans-Serif" font-weight="bold" font-size="11.00" fill="#000000">token</text>
<text text-anchor="start" x="448.0437" y="-382.2688" font-family="Helvetica,sans-Serif" font-size="11.00" fill="#000000">[table]</text>
<polygon fill="none" stroke="#000000" points="399,-352.1688 399,-374.1688 483,-374.1688 483,-352.1688 399,-352.1688"/>
<image xlink:href="../../images/primaryKeys.png" width="11px" height="12px" preserveAspectRatio="xMinYMin meet" x="404" y="-369.169"/>
<text text-anchor="start" x="419" y="-359.2688" font-family="Helvetica,sans-Serif" font-size="11.00" fill="#000000">id</text>
<polygon fill="none" stroke="#000000" points="399,-330.1688 399,-352.1688 483,-352.1688 483,-330.1688 399,-330.1688"/>
<image xlink:href="../../images/foreignKeys.png" width="11px" height="12px" preserveAspectRatio="xMinYMin meet" x="404" y="-347.169"/>
<text text-anchor="start" x="419" y="-337.2688" font-family="Helvetica,sans-Serif" font-size="11.00" fill="#000000">id_usuario</text>
<polygon fill="#ffffff" stroke="transparent" points="399,-308.1688 399,-330.1688 483,-330.1688 483,-308.1688 399,-308.1688"/>
<polygon fill="none" stroke="#000000" points="399,-308.1688 399,-330.1688 483,-330.1688 483,-308.1688 399,-308.1688"/>
<text text-anchor="start" x="419" y="-315.2688" font-family="Helvetica,sans-Serif" font-size="11.00" fill="#000000">token</text>
<polygon fill="none" stroke="#000000" points="399,-289.1688 399,-308.1688 483,-308.1688 483,-289.1688 399,-289.1688"/>
<text text-anchor="start" x="402" y="-295.2688" font-family="Helvetica,sans-Serif" font-size="11.00" fill="#000000">...</text>
<polygon fill="#ffffff" stroke="transparent" points="399,-270.1688 399,-289.1688 439,-289.1688 439,-270.1688 399,-270.1688"/>
<polygon fill="none" stroke="#000000" points="399,-270.1688 399,-289.1688 439,-289.1688 439,-270.1688 399,-270.1688"/>
<text text-anchor="start" x="402" y="-276.2688" font-family="Helvetica,sans-Serif" font-size="11.00" fill="#000000">&lt; 1</text>
<polygon fill="#ffffff" stroke="transparent" points="439,-270.1688 439,-289.1688 461,-289.1688 461,-270.1688 439,-270.1688"/>
<polygon fill="none" stroke="#000000" points="439,-270.1688 439,-289.1688 461,-289.1688 461,-270.1688 439,-270.1688"/>
<text text-anchor="start" x="451.8862" y="-276.2688" font-family="Helvetica,sans-Serif" font-size="11.00" fill="#000000"> &#160;</text>
<polygon fill="#ffffff" stroke="transparent" points="461,-270.1688 461,-289.1688 483,-289.1688 483,-270.1688 461,-270.1688"/>
<polygon fill="none" stroke="#000000" points="461,-270.1688 461,-289.1688 483,-289.1688 483,-270.1688 461,-270.1688"/>
<text text-anchor="start" x="473.8862" y="-276.2688" font-family="Helvetica,sans-Serif" font-size="11.00" fill="#000000"> &#160;</text>
</a>
</g>
</g>
<!-- token&#45;&gt;usuarios -->
<g id="edge7" class="edge">
<title>token:w&#45;&gt;usuarios:e</title>
<path fill="none" stroke="#000000" d="M384.7405,-343.9723C372.532,-349.2575 366.6727,-360.1688 348.5,-360.1688"/>
<polygon fill="#000000" stroke="#000000" points="391.1503,-342.7122 399.6945,-344.7012 395.0751,-341.9405 399,-341.1688 399,-341.1688 399,-341.1688 395.0751,-341.9405 398.3055,-337.6365 391.1503,-342.7122 391.1503,-342.7122"/>
<ellipse fill="none" stroke="#000000" cx="388.0104" cy="-343.3295" rx="3.2" ry="3.2"/>
</g>
<!-- usuario_grupo -->
<g id="node8" class="node">
<title>usuario_grupo</title>
<g id="a_node8"><a xlink:href="../../tables/usuario_grupo.html" xlink:title="usuario_grupo" target="_top">
<polygon fill="#ffffff" stroke="transparent" points="532,-133.6688 532,-194.6688 655,-194.6688 655,-133.6688 532,-133.6688"/>
<polygon fill="#f5f5f5" stroke="transparent" points="532.5,-171.1688 532.5,-194.1688 655.5,-194.1688 655.5,-171.1688 532.5,-171.1688"/>
<polygon fill="none" stroke="#000000" points="532.5,-171.1688 532.5,-194.1688 655.5,-194.1688 655.5,-171.1688 532.5,-171.1688"/>
<text text-anchor="start" x="537.5" y="-179.7688" font-family="Helvetica,sans-Serif" font-weight="bold" font-size="11.00" fill="#000000">usuario_grupo</text>
<text text-anchor="start" x="621.0219" y="-179.2688" font-family="Helvetica,sans-Serif" font-size="11.00" fill="#000000">[table]</text>
<polygon fill="none" stroke="#000000" points="532.5,-152.1688 532.5,-171.1688 655.5,-171.1688 655.5,-152.1688 532.5,-152.1688"/>
<text text-anchor="start" x="535.5" y="-158.2688" font-family="Helvetica,sans-Serif" font-size="11.00" fill="#000000">...</text>
<polygon fill="#ffffff" stroke="transparent" points="532.5,-133.1688 532.5,-152.1688 592.5,-152.1688 592.5,-133.1688 532.5,-133.1688"/>
<polygon fill="none" stroke="#000000" points="532.5,-133.1688 532.5,-152.1688 592.5,-152.1688 592.5,-133.1688 532.5,-133.1688"/>
<text text-anchor="start" x="535.5" y="-139.2688" font-family="Helvetica,sans-Serif" font-size="11.00" fill="#000000">&lt; 2</text>
<polygon fill="#ffffff" stroke="transparent" points="592.5,-133.1688 592.5,-152.1688 623.5,-152.1688 623.5,-133.1688 592.5,-133.1688"/>
<polygon fill="none" stroke="#000000" points="592.5,-133.1688 592.5,-152.1688 623.5,-152.1688 623.5,-133.1688 592.5,-133.1688"/>
<text text-anchor="start" x="614.3862" y="-139.2688" font-family="Helvetica,sans-Serif" font-size="11.00" fill="#000000"> &#160;</text>
<polygon fill="#ffffff" stroke="transparent" points="623.5,-133.1688 623.5,-152.1688 655.5,-152.1688 655.5,-133.1688 623.5,-133.1688"/>
<polygon fill="none" stroke="#000000" points="623.5,-133.1688 623.5,-152.1688 655.5,-152.1688 655.5,-133.1688 623.5,-133.1688"/>
<text text-anchor="start" x="646.3862" y="-139.2688" font-family="Helvetica,sans-Serif" font-size="11.00" fill="#000000"> &#160;</text>
</a>
</g>
</g>
<!-- usuario_grupo&#45;&gt;grupos -->
<g id="edge10" class="edge">
<title>usuario_grupo:w&#45;&gt;grupos:e</title>
<path fill="none" stroke="#000000" d="M509.6412,-179.016C502.4656,-180.2864 495.3807,-181.5408 488.6442,-182.7335"/>
<polygon fill="#000000" stroke="#000000" points="516.0665,-177.8784 524.5716,-180.0285 520.0052,-177.181 523.944,-176.4837 523.944,-176.4837 523.944,-176.4837 520.0052,-177.181 523.3164,-172.9388 516.0665,-177.8784 516.0665,-177.8784"/>
<ellipse fill="none" stroke="#000000" cx="512.9155" cy="-178.4363" rx="3.2" ry="3.2"/>
</g>
<!-- usuario_grupo&#45;&gt;usuarios -->
<g id="edge11" class="edge">
<title>usuario_grupo:w&#45;&gt;usuarios:e</title>
<path fill="none" stroke="#000000" d="M509.6391,-133.6564C469.6229,-124.7806 423.5045,-123.5836 391,-150.1688 317.2891,-210.4565 443.7255,-360.1688 348.5,-360.1688"/>
<polygon fill="#000000" stroke="#000000" points="516.022,-135.2368 522.9222,-140.6541 519.9047,-136.1982 523.7875,-137.1596 523.7875,-137.1596 523.7875,-137.1596 519.9047,-136.1982 524.6528,-133.6652 516.022,-135.2368 516.022,-135.2368"/>
<ellipse fill="none" stroke="#000000" cx="512.9158" cy="-134.4677" rx="3.2" ry="3.2"/>
</g>
<!-- usuario_turma -->
<g id="node9" class="node">
<title>usuario_turma</title>
<g id="a_node9"><a xlink:href="../../tables/usuario_turma.html" xlink:title="usuario_turma" target="_top">
<polygon fill="#ffffff" stroke="transparent" points="532.5,-418.6688 532.5,-479.6688 654.5,-479.6688 654.5,-418.6688 532.5,-418.6688"/>
<polygon fill="#f5f5f5" stroke="transparent" points="532.5,-456.1688 532.5,-479.1688 654.5,-479.1688 654.5,-456.1688 532.5,-456.1688"/>
<polygon fill="none" stroke="#000000" points="532.5,-456.1688 532.5,-479.1688 654.5,-479.1688 654.5,-456.1688 532.5,-456.1688"/>
<text text-anchor="start" x="537.5" y="-464.7688" font-family="Helvetica,sans-Serif" font-weight="bold" font-size="11.00" fill="#000000">usuario_turma</text>
<text text-anchor="start" x="620.0219" y="-464.2688" font-family="Helvetica,sans-Serif" font-size="11.00" fill="#000000">[table]</text>
<polygon fill="none" stroke="#000000" points="532.5,-437.1688 532.5,-456.1688 654.5,-456.1688 654.5,-437.1688 532.5,-437.1688"/>
<text text-anchor="start" x="535.5" y="-443.2688" font-family="Helvetica,sans-Serif" font-size="11.00" fill="#000000">...</text>
<polygon fill="#ffffff" stroke="transparent" points="532.5,-418.1688 532.5,-437.1688 591.5,-437.1688 591.5,-418.1688 532.5,-418.1688"/>
<polygon fill="none" stroke="#000000" points="532.5,-418.1688 532.5,-437.1688 591.5,-437.1688 591.5,-418.1688 532.5,-418.1688"/>
<text text-anchor="start" x="535.5" y="-424.2688" font-family="Helvetica,sans-Serif" font-size="11.00" fill="#000000">&lt; 2</text>
<polygon fill="#ffffff" stroke="transparent" points="591.5,-418.1688 591.5,-437.1688 622.5,-437.1688 622.5,-418.1688 591.5,-418.1688"/>
<polygon fill="none" stroke="#000000" points="591.5,-418.1688 591.5,-437.1688 622.5,-437.1688 622.5,-418.1688 591.5,-418.1688"/>
<text text-anchor="start" x="613.3862" y="-424.2688" font-family="Helvetica,sans-Serif" font-size="11.00" fill="#000000"> &#160;</text>
<polygon fill="#ffffff" stroke="transparent" points="622.5,-418.1688 622.5,-437.1688 654.5,-437.1688 654.5,-418.1688 622.5,-418.1688"/>
<polygon fill="none" stroke="#000000" points="622.5,-418.1688 622.5,-437.1688 654.5,-437.1688 654.5,-418.1688 622.5,-418.1688"/>
<text text-anchor="start" x="645.3862" y="-424.2688" font-family="Helvetica,sans-Serif" font-size="11.00" fill="#000000"> &#160;</text>
</a>
</g>
</g>
<!-- usuario_turma&#45;&gt;turmas -->
<g id="edge12" class="edge">
<title>usuario_turma:w&#45;&gt;turmas:e</title>
<path fill="none" stroke="#000000" d="M510.0335,-464.4938C502.8281,-465.8168 495.7095,-467.1238 488.9381,-468.3671"/>
<polygon fill="#000000" stroke="#000000" points="516.5207,-463.3028 525.0393,-465.3989 520.4549,-462.5804 524.3891,-461.858 524.3891,-461.858 524.3891,-461.858 520.4549,-462.5804 523.739,-458.3172 516.5207,-463.3028 516.5207,-463.3028"/>
<ellipse fill="none" stroke="#000000" cx="513.3733" cy="-463.8807" rx="3.2" ry="3.2"/>
</g>
<!-- usuario_turma&#45;&gt;usuarios -->
<g id="edge13" class="edge">
<title>usuario_turma:w&#45;&gt;usuarios:e</title>
<path fill="none" stroke="#000000" d="M510.0175,-437.7261C463.6397,-430.3111 411.3036,-419.8731 391,-408.1688 366.3141,-393.9383 376.9939,-360.1688 348.5,-360.1688"/>
<polygon fill="#000000" stroke="#000000" points="516.5918,-438.7479 523.944,-443.5339 520.5444,-439.3622 524.4969,-439.9766 524.4969,-439.9766 524.4969,-439.9766 520.5444,-439.3622 525.0498,-436.4193 516.5918,-438.7479 516.5918,-438.7479"/>
<ellipse fill="none" stroke="#000000" cx="513.4298" cy="-438.2564" rx="3.2" ry="3.2"/>
</g>
</g>
</svg>
