<?xml version="1.0" encoding="UTF-8" standalone="no"?>
<!DOCTYPE svg PUBLIC "-//W3C//DTD SVG 1.1//EN"
 "http://www.w3.org/Graphics/SVG/1.1/DTD/svg11.dtd">
<!-- Generated by graphviz version 2.40.1 (20161225.0304)
 -->
<!-- Title: oneDegreeRelationshipsDiagram Pages: 1 -->
<svg width="653pt" height="722pt"
 viewBox="0.00 0.00 653.00 721.53" xmlns="http://www.w3.org/2000/svg" xmlns:xlink="http://www.w3.org/1999/xlink">
<g id="graph0" class="graph" transform="scale(1 1) rotate(0) translate(4 717.5287)">
<title>oneDegreeRelationshipsDiagram</title>
<polygon fill="#ffffff" stroke="transparent" points="-4,4 -4,-717.5287 649,-717.5287 649,4 -4,4"/>
<text text-anchor="middle" x="72.4936" y="-7.3" font-family="Helvetica,sans-Serif" font-size="11.00" fill="#000000">Generated by SchemaSpy</text>
<!-- grupos -->
<g id="node1" class="node">
<title>grupos</title>
<g id="a_node1"><a xlink:href="../../tables/grupos.html" xlink:title="grupos" target="_top">
<polygon fill="#ffffff" stroke="transparent" points="360,-560.5287 360,-709.5287 465,-709.5287 465,-560.5287 360,-560.5287"/>
<polygon fill="#f5f5f5" stroke="transparent" points="360.5,-686.0287 360.5,-709.0287 465.5,-709.0287 465.5,-686.0287 360.5,-686.0287"/>
<polygon fill="none" stroke="#000000" points="360.5,-686.0287 360.5,-709.0287 465.5,-709.0287 465.5,-686.0287 360.5,-686.0287"/>
<text text-anchor="start" x="365.5" y="-694.6287" font-family="Helvetica,sans-Serif" font-weight="bold" font-size="11.00" fill="#000000">grupos</text>
<text text-anchor="start" x="430.5437" y="-694.1287" font-family="Helvetica,sans-Serif" font-size="11.00" fill="#000000">[table]</text>
<polygon fill="none" stroke="#000000" points="360.5,-664.0287 360.5,-686.0287 465.5,-686.0287 465.5,-664.0287 360.5,-664.0287"/>
<image xlink:href="../../images/primaryKeys.png" width="11px" height="12px" preserveAspectRatio="xMinYMin meet" x="365.5" y="-681.029"/>
<text text-anchor="start" x="380.5" y="-671.1287" font-family="Helvetica,sans-Serif" font-size="11.00" fill="#000000">id</text>
<polygon fill="none" stroke="#000000" points="360.5,-642.0287 360.5,-664.0287 465.5,-664.0287 465.5,-642.0287 360.5,-642.0287"/>
<image xlink:href="../../images/foreignKeys.png" width="11px" height="12px" preserveAspectRatio="xMinYMin meet" x="365.5" y="-659.029"/>
<text text-anchor="start" x="380.5" y="-649.1287" font-family="Helvetica,sans-Serif" font-size="11.00" fill="#000000">id_curso</text>
<polygon fill="none" stroke="#000000" points="360.5,-620.0287 360.5,-642.0287 465.5,-642.0287 465.5,-620.0287 360.5,-620.0287"/>
<image xlink:href="../../images/foreignKeys.png" width="11px" height="12px" preserveAspectRatio="xMinYMin meet" x="365.5" y="-637.029"/>
<text text-anchor="start" x="380.5" y="-627.1287" font-family="Helvetica,sans-Serif" font-size="11.00" fill="#000000">id_user</text>
<polygon fill="#ffffff" stroke="transparent" points="360.5,-598.0287 360.5,-620.0287 465.5,-620.0287 465.5,-598.0287 360.5,-598.0287"/>
<polygon fill="none" stroke="#000000" points="360.5,-598.0287 360.5,-620.0287 465.5,-620.0287 465.5,-598.0287 360.5,-598.0287"/>
<text text-anchor="start" x="380.5" y="-605.1287" font-family="Helvetica,sans-Serif" font-size="11.00" fill="#000000">nome</text>
<polygon fill="none" stroke="#000000" points="360.5,-579.0287 360.5,-598.0287 465.5,-598.0287 465.5,-579.0287 360.5,-579.0287"/>
<text text-anchor="start" x="363.5" y="-585.1287" font-family="Helvetica,sans-Serif" font-size="11.00" fill="#000000">...</text>
<polygon fill="#ffffff" stroke="transparent" points="360.5,-560.0287 360.5,-579.0287 406.5,-579.0287 406.5,-560.0287 360.5,-560.0287"/>
<polygon fill="none" stroke="#000000" points="360.5,-560.0287 360.5,-579.0287 406.5,-579.0287 406.5,-560.0287 360.5,-560.0287"/>
<text text-anchor="start" x="363.5" y="-566.1287" font-family="Helvetica,sans-Serif" font-size="11.00" fill="#000000">&lt; 2</text>
<polygon fill="#ffffff" stroke="transparent" points="406.5,-560.0287 406.5,-579.0287 431.5,-579.0287 431.5,-560.0287 406.5,-560.0287"/>
<polygon fill="none" stroke="#000000" points="406.5,-560.0287 406.5,-579.0287 431.5,-579.0287 431.5,-560.0287 406.5,-560.0287"/>
<text text-anchor="start" x="422.3862" y="-566.1287" font-family="Helvetica,sans-Serif" font-size="11.00" fill="#000000"> &#160;</text>
<polygon fill="#ffffff" stroke="transparent" points="431.5,-560.0287 431.5,-579.0287 465.5,-579.0287 465.5,-560.0287 431.5,-560.0287"/>
<polygon fill="none" stroke="#000000" points="431.5,-560.0287 431.5,-579.0287 465.5,-579.0287 465.5,-560.0287 431.5,-560.0287"/>
<text text-anchor="start" x="446.9053" y="-566.1287" font-family="Helvetica,sans-Serif" font-size="11.00" fill="#000000">2 &gt;</text>
</a>
</g>
</g>
<!-- cursos -->
<g id="node2" class="node">
<title>cursos</title>
<g id="a_node2"><a xlink:href="../../tables/cursos.html" xlink:title="cursos" target="_top">
<polygon fill="#ffffff" stroke="transparent" points="8,-340.5287 8,-423.5287 95,-423.5287 95,-340.5287 8,-340.5287"/>
<polygon fill="#f5f5f5" stroke="transparent" points="8.5,-400.0287 8.5,-423.0287 95.5,-423.0287 95.5,-400.0287 8.5,-400.0287"/>
<polygon fill="none" stroke="#000000" points="8.5,-400.0287 8.5,-423.0287 95.5,-423.0287 95.5,-400.0287 8.5,-400.0287"/>
<text text-anchor="start" x="13.5" y="-408.6287" font-family="Helvetica,sans-Serif" font-weight="bold" font-size="11.00" fill="#000000">cursos</text>
<text text-anchor="start" x="60.5437" y="-408.1287" font-family="Helvetica,sans-Serif" font-size="11.00" fill="#000000">[table]</text>
<polygon fill="none" stroke="#000000" points="8.5,-378.0287 8.5,-400.0287 95.5,-400.0287 95.5,-378.0287 8.5,-378.0287"/>
<image xlink:href="../../images/primaryKeys.png" width="11px" height="12px" preserveAspectRatio="xMinYMin meet" x="13.5" y="-395.029"/>
<text text-anchor="start" x="28.5" y="-385.1287" font-family="Helvetica,sans-Serif" font-size="11.00" fill="#000000">id</text>
<polygon fill="none" stroke="#000000" points="8.5,-359.0287 8.5,-378.0287 95.5,-378.0287 95.5,-359.0287 8.5,-359.0287"/>
<text text-anchor="start" x="11.5" y="-365.1287" font-family="Helvetica,sans-Serif" font-size="11.00" fill="#000000">...</text>
<polygon fill="#ffffff" stroke="transparent" points="8.5,-340.0287 8.5,-359.0287 41.5,-359.0287 41.5,-340.0287 8.5,-340.0287"/>
<polygon fill="none" stroke="#000000" points="8.5,-340.0287 8.5,-359.0287 41.5,-359.0287 41.5,-340.0287 8.5,-340.0287"/>
<text text-anchor="start" x="11.5" y="-346.1287" font-family="Helvetica,sans-Serif" font-size="11.00" fill="#000000"> &#160;</text>
<polygon fill="#ffffff" stroke="transparent" points="41.5,-340.0287 41.5,-359.0287 63.5,-359.0287 63.5,-340.0287 41.5,-340.0287"/>
<polygon fill="none" stroke="#000000" points="41.5,-340.0287 41.5,-359.0287 63.5,-359.0287 63.5,-340.0287 41.5,-340.0287"/>
<text text-anchor="start" x="54.3862" y="-346.1287" font-family="Helvetica,sans-Serif" font-size="11.00" fill="#000000"> &#160;</text>
<polygon fill="#ffffff" stroke="transparent" points="63.5,-340.0287 63.5,-359.0287 95.5,-359.0287 95.5,-340.0287 63.5,-340.0287"/>
<polygon fill="none" stroke="#000000" points="63.5,-340.0287 63.5,-359.0287 95.5,-359.0287 95.5,-340.0287 63.5,-340.0287"/>
<text text-anchor="start" x="76.9053" y="-346.1287" font-family="Helvetica,sans-Serif" font-size="11.00" fill="#000000">3 &gt;</text>
</a>
</g>
</g>
<!-- grupos&#45;&gt;cursos -->
<g id="edge1" class="edge">
<title>grupos:w&#45;&gt;cursos:e</title>
<path fill="none" stroke="#000000" d="M345.9292,-652.6272C227.6264,-645.9068 217.2341,-555.8173 136,-458.0287 113.278,-430.6763 131.059,-389.0287 95.5,-389.0287"/>
<polygon fill="#000000" stroke="#000000" points="352.503,-652.8083 360.4008,-656.6274 356.5015,-652.9185 360.5,-653.0287 360.5,-653.0287 360.5,-653.0287 356.5015,-652.9185 360.5992,-649.4301 352.503,-652.8083 352.503,-652.8083"/>
<ellipse fill="none" stroke="#000000" cx="349.3042" cy="-652.7202" rx="3.2" ry="3.2"/>
</g>
<!-- usuarios -->
<g id="node3" class="node">
<title>usuarios</title>
<g id="a_node3"><a xlink:href="../../tables/usuarios.html" xlink:title="usuarios" target="_top">
<polygon fill="#ffffff" stroke="transparent" points="144,-159.0287 144,-447.0287 311,-447.0287 311,-159.0287 144,-159.0287"/>
<polygon fill="#f5f5f5" stroke="transparent" points="146.5,-422.0287 146.5,-445.0287 309.5,-445.0287 309.5,-422.0287 146.5,-422.0287"/>
<polygon fill="none" stroke="#000000" points="146.5,-422.0287 146.5,-445.0287 309.5,-445.0287 309.5,-422.0287 146.5,-422.0287"/>
<text text-anchor="start" x="151.5" y="-430.6287" font-family="Helvetica,sans-Serif" font-weight="bold" font-size="11.00" fill="#000000">usuarios</text>
<text text-anchor="start" x="274.5437" y="-430.1287" font-family="Helvetica,sans-Serif" font-size="11.00" fill="#000000">[table]</text>
<polygon fill="none" stroke="#000000" points="146.5,-400.0287 146.5,-422.0287 225.5,-422.0287 225.5,-400.0287 146.5,-400.0287"/>
<image xlink:href="../../images/primaryKeys.png" width="11px" height="12px" preserveAspectRatio="xMinYMin meet" x="151.5" y="-417.029"/>
<text text-anchor="start" x="166.5" y="-407.1287" font-family="Helvetica,sans-Serif" font-size="11.00" fill="#000000">id</text>
<polygon fill="none" stroke="#000000" points="225.5,-400.0287 225.5,-422.0287 309.5,-422.0287 309.5,-400.0287 225.5,-400.0287"/>
<text text-anchor="start" x="228.5" y="-407.7287" font-family="Helvetica,sans-Serif" font-size="11.00" fill="#000000">serial[10]</text>
<polygon fill="none" stroke="#000000" points="146.5,-378.0287 146.5,-400.0287 225.5,-400.0287 225.5,-378.0287 146.5,-378.0287"/>
<image xlink:href="../../images/foreignKeys.png" width="11px" height="12px" preserveAspectRatio="xMinYMin meet" x="151.5" y="-395.029"/>
<text text-anchor="start" x="166.5" y="-385.1287" font-family="Helvetica,sans-Serif" font-size="11.00" fill="#000000">id_curso</text>
<polygon fill="none" stroke="#000000" points="225.5,-378.0287 225.5,-400.0287 309.5,-400.0287 309.5,-378.0287 225.5,-378.0287"/>
<text text-anchor="start" x="228.5" y="-385.7287" font-family="Helvetica,sans-Serif" font-size="11.00" fill="#000000">int4[10]</text>
<polygon fill="none" stroke="#000000" points="146.5,-356.0287 146.5,-378.0287 225.5,-378.0287 225.5,-356.0287 146.5,-356.0287"/>
<text text-anchor="start" x="166.5" y="-363.1287" font-family="Helvetica,sans-Serif" font-size="11.00" fill="#000000">data_nasc</text>
<polygon fill="none" stroke="#000000" points="225.5,-356.0287 225.5,-378.0287 309.5,-378.0287 309.5,-356.0287 225.5,-356.0287"/>
<text text-anchor="start" x="228.3807" y="-363.7287" font-family="Helvetica,sans-Serif" font-size="11.00" fill="#000000">timestamp[29,6]</text>
<polygon fill="none" stroke="#000000" points="146.5,-334.0287 146.5,-356.0287 225.5,-356.0287 225.5,-334.0287 146.5,-334.0287"/>
<text text-anchor="start" x="166.5" y="-341.1287" font-family="Helvetica,sans-Serif" font-size="11.00" fill="#000000">dtype</text>
<polygon fill="none" stroke="#000000" points="225.5,-334.0287 225.5,-356.0287 309.5,-356.0287 309.5,-334.0287 225.5,-334.0287"/>
<text text-anchor="start" x="228.5" y="-341.7287" font-family="Helvetica,sans-Serif" font-size="11.00" fill="#000000">varchar[31]</text>
<polygon fill="#ffffff" stroke="transparent" points="146.5,-312.0287 146.5,-334.0287 225.5,-334.0287 225.5,-312.0287 146.5,-312.0287"/>
<polygon fill="none" stroke="#000000" points="146.5,-312.0287 146.5,-334.0287 225.5,-334.0287 225.5,-312.0287 146.5,-312.0287"/>
<text text-anchor="start" x="166.5" y="-319.1287" font-family="Helvetica,sans-Serif" font-size="11.00" fill="#000000">nome</text>
<polygon fill="none" stroke="#000000" points="225.5,-312.0287 225.5,-334.0287 309.5,-334.0287 309.5,-312.0287 225.5,-312.0287"/>
<text text-anchor="start" x="228.5" y="-319.7287" font-family="Helvetica,sans-Serif" font-size="11.00" fill="#000000">varchar[100]</text>
<polygon fill="#ffffff" stroke="transparent" points="146.5,-290.0287 146.5,-312.0287 225.5,-312.0287 225.5,-290.0287 146.5,-290.0287"/>
<polygon fill="none" stroke="#000000" points="146.5,-290.0287 146.5,-312.0287 225.5,-312.0287 225.5,-290.0287 146.5,-290.0287"/>
<text text-anchor="start" x="166.5" y="-297.1287" font-family="Helvetica,sans-Serif" font-size="11.00" fill="#000000">email</text>
<polygon fill="none" stroke="#000000" points="225.5,-290.0287 225.5,-312.0287 309.5,-312.0287 309.5,-290.0287 225.5,-290.0287"/>
<text text-anchor="start" x="228.5" y="-297.7287" font-family="Helvetica,sans-Serif" font-size="11.00" fill="#000000">varchar[255]</text>
<polygon fill="#ffffff" stroke="transparent" points="146.5,-268.0287 146.5,-290.0287 225.5,-290.0287 225.5,-268.0287 146.5,-268.0287"/>
<polygon fill="none" stroke="#000000" points="146.5,-268.0287 146.5,-290.0287 225.5,-290.0287 225.5,-268.0287 146.5,-268.0287"/>
<text text-anchor="start" x="166.5" y="-275.1287" font-family="Helvetica,sans-Serif" font-size="11.00" fill="#000000">matricula</text>
<polygon fill="none" stroke="#000000" points="225.5,-268.0287 225.5,-290.0287 309.5,-290.0287 309.5,-268.0287 225.5,-268.0287"/>
<text text-anchor="start" x="228.5" y="-275.7287" font-family="Helvetica,sans-Serif" font-size="11.00" fill="#000000">varchar[255]</text>
<polygon fill="none" stroke="#000000" points="146.5,-246.0287 146.5,-268.0287 225.5,-268.0287 225.5,-246.0287 146.5,-246.0287"/>
<text text-anchor="start" x="166.5" y="-253.1287" font-family="Helvetica,sans-Serif" font-size="11.00" fill="#000000">password</text>
<polygon fill="none" stroke="#000000" points="225.5,-246.0287 225.5,-268.0287 309.5,-268.0287 309.5,-246.0287 225.5,-246.0287"/>
<text text-anchor="start" x="228.5" y="-253.7287" font-family="Helvetica,sans-Serif" font-size="11.00" fill="#000000">varchar[255]</text>
<polygon fill="none" stroke="#000000" points="146.5,-224.0287 146.5,-246.0287 225.5,-246.0287 225.5,-224.0287 146.5,-224.0287"/>
<text text-anchor="start" x="166.5" y="-231.1287" font-family="Helvetica,sans-Serif" font-size="11.00" fill="#000000">role</text>
<polygon fill="none" stroke="#000000" points="225.5,-224.0287 225.5,-246.0287 309.5,-246.0287 309.5,-224.0287 225.5,-224.0287"/>
<text text-anchor="start" x="228.5" y="-231.7287" font-family="Helvetica,sans-Serif" font-size="11.00" fill="#000000">varchar[255]</text>
<polygon fill="#ffffff" stroke="transparent" points="146.5,-202.0287 146.5,-224.0287 225.5,-224.0287 225.5,-202.0287 146.5,-202.0287"/>
<polygon fill="none" stroke="#000000" points="146.5,-202.0287 146.5,-224.0287 225.5,-224.0287 225.5,-202.0287 146.5,-202.0287"/>
<text text-anchor="start" x="166.5" y="-209.1287" font-family="Helvetica,sans-Serif" font-size="11.00" fill="#000000">siape</text>
<polygon fill="none" stroke="#000000" points="225.5,-202.0287 225.5,-224.0287 309.5,-224.0287 309.5,-202.0287 225.5,-202.0287"/>
<text text-anchor="start" x="228.5" y="-209.7287" font-family="Helvetica,sans-Serif" font-size="11.00" fill="#000000">varchar[255]</text>
<polygon fill="none" stroke="#000000" points="146.5,-180.0287 146.5,-202.0287 225.5,-202.0287 225.5,-180.0287 146.5,-180.0287"/>
<text text-anchor="start" x="166.5" y="-187.1287" font-family="Helvetica,sans-Serif" font-size="11.00" fill="#000000">situacao</text>
<polygon fill="none" stroke="#000000" points="225.5,-180.0287 225.5,-202.0287 309.5,-202.0287 309.5,-180.0287 225.5,-180.0287"/>
<text text-anchor="start" x="228.5" y="-187.7287" font-family="Helvetica,sans-Serif" font-size="11.00" fill="#000000">varchar[255]</text>
<polygon fill="#ffffff" stroke="transparent" points="146.5,-161.0287 146.5,-180.0287 190.5,-180.0287 190.5,-161.0287 146.5,-161.0287"/>
<polygon fill="none" stroke="#000000" points="146.5,-161.0287 146.5,-180.0287 190.5,-180.0287 190.5,-161.0287 146.5,-161.0287"/>
<text text-anchor="start" x="149.5" y="-167.1287" font-family="Helvetica,sans-Serif" font-size="11.00" fill="#000000">&lt; 1</text>
<polygon fill="#ffffff" stroke="transparent" points="190.5,-161.0287 190.5,-180.0287 225.5,-180.0287 225.5,-161.0287 190.5,-161.0287"/>
<polygon fill="none" stroke="#000000" points="190.5,-161.0287 190.5,-180.0287 225.5,-180.0287 225.5,-161.0287 190.5,-161.0287"/>
<text text-anchor="start" x="216.3862" y="-167.1287" font-family="Helvetica,sans-Serif" font-size="11.00" fill="#000000"> &#160;</text>
<polygon fill="#ffffff" stroke="transparent" points="225.5,-161.0287 225.5,-180.0287 309.5,-180.0287 309.5,-161.0287 225.5,-161.0287"/>
<polygon fill="none" stroke="#000000" points="225.5,-161.0287 225.5,-180.0287 309.5,-180.0287 309.5,-161.0287 225.5,-161.0287"/>
<text text-anchor="start" x="290.9053" y="-167.1287" font-family="Helvetica,sans-Serif" font-size="11.00" fill="#000000">6 &gt;</text>
<polygon fill="none" stroke="#000000" stroke-width="2" points="145,-160.0287 145,-446.0287 310,-446.0287 310,-160.0287 145,-160.0287"/>
</a>
</g>
</g>
<!-- grupos&#45;&gt;usuarios -->
<g id="edge2" class="edge">
<title>grupos:w&#45;&gt;usuarios:e</title>
<path fill="none" stroke="#000000" d="M346.1952,-629.1268C275.7593,-607.6242 404.3816,-411.0287 309.5,-411.0287"/>
<polygon fill="#000000" stroke="#000000" points="352.5698,-629.9743 360.0255,-634.5973 356.5349,-630.5015 360.5,-631.0287 360.5,-631.0287 360.5,-631.0287 356.5349,-630.5015 360.9745,-627.4601 352.5698,-629.9743 352.5698,-629.9743"/>
<ellipse fill="none" stroke="#000000" cx="349.3977" cy="-629.5525" rx="3.2" ry="3.2"/>
</g>
<!-- usuarios&#45;&gt;cursos -->
<g id="edge11" class="edge">
<title>usuarios:w&#45;&gt;cursos:e</title>
<path fill="none" stroke="#000000" d="M131.776,-389.0287C119.7815,-389.0287 112.3229,-389.0287 95.5,-389.0287"/>
<polygon fill="#000000" stroke="#000000" points="138.5,-389.0288 146.5,-392.6287 142.5,-389.0287 146.5,-389.0287 146.5,-389.0287 146.5,-389.0287 142.5,-389.0287 146.5,-385.4287 138.5,-389.0288 138.5,-389.0288"/>
<ellipse fill="none" stroke="#000000" cx="135.3" cy="-389.0288" rx="3.2" ry="3.2"/>
</g>
<!-- mensagens -->
<g id="node4" class="node">
<title>mensagens</title>
<g id="a_node4"><a xlink:href="../../tables/mensagens.html" xlink:title="mensagens" target="_top">
<polygon fill="#ffffff" stroke="transparent" points="360,-412.5287 360,-539.5287 465,-539.5287 465,-412.5287 360,-412.5287"/>
<polygon fill="#f5f5f5" stroke="transparent" points="360.5,-516.0287 360.5,-539.0287 465.5,-539.0287 465.5,-516.0287 360.5,-516.0287"/>
<polygon fill="none" stroke="#000000" points="360.5,-516.0287 360.5,-539.0287 465.5,-539.0287 465.5,-516.0287 360.5,-516.0287"/>
<text text-anchor="start" x="365.5" y="-524.6287" font-family="Helvetica,sans-Serif" font-weight="bold" font-size="11.00" fill="#000000">mensagens</text>
<text text-anchor="start" x="431.0219" y="-524.1287" font-family="Helvetica,sans-Serif" font-size="11.00" fill="#000000">[table]</text>
<polygon fill="none" stroke="#000000" points="360.5,-494.0287 360.5,-516.0287 465.5,-516.0287 465.5,-494.0287 360.5,-494.0287"/>
<image xlink:href="../../images/primaryKeys.png" width="11px" height="12px" preserveAspectRatio="xMinYMin meet" x="365.5" y="-511.029"/>
<text text-anchor="start" x="388.5" y="-501.1287" font-family="Helvetica,sans-Serif" font-size="11.00" fill="#000000">id</text>
<polygon fill="none" stroke="#000000" points="360.5,-472.0287 360.5,-494.0287 465.5,-494.0287 465.5,-472.0287 360.5,-472.0287"/>
<image xlink:href="../../images/foreignKeys.png" width="11px" height="12px" preserveAspectRatio="xMinYMin meet" x="365.5" y="-489.029"/>
<text text-anchor="start" x="388.5" y="-479.1287" font-family="Helvetica,sans-Serif" font-size="11.00" fill="#000000">id_encontro</text>
<polygon fill="none" stroke="#000000" points="360.5,-450.0287 360.5,-472.0287 465.5,-472.0287 465.5,-450.0287 360.5,-450.0287"/>
<image xlink:href="../../images/foreignKeys.png" width="11px" height="12px" preserveAspectRatio="xMinYMin meet" x="365.5" y="-467.029"/>
<text text-anchor="start" x="388.5" y="-457.1287" font-family="Helvetica,sans-Serif" font-size="11.00" fill="#000000">id_user</text>
<polygon fill="none" stroke="#000000" points="360.5,-431.0287 360.5,-450.0287 465.5,-450.0287 465.5,-431.0287 360.5,-431.0287"/>
<text text-anchor="start" x="363.5" y="-437.1287" font-family="Helvetica,sans-Serif" font-size="11.00" fill="#000000">...</text>
<polygon fill="#ffffff" stroke="transparent" points="360.5,-412.0287 360.5,-431.0287 411.5,-431.0287 411.5,-412.0287 360.5,-412.0287"/>
<polygon fill="none" stroke="#000000" points="360.5,-412.0287 360.5,-431.0287 411.5,-431.0287 411.5,-412.0287 360.5,-412.0287"/>
<text text-anchor="start" x="363.5" y="-418.1287" font-family="Helvetica,sans-Serif" font-size="11.00" fill="#000000">&lt; 2</text>
<polygon fill="#ffffff" stroke="transparent" points="411.5,-412.0287 411.5,-431.0287 438.5,-431.0287 438.5,-412.0287 411.5,-412.0287"/>
<polygon fill="none" stroke="#000000" points="411.5,-412.0287 411.5,-431.0287 438.5,-431.0287 438.5,-412.0287 411.5,-412.0287"/>
<text text-anchor="start" x="429.3862" y="-418.1287" font-family="Helvetica,sans-Serif" font-size="11.00" fill="#000000"> &#160;</text>
<polygon fill="#ffffff" stroke="transparent" points="438.5,-412.0287 438.5,-431.0287 465.5,-431.0287 465.5,-412.0287 438.5,-412.0287"/>
<polygon fill="none" stroke="#000000" points="438.5,-412.0287 438.5,-431.0287 465.5,-431.0287 465.5,-412.0287 438.5,-412.0287"/>
<text text-anchor="start" x="456.3862" y="-418.1287" font-family="Helvetica,sans-Serif" font-size="11.00" fill="#000000"> &#160;</text>
</a>
</g>
</g>
<!-- mensagens&#45;&gt;usuarios -->
<g id="edge3" class="edge">
<title>mensagens:w&#45;&gt;usuarios:e</title>
<path fill="none" stroke="#000000" d="M346.7263,-456.4145C331.8844,-444.0365 335.291,-411.0287 309.5,-411.0287"/>
<polygon fill="#000000" stroke="#000000" points="352.9143,-458.4875 359.3564,-464.4423 356.7072,-459.7581 360.5,-461.0287 360.5,-461.0287 360.5,-461.0287 356.7072,-459.7581 361.6436,-457.6152 352.9143,-458.4875 352.9143,-458.4875"/>
<ellipse fill="none" stroke="#000000" cx="349.8801" cy="-457.4709" rx="3.2" ry="3.2"/>
</g>
<!-- token -->
<g id="node5" class="node">
<title>token</title>
<g id="a_node5"><a xlink:href="../../tables/token.html" xlink:title="token" target="_top">
<polygon fill="#ffffff" stroke="transparent" points="370.5,-236.5287 370.5,-363.5287 454.5,-363.5287 454.5,-236.5287 370.5,-236.5287"/>
<polygon fill="#f5f5f5" stroke="transparent" points="370.5,-340.0287 370.5,-363.0287 454.5,-363.0287 454.5,-340.0287 370.5,-340.0287"/>
<polygon fill="none" stroke="#000000" points="370.5,-340.0287 370.5,-363.0287 454.5,-363.0287 454.5,-340.0287 370.5,-340.0287"/>
<text text-anchor="start" x="375.5" y="-348.6287" font-family="Helvetica,sans-Serif" font-weight="bold" font-size="11.00" fill="#000000">token</text>
<text text-anchor="start" x="419.5437" y="-348.1287" font-family="Helvetica,sans-Serif" font-size="11.00" fill="#000000">[table]</text>
<polygon fill="none" stroke="#000000" points="370.5,-318.0287 370.5,-340.0287 454.5,-340.0287 454.5,-318.0287 370.5,-318.0287"/>
<image xlink:href="../../images/primaryKeys.png" width="11px" height="12px" preserveAspectRatio="xMinYMin meet" x="375.5" y="-335.029"/>
<text text-anchor="start" x="390.5" y="-325.1287" font-family="Helvetica,sans-Serif" font-size="11.00" fill="#000000">id</text>
<polygon fill="none" stroke="#000000" points="370.5,-296.0287 370.5,-318.0287 454.5,-318.0287 454.5,-296.0287 370.5,-296.0287"/>
<image xlink:href="../../images/foreignKeys.png" width="11px" height="12px" preserveAspectRatio="xMinYMin meet" x="375.5" y="-313.029"/>
<text text-anchor="start" x="390.5" y="-303.1287" font-family="Helvetica,sans-Serif" font-size="11.00" fill="#000000">id_usuario</text>
<polygon fill="#ffffff" stroke="transparent" points="370.5,-274.0287 370.5,-296.0287 454.5,-296.0287 454.5,-274.0287 370.5,-274.0287"/>
<polygon fill="none" stroke="#000000" points="370.5,-274.0287 370.5,-296.0287 454.5,-296.0287 454.5,-274.0287 370.5,-274.0287"/>
<text text-anchor="start" x="390.5" y="-281.1287" font-family="Helvetica,sans-Serif" font-size="11.00" fill="#000000">token</text>
<polygon fill="none" stroke="#000000" points="370.5,-255.0287 370.5,-274.0287 454.5,-274.0287 454.5,-255.0287 370.5,-255.0287"/>
<text text-anchor="start" x="373.5" y="-261.1287" font-family="Helvetica,sans-Serif" font-size="11.00" fill="#000000">...</text>
<polygon fill="#ffffff" stroke="transparent" points="370.5,-236.0287 370.5,-255.0287 410.5,-255.0287 410.5,-236.0287 370.5,-236.0287"/>
<polygon fill="none" stroke="#000000" points="370.5,-236.0287 370.5,-255.0287 410.5,-255.0287 410.5,-236.0287 370.5,-236.0287"/>
<text text-anchor="start" x="373.5" y="-242.1287" font-family="Helvetica,sans-Serif" font-size="11.00" fill="#000000">&lt; 1</text>
<polygon fill="#ffffff" stroke="transparent" points="410.5,-236.0287 410.5,-255.0287 432.5,-255.0287 432.5,-236.0287 410.5,-236.0287"/>
<polygon fill="none" stroke="#000000" points="410.5,-236.0287 410.5,-255.0287 432.5,-255.0287 432.5,-236.0287 410.5,-236.0287"/>
<text text-anchor="start" x="423.3862" y="-242.1287" font-family="Helvetica,sans-Serif" font-size="11.00" fill="#000000"> &#160;</text>
<polygon fill="#ffffff" stroke="transparent" points="432.5,-236.0287 432.5,-255.0287 454.5,-255.0287 454.5,-236.0287 432.5,-236.0287"/>
<polygon fill="none" stroke="#000000" points="432.5,-236.0287 432.5,-255.0287 454.5,-255.0287 454.5,-236.0287 432.5,-236.0287"/>
<text text-anchor="start" x="445.3862" y="-242.1287" font-family="Helvetica,sans-Serif" font-size="11.00" fill="#000000"> &#160;</text>
</a>
</g>
</g>
<!-- token&#45;&gt;usuarios -->
<g id="edge4" class="edge">
<title>token:w&#45;&gt;usuarios:e</title>
<path fill="none" stroke="#000000" d="M356.2361,-310.489C325.8205,-328.5346 357.2254,-411.0287 309.5,-411.0287"/>
<polygon fill="#000000" stroke="#000000" points="362.7255,-308.9148 371.3487,-310.5272 366.6127,-307.9717 370.5,-307.0287 370.5,-307.0287 370.5,-307.0287 366.6127,-307.9717 369.6513,-303.5302 362.7255,-308.9148 362.7255,-308.9148"/>
<ellipse fill="none" stroke="#000000" cx="359.6157" cy="-309.6692" rx="3.2" ry="3.2"/>
</g>
<!-- turmas -->
<g id="node6" class="node">
<title>turmas</title>
<g id="a_node6"><a xlink:href="../../tables/turmas.html" xlink:title="turmas" target="_top">
<polygon fill="#ffffff" stroke="transparent" points="373,-66.5287 373,-215.5287 452,-215.5287 452,-66.5287 373,-66.5287"/>
<polygon fill="#f5f5f5" stroke="transparent" points="373.5,-192.0287 373.5,-215.0287 452.5,-215.0287 452.5,-192.0287 373.5,-192.0287"/>
<polygon fill="none" stroke="#000000" points="373.5,-192.0287 373.5,-215.0287 452.5,-215.0287 452.5,-192.0287 373.5,-192.0287"/>
<text text-anchor="start" x="378.5" y="-200.6287" font-family="Helvetica,sans-Serif" font-weight="bold" font-size="11.00" fill="#000000">turmas</text>
<text text-anchor="start" x="418.0219" y="-200.1287" font-family="Helvetica,sans-Serif" font-size="11.00" fill="#000000">[table]</text>
<polygon fill="none" stroke="#000000" points="373.5,-170.0287 373.5,-192.0287 452.5,-192.0287 452.5,-170.0287 373.5,-170.0287"/>
<image xlink:href="../../images/primaryKeys.png" width="11px" height="12px" preserveAspectRatio="xMinYMin meet" x="378.5" y="-187.029"/>
<text text-anchor="start" x="394.5" y="-177.1287" font-family="Helvetica,sans-Serif" font-size="11.00" fill="#000000">id</text>
<polygon fill="none" stroke="#000000" points="373.5,-148.0287 373.5,-170.0287 452.5,-170.0287 452.5,-148.0287 373.5,-148.0287"/>
<image xlink:href="../../images/foreignKeys.png" width="11px" height="12px" preserveAspectRatio="xMinYMin meet" x="378.5" y="-165.029"/>
<text text-anchor="start" x="394.5" y="-155.1287" font-family="Helvetica,sans-Serif" font-size="11.00" fill="#000000">id_curso</text>
<polygon fill="none" stroke="#000000" points="373.5,-126.0287 373.5,-148.0287 452.5,-148.0287 452.5,-126.0287 373.5,-126.0287"/>
<image xlink:href="../../images/foreignKeys.png" width="11px" height="12px" preserveAspectRatio="xMinYMin meet" x="378.5" y="-143.029"/>
<text text-anchor="start" x="394.5" y="-133.1287" font-family="Helvetica,sans-Serif" font-size="11.00" fill="#000000">id_user</text>
<polygon fill="#ffffff" stroke="transparent" points="373.5,-104.0287 373.5,-126.0287 452.5,-126.0287 452.5,-104.0287 373.5,-104.0287"/>
<polygon fill="none" stroke="#000000" points="373.5,-104.0287 373.5,-126.0287 452.5,-126.0287 452.5,-104.0287 373.5,-104.0287"/>
<text text-anchor="start" x="394.5" y="-111.1287" font-family="Helvetica,sans-Serif" font-size="11.00" fill="#000000">nome</text>
<polygon fill="none" stroke="#000000" points="373.5,-85.0287 373.5,-104.0287 452.5,-104.0287 452.5,-85.0287 373.5,-85.0287"/>
<text text-anchor="start" x="376.5" y="-91.1287" font-family="Helvetica,sans-Serif" font-size="11.00" fill="#000000">...</text>
<polygon fill="#ffffff" stroke="transparent" points="373.5,-66.0287 373.5,-85.0287 406.5,-85.0287 406.5,-66.0287 373.5,-66.0287"/>
<polygon fill="none" stroke="#000000" points="373.5,-66.0287 373.5,-85.0287 406.5,-85.0287 406.5,-66.0287 373.5,-66.0287"/>
<text text-anchor="start" x="376.5" y="-72.1287" font-family="Helvetica,sans-Serif" font-size="11.00" fill="#000000">&lt; 2</text>
<polygon fill="#ffffff" stroke="transparent" points="406.5,-66.0287 406.5,-85.0287 424.5,-85.0287 424.5,-66.0287 406.5,-66.0287"/>
<polygon fill="none" stroke="#000000" points="406.5,-66.0287 406.5,-85.0287 424.5,-85.0287 424.5,-66.0287 406.5,-66.0287"/>
<text text-anchor="start" x="415.3862" y="-72.1287" font-family="Helvetica,sans-Serif" font-size="11.00" fill="#000000"> &#160;</text>
<polygon fill="#ffffff" stroke="transparent" points="424.5,-66.0287 424.5,-85.0287 452.5,-85.0287 452.5,-66.0287 424.5,-66.0287"/>
<polygon fill="none" stroke="#000000" points="424.5,-66.0287 424.5,-85.0287 452.5,-85.0287 452.5,-66.0287 424.5,-66.0287"/>
<text text-anchor="start" x="433.9053" y="-72.1287" font-family="Helvetica,sans-Serif" font-size="11.00" fill="#000000">2 &gt;</text>
</a>
</g>
</g>
<!-- turmas&#45;&gt;cursos -->
<g id="edge5" class="edge">
<title>turmas:w&#45;&gt;cursos:e</title>
<path fill="none" stroke="#000000" d="M358.8396,-157.8092C345.2864,-155.3584 337.8254,-149.9096 319,-148.0287 238.0696,-139.943 198.0943,-95.4987 136,-148.0287 94.5394,-183.1032 149.8065,-389.0287 95.5,-389.0287"/>
<polygon fill="#000000" stroke="#000000" points="365.5275,-158.3655 373.2015,-162.6163 369.5138,-158.6971 373.5,-159.0287 373.5,-159.0287 373.5,-159.0287 369.5138,-158.6971 373.7985,-155.4411 365.5275,-158.3655 365.5275,-158.3655"/>
<ellipse fill="none" stroke="#000000" cx="362.3386" cy="-158.1002" rx="3.2" ry="3.2"/>
</g>
<!-- turmas&#45;&gt;usuarios -->
<g id="edge6" class="edge">
<title>turmas:w&#45;&gt;usuarios:e</title>
<path fill="none" stroke="#000000" d="M359.9608,-142.7516C320.5534,-182.0989 366.6543,-411.0287 309.5,-411.0287"/>
<polygon fill="#000000" stroke="#000000" points="366.1312,-140.1434 374.9016,-140.3447 369.8156,-138.5861 373.5,-137.0287 373.5,-137.0287 373.5,-137.0287 369.8156,-138.5861 372.0984,-133.7128 366.1312,-140.1434 366.1312,-140.1434"/>
<ellipse fill="none" stroke="#000000" cx="363.1837" cy="-141.3893" rx="3.2" ry="3.2"/>
</g>
<!-- usuario_grupo -->
<g id="node7" class="node">
<title>usuario_grupo</title>
<g id="a_node7"><a xlink:href="../../tables/usuario_grupo.html" xlink:title="usuario_grupo" target="_top">
<polygon fill="#ffffff" stroke="transparent" points="514,-490.0287 514,-576.0287 637,-576.0287 637,-490.0287 514,-490.0287"/>
<polygon fill="#f5f5f5" stroke="transparent" points="514.5,-553.0287 514.5,-576.0287 637.5,-576.0287 637.5,-553.0287 514.5,-553.0287"/>
<polygon fill="none" stroke="#000000" points="514.5,-553.0287 514.5,-576.0287 637.5,-576.0287 637.5,-553.0287 514.5,-553.0287"/>
<text text-anchor="start" x="519.5" y="-561.6287" font-family="Helvetica,sans-Serif" font-weight="bold" font-size="11.00" fill="#000000">usuario_grupo</text>
<text text-anchor="start" x="603.0219" y="-561.1287" font-family="Helvetica,sans-Serif" font-size="11.00" fill="#000000">[table]</text>
<polygon fill="none" stroke="#000000" points="514.5,-531.0287 514.5,-553.0287 637.5,-553.0287 637.5,-531.0287 514.5,-531.0287"/>
<image xlink:href="../../images/foreignKeys.png" width="11px" height="12px" preserveAspectRatio="xMinYMin meet" x="519.5" y="-548.029"/>
<text text-anchor="start" x="543.5" y="-538.1287" font-family="Helvetica,sans-Serif" font-size="11.00" fill="#000000">id_grupo</text>
<polygon fill="none" stroke="#000000" points="514.5,-509.0287 514.5,-531.0287 637.5,-531.0287 637.5,-509.0287 514.5,-509.0287"/>
<image xlink:href="../../images/foreignKeys.png" width="11px" height="12px" preserveAspectRatio="xMinYMin meet" x="519.5" y="-526.029"/>
<text text-anchor="start" x="543.5" y="-516.1287" font-family="Helvetica,sans-Serif" font-size="11.00" fill="#000000">id_usuario</text>
<polygon fill="#ffffff" stroke="transparent" points="514.5,-490.0287 514.5,-509.0287 574.5,-509.0287 574.5,-490.0287 514.5,-490.0287"/>
<polygon fill="none" stroke="#000000" points="514.5,-490.0287 514.5,-509.0287 574.5,-509.0287 574.5,-490.0287 514.5,-490.0287"/>
<text text-anchor="start" x="517.5" y="-496.1287" font-family="Helvetica,sans-Serif" font-size="11.00" fill="#000000">&lt; 2</text>
<polygon fill="#ffffff" stroke="transparent" points="574.5,-490.0287 574.5,-509.0287 605.5,-509.0287 605.5,-490.0287 574.5,-490.0287"/>
<polygon fill="none" stroke="#000000" points="574.5,-490.0287 574.5,-509.0287 605.5,-509.0287 605.5,-490.0287 574.5,-490.0287"/>
<text text-anchor="start" x="596.3862" y="-496.1287" font-family="Helvetica,sans-Serif" font-size="11.00" fill="#000000"> &#160;</text>
<polygon fill="#ffffff" stroke="transparent" points="605.5,-490.0287 605.5,-509.0287 637.5,-509.0287 637.5,-490.0287 605.5,-490.0287"/>
<polygon fill="none" stroke="#000000" points="605.5,-490.0287 605.5,-509.0287 637.5,-509.0287 637.5,-490.0287 605.5,-490.0287"/>
<text text-anchor="start" x="628.3862" y="-496.1287" font-family="Helvetica,sans-Serif" font-size="11.00" fill="#000000"> &#160;</text>
</a>
</g>
</g>
<!-- usuario_grupo&#45;&gt;grupos -->
<g id="edge7" class="edge">
<title>usuario_grupo:w&#45;&gt;grupos:e</title>
<path fill="none" stroke="#000000" d="M500.2429,-545.3164C464.7102,-565.7973 522.5894,-675.0287 465.5,-675.0287"/>
<polygon fill="#000000" stroke="#000000" points="506.7046,-543.8264 515.3089,-545.5367 510.6023,-542.9275 514.5,-542.0287 514.5,-542.0287 514.5,-542.0287 510.6023,-542.9275 513.6911,-538.5208 506.7046,-543.8264 506.7046,-543.8264"/>
<ellipse fill="none" stroke="#000000" cx="503.5864" cy="-544.5454" rx="3.2" ry="3.2"/>
</g>
<!-- usuario_grupo&#45;&gt;usuarios -->
<g id="edge8" class="edge">
<title>usuario_grupo:w&#45;&gt;usuarios:e</title>
<path fill="none" stroke="#000000" d="M500.0998,-517.1298C470.6592,-501.8884 513.4034,-430.6484 473,-402.0287 429.1163,-370.9438 405.4853,-396.4277 352,-402.0287 332.7972,-404.0397 328.8078,-411.0287 309.5,-411.0287"/>
<polygon fill="#000000" stroke="#000000" points="506.6573,-518.4498 513.7895,-523.5579 510.5787,-519.2393 514.5,-520.0287 514.5,-520.0287 514.5,-520.0287 510.5787,-519.2393 515.2105,-516.4995 506.6573,-518.4498 506.6573,-518.4498"/>
<ellipse fill="none" stroke="#000000" cx="503.5203" cy="-517.8183" rx="3.2" ry="3.2"/>
</g>
<!-- usuario_turma -->
<g id="node8" class="node">
<title>usuario_turma</title>
<g id="a_node8"><a xlink:href="../../tables/usuario_turma.html" xlink:title="usuario_turma" target="_top">
<polygon fill="#ffffff" stroke="transparent" points="514.5,-70.0287 514.5,-156.0287 636.5,-156.0287 636.5,-70.0287 514.5,-70.0287"/>
<polygon fill="#f5f5f5" stroke="transparent" points="514.5,-133.0287 514.5,-156.0287 636.5,-156.0287 636.5,-133.0287 514.5,-133.0287"/>
<polygon fill="none" stroke="#000000" points="514.5,-133.0287 514.5,-156.0287 636.5,-156.0287 636.5,-133.0287 514.5,-133.0287"/>
<text text-anchor="start" x="519.5" y="-141.6287" font-family="Helvetica,sans-Serif" font-weight="bold" font-size="11.00" fill="#000000">usuario_turma</text>
<text text-anchor="start" x="602.0219" y="-141.1287" font-family="Helvetica,sans-Serif" font-size="11.00" fill="#000000">[table]</text>
<polygon fill="none" stroke="#000000" points="514.5,-111.0287 514.5,-133.0287 636.5,-133.0287 636.5,-111.0287 514.5,-111.0287"/>
<image xlink:href="../../images/foreignKeys.png" width="11px" height="12px" preserveAspectRatio="xMinYMin meet" x="519.5" y="-128.029"/>
<text text-anchor="start" x="543.5" y="-118.1287" font-family="Helvetica,sans-Serif" font-size="11.00" fill="#000000">id_turma</text>
<polygon fill="none" stroke="#000000" points="514.5,-89.0287 514.5,-111.0287 636.5,-111.0287 636.5,-89.0287 514.5,-89.0287"/>
<image xlink:href="../../images/foreignKeys.png" width="11px" height="12px" preserveAspectRatio="xMinYMin meet" x="519.5" y="-106.029"/>
<text text-anchor="start" x="543.5" y="-96.1287" font-family="Helvetica,sans-Serif" font-size="11.00" fill="#000000">id_usuario</text>
<polygon fill="#ffffff" stroke="transparent" points="514.5,-70.0287 514.5,-89.0287 573.5,-89.0287 573.5,-70.0287 514.5,-70.0287"/>
<polygon fill="none" stroke="#000000" points="514.5,-70.0287 514.5,-89.0287 573.5,-89.0287 573.5,-70.0287 514.5,-70.0287"/>
<text text-anchor="start" x="517.5" y="-76.1287" font-family="Helvetica,sans-Serif" font-size="11.00" fill="#000000">&lt; 2</text>
<polygon fill="#ffffff" stroke="transparent" points="573.5,-70.0287 573.5,-89.0287 604.5,-89.0287 604.5,-70.0287 573.5,-70.0287"/>
<polygon fill="none" stroke="#000000" points="573.5,-70.0287 573.5,-89.0287 604.5,-89.0287 604.5,-70.0287 573.5,-70.0287"/>
<text text-anchor="start" x="595.3862" y="-76.1287" font-family="Helvetica,sans-Serif" font-size="11.00" fill="#000000"> &#160;</text>
<polygon fill="#ffffff" stroke="transparent" points="604.5,-70.0287 604.5,-89.0287 636.5,-89.0287 636.5,-70.0287 604.5,-70.0287"/>
<polygon fill="none" stroke="#000000" points="604.5,-70.0287 604.5,-89.0287 636.5,-89.0287 636.5,-70.0287 604.5,-70.0287"/>
<text text-anchor="start" x="627.3862" y="-76.1287" font-family="Helvetica,sans-Serif" font-size="11.00" fill="#000000"> &#160;</text>
</a>
</g>
</g>
<!-- usuario_turma&#45;&gt;usuarios -->
<g id="edge10" class="edge">
<title>usuario_turma:w&#45;&gt;usuarios:e</title>
<path fill="none" stroke="#000000" d="M500.7643,-95.2543C490.4272,-85.6425 491.8974,-64.1819 473,-56.0287 423.6219,-34.7249 392.2233,-20.3337 352,-56.0287 292.5734,-108.7652 388.9522,-411.0287 309.5,-411.0287"/>
<polygon fill="#000000" stroke="#000000" points="506.9435,-97.4021 513.318,-103.4292 510.7217,-98.7154 514.5,-100.0287 514.5,-100.0287 514.5,-100.0287 510.7217,-98.7154 515.682,-96.6283 506.9435,-97.4021 506.9435,-97.4021"/>
<ellipse fill="none" stroke="#000000" cx="503.9209" cy="-96.3514" rx="3.2" ry="3.2"/>
</g>
<!-- usuario_turma&#45;&gt;turmas -->
<g id="edge9" class="edge">
<title>usuario_turma:w&#45;&gt;turmas:e</title>
<path fill="none" stroke="#000000" d="M500.3753,-125.7194C479.5411,-138.636 484.7434,-181.0287 452.5,-181.0287"/>
<polygon fill="#000000" stroke="#000000" points="506.7599,-124.0512 515.4101,-125.5118 510.6299,-123.04 514.5,-122.0287 514.5,-122.0287 514.5,-122.0287 510.6299,-123.04 513.5899,-118.5457 506.7599,-124.0512 506.7599,-124.0512"/>
<ellipse fill="none" stroke="#000000" cx="503.6638" cy="-124.8602" rx="3.2" ry="3.2"/>
</g>
</g>
</svg>
