<?xml version="1.0" encoding="UTF-8" standalone="no"?>
<!DOCTYPE svg PUBLIC "-//W3C//DTD SVG 1.1//EN"
 "http://www.w3.org/Graphics/SVG/1.1/DTD/svg11.dtd">
<!-- Generated by graphviz version 2.40.1 (20161225.0304)
 -->
<!-- Title: twoDegreesRelationshipsDiagram Pages: 1 -->
<svg width="788pt" height="485pt"
 viewBox="0.00 0.00 788.00 484.96" xmlns="http://www.w3.org/2000/svg" xmlns:xlink="http://www.w3.org/1999/xlink">
<g id="graph0" class="graph" transform="scale(1 1) rotate(0) translate(4 480.9589)">
<title>twoDegreesRelationshipsDiagram</title>
<polygon fill="#ffffff" stroke="transparent" points="-4,4 -4,-480.9589 784,-480.9589 784,4 -4,4"/>
<text text-anchor="middle" x="72.4936" y="-7.3" font-family="Helvetica,sans-Serif" font-size="11.00" fill="#000000">Generated by SchemaSpy</text>
<!-- agendamentos -->
<g id="node1" class="node">
<title>agendamentos</title>
<g id="a_node1"><a xlink:href="../../tables/agendamentos.html" xlink:title="agendamentos" target="_top">
<polygon fill="#ffffff" stroke="transparent" points="649,-183.9076 649,-244.9076 772,-244.9076 772,-183.9076 649,-183.9076"/>
<polygon fill="#f5f5f5" stroke="transparent" points="649.5,-221.4076 649.5,-244.4076 772.5,-244.4076 772.5,-221.4076 649.5,-221.4076"/>
<polygon fill="none" stroke="#000000" points="649.5,-221.4076 649.5,-244.4076 772.5,-244.4076 772.5,-221.4076 649.5,-221.4076"/>
<text text-anchor="start" x="654.5" y="-230.0076" font-family="Helvetica,sans-Serif" font-weight="bold" font-size="11.00" fill="#000000">agendamentos</text>
<text text-anchor="start" x="738.0219" y="-229.5076" font-family="Helvetica,sans-Serif" font-size="11.00" fill="#000000">[table]</text>
<polygon fill="none" stroke="#000000" points="649.5,-202.4076 649.5,-221.4076 772.5,-221.4076 772.5,-202.4076 649.5,-202.4076"/>
<text text-anchor="start" x="652.5" y="-208.5076" font-family="Helvetica,sans-Serif" font-size="11.00" fill="#000000">...</text>
<polygon fill="#ffffff" stroke="transparent" points="649.5,-183.4076 649.5,-202.4076 709.5,-202.4076 709.5,-183.4076 649.5,-183.4076"/>
<polygon fill="none" stroke="#000000" points="649.5,-183.4076 649.5,-202.4076 709.5,-202.4076 709.5,-183.4076 649.5,-183.4076"/>
<text text-anchor="start" x="652.5" y="-189.5076" font-family="Helvetica,sans-Serif" font-size="11.00" fill="#000000">&lt; 2</text>
<polygon fill="#ffffff" stroke="transparent" points="709.5,-183.4076 709.5,-202.4076 740.5,-202.4076 740.5,-183.4076 709.5,-183.4076"/>
<polygon fill="none" stroke="#000000" points="709.5,-183.4076 709.5,-202.4076 740.5,-202.4076 740.5,-183.4076 709.5,-183.4076"/>
<text text-anchor="start" x="731.3862" y="-189.5076" font-family="Helvetica,sans-Serif" font-size="11.00" fill="#000000"> &#160;</text>
<polygon fill="#ffffff" stroke="transparent" points="740.5,-183.4076 740.5,-202.4076 772.5,-202.4076 772.5,-183.4076 740.5,-183.4076"/>
<polygon fill="none" stroke="#000000" points="740.5,-183.4076 740.5,-202.4076 772.5,-202.4076 772.5,-183.4076 740.5,-183.4076"/>
<text text-anchor="start" x="763.3862" y="-189.5076" font-family="Helvetica,sans-Serif" font-size="11.00" fill="#000000"> &#160;</text>
</a>
</g>
</g>
<!-- encontro -->
<g id="node2" class="node">
<title>encontro</title>
<g id="a_node2"><a xlink:href="../../tables/encontro.html" xlink:title="encontro" target="_top">
<polygon fill="#ffffff" stroke="transparent" points="493.5,-180.9076 493.5,-241.9076 583.5,-241.9076 583.5,-180.9076 493.5,-180.9076"/>
<polygon fill="#f5f5f5" stroke="transparent" points="493.5,-218.4076 493.5,-241.4076 583.5,-241.4076 583.5,-218.4076 493.5,-218.4076"/>
<polygon fill="none" stroke="#000000" points="493.5,-218.4076 493.5,-241.4076 583.5,-241.4076 583.5,-218.4076 493.5,-218.4076"/>
<text text-anchor="start" x="498.5" y="-227.0076" font-family="Helvetica,sans-Serif" font-weight="bold" font-size="11.00" fill="#000000">encontro</text>
<text text-anchor="start" x="549.0219" y="-226.5076" font-family="Helvetica,sans-Serif" font-size="11.00" fill="#000000">[table]</text>
<polygon fill="none" stroke="#000000" points="493.5,-199.4076 493.5,-218.4076 583.5,-218.4076 583.5,-199.4076 493.5,-199.4076"/>
<text text-anchor="start" x="496.5" y="-205.5076" font-family="Helvetica,sans-Serif" font-size="11.00" fill="#000000">...</text>
<polygon fill="#ffffff" stroke="transparent" points="493.5,-180.4076 493.5,-199.4076 532.5,-199.4076 532.5,-180.4076 493.5,-180.4076"/>
<polygon fill="none" stroke="#000000" points="493.5,-180.4076 493.5,-199.4076 532.5,-199.4076 532.5,-180.4076 493.5,-180.4076"/>
<text text-anchor="start" x="496.5" y="-186.5076" font-family="Helvetica,sans-Serif" font-size="11.00" fill="#000000">&lt; 4</text>
<polygon fill="#ffffff" stroke="transparent" points="532.5,-180.4076 532.5,-199.4076 553.5,-199.4076 553.5,-180.4076 532.5,-180.4076"/>
<polygon fill="none" stroke="#000000" points="532.5,-180.4076 532.5,-199.4076 553.5,-199.4076 553.5,-180.4076 532.5,-180.4076"/>
<text text-anchor="start" x="544.3862" y="-186.5076" font-family="Helvetica,sans-Serif" font-size="11.00" fill="#000000"> &#160;</text>
<polygon fill="#ffffff" stroke="transparent" points="553.5,-180.4076 553.5,-199.4076 583.5,-199.4076 583.5,-180.4076 553.5,-180.4076"/>
<polygon fill="none" stroke="#000000" points="553.5,-180.4076 553.5,-199.4076 583.5,-199.4076 583.5,-180.4076 553.5,-180.4076"/>
<text text-anchor="start" x="564.9053" y="-186.5076" font-family="Helvetica,sans-Serif" font-size="11.00" fill="#000000">2 &gt;</text>
</a>
</g>
</g>
<!-- agendamentos&#45;&gt;encontro -->
<g id="edge1" class="edge">
<title>agendamentos:w&#45;&gt;encontro:e</title>
<path fill="none" stroke="#000000" d="M635.0619,-211.4076C620.4147,-211.4076 605.3346,-211.4076 591.5729,-211.4076"/>
<polygon fill="#000000" stroke="#000000" points="641.5,-211.4077 649.5,-215.0076 645.5,-211.4077 649.5,-211.4076 649.5,-211.4076 649.5,-211.4076 645.5,-211.4077 649.5,-207.8076 641.5,-211.4077 641.5,-211.4077"/>
<ellipse fill="none" stroke="#000000" cx="638.3" cy="-211.4077" rx="3.2" ry="3.2"/>
</g>
<!-- grupo -->
<g id="node3" class="node">
<title>grupo</title>
<g id="a_node3"><a xlink:href="../../tables/grupo.html" xlink:title="grupo" target="_top">
<polygon fill="#ffffff" stroke="transparent" points="350,-383.9076 350,-444.9076 422,-444.9076 422,-383.9076 350,-383.9076"/>
<polygon fill="#f5f5f5" stroke="transparent" points="350,-421.4076 350,-444.4076 422,-444.4076 422,-421.4076 350,-421.4076"/>
<polygon fill="none" stroke="#000000" points="350,-421.4076 350,-444.4076 422,-444.4076 422,-421.4076 350,-421.4076"/>
<text text-anchor="start" x="355" y="-430.0076" font-family="Helvetica,sans-Serif" font-weight="bold" font-size="11.00" fill="#000000">grupo</text>
<text text-anchor="start" x="387.5219" y="-429.5076" font-family="Helvetica,sans-Serif" font-size="11.00" fill="#000000">[table]</text>
<polygon fill="none" stroke="#000000" points="350,-402.4076 350,-421.4076 422,-421.4076 422,-402.4076 350,-402.4076"/>
<text text-anchor="start" x="353" y="-408.5076" font-family="Helvetica,sans-Serif" font-size="11.00" fill="#000000">...</text>
<polygon fill="#ffffff" stroke="transparent" points="350,-383.4076 350,-402.4076 380,-402.4076 380,-383.4076 350,-383.4076"/>
<polygon fill="none" stroke="#000000" points="350,-383.4076 350,-402.4076 380,-402.4076 380,-383.4076 350,-383.4076"/>
<text text-anchor="start" x="353" y="-389.5076" font-family="Helvetica,sans-Serif" font-size="11.00" fill="#000000">&lt; 2</text>
<polygon fill="#ffffff" stroke="transparent" points="380,-383.4076 380,-402.4076 396,-402.4076 396,-383.4076 380,-383.4076"/>
<polygon fill="none" stroke="#000000" points="380,-383.4076 380,-402.4076 396,-402.4076 396,-383.4076 380,-383.4076"/>
<text text-anchor="start" x="386.8862" y="-389.5076" font-family="Helvetica,sans-Serif" font-size="11.00" fill="#000000"> &#160;</text>
<polygon fill="#ffffff" stroke="transparent" points="396,-383.4076 396,-402.4076 422,-402.4076 422,-383.4076 396,-383.4076"/>
<polygon fill="none" stroke="#000000" points="396,-383.4076 396,-402.4076 422,-402.4076 422,-383.4076 396,-383.4076"/>
<text text-anchor="start" x="403.4053" y="-389.5076" font-family="Helvetica,sans-Serif" font-size="11.00" fill="#000000">2 &gt;</text>
</a>
</g>
</g>
<!-- encontro&#45;&gt;grupo -->
<g id="edge2" class="edge">
<title>encontro:w&#45;&gt;grupo:e</title>
<path fill="none" stroke="#000000" d="M513.7733,-258.9658C494.9474,-292.8028 467.0438,-338.3008 436,-373.4076 434.0666,-375.5941 432.0101,-377.7594 429.8756,-379.8852"/>
<polygon fill="#000000" stroke="#000000" points="516.9382,-253.178 523.9352,-247.8862 518.8574,-249.6685 520.7766,-246.1589 520.7766,-246.1589 520.7766,-246.1589 518.8574,-249.6685 517.618,-244.4317 516.9382,-253.178 516.9382,-253.178"/>
<ellipse fill="none" stroke="#000000" cx="515.4029" cy="-255.9856" rx="3.2" ry="3.2"/>
</g>
<!-- turma -->
<g id="node4" class="node">
<title>turma</title>
<g id="a_node4"><a xlink:href="../../tables/turma.html" xlink:title="turma" target="_top">
<polygon fill="#ffffff" stroke="transparent" points="350,-125.9076 350,-186.9076 422,-186.9076 422,-125.9076 350,-125.9076"/>
<polygon fill="#f5f5f5" stroke="transparent" points="350,-163.4076 350,-186.4076 422,-186.4076 422,-163.4076 350,-163.4076"/>
<polygon fill="none" stroke="#000000" points="350,-163.4076 350,-186.4076 422,-186.4076 422,-163.4076 350,-163.4076"/>
<text text-anchor="start" x="355" y="-172.0076" font-family="Helvetica,sans-Serif" font-weight="bold" font-size="11.00" fill="#000000">turma</text>
<text text-anchor="start" x="387.5219" y="-171.5076" font-family="Helvetica,sans-Serif" font-size="11.00" fill="#000000">[table]</text>
<polygon fill="none" stroke="#000000" points="350,-144.4076 350,-163.4076 422,-163.4076 422,-144.4076 350,-144.4076"/>
<text text-anchor="start" x="353" y="-150.5076" font-family="Helvetica,sans-Serif" font-size="11.00" fill="#000000">...</text>
<polygon fill="#ffffff" stroke="transparent" points="350,-125.4076 350,-144.4076 380,-144.4076 380,-125.4076 350,-125.4076"/>
<polygon fill="none" stroke="#000000" points="350,-125.4076 350,-144.4076 380,-144.4076 380,-125.4076 350,-125.4076"/>
<text text-anchor="start" x="353" y="-131.5076" font-family="Helvetica,sans-Serif" font-size="11.00" fill="#000000">&lt; 2</text>
<polygon fill="#ffffff" stroke="transparent" points="380,-125.4076 380,-144.4076 396,-144.4076 396,-125.4076 380,-125.4076"/>
<polygon fill="none" stroke="#000000" points="380,-125.4076 380,-144.4076 396,-144.4076 396,-125.4076 380,-125.4076"/>
<text text-anchor="start" x="386.8862" y="-131.5076" font-family="Helvetica,sans-Serif" font-size="11.00" fill="#000000"> &#160;</text>
<polygon fill="#ffffff" stroke="transparent" points="396,-125.4076 396,-144.4076 422,-144.4076 422,-125.4076 396,-125.4076"/>
<polygon fill="none" stroke="#000000" points="396,-125.4076 396,-144.4076 422,-144.4076 422,-125.4076 396,-125.4076"/>
<text text-anchor="start" x="403.4053" y="-131.5076" font-family="Helvetica,sans-Serif" font-size="11.00" fill="#000000">2 &gt;</text>
</a>
</g>
</g>
<!-- encontro&#45;&gt;turma -->
<g id="edge3" class="edge">
<title>encontro:w&#45;&gt;turma:e</title>
<path fill="none" stroke="#000000" d="M471.4865,-187.2388C457.6022,-182.2314 443.3034,-177.0744 430.468,-172.4453"/>
<polygon fill="#000000" stroke="#000000" points="477.6374,-189.4571 483.9415,-195.5578 481.4001,-190.8142 485.1629,-192.1713 485.1629,-192.1713 485.1629,-192.1713 481.4001,-190.8142 486.3843,-188.7848 477.6374,-189.4571 477.6374,-189.4571"/>
<ellipse fill="none" stroke="#000000" cx="474.6272" cy="-188.3715" rx="3.2" ry="3.2"/>
</g>
<!-- usuario -->
<g id="node5" class="node">
<title>usuario</title>
<g id="a_node5"><a xlink:href="../../tables/usuario.html" xlink:title="usuario" target="_top">
<polygon fill="#ffffff" stroke="transparent" points="128,-66.4076 128,-354.4076 295,-354.4076 295,-66.4076 128,-66.4076"/>
<polygon fill="#f5f5f5" stroke="transparent" points="130.5,-329.4076 130.5,-352.4076 293.5,-352.4076 293.5,-329.4076 130.5,-329.4076"/>
<polygon fill="none" stroke="#000000" points="130.5,-329.4076 130.5,-352.4076 293.5,-352.4076 293.5,-329.4076 130.5,-329.4076"/>
<text text-anchor="start" x="135.5" y="-338.0076" font-family="Helvetica,sans-Serif" font-weight="bold" font-size="11.00" fill="#000000">usuario</text>
<text text-anchor="start" x="258.5437" y="-337.5076" font-family="Helvetica,sans-Serif" font-size="11.00" fill="#000000">[table]</text>
<polygon fill="none" stroke="#000000" points="130.5,-307.4076 130.5,-329.4076 209.5,-329.4076 209.5,-307.4076 130.5,-307.4076"/>
<text text-anchor="start" x="150.5" y="-314.5076" font-family="Helvetica,sans-Serif" font-size="11.00" fill="#000000">dtype</text>
<polygon fill="none" stroke="#000000" points="209.5,-307.4076 209.5,-329.4076 293.5,-329.4076 293.5,-307.4076 209.5,-307.4076"/>
<text text-anchor="start" x="212.5" y="-315.1076" font-family="Helvetica,sans-Serif" font-size="11.00" fill="#000000">varchar[31]</text>
<polygon fill="none" stroke="#000000" points="130.5,-285.4076 130.5,-307.4076 209.5,-307.4076 209.5,-285.4076 130.5,-285.4076"/>
<image xlink:href="../../images/primaryKeys.png" width="11px" height="12px" preserveAspectRatio="xMinYMin meet" x="135.5" y="-302.408"/>
<text text-anchor="start" x="150.5" y="-292.5076" font-family="Helvetica,sans-Serif" font-size="11.00" fill="#000000">id</text>
<polygon fill="none" stroke="#000000" points="209.5,-285.4076 209.5,-307.4076 293.5,-307.4076 293.5,-285.4076 209.5,-285.4076"/>
<text text-anchor="start" x="212.5" y="-293.1076" font-family="Helvetica,sans-Serif" font-size="11.00" fill="#000000">serial[10]</text>
<polygon fill="#ffffff" stroke="transparent" points="130.5,-263.4076 130.5,-285.4076 209.5,-285.4076 209.5,-263.4076 130.5,-263.4076"/>
<polygon fill="none" stroke="#000000" points="130.5,-263.4076 130.5,-285.4076 209.5,-285.4076 209.5,-263.4076 130.5,-263.4076"/>
<text text-anchor="start" x="150.5" y="-270.5076" font-family="Helvetica,sans-Serif" font-size="11.00" fill="#000000">matricula</text>
<polygon fill="none" stroke="#000000" points="209.5,-263.4076 209.5,-285.4076 293.5,-285.4076 293.5,-263.4076 209.5,-263.4076"/>
<text text-anchor="start" x="212.5" y="-271.1076" font-family="Helvetica,sans-Serif" font-size="11.00" fill="#000000">varchar[255]</text>
<polygon fill="none" stroke="#000000" points="130.5,-241.4076 130.5,-263.4076 209.5,-263.4076 209.5,-241.4076 130.5,-241.4076"/>
<text text-anchor="start" x="150.5" y="-248.5076" font-family="Helvetica,sans-Serif" font-size="11.00" fill="#000000">data_nasc</text>
<polygon fill="none" stroke="#000000" points="209.5,-241.4076 209.5,-263.4076 293.5,-263.4076 293.5,-241.4076 209.5,-241.4076"/>
<text text-anchor="start" x="212.3807" y="-249.1076" font-family="Helvetica,sans-Serif" font-size="11.00" fill="#000000">timestamp[29,6]</text>
<polygon fill="#ffffff" stroke="transparent" points="130.5,-219.4076 130.5,-241.4076 209.5,-241.4076 209.5,-219.4076 130.5,-219.4076"/>
<polygon fill="none" stroke="#000000" points="130.5,-219.4076 130.5,-241.4076 209.5,-241.4076 209.5,-219.4076 130.5,-219.4076"/>
<text text-anchor="start" x="150.5" y="-226.5076" font-family="Helvetica,sans-Serif" font-size="11.00" fill="#000000">email</text>
<polygon fill="none" stroke="#000000" points="209.5,-219.4076 209.5,-241.4076 293.5,-241.4076 293.5,-219.4076 209.5,-219.4076"/>
<text text-anchor="start" x="212.5" y="-227.1076" font-family="Helvetica,sans-Serif" font-size="11.00" fill="#000000">varchar[255]</text>
<polygon fill="#ffffff" stroke="transparent" points="130.5,-197.4076 130.5,-219.4076 209.5,-219.4076 209.5,-197.4076 130.5,-197.4076"/>
<polygon fill="none" stroke="#000000" points="130.5,-197.4076 130.5,-219.4076 209.5,-219.4076 209.5,-197.4076 130.5,-197.4076"/>
<text text-anchor="start" x="150.5" y="-204.5076" font-family="Helvetica,sans-Serif" font-size="11.00" fill="#000000">nome</text>
<polygon fill="none" stroke="#000000" points="209.5,-197.4076 209.5,-219.4076 293.5,-219.4076 293.5,-197.4076 209.5,-197.4076"/>
<text text-anchor="start" x="212.5" y="-205.1076" font-family="Helvetica,sans-Serif" font-size="11.00" fill="#000000">varchar[100]</text>
<polygon fill="none" stroke="#000000" points="130.5,-175.4076 130.5,-197.4076 209.5,-197.4076 209.5,-175.4076 130.5,-175.4076"/>
<text text-anchor="start" x="150.5" y="-182.5076" font-family="Helvetica,sans-Serif" font-size="11.00" fill="#000000">password</text>
<polygon fill="none" stroke="#000000" points="209.5,-175.4076 209.5,-197.4076 293.5,-197.4076 293.5,-175.4076 209.5,-175.4076"/>
<text text-anchor="start" x="212.5" y="-183.1076" font-family="Helvetica,sans-Serif" font-size="11.00" fill="#000000">varchar[255]</text>
<polygon fill="#ffffff" stroke="transparent" points="130.5,-153.4076 130.5,-175.4076 209.5,-175.4076 209.5,-153.4076 130.5,-153.4076"/>
<polygon fill="none" stroke="#000000" points="130.5,-153.4076 130.5,-175.4076 209.5,-175.4076 209.5,-153.4076 130.5,-153.4076"/>
<text text-anchor="start" x="150.5" y="-160.5076" font-family="Helvetica,sans-Serif" font-size="11.00" fill="#000000">siape</text>
<polygon fill="none" stroke="#000000" points="209.5,-153.4076 209.5,-175.4076 293.5,-175.4076 293.5,-153.4076 209.5,-153.4076"/>
<text text-anchor="start" x="212.5" y="-161.1076" font-family="Helvetica,sans-Serif" font-size="11.00" fill="#000000">varchar[255]</text>
<polygon fill="none" stroke="#000000" points="130.5,-131.4076 130.5,-153.4076 209.5,-153.4076 209.5,-131.4076 130.5,-131.4076"/>
<text text-anchor="start" x="150.5" y="-138.5076" font-family="Helvetica,sans-Serif" font-size="11.00" fill="#000000">situacao</text>
<polygon fill="none" stroke="#000000" points="209.5,-131.4076 209.5,-153.4076 293.5,-153.4076 293.5,-131.4076 209.5,-131.4076"/>
<text text-anchor="start" x="212.5" y="-139.1076" font-family="Helvetica,sans-Serif" font-size="11.00" fill="#000000">varchar[255]</text>
<polygon fill="none" stroke="#000000" points="130.5,-109.4076 130.5,-131.4076 209.5,-131.4076 209.5,-109.4076 130.5,-109.4076"/>
<text text-anchor="start" x="150.5" y="-116.5076" font-family="Helvetica,sans-Serif" font-size="11.00" fill="#000000">role</text>
<polygon fill="none" stroke="#000000" points="209.5,-109.4076 209.5,-131.4076 293.5,-131.4076 293.5,-109.4076 209.5,-109.4076"/>
<text text-anchor="start" x="212.5" y="-117.1076" font-family="Helvetica,sans-Serif" font-size="11.00" fill="#000000">varchar[255]</text>
<polygon fill="none" stroke="#000000" points="130.5,-87.4076 130.5,-109.4076 209.5,-109.4076 209.5,-87.4076 130.5,-87.4076"/>
<image xlink:href="../../images/foreignKeys.png" width="11px" height="12px" preserveAspectRatio="xMinYMin meet" x="135.5" y="-104.408"/>
<text text-anchor="start" x="150.5" y="-94.5076" font-family="Helvetica,sans-Serif" font-size="11.00" fill="#000000">id_curso</text>
<polygon fill="none" stroke="#000000" points="209.5,-87.4076 209.5,-109.4076 293.5,-109.4076 293.5,-87.4076 209.5,-87.4076"/>
<text text-anchor="start" x="212.5" y="-95.1076" font-family="Helvetica,sans-Serif" font-size="11.00" fill="#000000">int4[10]</text>
<polygon fill="#ffffff" stroke="transparent" points="130.5,-68.4076 130.5,-87.4076 174.5,-87.4076 174.5,-68.4076 130.5,-68.4076"/>
<polygon fill="none" stroke="#000000" points="130.5,-68.4076 130.5,-87.4076 174.5,-87.4076 174.5,-68.4076 130.5,-68.4076"/>
<text text-anchor="start" x="133.5" y="-74.5076" font-family="Helvetica,sans-Serif" font-size="11.00" fill="#000000">&lt; 1</text>
<polygon fill="#ffffff" stroke="transparent" points="174.5,-68.4076 174.5,-87.4076 209.5,-87.4076 209.5,-68.4076 174.5,-68.4076"/>
<polygon fill="none" stroke="#000000" points="174.5,-68.4076 174.5,-87.4076 209.5,-87.4076 209.5,-68.4076 174.5,-68.4076"/>
<text text-anchor="start" x="200.3862" y="-74.5076" font-family="Helvetica,sans-Serif" font-size="11.00" fill="#000000"> &#160;</text>
<polygon fill="#ffffff" stroke="transparent" points="209.5,-68.4076 209.5,-87.4076 293.5,-87.4076 293.5,-68.4076 209.5,-68.4076"/>
<polygon fill="none" stroke="#000000" points="209.5,-68.4076 209.5,-87.4076 293.5,-87.4076 293.5,-68.4076 209.5,-68.4076"/>
<text text-anchor="start" x="274.9053" y="-74.5076" font-family="Helvetica,sans-Serif" font-size="11.00" fill="#000000">6 &gt;</text>
<polygon fill="none" stroke="#000000" stroke-width="2" points="129,-67.4076 129,-353.4076 294,-353.4076 294,-67.4076 129,-67.4076"/>
</a>
</g>
</g>
<!-- encontro&#45;&gt;usuario -->
<g id="edge4" class="edge">
<title>encontro:w&#45;&gt;usuario:e</title>
<path fill="none" stroke="#000000" d="M470.8428,-201.0251C429.044,-198.0796 375.9502,-200.9019 336,-225.4076 304.651,-244.6373 330.2769,-296.4076 293.5,-296.4076"/>
<polygon fill="#000000" stroke="#000000" points="477.432,-201.6072 485.084,-205.8975 481.4164,-201.9593 485.4009,-202.3114 485.4009,-202.3114 485.4009,-202.3114 481.4164,-201.9593 485.7178,-198.7254 477.432,-201.6072 477.432,-201.6072"/>
<ellipse fill="none" stroke="#000000" cx="474.2444" cy="-201.3256" rx="3.2" ry="3.2"/>
</g>
<!-- grupo&#45;&gt;usuario -->
<g id="edge6" class="edge">
<title>grupo:w&#45;&gt;usuario:e</title>
<path fill="none" stroke="#000000" d="M333.786,-368.1473C314.8736,-333.9816 328.4663,-296.4076 293.5,-296.4076"/>
<polygon fill="#000000" stroke="#000000" points="337.4267,-373.434 338.9991,-382.0646 339.6954,-376.7284 341.9641,-380.0228 341.9641,-380.0228 341.9641,-380.0228 339.6954,-376.7284 344.929,-377.9809 337.4267,-373.434 337.4267,-373.434"/>
<ellipse fill="none" stroke="#000000" cx="335.6117" cy="-370.7984" rx="3.2" ry="3.2"/>
</g>
<!-- curso -->
<g id="node6" class="node">
<title>curso</title>
<g id="a_node6"><a xlink:href="../../tables/curso.html" xlink:title="curso" target="_top">
<polygon fill="#ffffff" stroke="transparent" points="8,-67.9076 8,-128.9076 79,-128.9076 79,-67.9076 8,-67.9076"/>
<polygon fill="#f5f5f5" stroke="transparent" points="8.5,-105.4076 8.5,-128.4076 79.5,-128.4076 79.5,-105.4076 8.5,-105.4076"/>
<polygon fill="none" stroke="#000000" points="8.5,-105.4076 8.5,-128.4076 79.5,-128.4076 79.5,-105.4076 8.5,-105.4076"/>
<text text-anchor="start" x="13.5" y="-114.0076" font-family="Helvetica,sans-Serif" font-weight="bold" font-size="11.00" fill="#000000">curso</text>
<text text-anchor="start" x="45.0219" y="-113.5076" font-family="Helvetica,sans-Serif" font-size="11.00" fill="#000000">[table]</text>
<polygon fill="none" stroke="#000000" points="8.5,-86.4076 8.5,-105.4076 79.5,-105.4076 79.5,-86.4076 8.5,-86.4076"/>
<text text-anchor="start" x="11.5" y="-92.5076" font-family="Helvetica,sans-Serif" font-size="11.00" fill="#000000">...</text>
<polygon fill="#ffffff" stroke="transparent" points="8.5,-67.4076 8.5,-86.4076 33.5,-86.4076 33.5,-67.4076 8.5,-67.4076"/>
<polygon fill="none" stroke="#000000" points="8.5,-67.4076 8.5,-86.4076 33.5,-86.4076 33.5,-67.4076 8.5,-67.4076"/>
<text text-anchor="start" x="11.5" y="-73.5076" font-family="Helvetica,sans-Serif" font-size="11.00" fill="#000000"> &#160;</text>
<polygon fill="#ffffff" stroke="transparent" points="33.5,-67.4076 33.5,-86.4076 51.5,-86.4076 51.5,-67.4076 33.5,-67.4076"/>
<polygon fill="none" stroke="#000000" points="33.5,-67.4076 33.5,-86.4076 51.5,-86.4076 51.5,-67.4076 33.5,-67.4076"/>
<text text-anchor="start" x="42.3862" y="-73.5076" font-family="Helvetica,sans-Serif" font-size="11.00" fill="#000000"> &#160;</text>
<polygon fill="#ffffff" stroke="transparent" points="51.5,-67.4076 51.5,-86.4076 79.5,-86.4076 79.5,-67.4076 51.5,-67.4076"/>
<polygon fill="none" stroke="#000000" points="51.5,-67.4076 51.5,-86.4076 79.5,-86.4076 79.5,-67.4076 51.5,-67.4076"/>
<text text-anchor="start" x="60.9053" y="-73.5076" font-family="Helvetica,sans-Serif" font-size="11.00" fill="#000000">3 &gt;</text>
</a>
</g>
</g>
<!-- grupo&#45;&gt;curso -->
<g id="edge5" class="edge">
<title>grupo:w&#45;&gt;curso:e</title>
<path fill="none" stroke="#000000" d="M327.2859,-419.8651C267.6288,-422.0369 176.2291,-415.5728 120,-364.4076 85.7031,-333.1994 59.6388,-197.8597 48.8874,-133.1372"/>
<polygon fill="#000000" stroke="#000000" points="333.7381,-419.5452 341.9066,-422.7444 337.7332,-419.347 341.7283,-419.1489 341.7283,-419.1489 341.7283,-419.1489 337.7332,-419.347 341.5499,-415.5533 333.7381,-419.5452 333.7381,-419.5452"/>
<ellipse fill="none" stroke="#000000" cx="330.542" cy="-419.7037" rx="3.2" ry="3.2"/>
</g>
<!-- turma&#45;&gt;usuario -->
<g id="edge9" class="edge">
<title>turma:w&#45;&gt;usuario:e</title>
<path fill="none" stroke="#000000" d="M336.9485,-203.1517C313.4335,-248.071 335.8701,-296.4076 293.5,-296.4076"/>
<polygon fill="#000000" stroke="#000000" points="340.3932,-197.6894 347.7056,-192.8429 342.5268,-194.306 344.6605,-190.9226 344.6605,-190.9226 344.6605,-190.9226 342.5268,-194.306 341.6155,-189.0023 340.3932,-197.6894 340.3932,-197.6894"/>
<ellipse fill="none" stroke="#000000" cx="338.6862" cy="-200.3961" rx="3.2" ry="3.2"/>
</g>
<!-- turma&#45;&gt;curso -->
<g id="edge8" class="edge">
<title>turma:w&#45;&gt;curso:e</title>
<path fill="none" stroke="#000000" d="M360.5112,-109.6157C346.5135,-88.9442 327.0734,-66.7838 303,-55.4076 229.4641,-20.6574 198.6819,-34.8099 120,-55.4076 108.7985,-58.34 97.5055,-63.3211 87.1627,-68.876"/>
<polygon fill="#000000" stroke="#000000" points="364.0142,-115.1073 365.2815,-123.788 366.1654,-118.4796 368.3166,-121.8519 368.3166,-121.8519 368.3166,-121.8519 366.1654,-118.4796 371.3516,-119.9159 364.0142,-115.1073 364.0142,-115.1073"/>
<ellipse fill="none" stroke="#000000" cx="362.2933" cy="-112.4095" rx="3.2" ry="3.2"/>
</g>
<!-- usuario&#45;&gt;curso -->
<g id="edge10" class="edge">
<title>usuario:w&#45;&gt;curso:e</title>
<path fill="none" stroke="#000000" d="M116.0169,-98.4076C106.3281,-98.4076 96.4886,-98.4076 87.3129,-98.4076"/>
<polygon fill="#000000" stroke="#000000" points="122.5,-98.4077 130.5,-102.0076 126.5,-98.4077 130.5,-98.4076 130.5,-98.4076 130.5,-98.4076 126.5,-98.4077 130.5,-94.8076 122.5,-98.4077 122.5,-98.4077"/>
<ellipse fill="none" stroke="#000000" cx="119.3" cy="-98.4077" rx="3.2" ry="3.2"/>
</g>
<!-- token -->
<g id="node7" class="node">
<title>token</title>
<g id="a_node7"><a xlink:href="../../tables/token.html" xlink:title="token" target="_top">
<polygon fill="#ffffff" stroke="transparent" points="344,-235.9076 344,-362.9076 428,-362.9076 428,-235.9076 344,-235.9076"/>
<polygon fill="#f5f5f5" stroke="transparent" points="344,-339.4076 344,-362.4076 428,-362.4076 428,-339.4076 344,-339.4076"/>
<polygon fill="none" stroke="#000000" points="344,-339.4076 344,-362.4076 428,-362.4076 428,-339.4076 344,-339.4076"/>
<text text-anchor="start" x="349" y="-348.0076" font-family="Helvetica,sans-Serif" font-weight="bold" font-size="11.00" fill="#000000">token</text>
<text text-anchor="start" x="393.0437" y="-347.5076" font-family="Helvetica,sans-Serif" font-size="11.00" fill="#000000">[table]</text>
<polygon fill="none" stroke="#000000" points="344,-317.4076 344,-339.4076 428,-339.4076 428,-317.4076 344,-317.4076"/>
<image xlink:href="../../images/primaryKeys.png" width="11px" height="12px" preserveAspectRatio="xMinYMin meet" x="349" y="-334.408"/>
<text text-anchor="start" x="364" y="-324.5076" font-family="Helvetica,sans-Serif" font-size="11.00" fill="#000000">id</text>
<polygon fill="#ffffff" stroke="transparent" points="344,-295.4076 344,-317.4076 428,-317.4076 428,-295.4076 344,-295.4076"/>
<polygon fill="none" stroke="#000000" points="344,-295.4076 344,-317.4076 428,-317.4076 428,-295.4076 344,-295.4076"/>
<text text-anchor="start" x="364" y="-302.5076" font-family="Helvetica,sans-Serif" font-size="11.00" fill="#000000">token</text>
<polygon fill="none" stroke="#000000" points="344,-273.4076 344,-295.4076 428,-295.4076 428,-273.4076 344,-273.4076"/>
<image xlink:href="../../images/foreignKeys.png" width="11px" height="12px" preserveAspectRatio="xMinYMin meet" x="349" y="-290.408"/>
<text text-anchor="start" x="364" y="-280.5076" font-family="Helvetica,sans-Serif" font-size="11.00" fill="#000000">id_usuario</text>
<polygon fill="none" stroke="#000000" points="344,-254.4076 344,-273.4076 428,-273.4076 428,-254.4076 344,-254.4076"/>
<text text-anchor="start" x="347" y="-260.5076" font-family="Helvetica,sans-Serif" font-size="11.00" fill="#000000">...</text>
<polygon fill="#ffffff" stroke="transparent" points="344,-235.4076 344,-254.4076 384,-254.4076 384,-235.4076 344,-235.4076"/>
<polygon fill="none" stroke="#000000" points="344,-235.4076 344,-254.4076 384,-254.4076 384,-235.4076 344,-235.4076"/>
<text text-anchor="start" x="347" y="-241.5076" font-family="Helvetica,sans-Serif" font-size="11.00" fill="#000000">&lt; 1</text>
<polygon fill="#ffffff" stroke="transparent" points="384,-235.4076 384,-254.4076 406,-254.4076 406,-235.4076 384,-235.4076"/>
<polygon fill="none" stroke="#000000" points="384,-235.4076 384,-254.4076 406,-254.4076 406,-235.4076 384,-235.4076"/>
<text text-anchor="start" x="396.8862" y="-241.5076" font-family="Helvetica,sans-Serif" font-size="11.00" fill="#000000"> &#160;</text>
<polygon fill="#ffffff" stroke="transparent" points="406,-235.4076 406,-254.4076 428,-254.4076 428,-235.4076 406,-235.4076"/>
<polygon fill="none" stroke="#000000" points="406,-235.4076 406,-254.4076 428,-254.4076 428,-235.4076 406,-235.4076"/>
<text text-anchor="start" x="418.8862" y="-241.5076" font-family="Helvetica,sans-Serif" font-size="11.00" fill="#000000"> &#160;</text>
</a>
</g>
</g>
<!-- token&#45;&gt;usuario -->
<g id="edge7" class="edge">
<title>token:w&#45;&gt;usuario:e</title>
<path fill="none" stroke="#000000" d="M329.6211,-286.2826C317.5807,-289.6576 310.8021,-296.4076 293.5,-296.4076"/>
<polygon fill="#000000" stroke="#000000" points="336.0672,-285.4421 344.4655,-287.9774 340.0336,-284.9249 344,-284.4076 344,-284.4076 344,-284.4076 340.0336,-284.9249 343.5345,-280.8379 336.0672,-285.4421 336.0672,-285.4421"/>
<ellipse fill="none" stroke="#000000" cx="332.894" cy="-285.8559" rx="3.2" ry="3.2"/>
</g>
<!-- usuario_grupo -->
<g id="node8" class="node">
<title>usuario_grupo</title>
<g id="a_node8"><a xlink:href="../../tables/usuario_grupo.html" xlink:title="usuario_grupo" target="_top">
<polygon fill="#ffffff" stroke="transparent" points="477,-410.9076 477,-471.9076 600,-471.9076 600,-410.9076 477,-410.9076"/>
<polygon fill="#f5f5f5" stroke="transparent" points="477.5,-448.4076 477.5,-471.4076 600.5,-471.4076 600.5,-448.4076 477.5,-448.4076"/>
<polygon fill="none" stroke="#000000" points="477.5,-448.4076 477.5,-471.4076 600.5,-471.4076 600.5,-448.4076 477.5,-448.4076"/>
<text text-anchor="start" x="482.5" y="-457.0076" font-family="Helvetica,sans-Serif" font-weight="bold" font-size="11.00" fill="#000000">usuario_grupo</text>
<text text-anchor="start" x="566.0219" y="-456.5076" font-family="Helvetica,sans-Serif" font-size="11.00" fill="#000000">[table]</text>
<polygon fill="none" stroke="#000000" points="477.5,-429.4076 477.5,-448.4076 600.5,-448.4076 600.5,-429.4076 477.5,-429.4076"/>
<text text-anchor="start" x="480.5" y="-435.5076" font-family="Helvetica,sans-Serif" font-size="11.00" fill="#000000">...</text>
<polygon fill="#ffffff" stroke="transparent" points="477.5,-410.4076 477.5,-429.4076 537.5,-429.4076 537.5,-410.4076 477.5,-410.4076"/>
<polygon fill="none" stroke="#000000" points="477.5,-410.4076 477.5,-429.4076 537.5,-429.4076 537.5,-410.4076 477.5,-410.4076"/>
<text text-anchor="start" x="480.5" y="-416.5076" font-family="Helvetica,sans-Serif" font-size="11.00" fill="#000000">&lt; 2</text>
<polygon fill="#ffffff" stroke="transparent" points="537.5,-410.4076 537.5,-429.4076 568.5,-429.4076 568.5,-410.4076 537.5,-410.4076"/>
<polygon fill="none" stroke="#000000" points="537.5,-410.4076 537.5,-429.4076 568.5,-429.4076 568.5,-410.4076 537.5,-410.4076"/>
<text text-anchor="start" x="559.3862" y="-416.5076" font-family="Helvetica,sans-Serif" font-size="11.00" fill="#000000"> &#160;</text>
<polygon fill="#ffffff" stroke="transparent" points="568.5,-410.4076 568.5,-429.4076 600.5,-429.4076 600.5,-410.4076 568.5,-410.4076"/>
<polygon fill="none" stroke="#000000" points="568.5,-410.4076 568.5,-429.4076 600.5,-429.4076 600.5,-410.4076 568.5,-410.4076"/>
<text text-anchor="start" x="591.3862" y="-416.5076" font-family="Helvetica,sans-Serif" font-size="11.00" fill="#000000"> &#160;</text>
</a>
</g>
</g>
<!-- usuario_grupo&#45;&gt;grupo -->
<g id="edge11" class="edge">
<title>usuario_grupo:w&#45;&gt;grupo:e</title>
<path fill="none" stroke="#000000" d="M454.6854,-426.5683C446.239,-425.0729 437.9176,-423.5996 430.1413,-422.2228"/>
<polygon fill="#000000" stroke="#000000" points="461.0665,-427.698 468.3164,-432.6377 465.0052,-428.3954 468.944,-429.0928 468.944,-429.0928 468.944,-429.0928 465.0052,-428.3954 469.5716,-425.5479 461.0665,-427.698 461.0665,-427.698"/>
<ellipse fill="none" stroke="#000000" cx="457.9155" cy="-427.1401" rx="3.2" ry="3.2"/>
</g>
<!-- usuario_grupo&#45;&gt;usuario -->
<g id="edge12" class="edge">
<title>usuario_grupo:w&#45;&gt;usuario:e</title>
<path fill="none" stroke="#000000" d="M454.8787,-471.1496C415.1347,-479.723 369.1819,-480.8851 336,-455.4076 277.9817,-410.8605 366.6476,-296.4076 293.5,-296.4076"/>
<polygon fill="#000000" stroke="#000000" points="461.1479,-469.6393 469.7686,-471.2655 465.0366,-468.7025 468.9254,-467.7656 468.9254,-467.7656 468.9254,-467.7656 465.0366,-468.7025 468.0822,-464.2657 461.1479,-469.6393 461.1479,-469.6393"/>
<ellipse fill="none" stroke="#000000" cx="458.0369" cy="-470.3888" rx="3.2" ry="3.2"/>
</g>
<!-- usuario_turma -->
<g id="node9" class="node">
<title>usuario_turma</title>
<g id="a_node9"><a xlink:href="../../tables/usuario_turma.html" xlink:title="usuario_turma" target="_top">
<polygon fill="#ffffff" stroke="transparent" points="477.5,-84.9076 477.5,-145.9076 599.5,-145.9076 599.5,-84.9076 477.5,-84.9076"/>
<polygon fill="#f5f5f5" stroke="transparent" points="477.5,-122.4076 477.5,-145.4076 599.5,-145.4076 599.5,-122.4076 477.5,-122.4076"/>
<polygon fill="none" stroke="#000000" points="477.5,-122.4076 477.5,-145.4076 599.5,-145.4076 599.5,-122.4076 477.5,-122.4076"/>
<text text-anchor="start" x="482.5" y="-131.0076" font-family="Helvetica,sans-Serif" font-weight="bold" font-size="11.00" fill="#000000">usuario_turma</text>
<text text-anchor="start" x="565.0219" y="-130.5076" font-family="Helvetica,sans-Serif" font-size="11.00" fill="#000000">[table]</text>
<polygon fill="none" stroke="#000000" points="477.5,-103.4076 477.5,-122.4076 599.5,-122.4076 599.5,-103.4076 477.5,-103.4076"/>
<text text-anchor="start" x="480.5" y="-109.5076" font-family="Helvetica,sans-Serif" font-size="11.00" fill="#000000">...</text>
<polygon fill="#ffffff" stroke="transparent" points="477.5,-84.4076 477.5,-103.4076 536.5,-103.4076 536.5,-84.4076 477.5,-84.4076"/>
<polygon fill="none" stroke="#000000" points="477.5,-84.4076 477.5,-103.4076 536.5,-103.4076 536.5,-84.4076 477.5,-84.4076"/>
<text text-anchor="start" x="480.5" y="-90.5076" font-family="Helvetica,sans-Serif" font-size="11.00" fill="#000000">&lt; 2</text>
<polygon fill="#ffffff" stroke="transparent" points="536.5,-84.4076 536.5,-103.4076 567.5,-103.4076 567.5,-84.4076 536.5,-84.4076"/>
<polygon fill="none" stroke="#000000" points="536.5,-84.4076 536.5,-103.4076 567.5,-103.4076 567.5,-84.4076 536.5,-84.4076"/>
<text text-anchor="start" x="558.3862" y="-90.5076" font-family="Helvetica,sans-Serif" font-size="11.00" fill="#000000"> &#160;</text>
<polygon fill="#ffffff" stroke="transparent" points="567.5,-84.4076 567.5,-103.4076 599.5,-103.4076 599.5,-84.4076 567.5,-84.4076"/>
<polygon fill="none" stroke="#000000" points="567.5,-84.4076 567.5,-103.4076 599.5,-103.4076 599.5,-84.4076 567.5,-84.4076"/>
<text text-anchor="start" x="590.3862" y="-90.5076" font-family="Helvetica,sans-Serif" font-size="11.00" fill="#000000"> &#160;</text>
</a>
</g>
</g>
<!-- usuario_turma&#45;&gt;turma -->
<g id="edge13" class="edge">
<title>usuario_turma:w&#45;&gt;turma:e</title>
<path fill="none" stroke="#000000" d="M455.3882,-137.7524C446.8005,-140.0613 438.3298,-142.3386 430.4167,-144.4661"/>
<polygon fill="#000000" stroke="#000000" points="461.6635,-136.0654 470.3238,-137.4648 465.5263,-135.0268 469.3891,-133.9883 469.3891,-133.9883 469.3891,-133.9883 465.5263,-135.0268 468.4544,-130.5117 461.6635,-136.0654 461.6635,-136.0654"/>
<ellipse fill="none" stroke="#000000" cx="458.5732" cy="-136.8962" rx="3.2" ry="3.2"/>
</g>
<!-- usuario_turma&#45;&gt;usuario -->
<g id="edge14" class="edge">
<title>usuario_turma:w&#45;&gt;usuario:e</title>
<path fill="none" stroke="#000000" d="M454.6589,-93.0702C414.7728,-87.6016 368.7618,-89.4475 336,-115.4076 271.2353,-166.7266 376.1323,-296.4076 293.5,-296.4076"/>
<polygon fill="#000000" stroke="#000000" points="461.1424,-94.1136 468.4687,-98.9391 465.0915,-94.7492 469.0407,-95.3848 469.0407,-95.3848 469.0407,-95.3848 465.0915,-94.7492 469.6128,-91.8306 461.1424,-94.1136 461.1424,-94.1136"/>
<ellipse fill="none" stroke="#000000" cx="457.983" cy="-93.6052" rx="3.2" ry="3.2"/>
</g>
</g>
</svg>
