<?xml version="1.0" encoding="UTF-8" standalone="no"?>
<!DOCTYPE svg PUBLIC "-//W3C//DTD SVG 1.1//EN"
 "http://www.w3.org/Graphics/SVG/1.1/DTD/svg11.dtd">
<!-- Generated by graphviz version 2.40.1 (20161225.0304)
 -->
<!-- Title: oneDegreeRelationshipsDiagram Pages: 1 -->
<svg width="701pt" height="722pt"
 viewBox="0.00 0.00 701.00 721.56" xmlns="http://www.w3.org/2000/svg" xmlns:xlink="http://www.w3.org/1999/xlink">
<g id="graph0" class="graph" transform="scale(1 1) rotate(0) translate(4 717.5594)">
<title>oneDegreeRelationshipsDiagram</title>
<polygon fill="#ffffff" stroke="transparent" points="-4,4 -4,-717.5594 697,-717.5594 697,4 -4,4"/>
<text text-anchor="middle" x="72.4936" y="-7.3" font-family="Helvetica,sans-Serif" font-size="11.00" fill="#000000">Generated by SchemaSpy</text>
<!-- grupos -->
<g id="node1" class="node">
<title>grupos</title>
<g id="a_node1"><a xlink:href="../../tables/grupos.html" xlink:title="grupos" target="_top">
<polygon fill="#ffffff" stroke="transparent" points="408,-560.5594 408,-709.5594 513,-709.5594 513,-560.5594 408,-560.5594"/>
<polygon fill="#f5f5f5" stroke="transparent" points="408.5,-686.0594 408.5,-709.0594 513.5,-709.0594 513.5,-686.0594 408.5,-686.0594"/>
<polygon fill="none" stroke="#000000" points="408.5,-686.0594 408.5,-709.0594 513.5,-709.0594 513.5,-686.0594 408.5,-686.0594"/>
<text text-anchor="start" x="413.5" y="-694.6594" font-family="Helvetica,sans-Serif" font-weight="bold" font-size="11.00" fill="#000000">grupos</text>
<text text-anchor="start" x="478.5437" y="-694.1594" font-family="Helvetica,sans-Serif" font-size="11.00" fill="#000000">[table]</text>
<polygon fill="none" stroke="#000000" points="408.5,-664.0594 408.5,-686.0594 513.5,-686.0594 513.5,-664.0594 408.5,-664.0594"/>
<image xlink:href="../../images/primaryKeys.png" width="11px" height="12px" preserveAspectRatio="xMinYMin meet" x="413.5" y="-681.059"/>
<text text-anchor="start" x="428.5" y="-671.1594" font-family="Helvetica,sans-Serif" font-size="11.00" fill="#000000">id</text>
<polygon fill="none" stroke="#000000" points="408.5,-642.0594 408.5,-664.0594 513.5,-664.0594 513.5,-642.0594 408.5,-642.0594"/>
<image xlink:href="../../images/foreignKeys.png" width="11px" height="12px" preserveAspectRatio="xMinYMin meet" x="413.5" y="-659.059"/>
<text text-anchor="start" x="428.5" y="-649.1594" font-family="Helvetica,sans-Serif" font-size="11.00" fill="#000000">id_curso</text>
<polygon fill="none" stroke="#000000" points="408.5,-620.0594 408.5,-642.0594 513.5,-642.0594 513.5,-620.0594 408.5,-620.0594"/>
<image xlink:href="../../images/foreignKeys.png" width="11px" height="12px" preserveAspectRatio="xMinYMin meet" x="413.5" y="-637.059"/>
<text text-anchor="start" x="428.5" y="-627.1594" font-family="Helvetica,sans-Serif" font-size="11.00" fill="#000000">id_user</text>
<polygon fill="#ffffff" stroke="transparent" points="408.5,-598.0594 408.5,-620.0594 513.5,-620.0594 513.5,-598.0594 408.5,-598.0594"/>
<polygon fill="none" stroke="#000000" points="408.5,-598.0594 408.5,-620.0594 513.5,-620.0594 513.5,-598.0594 408.5,-598.0594"/>
<text text-anchor="start" x="428.5" y="-605.1594" font-family="Helvetica,sans-Serif" font-size="11.00" fill="#000000">nome</text>
<polygon fill="none" stroke="#000000" points="408.5,-579.0594 408.5,-598.0594 513.5,-598.0594 513.5,-579.0594 408.5,-579.0594"/>
<text text-anchor="start" x="411.5" y="-585.1594" font-family="Helvetica,sans-Serif" font-size="11.00" fill="#000000">...</text>
<polygon fill="#ffffff" stroke="transparent" points="408.5,-560.0594 408.5,-579.0594 454.5,-579.0594 454.5,-560.0594 408.5,-560.0594"/>
<polygon fill="none" stroke="#000000" points="408.5,-560.0594 408.5,-579.0594 454.5,-579.0594 454.5,-560.0594 408.5,-560.0594"/>
<text text-anchor="start" x="411.5" y="-566.1594" font-family="Helvetica,sans-Serif" font-size="11.00" fill="#000000">&lt; 2</text>
<polygon fill="#ffffff" stroke="transparent" points="454.5,-560.0594 454.5,-579.0594 479.5,-579.0594 479.5,-560.0594 454.5,-560.0594"/>
<polygon fill="none" stroke="#000000" points="454.5,-560.0594 454.5,-579.0594 479.5,-579.0594 479.5,-560.0594 454.5,-560.0594"/>
<text text-anchor="start" x="470.3862" y="-566.1594" font-family="Helvetica,sans-Serif" font-size="11.00" fill="#000000"> &#160;</text>
<polygon fill="#ffffff" stroke="transparent" points="479.5,-560.0594 479.5,-579.0594 513.5,-579.0594 513.5,-560.0594 479.5,-560.0594"/>
<polygon fill="none" stroke="#000000" points="479.5,-560.0594 479.5,-579.0594 513.5,-579.0594 513.5,-560.0594 479.5,-560.0594"/>
<text text-anchor="start" x="494.9053" y="-566.1594" font-family="Helvetica,sans-Serif" font-size="11.00" fill="#000000">2 &gt;</text>
</a>
</g>
</g>
<!-- cursos -->
<g id="node2" class="node">
<title>cursos</title>
<g id="a_node2"><a xlink:href="../../tables/cursos.html" xlink:title="cursos" target="_top">
<polygon fill="#ffffff" stroke="transparent" points="8,-351.5594 8,-434.5594 95,-434.5594 95,-351.5594 8,-351.5594"/>
<polygon fill="#f5f5f5" stroke="transparent" points="8.5,-411.0594 8.5,-434.0594 95.5,-434.0594 95.5,-411.0594 8.5,-411.0594"/>
<polygon fill="none" stroke="#000000" points="8.5,-411.0594 8.5,-434.0594 95.5,-434.0594 95.5,-411.0594 8.5,-411.0594"/>
<text text-anchor="start" x="13.5" y="-419.6594" font-family="Helvetica,sans-Serif" font-weight="bold" font-size="11.00" fill="#000000">cursos</text>
<text text-anchor="start" x="60.5437" y="-419.1594" font-family="Helvetica,sans-Serif" font-size="11.00" fill="#000000">[table]</text>
<polygon fill="none" stroke="#000000" points="8.5,-389.0594 8.5,-411.0594 95.5,-411.0594 95.5,-389.0594 8.5,-389.0594"/>
<image xlink:href="../../images/primaryKeys.png" width="11px" height="12px" preserveAspectRatio="xMinYMin meet" x="13.5" y="-406.059"/>
<text text-anchor="start" x="28.5" y="-396.1594" font-family="Helvetica,sans-Serif" font-size="11.00" fill="#000000">id</text>
<polygon fill="none" stroke="#000000" points="8.5,-370.0594 8.5,-389.0594 95.5,-389.0594 95.5,-370.0594 8.5,-370.0594"/>
<text text-anchor="start" x="11.5" y="-376.1594" font-family="Helvetica,sans-Serif" font-size="11.00" fill="#000000">...</text>
<polygon fill="#ffffff" stroke="transparent" points="8.5,-351.0594 8.5,-370.0594 41.5,-370.0594 41.5,-351.0594 8.5,-351.0594"/>
<polygon fill="none" stroke="#000000" points="8.5,-351.0594 8.5,-370.0594 41.5,-370.0594 41.5,-351.0594 8.5,-351.0594"/>
<text text-anchor="start" x="11.5" y="-357.1594" font-family="Helvetica,sans-Serif" font-size="11.00" fill="#000000"> &#160;</text>
<polygon fill="#ffffff" stroke="transparent" points="41.5,-351.0594 41.5,-370.0594 63.5,-370.0594 63.5,-351.0594 41.5,-351.0594"/>
<polygon fill="none" stroke="#000000" points="41.5,-351.0594 41.5,-370.0594 63.5,-370.0594 63.5,-351.0594 41.5,-351.0594"/>
<text text-anchor="start" x="54.3862" y="-357.1594" font-family="Helvetica,sans-Serif" font-size="11.00" fill="#000000"> &#160;</text>
<polygon fill="#ffffff" stroke="transparent" points="63.5,-351.0594 63.5,-370.0594 95.5,-370.0594 95.5,-351.0594 63.5,-351.0594"/>
<polygon fill="none" stroke="#000000" points="63.5,-351.0594 63.5,-370.0594 95.5,-370.0594 95.5,-351.0594 63.5,-351.0594"/>
<text text-anchor="start" x="76.9053" y="-357.1594" font-family="Helvetica,sans-Serif" font-size="11.00" fill="#000000">3 &gt;</text>
</a>
</g>
</g>
<!-- grupos&#45;&gt;cursos -->
<g id="edge1" class="edge">
<title>grupos:w&#45;&gt;cursos:e</title>
<path fill="none" stroke="#000000" d="M393.9275,-652.7898C260.4778,-647.7305 232.6017,-571.9609 136,-469.0594 111.6621,-443.1343 131.059,-400.0594 95.5,-400.0594"/>
<polygon fill="#000000" stroke="#000000" points="400.5014,-652.9114 408.4334,-656.6587 404.5007,-652.9854 408.5,-653.0594 408.5,-653.0594 408.5,-653.0594 404.5007,-652.9854 408.5666,-649.46 400.5014,-652.9114 400.5014,-652.9114"/>
<ellipse fill="none" stroke="#000000" cx="397.3019" cy="-652.8522" rx="3.2" ry="3.2"/>
</g>
<!-- usuarios -->
<g id="node3" class="node">
<title>usuarios</title>
<g id="a_node3"><a xlink:href="../../tables/usuarios.html" xlink:title="usuarios" target="_top">
<polygon fill="#ffffff" stroke="transparent" points="144,-148.0594 144,-458.0594 359,-458.0594 359,-148.0594 144,-148.0594"/>
<polygon fill="#f5f5f5" stroke="transparent" points="146.5,-433.0594 146.5,-456.0594 357.5,-456.0594 357.5,-433.0594 146.5,-433.0594"/>
<polygon fill="none" stroke="#000000" points="146.5,-433.0594 146.5,-456.0594 357.5,-456.0594 357.5,-433.0594 146.5,-433.0594"/>
<text text-anchor="start" x="151.5" y="-441.6594" font-family="Helvetica,sans-Serif" font-weight="bold" font-size="11.00" fill="#000000">usuarios</text>
<text text-anchor="start" x="322.5437" y="-441.1594" font-family="Helvetica,sans-Serif" font-size="11.00" fill="#000000">[table]</text>
<polygon fill="none" stroke="#000000" points="146.5,-411.0594 146.5,-433.0594 273.5,-433.0594 273.5,-411.0594 146.5,-411.0594"/>
<image xlink:href="../../images/primaryKeys.png" width="11px" height="12px" preserveAspectRatio="xMinYMin meet" x="151.5" y="-428.059"/>
<text text-anchor="start" x="166.5" y="-418.1594" font-family="Helvetica,sans-Serif" font-size="11.00" fill="#000000">id</text>
<polygon fill="none" stroke="#000000" points="273.5,-411.0594 273.5,-433.0594 357.5,-433.0594 357.5,-411.0594 273.5,-411.0594"/>
<text text-anchor="start" x="276.5" y="-418.7594" font-family="Helvetica,sans-Serif" font-size="11.00" fill="#000000">serial[10]</text>
<polygon fill="none" stroke="#000000" points="146.5,-389.0594 146.5,-411.0594 273.5,-411.0594 273.5,-389.0594 146.5,-389.0594"/>
<image xlink:href="../../images/foreignKeys.png" width="11px" height="12px" preserveAspectRatio="xMinYMin meet" x="151.5" y="-406.059"/>
<text text-anchor="start" x="166.5" y="-396.1594" font-family="Helvetica,sans-Serif" font-size="11.00" fill="#000000">id_curso</text>
<polygon fill="none" stroke="#000000" points="273.5,-389.0594 273.5,-411.0594 357.5,-411.0594 357.5,-389.0594 273.5,-389.0594"/>
<text text-anchor="start" x="276.5" y="-396.7594" font-family="Helvetica,sans-Serif" font-size="11.00" fill="#000000">int4[10]</text>
<polygon fill="none" stroke="#000000" points="146.5,-367.0594 146.5,-389.0594 273.5,-389.0594 273.5,-367.0594 146.5,-367.0594"/>
<text text-anchor="start" x="166.5" y="-374.1594" font-family="Helvetica,sans-Serif" font-size="11.00" fill="#000000">data_nasc</text>
<polygon fill="none" stroke="#000000" points="273.5,-367.0594 273.5,-389.0594 357.5,-389.0594 357.5,-367.0594 273.5,-367.0594"/>
<text text-anchor="start" x="276.3807" y="-374.7594" font-family="Helvetica,sans-Serif" font-size="11.00" fill="#000000">timestamp[29,6]</text>
<polygon fill="none" stroke="#000000" points="146.5,-345.0594 146.5,-367.0594 273.5,-367.0594 273.5,-345.0594 146.5,-345.0594"/>
<text text-anchor="start" x="166.5" y="-352.1594" font-family="Helvetica,sans-Serif" font-size="11.00" fill="#000000">dtype</text>
<polygon fill="none" stroke="#000000" points="273.5,-345.0594 273.5,-367.0594 357.5,-367.0594 357.5,-345.0594 273.5,-345.0594"/>
<text text-anchor="start" x="276.5" y="-352.7594" font-family="Helvetica,sans-Serif" font-size="11.00" fill="#000000">varchar[31]</text>
<polygon fill="#ffffff" stroke="transparent" points="146.5,-323.0594 146.5,-345.0594 273.5,-345.0594 273.5,-323.0594 146.5,-323.0594"/>
<polygon fill="none" stroke="#000000" points="146.5,-323.0594 146.5,-345.0594 273.5,-345.0594 273.5,-323.0594 146.5,-323.0594"/>
<text text-anchor="start" x="166.5" y="-330.1594" font-family="Helvetica,sans-Serif" font-size="11.00" fill="#000000">nome</text>
<polygon fill="none" stroke="#000000" points="273.5,-323.0594 273.5,-345.0594 357.5,-345.0594 357.5,-323.0594 273.5,-323.0594"/>
<text text-anchor="start" x="276.5" y="-330.7594" font-family="Helvetica,sans-Serif" font-size="11.00" fill="#000000">varchar[100]</text>
<polygon fill="#ffffff" stroke="transparent" points="146.5,-301.0594 146.5,-323.0594 273.5,-323.0594 273.5,-301.0594 146.5,-301.0594"/>
<polygon fill="none" stroke="#000000" points="146.5,-301.0594 146.5,-323.0594 273.5,-323.0594 273.5,-301.0594 146.5,-301.0594"/>
<text text-anchor="start" x="166.5" y="-308.1594" font-family="Helvetica,sans-Serif" font-size="11.00" fill="#000000">email</text>
<polygon fill="none" stroke="#000000" points="273.5,-301.0594 273.5,-323.0594 357.5,-323.0594 357.5,-301.0594 273.5,-301.0594"/>
<text text-anchor="start" x="276.5" y="-308.7594" font-family="Helvetica,sans-Serif" font-size="11.00" fill="#000000">varchar[255]</text>
<polygon fill="#ffffff" stroke="transparent" points="146.5,-279.0594 146.5,-301.0594 273.5,-301.0594 273.5,-279.0594 146.5,-279.0594"/>
<polygon fill="none" stroke="#000000" points="146.5,-279.0594 146.5,-301.0594 273.5,-301.0594 273.5,-279.0594 146.5,-279.0594"/>
<text text-anchor="start" x="166.5" y="-286.1594" font-family="Helvetica,sans-Serif" font-size="11.00" fill="#000000">matricula</text>
<polygon fill="none" stroke="#000000" points="273.5,-279.0594 273.5,-301.0594 357.5,-301.0594 357.5,-279.0594 273.5,-279.0594"/>
<text text-anchor="start" x="276.5" y="-286.7594" font-family="Helvetica,sans-Serif" font-size="11.00" fill="#000000">varchar[255]</text>
<polygon fill="none" stroke="#000000" points="146.5,-257.0594 146.5,-279.0594 273.5,-279.0594 273.5,-257.0594 146.5,-257.0594"/>
<text text-anchor="start" x="166.5" y="-264.1594" font-family="Helvetica,sans-Serif" font-size="11.00" fill="#000000">password</text>
<polygon fill="none" stroke="#000000" points="273.5,-257.0594 273.5,-279.0594 357.5,-279.0594 357.5,-257.0594 273.5,-257.0594"/>
<text text-anchor="start" x="276.5" y="-264.7594" font-family="Helvetica,sans-Serif" font-size="11.00" fill="#000000">varchar[255]</text>
<polygon fill="none" stroke="#000000" points="146.5,-235.0594 146.5,-257.0594 273.5,-257.0594 273.5,-235.0594 146.5,-235.0594"/>
<text text-anchor="start" x="166.5" y="-242.1594" font-family="Helvetica,sans-Serif" font-size="11.00" fill="#000000">role</text>
<polygon fill="none" stroke="#000000" points="273.5,-235.0594 273.5,-257.0594 357.5,-257.0594 357.5,-235.0594 273.5,-235.0594"/>
<text text-anchor="start" x="276.5" y="-242.7594" font-family="Helvetica,sans-Serif" font-size="11.00" fill="#000000">varchar[255]</text>
<polygon fill="#ffffff" stroke="transparent" points="146.5,-213.0594 146.5,-235.0594 273.5,-235.0594 273.5,-213.0594 146.5,-213.0594"/>
<polygon fill="none" stroke="#000000" points="146.5,-213.0594 146.5,-235.0594 273.5,-235.0594 273.5,-213.0594 146.5,-213.0594"/>
<text text-anchor="start" x="166.5" y="-220.1594" font-family="Helvetica,sans-Serif" font-size="11.00" fill="#000000">siape</text>
<polygon fill="none" stroke="#000000" points="273.5,-213.0594 273.5,-235.0594 357.5,-235.0594 357.5,-213.0594 273.5,-213.0594"/>
<text text-anchor="start" x="276.5" y="-220.7594" font-family="Helvetica,sans-Serif" font-size="11.00" fill="#000000">varchar[255]</text>
<polygon fill="none" stroke="#000000" points="146.5,-191.0594 146.5,-213.0594 273.5,-213.0594 273.5,-191.0594 146.5,-191.0594"/>
<text text-anchor="start" x="166.5" y="-198.1594" font-family="Helvetica,sans-Serif" font-size="11.00" fill="#000000">situacao</text>
<polygon fill="none" stroke="#000000" points="273.5,-191.0594 273.5,-213.0594 357.5,-213.0594 357.5,-191.0594 273.5,-191.0594"/>
<text text-anchor="start" x="276.5" y="-198.7594" font-family="Helvetica,sans-Serif" font-size="11.00" fill="#000000">varchar[255]</text>
<polygon fill="none" stroke="#000000" points="146.5,-169.0594 146.5,-191.0594 273.5,-191.0594 273.5,-169.0594 146.5,-169.0594"/>
<text text-anchor="start" x="166.5" y="-176.1594" font-family="Helvetica,sans-Serif" font-size="11.00" fill="#000000">foto_perfil_base64</text>
<polygon fill="none" stroke="#000000" points="273.5,-169.0594 273.5,-191.0594 357.5,-191.0594 357.5,-169.0594 273.5,-169.0594"/>
<text text-anchor="start" x="276.5" y="-176.7594" font-family="Helvetica,sans-Serif" font-size="11.00" fill="#000000">oid[10]</text>
<polygon fill="#ffffff" stroke="transparent" points="146.5,-150.0594 146.5,-169.0594 214.5,-169.0594 214.5,-150.0594 146.5,-150.0594"/>
<polygon fill="none" stroke="#000000" points="146.5,-150.0594 146.5,-169.0594 214.5,-169.0594 214.5,-150.0594 146.5,-150.0594"/>
<text text-anchor="start" x="149.5" y="-156.1594" font-family="Helvetica,sans-Serif" font-size="11.00" fill="#000000">&lt; 1</text>
<polygon fill="#ffffff" stroke="transparent" points="214.5,-150.0594 214.5,-169.0594 273.5,-169.0594 273.5,-150.0594 214.5,-150.0594"/>
<polygon fill="none" stroke="#000000" points="214.5,-150.0594 214.5,-169.0594 273.5,-169.0594 273.5,-150.0594 214.5,-150.0594"/>
<text text-anchor="start" x="264.3862" y="-156.1594" font-family="Helvetica,sans-Serif" font-size="11.00" fill="#000000"> &#160;</text>
<polygon fill="#ffffff" stroke="transparent" points="273.5,-150.0594 273.5,-169.0594 357.5,-169.0594 357.5,-150.0594 273.5,-150.0594"/>
<polygon fill="none" stroke="#000000" points="273.5,-150.0594 273.5,-169.0594 357.5,-169.0594 357.5,-150.0594 273.5,-150.0594"/>
<text text-anchor="start" x="338.9053" y="-156.1594" font-family="Helvetica,sans-Serif" font-size="11.00" fill="#000000">6 &gt;</text>
<polygon fill="none" stroke="#000000" stroke-width="2" points="145,-149.0594 145,-457.0594 358,-457.0594 358,-149.0594 145,-149.0594"/>
</a>
</g>
</g>
<!-- grupos&#45;&gt;usuarios -->
<g id="edge2" class="edge">
<title>grupos:w&#45;&gt;usuarios:e</title>
<path fill="none" stroke="#000000" d="M394.027,-628.9908C328.5089,-607.2847 447.512,-422.0594 357.5,-422.0594"/>
<polygon fill="#000000" stroke="#000000" points="400.5805,-629.9274 407.9906,-634.6231 404.5402,-630.4934 408.5,-631.0594 408.5,-631.0594 408.5,-631.0594 404.5402,-630.4934 409.0094,-627.4956 400.5805,-629.9274 400.5805,-629.9274"/>
<ellipse fill="none" stroke="#000000" cx="397.4127" cy="-629.4746" rx="3.2" ry="3.2"/>
</g>
<!-- usuarios&#45;&gt;cursos -->
<g id="edge11" class="edge">
<title>usuarios:w&#45;&gt;cursos:e</title>
<path fill="none" stroke="#000000" d="M131.776,-400.0594C119.7815,-400.0594 112.3229,-400.0594 95.5,-400.0594"/>
<polygon fill="#000000" stroke="#000000" points="138.5,-400.0594 146.5,-403.6594 142.5,-400.0594 146.5,-400.0594 146.5,-400.0594 146.5,-400.0594 142.5,-400.0594 146.5,-396.4594 138.5,-400.0594 138.5,-400.0594"/>
<ellipse fill="none" stroke="#000000" cx="135.3" cy="-400.0594" rx="3.2" ry="3.2"/>
</g>
<!-- mensagens -->
<g id="node4" class="node">
<title>mensagens</title>
<g id="a_node4"><a xlink:href="../../tables/mensagens.html" xlink:title="mensagens" target="_top">
<polygon fill="#ffffff" stroke="transparent" points="408,-412.5594 408,-539.5594 513,-539.5594 513,-412.5594 408,-412.5594"/>
<polygon fill="#f5f5f5" stroke="transparent" points="408.5,-516.0594 408.5,-539.0594 513.5,-539.0594 513.5,-516.0594 408.5,-516.0594"/>
<polygon fill="none" stroke="#000000" points="408.5,-516.0594 408.5,-539.0594 513.5,-539.0594 513.5,-516.0594 408.5,-516.0594"/>
<text text-anchor="start" x="413.5" y="-524.6594" font-family="Helvetica,sans-Serif" font-weight="bold" font-size="11.00" fill="#000000">mensagens</text>
<text text-anchor="start" x="479.0219" y="-524.1594" font-family="Helvetica,sans-Serif" font-size="11.00" fill="#000000">[table]</text>
<polygon fill="none" stroke="#000000" points="408.5,-494.0594 408.5,-516.0594 513.5,-516.0594 513.5,-494.0594 408.5,-494.0594"/>
<image xlink:href="../../images/primaryKeys.png" width="11px" height="12px" preserveAspectRatio="xMinYMin meet" x="413.5" y="-511.059"/>
<text text-anchor="start" x="436.5" y="-501.1594" font-family="Helvetica,sans-Serif" font-size="11.00" fill="#000000">id</text>
<polygon fill="none" stroke="#000000" points="408.5,-472.0594 408.5,-494.0594 513.5,-494.0594 513.5,-472.0594 408.5,-472.0594"/>
<image xlink:href="../../images/foreignKeys.png" width="11px" height="12px" preserveAspectRatio="xMinYMin meet" x="413.5" y="-489.059"/>
<text text-anchor="start" x="436.5" y="-479.1594" font-family="Helvetica,sans-Serif" font-size="11.00" fill="#000000">id_encontro</text>
<polygon fill="none" stroke="#000000" points="408.5,-450.0594 408.5,-472.0594 513.5,-472.0594 513.5,-450.0594 408.5,-450.0594"/>
<image xlink:href="../../images/foreignKeys.png" width="11px" height="12px" preserveAspectRatio="xMinYMin meet" x="413.5" y="-467.059"/>
<text text-anchor="start" x="436.5" y="-457.1594" font-family="Helvetica,sans-Serif" font-size="11.00" fill="#000000">id_user</text>
<polygon fill="none" stroke="#000000" points="408.5,-431.0594 408.5,-450.0594 513.5,-450.0594 513.5,-431.0594 408.5,-431.0594"/>
<text text-anchor="start" x="411.5" y="-437.1594" font-family="Helvetica,sans-Serif" font-size="11.00" fill="#000000">...</text>
<polygon fill="#ffffff" stroke="transparent" points="408.5,-412.0594 408.5,-431.0594 459.5,-431.0594 459.5,-412.0594 408.5,-412.0594"/>
<polygon fill="none" stroke="#000000" points="408.5,-412.0594 408.5,-431.0594 459.5,-431.0594 459.5,-412.0594 408.5,-412.0594"/>
<text text-anchor="start" x="411.5" y="-418.1594" font-family="Helvetica,sans-Serif" font-size="11.00" fill="#000000">&lt; 2</text>
<polygon fill="#ffffff" stroke="transparent" points="459.5,-412.0594 459.5,-431.0594 486.5,-431.0594 486.5,-412.0594 459.5,-412.0594"/>
<polygon fill="none" stroke="#000000" points="459.5,-412.0594 459.5,-431.0594 486.5,-431.0594 486.5,-412.0594 459.5,-412.0594"/>
<text text-anchor="start" x="477.3862" y="-418.1594" font-family="Helvetica,sans-Serif" font-size="11.00" fill="#000000"> &#160;</text>
<polygon fill="#ffffff" stroke="transparent" points="486.5,-412.0594 486.5,-431.0594 513.5,-431.0594 513.5,-412.0594 486.5,-412.0594"/>
<polygon fill="none" stroke="#000000" points="486.5,-412.0594 486.5,-431.0594 513.5,-431.0594 513.5,-412.0594 486.5,-412.0594"/>
<text text-anchor="start" x="504.3862" y="-418.1594" font-family="Helvetica,sans-Serif" font-size="11.00" fill="#000000"> &#160;</text>
</a>
</g>
</g>
<!-- mensagens&#45;&gt;usuarios -->
<g id="edge3" class="edge">
<title>mensagens:w&#45;&gt;usuarios:e</title>
<path fill="none" stroke="#000000" d="M394.4125,-456.5856C380.9862,-446.3415 380.0156,-422.0594 357.5,-422.0594"/>
<polygon fill="#000000" stroke="#000000" points="400.8752,-458.6379 407.4104,-464.4905 404.6876,-459.8486 408.5,-461.0594 408.5,-461.0594 408.5,-461.0594 404.6876,-459.8486 409.5896,-457.6282 400.8752,-458.6379 400.8752,-458.6379"/>
<ellipse fill="none" stroke="#000000" cx="397.8253" cy="-457.6694" rx="3.2" ry="3.2"/>
</g>
<!-- token -->
<g id="node5" class="node">
<title>token</title>
<g id="a_node5"><a xlink:href="../../tables/token.html" xlink:title="token" target="_top">
<polygon fill="#ffffff" stroke="transparent" points="418.5,-236.5594 418.5,-363.5594 502.5,-363.5594 502.5,-236.5594 418.5,-236.5594"/>
<polygon fill="#f5f5f5" stroke="transparent" points="418.5,-340.0594 418.5,-363.0594 502.5,-363.0594 502.5,-340.0594 418.5,-340.0594"/>
<polygon fill="none" stroke="#000000" points="418.5,-340.0594 418.5,-363.0594 502.5,-363.0594 502.5,-340.0594 418.5,-340.0594"/>
<text text-anchor="start" x="423.5" y="-348.6594" font-family="Helvetica,sans-Serif" font-weight="bold" font-size="11.00" fill="#000000">token</text>
<text text-anchor="start" x="467.5437" y="-348.1594" font-family="Helvetica,sans-Serif" font-size="11.00" fill="#000000">[table]</text>
<polygon fill="none" stroke="#000000" points="418.5,-318.0594 418.5,-340.0594 502.5,-340.0594 502.5,-318.0594 418.5,-318.0594"/>
<image xlink:href="../../images/primaryKeys.png" width="11px" height="12px" preserveAspectRatio="xMinYMin meet" x="423.5" y="-335.059"/>
<text text-anchor="start" x="438.5" y="-325.1594" font-family="Helvetica,sans-Serif" font-size="11.00" fill="#000000">id</text>
<polygon fill="none" stroke="#000000" points="418.5,-296.0594 418.5,-318.0594 502.5,-318.0594 502.5,-296.0594 418.5,-296.0594"/>
<image xlink:href="../../images/foreignKeys.png" width="11px" height="12px" preserveAspectRatio="xMinYMin meet" x="423.5" y="-313.059"/>
<text text-anchor="start" x="438.5" y="-303.1594" font-family="Helvetica,sans-Serif" font-size="11.00" fill="#000000">id_usuario</text>
<polygon fill="#ffffff" stroke="transparent" points="418.5,-274.0594 418.5,-296.0594 502.5,-296.0594 502.5,-274.0594 418.5,-274.0594"/>
<polygon fill="none" stroke="#000000" points="418.5,-274.0594 418.5,-296.0594 502.5,-296.0594 502.5,-274.0594 418.5,-274.0594"/>
<text text-anchor="start" x="438.5" y="-281.1594" font-family="Helvetica,sans-Serif" font-size="11.00" fill="#000000">token</text>
<polygon fill="none" stroke="#000000" points="418.5,-255.0594 418.5,-274.0594 502.5,-274.0594 502.5,-255.0594 418.5,-255.0594"/>
<text text-anchor="start" x="421.5" y="-261.1594" font-family="Helvetica,sans-Serif" font-size="11.00" fill="#000000">...</text>
<polygon fill="#ffffff" stroke="transparent" points="418.5,-236.0594 418.5,-255.0594 458.5,-255.0594 458.5,-236.0594 418.5,-236.0594"/>
<polygon fill="none" stroke="#000000" points="418.5,-236.0594 418.5,-255.0594 458.5,-255.0594 458.5,-236.0594 418.5,-236.0594"/>
<text text-anchor="start" x="421.5" y="-242.1594" font-family="Helvetica,sans-Serif" font-size="11.00" fill="#000000">&lt; 1</text>
<polygon fill="#ffffff" stroke="transparent" points="458.5,-236.0594 458.5,-255.0594 480.5,-255.0594 480.5,-236.0594 458.5,-236.0594"/>
<polygon fill="none" stroke="#000000" points="458.5,-236.0594 458.5,-255.0594 480.5,-255.0594 480.5,-236.0594 458.5,-236.0594"/>
<text text-anchor="start" x="471.3862" y="-242.1594" font-family="Helvetica,sans-Serif" font-size="11.00" fill="#000000"> &#160;</text>
<polygon fill="#ffffff" stroke="transparent" points="480.5,-236.0594 480.5,-255.0594 502.5,-255.0594 502.5,-236.0594 480.5,-236.0594"/>
<polygon fill="none" stroke="#000000" points="480.5,-236.0594 480.5,-255.0594 502.5,-255.0594 502.5,-236.0594 480.5,-236.0594"/>
<text text-anchor="start" x="493.3862" y="-242.1594" font-family="Helvetica,sans-Serif" font-size="11.00" fill="#000000"> &#160;</text>
</a>
</g>
</g>
<!-- token&#45;&gt;usuarios -->
<g id="edge4" class="edge">
<title>token:w&#45;&gt;usuarios:e</title>
<path fill="none" stroke="#000000" d="M404.1195,-310.3771C370.596,-329.2325 409.4803,-422.0594 357.5,-422.0594"/>
<polygon fill="#000000" stroke="#000000" points="410.7048,-308.8578 419.3093,-310.5672 414.6024,-307.9586 418.5,-307.0594 418.5,-307.0594 418.5,-307.0594 414.6024,-307.9586 417.6907,-303.5515 410.7048,-308.8578 410.7048,-308.8578"/>
<ellipse fill="none" stroke="#000000" cx="407.5867" cy="-309.5772" rx="3.2" ry="3.2"/>
</g>
<!-- turmas -->
<g id="node6" class="node">
<title>turmas</title>
<g id="a_node6"><a xlink:href="../../tables/turmas.html" xlink:title="turmas" target="_top">
<polygon fill="#ffffff" stroke="transparent" points="421,-66.5594 421,-215.5594 500,-215.5594 500,-66.5594 421,-66.5594"/>
<polygon fill="#f5f5f5" stroke="transparent" points="421.5,-192.0594 421.5,-215.0594 500.5,-215.0594 500.5,-192.0594 421.5,-192.0594"/>
<polygon fill="none" stroke="#000000" points="421.5,-192.0594 421.5,-215.0594 500.5,-215.0594 500.5,-192.0594 421.5,-192.0594"/>
<text text-anchor="start" x="426.5" y="-200.6594" font-family="Helvetica,sans-Serif" font-weight="bold" font-size="11.00" fill="#000000">turmas</text>
<text text-anchor="start" x="466.0219" y="-200.1594" font-family="Helvetica,sans-Serif" font-size="11.00" fill="#000000">[table]</text>
<polygon fill="none" stroke="#000000" points="421.5,-170.0594 421.5,-192.0594 500.5,-192.0594 500.5,-170.0594 421.5,-170.0594"/>
<image xlink:href="../../images/primaryKeys.png" width="11px" height="12px" preserveAspectRatio="xMinYMin meet" x="426.5" y="-187.059"/>
<text text-anchor="start" x="442.5" y="-177.1594" font-family="Helvetica,sans-Serif" font-size="11.00" fill="#000000">id</text>
<polygon fill="none" stroke="#000000" points="421.5,-148.0594 421.5,-170.0594 500.5,-170.0594 500.5,-148.0594 421.5,-148.0594"/>
<image xlink:href="../../images/foreignKeys.png" width="11px" height="12px" preserveAspectRatio="xMinYMin meet" x="426.5" y="-165.059"/>
<text text-anchor="start" x="442.5" y="-155.1594" font-family="Helvetica,sans-Serif" font-size="11.00" fill="#000000">id_curso</text>
<polygon fill="none" stroke="#000000" points="421.5,-126.0594 421.5,-148.0594 500.5,-148.0594 500.5,-126.0594 421.5,-126.0594"/>
<image xlink:href="../../images/foreignKeys.png" width="11px" height="12px" preserveAspectRatio="xMinYMin meet" x="426.5" y="-143.059"/>
<text text-anchor="start" x="442.5" y="-133.1594" font-family="Helvetica,sans-Serif" font-size="11.00" fill="#000000">id_user</text>
<polygon fill="#ffffff" stroke="transparent" points="421.5,-104.0594 421.5,-126.0594 500.5,-126.0594 500.5,-104.0594 421.5,-104.0594"/>
<polygon fill="none" stroke="#000000" points="421.5,-104.0594 421.5,-126.0594 500.5,-126.0594 500.5,-104.0594 421.5,-104.0594"/>
<text text-anchor="start" x="442.5" y="-111.1594" font-family="Helvetica,sans-Serif" font-size="11.00" fill="#000000">nome</text>
<polygon fill="none" stroke="#000000" points="421.5,-85.0594 421.5,-104.0594 500.5,-104.0594 500.5,-85.0594 421.5,-85.0594"/>
<text text-anchor="start" x="424.5" y="-91.1594" font-family="Helvetica,sans-Serif" font-size="11.00" fill="#000000">...</text>
<polygon fill="#ffffff" stroke="transparent" points="421.5,-66.0594 421.5,-85.0594 454.5,-85.0594 454.5,-66.0594 421.5,-66.0594"/>
<polygon fill="none" stroke="#000000" points="421.5,-66.0594 421.5,-85.0594 454.5,-85.0594 454.5,-66.0594 421.5,-66.0594"/>
<text text-anchor="start" x="424.5" y="-72.1594" font-family="Helvetica,sans-Serif" font-size="11.00" fill="#000000">&lt; 2</text>
<polygon fill="#ffffff" stroke="transparent" points="454.5,-66.0594 454.5,-85.0594 472.5,-85.0594 472.5,-66.0594 454.5,-66.0594"/>
<polygon fill="none" stroke="#000000" points="454.5,-66.0594 454.5,-85.0594 472.5,-85.0594 472.5,-66.0594 454.5,-66.0594"/>
<text text-anchor="start" x="463.3862" y="-72.1594" font-family="Helvetica,sans-Serif" font-size="11.00" fill="#000000"> &#160;</text>
<polygon fill="#ffffff" stroke="transparent" points="472.5,-66.0594 472.5,-85.0594 500.5,-85.0594 500.5,-66.0594 472.5,-66.0594"/>
<polygon fill="none" stroke="#000000" points="472.5,-66.0594 472.5,-85.0594 500.5,-85.0594 500.5,-66.0594 472.5,-66.0594"/>
<text text-anchor="start" x="481.9053" y="-72.1594" font-family="Helvetica,sans-Serif" font-size="11.00" fill="#000000">2 &gt;</text>
</a>
</g>
</g>
<!-- turmas&#45;&gt;cursos -->
<g id="edge5" class="edge">
<title>turmas:w&#45;&gt;cursos:e</title>
<path fill="none" stroke="#000000" d="M407.2303,-156.9203C393.0854,-152.1893 387.0329,-140.9502 367,-137.0594 266.2166,-117.4851 213.9252,-70.2155 136,-137.0594 91.1171,-175.5597 154.6334,-400.0594 95.5,-400.0594"/>
<polygon fill="#000000" stroke="#000000" points="413.5884,-157.8733 420.9663,-162.6196 417.5442,-158.4663 421.5,-159.0594 421.5,-159.0594 421.5,-159.0594 417.5442,-158.4663 422.0337,-155.4991 413.5884,-157.8733 413.5884,-157.8733"/>
<ellipse fill="none" stroke="#000000" cx="410.4238" cy="-157.3989" rx="3.2" ry="3.2"/>
</g>
<!-- turmas&#45;&gt;usuarios -->
<g id="edge6" class="edge">
<title>turmas:w&#45;&gt;usuarios:e</title>
<path fill="none" stroke="#000000" d="M408.0207,-142.4981C366.5085,-181.8994 417.0859,-422.0594 357.5,-422.0594"/>
<polygon fill="#000000" stroke="#000000" points="414.0811,-140.0528 422.8471,-140.3978 417.7906,-138.5561 421.5,-137.0594 421.5,-137.0594 421.5,-137.0594 417.7906,-138.5561 420.1529,-133.7209 414.0811,-140.0528 414.0811,-140.0528"/>
<ellipse fill="none" stroke="#000000" cx="411.1136" cy="-141.2502" rx="3.2" ry="3.2"/>
</g>
<!-- usuario_grupo -->
<g id="node7" class="node">
<title>usuario_grupo</title>
<g id="a_node7"><a xlink:href="../../tables/usuario_grupo.html" xlink:title="usuario_grupo" target="_top">
<polygon fill="#ffffff" stroke="transparent" points="562,-490.0594 562,-576.0594 685,-576.0594 685,-490.0594 562,-490.0594"/>
<polygon fill="#f5f5f5" stroke="transparent" points="562.5,-553.0594 562.5,-576.0594 685.5,-576.0594 685.5,-553.0594 562.5,-553.0594"/>
<polygon fill="none" stroke="#000000" points="562.5,-553.0594 562.5,-576.0594 685.5,-576.0594 685.5,-553.0594 562.5,-553.0594"/>
<text text-anchor="start" x="567.5" y="-561.6594" font-family="Helvetica,sans-Serif" font-weight="bold" font-size="11.00" fill="#000000">usuario_grupo</text>
<text text-anchor="start" x="651.0219" y="-561.1594" font-family="Helvetica,sans-Serif" font-size="11.00" fill="#000000">[table]</text>
<polygon fill="none" stroke="#000000" points="562.5,-531.0594 562.5,-553.0594 685.5,-553.0594 685.5,-531.0594 562.5,-531.0594"/>
<image xlink:href="../../images/foreignKeys.png" width="11px" height="12px" preserveAspectRatio="xMinYMin meet" x="567.5" y="-548.059"/>
<text text-anchor="start" x="591.5" y="-538.1594" font-family="Helvetica,sans-Serif" font-size="11.00" fill="#000000">id_grupo</text>
<polygon fill="none" stroke="#000000" points="562.5,-509.0594 562.5,-531.0594 685.5,-531.0594 685.5,-509.0594 562.5,-509.0594"/>
<image xlink:href="../../images/foreignKeys.png" width="11px" height="12px" preserveAspectRatio="xMinYMin meet" x="567.5" y="-526.059"/>
<text text-anchor="start" x="591.5" y="-516.1594" font-family="Helvetica,sans-Serif" font-size="11.00" fill="#000000">id_usuario</text>
<polygon fill="#ffffff" stroke="transparent" points="562.5,-490.0594 562.5,-509.0594 622.5,-509.0594 622.5,-490.0594 562.5,-490.0594"/>
<polygon fill="none" stroke="#000000" points="562.5,-490.0594 562.5,-509.0594 622.5,-509.0594 622.5,-490.0594 562.5,-490.0594"/>
<text text-anchor="start" x="565.5" y="-496.1594" font-family="Helvetica,sans-Serif" font-size="11.00" fill="#000000">&lt; 2</text>
<polygon fill="#ffffff" stroke="transparent" points="622.5,-490.0594 622.5,-509.0594 653.5,-509.0594 653.5,-490.0594 622.5,-490.0594"/>
<polygon fill="none" stroke="#000000" points="622.5,-490.0594 622.5,-509.0594 653.5,-509.0594 653.5,-490.0594 622.5,-490.0594"/>
<text text-anchor="start" x="644.3862" y="-496.1594" font-family="Helvetica,sans-Serif" font-size="11.00" fill="#000000"> &#160;</text>
<polygon fill="#ffffff" stroke="transparent" points="653.5,-490.0594 653.5,-509.0594 685.5,-509.0594 685.5,-490.0594 653.5,-490.0594"/>
<polygon fill="none" stroke="#000000" points="653.5,-490.0594 653.5,-509.0594 685.5,-509.0594 685.5,-490.0594 653.5,-490.0594"/>
<text text-anchor="start" x="676.3862" y="-496.1594" font-family="Helvetica,sans-Serif" font-size="11.00" fill="#000000"> &#160;</text>
</a>
</g>
</g>
<!-- usuario_grupo&#45;&gt;grupos -->
<g id="edge7" class="edge">
<title>usuario_grupo:w&#45;&gt;grupos:e</title>
<path fill="none" stroke="#000000" d="M548.2429,-545.347C512.7102,-565.8279 570.5894,-675.0594 513.5,-675.0594"/>
<polygon fill="#000000" stroke="#000000" points="554.7046,-543.857 563.3089,-545.5673 558.6023,-542.9582 562.5,-542.0594 562.5,-542.0594 562.5,-542.0594 558.6023,-542.9582 561.6911,-538.5514 554.7046,-543.857 554.7046,-543.857"/>
<ellipse fill="none" stroke="#000000" cx="551.5864" cy="-544.5761" rx="3.2" ry="3.2"/>
</g>
<!-- usuario_grupo&#45;&gt;usuarios -->
<g id="edge8" class="edge">
<title>usuario_grupo:w&#45;&gt;usuarios:e</title>
<path fill="none" stroke="#000000" d="M548.0998,-517.1604C518.6592,-501.919 561.4034,-430.679 521,-402.0594 477.1163,-370.9745 452.4825,-390.3276 400,-402.0594 379.6269,-406.6135 378.3759,-422.0594 357.5,-422.0594"/>
<polygon fill="#000000" stroke="#000000" points="554.6573,-518.4805 561.7895,-523.5886 558.5787,-519.2699 562.5,-520.0594 562.5,-520.0594 562.5,-520.0594 558.5787,-519.2699 563.2105,-516.5302 554.6573,-518.4805 554.6573,-518.4805"/>
<ellipse fill="none" stroke="#000000" cx="551.5203" cy="-517.8489" rx="3.2" ry="3.2"/>
</g>
<!-- usuario_turma -->
<g id="node8" class="node">
<title>usuario_turma</title>
<g id="a_node8"><a xlink:href="../../tables/usuario_turma.html" xlink:title="usuario_turma" target="_top">
<polygon fill="#ffffff" stroke="transparent" points="562.5,-70.0594 562.5,-156.0594 684.5,-156.0594 684.5,-70.0594 562.5,-70.0594"/>
<polygon fill="#f5f5f5" stroke="transparent" points="562.5,-133.0594 562.5,-156.0594 684.5,-156.0594 684.5,-133.0594 562.5,-133.0594"/>
<polygon fill="none" stroke="#000000" points="562.5,-133.0594 562.5,-156.0594 684.5,-156.0594 684.5,-133.0594 562.5,-133.0594"/>
<text text-anchor="start" x="567.5" y="-141.6594" font-family="Helvetica,sans-Serif" font-weight="bold" font-size="11.00" fill="#000000">usuario_turma</text>
<text text-anchor="start" x="650.0219" y="-141.1594" font-family="Helvetica,sans-Serif" font-size="11.00" fill="#000000">[table]</text>
<polygon fill="none" stroke="#000000" points="562.5,-111.0594 562.5,-133.0594 684.5,-133.0594 684.5,-111.0594 562.5,-111.0594"/>
<image xlink:href="../../images/foreignKeys.png" width="11px" height="12px" preserveAspectRatio="xMinYMin meet" x="567.5" y="-128.059"/>
<text text-anchor="start" x="591.5" y="-118.1594" font-family="Helvetica,sans-Serif" font-size="11.00" fill="#000000">id_turma</text>
<polygon fill="none" stroke="#000000" points="562.5,-89.0594 562.5,-111.0594 684.5,-111.0594 684.5,-89.0594 562.5,-89.0594"/>
<image xlink:href="../../images/foreignKeys.png" width="11px" height="12px" preserveAspectRatio="xMinYMin meet" x="567.5" y="-106.059"/>
<text text-anchor="start" x="591.5" y="-96.1594" font-family="Helvetica,sans-Serif" font-size="11.00" fill="#000000">id_usuario</text>
<polygon fill="#ffffff" stroke="transparent" points="562.5,-70.0594 562.5,-89.0594 621.5,-89.0594 621.5,-70.0594 562.5,-70.0594"/>
<polygon fill="none" stroke="#000000" points="562.5,-70.0594 562.5,-89.0594 621.5,-89.0594 621.5,-70.0594 562.5,-70.0594"/>
<text text-anchor="start" x="565.5" y="-76.1594" font-family="Helvetica,sans-Serif" font-size="11.00" fill="#000000">&lt; 2</text>
<polygon fill="#ffffff" stroke="transparent" points="621.5,-70.0594 621.5,-89.0594 652.5,-89.0594 652.5,-70.0594 621.5,-70.0594"/>
<polygon fill="none" stroke="#000000" points="621.5,-70.0594 621.5,-89.0594 652.5,-89.0594 652.5,-70.0594 621.5,-70.0594"/>
<text text-anchor="start" x="643.3862" y="-76.1594" font-family="Helvetica,sans-Serif" font-size="11.00" fill="#000000"> &#160;</text>
<polygon fill="#ffffff" stroke="transparent" points="652.5,-70.0594 652.5,-89.0594 684.5,-89.0594 684.5,-70.0594 652.5,-70.0594"/>
<polygon fill="none" stroke="#000000" points="652.5,-70.0594 652.5,-89.0594 684.5,-89.0594 684.5,-70.0594 652.5,-70.0594"/>
<text text-anchor="start" x="675.3862" y="-76.1594" font-family="Helvetica,sans-Serif" font-size="11.00" fill="#000000"> &#160;</text>
</a>
</g>
</g>
<!-- usuario_turma&#45;&gt;usuarios -->
<g id="edge10" class="edge">
<title>usuario_turma:w&#45;&gt;usuarios:e</title>
<path fill="none" stroke="#000000" d="M548.7643,-95.2849C538.4272,-85.6731 539.8974,-64.2125 521,-56.0594 471.6219,-34.7556 440.1599,-20.293 400,-56.0594 338.8542,-110.5158 439.3798,-422.0594 357.5,-422.0594"/>
<polygon fill="#000000" stroke="#000000" points="554.9435,-97.4327 561.318,-103.4598 558.7217,-98.7461 562.5,-100.0594 562.5,-100.0594 562.5,-100.0594 558.7217,-98.7461 563.682,-96.6589 554.9435,-97.4327 554.9435,-97.4327"/>
<ellipse fill="none" stroke="#000000" cx="551.9209" cy="-96.3821" rx="3.2" ry="3.2"/>
</g>
<!-- usuario_turma&#45;&gt;turmas -->
<g id="edge9" class="edge">
<title>usuario_turma:w&#45;&gt;turmas:e</title>
<path fill="none" stroke="#000000" d="M548.3753,-125.7501C527.5411,-138.6666 532.7434,-181.0594 500.5,-181.0594"/>
<polygon fill="#000000" stroke="#000000" points="554.7599,-124.0819 563.4101,-125.5424 558.6299,-123.0706 562.5,-122.0594 562.5,-122.0594 562.5,-122.0594 558.6299,-123.0706 561.5899,-118.5763 554.7599,-124.0819 554.7599,-124.0819"/>
<ellipse fill="none" stroke="#000000" cx="551.6638" cy="-124.8909" rx="3.2" ry="3.2"/>
</g>
</g>
</svg>
