<?xml version="1.0" encoding="UTF-8" standalone="no"?>
<!DOCTYPE svg PUBLIC "-//W3C//DTD SVG 1.1//EN"
 "http://www.w3.org/Graphics/SVG/1.1/DTD/svg11.dtd">
<!-- Generated by graphviz version 2.40.1 (20161225.0304)
 -->
<!-- Title: twoDegreesRelationshipsDiagram Pages: 1 -->
<svg width="721pt" height="414pt"
 viewBox="0.00 0.00 721.00 414.20" xmlns="http://www.w3.org/2000/svg" xmlns:xlink="http://www.w3.org/1999/xlink">
<g id="graph0" class="graph" transform="scale(1 1) rotate(0) translate(4 410.2)">
<title>twoDegreesRelationshipsDiagram</title>
<polygon fill="#ffffff" stroke="transparent" points="-4,4 -4,-410.2 717,-410.2 717,4 -4,4"/>
<text text-anchor="middle" x="72.4936" y="-7.3" font-family="Helvetica,sans-Serif" font-size="11.00" fill="#000000">Generated by SchemaSpy</text>
<!-- encontros -->
<g id="node1" class="node">
<title>encontros</title>
<g id="a_node1"><a xlink:href="../../tables/encontros.html" xlink:title="encontros" target="_top">
<polygon fill="#ffffff" stroke="transparent" points="427.5,-341.2 427.5,-402.2 524.5,-402.2 524.5,-341.2 427.5,-341.2"/>
<polygon fill="#f5f5f5" stroke="transparent" points="428,-378.7 428,-401.7 525,-401.7 525,-378.7 428,-378.7"/>
<polygon fill="none" stroke="#000000" points="428,-378.7 428,-401.7 525,-401.7 525,-378.7 428,-378.7"/>
<text text-anchor="start" x="433" y="-387.3" font-family="Helvetica,sans-Serif" font-weight="bold" font-size="11.00" fill="#000000">encontros</text>
<text text-anchor="start" x="490.5219" y="-386.8" font-family="Helvetica,sans-Serif" font-size="11.00" fill="#000000">[table]</text>
<polygon fill="none" stroke="#000000" points="428,-359.7 428,-378.7 525,-378.7 525,-359.7 428,-359.7"/>
<text text-anchor="start" x="431" y="-365.8" font-family="Helvetica,sans-Serif" font-size="11.00" fill="#000000">...</text>
<polygon fill="#ffffff" stroke="transparent" points="428,-340.7 428,-359.7 470,-359.7 470,-340.7 428,-340.7"/>
<polygon fill="none" stroke="#000000" points="428,-340.7 428,-359.7 470,-359.7 470,-340.7 428,-340.7"/>
<text text-anchor="start" x="431" y="-346.8" font-family="Helvetica,sans-Serif" font-size="11.00" fill="#000000">&lt; 2</text>
<polygon fill="#ffffff" stroke="transparent" points="470,-340.7 470,-359.7 493,-359.7 493,-340.7 470,-340.7"/>
<polygon fill="none" stroke="#000000" points="470,-340.7 470,-359.7 493,-359.7 493,-340.7 470,-340.7"/>
<text text-anchor="start" x="483.8862" y="-346.8" font-family="Helvetica,sans-Serif" font-size="11.00" fill="#000000"> &#160;</text>
<polygon fill="#ffffff" stroke="transparent" points="493,-340.7 493,-359.7 525,-359.7 525,-340.7 493,-340.7"/>
<polygon fill="none" stroke="#000000" points="493,-340.7 493,-359.7 525,-359.7 525,-340.7 493,-340.7"/>
<text text-anchor="start" x="506.4053" y="-346.8" font-family="Helvetica,sans-Serif" font-size="11.00" fill="#000000">2 &gt;</text>
</a>
</g>
</g>
<!-- grupos -->
<g id="node2" class="node">
<title>grupos</title>
<g id="a_node2"><a xlink:href="../../tables/grupos.html" xlink:title="grupos" target="_top">
<polygon fill="#ffffff" stroke="transparent" points="273,-299.2 273,-360.2 352,-360.2 352,-299.2 273,-299.2"/>
<polygon fill="#f5f5f5" stroke="transparent" points="273.5,-336.7 273.5,-359.7 352.5,-359.7 352.5,-336.7 273.5,-336.7"/>
<polygon fill="none" stroke="#000000" points="273.5,-336.7 273.5,-359.7 352.5,-359.7 352.5,-336.7 273.5,-336.7"/>
<text text-anchor="start" x="278.5" y="-345.3" font-family="Helvetica,sans-Serif" font-weight="bold" font-size="11.00" fill="#000000">grupos</text>
<text text-anchor="start" x="318.0219" y="-344.8" font-family="Helvetica,sans-Serif" font-size="11.00" fill="#000000">[table]</text>
<polygon fill="none" stroke="#000000" points="273.5,-317.7 273.5,-336.7 352.5,-336.7 352.5,-317.7 273.5,-317.7"/>
<text text-anchor="start" x="276.5" y="-323.8" font-family="Helvetica,sans-Serif" font-size="11.00" fill="#000000">...</text>
<polygon fill="#ffffff" stroke="transparent" points="273.5,-298.7 273.5,-317.7 306.5,-317.7 306.5,-298.7 273.5,-298.7"/>
<polygon fill="none" stroke="#000000" points="273.5,-298.7 273.5,-317.7 306.5,-317.7 306.5,-298.7 273.5,-298.7"/>
<text text-anchor="start" x="276.5" y="-304.8" font-family="Helvetica,sans-Serif" font-size="11.00" fill="#000000">&lt; 2</text>
<polygon fill="#ffffff" stroke="transparent" points="306.5,-298.7 306.5,-317.7 324.5,-317.7 324.5,-298.7 306.5,-298.7"/>
<polygon fill="none" stroke="#000000" points="306.5,-298.7 306.5,-317.7 324.5,-317.7 324.5,-298.7 306.5,-298.7"/>
<text text-anchor="start" x="315.3862" y="-304.8" font-family="Helvetica,sans-Serif" font-size="11.00" fill="#000000"> &#160;</text>
<polygon fill="#ffffff" stroke="transparent" points="324.5,-298.7 324.5,-317.7 352.5,-317.7 352.5,-298.7 324.5,-298.7"/>
<polygon fill="none" stroke="#000000" points="324.5,-298.7 324.5,-317.7 352.5,-317.7 352.5,-298.7 324.5,-298.7"/>
<text text-anchor="start" x="333.9053" y="-304.8" font-family="Helvetica,sans-Serif" font-size="11.00" fill="#000000">2 &gt;</text>
</a>
</g>
</g>
<!-- encontros&#45;&gt;grupos -->
<g id="edge1" class="edge">
<title>encontros:w&#45;&gt;grupos:e</title>
<path fill="none" stroke="#000000" d="M413.5987,-366.3216C389.1474,-357.4367 385.3484,-326.7 352.5,-326.7"/>
<polygon fill="#000000" stroke="#000000" points="420.1069,-367.3964 427.4134,-372.2519 424.0535,-368.0482 428,-368.7 428,-368.7 428,-368.7 424.0535,-368.0482 428.5866,-365.1481 420.1069,-367.3964 420.1069,-367.3964"/>
<ellipse fill="none" stroke="#000000" cx="416.9497" cy="-366.8749" rx="3.2" ry="3.2"/>
</g>
<!-- turmas -->
<g id="node3" class="node">
<title>turmas</title>
<g id="a_node3"><a xlink:href="../../tables/turmas.html" xlink:title="turmas" target="_top">
<polygon fill="#ffffff" stroke="transparent" points="273,-217.2 273,-278.2 352,-278.2 352,-217.2 273,-217.2"/>
<polygon fill="#f5f5f5" stroke="transparent" points="273.5,-254.7 273.5,-277.7 352.5,-277.7 352.5,-254.7 273.5,-254.7"/>
<polygon fill="none" stroke="#000000" points="273.5,-254.7 273.5,-277.7 352.5,-277.7 352.5,-254.7 273.5,-254.7"/>
<text text-anchor="start" x="278.5" y="-263.3" font-family="Helvetica,sans-Serif" font-weight="bold" font-size="11.00" fill="#000000">turmas</text>
<text text-anchor="start" x="318.0219" y="-262.8" font-family="Helvetica,sans-Serif" font-size="11.00" fill="#000000">[table]</text>
<polygon fill="none" stroke="#000000" points="273.5,-235.7 273.5,-254.7 352.5,-254.7 352.5,-235.7 273.5,-235.7"/>
<text text-anchor="start" x="276.5" y="-241.8" font-family="Helvetica,sans-Serif" font-size="11.00" fill="#000000">...</text>
<polygon fill="#ffffff" stroke="transparent" points="273.5,-216.7 273.5,-235.7 306.5,-235.7 306.5,-216.7 273.5,-216.7"/>
<polygon fill="none" stroke="#000000" points="273.5,-216.7 273.5,-235.7 306.5,-235.7 306.5,-216.7 273.5,-216.7"/>
<text text-anchor="start" x="276.5" y="-222.8" font-family="Helvetica,sans-Serif" font-size="11.00" fill="#000000">&lt; 2</text>
<polygon fill="#ffffff" stroke="transparent" points="306.5,-216.7 306.5,-235.7 324.5,-235.7 324.5,-216.7 306.5,-216.7"/>
<polygon fill="none" stroke="#000000" points="306.5,-216.7 306.5,-235.7 324.5,-235.7 324.5,-216.7 306.5,-216.7"/>
<text text-anchor="start" x="315.3862" y="-222.8" font-family="Helvetica,sans-Serif" font-size="11.00" fill="#000000"> &#160;</text>
<polygon fill="#ffffff" stroke="transparent" points="324.5,-216.7 324.5,-235.7 352.5,-235.7 352.5,-216.7 324.5,-216.7"/>
<polygon fill="none" stroke="#000000" points="324.5,-216.7 324.5,-235.7 352.5,-235.7 352.5,-216.7 324.5,-216.7"/>
<text text-anchor="start" x="333.9053" y="-222.8" font-family="Helvetica,sans-Serif" font-size="11.00" fill="#000000">2 &gt;</text>
</a>
</g>
</g>
<!-- encontros&#45;&gt;turmas -->
<g id="edge2" class="edge">
<title>encontros:w&#45;&gt;turmas:e</title>
<path fill="none" stroke="#000000" d="M413.4008,-366.7697C383.341,-357.6819 388.3248,-318.362 360,-288.7 358.0439,-286.6516 355.9952,-284.5963 353.8929,-282.5568"/>
<polygon fill="#000000" stroke="#000000" points="420.069,-367.6513 427.5281,-372.2689 424.0345,-368.1757 428,-368.7 428,-368.7 428,-368.7 424.0345,-368.1757 428.4719,-365.1311 420.069,-367.6513 420.069,-367.6513"/>
<ellipse fill="none" stroke="#000000" cx="416.8966" cy="-367.2318" rx="3.2" ry="3.2"/>
</g>
<!-- cursos -->
<g id="node4" class="node">
<title>cursos</title>
<g id="a_node4"><a xlink:href="../../tables/cursos.html" xlink:title="cursos" target="_top">
<polygon fill="#ffffff" stroke="transparent" points="8,-220.2 8,-281.2 86,-281.2 86,-220.2 8,-220.2"/>
<polygon fill="#f5f5f5" stroke="transparent" points="8,-257.7 8,-280.7 86,-280.7 86,-257.7 8,-257.7"/>
<polygon fill="none" stroke="#000000" points="8,-257.7 8,-280.7 86,-280.7 86,-257.7 8,-257.7"/>
<text text-anchor="start" x="13" y="-266.3" font-family="Helvetica,sans-Serif" font-weight="bold" font-size="11.00" fill="#000000">cursos</text>
<text text-anchor="start" x="51.5219" y="-265.8" font-family="Helvetica,sans-Serif" font-size="11.00" fill="#000000">[table]</text>
<polygon fill="none" stroke="#000000" points="8,-238.7 8,-257.7 86,-257.7 86,-238.7 8,-238.7"/>
<text text-anchor="start" x="11" y="-244.8" font-family="Helvetica,sans-Serif" font-size="11.00" fill="#000000">...</text>
<polygon fill="#ffffff" stroke="transparent" points="8,-219.7 8,-238.7 36,-238.7 36,-219.7 8,-219.7"/>
<polygon fill="none" stroke="#000000" points="8,-219.7 8,-238.7 36,-238.7 36,-219.7 8,-219.7"/>
<text text-anchor="start" x="11" y="-225.8" font-family="Helvetica,sans-Serif" font-size="11.00" fill="#000000"> &#160;</text>
<polygon fill="#ffffff" stroke="transparent" points="36,-219.7 36,-238.7 56,-238.7 56,-219.7 36,-219.7"/>
<polygon fill="none" stroke="#000000" points="36,-219.7 36,-238.7 56,-238.7 56,-219.7 36,-219.7"/>
<text text-anchor="start" x="46.8862" y="-225.8" font-family="Helvetica,sans-Serif" font-size="11.00" fill="#000000"> &#160;</text>
<polygon fill="#ffffff" stroke="transparent" points="56,-219.7 56,-238.7 86,-238.7 86,-219.7 56,-219.7"/>
<polygon fill="none" stroke="#000000" points="56,-219.7 56,-238.7 86,-238.7 86,-219.7 56,-219.7"/>
<text text-anchor="start" x="67.4053" y="-225.8" font-family="Helvetica,sans-Serif" font-size="11.00" fill="#000000">3 &gt;</text>
</a>
</g>
</g>
<!-- grupos&#45;&gt;cursos -->
<g id="edge3" class="edge">
<title>grupos:w&#45;&gt;cursos:e</title>
<path fill="none" stroke="#000000" d="M259.1846,-324.6678C210.1808,-312.3025 126.8869,-247.7 86,-247.7"/>
<polygon fill="#000000" stroke="#000000" points="265.5794,-325.5755 272.994,-330.2643 269.5397,-326.1378 273.5,-326.7 273.5,-326.7 273.5,-326.7 269.5397,-326.1378 274.006,-323.1357 265.5794,-325.5755 265.5794,-325.5755"/>
<ellipse fill="none" stroke="#000000" cx="262.4112" cy="-325.1258" rx="3.2" ry="3.2"/>
</g>
<!-- usuarios -->
<g id="node5" class="node">
<title>usuarios</title>
<g id="a_node5"><a xlink:href="../../tables/usuarios.html" xlink:title="usuarios" target="_top">
<polygon fill="#ffffff" stroke="transparent" points="135,-162.2 135,-223.2 224,-223.2 224,-162.2 135,-162.2"/>
<polygon fill="#f5f5f5" stroke="transparent" points="135.5,-199.7 135.5,-222.7 224.5,-222.7 224.5,-199.7 135.5,-199.7"/>
<polygon fill="none" stroke="#000000" points="135.5,-199.7 135.5,-222.7 224.5,-222.7 224.5,-199.7 135.5,-199.7"/>
<text text-anchor="start" x="140.5" y="-208.3" font-family="Helvetica,sans-Serif" font-weight="bold" font-size="11.00" fill="#000000">usuarios</text>
<text text-anchor="start" x="190.0219" y="-207.8" font-family="Helvetica,sans-Serif" font-size="11.00" fill="#000000">[table]</text>
<polygon fill="none" stroke="#000000" points="135.5,-180.7 135.5,-199.7 224.5,-199.7 224.5,-180.7 135.5,-180.7"/>
<text text-anchor="start" x="138.5" y="-186.8" font-family="Helvetica,sans-Serif" font-size="11.00" fill="#000000">...</text>
<polygon fill="#ffffff" stroke="transparent" points="135.5,-161.7 135.5,-180.7 173.5,-180.7 173.5,-161.7 135.5,-161.7"/>
<polygon fill="none" stroke="#000000" points="135.5,-161.7 135.5,-180.7 173.5,-180.7 173.5,-161.7 135.5,-161.7"/>
<text text-anchor="start" x="138.5" y="-167.8" font-family="Helvetica,sans-Serif" font-size="11.00" fill="#000000">&lt; 1</text>
<polygon fill="#ffffff" stroke="transparent" points="173.5,-161.7 173.5,-180.7 194.5,-180.7 194.5,-161.7 173.5,-161.7"/>
<polygon fill="none" stroke="#000000" points="173.5,-161.7 173.5,-180.7 194.5,-180.7 194.5,-161.7 173.5,-161.7"/>
<text text-anchor="start" x="185.3862" y="-167.8" font-family="Helvetica,sans-Serif" font-size="11.00" fill="#000000"> &#160;</text>
<polygon fill="#ffffff" stroke="transparent" points="194.5,-161.7 194.5,-180.7 224.5,-180.7 224.5,-161.7 194.5,-161.7"/>
<polygon fill="none" stroke="#000000" points="194.5,-161.7 194.5,-180.7 224.5,-180.7 224.5,-161.7 194.5,-161.7"/>
<text text-anchor="start" x="205.9053" y="-167.8" font-family="Helvetica,sans-Serif" font-size="11.00" fill="#000000">6 &gt;</text>
</a>
</g>
</g>
<!-- grupos&#45;&gt;usuarios -->
<g id="edge4" class="edge">
<title>grupos:w&#45;&gt;usuarios:e</title>
<path fill="none" stroke="#000000" d="M259.936,-321.5916C237.7613,-306.3012 211.9522,-259.9325 195.6716,-227.2083"/>
<polygon fill="#000000" stroke="#000000" points="266.0133,-323.8804 272.2312,-330.069 269.7567,-325.2902 273.5,-326.7 273.5,-326.7 273.5,-326.7 269.7567,-325.2902 274.7688,-323.331 266.0133,-323.8804 266.0133,-323.8804"/>
<ellipse fill="none" stroke="#000000" cx="263.0187" cy="-322.7525" rx="3.2" ry="3.2"/>
</g>
<!-- turmas&#45;&gt;cursos -->
<g id="edge8" class="edge">
<title>turmas:w&#45;&gt;cursos:e</title>
<path fill="none" stroke="#000000" d="M250.3591,-247.7C204.8485,-247.7 141.5874,-247.7 86,-247.7"/>
<polygon fill="#000000" stroke="#000000" points="256.7773,-247.7001 264.7774,-251.3 260.7773,-247.7 264.7773,-247.7 264.7773,-247.7 264.7773,-247.7 260.7773,-247.7 264.7773,-244.1 256.7773,-247.7001 256.7773,-247.7001"/>
<ellipse fill="none" stroke="#000000" cx="253.5773" cy="-247.7001" rx="3.2" ry="3.2"/>
</g>
<!-- turmas&#45;&gt;usuarios -->
<g id="edge9" class="edge">
<title>turmas:w&#45;&gt;usuarios:e</title>
<path fill="none" stroke="#000000" d="M251.4397,-222.4495C245.0214,-219.7953 238.535,-217.1129 232.2218,-214.5023"/>
<polygon fill="#000000" stroke="#000000" points="257.4668,-224.9419 263.4839,-231.3259 261.1632,-226.4705 264.8596,-227.9991 264.8596,-227.9991 264.8596,-227.9991 261.1632,-226.4705 266.2354,-224.6723 257.4668,-224.9419 257.4668,-224.9419"/>
<ellipse fill="none" stroke="#000000" cx="254.5097" cy="-223.719" rx="3.2" ry="3.2"/>
</g>
<!-- usuarios&#45;&gt;cursos -->
<g id="edge14" class="edge">
<title>usuarios:w&#45;&gt;cursos:e</title>
<path fill="none" stroke="#000000" d="M128.8015,-235.0819C115.6622,-242.3958 100.9721,-247.7 86,-247.7"/>
<polygon fill="#000000" stroke="#000000" points="134.5935,-231.4609 143.2854,-230.2726 137.9852,-229.3405 141.377,-227.22 141.377,-227.22 141.377,-227.22 137.9852,-229.3405 139.4686,-224.1675 134.5935,-231.4609 134.5935,-231.4609"/>
<ellipse fill="none" stroke="#000000" cx="131.8801" cy="-233.1573" rx="3.2" ry="3.2"/>
</g>
<!-- mensagens -->
<g id="node6" class="node">
<title>mensagens</title>
<g id="a_node6"><a xlink:href="../../tables/mensagens.html" xlink:title="mensagens" target="_top">
<polygon fill="#ffffff" stroke="transparent" points="600,-218.2 600,-279.2 705,-279.2 705,-218.2 600,-218.2"/>
<polygon fill="#f5f5f5" stroke="transparent" points="600.5,-255.7 600.5,-278.7 705.5,-278.7 705.5,-255.7 600.5,-255.7"/>
<polygon fill="none" stroke="#000000" points="600.5,-255.7 600.5,-278.7 705.5,-278.7 705.5,-255.7 600.5,-255.7"/>
<text text-anchor="start" x="605.5" y="-264.3" font-family="Helvetica,sans-Serif" font-weight="bold" font-size="11.00" fill="#000000">mensagens</text>
<text text-anchor="start" x="671.0219" y="-263.8" font-family="Helvetica,sans-Serif" font-size="11.00" fill="#000000">[table]</text>
<polygon fill="none" stroke="#000000" points="600.5,-236.7 600.5,-255.7 705.5,-255.7 705.5,-236.7 600.5,-236.7"/>
<text text-anchor="start" x="603.5" y="-242.8" font-family="Helvetica,sans-Serif" font-size="11.00" fill="#000000">...</text>
<polygon fill="#ffffff" stroke="transparent" points="600.5,-217.7 600.5,-236.7 651.5,-236.7 651.5,-217.7 600.5,-217.7"/>
<polygon fill="none" stroke="#000000" points="600.5,-217.7 600.5,-236.7 651.5,-236.7 651.5,-217.7 600.5,-217.7"/>
<text text-anchor="start" x="603.5" y="-223.8" font-family="Helvetica,sans-Serif" font-size="11.00" fill="#000000">&lt; 2</text>
<polygon fill="#ffffff" stroke="transparent" points="651.5,-217.7 651.5,-236.7 678.5,-236.7 678.5,-217.7 651.5,-217.7"/>
<polygon fill="none" stroke="#000000" points="651.5,-217.7 651.5,-236.7 678.5,-236.7 678.5,-217.7 651.5,-217.7"/>
<text text-anchor="start" x="669.3862" y="-223.8" font-family="Helvetica,sans-Serif" font-size="11.00" fill="#000000"> &#160;</text>
<polygon fill="#ffffff" stroke="transparent" points="678.5,-217.7 678.5,-236.7 705.5,-236.7 705.5,-217.7 678.5,-217.7"/>
<polygon fill="none" stroke="#000000" points="678.5,-217.7 678.5,-236.7 705.5,-236.7 705.5,-217.7 678.5,-217.7"/>
<text text-anchor="start" x="696.3862" y="-223.8" font-family="Helvetica,sans-Serif" font-size="11.00" fill="#000000"> &#160;</text>
</a>
</g>
</g>
<!-- mensagens&#45;&gt;encontros -->
<g id="edge5" class="edge">
<title>mensagens:w&#45;&gt;encontros:e</title>
<path fill="none" stroke="#000000" d="M586.1381,-248.3834C544.732,-266.3709 583.5061,-368.7 525,-368.7"/>
<polygon fill="#000000" stroke="#000000" points="592.6361,-247.1694 601.1612,-249.2388 596.568,-246.4347 600.5,-245.7 600.5,-245.7 600.5,-245.7 596.568,-246.4347 599.8388,-242.1612 592.6361,-247.1694 592.6361,-247.1694"/>
<ellipse fill="none" stroke="#000000" cx="589.4905" cy="-247.7571" rx="3.2" ry="3.2"/>
</g>
<!-- mensagens&#45;&gt;usuarios -->
<g id="edge6" class="edge">
<title>mensagens:w&#45;&gt;usuarios:e</title>
<path fill="none" stroke="#000000" d="M586.2732,-242.6302C559.7748,-227.7371 596.6784,-162.6715 559,-136.7 459.6128,-68.1931 310.7255,-124.7644 232.2514,-163.6421"/>
<polygon fill="#000000" stroke="#000000" points="592.68,-244.0126 599.7407,-249.219 596.59,-244.8563 600.5,-245.7 600.5,-245.7 600.5,-245.7 596.59,-244.8563 601.2593,-242.181 592.68,-244.0126 592.68,-244.0126"/>
<ellipse fill="none" stroke="#000000" cx="589.552" cy="-243.3376" rx="3.2" ry="3.2"/>
</g>
<!-- token -->
<g id="node7" class="node">
<title>token</title>
<g id="a_node7"><a xlink:href="../../tables/token.html" xlink:title="token" target="_top">
<polygon fill="#ffffff" stroke="transparent" points="277,-38.2 277,-99.2 348,-99.2 348,-38.2 277,-38.2"/>
<polygon fill="#f5f5f5" stroke="transparent" points="277.5,-75.7 277.5,-98.7 348.5,-98.7 348.5,-75.7 277.5,-75.7"/>
<polygon fill="none" stroke="#000000" points="277.5,-75.7 277.5,-98.7 348.5,-98.7 348.5,-75.7 277.5,-75.7"/>
<text text-anchor="start" x="282.5" y="-84.3" font-family="Helvetica,sans-Serif" font-weight="bold" font-size="11.00" fill="#000000">token</text>
<text text-anchor="start" x="314.0219" y="-83.8" font-family="Helvetica,sans-Serif" font-size="11.00" fill="#000000">[table]</text>
<polygon fill="none" stroke="#000000" points="277.5,-56.7 277.5,-75.7 348.5,-75.7 348.5,-56.7 277.5,-56.7"/>
<text text-anchor="start" x="280.5" y="-62.8" font-family="Helvetica,sans-Serif" font-size="11.00" fill="#000000">...</text>
<polygon fill="#ffffff" stroke="transparent" points="277.5,-37.7 277.5,-56.7 311.5,-56.7 311.5,-37.7 277.5,-37.7"/>
<polygon fill="none" stroke="#000000" points="277.5,-37.7 277.5,-56.7 311.5,-56.7 311.5,-37.7 277.5,-37.7"/>
<text text-anchor="start" x="280.5" y="-43.8" font-family="Helvetica,sans-Serif" font-size="11.00" fill="#000000">&lt; 1</text>
<polygon fill="#ffffff" stroke="transparent" points="311.5,-37.7 311.5,-56.7 329.5,-56.7 329.5,-37.7 311.5,-37.7"/>
<polygon fill="none" stroke="#000000" points="311.5,-37.7 311.5,-56.7 329.5,-56.7 329.5,-37.7 311.5,-37.7"/>
<text text-anchor="start" x="320.3862" y="-43.8" font-family="Helvetica,sans-Serif" font-size="11.00" fill="#000000"> &#160;</text>
<polygon fill="#ffffff" stroke="transparent" points="329.5,-37.7 329.5,-56.7 348.5,-56.7 348.5,-37.7 329.5,-37.7"/>
<polygon fill="none" stroke="#000000" points="329.5,-37.7 329.5,-56.7 348.5,-56.7 348.5,-37.7 329.5,-37.7"/>
<text text-anchor="start" x="339.3862" y="-43.8" font-family="Helvetica,sans-Serif" font-size="11.00" fill="#000000"> &#160;</text>
</a>
</g>
</g>
<!-- token&#45;&gt;usuarios -->
<g id="edge7" class="edge">
<title>token:w&#45;&gt;usuarios:e</title>
<path fill="none" stroke="#000000" d="M263.0805,-67.5044C224.9493,-77.2535 201.6851,-124.4337 189.693,-157.9967"/>
<polygon fill="#000000" stroke="#000000" points="269.5619,-66.6934 277.947,-69.2721 273.531,-66.1967 277.5,-65.7 277.5,-65.7 277.5,-65.7 273.531,-66.1967 277.053,-62.1279 269.5619,-66.6934 269.5619,-66.6934"/>
<ellipse fill="none" stroke="#000000" cx="266.3867" cy="-67.0908" rx="3.2" ry="3.2"/>
</g>
<!-- usuario_grupo -->
<g id="node8" class="node">
<title>usuario_grupo</title>
<g id="a_node8"><a xlink:href="../../tables/usuario_grupo.html" xlink:title="usuario_grupo" target="_top">
<polygon fill="#ffffff" stroke="transparent" points="414.5,-259.2 414.5,-320.2 537.5,-320.2 537.5,-259.2 414.5,-259.2"/>
<polygon fill="#f5f5f5" stroke="transparent" points="415,-296.7 415,-319.7 538,-319.7 538,-296.7 415,-296.7"/>
<polygon fill="none" stroke="#000000" points="415,-296.7 415,-319.7 538,-319.7 538,-296.7 415,-296.7"/>
<text text-anchor="start" x="420" y="-305.3" font-family="Helvetica,sans-Serif" font-weight="bold" font-size="11.00" fill="#000000">usuario_grupo</text>
<text text-anchor="start" x="503.5219" y="-304.8" font-family="Helvetica,sans-Serif" font-size="11.00" fill="#000000">[table]</text>
<polygon fill="none" stroke="#000000" points="415,-277.7 415,-296.7 538,-296.7 538,-277.7 415,-277.7"/>
<text text-anchor="start" x="418" y="-283.8" font-family="Helvetica,sans-Serif" font-size="11.00" fill="#000000">...</text>
<polygon fill="#ffffff" stroke="transparent" points="415,-258.7 415,-277.7 475,-277.7 475,-258.7 415,-258.7"/>
<polygon fill="none" stroke="#000000" points="415,-258.7 415,-277.7 475,-277.7 475,-258.7 415,-258.7"/>
<text text-anchor="start" x="418" y="-264.8" font-family="Helvetica,sans-Serif" font-size="11.00" fill="#000000">&lt; 2</text>
<polygon fill="#ffffff" stroke="transparent" points="475,-258.7 475,-277.7 506,-277.7 506,-258.7 475,-258.7"/>
<polygon fill="none" stroke="#000000" points="475,-258.7 475,-277.7 506,-277.7 506,-258.7 475,-258.7"/>
<text text-anchor="start" x="496.8862" y="-264.8" font-family="Helvetica,sans-Serif" font-size="11.00" fill="#000000"> &#160;</text>
<polygon fill="#ffffff" stroke="transparent" points="506,-258.7 506,-277.7 538,-277.7 538,-258.7 506,-258.7"/>
<polygon fill="none" stroke="#000000" points="506,-258.7 506,-277.7 538,-277.7 538,-258.7 506,-258.7"/>
<text text-anchor="start" x="528.8862" y="-264.8" font-family="Helvetica,sans-Serif" font-size="11.00" fill="#000000"> &#160;</text>
</a>
</g>
</g>
<!-- usuario_grupo&#45;&gt;grupos -->
<g id="edge10" class="edge">
<title>usuario_grupo:w&#45;&gt;grupos:e</title>
<path fill="none" stroke="#000000" d="M400.8542,-289.8387C382.1331,-299.2684 379.8112,-326.7 352.5,-326.7"/>
<polygon fill="#000000" stroke="#000000" points="407.1899,-288.433 415.7798,-290.2145 411.095,-287.5665 415,-286.7 415,-286.7 415,-286.7 411.095,-287.5665 414.2202,-283.1855 407.1899,-288.433 407.1899,-288.433"/>
<ellipse fill="none" stroke="#000000" cx="404.0659" cy="-289.1262" rx="3.2" ry="3.2"/>
</g>
<!-- usuario_grupo&#45;&gt;usuarios -->
<g id="edge11" class="edge">
<title>usuario_grupo:w&#45;&gt;usuarios:e</title>
<path fill="none" stroke="#000000" d="M400.8175,-283.666C377.6568,-271.4073 392.2702,-225.3037 360,-206.7 321.4695,-184.4873 270.3877,-182.5528 232.4014,-185.266"/>
<polygon fill="#000000" stroke="#000000" points="407.177,-285.0264 414.2469,-290.2203 411.0885,-285.8632 415,-286.7 415,-286.7 415,-286.7 411.0885,-285.8632 415.7531,-283.1797 407.177,-285.0264 407.177,-285.0264"/>
<ellipse fill="none" stroke="#000000" cx="404.0478" cy="-284.357" rx="3.2" ry="3.2"/>
</g>
<!-- usuario_turma -->
<g id="node9" class="node">
<title>usuario_turma</title>
<g id="a_node9"><a xlink:href="../../tables/usuario_turma.html" xlink:title="usuario_turma" target="_top">
<polygon fill="#ffffff" stroke="transparent" points="401,-147.7 401,-237.7 551,-237.7 551,-147.7 401,-147.7"/>
<polygon fill="#f5f5f5" stroke="transparent" points="403,-212.7 403,-235.7 549,-235.7 549,-212.7 403,-212.7"/>
<polygon fill="none" stroke="#000000" points="403,-212.7 403,-235.7 549,-235.7 549,-212.7 403,-212.7"/>
<text text-anchor="start" x="408" y="-221.3" font-family="Helvetica,sans-Serif" font-weight="bold" font-size="11.00" fill="#000000">usuario_turma</text>
<text text-anchor="start" x="514.0437" y="-220.8" font-family="Helvetica,sans-Serif" font-size="11.00" fill="#000000">[table]</text>
<polygon fill="none" stroke="#000000" points="403,-190.7 403,-212.7 507,-212.7 507,-190.7 403,-190.7"/>
<image xlink:href="../../images/foreignKeys.png" width="11px" height="12px" preserveAspectRatio="xMinYMin meet" x="408" y="-207.7"/>
<text text-anchor="start" x="423" y="-197.8" font-family="Helvetica,sans-Serif" font-size="11.00" fill="#000000">id_turma</text>
<polygon fill="none" stroke="#000000" points="507,-190.7 507,-212.7 549,-212.7 549,-190.7 507,-190.7"/>
<text text-anchor="start" x="509.9644" y="-198.4" font-family="Helvetica,sans-Serif" font-size="11.00" fill="#000000">int4[10]</text>
<polygon fill="none" stroke="#000000" points="403,-168.7 403,-190.7 507,-190.7 507,-168.7 403,-168.7"/>
<image xlink:href="../../images/foreignKeys.png" width="11px" height="12px" preserveAspectRatio="xMinYMin meet" x="408" y="-185.7"/>
<text text-anchor="start" x="423" y="-175.8" font-family="Helvetica,sans-Serif" font-size="11.00" fill="#000000">id_usuario</text>
<polygon fill="none" stroke="#000000" points="507,-168.7 507,-190.7 549,-190.7 549,-168.7 507,-168.7"/>
<text text-anchor="start" x="509.9644" y="-176.4" font-family="Helvetica,sans-Serif" font-size="11.00" fill="#000000">int4[10]</text>
<polygon fill="#ffffff" stroke="transparent" points="403,-149.7 403,-168.7 459,-168.7 459,-149.7 403,-149.7"/>
<polygon fill="none" stroke="#000000" points="403,-149.7 403,-168.7 459,-168.7 459,-149.7 403,-149.7"/>
<text text-anchor="start" x="406" y="-155.8" font-family="Helvetica,sans-Serif" font-size="11.00" fill="#000000">&lt; 2</text>
<polygon fill="#ffffff" stroke="transparent" points="459,-149.7 459,-168.7 507,-168.7 507,-149.7 459,-149.7"/>
<polygon fill="none" stroke="#000000" points="459,-149.7 459,-168.7 507,-168.7 507,-149.7 459,-149.7"/>
<text text-anchor="start" x="497.8862" y="-155.8" font-family="Helvetica,sans-Serif" font-size="11.00" fill="#000000"> &#160;</text>
<polygon fill="#ffffff" stroke="transparent" points="507,-149.7 507,-168.7 549,-168.7 549,-149.7 507,-149.7"/>
<polygon fill="none" stroke="#000000" points="507,-149.7 507,-168.7 549,-168.7 549,-149.7 507,-149.7"/>
<text text-anchor="start" x="530.4053" y="-155.8" font-family="Helvetica,sans-Serif" font-size="11.00" fill="#000000">0 &gt;</text>
<polygon fill="none" stroke="#000000" stroke-width="2" points="402,-148.7 402,-236.7 550,-236.7 550,-148.7 402,-148.7"/>
</a>
</g>
</g>
<!-- usuario_turma&#45;&gt;turmas -->
<g id="edge12" class="edge">
<title>usuario_turma:w&#45;&gt;turmas:e</title>
<path fill="none" stroke="#000000" d="M388.4743,-203.1849C378.6315,-205.1335 369.0149,-208.8363 360.1134,-213.3077"/>
<polygon fill="#000000" stroke="#000000" points="395.0415,-202.5136 403.3661,-205.2813 399.0207,-202.1068 403,-201.7 403,-201.7 403,-201.7 399.0207,-202.1068 402.6339,-198.1187 395.0415,-202.5136 395.0415,-202.5136"/>
<ellipse fill="none" stroke="#000000" cx="391.8581" cy="-202.839" rx="3.2" ry="3.2"/>
</g>
<!-- usuario_turma&#45;&gt;usuarios -->
<g id="edge13" class="edge">
<title>usuario_turma:w&#45;&gt;usuarios:e</title>
<path fill="none" stroke="#000000" d="M388.4601,-179.6778C338.7342,-179.5312 321.0615,-178.8209 265,-182.7 254.4144,-183.4324 243.1239,-184.5278 232.3337,-185.7284"/>
<polygon fill="#000000" stroke="#000000" points="395,-179.6878 402.9945,-183.3 399,-179.6939 403,-179.7 403,-179.7 403,-179.7 399,-179.6939 403.0055,-176.1 395,-179.6878 395,-179.6878"/>
<ellipse fill="none" stroke="#000000" cx="391.8" cy="-179.6829" rx="3.2" ry="3.2"/>
</g>
</g>
</svg>
