<?xml version="1.0" encoding="UTF-8" standalone="no"?>
<!DOCTYPE svg PUBLIC "-//W3C//DTD SVG 1.1//EN"
 "http://www.w3.org/Graphics/SVG/1.1/DTD/svg11.dtd">
<!-- Generated by graphviz version 2.40.1 (20161225.0304)
 -->
<!-- Title: oneDegreeRelationshipsDiagram Pages: 1 -->
<svg width="653pt" height="612pt"
 viewBox="0.00 0.00 653.00 611.70" xmlns="http://www.w3.org/2000/svg" xmlns:xlink="http://www.w3.org/1999/xlink">
<g id="graph0" class="graph" transform="scale(1 1) rotate(0) translate(4 607.7)">
<title>oneDegreeRelationshipsDiagram</title>
<polygon fill="#ffffff" stroke="transparent" points="-4,4 -4,-607.7 649,-607.7 649,4 -4,4"/>
<text text-anchor="middle" x="72.4936" y="-7.3" font-family="Helvetica,sans-Serif" font-size="11.00" fill="#000000">Generated by SchemaSpy</text>
<!-- encontro -->
<g id="node1" class="node">
<title>encontro</title>
<g id="a_node1"><a xlink:href="../../tables/encontro.html" xlink:title="encontro" target="_top">
<polygon fill="#ffffff" stroke="transparent" points="530.5,-230.2 530.5,-401.2 620.5,-401.2 620.5,-230.2 530.5,-230.2"/>
<polygon fill="#f5f5f5" stroke="transparent" points="530.5,-377.7 530.5,-400.7 620.5,-400.7 620.5,-377.7 530.5,-377.7"/>
<polygon fill="none" stroke="#000000" points="530.5,-377.7 530.5,-400.7 620.5,-400.7 620.5,-377.7 530.5,-377.7"/>
<text text-anchor="start" x="535.5" y="-386.3" font-family="Helvetica,sans-Serif" font-weight="bold" font-size="11.00" fill="#000000">encontro</text>
<text text-anchor="start" x="586.0219" y="-385.8" font-family="Helvetica,sans-Serif" font-size="11.00" fill="#000000">[table]</text>
<polygon fill="none" stroke="#000000" points="530.5,-355.7 530.5,-377.7 620.5,-377.7 620.5,-355.7 530.5,-355.7"/>
<image xlink:href="../../images/primaryKeys.png" width="11px" height="12px" preserveAspectRatio="xMinYMin meet" x="535.5" y="-372.7"/>
<text text-anchor="start" x="551.5" y="-362.8" font-family="Helvetica,sans-Serif" font-size="11.00" fill="#000000">id</text>
<polygon fill="none" stroke="#000000" points="530.5,-333.7 530.5,-355.7 620.5,-355.7 620.5,-333.7 530.5,-333.7"/>
<image xlink:href="../../images/foreignKeys.png" width="11px" height="12px" preserveAspectRatio="xMinYMin meet" x="535.5" y="-350.7"/>
<text text-anchor="start" x="551.5" y="-340.8" font-family="Helvetica,sans-Serif" font-size="11.00" fill="#000000">id_grupo</text>
<polygon fill="none" stroke="#000000" points="530.5,-311.7 530.5,-333.7 620.5,-333.7 620.5,-311.7 530.5,-311.7"/>
<image xlink:href="../../images/foreignKeys.png" width="11px" height="12px" preserveAspectRatio="xMinYMin meet" x="535.5" y="-328.7"/>
<text text-anchor="start" x="551.5" y="-318.8" font-family="Helvetica,sans-Serif" font-size="11.00" fill="#000000">id_turma</text>
<polygon fill="none" stroke="#000000" points="530.5,-289.7 530.5,-311.7 620.5,-311.7 620.5,-289.7 530.5,-289.7"/>
<image xlink:href="../../images/foreignKeys.png" width="11px" height="12px" preserveAspectRatio="xMinYMin meet" x="535.5" y="-306.7"/>
<text text-anchor="start" x="551.5" y="-296.8" font-family="Helvetica,sans-Serif" font-size="11.00" fill="#000000">id_encontro</text>
<polygon fill="none" stroke="#000000" points="530.5,-267.7 530.5,-289.7 620.5,-289.7 620.5,-267.7 530.5,-267.7"/>
<image xlink:href="../../images/foreignKeys.png" width="11px" height="12px" preserveAspectRatio="xMinYMin meet" x="535.5" y="-284.7"/>
<text text-anchor="start" x="551.5" y="-274.8" font-family="Helvetica,sans-Serif" font-size="11.00" fill="#000000">id_user</text>
<polygon fill="none" stroke="#000000" points="530.5,-248.7 530.5,-267.7 620.5,-267.7 620.5,-248.7 530.5,-248.7"/>
<text text-anchor="start" x="533.5" y="-254.8" font-family="Helvetica,sans-Serif" font-size="11.00" fill="#000000">...</text>
<polygon fill="#ffffff" stroke="transparent" points="530.5,-229.7 530.5,-248.7 569.5,-248.7 569.5,-229.7 530.5,-229.7"/>
<polygon fill="none" stroke="#000000" points="530.5,-229.7 530.5,-248.7 569.5,-248.7 569.5,-229.7 530.5,-229.7"/>
<text text-anchor="start" x="533.5" y="-235.8" font-family="Helvetica,sans-Serif" font-size="11.00" fill="#000000">&lt; 4</text>
<polygon fill="#ffffff" stroke="transparent" points="569.5,-229.7 569.5,-248.7 590.5,-248.7 590.5,-229.7 569.5,-229.7"/>
<polygon fill="none" stroke="#000000" points="569.5,-229.7 569.5,-248.7 590.5,-248.7 590.5,-229.7 569.5,-229.7"/>
<text text-anchor="start" x="581.3862" y="-235.8" font-family="Helvetica,sans-Serif" font-size="11.00" fill="#000000"> &#160;</text>
<polygon fill="#ffffff" stroke="transparent" points="590.5,-229.7 590.5,-248.7 620.5,-248.7 620.5,-229.7 590.5,-229.7"/>
<polygon fill="none" stroke="#000000" points="590.5,-229.7 590.5,-248.7 620.5,-248.7 620.5,-229.7 590.5,-229.7"/>
<text text-anchor="start" x="601.9053" y="-235.8" font-family="Helvetica,sans-Serif" font-size="11.00" fill="#000000">2 &gt;</text>
</a>
</g>
</g>
<!-- grupo -->
<g id="node2" class="node">
<title>grupo</title>
<g id="a_node2"><a xlink:href="../../tables/grupo.html" xlink:title="grupo" target="_top">
<polygon fill="#ffffff" stroke="transparent" points="360,-411.2 360,-560.2 465,-560.2 465,-411.2 360,-411.2"/>
<polygon fill="#f5f5f5" stroke="transparent" points="360.5,-536.7 360.5,-559.7 465.5,-559.7 465.5,-536.7 360.5,-536.7"/>
<polygon fill="none" stroke="#000000" points="360.5,-536.7 360.5,-559.7 465.5,-559.7 465.5,-536.7 360.5,-536.7"/>
<text text-anchor="start" x="365.5" y="-545.3" font-family="Helvetica,sans-Serif" font-weight="bold" font-size="11.00" fill="#000000">grupo</text>
<text text-anchor="start" x="430.5437" y="-544.8" font-family="Helvetica,sans-Serif" font-size="11.00" fill="#000000">[table]</text>
<polygon fill="none" stroke="#000000" points="360.5,-514.7 360.5,-536.7 465.5,-536.7 465.5,-514.7 360.5,-514.7"/>
<image xlink:href="../../images/primaryKeys.png" width="11px" height="12px" preserveAspectRatio="xMinYMin meet" x="365.5" y="-531.7"/>
<text text-anchor="start" x="380.5" y="-521.8" font-family="Helvetica,sans-Serif" font-size="11.00" fill="#000000">id</text>
<polygon fill="#ffffff" stroke="transparent" points="360.5,-492.7 360.5,-514.7 465.5,-514.7 465.5,-492.7 360.5,-492.7"/>
<polygon fill="none" stroke="#000000" points="360.5,-492.7 360.5,-514.7 465.5,-514.7 465.5,-492.7 360.5,-492.7"/>
<text text-anchor="start" x="380.5" y="-499.8" font-family="Helvetica,sans-Serif" font-size="11.00" fill="#000000">nome</text>
<polygon fill="none" stroke="#000000" points="360.5,-470.7 360.5,-492.7 465.5,-492.7 465.5,-470.7 360.5,-470.7"/>
<image xlink:href="../../images/foreignKeys.png" width="11px" height="12px" preserveAspectRatio="xMinYMin meet" x="365.5" y="-487.7"/>
<text text-anchor="start" x="380.5" y="-477.8" font-family="Helvetica,sans-Serif" font-size="11.00" fill="#000000">id_user</text>
<polygon fill="none" stroke="#000000" points="360.5,-448.7 360.5,-470.7 465.5,-470.7 465.5,-448.7 360.5,-448.7"/>
<image xlink:href="../../images/foreignKeys.png" width="11px" height="12px" preserveAspectRatio="xMinYMin meet" x="365.5" y="-465.7"/>
<text text-anchor="start" x="380.5" y="-455.8" font-family="Helvetica,sans-Serif" font-size="11.00" fill="#000000">id_curso</text>
<polygon fill="none" stroke="#000000" points="360.5,-429.7 360.5,-448.7 465.5,-448.7 465.5,-429.7 360.5,-429.7"/>
<text text-anchor="start" x="363.5" y="-435.8" font-family="Helvetica,sans-Serif" font-size="11.00" fill="#000000">...</text>
<polygon fill="#ffffff" stroke="transparent" points="360.5,-410.7 360.5,-429.7 406.5,-429.7 406.5,-410.7 360.5,-410.7"/>
<polygon fill="none" stroke="#000000" points="360.5,-410.7 360.5,-429.7 406.5,-429.7 406.5,-410.7 360.5,-410.7"/>
<text text-anchor="start" x="363.5" y="-416.8" font-family="Helvetica,sans-Serif" font-size="11.00" fill="#000000">&lt; 2</text>
<polygon fill="#ffffff" stroke="transparent" points="406.5,-410.7 406.5,-429.7 431.5,-429.7 431.5,-410.7 406.5,-410.7"/>
<polygon fill="none" stroke="#000000" points="406.5,-410.7 406.5,-429.7 431.5,-429.7 431.5,-410.7 406.5,-410.7"/>
<text text-anchor="start" x="422.3862" y="-416.8" font-family="Helvetica,sans-Serif" font-size="11.00" fill="#000000"> &#160;</text>
<polygon fill="#ffffff" stroke="transparent" points="431.5,-410.7 431.5,-429.7 465.5,-429.7 465.5,-410.7 431.5,-410.7"/>
<polygon fill="none" stroke="#000000" points="431.5,-410.7 431.5,-429.7 465.5,-429.7 465.5,-410.7 431.5,-410.7"/>
<text text-anchor="start" x="446.9053" y="-416.8" font-family="Helvetica,sans-Serif" font-size="11.00" fill="#000000">2 &gt;</text>
</a>
</g>
</g>
<!-- encontro&#45;&gt;grupo -->
<g id="edge1" class="edge">
<title>encontro:w&#45;&gt;grupo:e</title>
<path fill="none" stroke="#000000" d="M516.2558,-346.8588C457.8878,-367.2801 545.4653,-525.7 465.5,-525.7"/>
<polygon fill="#000000" stroke="#000000" points="522.5903,-345.8988 531.0395,-348.2594 526.5452,-345.2994 530.5,-344.7 530.5,-344.7 530.5,-344.7 526.5452,-345.2994 529.9605,-341.1406 522.5903,-345.8988 522.5903,-345.8988"/>
<ellipse fill="none" stroke="#000000" cx="519.4265" cy="-346.3783" rx="3.2" ry="3.2"/>
</g>
<!-- turma -->
<g id="node3" class="node">
<title>turma</title>
<g id="a_node3"><a xlink:href="../../tables/turma.html" xlink:title="turma" target="_top">
<polygon fill="#ffffff" stroke="transparent" points="374,-38.2 374,-187.2 451,-187.2 451,-38.2 374,-38.2"/>
<polygon fill="#f5f5f5" stroke="transparent" points="374.5,-163.7 374.5,-186.7 451.5,-186.7 451.5,-163.7 374.5,-163.7"/>
<polygon fill="none" stroke="#000000" points="374.5,-163.7 374.5,-186.7 451.5,-186.7 451.5,-163.7 374.5,-163.7"/>
<text text-anchor="start" x="379.5" y="-172.3" font-family="Helvetica,sans-Serif" font-weight="bold" font-size="11.00" fill="#000000">turma</text>
<text text-anchor="start" x="416.5437" y="-171.8" font-family="Helvetica,sans-Serif" font-size="11.00" fill="#000000">[table]</text>
<polygon fill="none" stroke="#000000" points="374.5,-141.7 374.5,-163.7 451.5,-163.7 451.5,-141.7 374.5,-141.7"/>
<image xlink:href="../../images/primaryKeys.png" width="11px" height="12px" preserveAspectRatio="xMinYMin meet" x="379.5" y="-158.7"/>
<text text-anchor="start" x="394.5" y="-148.8" font-family="Helvetica,sans-Serif" font-size="11.00" fill="#000000">id</text>
<polygon fill="#ffffff" stroke="transparent" points="374.5,-119.7 374.5,-141.7 451.5,-141.7 451.5,-119.7 374.5,-119.7"/>
<polygon fill="none" stroke="#000000" points="374.5,-119.7 374.5,-141.7 451.5,-141.7 451.5,-119.7 374.5,-119.7"/>
<text text-anchor="start" x="394.5" y="-126.8" font-family="Helvetica,sans-Serif" font-size="11.00" fill="#000000">nome</text>
<polygon fill="none" stroke="#000000" points="374.5,-97.7 374.5,-119.7 451.5,-119.7 451.5,-97.7 374.5,-97.7"/>
<image xlink:href="../../images/foreignKeys.png" width="11px" height="12px" preserveAspectRatio="xMinYMin meet" x="379.5" y="-114.7"/>
<text text-anchor="start" x="394.5" y="-104.8" font-family="Helvetica,sans-Serif" font-size="11.00" fill="#000000">id_user</text>
<polygon fill="none" stroke="#000000" points="374.5,-75.7 374.5,-97.7 451.5,-97.7 451.5,-75.7 374.5,-75.7"/>
<image xlink:href="../../images/foreignKeys.png" width="11px" height="12px" preserveAspectRatio="xMinYMin meet" x="379.5" y="-92.7"/>
<text text-anchor="start" x="394.5" y="-82.8" font-family="Helvetica,sans-Serif" font-size="11.00" fill="#000000">id_curso</text>
<polygon fill="none" stroke="#000000" points="374.5,-56.7 374.5,-75.7 451.5,-75.7 451.5,-56.7 374.5,-56.7"/>
<text text-anchor="start" x="377.5" y="-62.8" font-family="Helvetica,sans-Serif" font-size="11.00" fill="#000000">...</text>
<polygon fill="#ffffff" stroke="transparent" points="374.5,-37.7 374.5,-56.7 406.5,-56.7 406.5,-37.7 374.5,-37.7"/>
<polygon fill="none" stroke="#000000" points="374.5,-37.7 374.5,-56.7 406.5,-56.7 406.5,-37.7 374.5,-37.7"/>
<text text-anchor="start" x="377.5" y="-43.8" font-family="Helvetica,sans-Serif" font-size="11.00" fill="#000000">&lt; 2</text>
<polygon fill="#ffffff" stroke="transparent" points="406.5,-37.7 406.5,-56.7 424.5,-56.7 424.5,-37.7 406.5,-37.7"/>
<polygon fill="none" stroke="#000000" points="406.5,-37.7 406.5,-56.7 424.5,-56.7 424.5,-37.7 406.5,-37.7"/>
<text text-anchor="start" x="415.3862" y="-43.8" font-family="Helvetica,sans-Serif" font-size="11.00" fill="#000000"> &#160;</text>
<polygon fill="#ffffff" stroke="transparent" points="424.5,-37.7 424.5,-56.7 451.5,-56.7 451.5,-37.7 424.5,-37.7"/>
<polygon fill="none" stroke="#000000" points="424.5,-37.7 424.5,-56.7 451.5,-56.7 451.5,-37.7 424.5,-37.7"/>
<text text-anchor="start" x="432.9053" y="-43.8" font-family="Helvetica,sans-Serif" font-size="11.00" fill="#000000">2 &gt;</text>
</a>
</g>
</g>
<!-- encontro&#45;&gt;turma -->
<g id="edge2" class="edge">
<title>encontro:w&#45;&gt;turma:e</title>
<path fill="none" stroke="#000000" d="M516.0634,-320.5506C458.0693,-300.8715 529.2826,-152.7 451.5,-152.7"/>
<polygon fill="#000000" stroke="#000000" points="522.5872,-321.5218 529.9698,-326.2608 526.5436,-322.1109 530.5,-322.7 530.5,-322.7 530.5,-322.7 526.5436,-322.1109 531.0302,-319.1392 522.5872,-321.5218 522.5872,-321.5218"/>
<ellipse fill="none" stroke="#000000" cx="519.4221" cy="-321.0506" rx="3.2" ry="3.2"/>
</g>
<!-- usuario -->
<g id="node4" class="node">
<title>usuario</title>
<g id="a_node4"><a xlink:href="../../tables/usuario.html" xlink:title="usuario" target="_top">
<polygon fill="#ffffff" stroke="transparent" points="144,-96.7 144,-384.7 311,-384.7 311,-96.7 144,-96.7"/>
<polygon fill="#f5f5f5" stroke="transparent" points="146.5,-359.7 146.5,-382.7 309.5,-382.7 309.5,-359.7 146.5,-359.7"/>
<polygon fill="none" stroke="#000000" points="146.5,-359.7 146.5,-382.7 309.5,-382.7 309.5,-359.7 146.5,-359.7"/>
<text text-anchor="start" x="151.5" y="-368.3" font-family="Helvetica,sans-Serif" font-weight="bold" font-size="11.00" fill="#000000">usuario</text>
<text text-anchor="start" x="274.5437" y="-367.8" font-family="Helvetica,sans-Serif" font-size="11.00" fill="#000000">[table]</text>
<polygon fill="none" stroke="#000000" points="146.5,-337.7 146.5,-359.7 225.5,-359.7 225.5,-337.7 146.5,-337.7"/>
<text text-anchor="start" x="166.5" y="-344.8" font-family="Helvetica,sans-Serif" font-size="11.00" fill="#000000">dtype</text>
<polygon fill="none" stroke="#000000" points="225.5,-337.7 225.5,-359.7 309.5,-359.7 309.5,-337.7 225.5,-337.7"/>
<text text-anchor="start" x="228.5" y="-345.4" font-family="Helvetica,sans-Serif" font-size="11.00" fill="#000000">varchar[31]</text>
<polygon fill="none" stroke="#000000" points="146.5,-315.7 146.5,-337.7 225.5,-337.7 225.5,-315.7 146.5,-315.7"/>
<image xlink:href="../../images/primaryKeys.png" width="11px" height="12px" preserveAspectRatio="xMinYMin meet" x="151.5" y="-332.7"/>
<text text-anchor="start" x="166.5" y="-322.8" font-family="Helvetica,sans-Serif" font-size="11.00" fill="#000000">id</text>
<polygon fill="none" stroke="#000000" points="225.5,-315.7 225.5,-337.7 309.5,-337.7 309.5,-315.7 225.5,-315.7"/>
<text text-anchor="start" x="228.5" y="-323.4" font-family="Helvetica,sans-Serif" font-size="11.00" fill="#000000">serial[10]</text>
<polygon fill="#ffffff" stroke="transparent" points="146.5,-293.7 146.5,-315.7 225.5,-315.7 225.5,-293.7 146.5,-293.7"/>
<polygon fill="none" stroke="#000000" points="146.5,-293.7 146.5,-315.7 225.5,-315.7 225.5,-293.7 146.5,-293.7"/>
<text text-anchor="start" x="166.5" y="-300.8" font-family="Helvetica,sans-Serif" font-size="11.00" fill="#000000">matricula</text>
<polygon fill="none" stroke="#000000" points="225.5,-293.7 225.5,-315.7 309.5,-315.7 309.5,-293.7 225.5,-293.7"/>
<text text-anchor="start" x="228.5" y="-301.4" font-family="Helvetica,sans-Serif" font-size="11.00" fill="#000000">varchar[255]</text>
<polygon fill="none" stroke="#000000" points="146.5,-271.7 146.5,-293.7 225.5,-293.7 225.5,-271.7 146.5,-271.7"/>
<text text-anchor="start" x="166.5" y="-278.8" font-family="Helvetica,sans-Serif" font-size="11.00" fill="#000000">data_nasc</text>
<polygon fill="none" stroke="#000000" points="225.5,-271.7 225.5,-293.7 309.5,-293.7 309.5,-271.7 225.5,-271.7"/>
<text text-anchor="start" x="228.3807" y="-279.4" font-family="Helvetica,sans-Serif" font-size="11.00" fill="#000000">timestamp[29,6]</text>
<polygon fill="#ffffff" stroke="transparent" points="146.5,-249.7 146.5,-271.7 225.5,-271.7 225.5,-249.7 146.5,-249.7"/>
<polygon fill="none" stroke="#000000" points="146.5,-249.7 146.5,-271.7 225.5,-271.7 225.5,-249.7 146.5,-249.7"/>
<text text-anchor="start" x="166.5" y="-256.8" font-family="Helvetica,sans-Serif" font-size="11.00" fill="#000000">email</text>
<polygon fill="none" stroke="#000000" points="225.5,-249.7 225.5,-271.7 309.5,-271.7 309.5,-249.7 225.5,-249.7"/>
<text text-anchor="start" x="228.5" y="-257.4" font-family="Helvetica,sans-Serif" font-size="11.00" fill="#000000">varchar[255]</text>
<polygon fill="#ffffff" stroke="transparent" points="146.5,-227.7 146.5,-249.7 225.5,-249.7 225.5,-227.7 146.5,-227.7"/>
<polygon fill="none" stroke="#000000" points="146.5,-227.7 146.5,-249.7 225.5,-249.7 225.5,-227.7 146.5,-227.7"/>
<text text-anchor="start" x="166.5" y="-234.8" font-family="Helvetica,sans-Serif" font-size="11.00" fill="#000000">nome</text>
<polygon fill="none" stroke="#000000" points="225.5,-227.7 225.5,-249.7 309.5,-249.7 309.5,-227.7 225.5,-227.7"/>
<text text-anchor="start" x="228.5" y="-235.4" font-family="Helvetica,sans-Serif" font-size="11.00" fill="#000000">varchar[100]</text>
<polygon fill="none" stroke="#000000" points="146.5,-205.7 146.5,-227.7 225.5,-227.7 225.5,-205.7 146.5,-205.7"/>
<text text-anchor="start" x="166.5" y="-212.8" font-family="Helvetica,sans-Serif" font-size="11.00" fill="#000000">password</text>
<polygon fill="none" stroke="#000000" points="225.5,-205.7 225.5,-227.7 309.5,-227.7 309.5,-205.7 225.5,-205.7"/>
<text text-anchor="start" x="228.5" y="-213.4" font-family="Helvetica,sans-Serif" font-size="11.00" fill="#000000">varchar[255]</text>
<polygon fill="#ffffff" stroke="transparent" points="146.5,-183.7 146.5,-205.7 225.5,-205.7 225.5,-183.7 146.5,-183.7"/>
<polygon fill="none" stroke="#000000" points="146.5,-183.7 146.5,-205.7 225.5,-205.7 225.5,-183.7 146.5,-183.7"/>
<text text-anchor="start" x="166.5" y="-190.8" font-family="Helvetica,sans-Serif" font-size="11.00" fill="#000000">siape</text>
<polygon fill="none" stroke="#000000" points="225.5,-183.7 225.5,-205.7 309.5,-205.7 309.5,-183.7 225.5,-183.7"/>
<text text-anchor="start" x="228.5" y="-191.4" font-family="Helvetica,sans-Serif" font-size="11.00" fill="#000000">varchar[255]</text>
<polygon fill="none" stroke="#000000" points="146.5,-161.7 146.5,-183.7 225.5,-183.7 225.5,-161.7 146.5,-161.7"/>
<text text-anchor="start" x="166.5" y="-168.8" font-family="Helvetica,sans-Serif" font-size="11.00" fill="#000000">situacao</text>
<polygon fill="none" stroke="#000000" points="225.5,-161.7 225.5,-183.7 309.5,-183.7 309.5,-161.7 225.5,-161.7"/>
<text text-anchor="start" x="228.5" y="-169.4" font-family="Helvetica,sans-Serif" font-size="11.00" fill="#000000">varchar[255]</text>
<polygon fill="none" stroke="#000000" points="146.5,-139.7 146.5,-161.7 225.5,-161.7 225.5,-139.7 146.5,-139.7"/>
<text text-anchor="start" x="166.5" y="-146.8" font-family="Helvetica,sans-Serif" font-size="11.00" fill="#000000">role</text>
<polygon fill="none" stroke="#000000" points="225.5,-139.7 225.5,-161.7 309.5,-161.7 309.5,-139.7 225.5,-139.7"/>
<text text-anchor="start" x="228.5" y="-147.4" font-family="Helvetica,sans-Serif" font-size="11.00" fill="#000000">varchar[255]</text>
<polygon fill="none" stroke="#000000" points="146.5,-117.7 146.5,-139.7 225.5,-139.7 225.5,-117.7 146.5,-117.7"/>
<image xlink:href="../../images/foreignKeys.png" width="11px" height="12px" preserveAspectRatio="xMinYMin meet" x="151.5" y="-134.7"/>
<text text-anchor="start" x="166.5" y="-124.8" font-family="Helvetica,sans-Serif" font-size="11.00" fill="#000000">id_curso</text>
<polygon fill="none" stroke="#000000" points="225.5,-117.7 225.5,-139.7 309.5,-139.7 309.5,-117.7 225.5,-117.7"/>
<text text-anchor="start" x="228.5" y="-125.4" font-family="Helvetica,sans-Serif" font-size="11.00" fill="#000000">int4[10]</text>
<polygon fill="#ffffff" stroke="transparent" points="146.5,-98.7 146.5,-117.7 190.5,-117.7 190.5,-98.7 146.5,-98.7"/>
<polygon fill="none" stroke="#000000" points="146.5,-98.7 146.5,-117.7 190.5,-117.7 190.5,-98.7 146.5,-98.7"/>
<text text-anchor="start" x="149.5" y="-104.8" font-family="Helvetica,sans-Serif" font-size="11.00" fill="#000000">&lt; 1</text>
<polygon fill="#ffffff" stroke="transparent" points="190.5,-98.7 190.5,-117.7 225.5,-117.7 225.5,-98.7 190.5,-98.7"/>
<polygon fill="none" stroke="#000000" points="190.5,-98.7 190.5,-117.7 225.5,-117.7 225.5,-98.7 190.5,-98.7"/>
<text text-anchor="start" x="216.3862" y="-104.8" font-family="Helvetica,sans-Serif" font-size="11.00" fill="#000000"> &#160;</text>
<polygon fill="#ffffff" stroke="transparent" points="225.5,-98.7 225.5,-117.7 309.5,-117.7 309.5,-98.7 225.5,-98.7"/>
<polygon fill="none" stroke="#000000" points="225.5,-98.7 225.5,-117.7 309.5,-117.7 309.5,-98.7 225.5,-98.7"/>
<text text-anchor="start" x="290.9053" y="-104.8" font-family="Helvetica,sans-Serif" font-size="11.00" fill="#000000">6 &gt;</text>
<polygon fill="none" stroke="#000000" stroke-width="2" points="145,-97.7 145,-383.7 310,-383.7 310,-97.7 145,-97.7"/>
</a>
</g>
</g>
<!-- encontro&#45;&gt;usuario -->
<g id="edge3" class="edge">
<title>encontro:w&#45;&gt;usuario:e</title>
<path fill="none" stroke="#000000" d="M516.1979,-276.5005C500.5788,-271.1237 494.8478,-257.4099 473,-252.7 420.4299,-241.367 398.5423,-225.7582 352,-252.7 319.1757,-271.7009 347.4272,-326.7 309.5,-326.7"/>
<polygon fill="#000000" stroke="#000000" points="522.593,-277.484 529.9528,-282.2582 526.5465,-278.092 530.5,-278.7 530.5,-278.7 530.5,-278.7 526.5465,-278.092 531.0472,-275.1418 522.593,-277.484 522.593,-277.484"/>
<ellipse fill="none" stroke="#000000" cx="519.4301" cy="-276.9975" rx="3.2" ry="3.2"/>
</g>
<!-- grupo&#45;&gt;usuario -->
<g id="edge5" class="edge">
<title>grupo:w&#45;&gt;usuario:e</title>
<path fill="none" stroke="#000000" d="M346.111,-478.8774C301.9716,-457.8697 376.2147,-326.7 309.5,-326.7"/>
<polygon fill="#000000" stroke="#000000" points="352.6496,-480.16 359.807,-485.2327 356.5748,-480.93 360.5,-481.7 360.5,-481.7 360.5,-481.7 356.5748,-480.93 361.193,-478.1673 352.6496,-480.16 352.6496,-480.16"/>
<ellipse fill="none" stroke="#000000" cx="349.5095" cy="-479.544" rx="3.2" ry="3.2"/>
</g>
<!-- curso -->
<g id="node5" class="node">
<title>curso</title>
<g id="a_node5"><a xlink:href="../../tables/curso.html" xlink:title="curso" target="_top">
<polygon fill="#ffffff" stroke="transparent" points="8,-80.2 8,-163.2 95,-163.2 95,-80.2 8,-80.2"/>
<polygon fill="#f5f5f5" stroke="transparent" points="8.5,-139.7 8.5,-162.7 95.5,-162.7 95.5,-139.7 8.5,-139.7"/>
<polygon fill="none" stroke="#000000" points="8.5,-139.7 8.5,-162.7 95.5,-162.7 95.5,-139.7 8.5,-139.7"/>
<text text-anchor="start" x="13.5" y="-148.3" font-family="Helvetica,sans-Serif" font-weight="bold" font-size="11.00" fill="#000000">curso</text>
<text text-anchor="start" x="60.5437" y="-147.8" font-family="Helvetica,sans-Serif" font-size="11.00" fill="#000000">[table]</text>
<polygon fill="none" stroke="#000000" points="8.5,-117.7 8.5,-139.7 95.5,-139.7 95.5,-117.7 8.5,-117.7"/>
<image xlink:href="../../images/primaryKeys.png" width="11px" height="12px" preserveAspectRatio="xMinYMin meet" x="13.5" y="-134.7"/>
<text text-anchor="start" x="28.5" y="-124.8" font-family="Helvetica,sans-Serif" font-size="11.00" fill="#000000">id</text>
<polygon fill="none" stroke="#000000" points="8.5,-98.7 8.5,-117.7 95.5,-117.7 95.5,-98.7 8.5,-98.7"/>
<text text-anchor="start" x="11.5" y="-104.8" font-family="Helvetica,sans-Serif" font-size="11.00" fill="#000000">...</text>
<polygon fill="#ffffff" stroke="transparent" points="8.5,-79.7 8.5,-98.7 41.5,-98.7 41.5,-79.7 8.5,-79.7"/>
<polygon fill="none" stroke="#000000" points="8.5,-79.7 8.5,-98.7 41.5,-98.7 41.5,-79.7 8.5,-79.7"/>
<text text-anchor="start" x="11.5" y="-85.8" font-family="Helvetica,sans-Serif" font-size="11.00" fill="#000000"> &#160;</text>
<polygon fill="#ffffff" stroke="transparent" points="41.5,-79.7 41.5,-98.7 63.5,-98.7 63.5,-79.7 41.5,-79.7"/>
<polygon fill="none" stroke="#000000" points="41.5,-79.7 41.5,-98.7 63.5,-98.7 63.5,-79.7 41.5,-79.7"/>
<text text-anchor="start" x="54.3862" y="-85.8" font-family="Helvetica,sans-Serif" font-size="11.00" fill="#000000"> &#160;</text>
<polygon fill="#ffffff" stroke="transparent" points="63.5,-79.7 63.5,-98.7 95.5,-98.7 95.5,-79.7 63.5,-79.7"/>
<polygon fill="none" stroke="#000000" points="63.5,-79.7 63.5,-98.7 95.5,-98.7 95.5,-79.7 63.5,-79.7"/>
<text text-anchor="start" x="76.9053" y="-85.8" font-family="Helvetica,sans-Serif" font-size="11.00" fill="#000000">3 &gt;</text>
</a>
</g>
</g>
<!-- grupo&#45;&gt;curso -->
<g id="edge4" class="edge">
<title>grupo:w&#45;&gt;curso:e</title>
<path fill="none" stroke="#000000" d="M345.9362,-459.7785C251.598,-460.7442 201.219,-469.0553 136,-394.7 96.5724,-349.7491 155.2923,-128.7 95.5,-128.7"/>
<polygon fill="#000000" stroke="#000000" points="352.5001,-459.7432 360.5194,-463.2999 356.5001,-459.7216 360.5,-459.7 360.5,-459.7 360.5,-459.7 356.5001,-459.7216 360.4806,-456.1001 352.5001,-459.7432 352.5001,-459.7432"/>
<ellipse fill="none" stroke="#000000" cx="349.3002" cy="-459.7605" rx="3.2" ry="3.2"/>
</g>
<!-- turma&#45;&gt;usuario -->
<g id="edge8" class="edge">
<title>turma:w&#45;&gt;usuario:e</title>
<path fill="none" stroke="#000000" d="M359.9728,-110.5846C287.6904,-131.8918 405.0749,-326.7 309.5,-326.7"/>
<polygon fill="#000000" stroke="#000000" points="366.5665,-109.7293 374.9632,-112.2701 370.5332,-109.2146 374.5,-108.7 374.5,-108.7 374.5,-108.7 370.5332,-109.2146 374.0368,-105.1299 366.5665,-109.7293 366.5665,-109.7293"/>
<ellipse fill="none" stroke="#000000" cx="363.3931" cy="-110.141" rx="3.2" ry="3.2"/>
</g>
<!-- turma&#45;&gt;curso -->
<g id="edge7" class="edge">
<title>turma:w&#45;&gt;curso:e</title>
<path fill="none" stroke="#000000" d="M360.0467,-86.4296C265.064,-82.8532 228.7525,-45.6441 136,-85.7 111.8982,-96.1085 121.7533,-128.7 95.5,-128.7"/>
<polygon fill="#000000" stroke="#000000" points="366.5014,-86.5503 374.4326,-90.2994 370.5007,-86.6251 374.5,-86.7 374.5,-86.7 374.5,-86.7 370.5007,-86.6251 374.5674,-83.1006 366.5014,-86.5503 366.5014,-86.5503"/>
<ellipse fill="none" stroke="#000000" cx="363.302" cy="-86.4904" rx="3.2" ry="3.2"/>
</g>
<!-- usuario&#45;&gt;curso -->
<g id="edge9" class="edge">
<title>usuario:w&#45;&gt;curso:e</title>
<path fill="none" stroke="#000000" d="M131.776,-128.7C119.7815,-128.7 112.3229,-128.7 95.5,-128.7"/>
<polygon fill="#000000" stroke="#000000" points="138.5,-128.7001 146.5,-132.3 142.5,-128.7 146.5,-128.7 146.5,-128.7 146.5,-128.7 142.5,-128.7 146.5,-125.1 138.5,-128.7001 138.5,-128.7001"/>
<ellipse fill="none" stroke="#000000" cx="135.3" cy="-128.7001" rx="3.2" ry="3.2"/>
</g>
<!-- token -->
<g id="node6" class="node">
<title>token</title>
<g id="a_node6"><a xlink:href="../../tables/token.html" xlink:title="token" target="_top">
<polygon fill="#ffffff" stroke="transparent" points="370.5,-263.2 370.5,-390.2 454.5,-390.2 454.5,-263.2 370.5,-263.2"/>
<polygon fill="#f5f5f5" stroke="transparent" points="370.5,-366.7 370.5,-389.7 454.5,-389.7 454.5,-366.7 370.5,-366.7"/>
<polygon fill="none" stroke="#000000" points="370.5,-366.7 370.5,-389.7 454.5,-389.7 454.5,-366.7 370.5,-366.7"/>
<text text-anchor="start" x="375.5" y="-375.3" font-family="Helvetica,sans-Serif" font-weight="bold" font-size="11.00" fill="#000000">token</text>
<text text-anchor="start" x="419.5437" y="-374.8" font-family="Helvetica,sans-Serif" font-size="11.00" fill="#000000">[table]</text>
<polygon fill="none" stroke="#000000" points="370.5,-344.7 370.5,-366.7 454.5,-366.7 454.5,-344.7 370.5,-344.7"/>
<image xlink:href="../../images/primaryKeys.png" width="11px" height="12px" preserveAspectRatio="xMinYMin meet" x="375.5" y="-361.7"/>
<text text-anchor="start" x="390.5" y="-351.8" font-family="Helvetica,sans-Serif" font-size="11.00" fill="#000000">id</text>
<polygon fill="#ffffff" stroke="transparent" points="370.5,-322.7 370.5,-344.7 454.5,-344.7 454.5,-322.7 370.5,-322.7"/>
<polygon fill="none" stroke="#000000" points="370.5,-322.7 370.5,-344.7 454.5,-344.7 454.5,-322.7 370.5,-322.7"/>
<text text-anchor="start" x="390.5" y="-329.8" font-family="Helvetica,sans-Serif" font-size="11.00" fill="#000000">token</text>
<polygon fill="none" stroke="#000000" points="370.5,-300.7 370.5,-322.7 454.5,-322.7 454.5,-300.7 370.5,-300.7"/>
<image xlink:href="../../images/foreignKeys.png" width="11px" height="12px" preserveAspectRatio="xMinYMin meet" x="375.5" y="-317.7"/>
<text text-anchor="start" x="390.5" y="-307.8" font-family="Helvetica,sans-Serif" font-size="11.00" fill="#000000">id_usuario</text>
<polygon fill="none" stroke="#000000" points="370.5,-281.7 370.5,-300.7 454.5,-300.7 454.5,-281.7 370.5,-281.7"/>
<text text-anchor="start" x="373.5" y="-287.8" font-family="Helvetica,sans-Serif" font-size="11.00" fill="#000000">...</text>
<polygon fill="#ffffff" stroke="transparent" points="370.5,-262.7 370.5,-281.7 410.5,-281.7 410.5,-262.7 370.5,-262.7"/>
<polygon fill="none" stroke="#000000" points="370.5,-262.7 370.5,-281.7 410.5,-281.7 410.5,-262.7 370.5,-262.7"/>
<text text-anchor="start" x="373.5" y="-268.8" font-family="Helvetica,sans-Serif" font-size="11.00" fill="#000000">&lt; 1</text>
<polygon fill="#ffffff" stroke="transparent" points="410.5,-262.7 410.5,-281.7 432.5,-281.7 432.5,-262.7 410.5,-262.7"/>
<polygon fill="none" stroke="#000000" points="410.5,-262.7 410.5,-281.7 432.5,-281.7 432.5,-262.7 410.5,-262.7"/>
<text text-anchor="start" x="423.3862" y="-268.8" font-family="Helvetica,sans-Serif" font-size="11.00" fill="#000000"> &#160;</text>
<polygon fill="#ffffff" stroke="transparent" points="432.5,-262.7 432.5,-281.7 454.5,-281.7 454.5,-262.7 432.5,-262.7"/>
<polygon fill="none" stroke="#000000" points="432.5,-262.7 432.5,-281.7 454.5,-281.7 454.5,-262.7 432.5,-262.7"/>
<text text-anchor="start" x="445.3862" y="-268.8" font-family="Helvetica,sans-Serif" font-size="11.00" fill="#000000"> &#160;</text>
</a>
</g>
</g>
<!-- token&#45;&gt;usuario -->
<g id="edge6" class="edge">
<title>token:w&#45;&gt;usuario:e</title>
<path fill="none" stroke="#000000" d="M355.9223,-313.3053C339.5451,-317.1749 331.7478,-326.7 309.5,-326.7"/>
<polygon fill="#000000" stroke="#000000" points="362.5481,-312.5757 370.8941,-315.2784 366.524,-312.1378 370.5,-311.7 370.5,-311.7 370.5,-311.7 366.524,-312.1378 370.1059,-308.1216 362.5481,-312.5757 362.5481,-312.5757"/>
<ellipse fill="none" stroke="#000000" cx="359.3673" cy="-312.926" rx="3.2" ry="3.2"/>
</g>
<!-- usuario_grupo -->
<g id="node7" class="node">
<title>usuario_grupo</title>
<g id="a_node7"><a xlink:href="../../tables/usuario_grupo.html" xlink:title="usuario_grupo" target="_top">
<polygon fill="#ffffff" stroke="transparent" points="514,-513.7 514,-599.7 637,-599.7 637,-513.7 514,-513.7"/>
<polygon fill="#f5f5f5" stroke="transparent" points="514.5,-576.7 514.5,-599.7 637.5,-599.7 637.5,-576.7 514.5,-576.7"/>
<polygon fill="none" stroke="#000000" points="514.5,-576.7 514.5,-599.7 637.5,-599.7 637.5,-576.7 514.5,-576.7"/>
<text text-anchor="start" x="519.5" y="-585.3" font-family="Helvetica,sans-Serif" font-weight="bold" font-size="11.00" fill="#000000">usuario_grupo</text>
<text text-anchor="start" x="603.0219" y="-584.8" font-family="Helvetica,sans-Serif" font-size="11.00" fill="#000000">[table]</text>
<polygon fill="none" stroke="#000000" points="514.5,-554.7 514.5,-576.7 637.5,-576.7 637.5,-554.7 514.5,-554.7"/>
<image xlink:href="../../images/foreignKeys.png" width="11px" height="12px" preserveAspectRatio="xMinYMin meet" x="519.5" y="-571.7"/>
<text text-anchor="start" x="543.5" y="-561.8" font-family="Helvetica,sans-Serif" font-size="11.00" fill="#000000">id_usuario</text>
<polygon fill="none" stroke="#000000" points="514.5,-532.7 514.5,-554.7 637.5,-554.7 637.5,-532.7 514.5,-532.7"/>
<image xlink:href="../../images/foreignKeys.png" width="11px" height="12px" preserveAspectRatio="xMinYMin meet" x="519.5" y="-549.7"/>
<text text-anchor="start" x="543.5" y="-539.8" font-family="Helvetica,sans-Serif" font-size="11.00" fill="#000000">id_grupo</text>
<polygon fill="#ffffff" stroke="transparent" points="514.5,-513.7 514.5,-532.7 574.5,-532.7 574.5,-513.7 514.5,-513.7"/>
<polygon fill="none" stroke="#000000" points="514.5,-513.7 514.5,-532.7 574.5,-532.7 574.5,-513.7 514.5,-513.7"/>
<text text-anchor="start" x="517.5" y="-519.8" font-family="Helvetica,sans-Serif" font-size="11.00" fill="#000000">&lt; 2</text>
<polygon fill="#ffffff" stroke="transparent" points="574.5,-513.7 574.5,-532.7 605.5,-532.7 605.5,-513.7 574.5,-513.7"/>
<polygon fill="none" stroke="#000000" points="574.5,-513.7 574.5,-532.7 605.5,-532.7 605.5,-513.7 574.5,-513.7"/>
<text text-anchor="start" x="596.3862" y="-519.8" font-family="Helvetica,sans-Serif" font-size="11.00" fill="#000000"> &#160;</text>
<polygon fill="#ffffff" stroke="transparent" points="605.5,-513.7 605.5,-532.7 637.5,-532.7 637.5,-513.7 605.5,-513.7"/>
<polygon fill="none" stroke="#000000" points="605.5,-513.7 605.5,-532.7 637.5,-532.7 637.5,-513.7 605.5,-513.7"/>
<text text-anchor="start" x="628.3862" y="-519.8" font-family="Helvetica,sans-Serif" font-size="11.00" fill="#000000"> &#160;</text>
</a>
</g>
</g>
<!-- usuario_grupo&#45;&gt;grupo -->
<g id="edge10" class="edge">
<title>usuario_grupo:w&#45;&gt;grupo:e</title>
<path fill="none" stroke="#000000" d="M500.3186,-540.8875C488.7124,-535.825 482.9005,-525.7 465.5,-525.7"/>
<polygon fill="#000000" stroke="#000000" points="506.6528,-542.1437 513.7997,-547.2312 510.5764,-542.9218 514.5,-543.7 514.5,-543.7 514.5,-543.7 510.5764,-542.9218 515.2003,-540.1688 506.6528,-542.1437 506.6528,-542.1437"/>
<ellipse fill="none" stroke="#000000" cx="503.514" cy="-541.5212" rx="3.2" ry="3.2"/>
</g>
<!-- usuario_grupo&#45;&gt;usuario -->
<g id="edge11" class="edge">
<title>usuario_grupo:w&#45;&gt;usuario:e</title>
<path fill="none" stroke="#000000" d="M499.7918,-566.4119C437.2294,-572.4581 403.4147,-613.9334 352,-570.7 267.7497,-499.856 419.5772,-326.7 309.5,-326.7"/>
<polygon fill="#000000" stroke="#000000" points="506.5094,-566.0868 514.6741,-569.2958 510.5047,-565.8934 514.5,-565.7 514.5,-565.7 514.5,-565.7 510.5047,-565.8934 514.3259,-562.1042 506.5094,-566.0868 506.5094,-566.0868"/>
<ellipse fill="none" stroke="#000000" cx="503.3131" cy="-566.2415" rx="3.2" ry="3.2"/>
</g>
<!-- usuario_turma -->
<g id="node8" class="node">
<title>usuario_turma</title>
<g id="a_node8"><a xlink:href="../../tables/usuario_turma.html" xlink:title="usuario_turma" target="_top">
<polygon fill="#ffffff" stroke="transparent" points="514.5,-122.7 514.5,-208.7 636.5,-208.7 636.5,-122.7 514.5,-122.7"/>
<polygon fill="#f5f5f5" stroke="transparent" points="514.5,-185.7 514.5,-208.7 636.5,-208.7 636.5,-185.7 514.5,-185.7"/>
<polygon fill="none" stroke="#000000" points="514.5,-185.7 514.5,-208.7 636.5,-208.7 636.5,-185.7 514.5,-185.7"/>
<text text-anchor="start" x="519.5" y="-194.3" font-family="Helvetica,sans-Serif" font-weight="bold" font-size="11.00" fill="#000000">usuario_turma</text>
<text text-anchor="start" x="602.0219" y="-193.8" font-family="Helvetica,sans-Serif" font-size="11.00" fill="#000000">[table]</text>
<polygon fill="none" stroke="#000000" points="514.5,-163.7 514.5,-185.7 636.5,-185.7 636.5,-163.7 514.5,-163.7"/>
<image xlink:href="../../images/foreignKeys.png" width="11px" height="12px" preserveAspectRatio="xMinYMin meet" x="519.5" y="-180.7"/>
<text text-anchor="start" x="543.5" y="-170.8" font-family="Helvetica,sans-Serif" font-size="11.00" fill="#000000">id_usuario</text>
<polygon fill="none" stroke="#000000" points="514.5,-141.7 514.5,-163.7 636.5,-163.7 636.5,-141.7 514.5,-141.7"/>
<image xlink:href="../../images/foreignKeys.png" width="11px" height="12px" preserveAspectRatio="xMinYMin meet" x="519.5" y="-158.7"/>
<text text-anchor="start" x="543.5" y="-148.8" font-family="Helvetica,sans-Serif" font-size="11.00" fill="#000000">id_turma</text>
<polygon fill="#ffffff" stroke="transparent" points="514.5,-122.7 514.5,-141.7 573.5,-141.7 573.5,-122.7 514.5,-122.7"/>
<polygon fill="none" stroke="#000000" points="514.5,-122.7 514.5,-141.7 573.5,-141.7 573.5,-122.7 514.5,-122.7"/>
<text text-anchor="start" x="517.5" y="-128.8" font-family="Helvetica,sans-Serif" font-size="11.00" fill="#000000">&lt; 2</text>
<polygon fill="#ffffff" stroke="transparent" points="573.5,-122.7 573.5,-141.7 604.5,-141.7 604.5,-122.7 573.5,-122.7"/>
<polygon fill="none" stroke="#000000" points="573.5,-122.7 573.5,-141.7 604.5,-141.7 604.5,-122.7 573.5,-122.7"/>
<text text-anchor="start" x="595.3862" y="-128.8" font-family="Helvetica,sans-Serif" font-size="11.00" fill="#000000"> &#160;</text>
<polygon fill="#ffffff" stroke="transparent" points="604.5,-122.7 604.5,-141.7 636.5,-141.7 636.5,-122.7 604.5,-122.7"/>
<polygon fill="none" stroke="#000000" points="604.5,-122.7 604.5,-141.7 636.5,-141.7 636.5,-122.7 604.5,-122.7"/>
<text text-anchor="start" x="627.3862" y="-128.8" font-family="Helvetica,sans-Serif" font-size="11.00" fill="#000000"> &#160;</text>
</a>
</g>
</g>
<!-- usuario_turma&#45;&gt;turma -->
<g id="edge12" class="edge">
<title>usuario_turma:w&#45;&gt;turma:e</title>
<path fill="none" stroke="#000000" d="M499.6849,-152.7C482.7898,-152.7 473.8125,-152.7 451.5,-152.7"/>
<polygon fill="#000000" stroke="#000000" points="506.5,-152.7001 514.5,-156.3 510.5,-152.7 514.5,-152.7 514.5,-152.7 514.5,-152.7 510.5,-152.7 514.5,-149.1 506.5,-152.7001 506.5,-152.7001"/>
<ellipse fill="none" stroke="#000000" cx="503.3" cy="-152.7001" rx="3.2" ry="3.2"/>
</g>
<!-- usuario_turma&#45;&gt;usuario -->
<g id="edge13" class="edge">
<title>usuario_turma:w&#45;&gt;usuario:e</title>
<path fill="none" stroke="#000000" d="M500.3128,-177.873C491.2825,-182.6585 486.7781,-191.7903 473,-197.7 421.1967,-219.9194 394.4114,-198.5711 352,-235.7 318.414,-265.1027 354.1379,-326.7 309.5,-326.7"/>
<polygon fill="#000000" stroke="#000000" points="506.6929,-176.4461 515.2858,-178.2132 510.5964,-175.5731 514.5,-174.7 514.5,-174.7 514.5,-174.7 510.5964,-175.5731 513.7142,-171.1868 506.6929,-176.4461 506.6929,-176.4461"/>
<ellipse fill="none" stroke="#000000" cx="503.57" cy="-177.1446" rx="3.2" ry="3.2"/>
</g>
</g>
</svg>
