<?xml version="1.0" encoding="UTF-8" standalone="no"?>
<!DOCTYPE svg PUBLIC "-//W3C//DTD SVG 1.1//EN"
 "http://www.w3.org/Graphics/SVG/1.1/DTD/svg11.dtd">
<!-- Generated by graphviz version 2.40.1 (20161225.0304)
 -->
<!-- Title: oneDegreeRelationshipsDiagram Pages: 1 -->
<svg width="478pt" height="335pt"
 viewBox="0.00 0.00 478.00 335.20" xmlns="http://www.w3.org/2000/svg" xmlns:xlink="http://www.w3.org/1999/xlink">
<g id="graph0" class="graph" transform="scale(1 1) rotate(0) translate(4 331.2)">
<title>oneDegreeRelationshipsDiagram</title>
<polygon fill="#ffffff" stroke="transparent" points="-4,4 -4,-331.2 474,-331.2 474,4 -4,4"/>
<text text-anchor="middle" x="72.4936" y="-7.3" font-family="Helvetica,sans-Serif" font-size="11.00" fill="#000000">Generated by SchemaSpy</text>
<!-- turmas -->
<g id="node1" class="node">
<title>turmas</title>
<g id="a_node1"><a xlink:href="../../tables/turmas.html" xlink:title="turmas" target="_top">
<polygon fill="#ffffff" stroke="transparent" points="184,-174.2 184,-323.2 263,-323.2 263,-174.2 184,-174.2"/>
<polygon fill="#f5f5f5" stroke="transparent" points="184.5,-299.7 184.5,-322.7 263.5,-322.7 263.5,-299.7 184.5,-299.7"/>
<polygon fill="none" stroke="#000000" points="184.5,-299.7 184.5,-322.7 263.5,-322.7 263.5,-299.7 184.5,-299.7"/>
<text text-anchor="start" x="189.5" y="-308.3" font-family="Helvetica,sans-Serif" font-weight="bold" font-size="11.00" fill="#000000">turmas</text>
<text text-anchor="start" x="229.0219" y="-307.8" font-family="Helvetica,sans-Serif" font-size="11.00" fill="#000000">[table]</text>
<polygon fill="none" stroke="#000000" points="184.5,-277.7 184.5,-299.7 263.5,-299.7 263.5,-277.7 184.5,-277.7"/>
<image xlink:href="../../images/primaryKeys.png" width="11px" height="12px" preserveAspectRatio="xMinYMin meet" x="189.5" y="-294.7"/>
<text text-anchor="start" x="205.5" y="-284.8" font-family="Helvetica,sans-Serif" font-size="11.00" fill="#000000">id</text>
<polygon fill="none" stroke="#000000" points="184.5,-255.7 184.5,-277.7 263.5,-277.7 263.5,-255.7 184.5,-255.7"/>
<image xlink:href="../../images/foreignKeys.png" width="11px" height="12px" preserveAspectRatio="xMinYMin meet" x="189.5" y="-272.7"/>
<text text-anchor="start" x="205.5" y="-262.8" font-family="Helvetica,sans-Serif" font-size="11.00" fill="#000000">id_curso</text>
<polygon fill="none" stroke="#000000" points="184.5,-233.7 184.5,-255.7 263.5,-255.7 263.5,-233.7 184.5,-233.7"/>
<image xlink:href="../../images/foreignKeys.png" width="11px" height="12px" preserveAspectRatio="xMinYMin meet" x="189.5" y="-250.7"/>
<text text-anchor="start" x="205.5" y="-240.8" font-family="Helvetica,sans-Serif" font-size="11.00" fill="#000000">id_user</text>
<polygon fill="#ffffff" stroke="transparent" points="184.5,-211.7 184.5,-233.7 263.5,-233.7 263.5,-211.7 184.5,-211.7"/>
<polygon fill="none" stroke="#000000" points="184.5,-211.7 184.5,-233.7 263.5,-233.7 263.5,-211.7 184.5,-211.7"/>
<text text-anchor="start" x="205.5" y="-218.8" font-family="Helvetica,sans-Serif" font-size="11.00" fill="#000000">nome</text>
<polygon fill="none" stroke="#000000" points="184.5,-192.7 184.5,-211.7 263.5,-211.7 263.5,-192.7 184.5,-192.7"/>
<text text-anchor="start" x="187.5" y="-198.8" font-family="Helvetica,sans-Serif" font-size="11.00" fill="#000000">...</text>
<polygon fill="#ffffff" stroke="transparent" points="184.5,-173.7 184.5,-192.7 217.5,-192.7 217.5,-173.7 184.5,-173.7"/>
<polygon fill="none" stroke="#000000" points="184.5,-173.7 184.5,-192.7 217.5,-192.7 217.5,-173.7 184.5,-173.7"/>
<text text-anchor="start" x="187.5" y="-179.8" font-family="Helvetica,sans-Serif" font-size="11.00" fill="#000000">&lt; 2</text>
<polygon fill="#ffffff" stroke="transparent" points="217.5,-173.7 217.5,-192.7 235.5,-192.7 235.5,-173.7 217.5,-173.7"/>
<polygon fill="none" stroke="#000000" points="217.5,-173.7 217.5,-192.7 235.5,-192.7 235.5,-173.7 217.5,-173.7"/>
<text text-anchor="start" x="226.3862" y="-179.8" font-family="Helvetica,sans-Serif" font-size="11.00" fill="#000000"> &#160;</text>
<polygon fill="#ffffff" stroke="transparent" points="235.5,-173.7 235.5,-192.7 263.5,-192.7 263.5,-173.7 235.5,-173.7"/>
<polygon fill="none" stroke="#000000" points="235.5,-173.7 235.5,-192.7 263.5,-192.7 263.5,-173.7 235.5,-173.7"/>
<text text-anchor="start" x="244.9053" y="-179.8" font-family="Helvetica,sans-Serif" font-size="11.00" fill="#000000">2 &gt;</text>
</a>
</g>
</g>
<!-- usuarios -->
<g id="node2" class="node">
<title>usuarios</title>
<g id="a_node2"><a xlink:href="../../tables/usuarios.html" xlink:title="usuarios" target="_top">
<polygon fill="#ffffff" stroke="transparent" points="8,-38.2 8,-231.2 135,-231.2 135,-38.2 8,-38.2"/>
<polygon fill="#f5f5f5" stroke="transparent" points="8.5,-207.7 8.5,-230.7 135.5,-230.7 135.5,-207.7 8.5,-207.7"/>
<polygon fill="none" stroke="#000000" points="8.5,-207.7 8.5,-230.7 135.5,-230.7 135.5,-207.7 8.5,-207.7"/>
<text text-anchor="start" x="13.5" y="-216.3" font-family="Helvetica,sans-Serif" font-weight="bold" font-size="11.00" fill="#000000">usuarios</text>
<text text-anchor="start" x="100.5437" y="-215.8" font-family="Helvetica,sans-Serif" font-size="11.00" fill="#000000">[table]</text>
<polygon fill="none" stroke="#000000" points="8.5,-185.7 8.5,-207.7 135.5,-207.7 135.5,-185.7 8.5,-185.7"/>
<image xlink:href="../../images/primaryKeys.png" width="11px" height="12px" preserveAspectRatio="xMinYMin meet" x="13.5" y="-202.7"/>
<text text-anchor="start" x="28.5" y="-192.8" font-family="Helvetica,sans-Serif" font-size="11.00" fill="#000000">id</text>
<polygon fill="none" stroke="#000000" points="8.5,-163.7 8.5,-185.7 135.5,-185.7 135.5,-163.7 8.5,-163.7"/>
<image xlink:href="../../images/foreignKeys.png" width="11px" height="12px" preserveAspectRatio="xMinYMin meet" x="13.5" y="-180.7"/>
<text text-anchor="start" x="28.5" y="-170.8" font-family="Helvetica,sans-Serif" font-size="11.00" fill="#000000">id_curso</text>
<polygon fill="#ffffff" stroke="transparent" points="8.5,-141.7 8.5,-163.7 135.5,-163.7 135.5,-141.7 8.5,-141.7"/>
<polygon fill="none" stroke="#000000" points="8.5,-141.7 8.5,-163.7 135.5,-163.7 135.5,-141.7 8.5,-141.7"/>
<text text-anchor="start" x="28.5" y="-148.8" font-family="Helvetica,sans-Serif" font-size="11.00" fill="#000000">nome</text>
<polygon fill="#ffffff" stroke="transparent" points="8.5,-119.7 8.5,-141.7 135.5,-141.7 135.5,-119.7 8.5,-119.7"/>
<polygon fill="none" stroke="#000000" points="8.5,-119.7 8.5,-141.7 135.5,-141.7 135.5,-119.7 8.5,-119.7"/>
<text text-anchor="start" x="28.5" y="-126.8" font-family="Helvetica,sans-Serif" font-size="11.00" fill="#000000">email</text>
<polygon fill="#ffffff" stroke="transparent" points="8.5,-97.7 8.5,-119.7 135.5,-119.7 135.5,-97.7 8.5,-97.7"/>
<polygon fill="none" stroke="#000000" points="8.5,-97.7 8.5,-119.7 135.5,-119.7 135.5,-97.7 8.5,-97.7"/>
<text text-anchor="start" x="28.5" y="-104.8" font-family="Helvetica,sans-Serif" font-size="11.00" fill="#000000">matricula</text>
<polygon fill="#ffffff" stroke="transparent" points="8.5,-75.7 8.5,-97.7 135.5,-97.7 135.5,-75.7 8.5,-75.7"/>
<polygon fill="none" stroke="#000000" points="8.5,-75.7 8.5,-97.7 135.5,-97.7 135.5,-75.7 8.5,-75.7"/>
<text text-anchor="start" x="28.5" y="-82.8" font-family="Helvetica,sans-Serif" font-size="11.00" fill="#000000">siape</text>
<polygon fill="none" stroke="#000000" points="8.5,-56.7 8.5,-75.7 135.5,-75.7 135.5,-56.7 8.5,-56.7"/>
<text text-anchor="start" x="11.5" y="-62.8" font-family="Helvetica,sans-Serif" font-size="11.00" fill="#000000">...</text>
<polygon fill="#ffffff" stroke="transparent" points="8.5,-37.7 8.5,-56.7 65.5,-56.7 65.5,-37.7 8.5,-37.7"/>
<polygon fill="none" stroke="#000000" points="8.5,-37.7 8.5,-56.7 65.5,-56.7 65.5,-37.7 8.5,-37.7"/>
<text text-anchor="start" x="11.5" y="-43.8" font-family="Helvetica,sans-Serif" font-size="11.00" fill="#000000">&lt; 1</text>
<polygon fill="#ffffff" stroke="transparent" points="65.5,-37.7 65.5,-56.7 95.5,-56.7 95.5,-37.7 65.5,-37.7"/>
<polygon fill="none" stroke="#000000" points="65.5,-37.7 65.5,-56.7 95.5,-56.7 95.5,-37.7 65.5,-37.7"/>
<text text-anchor="start" x="86.3862" y="-43.8" font-family="Helvetica,sans-Serif" font-size="11.00" fill="#000000"> &#160;</text>
<polygon fill="#ffffff" stroke="transparent" points="95.5,-37.7 95.5,-56.7 135.5,-56.7 135.5,-37.7 95.5,-37.7"/>
<polygon fill="none" stroke="#000000" points="95.5,-37.7 95.5,-56.7 135.5,-56.7 135.5,-37.7 95.5,-37.7"/>
<text text-anchor="start" x="116.9053" y="-43.8" font-family="Helvetica,sans-Serif" font-size="11.00" fill="#000000">6 &gt;</text>
</a>
</g>
</g>
<!-- turmas&#45;&gt;usuarios -->
<g id="edge1" class="edge">
<title>turmas:w&#45;&gt;usuarios:e</title>
<path fill="none" stroke="#000000" d="M170.8634,-239.9221C157.071,-227.7811 160.0315,-196.7 135.5,-196.7"/>
<polygon fill="#000000" stroke="#000000" points="176.95,-242.0546 183.3096,-248.0975 180.725,-243.3773 184.5,-244.7 184.5,-244.7 184.5,-244.7 180.725,-243.3773 185.6904,-241.3025 176.95,-242.0546 176.95,-242.0546"/>
<ellipse fill="none" stroke="#000000" cx="173.93" cy="-240.9965" rx="3.2" ry="3.2"/>
</g>
<!-- usuario_turma -->
<g id="node3" class="node">
<title>usuario_turma</title>
<g id="a_node3"><a xlink:href="../../tables/usuario_turma.html" xlink:title="usuario_turma" target="_top">
<polygon fill="#ffffff" stroke="transparent" points="312,-175.7 312,-265.7 462,-265.7 462,-175.7 312,-175.7"/>
<polygon fill="#f5f5f5" stroke="transparent" points="314,-240.7 314,-263.7 460,-263.7 460,-240.7 314,-240.7"/>
<polygon fill="none" stroke="#000000" points="314,-240.7 314,-263.7 460,-263.7 460,-240.7 314,-240.7"/>
<text text-anchor="start" x="319" y="-249.3" font-family="Helvetica,sans-Serif" font-weight="bold" font-size="11.00" fill="#000000">usuario_turma</text>
<text text-anchor="start" x="425.0437" y="-248.8" font-family="Helvetica,sans-Serif" font-size="11.00" fill="#000000">[table]</text>
<polygon fill="none" stroke="#000000" points="314,-218.7 314,-240.7 418,-240.7 418,-218.7 314,-218.7"/>
<image xlink:href="../../images/foreignKeys.png" width="11px" height="12px" preserveAspectRatio="xMinYMin meet" x="319" y="-235.7"/>
<text text-anchor="start" x="334" y="-225.8" font-family="Helvetica,sans-Serif" font-size="11.00" fill="#000000">id_turma</text>
<polygon fill="none" stroke="#000000" points="418,-218.7 418,-240.7 460,-240.7 460,-218.7 418,-218.7"/>
<text text-anchor="start" x="420.9644" y="-226.4" font-family="Helvetica,sans-Serif" font-size="11.00" fill="#000000">int4[10]</text>
<polygon fill="none" stroke="#000000" points="314,-196.7 314,-218.7 418,-218.7 418,-196.7 314,-196.7"/>
<image xlink:href="../../images/foreignKeys.png" width="11px" height="12px" preserveAspectRatio="xMinYMin meet" x="319" y="-213.7"/>
<text text-anchor="start" x="334" y="-203.8" font-family="Helvetica,sans-Serif" font-size="11.00" fill="#000000">id_usuario</text>
<polygon fill="none" stroke="#000000" points="418,-196.7 418,-218.7 460,-218.7 460,-196.7 418,-196.7"/>
<text text-anchor="start" x="420.9644" y="-204.4" font-family="Helvetica,sans-Serif" font-size="11.00" fill="#000000">int4[10]</text>
<polygon fill="#ffffff" stroke="transparent" points="314,-177.7 314,-196.7 370,-196.7 370,-177.7 314,-177.7"/>
<polygon fill="none" stroke="#000000" points="314,-177.7 314,-196.7 370,-196.7 370,-177.7 314,-177.7"/>
<text text-anchor="start" x="317" y="-183.8" font-family="Helvetica,sans-Serif" font-size="11.00" fill="#000000">&lt; 2</text>
<polygon fill="#ffffff" stroke="transparent" points="370,-177.7 370,-196.7 418,-196.7 418,-177.7 370,-177.7"/>
<polygon fill="none" stroke="#000000" points="370,-177.7 370,-196.7 418,-196.7 418,-177.7 370,-177.7"/>
<text text-anchor="start" x="408.8862" y="-183.8" font-family="Helvetica,sans-Serif" font-size="11.00" fill="#000000"> &#160;</text>
<polygon fill="#ffffff" stroke="transparent" points="418,-177.7 418,-196.7 460,-196.7 460,-177.7 418,-177.7"/>
<polygon fill="none" stroke="#000000" points="418,-177.7 418,-196.7 460,-196.7 460,-177.7 418,-177.7"/>
<text text-anchor="start" x="441.4053" y="-183.8" font-family="Helvetica,sans-Serif" font-size="11.00" fill="#000000">0 &gt;</text>
<polygon fill="none" stroke="#000000" stroke-width="2" points="313,-176.7 313,-264.7 461,-264.7 461,-176.7 313,-176.7"/>
</a>
</g>
</g>
<!-- usuario_turma&#45;&gt;turmas -->
<g id="edge2" class="edge">
<title>usuario_turma:w&#45;&gt;turmas:e</title>
<path fill="none" stroke="#000000" d="M299.9165,-234.7303C284.4311,-248.9982 291.814,-288.7 263.5,-288.7"/>
<polygon fill="#000000" stroke="#000000" points="306.4661,-232.391 315.2109,-233.0902 310.2331,-231.0455 314,-229.7 314,-229.7 314,-229.7 310.2331,-231.0455 312.7891,-226.3098 306.4661,-232.391 306.4661,-232.391"/>
<ellipse fill="none" stroke="#000000" cx="303.4526" cy="-233.4674" rx="3.2" ry="3.2"/>
</g>
<!-- usuario_turma&#45;&gt;usuarios -->
<g id="edge3" class="edge">
<title>usuario_turma:w&#45;&gt;usuarios:e</title>
<path fill="none" stroke="#000000" d="M300.2625,-203.2113C289.1981,-193.7391 290.4917,-171.9053 271,-163.7 232.0853,-147.3183 215.779,-149.5456 176,-163.7 154.1248,-171.4837 158.7188,-196.7 135.5,-196.7"/>
<polygon fill="#000000" stroke="#000000" points="306.3956,-205.2153 312.8819,-211.122 310.1978,-206.4576 314,-207.7 314,-207.7 314,-207.7 310.1978,-206.4576 315.1181,-204.278 306.3956,-205.2153 306.3956,-205.2153"/>
<ellipse fill="none" stroke="#000000" cx="303.3539" cy="-204.2214" rx="3.2" ry="3.2"/>
</g>
</g>
</svg>
