<?xml version="1.0" encoding="UTF-8" standalone="no"?>
<!DOCTYPE svg PUBLIC "-//W3C//DTD SVG 1.1//EN"
 "http://www.w3.org/Graphics/SVG/1.1/DTD/svg11.dtd">
<!-- Generated by graphviz version 2.40.1 (20161225.0304)
 -->
<!-- Title: oneDegreeRelationshipsDiagram Pages: 1 -->
<svg width="440pt" height="335pt"
 viewBox="0.00 0.00 440.00 335.20" xmlns="http://www.w3.org/2000/svg" xmlns:xlink="http://www.w3.org/1999/xlink">
<g id="graph0" class="graph" transform="scale(1 1) rotate(0) translate(4 331.2)">
<title>oneDegreeRelationshipsDiagram</title>
<polygon fill="#ffffff" stroke="transparent" points="-4,4 -4,-331.2 436,-331.2 436,4 -4,4"/>
<text text-anchor="middle" x="72.4936" y="-7.3" font-family="Helvetica,sans-Serif" font-size="11.00" fill="#000000">Generated by SchemaSpy</text>
<!-- turmas -->
<g id="node1" class="node">
<title>turmas</title>
<g id="a_node1"><a xlink:href="../../tables/turmas.html" xlink:title="turmas" target="_top">
<polygon fill="#ffffff" stroke="transparent" points="146,-174.2 146,-323.2 225,-323.2 225,-174.2 146,-174.2"/>
<polygon fill="#f5f5f5" stroke="transparent" points="146.5,-299.7 146.5,-322.7 225.5,-322.7 225.5,-299.7 146.5,-299.7"/>
<polygon fill="none" stroke="#000000" points="146.5,-299.7 146.5,-322.7 225.5,-322.7 225.5,-299.7 146.5,-299.7"/>
<text text-anchor="start" x="151.5" y="-308.3" font-family="Helvetica,sans-Serif" font-weight="bold" font-size="11.00" fill="#000000">turmas</text>
<text text-anchor="start" x="191.0219" y="-307.8" font-family="Helvetica,sans-Serif" font-size="11.00" fill="#000000">[table]</text>
<polygon fill="none" stroke="#000000" points="146.5,-277.7 146.5,-299.7 225.5,-299.7 225.5,-277.7 146.5,-277.7"/>
<image xlink:href="../../images/primaryKeys.png" width="11px" height="12px" preserveAspectRatio="xMinYMin meet" x="151.5" y="-294.7"/>
<text text-anchor="start" x="167.5" y="-284.8" font-family="Helvetica,sans-Serif" font-size="11.00" fill="#000000">id</text>
<polygon fill="none" stroke="#000000" points="146.5,-255.7 146.5,-277.7 225.5,-277.7 225.5,-255.7 146.5,-255.7"/>
<image xlink:href="../../images/foreignKeys.png" width="11px" height="12px" preserveAspectRatio="xMinYMin meet" x="151.5" y="-272.7"/>
<text text-anchor="start" x="167.5" y="-262.8" font-family="Helvetica,sans-Serif" font-size="11.00" fill="#000000">id_curso</text>
<polygon fill="none" stroke="#000000" points="146.5,-233.7 146.5,-255.7 225.5,-255.7 225.5,-233.7 146.5,-233.7"/>
<image xlink:href="../../images/foreignKeys.png" width="11px" height="12px" preserveAspectRatio="xMinYMin meet" x="151.5" y="-250.7"/>
<text text-anchor="start" x="167.5" y="-240.8" font-family="Helvetica,sans-Serif" font-size="11.00" fill="#000000">id_user</text>
<polygon fill="#ffffff" stroke="transparent" points="146.5,-211.7 146.5,-233.7 225.5,-233.7 225.5,-211.7 146.5,-211.7"/>
<polygon fill="none" stroke="#000000" points="146.5,-211.7 146.5,-233.7 225.5,-233.7 225.5,-211.7 146.5,-211.7"/>
<text text-anchor="start" x="167.5" y="-218.8" font-family="Helvetica,sans-Serif" font-size="11.00" fill="#000000">nome</text>
<polygon fill="none" stroke="#000000" points="146.5,-192.7 146.5,-211.7 225.5,-211.7 225.5,-192.7 146.5,-192.7"/>
<text text-anchor="start" x="149.5" y="-198.8" font-family="Helvetica,sans-Serif" font-size="11.00" fill="#000000">...</text>
<polygon fill="#ffffff" stroke="transparent" points="146.5,-173.7 146.5,-192.7 179.5,-192.7 179.5,-173.7 146.5,-173.7"/>
<polygon fill="none" stroke="#000000" points="146.5,-173.7 146.5,-192.7 179.5,-192.7 179.5,-173.7 146.5,-173.7"/>
<text text-anchor="start" x="149.5" y="-179.8" font-family="Helvetica,sans-Serif" font-size="11.00" fill="#000000">&lt; 2</text>
<polygon fill="#ffffff" stroke="transparent" points="179.5,-173.7 179.5,-192.7 197.5,-192.7 197.5,-173.7 179.5,-173.7"/>
<polygon fill="none" stroke="#000000" points="179.5,-173.7 179.5,-192.7 197.5,-192.7 197.5,-173.7 179.5,-173.7"/>
<text text-anchor="start" x="188.3862" y="-179.8" font-family="Helvetica,sans-Serif" font-size="11.00" fill="#000000"> &#160;</text>
<polygon fill="#ffffff" stroke="transparent" points="197.5,-173.7 197.5,-192.7 225.5,-192.7 225.5,-173.7 197.5,-173.7"/>
<polygon fill="none" stroke="#000000" points="197.5,-173.7 197.5,-192.7 225.5,-192.7 225.5,-173.7 197.5,-173.7"/>
<text text-anchor="start" x="206.9053" y="-179.8" font-family="Helvetica,sans-Serif" font-size="11.00" fill="#000000">2 &gt;</text>
</a>
</g>
</g>
<!-- usuarios -->
<g id="node2" class="node">
<title>usuarios</title>
<g id="a_node2"><a xlink:href="../../tables/usuarios.html" xlink:title="usuarios" target="_top">
<polygon fill="#ffffff" stroke="transparent" points="8,-38.2 8,-231.2 97,-231.2 97,-38.2 8,-38.2"/>
<polygon fill="#f5f5f5" stroke="transparent" points="8.5,-207.7 8.5,-230.7 97.5,-230.7 97.5,-207.7 8.5,-207.7"/>
<polygon fill="none" stroke="#000000" points="8.5,-207.7 8.5,-230.7 97.5,-230.7 97.5,-207.7 8.5,-207.7"/>
<text text-anchor="start" x="13.5" y="-216.3" font-family="Helvetica,sans-Serif" font-weight="bold" font-size="11.00" fill="#000000">usuarios</text>
<text text-anchor="start" x="63.0219" y="-215.8" font-family="Helvetica,sans-Serif" font-size="11.00" fill="#000000">[table]</text>
<polygon fill="none" stroke="#000000" points="8.5,-185.7 8.5,-207.7 97.5,-207.7 97.5,-185.7 8.5,-185.7"/>
<image xlink:href="../../images/primaryKeys.png" width="11px" height="12px" preserveAspectRatio="xMinYMin meet" x="13.5" y="-202.7"/>
<text text-anchor="start" x="33.5" y="-192.8" font-family="Helvetica,sans-Serif" font-size="11.00" fill="#000000">id</text>
<polygon fill="none" stroke="#000000" points="8.5,-163.7 8.5,-185.7 97.5,-185.7 97.5,-163.7 8.5,-163.7"/>
<image xlink:href="../../images/foreignKeys.png" width="11px" height="12px" preserveAspectRatio="xMinYMin meet" x="13.5" y="-180.7"/>
<text text-anchor="start" x="33.5" y="-170.8" font-family="Helvetica,sans-Serif" font-size="11.00" fill="#000000">id_curso</text>
<polygon fill="#ffffff" stroke="transparent" points="8.5,-141.7 8.5,-163.7 97.5,-163.7 97.5,-141.7 8.5,-141.7"/>
<polygon fill="none" stroke="#000000" points="8.5,-141.7 8.5,-163.7 97.5,-163.7 97.5,-141.7 8.5,-141.7"/>
<text text-anchor="start" x="33.5" y="-148.8" font-family="Helvetica,sans-Serif" font-size="11.00" fill="#000000">nome</text>
<polygon fill="#ffffff" stroke="transparent" points="8.5,-119.7 8.5,-141.7 97.5,-141.7 97.5,-119.7 8.5,-119.7"/>
<polygon fill="none" stroke="#000000" points="8.5,-119.7 8.5,-141.7 97.5,-141.7 97.5,-119.7 8.5,-119.7"/>
<text text-anchor="start" x="33.5" y="-126.8" font-family="Helvetica,sans-Serif" font-size="11.00" fill="#000000">email</text>
<polygon fill="#ffffff" stroke="transparent" points="8.5,-97.7 8.5,-119.7 97.5,-119.7 97.5,-97.7 8.5,-97.7"/>
<polygon fill="none" stroke="#000000" points="8.5,-97.7 8.5,-119.7 97.5,-119.7 97.5,-97.7 8.5,-97.7"/>
<text text-anchor="start" x="33.5" y="-104.8" font-family="Helvetica,sans-Serif" font-size="11.00" fill="#000000">matricula</text>
<polygon fill="#ffffff" stroke="transparent" points="8.5,-75.7 8.5,-97.7 97.5,-97.7 97.5,-75.7 8.5,-75.7"/>
<polygon fill="none" stroke="#000000" points="8.5,-75.7 8.5,-97.7 97.5,-97.7 97.5,-75.7 8.5,-75.7"/>
<text text-anchor="start" x="33.5" y="-82.8" font-family="Helvetica,sans-Serif" font-size="11.00" fill="#000000">siape</text>
<polygon fill="none" stroke="#000000" points="8.5,-56.7 8.5,-75.7 97.5,-75.7 97.5,-56.7 8.5,-56.7"/>
<text text-anchor="start" x="11.5" y="-62.8" font-family="Helvetica,sans-Serif" font-size="11.00" fill="#000000">...</text>
<polygon fill="#ffffff" stroke="transparent" points="8.5,-37.7 8.5,-56.7 46.5,-56.7 46.5,-37.7 8.5,-37.7"/>
<polygon fill="none" stroke="#000000" points="8.5,-37.7 8.5,-56.7 46.5,-56.7 46.5,-37.7 8.5,-37.7"/>
<text text-anchor="start" x="11.5" y="-43.8" font-family="Helvetica,sans-Serif" font-size="11.00" fill="#000000">&lt; 1</text>
<polygon fill="#ffffff" stroke="transparent" points="46.5,-37.7 46.5,-56.7 67.5,-56.7 67.5,-37.7 46.5,-37.7"/>
<polygon fill="none" stroke="#000000" points="46.5,-37.7 46.5,-56.7 67.5,-56.7 67.5,-37.7 46.5,-37.7"/>
<text text-anchor="start" x="58.3862" y="-43.8" font-family="Helvetica,sans-Serif" font-size="11.00" fill="#000000"> &#160;</text>
<polygon fill="#ffffff" stroke="transparent" points="67.5,-37.7 67.5,-56.7 97.5,-56.7 97.5,-37.7 67.5,-37.7"/>
<polygon fill="none" stroke="#000000" points="67.5,-37.7 67.5,-56.7 97.5,-56.7 97.5,-37.7 67.5,-37.7"/>
<text text-anchor="start" x="78.9053" y="-43.8" font-family="Helvetica,sans-Serif" font-size="11.00" fill="#000000">6 &gt;</text>
</a>
</g>
</g>
<!-- turmas&#45;&gt;usuarios -->
<g id="edge1" class="edge">
<title>turmas:w&#45;&gt;usuarios:e</title>
<path fill="none" stroke="#000000" d="M132.8634,-239.9221C119.071,-227.7811 122.0315,-196.7 97.5,-196.7"/>
<polygon fill="#000000" stroke="#000000" points="138.95,-242.0546 145.3096,-248.0975 142.725,-243.3773 146.5,-244.7 146.5,-244.7 146.5,-244.7 142.725,-243.3773 147.6904,-241.3025 138.95,-242.0546 138.95,-242.0546"/>
<ellipse fill="none" stroke="#000000" cx="135.93" cy="-240.9965" rx="3.2" ry="3.2"/>
</g>
<!-- usuario_turma -->
<g id="node3" class="node">
<title>usuario_turma</title>
<g id="a_node3"><a xlink:href="../../tables/usuario_turma.html" xlink:title="usuario_turma" target="_top">
<polygon fill="#ffffff" stroke="transparent" points="274,-175.7 274,-265.7 424,-265.7 424,-175.7 274,-175.7"/>
<polygon fill="#f5f5f5" stroke="transparent" points="276,-240.7 276,-263.7 422,-263.7 422,-240.7 276,-240.7"/>
<polygon fill="none" stroke="#000000" points="276,-240.7 276,-263.7 422,-263.7 422,-240.7 276,-240.7"/>
<text text-anchor="start" x="281" y="-249.3" font-family="Helvetica,sans-Serif" font-weight="bold" font-size="11.00" fill="#000000">usuario_turma</text>
<text text-anchor="start" x="387.0437" y="-248.8" font-family="Helvetica,sans-Serif" font-size="11.00" fill="#000000">[table]</text>
<polygon fill="none" stroke="#000000" points="276,-218.7 276,-240.7 380,-240.7 380,-218.7 276,-218.7"/>
<image xlink:href="../../images/foreignKeys.png" width="11px" height="12px" preserveAspectRatio="xMinYMin meet" x="281" y="-235.7"/>
<text text-anchor="start" x="296" y="-225.8" font-family="Helvetica,sans-Serif" font-size="11.00" fill="#000000">id_turma</text>
<polygon fill="none" stroke="#000000" points="380,-218.7 380,-240.7 422,-240.7 422,-218.7 380,-218.7"/>
<text text-anchor="start" x="382.9644" y="-226.4" font-family="Helvetica,sans-Serif" font-size="11.00" fill="#000000">int4[10]</text>
<polygon fill="none" stroke="#000000" points="276,-196.7 276,-218.7 380,-218.7 380,-196.7 276,-196.7"/>
<image xlink:href="../../images/foreignKeys.png" width="11px" height="12px" preserveAspectRatio="xMinYMin meet" x="281" y="-213.7"/>
<text text-anchor="start" x="296" y="-203.8" font-family="Helvetica,sans-Serif" font-size="11.00" fill="#000000">id_usuario</text>
<polygon fill="none" stroke="#000000" points="380,-196.7 380,-218.7 422,-218.7 422,-196.7 380,-196.7"/>
<text text-anchor="start" x="382.9644" y="-204.4" font-family="Helvetica,sans-Serif" font-size="11.00" fill="#000000">int4[10]</text>
<polygon fill="#ffffff" stroke="transparent" points="276,-177.7 276,-196.7 332,-196.7 332,-177.7 276,-177.7"/>
<polygon fill="none" stroke="#000000" points="276,-177.7 276,-196.7 332,-196.7 332,-177.7 276,-177.7"/>
<text text-anchor="start" x="279" y="-183.8" font-family="Helvetica,sans-Serif" font-size="11.00" fill="#000000">&lt; 2</text>
<polygon fill="#ffffff" stroke="transparent" points="332,-177.7 332,-196.7 380,-196.7 380,-177.7 332,-177.7"/>
<polygon fill="none" stroke="#000000" points="332,-177.7 332,-196.7 380,-196.7 380,-177.7 332,-177.7"/>
<text text-anchor="start" x="370.8862" y="-183.8" font-family="Helvetica,sans-Serif" font-size="11.00" fill="#000000"> &#160;</text>
<polygon fill="#ffffff" stroke="transparent" points="380,-177.7 380,-196.7 422,-196.7 422,-177.7 380,-177.7"/>
<polygon fill="none" stroke="#000000" points="380,-177.7 380,-196.7 422,-196.7 422,-177.7 380,-177.7"/>
<text text-anchor="start" x="403.4053" y="-183.8" font-family="Helvetica,sans-Serif" font-size="11.00" fill="#000000">0 &gt;</text>
<polygon fill="none" stroke="#000000" stroke-width="2" points="275,-176.7 275,-264.7 423,-264.7 423,-176.7 275,-176.7"/>
</a>
</g>
</g>
<!-- usuario_turma&#45;&gt;turmas -->
<g id="edge2" class="edge">
<title>usuario_turma:w&#45;&gt;turmas:e</title>
<path fill="none" stroke="#000000" d="M261.9165,-234.7303C246.4311,-248.9982 253.814,-288.7 225.5,-288.7"/>
<polygon fill="#000000" stroke="#000000" points="268.4661,-232.391 277.2109,-233.0902 272.2331,-231.0455 276,-229.7 276,-229.7 276,-229.7 272.2331,-231.0455 274.7891,-226.3098 268.4661,-232.391 268.4661,-232.391"/>
<ellipse fill="none" stroke="#000000" cx="265.4526" cy="-233.4674" rx="3.2" ry="3.2"/>
</g>
<!-- usuario_turma&#45;&gt;usuarios -->
<g id="edge3" class="edge">
<title>usuario_turma:w&#45;&gt;usuarios:e</title>
<path fill="none" stroke="#000000" d="M262.2625,-203.2113C251.1981,-193.7391 252.4917,-171.9053 233,-163.7 194.0853,-147.3183 177.779,-149.5456 138,-163.7 116.1248,-171.4837 120.7188,-196.7 97.5,-196.7"/>
<polygon fill="#000000" stroke="#000000" points="268.3956,-205.2153 274.8819,-211.122 272.1978,-206.4576 276,-207.7 276,-207.7 276,-207.7 272.1978,-206.4576 277.1181,-204.278 268.3956,-205.2153 268.3956,-205.2153"/>
<ellipse fill="none" stroke="#000000" cx="265.3539" cy="-204.2214" rx="3.2" ry="3.2"/>
</g>
</g>
</svg>
